<svg width="100" height="100" viewBox="0 0 100 100" fill="none" xmlns="http://www.w3.org/2000/svg">
<rect width="100" height="100" fill="white"/>
<path d="M34.6875 15H65.3125C67.7189 15 69.6875 16.9689 69.6875 19.375V80.625C69.6875 83.0311 67.7189 85 65.3125 85H34.6875C32.2811 85 30.3125 83.0311 30.3125 80.625V19.375C30.3125 16.9689 32.2811 15 34.6875 15ZM32.5001 80.625C32.5001 81.8311 33.4811 82.8126 34.6876 82.8126H65.3125C66.5189 82.8126 67.4999 81.8313 67.4999 80.625V72.9687H32.4999V80.625H32.5001ZM32.5001 70.7813H67.5001V22.6563H32.5001V70.7813ZM32.5001 20.4687H67.5001V19.375C67.5001 18.1689 66.5191 17.1874 65.3126 17.1874H34.6876C33.4812 17.1874 32.5001 18.1687 32.5001 19.375V20.4687Z" fill="black"/>
<path d="M49.9999 81.5138C47.9898 81.5138 46.3533 79.8773 46.3533 77.8672C46.3533 75.857 47.9896 74.2206 49.9999 74.2206C52.0101 74.2206 53.6465 75.8569 53.6465 77.8672C53.6465 79.8773 52.0101 81.5138 49.9999 81.5138ZM49.9999 76.4082C49.1946 76.4082 48.5409 77.0619 48.5409 77.8672C48.5409 78.6726 49.1946 79.3262 49.9999 79.3262C50.8053 79.3262 51.4589 78.6725 51.4589 77.8672C51.4589 77.0618 50.8052 76.4082 49.9999 76.4082Z" fill="black"/>
<path fill-rule="evenodd" clip-rule="evenodd" d="M42 43.5C41.7284 43.5 41.5 43.7284 41.5 44V56C41.5 56.2716 41.7284 56.5 42 56.5H58C58.2716 56.5 58.5 56.2716 58.5 56V44C58.5 43.7284 58.2716 43.5 58 43.5H42ZM38.5 44C38.5 42.0716 40.0716 40.5 42 40.5H58C59.9284 40.5 61.5 42.0716 61.5 44V56C61.5 57.9284 59.9284 59.5 58 59.5H42C40.0716 59.5 38.5 57.9284 38.5 56V44Z" fill="black"/>
<path fill-rule="evenodd" clip-rule="evenodd" d="M38.7713 43.1398C39.2464 42.4611 40.1816 42.2961 40.8603 42.7712L50.0001 49.169L59.1399 42.7712C59.8186 42.2961 60.7539 42.4611 61.229 43.1398C61.7041 43.8185 61.539 44.7538 60.8603 45.2289L50.8603 52.2289C50.3438 52.5904 49.6564 52.5904 49.1399 52.2289L39.1399 45.2289C38.4613 44.7538 38.2962 43.8185 38.7713 43.1398Z" fill="black"/>
</svg>
