<svg width="100" height="100" viewBox="0 0 100 100" fill="none" xmlns="http://www.w3.org/2000/svg">
<rect width="100" height="100" fill="white"/>
<path d="M34.6875 15H65.3125C67.7189 15 69.6875 16.9689 69.6875 19.375V80.625C69.6875 83.0311 67.7189 85 65.3125 85H34.6875C32.2811 85 30.3125 83.0311 30.3125 80.625V19.375C30.3125 16.9689 32.2811 15 34.6875 15ZM32.5001 80.625C32.5001 81.8311 33.4811 82.8126 34.6876 82.8126H65.3125C66.5189 82.8126 67.4999 81.8313 67.4999 80.625V72.9687H32.4999V80.625H32.5001ZM32.5001 70.7813H67.5001V22.6563H32.5001V70.7813ZM32.5001 20.4687H67.5001V19.375C67.5001 18.1689 66.5191 17.1874 65.3126 17.1874H34.6876C33.4812 17.1874 32.5001 18.1687 32.5001 19.375V20.4687Z" fill="black"/>
<path d="M49.9999 81.5138C47.9898 81.5138 46.3533 79.8773 46.3533 77.8672C46.3533 75.857 47.9896 74.2206 49.9999 74.2206C52.0101 74.2206 53.6465 75.8569 53.6465 77.8672C53.6465 79.8773 52.0101 81.5138 49.9999 81.5138ZM49.9999 76.4082C49.1946 76.4082 48.5409 77.0619 48.5409 77.8672C48.5409 78.6726 49.1946 79.3262 49.9999 79.3262C50.8053 79.3262 51.4589 78.6725 51.4589 77.8672C51.4589 77.0618 50.8052 76.4082 49.9999 76.4082Z" fill="black"/>
<path fill-rule="evenodd" clip-rule="evenodd" d="M45.2558 38.6976C45.6912 38.4488 46.2222 38.4341 46.6708 38.6584L53.9528 42.2993L60.2558 38.6976C60.72 38.4323 61.2904 38.4343 61.7529 38.7026C62.2154 38.971 62.5 39.4653 62.5 40V56C62.5 56.5383 62.2116 57.0353 61.7442 57.3024L54.7442 61.3024C54.3088 61.5512 53.7778 61.5659 53.3292 61.3416L46.0472 57.7007L39.7442 61.3024C39.28 61.5677 38.7096 61.5657 38.2471 61.2974C37.7846 61.029 37.5 60.5347 37.5 60V44C37.5 43.4617 37.7884 42.9647 38.2558 42.6976L45.2558 38.6976ZM46.0472 41.7007L40.5 44.8705V57.4152L45.2558 54.6976C45.6912 54.4488 46.2222 54.4341 46.6708 54.6584L53.9528 58.2993L59.5 55.1295V42.5848L54.7442 45.3024C54.3088 45.5512 53.7778 45.5659 53.3292 45.3416L46.0472 41.7007Z" fill="black"/>
<path fill-rule="evenodd" clip-rule="evenodd" d="M46 38.5C46.8284 38.5 47.5 39.1716 47.5 40V56C47.5 56.8284 46.8284 57.5 46 57.5C45.1716 57.5 44.5 56.8284 44.5 56V40C44.5 39.1716 45.1716 38.5 46 38.5Z" fill="black"/>
<path fill-rule="evenodd" clip-rule="evenodd" d="M54 42.5C54.8284 42.5 55.5 43.1716 55.5 44V60C55.5 60.8284 54.8284 61.5 54 61.5C53.1716 61.5 52.5 60.8284 52.5 60V44C52.5 43.1716 53.1716 42.5 54 42.5Z" fill="black"/>
</svg>
