<svg width="100" height="100" viewBox="0 0 100 100" fill="none" xmlns="http://www.w3.org/2000/svg">
<rect width="100" height="100" fill="white"/>
<path d="M34.6875 15H65.3125C67.7189 15 69.6875 16.9689 69.6875 19.375V80.625C69.6875 83.0311 67.7189 85 65.3125 85H34.6875C32.2811 85 30.3125 83.0311 30.3125 80.625V19.375C30.3125 16.9689 32.2811 15 34.6875 15ZM32.5001 80.625C32.5001 81.8311 33.4811 82.8126 34.6876 82.8126H65.3125C66.5189 82.8126 67.4999 81.8313 67.4999 80.625V72.9687H32.4999V80.625H32.5001ZM32.5001 70.7813H67.5001V22.6563H32.5001V70.7813ZM32.5001 20.4687H67.5001V19.375C67.5001 18.1689 66.5191 17.1874 65.3126 17.1874H34.6876C33.4812 17.1874 32.5001 18.1687 32.5001 19.375V20.4687Z" fill="black"/>
<path d="M49.9999 81.5138C47.9898 81.5138 46.3533 79.8773 46.3533 77.8672C46.3533 75.857 47.9896 74.2206 49.9999 74.2206C52.0101 74.2206 53.6465 75.8569 53.6465 77.8672C53.6465 79.8773 52.0101 81.5138 49.9999 81.5138ZM49.9999 76.4082C49.1946 76.4082 48.5409 77.0619 48.5409 77.8672C48.5409 78.6726 49.1946 79.3262 49.9999 79.3262C50.8053 79.3262 51.4589 78.6725 51.4589 77.8672C51.4589 77.0618 50.8052 76.4082 49.9999 76.4082Z" fill="black"/>
<path fill-rule="evenodd" clip-rule="evenodd" d="M50 40.5C48.0109 40.5 46.1032 41.2902 44.6967 42.6967C43.2902 44.1032 42.5 46.0109 42.5 48C42.5 50.8971 44.3986 53.7814 46.5889 56.0934C47.6534 57.217 48.723 58.1386 49.5281 58.7797C49.6987 58.9155 49.8569 59.0384 50 59.1474C50.1431 59.0384 50.3013 58.9155 50.4719 58.7797C51.277 58.1386 52.3466 57.217 53.4111 56.0934C55.6014 53.7814 57.5 50.8971 57.5 48C57.5 46.0109 56.7098 44.1032 55.3033 42.6967C53.8968 41.2902 51.9891 40.5 50 40.5ZM50 61C49.1679 62.2481 49.1676 62.2478 49.1672 62.2476L49.1662 62.2469L49.1637 62.2452L49.1561 62.2401L49.1314 62.2234C49.1107 62.2094 49.0817 62.1895 49.0449 62.164C48.9713 62.1131 48.8665 62.0395 48.735 61.9445C48.4722 61.7547 48.1017 61.4788 47.6594 61.1265C46.777 60.4239 45.5966 59.408 44.4111 58.1566C42.1014 55.7186 39.5 52.1029 39.5 48C39.5 45.2152 40.6062 42.5445 42.5754 40.5754C44.5445 38.6062 47.2152 37.5 50 37.5C52.7848 37.5 55.4555 38.6062 57.4246 40.5754C59.3938 42.5445 60.5 45.2152 60.5 48C60.5 52.1029 57.8986 55.7186 55.5889 58.1566C54.4034 59.408 53.223 60.4239 52.3406 61.1265C51.8983 61.4788 51.5278 61.7547 51.265 61.9445C51.1335 62.0395 51.0287 62.1131 50.9551 62.164C50.9183 62.1895 50.8893 62.2094 50.8686 62.2234L50.8439 62.2401L50.8363 62.2452L50.8338 62.2469L50.8328 62.2476C50.8324 62.2478 50.8321 62.2481 50 61ZM50 61L50.8321 62.2481C50.3282 62.584 49.6718 62.584 49.1679 62.2481L50 61Z" fill="black"/>
<path fill-rule="evenodd" clip-rule="evenodd" d="M50 46.5C49.1716 46.5 48.5 47.1716 48.5 48C48.5 48.8284 49.1716 49.5 50 49.5C50.8284 49.5 51.5 48.8284 51.5 48C51.5 47.1716 50.8284 46.5 50 46.5ZM45.5 48C45.5 45.5147 47.5147 43.5 50 43.5C52.4853 43.5 54.5 45.5147 54.5 48C54.5 50.4853 52.4853 52.5 50 52.5C47.5147 52.5 45.5 50.4853 45.5 48Z" fill="black"/>
</svg>
