<svg width="100" height="100" viewBox="0 0 100 100" fill="none" xmlns="http://www.w3.org/2000/svg">
<rect width="100" height="100" fill="white"/>
<path d="M34.6875 15H65.3125C67.7189 15 69.6875 16.9689 69.6875 19.375V80.625C69.6875 83.0311 67.7189 85 65.3125 85H34.6875C32.2811 85 30.3125 83.0311 30.3125 80.625V19.375C30.3125 16.9689 32.2811 15 34.6875 15ZM32.5001 80.625C32.5001 81.8311 33.4811 82.8126 34.6876 82.8126H65.3125C66.5189 82.8126 67.4999 81.8313 67.4999 80.625V72.9687H32.4999V80.625H32.5001ZM32.5001 70.7813H67.5001V22.6563H32.5001V70.7813ZM32.5001 20.4687H67.5001V19.375C67.5001 18.1689 66.5191 17.1874 65.3126 17.1874H34.6876C33.4812 17.1874 32.5001 18.1687 32.5001 19.375V20.4687Z" fill="black"/>
<path d="M49.9999 81.5138C47.9898 81.5138 46.3533 79.8773 46.3533 77.8672C46.3533 75.857 47.9896 74.2206 49.9999 74.2206C52.0101 74.2206 53.6465 75.8569 53.6465 77.8672C53.6465 79.8773 52.0101 81.5138 49.9999 81.5138ZM49.9999 76.4082C49.1946 76.4082 48.5409 77.0619 48.5409 77.8672C48.5409 78.6726 49.1946 79.3262 49.9999 79.3262C50.8053 79.3262 51.4589 78.6725 51.4589 77.8672C51.4589 77.0618 50.8052 76.4082 49.9999 76.4082Z" fill="black"/>
<path fill-rule="evenodd" clip-rule="evenodd" d="M48.2533 37.9691C48.7846 37.6631 49.3869 37.5021 50 37.5021C50.6131 37.5021 51.2154 37.6631 51.7467 37.9691C51.7478 37.9697 51.7489 37.9704 51.75 37.971L58.7442 41.9677L58.75 41.971C59.2815 42.2779 59.723 42.7191 60.0302 43.2505C60.3374 43.7819 60.4994 44.3847 60.5 44.9985V53.0016C60.4994 53.6153 60.3373 54.2181 60.0302 54.7495C59.723 55.2809 59.2815 55.7222 58.75 56.0291L58.7442 56.0324L51.75 60.0291C51.7489 60.0297 51.7478 60.0303 51.7468 60.0309C51.2155 60.3369 50.6131 60.498 50 60.498C49.3869 60.498 48.7845 60.3369 48.2532 60.0309C48.2522 60.0303 48.2511 60.0297 48.25 60.0291L41.2558 56.0324L41.25 56.0291C40.7185 55.7222 40.277 55.2809 39.9698 54.7495C39.6627 54.2181 39.5006 53.6153 39.5 53.0016V44.9985C39.5006 44.3847 39.6626 43.7819 39.9698 43.2505C40.277 42.7191 40.7185 42.2779 41.25 41.971L41.2558 41.9676L48.2533 37.9691ZM50 40.5021C49.9122 40.5021 49.826 40.5252 49.75 40.5691L49.7442 40.5724L42.748 44.5702C42.673 44.614 42.6106 44.6766 42.5671 44.7519C42.5233 44.8276 42.5002 44.9135 42.5 45.001V52.999C42.5002 53.0865 42.5233 53.1724 42.5671 53.2482C42.6106 53.3235 42.673 53.3861 42.7481 53.4299C42.7487 53.4303 42.7494 53.4306 42.75 53.431L49.75 57.431C49.826 57.4749 49.9122 57.498 50 57.498C50.0878 57.498 50.174 57.4749 50.25 57.431L50.2558 57.4276L57.25 53.431C57.2506 53.4306 57.2512 53.4303 57.2519 53.4299C57.327 53.3861 57.3894 53.3235 57.4329 53.2482C57.4768 53.1723 57.4999 53.0862 57.5 52.9985V45.0016C57.4999 44.9139 57.4768 44.8278 57.4329 44.7519C57.3894 44.6766 57.327 44.614 57.252 44.5702C57.2513 44.5698 57.2507 44.5694 57.25 44.5691L50.25 40.5691C50.174 40.5252 50.0878 40.5021 50 40.5021Z" fill="black"/>
<path fill-rule="evenodd" clip-rule="evenodd" d="M44.2015 40.4596C44.6159 39.7422 45.5334 39.4967 46.2507 39.9112L50.0002 42.0776L53.7498 39.9112C54.4671 39.4967 55.3846 39.7422 55.799 40.4596C56.2135 41.1769 55.968 42.0943 55.2507 42.5088L50.7507 45.1088C50.2864 45.377 49.7141 45.377 49.2498 45.1088L44.7498 42.5088C44.0325 42.0943 43.787 41.1769 44.2015 40.4596Z" fill="black"/>
<path fill-rule="evenodd" clip-rule="evenodd" d="M39.7015 48.2496C40.1159 47.5323 41.0334 47.2868 41.7507 47.7012L46.2507 50.3012C46.7145 50.5692 47.0002 51.0643 47.0002 51.6V56.79C47.0002 57.6184 46.3287 58.29 45.5002 58.29C44.6718 58.29 44.0002 57.6184 44.0002 56.79V52.4657L40.2498 50.2988C39.5325 49.8844 39.287 48.9669 39.7015 48.2496Z" fill="black"/>
<path fill-rule="evenodd" clip-rule="evenodd" d="M60.2988 48.2496C60.7132 48.9669 60.4677 49.8844 59.7504 50.2988L56 52.4657V56.79C56 57.6184 55.3284 58.29 54.5 58.29C53.6716 58.29 53 57.6184 53 56.79V51.6C53 51.0643 53.2857 50.5692 53.7496 50.3012L58.2496 47.7012C58.9669 47.2868 59.8844 47.5323 60.2988 48.2496Z" fill="black"/>
<path fill-rule="evenodd" clip-rule="evenodd" d="M39.9714 43.2089C40.3862 42.4918 41.3038 42.2467 42.0209 42.6616L49.9998 47.2771L57.9787 42.6616C58.6958 42.2467 59.6134 42.4918 60.0282 43.2089C60.443 43.926 60.198 44.8436 59.4809 45.2584L50.7509 50.3084C50.2862 50.5772 49.7133 50.5772 49.2487 50.3084L40.5187 45.2584C39.8016 44.8436 39.5566 43.926 39.9714 43.2089Z" fill="black"/>
<path fill-rule="evenodd" clip-rule="evenodd" d="M50 47.5C50.8284 47.5 51.5 48.1716 51.5 49V59.08C51.5 59.9084 50.8284 60.58 50 60.58C49.1716 60.58 48.5 59.9084 48.5 59.08V49C48.5 48.1716 49.1716 47.5 50 47.5Z" fill="black"/>
</svg>
