<svg width="100" height="100" viewBox="0 0 100 100" fill="none" xmlns="http://www.w3.org/2000/svg">
<rect width="100" height="100" fill="white"/>
<path d="M34.6875 15H65.3125C67.7189 15 69.6875 16.9689 69.6875 19.375V80.625C69.6875 83.0311 67.7189 85 65.3125 85H34.6875C32.2811 85 30.3125 83.0311 30.3125 80.625V19.375C30.3125 16.9689 32.2811 15 34.6875 15ZM32.5001 80.625C32.5001 81.8311 33.4811 82.8126 34.6876 82.8126H65.3125C66.5189 82.8126 67.4999 81.8313 67.4999 80.625V72.9687H32.4999V80.625H32.5001ZM32.5001 70.7813H67.5001V22.6563H32.5001V70.7813ZM32.5001 20.4687H67.5001V19.375C67.5001 18.1689 66.5191 17.1874 65.3126 17.1874H34.6876C33.4812 17.1874 32.5001 18.1687 32.5001 19.375V20.4687Z" fill="black"/>
<path d="M49.9999 81.5138C47.9898 81.5138 46.3533 79.8773 46.3533 77.8672C46.3533 75.857 47.9896 74.2206 49.9999 74.2206C52.0101 74.2206 53.6465 75.8569 53.6465 77.8672C53.6465 79.8773 52.0101 81.5138 49.9999 81.5138ZM49.9999 76.4082C49.1946 76.4082 48.5409 77.0619 48.5409 77.8672C48.5409 78.6726 49.1946 79.3262 49.9999 79.3262C50.8053 79.3262 51.4589 78.6725 51.4589 77.8672C51.4589 77.0618 50.8052 76.4082 49.9999 76.4082Z" fill="black"/>
<path fill-rule="evenodd" clip-rule="evenodd" d="M42.5 40C42.5 39.1716 43.1716 38.5 44 38.5H56C56.8284 38.5 57.5 39.1716 57.5 40V47C57.5 47.8284 56.8284 48.5 56 48.5C55.1716 48.5 54.5 47.8284 54.5 47V41.5H45.5V47C45.5 47.8284 44.8284 48.5 44 48.5C43.1716 48.5 42.5 47.8284 42.5 47V40Z" fill="black"/>
<path fill-rule="evenodd" clip-rule="evenodd" d="M42 48.5C41.8674 48.5 41.7402 48.5527 41.6464 48.6464C41.5527 48.7402 41.5 48.8674 41.5 49V54C41.5 54.1326 41.5527 54.2598 41.6464 54.3536C41.7402 54.4473 41.8674 54.5 42 54.5H44C44.8284 54.5 45.5 55.1716 45.5 56C45.5 56.8284 44.8284 57.5 44 57.5H42C41.0717 57.5 40.1815 57.1313 39.5251 56.4749C38.8687 55.8185 38.5 54.9283 38.5 54V49C38.5 48.0717 38.8687 47.1815 39.5251 46.5251C40.1815 45.8687 41.0717 45.5 42 45.5H58C58.9283 45.5 59.8185 45.8688 60.4749 46.5251C61.1313 47.1815 61.5 48.0717 61.5 49V54C61.5 54.9283 61.1313 55.8185 60.4749 56.4749C59.8185 57.1313 58.9283 57.5 58 57.5H56C55.1716 57.5 54.5 56.8284 54.5 56C54.5 55.1716 55.1716 54.5 56 54.5H58C58.1326 54.5 58.2598 54.4473 58.3536 54.3536C58.4473 54.2598 58.5 54.1326 58.5 54V49C58.5 48.8674 58.4473 48.7402 58.3536 48.6464C58.2598 48.5527 58.1326 48.5 58 48.5H42Z" fill="black"/>
<path fill-rule="evenodd" clip-rule="evenodd" d="M42.5 52C42.5 51.1716 43.1716 50.5 44 50.5H56C56.8284 50.5 57.5 51.1716 57.5 52V60C57.5 60.8284 56.8284 61.5 56 61.5H44C43.1716 61.5 42.5 60.8284 42.5 60V52ZM45.5 53.5V58.5H54.5V53.5H45.5Z" fill="black"/>
</svg>
