<svg width="100" height="100" viewBox="0 0 100 100" fill="none" xmlns="http://www.w3.org/2000/svg">
<rect width="100" height="100" fill="white"/>
<path d="M34.6875 15H65.3125C67.7189 15 69.6875 16.9689 69.6875 19.375V80.625C69.6875 83.0311 67.7189 85 65.3125 85H34.6875C32.2811 85 30.3125 83.0311 30.3125 80.625V19.375C30.3125 16.9689 32.2811 15 34.6875 15ZM32.5001 80.625C32.5001 81.8311 33.4811 82.8126 34.6876 82.8126H65.3125C66.5189 82.8126 67.4999 81.8313 67.4999 80.625V72.9687H32.4999V80.625H32.5001ZM32.5001 70.7813H67.5001V22.6563H32.5001V70.7813ZM32.5001 20.4687H67.5001V19.375C67.5001 18.1689 66.5191 17.1874 65.3126 17.1874H34.6876C33.4812 17.1874 32.5001 18.1687 32.5001 19.375V20.4687Z" fill="black"/>
<path d="M49.9999 81.5138C47.9898 81.5138 46.3533 79.8773 46.3533 77.8672C46.3533 75.857 47.9896 74.2206 49.9999 74.2206C52.0101 74.2206 53.6465 75.8569 53.6465 77.8672C53.6465 79.8773 52.0101 81.5138 49.9999 81.5138ZM49.9999 76.4082C49.1946 76.4082 48.5409 77.0619 48.5409 77.8672C48.5409 78.6726 49.1946 79.3262 49.9999 79.3262C50.8053 79.3262 51.4589 78.6725 51.4589 77.8672C51.4589 77.0618 50.8052 76.4082 49.9999 76.4082Z" fill="black"/>
<path fill-rule="evenodd" clip-rule="evenodd" d="M50 41.5C45.3056 41.5 41.5 45.3056 41.5 50C41.5 54.6944 45.3056 58.5 50 58.5C54.6944 58.5 58.5 54.6944 58.5 50C58.5 45.3056 54.6944 41.5 50 41.5ZM38.5 50C38.5 43.6487 43.6487 38.5 50 38.5C56.3513 38.5 61.5 43.6487 61.5 50C61.5 56.3513 56.3513 61.5 50 61.5C43.6487 61.5 38.5 56.3513 38.5 50Z" fill="black"/>
<path fill-rule="evenodd" clip-rule="evenodd" d="M38.5 50C38.5 49.1716 39.1716 48.5 40 48.5H60C60.8284 48.5 61.5 49.1716 61.5 50C61.5 50.8284 60.8284 51.5 60 51.5H40C39.1716 51.5 38.5 50.8284 38.5 50Z" fill="black"/>
<path fill-rule="evenodd" clip-rule="evenodd" d="M47.5004 50C47.5636 52.7399 48.4406 55.3852 50 57.6076C51.5594 55.3852 52.4364 52.7399 52.4996 50C52.4364 47.2601 51.5594 44.6148 50 42.3924C48.4406 44.6148 47.5636 47.2601 47.5004 50ZM50 40L48.8925 38.9884C46.146 41.9952 44.5851 45.8973 44.5003 49.9688C44.4999 49.9896 44.4999 50.0104 44.5003 50.0312C44.5851 54.1027 46.146 58.0048 48.8925 61.0116C49.1767 61.3228 49.5786 61.5 50 61.5C50.4214 61.5 50.8233 61.3228 51.1075 61.0116C53.854 58.0048 55.4149 54.1027 55.4997 50.0312C55.5001 50.0104 55.5001 49.9896 55.4997 49.9688C55.4149 45.8973 53.854 41.9952 51.1075 38.9884L50 40Z" fill="black"/>
</svg>
