<svg width="100" height="100" viewBox="0 0 100 100" fill="none" xmlns="http://www.w3.org/2000/svg">
<rect width="100" height="100" fill="white"/>
<path d="M34.6875 15H65.3125C67.7189 15 69.6875 16.9689 69.6875 19.375V80.625C69.6875 83.0311 67.7189 85 65.3125 85H34.6875C32.2811 85 30.3125 83.0311 30.3125 80.625V19.375C30.3125 16.9689 32.2811 15 34.6875 15ZM32.5001 80.625C32.5001 81.8311 33.4811 82.8126 34.6876 82.8126H65.3125C66.5189 82.8126 67.4999 81.8313 67.4999 80.625V72.9687H32.4999V80.625H32.5001ZM32.5001 70.7813H67.5001V22.6563H32.5001V70.7813ZM32.5001 20.4687H67.5001V19.375C67.5001 18.1689 66.5191 17.1874 65.3126 17.1874H34.6876C33.4812 17.1874 32.5001 18.1687 32.5001 19.375V20.4687Z" fill="black"/>
<path d="M49.9999 81.5138C47.9898 81.5138 46.3533 79.8773 46.3533 77.8672C46.3533 75.857 47.9896 74.2206 49.9999 74.2206C52.0101 74.2206 53.6465 75.8569 53.6465 77.8672C53.6465 79.8773 52.0101 81.5138 49.9999 81.5138ZM49.9999 76.4082C49.1946 76.4082 48.5409 77.0619 48.5409 77.8672C48.5409 78.6726 49.1946 79.3262 49.9999 79.3262C50.8053 79.3262 51.4589 78.6725 51.4589 77.8672C51.4589 77.0618 50.8052 76.4082 49.9999 76.4082Z" fill="black"/>
<path fill-rule="evenodd" clip-rule="evenodd" d="M44 40.5C43.7239 40.5 43.5 40.7239 43.5 41V53C43.5 53.2761 43.7239 53.5 44 53.5H56C56.2761 53.5 56.5 53.2761 56.5 53V41C56.5 40.7239 56.2761 40.5 56 40.5H44ZM40.5 41C40.5 39.067 42.067 37.5 44 37.5H56C57.933 37.5 59.5 39.067 59.5 41V53C59.5 54.933 57.933 56.5 56 56.5H44C42.067 56.5 40.5 54.933 40.5 53V41Z" fill="black"/>
<path fill-rule="evenodd" clip-rule="evenodd" d="M45.5 44C45.5 43.1716 46.1716 42.5 47 42.5H53C53.8284 42.5 54.5 43.1716 54.5 44V50C54.5 50.8284 53.8284 51.5 53 51.5H47C46.1716 51.5 45.5 50.8284 45.5 50V44ZM48.5 45.5V48.5H51.5V45.5H48.5Z" fill="black"/>
<path fill-rule="evenodd" clip-rule="evenodd" d="M47 34.5C47.8284 34.5 48.5 35.1716 48.5 36V39C48.5 39.8284 47.8284 40.5 47 40.5C46.1716 40.5 45.5 39.8284 45.5 39V36C45.5 35.1716 46.1716 34.5 47 34.5Z" fill="black"/>
<path fill-rule="evenodd" clip-rule="evenodd" d="M53 34.5C53.8284 34.5 54.5 35.1716 54.5 36V39C54.5 39.8284 53.8284 40.5 53 40.5C52.1716 40.5 51.5 39.8284 51.5 39V36C51.5 35.1716 52.1716 34.5 53 34.5Z" fill="black"/>
<path fill-rule="evenodd" clip-rule="evenodd" d="M47 53.5C47.8284 53.5 48.5 54.1716 48.5 55V58C48.5 58.8284 47.8284 59.5 47 59.5C46.1716 59.5 45.5 58.8284 45.5 58V55C45.5 54.1716 46.1716 53.5 47 53.5Z" fill="black"/>
<path fill-rule="evenodd" clip-rule="evenodd" d="M53 53.5C53.8284 53.5 54.5 54.1716 54.5 55V58C54.5 58.8284 53.8284 59.5 53 59.5C52.1716 59.5 51.5 58.8284 51.5 58V55C51.5 54.1716 52.1716 53.5 53 53.5Z" fill="black"/>
<path fill-rule="evenodd" clip-rule="evenodd" d="M56.5 44C56.5 43.1716 57.1716 42.5 58 42.5H61C61.8284 42.5 62.5 43.1716 62.5 44C62.5 44.8284 61.8284 45.5 61 45.5H58C57.1716 45.5 56.5 44.8284 56.5 44Z" fill="black"/>
<path fill-rule="evenodd" clip-rule="evenodd" d="M56.5 49C56.5 48.1716 57.1716 47.5 58 47.5H61C61.8284 47.5 62.5 48.1716 62.5 49C62.5 49.8284 61.8284 50.5 61 50.5H58C57.1716 50.5 56.5 49.8284 56.5 49Z" fill="black"/>
<path fill-rule="evenodd" clip-rule="evenodd" d="M37.5 44C37.5 43.1716 38.1716 42.5 39 42.5H42C42.8284 42.5 43.5 43.1716 43.5 44C43.5 44.8284 42.8284 45.5 42 45.5H39C38.1716 45.5 37.5 44.8284 37.5 44Z" fill="black"/>
<path fill-rule="evenodd" clip-rule="evenodd" d="M37.5 49C37.5 48.1716 38.1716 47.5 39 47.5H42C42.8284 47.5 43.5 48.1716 43.5 49C43.5 49.8284 42.8284 50.5 42 50.5H39C38.1716 50.5 37.5 49.8284 37.5 49Z" fill="black"/>
</svg>
