<svg width="100" height="100" viewBox="0 0 100 100" fill="none" xmlns="http://www.w3.org/2000/svg">
<rect width="100" height="100" fill="white"/>
<path fill-rule="evenodd" clip-rule="evenodd" d="M12 58V77H61V58H12ZM10 55C9.44772 55 9 55.4477 9 56V79C9 79.5523 9.44771 80 10 80H63C63.5523 80 64 79.5523 64 79V56C64 55.4477 63.5523 55 63 55H10Z" fill="black"/>
<path fill-rule="evenodd" clip-rule="evenodd" d="M68 33V77H88.5V50.3333L84.6 33H68ZM66 30C65.4477 30 65 30.4477 65 31V79C65 79.5523 65.4477 80 66 80H90.5C91.0523 80 91.5 79.5523 91.5 79V50.1111C91.5 50.0373 91.4918 49.9636 91.4756 49.8916L87.1756 30.7805C87.0729 30.3242 86.6677 30 86.2 30H66Z" fill="black"/>
<path d="M29 81.5C29 85.0899 26.0899 88 22.5 88C18.9101 88 16 85.0899 16 81.5C16 77.9101 18.9101 75 22.5 75C26.0899 75 29 77.9101 29 81.5Z" fill="white"/>
<path fill-rule="evenodd" clip-rule="evenodd" d="M22.5 85C24.433 85 26 83.433 26 81.5C26 79.567 24.433 78 22.5 78C20.567 78 19 79.567 19 81.5C19 83.433 20.567 85 22.5 85ZM22.5 88C26.0899 88 29 85.0899 29 81.5C29 77.9101 26.0899 75 22.5 75C18.9101 75 16 77.9101 16 81.5C16 85.0899 18.9101 88 22.5 88Z" fill="black"/>
<path d="M80 81.5C80 85.0899 77.0899 88 73.5 88C69.9101 88 67 85.0899 67 81.5C67 77.9101 69.9101 75 73.5 75C77.0899 75 80 77.9101 80 81.5Z" fill="white"/>
<path fill-rule="evenodd" clip-rule="evenodd" d="M73.5 85C75.433 85 77 83.433 77 81.5C77 79.567 75.433 78 73.5 78C71.567 78 70 79.567 70 81.5C70 83.433 71.567 85 73.5 85ZM73.5 88C77.0899 88 80 85.0899 80 81.5C80 77.9101 77.0899 75 73.5 75C69.9101 75 67 77.9101 67 81.5C67 85.0899 69.9101 88 73.5 88Z" fill="black"/>
<path fill-rule="evenodd" clip-rule="evenodd" d="M16 41V51H29V41H16ZM14 38C13.4477 38 13 38.4477 13 39V53C13 53.5523 13.4477 54 14 54H31C31.5523 54 32 53.5523 32 53V39C32 38.4477 31.5523 38 31 38H14Z" fill="black"/>
<path fill-rule="evenodd" clip-rule="evenodd" d="M36 31V51H58V31H36ZM34 28C33.4477 28 33 28.4477 33 29V53C33 53.5523 33.4477 54 34 54H60C60.5523 54 61 53.5523 61 53V29C61 28.4477 60.5523 28 60 28H34Z" fill="black"/>
<path fill-rule="evenodd" clip-rule="evenodd" d="M81.5 51V31H84.5V50.5H91V53.5H84C82.6193 53.5 81.5 52.3807 81.5 51Z" fill="black"/>
</svg>
