<svg width="100" height="100" viewBox="0 0 100 100" fill="none" xmlns="http://www.w3.org/2000/svg">
<rect width="100" height="100" fill="white"/>
<path fill-rule="evenodd" clip-rule="evenodd" d="M41.3072 30.9457C41.1031 31.3662 40.635 31.5893 40.1799 31.4829L20.9725 26.9949C20.1374 26.7998 19.4602 27.6775 19.8608 28.4358L28.6565 45.0846C28.8882 45.5231 28.7634 46.0653 28.3633 46.3584L12.8462 57.7258C12.1448 58.2397 12.3881 59.3422 13.2407 59.513L32.4884 63.3704C32.9621 63.4654 33.3002 63.8854 33.2918 64.3684L32.9644 83.0859C32.9497 83.928 33.9188 84.41 34.5814 83.8903L49.8829 71.8895C50.2452 71.6053 50.7548 71.6053 51.1171 71.8895L66.4186 83.8903C67.0812 84.41 68.0503 83.928 68.0355 83.0859L67.7082 64.3684C67.6998 63.8854 68.0379 63.4654 68.5116 63.3704L87.7593 59.513C88.6119 59.3422 88.8552 58.2397 88.1537 57.7258L72.6367 46.3584C72.2366 46.0653 72.1118 45.5231 72.3435 45.0846L81.1392 28.4358C81.5398 27.6775 80.8626 26.7998 80.0274 26.9949L60.82 31.4829C60.3649 31.5893 59.8969 31.3662 59.6928 30.9457L51.3997 13.8542C51.0351 13.1029 49.9648 13.1029 49.6003 13.8542L41.3072 30.9457ZM50.5 18.8721L44.0062 32.2553C43.1901 33.9373 41.3178 34.8296 39.4973 34.4042L24.5634 30.9148L31.3091 43.6832C32.2359 45.4375 31.7367 47.606 30.1362 48.7785L18.2808 57.4634L33.0779 60.4289C34.9727 60.8087 36.3251 62.4887 36.2913 64.4209L36.0375 78.9357L48.0315 69.5289C49.4809 68.3922 51.5191 68.3922 52.9685 69.5289L64.9625 78.9357L64.7087 64.4209C64.6749 62.4887 66.0273 60.8087 67.9221 60.4289L82.7192 57.4634L70.8638 48.7785C69.2633 47.606 68.7641 45.4375 69.6909 43.6832L76.4366 30.9148L61.5026 34.4042C59.6822 34.8296 57.8099 33.9373 56.9938 32.2553L50.5 18.8721Z" fill="black"/>
<path fill-rule="evenodd" clip-rule="evenodd" d="M70.795 13.728C71.4975 14.1671 71.711 15.0925 71.272 15.795L63.772 27.795C63.3329 28.4975 62.4075 28.7111 61.705 28.272C61.0025 27.8329 60.7889 26.9075 61.228 26.205L68.728 14.205C69.167 13.5025 70.0925 13.289 70.795 13.728Z" fill="black"/>
<path fill-rule="evenodd" clip-rule="evenodd" d="M89.4811 43.263C89.612 44.081 89.055 44.8503 88.237 44.9811L75.737 46.9811C74.9189 47.112 74.1497 46.555 74.0188 45.737C73.8879 44.9189 74.445 44.1497 75.263 44.0188L87.763 42.0188C88.581 41.8879 89.3503 42.445 89.4811 43.263Z" fill="black"/>
<path fill-rule="evenodd" clip-rule="evenodd" d="M70.4111 65.9684C70.9808 65.367 71.9302 65.3413 72.5316 65.9111L82.0316 74.9111C82.633 75.4808 82.6587 76.4302 82.0889 77.0316C81.5192 77.633 80.5698 77.6587 79.9684 77.0889L70.4684 68.0889C69.867 67.5192 69.8413 66.5698 70.4111 65.9684Z" fill="black"/>
<path fill-rule="evenodd" clip-rule="evenodd" d="M51 75C51.8284 75 52.5 75.6716 52.5 76.5V88C52.5 88.8284 51.8284 89.5 51 89.5C50.1716 89.5 49.5 88.8284 49.5 88V76.5C49.5 75.6716 50.1716 75 51 75Z" fill="black"/>
<path fill-rule="evenodd" clip-rule="evenodd" d="M31.2314 65.1434C31.7045 65.8235 31.5367 66.7583 30.8566 67.2314L19.3566 75.2314C18.6765 75.7045 17.7417 75.5367 17.2687 74.8566C16.7956 74.1765 16.9634 73.2417 17.6434 72.7687L29.1434 64.7687C29.8235 64.2956 30.7583 64.4634 31.2314 65.1434Z" fill="black"/>
<path fill-rule="evenodd" clip-rule="evenodd" d="M9.5176 42.1587C9.64414 41.34 10.4104 40.7789 11.2291 40.9054L24.3586 42.9347C25.1773 43.0612 25.7384 43.8275 25.6118 44.6462C25.4853 45.4649 24.719 46.026 23.9003 45.8995L10.7709 43.8702C9.95217 43.7437 9.39106 42.9774 9.5176 42.1587Z" fill="black"/>
<path fill-rule="evenodd" clip-rule="evenodd" d="M33.3845 15.6321C34.1399 15.2922 35.0279 15.629 35.3679 16.3845L39.8679 26.3845C40.2078 27.1399 39.871 28.0279 39.1156 28.3679C38.3601 28.7078 37.4721 28.371 37.1321 27.6156L32.6321 17.6156C32.2922 16.8601 32.629 15.9721 33.3845 15.6321Z" fill="black"/>
<path d="M40 43.0234C40 41.5659 40.4661 40.3643 41.3982 39.4186C42.3415 38.4729 43.5487 38 45.0199 38C46.5135 38 47.7208 38.4784 48.6417 39.4352C49.5738 40.381 50.0398 41.6104 50.0398 43.1235V44.3084C50.0398 45.777 49.5681 46.9786 48.6248 47.9132C47.6927 48.8367 46.5023 49.2984 45.0536 49.2984C43.5937 49.2984 42.3864 48.8367 41.4319 47.9132C40.4773 46.9786 40 45.7381 40 44.1916V43.0234ZM42.3247 44.3084C42.3247 45.1762 42.5717 45.8939 43.0658 46.4613C43.56 47.0176 44.2226 47.2957 45.0536 47.2957C45.8509 47.2957 46.4911 47.0231 46.974 46.478C47.4681 45.9328 47.7152 45.1874 47.7152 44.2417V43.0234C47.7152 42.1555 47.4737 41.4379 46.9908 40.8705C46.5079 40.3031 45.8509 40.0194 45.0199 40.0194C44.1889 40.0194 43.5319 40.3031 43.049 40.8705C42.5661 41.4379 42.3247 42.1778 42.3247 43.0901V44.3084ZM51.9433 56.6916C51.9433 55.2341 52.4094 54.0381 53.3415 53.1035C54.2848 52.1578 55.4921 51.6849 56.9632 51.6849C58.4344 51.6849 59.6417 52.1522 60.585 53.0868C61.5283 54.0214 62 55.2619 62 56.8084V57.9933C62 59.4508 61.5283 60.6524 60.585 61.5981C59.6529 62.5327 58.4569 63 56.9969 63C55.537 63 54.3298 62.5383 53.3752 61.6148C52.4206 60.6802 51.9433 59.4397 51.9433 57.8932V56.6916ZM54.268 57.9933C54.268 58.8723 54.5151 59.5955 55.0092 60.1629C55.5033 60.7192 56.1659 60.9973 56.9969 60.9973C57.8055 60.9973 58.4512 60.7247 58.9341 60.1796C59.417 59.6233 59.6585 58.8723 59.6585 57.9266V56.6916C59.6585 55.8126 59.4114 55.095 58.9173 54.5387C58.4344 53.9824 57.7831 53.7043 56.9632 53.7043C56.1659 53.7043 55.5145 53.9824 55.0092 54.5387C54.5151 55.0839 54.268 55.8238 54.268 56.7583V57.9933ZM45.7611 60.8138L43.9923 59.7123L55.9694 40.7203L57.7381 41.8218L45.7611 60.8138Z" fill="black"/>
</svg>
