<svg width="100" height="100" viewBox="0 0 100 100" fill="none" xmlns="http://www.w3.org/2000/svg">
<rect width="100" height="100" fill="white"/>
<path fill-rule="evenodd" clip-rule="evenodd" d="M49.0403 29.5993C49.8409 28.5596 51.409 28.5596 52.2097 29.5993L54.906 33.1011L57.0808 29.806C57.8713 28.6082 59.6287 28.6082 60.4192 29.806L62.5 32.9587L64.6121 29.7585C65.3685 28.6125 67.0283 28.5521 67.866 29.64L70.625 33.2232L72.9153 30.2487C74.0801 28.7359 76.5 29.5597 76.5 31.4689V85.8182C76.5 87.1989 75.3807 88.3182 74 88.3182H26C24.6193 88.3182 23.5 87.1989 23.5 85.8182V31.2157C23.5 29.429 25.6643 28.5389 26.9213 29.8086L30.3909 33.3133L32.7058 29.806C33.4963 28.6082 35.2537 28.6082 36.0442 29.806L38.219 33.1011L40.884 29.64C41.7217 28.5521 43.3815 28.6125 44.1379 29.7585L46.344 33.1011L49.0403 29.5993ZM50.625 32.4586L47.866 36.0417C47.0283 37.1297 45.3685 37.0693 44.6121 35.9232L42.406 32.5807L39.741 36.0417C38.9033 37.1297 37.2435 37.0693 36.4871 35.9232L34.375 32.7231L32.2162 35.994C31.5166 37.0539 30.0192 37.2019 29.1257 36.2994L26.5 33.6472V85.3182H73.5V34.4067L72.2097 36.0824C71.409 37.1222 69.8409 37.1222 69.0403 36.0824L66.344 32.5807L64.1692 35.8758C63.3787 37.0735 61.6213 37.0735 60.8308 35.8758L58.75 32.7231L56.6379 35.9232C55.8815 37.0693 54.2217 37.1297 53.384 36.0417L50.625 32.4586Z" fill="black"/>
<path d="M39.7727 44.6818C39.7727 45.937 38.7552 46.9546 37.5 46.9546C36.2448 46.9546 35.2273 45.937 35.2273 44.6818C35.2273 43.4267 36.2448 42.4091 37.5 42.4091C38.7552 42.4091 39.7727 43.4267 39.7727 44.6818Z" fill="black"/>
<path d="M65.9091 44.6818C65.9091 45.937 64.8916 46.9546 63.6364 46.9546C62.3812 46.9546 61.3636 45.937 61.3636 44.6818C61.3636 43.4267 62.3812 42.4091 63.6364 42.4091C64.8916 42.4091 65.9091 43.4267 65.9091 44.6818Z" fill="black"/>
<path fill-rule="evenodd" clip-rule="evenodd" d="M50.5682 15.5C44.1793 15.5 39 20.6792 39 27.0682V43.5455H36V27.0682C36 19.0224 42.5224 12.5 50.5682 12.5C58.614 12.5 65.1364 19.0224 65.1364 27.0682V43.5455H62.1364V27.0682C62.1364 20.6793 56.9571 15.5 50.5682 15.5Z" fill="black"/>
</svg>
