<svg width="100" height="100" viewBox="0 0 100 100" fill="none" xmlns="http://www.w3.org/2000/svg">
<rect width="100" height="100" fill="white"/>
<path fill-rule="evenodd" clip-rule="evenodd" d="M54.4816 22.8988C60.3768 17.447 67.2106 19.2633 70.104 20.4251C71.8087 21.1096 72.4286 22.9574 71.9304 24.4934L66.6695 40.7145C66.9535 41.0907 67.3497 41.6222 67.8263 42.279C68.8173 43.6448 70.159 45.5567 71.5614 47.7409C74.3291 52.0516 77.4677 57.626 78.4653 62.179C79.7643 68.1078 80.8946 75.9662 81.3125 79.0069C81.5018 80.3836 80.8588 81.7498 79.6267 82.455C77.5312 83.6544 72.7602 86.2778 67.2327 88.6035C61.7522 90.9094 55.3314 93.0089 49.9975 93C44.7722 92.9912 38.4935 90.9094 33.125 88.6216C27.7098 86.3138 23.021 83.7075 20.9152 82.488C19.6482 81.7542 19.0055 80.3193 19.2627 78.8997C19.8588 75.6106 21.4856 66.8714 23.0448 60.6362C24.1402 56.256 27.1446 51.072 29.7688 47.0905C31.0973 45.0749 32.3592 43.322 33.2891 42.0729C33.7187 41.4958 34.0781 41.0252 34.3414 40.6849L29.4816 24.3382C29.0572 22.9107 29.5819 21.1346 31.2355 20.4506C33.7778 19.399 39.1893 18.1825 44.943 22.8335C46.9449 24.4518 48.5284 26.3036 49.6052 27.7354C49.7323 27.9044 49.8527 28.068 49.9663 28.2252C50.0554 28.0939 50.149 27.9581 50.2468 27.8184C51.2344 26.4078 52.6782 24.5665 54.4816 22.8988ZM48.6951 31.7398L48.6931 31.7364L48.6783 31.7108C48.6641 31.6866 48.6415 31.6482 48.6107 31.5969C48.5489 31.4942 48.4542 31.34 48.328 31.1436C48.0753 30.7503 47.6979 30.1904 47.2077 29.5386C46.2221 28.2282 44.8056 26.58 43.057 25.1666C38.4332 21.4289 34.2855 22.4355 32.3822 23.2228C32.3746 23.2259 32.3709 23.2283 32.3699 23.2289C32.3689 23.2297 32.3685 23.2301 32.3681 23.2304C32.3678 23.2307 32.362 23.2366 32.3551 23.2535C32.3398 23.2908 32.3244 23.373 32.3572 23.4833L37.6617 41.3257L37.1693 41.9396L37.1651 41.9449L37.1466 41.9682L37.0708 42.0638C37.0037 42.1489 36.9038 42.276 36.7754 42.4415C36.5186 42.7726 36.1478 43.2568 35.6956 43.8642C34.7906 45.08 33.5632 46.785 32.2737 48.7414C29.6621 52.7038 26.9165 57.5198 25.9552 61.364C24.4229 67.4915 22.8116 76.1407 22.2147 79.4347C22.1791 79.6308 22.2648 79.8028 22.4187 79.8919C24.4704 81.0801 29.0423 83.6206 34.3012 85.8618C39.607 88.1229 45.416 89.9923 50.0025 90C54.6995 90.0079 60.651 88.118 66.0693 85.8383C71.4406 83.5783 76.0949 81.0199 78.1364 79.8513C78.2806 79.7688 78.3672 79.6096 78.3405 79.4154C77.9225 76.3746 76.8057 68.6218 75.5348 62.8211C74.6634 58.8441 71.802 53.6684 69.0369 49.3617C67.6729 47.2372 66.3651 45.3735 65.3981 44.0409C64.915 43.375 64.5178 42.843 64.2424 42.4786C64.1047 42.2964 63.9975 42.1562 63.9252 42.0623C63.9006 42.0302 63.88 42.0035 63.8636 41.9824C63.856 41.9726 63.8494 41.964 63.8436 41.9566L63.8236 41.9308L63.8179 41.9235L63.3273 41.2954L69.0768 23.5679C69.1142 23.4524 69.1006 23.357 69.0767 23.3001C69.0565 23.2519 69.0299 23.2266 68.9862 23.2091C66.4251 22.1807 61.1008 20.8636 56.5184 25.1013C54.9233 26.5765 53.6171 28.2353 52.7043 29.539C52.2502 30.1876 51.8987 30.7408 51.6626 31.1285C51.5447 31.3222 51.4558 31.474 51.3977 31.5753C51.3686 31.6259 51.3472 31.6638 51.3338 31.6879L51.3195 31.7136L51.3172 31.7178L51.3167 31.7188L50.026 34.0877L48.6958 31.7411L48.6951 31.7398Z" fill="black"/>
<path fill-rule="evenodd" clip-rule="evenodd" d="M66 42.5001H35V39.5001H66V42.5001Z" fill="black"/>
<path fill-rule="evenodd" clip-rule="evenodd" d="M67 45.5H34V42.5H67V45.5Z" fill="black"/>
</svg>
