<svg width="100" height="100" viewBox="0 0 100 100" fill="none" xmlns="http://www.w3.org/2000/svg">
<rect width="100" height="100" fill="white"/>
<path fill-rule="evenodd" clip-rule="evenodd" d="M69.0025 48.5858C69.7835 47.8047 71.0498 47.8047 71.8309 48.5858L80.5809 57.3358C81.3619 58.1168 81.3619 59.3832 80.5809 60.1642L60.1642 80.5809C59.3832 81.3619 58.1168 81.3619 57.3358 80.5809L48.5858 71.8309C47.8047 71.0498 47.8047 69.7835 48.5858 69.0025L69.0025 48.5858ZM52.8284 70.4167L58.75 76.3382L76.3382 58.75L70.4167 52.8284L52.8284 70.4167Z" fill="black"/>
<path fill-rule="evenodd" clip-rule="evenodd" d="M19.4198 19.4191C19.9125 18.9264 20.626 18.7257 21.3033 18.8892L63.595 29.0975C64.352 29.2802 64.9341 29.8858 65.0869 30.6494L69.4619 52.5244C69.593 53.1801 69.3878 53.858 68.9149 54.3309L54.3316 68.9142C53.8587 69.3871 53.1808 69.5923 52.5251 69.4612L30.6501 65.0862C29.8865 64.9334 29.2809 64.3513 29.0982 63.5943L18.8899 21.3026C18.7264 20.6253 18.9271 19.9118 19.4198 19.4191ZM23.5461 23.5454L32.6869 61.4143L52.26 65.3289L65.3296 52.2593L61.415 32.6862L23.5461 23.5454Z" fill="black"/>
<path fill-rule="evenodd" clip-rule="evenodd" d="M19.4198 19.4191C20.2008 18.6381 21.4671 18.6381 22.2482 19.4191L44.374 41.545C45.1551 42.326 45.1551 43.5923 44.374 44.3734C43.593 45.1544 42.3267 45.1544 41.5456 44.3734L19.4198 22.2475C18.6387 21.4665 18.6387 20.2002 19.4198 19.4191Z" fill="black"/>
<path fill-rule="evenodd" clip-rule="evenodd" d="M47.0833 43.25C44.9662 43.25 43.25 44.9662 43.25 47.0833C43.25 49.2004 44.9662 50.9167 47.0833 50.9167C49.2004 50.9167 50.9167 49.2004 50.9167 47.0833C50.9167 44.9662 49.2004 43.25 47.0833 43.25ZM39.25 47.0833C39.25 42.7571 42.7571 39.25 47.0833 39.25C51.4096 39.25 54.9167 42.7571 54.9167 47.0833C54.9167 51.4096 51.4096 54.9167 47.0833 54.9167C42.7571 54.9167 39.25 51.4096 39.25 47.0833Z" fill="black"/>
</svg>
