<svg width="100" height="100" viewBox="0 0 100 100" fill="none" xmlns="http://www.w3.org/2000/svg">
<rect width="100" height="100" fill="white"/>
<path fill-rule="evenodd" clip-rule="evenodd" d="M50.0007 22.8333C34.9969 22.8333 22.834 34.9963 22.834 50C22.834 65.0037 34.9969 77.1667 50.0007 77.1667C65.0044 77.1667 77.1673 65.0037 77.1673 50C77.1673 34.9963 65.0044 22.8333 50.0007 22.8333ZM18.834 50C18.834 32.7871 32.7878 18.8333 50.0007 18.8333C67.2135 18.8333 81.1673 32.7871 81.1673 50C81.1673 67.2129 67.2135 81.1667 50.0007 81.1667C32.7878 81.1667 18.834 67.2129 18.834 50Z" fill="black"/>
<path fill-rule="evenodd" clip-rule="evenodd" d="M65.5 50C65.5 48.8954 66.3954 48 67.5 48H79.1667C80.2712 48 81.1667 48.8954 81.1667 50C81.1667 51.1046 80.2712 52 79.1667 52H67.5C66.3954 52 65.5 51.1046 65.5 50Z" fill="black"/>
<path fill-rule="evenodd" clip-rule="evenodd" d="M18.834 50C18.834 48.8954 19.7294 48 20.834 48H32.5007C33.6052 48 34.5007 48.8954 34.5007 50C34.5007 51.1046 33.6052 52 32.5007 52H20.834C19.7294 52 18.834 51.1046 18.834 50Z" fill="black"/>
<path fill-rule="evenodd" clip-rule="evenodd" d="M50 18.8333C51.1046 18.8333 52 19.7288 52 20.8333V32.5C52 33.6046 51.1046 34.5 50 34.5C48.8954 34.5 48 33.6046 48 32.5V20.8333C48 19.7288 48.8954 18.8333 50 18.8333Z" fill="black"/>
<path fill-rule="evenodd" clip-rule="evenodd" d="M50 65.5C51.1046 65.5 52 66.3954 52 67.5V79.1667C52 80.2712 51.1046 81.1667 50 81.1667C48.8954 81.1667 48 80.2712 48 79.1667V67.5C48 66.3954 48.8954 65.5 50 65.5Z" fill="black"/>
</svg>
