<svg width="100" height="100" viewBox="0 0 100 100" fill="none" xmlns="http://www.w3.org/2000/svg">
<rect width="100" height="100" fill="white"/>
<path fill-rule="evenodd" clip-rule="evenodd" d="M50.0007 18.8333C50.762 18.8333 51.4572 19.2655 51.7941 19.9481L60.3417 37.2646L79.4566 40.0585C80.2098 40.1686 80.8351 40.6966 81.0699 41.4206C81.3046 42.1446 81.1081 42.9392 80.5628 43.4702L66.7331 56.9404L69.9969 75.9702C70.1256 76.7206 69.8171 77.479 69.2012 77.9264C68.5852 78.3739 67.7686 78.4328 67.0948 78.0785L50.0007 69.0889L32.9066 78.0785C32.2328 78.4328 31.4162 78.3739 30.8002 77.9264C30.1843 77.479 29.8758 76.7206 30.0045 75.9702L33.2683 56.9404L19.4386 43.4702C18.8933 42.9392 18.6968 42.1446 18.9316 41.4206C19.1663 40.6966 19.7917 40.1686 20.5448 40.0585L39.6597 37.2646L48.2073 19.9481C48.5442 19.2655 49.2395 18.8333 50.0007 18.8333ZM50.0007 25.3518L42.7816 39.9769C42.4905 40.5666 41.9282 40.9755 41.2775 41.0706L25.1309 43.4307L36.8128 54.8089C37.2846 55.2684 37.4999 55.9307 37.3886 56.5798L34.6321 72.6517L49.0698 65.059C49.6526 64.7525 50.3488 64.7525 50.9316 65.059L65.3694 72.6517L62.6128 56.5798C62.5015 55.9307 62.7168 55.2684 63.1886 54.8089L74.8706 43.4307L58.724 41.0706C58.0732 40.9755 57.5109 40.5666 57.2198 39.9769L50.0007 25.3518Z" fill="black"/>
</svg>
