<svg width="100" height="100" viewBox="0 0 100 100" fill="none" xmlns="http://www.w3.org/2000/svg">
<rect width="100" height="100" fill="white"/>
<path fill-rule="evenodd" clip-rule="evenodd" d="M34.0018 51.5025C34.7829 50.7214 36.0492 50.7214 36.8302 51.5025L49.9993 64.6716L63.1685 51.5025C63.9495 50.7214 65.2158 50.7214 65.9969 51.5025C66.7779 52.2835 66.7779 53.5498 65.9969 54.3309L51.4136 68.9142C50.6325 69.6953 49.3662 69.6953 48.5851 68.9142L34.0018 54.3309C33.2208 53.5498 33.2208 52.2835 34.0018 51.5025Z" fill="black"/>
<path fill-rule="evenodd" clip-rule="evenodd" d="M34.0018 31.0858C34.7829 30.3047 36.0492 30.3047 36.8302 31.0858L49.9993 44.2549L63.1685 31.0858C63.9495 30.3047 65.2158 30.3047 65.9969 31.0858C66.7779 31.8668 66.7779 33.1332 65.9969 33.9142L51.4136 48.4975C51.0385 48.8726 50.5298 49.0833 49.9993 49.0833C49.4689 49.0833 48.9602 48.8726 48.5851 48.4975L34.0018 33.9142C33.2208 33.1332 33.2208 31.8668 34.0018 31.0858Z" fill="black"/>
</svg>
