<svg width="100" height="100" viewBox="0 0 100 100" fill="none" xmlns="http://www.w3.org/2000/svg">
<rect width="100" height="100" fill="white"/>
<path fill-rule="evenodd" clip-rule="evenodd" d="M19.0198 22.9082C19.3475 22.2019 20.0554 21.75 20.834 21.75H79.1674C79.946 21.75 80.6539 22.2019 80.9816 22.9082C81.3093 23.6146 81.1973 24.4469 80.6945 25.0415L57.834 52.074V76.25C57.834 76.9432 57.4751 77.5869 56.8855 77.9513C56.2958 78.3157 55.5596 78.3488 54.9396 78.0389L43.2729 72.2055C42.5954 71.8667 42.1673 71.1742 42.1673 70.4167V52.074L19.3069 25.0415C18.8041 24.4469 18.6921 23.6146 19.0198 22.9082ZM25.1446 25.75L45.6945 50.0502C45.9998 50.4113 46.1673 50.8688 46.1673 51.3417V69.1806L53.834 73.0139V51.3417C53.834 50.8688 54.0015 50.4113 54.3069 50.0502L74.8567 25.75H25.1446Z" fill="black"/>
</svg>
