<svg width="100" height="100" viewBox="0 0 100 100" fill="none" xmlns="http://www.w3.org/2000/svg">
<rect width="100" height="100" fill="white"/>
<path fill-rule="evenodd" clip-rule="evenodd" d="M49.9993 30.5C50.5298 30.5 51.0385 30.7107 51.4136 31.0858L65.9969 45.6691C66.7779 46.4502 66.7779 47.7165 65.9969 48.4976C65.2158 49.2786 63.9495 49.2786 63.1685 48.4975L49.9993 35.3284L36.8302 48.4975C36.0492 49.2786 34.7829 49.2786 34.0018 48.4976C33.2208 47.7165 33.2208 46.4502 34.0018 45.6691L48.5851 31.0858C48.9602 30.7107 49.4689 30.5 49.9993 30.5Z" fill="black"/>
<path fill-rule="evenodd" clip-rule="evenodd" d="M48.5851 51.5025C49.3662 50.7214 50.6325 50.7214 51.4136 51.5025L65.9969 66.0858C66.7779 66.8668 66.7779 68.1332 65.9969 68.9142C65.2158 69.6953 63.9495 69.6953 63.1685 68.9142L49.9993 55.7451L36.8302 68.9142C36.0492 69.6953 34.7829 69.6953 34.0018 68.9142C33.2208 68.1332 33.2208 66.8668 34.0018 66.0858L48.5851 51.5025Z" fill="black"/>
</svg>
