<svg width="100" height="100" viewBox="0 0 100 100" fill="none" xmlns="http://www.w3.org/2000/svg">
<rect width="100" height="100" fill="white"/>
<path fill-rule="evenodd" clip-rule="evenodd" d="M20.1879 50C20.192 50.0073 20.1962 50.0147 20.2003 50.0221C20.5417 50.6289 21.0562 51.5051 21.738 52.5608C23.1041 54.676 25.1284 57.4912 27.7605 60.2988C33.0612 65.9529 40.59 71.3333 49.9993 71.3333C59.4087 71.3333 66.9375 65.9529 72.2382 60.2988C74.8703 57.4912 76.8946 54.676 78.2607 52.5608C78.9425 51.5051 79.457 50.6289 79.7983 50.0221C79.8025 50.0147 79.8066 50.0073 79.8108 50C79.8066 49.9927 79.8025 49.9853 79.7983 49.9779C79.457 49.3711 78.9425 48.4949 78.2607 47.4392C76.8946 45.324 74.8703 42.5088 72.2382 39.7012C66.9375 34.0471 59.4087 28.6667 49.9993 28.6667C40.59 28.6667 33.0612 34.0471 27.7605 39.7012C25.1284 42.5088 23.1041 45.324 21.738 47.4392C21.0562 48.4949 20.5417 49.3711 20.2003 49.9779C20.1962 49.9853 20.192 49.9927 20.1879 50ZM82.0827 50C83.8715 49.1056 83.8712 49.1049 83.8708 49.1041L83.8698 49.1021L83.8669 49.0964L83.858 49.0788L83.8273 49.0186C83.8011 48.9676 83.7634 48.8951 83.7144 48.8025C83.6164 48.6173 83.4729 48.3516 83.2847 48.0169C82.9082 47.3477 82.3518 46.401 81.6208 45.2691C80.1614 43.0093 77.993 39.9912 75.1563 36.9655C69.5196 30.9529 61.0067 24.6667 49.9993 24.6667C38.992 24.6667 30.4791 30.9529 24.8424 36.9655C22.0057 39.9912 19.8373 43.0093 18.3779 45.2691C17.6469 46.401 17.0905 47.3477 16.714 48.0169C16.5258 48.3516 16.3823 48.6173 16.2843 48.8025C16.2353 48.8951 16.1976 48.9676 16.1714 49.0186L16.1407 49.0788L16.1318 49.0964L16.1289 49.1021L16.1279 49.1041C16.1275 49.1049 16.1272 49.1056 17.916 50L16.1272 49.1056C15.8456 49.6686 15.8456 50.3314 16.1272 50.8944L17.916 50C16.1272 50.8944 16.1275 50.8951 16.1279 50.8959L16.1289 50.8979L16.1318 50.9036L16.1407 50.9212L16.1714 50.9814C16.1976 51.0324 16.2353 51.1049 16.2843 51.1975C16.3823 51.3827 16.5258 51.6484 16.714 51.9831C17.0905 52.6523 17.6469 53.5991 18.3779 54.7309C19.8373 56.9907 22.0057 60.0088 24.8424 63.0346C30.4791 69.0471 38.992 75.3333 49.9993 75.3333C61.0067 75.3333 69.5196 69.0471 75.1563 63.0346C77.993 60.0088 80.1614 56.9907 81.6208 54.7309C82.3518 53.5991 82.9082 52.6523 83.2847 51.9831C83.4729 51.6484 83.6164 51.3827 83.7144 51.1975C83.7634 51.1049 83.8011 51.0324 83.8273 50.9814L83.858 50.9212L83.8669 50.9036L83.8698 50.8979L83.8708 50.8959C83.8712 50.8951 83.8715 50.8944 82.0827 50ZM82.0827 50L83.8715 50.8944C84.1531 50.3314 84.1531 49.6686 83.8715 49.1056L82.0827 50Z" fill="black"/>
<path fill-rule="evenodd" clip-rule="evenodd" d="M50 43.25C46.2721 43.25 43.25 46.2721 43.25 50C43.25 53.7279 46.2721 56.75 50 56.75C53.7279 56.75 56.75 53.7279 56.75 50C56.75 46.2721 53.7279 43.25 50 43.25ZM39.25 50C39.25 44.0629 44.0629 39.25 50 39.25C55.9371 39.25 60.75 44.0629 60.75 50C60.75 55.9371 55.9371 60.75 50 60.75C44.0629 60.75 39.25 55.9371 39.25 50Z" fill="black"/>
</svg>
