<svg width="100" height="100" viewBox="0 0 100 100" fill="none" xmlns="http://www.w3.org/2000/svg">
<rect width="100" height="100" fill="white"/>
<path fill-rule="evenodd" clip-rule="evenodd" d="M47.0833 43.25C44.9662 43.25 43.25 44.9662 43.25 47.0833V73.3333C43.25 75.4504 44.9662 77.1667 47.0833 77.1667H73.3333C75.4504 77.1667 77.1667 75.4504 77.1667 73.3333V47.0833C77.1667 44.9662 75.4504 43.25 73.3333 43.25H47.0833ZM39.25 47.0833C39.25 42.7571 42.7571 39.25 47.0833 39.25H73.3333C77.6596 39.25 81.1667 42.7571 81.1667 47.0833V73.3333C81.1667 77.6596 77.6596 81.1667 73.3333 81.1667H47.0833C42.7571 81.1667 39.25 77.6596 39.25 73.3333V47.0833Z" fill="black"/>
<path fill-rule="evenodd" clip-rule="evenodd" d="M26.6673 22.8333C25.6507 22.8333 24.6756 23.2372 23.9567 23.9561C23.2379 24.675 22.834 25.65 22.834 26.6667V52.9167C22.834 53.9333 23.2379 54.9083 23.9567 55.6272C24.6756 56.3461 25.6507 56.75 26.6673 56.75H29.584C30.6886 56.75 31.584 57.6454 31.584 58.75C31.584 59.8546 30.6886 60.75 29.584 60.75H26.6673C24.5898 60.75 22.5973 59.9247 21.1283 58.4557C19.6593 56.9866 18.834 54.9942 18.834 52.9167V26.6667C18.834 24.5891 19.6593 22.5967 21.1283 21.1277C22.5973 19.6586 24.5898 18.8333 26.6673 18.8333H52.9173C54.9948 18.8333 56.9873 19.6586 58.4563 21.1277C59.9254 22.5967 60.7507 24.5891 60.7507 26.6667V29.5833C60.7507 30.6879 59.8552 31.5833 58.7507 31.5833C57.6461 31.5833 56.7507 30.6879 56.7507 29.5833V26.6667C56.7507 25.65 56.3468 24.675 55.6279 23.9561C54.909 23.2372 53.934 22.8333 52.9173 22.8333H26.6673Z" fill="black"/>
</svg>
