<svg width="100" height="100" viewBox="0 0 100 100" fill="none" xmlns="http://www.w3.org/2000/svg">
<rect width="100" height="100" fill="white"/>
<path fill-rule="evenodd" clip-rule="evenodd" d="M46.0874 19.8865C47.2772 19.2005 48.6265 18.8394 50 18.8394C51.3735 18.8394 52.7228 19.2005 53.9126 19.8865C53.914 19.8873 53.9153 19.888 53.9167 19.8888L74.3333 31.5555C75.523 32.2423 76.5111 33.2299 77.1985 34.4192C77.886 35.6085 78.2486 36.9576 78.25 38.3313L78.25 38.3334L78.25 61.6688C78.2486 63.0424 77.886 64.3916 77.1985 65.5809C76.5111 66.7702 75.523 67.7578 74.3333 68.4446L74.3256 68.449L53.9167 80.1113C53.9152 80.1121 53.9138 80.1129 53.9124 80.1137C52.7226 80.7996 51.3734 81.1607 50 81.1607C48.6266 81.1607 47.2774 80.7996 46.0876 80.1137C46.0862 80.1129 46.0848 80.1121 46.0833 80.1113L25.6744 68.449L25.6667 68.4446C24.477 67.7578 23.4889 66.7702 22.8015 65.5809C22.114 64.3916 21.7514 63.0424 21.75 61.6688V38.3313C21.7514 36.9576 22.114 35.6085 22.8015 34.4192C23.4889 33.2299 24.477 32.2423 25.6667 31.5555L25.6744 31.551L46.0833 19.8888C46.0847 19.888 46.086 19.8873 46.0874 19.8865ZM50 22.8394C49.3271 22.8394 48.6661 23.0165 48.0833 23.3529L48.0756 23.3574L27.6667 35.0196C27.6655 35.0202 27.6644 35.0209 27.6633 35.0216C27.0826 35.3576 26.6003 35.8401 26.2645 36.421C25.9283 37.0027 25.7509 37.6626 25.75 38.3345V61.6656C25.7509 62.3375 25.9283 62.9974 26.2645 63.5791C26.6003 64.1599 27.0825 64.6423 27.663 64.9784C27.6642 64.9791 27.6654 64.9798 27.6667 64.9805L48.0833 76.6471C48.6661 76.9836 49.3271 77.1607 50 77.1607C50.6729 77.1607 51.3339 76.9836 51.9167 76.6472L51.9244 76.6427L72.3333 64.9805C72.3346 64.9798 72.3358 64.9791 72.337 64.9784C72.9175 64.6423 73.3997 64.1599 73.7355 63.5791C74.0715 62.9977 74.249 62.3382 74.25 61.6667M74.25 38.3334L74.25 38.3354V61.6647M74.25 38.3334C74.249 37.6619 74.0715 37.0024 73.7355 36.421C73.3997 35.8401 72.9174 35.3576 72.3368 35.0216C72.3356 35.0209 72.3345 35.0203 72.3333 35.0196L51.9167 23.3529C51.3339 23.0165 50.6729 22.8394 50 22.8394" fill="black"/>
<path fill-rule="evenodd" clip-rule="evenodd" d="M22.8062 34.2985C23.3593 33.3424 24.5828 33.0156 25.5389 33.5687L49.9999 47.7186L74.461 33.5687C75.4171 33.0156 76.6406 33.3424 77.1936 34.2985C77.7467 35.2546 77.42 36.4781 76.4639 37.0311L51.0014 51.7603C50.3818 52.1187 49.618 52.1187 48.9985 51.7603L23.536 37.0311C22.5799 36.4781 22.2531 35.2546 22.8062 34.2985Z" fill="black"/>
<path fill-rule="evenodd" clip-rule="evenodd" d="M50 48C51.1046 48 52 48.8954 52 50V79.4C52 80.5046 51.1046 81.4 50 81.4C48.8954 81.4 48 80.5046 48 79.4V50C48 48.8954 48.8954 48 50 48Z" fill="black"/>
</svg>
