<svg width="100" height="100" viewBox="0 0 100 100" fill="none" xmlns="http://www.w3.org/2000/svg">
<rect width="100" height="100" fill="white"/>
<path fill-rule="evenodd" clip-rule="evenodd" d="M67.5 60.75C63.7721 60.75 60.75 63.7721 60.75 67.5C60.75 71.2279 63.7721 74.25 67.5 74.25C71.2279 74.25 74.25 71.2279 74.25 67.5C74.25 63.7721 71.2279 60.75 67.5 60.75ZM56.75 67.5C56.75 61.5629 61.5629 56.75 67.5 56.75C73.4371 56.75 78.25 61.5629 78.25 67.5C78.25 73.4371 73.4371 78.25 67.5 78.25C61.5629 78.25 56.75 73.4371 56.75 67.5Z" fill="black"/>
<path fill-rule="evenodd" clip-rule="evenodd" d="M32.5 25.75C28.7721 25.75 25.75 28.7721 25.75 32.5C25.75 36.2279 28.7721 39.25 32.5 39.25C36.2279 39.25 39.25 36.2279 39.25 32.5C39.25 28.7721 36.2279 25.75 32.5 25.75ZM21.75 32.5C21.75 26.5629 26.5629 21.75 32.5 21.75C38.4371 21.75 43.25 26.5629 43.25 32.5C43.25 38.4371 38.4371 43.25 32.5 43.25C26.5629 43.25 21.75 38.4371 21.75 32.5Z" fill="black"/>
<path fill-rule="evenodd" clip-rule="evenodd" d="M50.916 32.5C50.916 31.3954 51.8114 30.5 52.916 30.5H61.666C63.7435 30.5 65.736 31.3253 67.205 32.7943C68.6741 34.2634 69.4993 36.2558 69.4993 38.3333V58.75C69.4993 59.8546 68.6039 60.75 67.4993 60.75C66.3948 60.75 65.4993 59.8546 65.4993 58.75V38.3333C65.4993 37.3167 65.0955 36.3416 64.3766 35.6228C63.6577 34.9039 62.6827 34.5 61.666 34.5H52.916C51.8114 34.5 50.916 33.6046 50.916 32.5Z" fill="black"/>
<path fill-rule="evenodd" clip-rule="evenodd" d="M32.5 39.25C33.6046 39.25 34.5 40.1454 34.5 41.25V76.25C34.5 77.3546 33.6046 78.25 32.5 78.25C31.3954 78.25 30.5 77.3546 30.5 76.25V41.25C30.5 40.1454 31.3954 39.25 32.5 39.25Z" fill="black"/>
</svg>
