<svg width="100" height="100" viewBox="0 0 100 100" fill="none" xmlns="http://www.w3.org/2000/svg">
<rect width="100" height="100" fill="white"/>
<path fill-rule="evenodd" clip-rule="evenodd" d="M24.666 26.6667C24.666 25.5621 25.5614 24.6667 26.666 24.6667H73.3327C74.4372 24.6667 75.3327 25.5621 75.3327 26.6667V35.4167C75.3327 36.5212 74.4372 37.4167 73.3327 37.4167C72.2281 37.4167 71.3327 36.5212 71.3327 35.4167V28.6667H28.666V35.4167C28.666 36.5212 27.7706 37.4167 26.666 37.4167C25.5614 37.4167 24.666 36.5212 24.666 35.4167V26.6667Z" fill="black"/>
<path fill-rule="evenodd" clip-rule="evenodd" d="M39.25 73.3333C39.25 72.2288 40.1454 71.3333 41.25 71.3333H58.75C59.8546 71.3333 60.75 72.2288 60.75 73.3333C60.75 74.4379 59.8546 75.3333 58.75 75.3333H41.25C40.1454 75.3333 39.25 74.4379 39.25 73.3333Z" fill="black"/>
<path fill-rule="evenodd" clip-rule="evenodd" d="M50 24.6667C51.1046 24.6667 52 25.5621 52 26.6667V73.3333C52 74.4379 51.1046 75.3333 50 75.3333C48.8954 75.3333 48 74.4379 48 73.3333V26.6667C48 25.5621 48.8954 24.6667 50 24.6667Z" fill="black"/>
</svg>
