<svg width="100" height="100" viewBox="0 0 100 100" fill="none" xmlns="http://www.w3.org/2000/svg">
<rect width="100" height="100" fill="white"/>
<path fill-rule="evenodd" clip-rule="evenodd" d="M27.9691 38.7996C27.6325 39.3339 27.5 40.0364 27.5 40.5V55.5H26C23.6415 55.5 22.5266 56.1033 22.0246 56.5837C21.5195 57.067 21.4599 57.5856 21.4884 57.8139L21.5 57.9066V80.5H17.641C17.9927 82.2476 18.9523 83.2824 19.9459 83.932C21.2954 84.8144 22.7516 85 23 85H77C78.5319 85 79.6632 84.1615 80.5239 82.8601C81.0126 82.1211 81.3737 81.2841 81.6229 80.5H78V58C78 57.1879 77.5529 56.6092 76.6009 56.1523C75.614 55.6786 74.3539 55.5 73.5 55.5H72V41C72 39.2239 70.868 38.3052 70.2159 38H29.5C28.6785 38 28.255 38.3459 27.9691 38.7996ZM25.4309 37.2004C26.195 35.9875 27.5215 35 29.5 35H70.7434L70.9743 35.077C72.3862 35.5476 75 37.3655 75 41V52.6088C75.9217 52.7377 76.9545 52.9943 77.8991 53.4477C79.4471 54.1908 81 55.6121 81 58V77.5H85.2133L84.9868 79.1982C84.7983 80.6124 84.2145 82.718 83.0261 84.5149C81.8202 86.3385 79.8681 88 77 88H23C22.2484 88 20.2046 87.6856 18.3041 86.443C16.304 85.1352 14.5 82.8117 14.5 79V77.5H18.5V58.0809C18.3957 56.9883 18.7526 55.5625 19.9504 54.4163C20.9588 53.4513 22.4494 52.7882 24.5 52.5744V40.5C24.5 39.6302 24.7175 38.3328 25.4309 37.2004Z" fill="black"/>
<path fill-rule="evenodd" clip-rule="evenodd" d="M25 52.5H73.5V55.5H25V52.5Z" fill="black"/>
<path fill-rule="evenodd" clip-rule="evenodd" d="M16.5 77.5L83.5 77.5L83.5 80.5L16.5 80.5L16.5 77.5Z" fill="black"/>
<path fill-rule="evenodd" clip-rule="evenodd" d="M20.9902 62.4962C20.8185 62.4981 20.6545 62.5 20.5 62.5V59.5C20.6048 59.5 20.7317 59.4978 20.8775 59.4952C21.9251 59.477 23.947 59.4418 25.7545 60.0874C26.828 60.4707 27.9188 61.1189 28.7341 62.2131C29.5557 63.3159 30 64.7409 30 66.5C30 67.6201 30.3827 68.2892 30.8267 68.6854C31.297 69.1049 31.969 69.3348 32.7059 69.3131C34.1947 69.2693 35.5 68.2746 35.5 66.5C35.5 63.9257 36.3951 62.1192 37.6966 60.9739C38.9465 59.874 40.4401 59.5 41.5 59.5C42.5269 59.5 43.9172 59.9073 45.0553 61.034C46.2267 62.1936 47 63.9816 47 66.5C47 67.4521 47.3513 68.064 47.808 68.458C48.2955 68.8787 48.9952 69.125 49.75 69.125C50.5048 69.125 51.2045 68.8786 51.692 68.458C52.1487 68.064 52.5 67.452 52.5 66.5C52.5 64.4408 53.1304 62.7479 54.2191 61.5525C55.3035 60.3619 56.7702 59.75 58.25 59.75C59.7298 59.75 61.1965 60.3619 62.2809 61.5525C63.3696 62.7479 64 64.4408 64 66.5C64 67.4521 64.3513 68.064 64.808 68.458C65.2955 68.8787 65.9952 69.125 66.75 69.125C67.5048 69.125 68.2045 68.8787 68.692 68.458C69.1306 68.0796 69.472 67.5002 69.4984 66.6115C69.3101 65.3402 69.5539 63.5678 70.8408 62.0809C72.2058 60.5036 74.5209 59.5 78 59.5H79.5V62.5H78C75.0791 62.5 73.7275 63.3297 73.1092 64.0441C72.4666 64.7867 72.3751 65.6777 72.4758 66.2316L72.5 66.3647V66.5C72.5 68.2979 71.7888 69.7485 70.6517 70.7295C69.5455 71.6839 68.1202 72.125 66.75 72.125C65.3798 72.125 63.9545 71.6839 62.8483 70.7295C61.7112 69.7485 61 68.2979 61 66.5C61 65.0592 60.5679 64.1271 60.0629 63.5725C59.5535 63.0132 58.8952 62.75 58.25 62.75C57.6048 62.75 56.9465 63.0132 56.4371 63.5725C55.9321 64.1271 55.5 65.0592 55.5 66.5C55.5 68.2979 54.7888 69.7485 53.6517 70.7295C52.5455 71.6838 51.1202 72.125 49.75 72.125C48.3798 72.125 46.9545 71.6839 45.8483 70.7295C44.7112 69.7485 44 68.2979 44 66.5C44 64.6184 43.44 63.6563 42.9447 63.1659C42.4161 62.6426 41.8064 62.5 41.5 62.5C41.0599 62.5 40.3035 62.676 39.6784 63.226C39.1049 63.7308 38.5 64.6742 38.5 66.5C38.5 70.2254 35.5553 72.2306 32.7941 72.3118C31.406 72.3527 29.953 71.9263 28.8295 70.924C27.6798 69.8982 27 68.3799 27 66.5C27 65.2591 26.6943 64.4966 26.3284 64.0056C25.9562 63.506 25.422 63.1542 24.7455 62.9126C23.4995 62.4676 22.0877 62.4837 20.9902 62.4962Z" fill="black"/>
<path fill-rule="evenodd" clip-rule="evenodd" d="M28 20.7308H38.1795V36.5897H35.1795V23.7308H31V36.5897H28V20.7308Z" fill="black"/>
<path fill-rule="evenodd" clip-rule="evenodd" d="M44.4102 20.7308H54.5896V36.5897H51.5896V23.7308H47.4102V36.5897H44.4102V20.7308Z" fill="black"/>
<path fill-rule="evenodd" clip-rule="evenodd" d="M60.8203 20.7308H70.9998V36.5897H67.9998V23.7308H63.8203V36.5897H60.8203V20.7308Z" fill="black"/>
<path fill-rule="evenodd" clip-rule="evenodd" d="M34.5471 12.6434C34.5805 12.6809 34.6292 12.7325 34.6984 12.8C34.8352 12.9335 35.0035 13.0835 35.2171 13.2717C35.2378 13.2899 35.2589 13.3085 35.2803 13.3274C35.4705 13.4948 35.6877 13.686 35.9053 13.888C36.8015 14.7202 38.1795 16.142 38.1795 18.1282C38.1795 19.9648 37.1945 21.2246 36.1606 21.9885C35.1636 22.7252 34.0319 23.0816 33.3363 23.1975C33.1846 23.2228 33.0299 23.2246 32.8776 23.2029C31.9619 23.0721 30.8136 22.5492 29.8891 21.7832C28.9566 21.0106 28 19.7727 28 18.1282C28 16.142 29.378 14.7202 30.2742 13.888C30.4918 13.686 30.709 13.4948 30.8991 13.3274C30.9206 13.3085 30.9417 13.2899 30.9624 13.2717C31.176 13.0835 31.3443 12.9335 31.481 12.8C31.5503 12.7325 31.599 12.6809 31.6324 12.6434C31.7924 11.9871 32.3842 11.5 33.0897 11.5C33.7953 11.5 34.3871 11.9871 34.5471 12.6434ZM31.6927 12.5697C31.6921 12.5706 31.6915 12.5715 31.6907 12.5726C31.6959 12.5641 31.6973 12.563 31.6927 12.5697ZM34.4887 12.5726C34.488 12.5715 34.4873 12.5706 34.4868 12.5697C34.4822 12.563 34.4836 12.5641 34.4887 12.5726ZM33.0897 15.3953C33.0411 15.4385 32.9928 15.4811 32.9455 15.5228C32.9245 15.5412 32.9037 15.5596 32.8829 15.5779C32.6892 15.7484 32.5022 15.9131 32.3155 16.0864C31.4169 16.9209 31 17.5503 31 18.1282C31 18.535 31.24 19.0065 31.8032 19.4732C32.259 19.8509 32.7628 20.0841 33.0905 20.1833C33.4459 20.0878 33.9499 19.8918 34.3778 19.5756C34.8825 19.2028 35.1795 18.7531 35.1795 18.1282C35.1795 17.5503 34.7626 16.9209 33.8639 16.0864C33.6773 15.9131 33.4903 15.7484 33.2966 15.5778C33.2758 15.5596 33.2549 15.5412 33.234 15.5228C33.1867 15.4811 33.1384 15.4385 33.0897 15.3953Z" fill="black"/>
<path fill-rule="evenodd" clip-rule="evenodd" d="M50.9573 12.6434C50.9906 12.6809 51.0394 12.7325 51.1086 12.8C51.2453 12.9335 51.4137 13.0835 51.6273 13.2717C51.648 13.2899 51.6691 13.3085 51.6905 13.3274C51.8807 13.4948 52.0979 13.686 52.3154 13.888C53.2116 14.7202 54.5896 16.142 54.5896 18.1282C54.5896 19.9648 53.6046 21.2246 52.5708 21.9885C51.5737 22.7252 50.442 23.0816 49.7465 23.1975C49.5948 23.2228 49.44 23.2246 49.2878 23.2029C48.3721 23.0721 47.2238 22.5492 46.2993 21.7832C45.3668 21.0106 44.4102 19.7727 44.4102 18.1282C44.4102 16.142 45.7882 14.7202 46.6844 13.888C46.9019 13.686 47.1191 13.4948 47.3093 13.3274C47.3307 13.3085 47.3518 13.2899 47.3725 13.2717C47.5861 13.0835 47.7545 12.9335 47.8912 12.8C47.9604 12.7325 48.0092 12.6809 48.0425 12.6434C48.2025 11.9871 48.7943 11.5 49.4999 11.5C50.2055 11.5 50.7973 11.9871 50.9573 12.6434ZM48.1029 12.5697C48.1023 12.5706 48.1016 12.5715 48.1009 12.5726C48.106 12.5641 48.1074 12.563 48.1029 12.5697ZM50.8989 12.5726C50.8982 12.5715 50.8975 12.5706 50.8969 12.5697C50.8924 12.563 50.8938 12.5641 50.8989 12.5726ZM49.4999 15.3953C49.4512 15.4385 49.403 15.4811 49.3556 15.5228C49.3347 15.5412 49.3138 15.5596 49.2931 15.5779C49.0993 15.7484 48.9123 15.9131 48.7257 16.0864C47.827 16.9209 47.4102 17.5503 47.4102 18.1282C47.4102 18.535 47.6501 19.0065 48.2133 19.4732C48.6692 19.8509 49.1729 20.0841 49.5006 20.1833C49.8561 20.0878 50.3601 19.8918 50.788 19.5756C51.2926 19.2028 51.5896 18.7531 51.5896 18.1282C51.5896 17.5503 51.1728 16.9209 50.2741 16.0864C50.0875 15.9131 49.9005 15.7484 49.7067 15.5778C49.6859 15.5596 49.6651 15.5412 49.6442 15.5228C49.5968 15.4811 49.5486 15.4385 49.4999 15.3953Z" fill="black"/>
<path fill-rule="evenodd" clip-rule="evenodd" d="M67.3674 12.6434C67.4008 12.6809 67.4495 12.7325 67.5188 12.8C67.6555 12.9335 67.8238 13.0835 68.0374 13.2717C68.0581 13.2899 68.0792 13.3085 68.1007 13.3274C68.2908 13.4948 68.508 13.686 68.7256 13.888C69.6218 14.7202 70.9998 16.142 70.9998 18.1282C70.9998 19.9648 70.0148 21.2246 68.9809 21.9885C67.9839 22.7252 66.8522 23.0816 66.1567 23.1975C66.0049 23.2228 65.8502 23.2246 65.6979 23.2029C64.7823 23.0721 63.6339 22.5492 62.7094 21.7832C61.7769 21.0106 60.8203 19.7727 60.8203 18.1282C60.8203 16.142 62.1983 14.7202 63.0945 13.888C63.3121 13.686 63.5293 13.4948 63.7195 13.3274C63.7409 13.3085 63.762 13.2899 63.7827 13.2717C63.9963 13.0835 64.1646 12.9335 64.3014 12.8C64.3706 12.7325 64.4193 12.6809 64.4527 12.6434C64.6127 11.9871 65.2045 11.5 65.9101 11.5C66.6156 11.5 67.2074 11.9871 67.3674 12.6434ZM64.513 12.5697C64.5125 12.5706 64.5118 12.5715 64.5111 12.5726C64.5162 12.5641 64.5176 12.563 64.513 12.5697ZM67.3091 12.5726C67.3083 12.5715 67.3077 12.5706 67.3071 12.5697C67.3025 12.563 67.3039 12.5641 67.3091 12.5726ZM65.9101 15.3953C65.8614 15.4385 65.8131 15.4811 65.7658 15.5228C65.7449 15.5412 65.724 15.5596 65.7032 15.5779C65.5095 15.7484 65.3225 15.9131 65.1359 16.0864C64.2372 16.9209 63.8203 17.5503 63.8203 18.1282C63.8203 18.535 64.0603 19.0065 64.6235 19.4732C65.0793 19.8509 65.5831 20.0841 65.9108 20.1833C66.2663 20.0878 66.7702 19.8918 67.1981 19.5756C67.7028 19.2028 67.9998 18.7531 67.9998 18.1282C67.9998 17.5503 67.5829 16.9209 66.6843 16.0864C66.4976 15.9131 66.3106 15.7484 66.1169 15.5778C66.0961 15.5596 66.0753 15.5412 66.0543 15.5228C66.007 15.4811 65.9587 15.4385 65.9101 15.3953Z" fill="black"/>
</svg>
