<svg width="100" height="100" viewBox="0 0 100 100" fill="none" xmlns="http://www.w3.org/2000/svg">
<rect width="100" height="100" fill="white"/>
<path fill-rule="evenodd" clip-rule="evenodd" d="M30.9358 12.5H18V9.5H33.0642L43.7408 40.0045L40.9092 40.9955L30.9358 12.5Z" fill="black"/>
<path fill-rule="evenodd" clip-rule="evenodd" d="M28.3584 29H66.8838L65.8522 31.1491C64.8757 33.1835 63.4534 36.5191 62.3783 39.8707C61.8408 41.5462 61.3991 43.1979 61.1399 44.6763C60.8922 46.0886 60.83 47.2411 60.95 48.0735C62.7217 52.1845 64.4217 58.3156 63.2167 63.9393C62.5965 66.8335 61.2028 69.6025 58.6645 71.8433C56.1365 74.0749 52.5702 75.6974 47.7401 76.4807L47.5235 76.5158L47.3059 76.4874C41.3476 75.7102 37.2799 73.8367 34.646 71.2205C31.9965 68.5888 30.9581 65.3652 30.7531 62.2226C30.5499 59.1065 31.1597 56.0149 31.8508 53.5077C32.1982 52.2471 32.5725 51.1133 32.8851 50.1852C32.9282 50.0573 32.9696 49.9347 33.0092 49.8174C33.2689 49.0484 33.4527 48.5043 33.5447 48.1362C33.7237 47.4204 33.7245 46.3698 33.5168 44.9979C33.3131 43.6515 32.9286 42.1179 32.439 40.496C31.6933 38.026 30.7398 35.4626 29.8782 33.1463C29.6029 32.4061 29.337 31.6912 29.0903 31.0126L28.3584 29ZM32.653 32C32.6572 32.0113 32.6614 32.0226 32.6656 32.0339C33.5329 34.365 34.5351 37.0589 35.3109 39.629C35.8213 41.3196 36.2493 43.0048 36.4831 44.549C36.7129 46.0677 36.7762 47.5796 36.4552 48.8638C36.331 49.3604 36.0999 50.0435 35.8491 50.7846C35.8092 50.9028 35.7687 51.0224 35.7281 51.1429C35.4196 52.0586 35.0673 53.1279 34.7429 54.3048C34.0902 56.6726 33.575 59.3935 33.7468 62.0274C33.9168 64.6348 34.7534 67.0987 36.7602 69.092C38.7559 71.0744 42.0638 72.7452 47.476 73.4835C51.7777 72.7553 54.7087 71.3336 56.6791 69.5942C58.6721 67.835 59.7784 65.6665 60.2832 63.3107C61.311 58.5146 59.8273 52.9906 58.1257 49.1012L58.0555 48.9407L58.0241 48.7683C57.7772 47.4101 57.8987 45.7905 58.185 44.1581C58.4758 42.5 58.9591 40.708 59.5216 38.9543C60.3217 36.4601 61.3003 33.9873 62.167 32H32.653Z" fill="black"/>
<path fill-rule="evenodd" clip-rule="evenodd" d="M46 90V75H49V90H46Z" fill="black"/>
<path fill-rule="evenodd" clip-rule="evenodd" d="M32.5 88.5H62V91.5H32.5V88.5Z" fill="black"/>
<path fill-rule="evenodd" clip-rule="evenodd" d="M61 42H34V39H61V42Z" fill="black"/>
<path fill-rule="evenodd" clip-rule="evenodd" d="M67 17C59.5442 17 53.5 23.0442 53.5 30.5H50.5C50.5 21.3873 57.8873 14 67 14C76.1127 14 83.5 21.3873 83.5 30.5C83.5 39.6127 76.1127 47 67 47C64.2216 47 61.5995 46.3121 59.299 45.096L60.701 42.4438C62.5799 43.437 64.722 44 67 44C74.4558 44 80.5 37.9558 80.5 30.5C80.5 23.0442 74.4558 17 67 17Z" fill="black"/>
</svg>
