<svg width="100" height="100" viewBox="0 0 100 100" fill="none" xmlns="http://www.w3.org/2000/svg">
<rect width="100" height="100" fill="white"/>
<path fill-rule="evenodd" clip-rule="evenodd" d="M36.348 10.0397C36.8783 9.40328 37.8242 9.3173 38.4606 9.84764C42.1234 12.9 42.538 18.1716 40.9048 22.5267C40.5375 23.5062 40.0354 24.4088 39.5959 25.1988C39.5289 25.3191 39.4635 25.4368 39.4001 25.5518C38.898 26.4634 38.4934 27.2629 38.2629 28.1338C37.8381 29.7384 37.9164 31.9355 40.2723 35.705C40.7114 36.4075 40.4978 37.3329 39.7953 37.772C39.0928 38.211 38.1674 37.9975 37.7283 37.295C35.0843 33.0645 34.6625 30.0115 35.3628 27.3661C35.6947 26.1121 36.2589 25.0366 36.7724 24.1044C36.8444 23.9736 36.915 23.8463 36.9842 23.7217C37.43 22.918 37.813 22.2276 38.0958 21.4733C39.4627 17.8284 38.8773 14.1 36.54 12.1523C35.9036 11.622 35.8176 10.6761 36.348 10.0397Z" fill="black"/>
<path fill-rule="evenodd" clip-rule="evenodd" d="M47.7855 10.0397C48.3158 9.40328 49.2617 9.3173 49.8981 9.84764C53.5609 12.9 53.9755 18.1716 52.3423 22.5267C51.975 23.5062 51.4729 24.4088 51.0334 25.1988C50.9664 25.3191 50.901 25.4368 50.8376 25.5518C50.3355 26.4634 49.9309 27.2629 49.7004 28.1338C49.2756 29.7384 49.3539 31.9355 51.7098 35.705C52.1489 36.4075 51.9353 37.3329 51.2328 37.772C50.5303 38.211 49.6049 37.9975 49.1658 37.295C46.5218 33.0645 46.1 30.0115 46.8003 27.3661C47.1322 26.1121 47.6964 25.0366 48.2099 24.1044C48.2819 23.9736 48.3525 23.8463 48.4217 23.7217C48.8675 22.918 49.2505 22.2276 49.5333 21.4733C50.9002 17.8284 50.3148 14.1 47.9775 12.1523C47.3411 11.622 47.2551 10.6761 47.7855 10.0397Z" fill="black"/>
<path fill-rule="evenodd" clip-rule="evenodd" d="M58.7855 10.0397C59.3158 9.40328 60.2617 9.3173 60.8981 9.84764C64.5609 12.9 64.9755 18.1716 63.3423 22.5267C62.975 23.5062 62.4729 24.4088 62.0334 25.1988C61.9664 25.3191 61.901 25.4368 61.8376 25.5518C61.3355 26.4634 60.9309 27.2629 60.7004 28.1338C60.2756 29.7384 60.3539 31.9355 62.7098 35.705C63.1489 36.4075 62.9353 37.3329 62.2328 37.772C61.5303 38.211 60.6049 37.9975 60.1658 37.295C57.5218 33.0645 57.1 30.0115 57.8003 27.3661C58.1322 26.1121 58.6964 25.0366 59.2099 24.1044C59.2819 23.9736 59.3525 23.8463 59.4217 23.7217C59.8675 22.918 60.2505 22.2276 60.5333 21.4733C61.9002 17.8284 61.3148 14.1 58.9775 12.1523C58.3411 11.622 58.2551 10.6761 58.7855 10.0397Z" fill="black"/>
<path fill-rule="evenodd" clip-rule="evenodd" d="M85.6963 51.7483C83.312 51.8618 80.7447 52.6699 79.0908 53.3787L77.909 50.6213C79.7551 49.8301 82.6878 48.8881 85.5536 48.7517C88.3698 48.6176 91.6386 49.2609 93.3111 52.2715C94.7009 54.7731 95.1576 57.2183 94.8626 59.5044C94.5693 61.7771 93.5477 63.7857 92.1522 65.4602C91.3713 66.3974 90.0427 67.3523 88.5142 68.2562C86.9461 69.1835 85.0268 70.1376 82.9386 71.0417C78.7686 72.8472 73.8206 74.4983 69.4816 75.3432L68.9082 72.3985C72.9888 71.6039 77.7271 70.029 81.7466 68.2887C83.7531 67.4199 85.5544 66.5212 86.9872 65.6739C88.4596 64.8032 89.4123 64.062 89.8476 63.5397C90.9521 62.2143 91.6805 60.7228 91.8872 59.1205C92.0923 57.5316 91.7989 55.7268 90.6887 53.7284C89.8613 52.2391 88.1301 51.6324 85.6963 51.7483Z" fill="black"/>
<path fill-rule="evenodd" clip-rule="evenodd" d="M20.8942 41.5H75.0942L75.1869 41.5116C76.0917 41.6247 77.3835 42.0494 78.4215 43.0133C79.5112 44.0252 80.2271 45.552 80.0008 47.5881C79.9995 50.4234 79.8408 71.2912 61.6301 82.2842L60.0797 79.7158C76.9579 69.5273 77.0008 49.9649 77.0008 47.5V47.4066L77.0124 47.3139C77.1518 46.1991 76.7897 45.592 76.3802 45.2117C75.9304 44.7941 75.3221 44.57 74.8948 44.5H21.1272C20.8084 44.5656 20.292 44.7698 19.8553 45.1915C19.4194 45.6125 19.0008 46.3061 19.0008 47.5V47.6486L18.9717 47.7942C18.8973 48.1664 18.8123 49.9303 19.089 52.5989C19.3591 55.2048 19.9602 58.5291 21.1619 61.9821C23.5536 68.855 28.2627 76.0933 37.359 79.4002L38.2007 79.5134L37.8008 82.4866L36.6447 82.3311L36.4964 82.2782C26.1575 78.5865 20.9122 70.3926 18.3285 62.968C17.036 59.2539 16.3939 55.6956 16.105 52.9083C15.839 50.3427 15.8588 48.2955 16.002 47.3657C16.0346 45.428 16.7719 43.9987 17.7713 43.0335C18.7512 42.0872 19.9272 41.6381 20.7887 41.5151L20.8942 41.5Z" fill="black"/>
<path fill-rule="evenodd" clip-rule="evenodd" d="M4.29395 79.5H92.3406L86.0468 86.5805L85.9606 86.6523C84.8522 87.576 81.8977 89.5299 78.7124 89.9849L78.6069 90H20.0003C18.9905 90 17.1048 89.7183 15.3199 89.2667C14.4114 89.0368 13.4784 88.7505 12.6538 88.4096C11.8649 88.0835 11.0278 87.6488 10.4397 87.0607L10.4389 87.0599C10.1861 86.8071 9.25623 85.8772 8.28171 84.8392C7.34785 83.8444 6.23762 82.6099 5.72832 81.795L4.29395 79.5ZM10.2022 82.5C10.2901 82.5948 10.3791 82.6902 10.4689 82.7858C11.4101 83.7884 12.3128 84.6911 12.561 84.9393C12.7228 85.1012 13.1149 85.354 13.8 85.6372C14.4494 85.9057 15.235 86.1507 16.0557 86.3583C17.7291 86.7817 19.3435 87 20.0003 87H78.3888C80.6999 86.6375 83.019 85.171 83.9579 84.4149L85.66 82.5H10.2022Z" fill="black"/>
</svg>
