<svg width="100" height="100" viewBox="0 0 100 100" fill="none" xmlns="http://www.w3.org/2000/svg">
<rect width="100" height="100" fill="white"/>
<path fill-rule="evenodd" clip-rule="evenodd" d="M16.5 82V36.5H19.5V82C19.5 82.6845 19.721 83.2859 20.1285 83.7075C20.5191 84.1115 21.2255 84.5 22.5 84.5H22.6241L25.7466 85.0204L25.2534 87.9796L22.3703 87.4991C20.5051 87.4722 19.007 86.8638 17.9715 85.7925C16.929 84.7141 16.5 83.3155 16.5 82ZM83.5 36.5V82C83.5 85.6499 80.8316 87.4447 78.6035 87.4987L74.6861 87.9884L74.3139 85.0116L78.4066 84.5H78.5C79.252 84.5 80.5 83.8934 80.5 82V36.5H83.5Z" fill="black"/>
<path fill-rule="evenodd" clip-rule="evenodd" d="M14 31.006V34.4993C14.0001 34.4993 13.9999 34.4992 14 34.4993C14.0025 34.4996 14.0047 34.4999 14.006 34.5H86C86.199 34.5 86.346 34.479 86.4462 34.4533C86.4668 34.448 86.4847 34.4427 86.5 34.4377V31.1015C86.4458 31.0772 86.3713 31.052 86.2795 31.0323C86.1655 31.0079 86.0625 31 86 31H14.0007C14.0007 31.0001 14.0008 30.9999 14.0007 31C14.0004 31.0025 14.0001 31.0047 14 31.006ZM11.5827 29.186C12.0858 28.4873 12.9111 28 14 28H86C86.5015 28 87.2657 28.1037 87.9627 28.4801C88.7248 28.8916 89.5 29.7065 89.5 31V34.5C89.5 35.458 89.0871 36.299 88.3219 36.8456C87.6258 37.3428 86.7771 37.5 86 37.5H14C13.51 37.5 12.8083 37.3653 12.186 36.9173C11.4873 36.4142 11 35.5889 11 34.5V31C11 30.51 11.1347 29.8083 11.5827 29.186Z" fill="black"/>
<path fill-rule="evenodd" clip-rule="evenodd" d="M49.9774 18H50.0001C61.0693 18 70.3424 19.0041 76.8972 20.8035C80.1651 21.7006 82.8562 22.8214 84.7637 24.1864C86.6676 25.5489 88.0001 27.3197 88.0001 29.5H85.0001C85.0001 28.6803 84.5201 27.7011 83.0178 26.6261C81.5191 25.5536 79.2102 24.5494 76.1031 23.6965C69.9122 21.997 60.9434 21.0014 50.0228 21C33.5577 21.5001 24.7799 22.9983 20.0952 24.7773C17.7728 25.6592 16.5752 26.567 15.9287 27.3475C15.306 28.0993 15.0926 28.854 14.9886 29.6861L12.0117 29.3139C12.1577 28.146 12.5068 26.7757 13.6184 25.4337C14.7063 24.1205 16.415 22.9658 19.0301 21.9727C24.2182 20.0025 33.4345 18.5013 49.9547 18.0007L49.9774 18Z" fill="black"/>
<path fill-rule="evenodd" clip-rule="evenodd" d="M50 14.5C47.037 14.5 45 17.1032 45 20H42C42 15.8968 44.963 11.5 50 11.5C52.3992 11.5 54.4385 12.4116 55.8649 13.9966C57.2766 15.5651 58 17.6918 58 20H55C55 18.3082 54.4734 16.9349 53.6351 16.0034C52.8115 15.0884 51.6008 14.5 50 14.5Z" fill="black"/>
<path fill-rule="evenodd" clip-rule="evenodd" d="M17.361 41H18.0004V44H17.648C14.663 44.6308 12.8673 47.5123 12.8127 50.8992C12.7589 54.236 14.4293 57.427 17.7268 58.5H18.0004V61.5H17.2844L17.0772 61.439C12.005 59.9473 9.74298 55.1982 9.8131 50.8508C9.88269 46.5362 12.2861 41.9516 17.224 41.0257L17.361 41Z" fill="black"/>
<path fill-rule="evenodd" clip-rule="evenodd" d="M85.0799 45.5679C84.0724 44.5144 82.9707 44 81.9999 44L81.9999 41C84.0292 41 85.8649 42.0481 87.2481 43.4945C88.6413 44.9515 89.6907 46.9218 90.1534 49.0573C90.618 51.2017 90.5024 53.5721 89.4786 55.7859C88.4494 58.0112 86.5541 59.9657 83.6582 61.3479L82.6707 61.8416L81.3291 59.1584L82.342 58.6519L82.355 58.6457C84.7016 57.5283 86.0521 56.0479 86.7557 54.5266C87.4662 52.9903 87.5693 51.2982 87.2214 49.6926C86.8716 48.0781 86.0773 46.6109 85.0799 45.5679Z" fill="black"/>
<path fill-rule="evenodd" clip-rule="evenodd" d="M8 85H93V88H8V85Z" fill="black"/>
<path fill-rule="evenodd" clip-rule="evenodd" d="M82 48.5H18V45.5H82V48.5Z" fill="black"/>
<path fill-rule="evenodd" clip-rule="evenodd" d="M82 76H18V73H82V76Z" fill="black"/>
<path fill-rule="evenodd" clip-rule="evenodd" d="M35.5 75V46.5H38.5V75H35.5Z" fill="black"/>
<path fill-rule="evenodd" clip-rule="evenodd" d="M61.5 75V46.5H64.5V75H61.5Z" fill="black"/>
</svg>
