<svg width="100" height="100" viewBox="0 0 100 100" fill="none" xmlns="http://www.w3.org/2000/svg">
<rect width="100" height="100" fill="white"/>
<path fill-rule="evenodd" clip-rule="evenodd" d="M29.0263 11.1218C29.3083 10.7313 29.7607 10.5 30.2424 10.5H67.7424C68.1129 10.5 68.4704 10.6372 68.7458 10.8851C70.2345 12.2249 71.6193 14.5226 72.8215 17.1976C74.0438 19.9175 75.1488 23.1913 76.0101 26.6362C77.7185 33.4699 78.5345 41.2492 77.2016 46.8474C77.1914 46.8902 77.1793 46.9326 77.1654 46.9743C74.0912 56.1968 67.0128 62.9281 55.2424 64.802V79.6875L66.0618 86.7436C66.6178 87.1062 66.8693 87.7911 66.6802 88.4274C66.491 89.0637 65.9062 89.5 65.2424 89.5H33.2424C32.5681 89.5 31.9768 89.0502 31.7968 88.4004C31.6168 87.7506 31.8925 87.0606 32.4706 86.7138L44.2424 79.6507V64.8574C32.0067 63.3877 24.437 55.7648 22.3126 46.9709C22.0073 46.2267 21.8146 45.2877 21.6918 44.2753C21.5582 43.1747 21.4962 41.8855 21.5002 40.4723C21.5082 37.6447 21.7814 34.2414 22.3222 30.7104C23.3935 23.7152 25.5604 15.9207 29.0263 11.1218ZM31.0304 13.5C28.2278 17.7664 26.2909 24.6132 25.2876 31.1646C24.7659 34.5711 24.5077 37.824 24.5002 40.4808C24.4964 41.8099 24.5554 42.9699 24.6699 43.9141C24.7874 44.8829 24.9528 45.5303 25.1131 45.8908C25.1511 45.9764 25.181 46.0653 25.2025 46.1564C27.0439 53.9824 33.9699 61.0534 45.862 62.0048C46.6415 62.0671 47.2424 62.718 47.2424 63.5V80.5C47.2424 81.0269 46.9659 81.5152 46.5141 81.7862L38.6578 86.5H60.1965L52.923 81.7564C52.4984 81.4795 52.2424 81.0069 52.2424 80.5V63.5C52.2424 62.7435 52.8057 62.1054 53.5563 62.0116C64.968 60.5851 71.4737 54.4955 74.2982 46.0888C75.4443 41.1883 74.759 34.0012 73.0996 27.3638C72.2734 24.0587 71.2222 20.9575 70.0851 18.4274C69.0729 16.1751 68.0451 14.4948 67.1266 13.5H31.0304Z" fill="black"/>
</svg>
