<svg width="100" height="100" viewBox="0 0 100 100" fill="none" xmlns="http://www.w3.org/2000/svg">
<rect width="100" height="100" fill="white"/>
<path fill-rule="evenodd" clip-rule="evenodd" d="M15 43V84H34V43H15ZM14 40C12.8954 40 12 40.8954 12 42V85C12 86.1046 12.8954 87 14 87H35C36.1046 87 37 86.1046 37 85V42C37 40.8954 36.1046 40 35 40H14Z" fill="black"/>
<path fill-rule="evenodd" clip-rule="evenodd" d="M30.8611 52.7302C29.4389 53.6171 27.6313 54.7444 25.1496 54.9925L25.0752 55H25.0004C22.2062 55 20.2884 53.7563 18.8222 52.8055C18.5676 52.6404 18.3265 52.4841 18.0969 52.3447C17.2867 51.8527 16.5815 51.518 15.7779 51.3974C14.9888 51.2791 13.9715 51.349 12.5388 51.9L11.4619 49.1C13.2792 48.401 14.8244 48.2209 16.2229 48.4306C17.6068 48.6382 18.7141 49.2097 19.6538 49.7803C19.9821 49.9796 20.2886 50.1748 20.5818 50.3616C22.009 51.2707 23.1235 51.9805 24.9258 51.9996C26.62 51.8132 27.7737 51.1028 29.1661 50.2455C29.4482 50.0719 29.74 49.8922 30.0482 49.7096C30.9385 49.182 31.9603 48.649 33.1852 48.3789C34.4327 48.1039 35.8044 48.119 37.395 48.5528L36.6057 51.4471C35.4463 51.131 34.5681 51.1461 33.8312 51.3086C33.0717 51.476 32.3748 51.818 31.5776 52.2904C31.3496 52.4255 31.1114 52.5741 30.8611 52.7302Z" fill="black"/>
<path fill-rule="evenodd" clip-rule="evenodd" d="M61.8608 68.0349C60.4385 68.9218 58.631 70.0491 56.1493 70.2972L56.0748 70.3047H56C53.2058 70.3047 51.288 69.061 49.8218 68.1102C49.5672 67.9451 49.3262 67.7888 49.0965 67.6493C48.2863 67.1574 47.5811 66.8227 46.7775 66.7021C45.9891 66.5839 44.9729 66.6535 43.5421 67.2033L43.0459 67.3972L41.9541 64.6029L42.4615 64.4046C44.2789 63.7057 45.8241 63.5256 47.2225 63.7353C48.6064 63.9429 49.7137 64.5144 50.6535 65.085C50.9818 65.2843 51.2882 65.4795 51.5814 65.6662C53.0087 66.5753 54.1231 67.2852 55.9254 67.3043C57.6197 67.1179 58.7734 66.4075 60.1658 65.5502C60.4478 65.3766 60.7397 65.1969 61.0478 65.0143C61.9381 64.4867 62.9599 63.9537 64.1849 63.6836C65.4323 63.4086 66.8041 63.4237 68.3947 63.8575L68.4442 63.871L70.4926 64.5832L69.5074 67.4168L67.5578 66.739C66.4219 66.4361 65.5576 66.453 64.8308 66.6133C64.0714 66.7807 63.3744 67.1227 62.5772 67.5951C62.3493 67.7302 62.111 67.8788 61.8608 68.0349Z" fill="black"/>
<path fill-rule="evenodd" clip-rule="evenodd" d="M61.8608 75.0349C60.4385 75.9218 58.631 77.0491 56.1493 77.2972L56.0748 77.3047H56C53.2058 77.3047 51.288 76.061 49.8218 75.1102C49.5672 74.9451 49.3262 74.7888 49.0965 74.6493C48.2863 74.1574 47.5811 73.8227 46.7775 73.7021C45.9891 73.5839 44.9729 73.6535 43.5421 74.2033L43.0459 74.3972L41.9541 71.6029L42.4615 71.4046C44.2789 70.7057 45.8241 70.5256 47.2225 70.7353C48.6064 70.9429 49.7137 71.5144 50.6535 72.085C50.9818 72.2843 51.2882 72.4795 51.5814 72.6662C53.0087 73.5753 54.1231 74.2852 55.9254 74.3043C57.6197 74.1179 58.7734 73.4075 60.1658 72.5502C60.4478 72.3766 60.7397 72.1969 61.0478 72.0143C61.9381 71.4867 62.9599 70.9537 64.1849 70.6836C65.4323 70.4086 66.8041 70.4237 68.3947 70.8575L68.4442 70.871L70.4926 71.5832L69.5074 74.4168L67.5578 73.739C66.4219 73.4361 65.5576 73.453 64.8308 73.6133C64.0714 73.7807 63.3744 74.1227 62.5772 74.5951C62.3493 74.7302 62.111 74.8788 61.8608 75.0349Z" fill="black"/>
<path fill-rule="evenodd" clip-rule="evenodd" d="M50.1664 56.2274C50.0371 56.1753 49.7146 56.1114 49.0909 56.3787C48.5462 56.6121 48.413 56.8685 48.3674 57.0216C48.307 57.2245 48.3058 57.5899 48.5511 58.125C48.8999 58.8862 49.635 59.7244 50.6195 60.3759C51.0131 58.807 50.9466 57.577 50.6657 56.8591C50.4941 56.4207 50.2916 56.2778 50.1664 56.2274ZM53.4594 55.7659C54.2156 57.6984 53.9664 60.3729 52.8927 63.0571C52.5898 63.8145 51.7371 64.1909 50.9733 63.9045C48.6564 63.0357 46.6991 61.2844 45.8239 59.375C45.3817 58.4101 45.1618 57.2755 45.492 56.1659C45.8371 55.0065 46.7038 54.1378 47.9091 53.6213C49.0354 53.1386 50.2129 53.0121 51.2868 53.4445C52.3647 53.8784 53.0684 54.7668 53.4594 55.7659Z" fill="black"/>
<path fill-rule="evenodd" clip-rule="evenodd" d="M62.2301 56.5467C62.3594 56.4947 62.6819 56.4307 63.3056 56.698C63.8503 56.9315 63.9835 57.1878 64.0291 57.341C64.0895 57.5438 64.0907 57.9092 63.8454 58.4444C63.4965 59.2055 62.7615 60.0437 61.777 60.6952C61.3834 59.1264 61.4499 57.8963 61.7308 57.1784C61.9024 56.74 62.1049 56.5971 62.2301 56.5467ZM58.9371 56.0852C58.1809 58.0177 58.4301 60.6923 59.5038 63.3764C59.8067 64.1338 60.6594 64.5102 61.4231 64.2238C63.7401 63.355 65.6974 61.6038 66.5726 59.6943C67.0148 58.7295 67.2347 57.5949 66.9045 56.4852C66.5594 55.3258 65.6927 54.4572 64.4873 53.9406C63.3611 53.4579 62.1836 53.3315 61.1097 53.7638C60.0318 54.1978 59.328 55.0861 58.9371 56.0852Z" fill="black"/>
<path fill-rule="evenodd" clip-rule="evenodd" d="M62 38H50V44H62V38ZM50 35C48.3431 35 47 36.3431 47 38V44C47 45.6569 48.3431 47 50 47H62C63.6569 47 65 45.6569 65 44V38C65 36.3431 63.6569 35 62 35H50Z" fill="black"/>
<path fill-rule="evenodd" clip-rule="evenodd" d="M41 28.5H71.5V88.5H41V28.5ZM44 31.5V85.5H68.5V31.5H44Z" fill="black"/>
<path fill-rule="evenodd" clip-rule="evenodd" d="M50.3067 18.5H81.244L70.6432 30.9715L68.3574 29.0285L74.7567 21.5H51.694L43.6432 30.9715L41.3574 29.0285L50.3067 18.5Z" fill="black"/>
<path fill-rule="evenodd" clip-rule="evenodd" d="M52.632 13.9628C52.4801 14.1883 52.4413 14.5223 52.4798 14.7534L52.5002 14.8759V20H49.5002V15.1081C49.4018 14.3422 49.4939 13.2519 50.1435 12.2872C50.8961 11.1695 52.2042 10.5 54.0002 10.5H76.1488L76.2944 10.5291C76.8886 10.648 77.7413 10.9524 78.4823 11.5275C79.2504 12.1235 80.0002 13.1043 80.0002 14.5V20H77.0002V14.5C77.0002 14.2957 76.9168 14.1099 76.6431 13.8975C76.3889 13.7003 76.0657 13.5658 75.8273 13.5H54.0002C52.9962 13.5 52.721 13.8305 52.632 13.9628Z" fill="black"/>
<path fill-rule="evenodd" clip-rule="evenodd" d="M85.5003 30.0731L77.3825 21.0002L79.6182 18.9998L88.5003 28.9269V89.4733L78.4837 85.1279L70.069 88.5755L68.9316 85.7995L78.517 81.8722L85.5003 84.9017V30.0731Z" fill="black"/>
<path fill-rule="evenodd" clip-rule="evenodd" d="M70 28H87V31H70V28Z" fill="black"/>
<path fill-rule="evenodd" clip-rule="evenodd" d="M75 33C75.8284 33 76.5 33.6716 76.5 34.5V62C76.5 62.8284 75.8284 63.5 75 63.5C74.1716 63.5 73.5 62.8284 73.5 62V34.5C73.5 33.6716 74.1716 33 75 33Z" fill="black"/>
<path fill-rule="evenodd" clip-rule="evenodd" d="M82 45.5C82.8284 45.5 83.5 46.1716 83.5 47L83.5 73C83.5 73.8284 82.8284 74.5 82 74.5C81.1716 74.5 80.5 73.8284 80.5 73L80.5 47C80.5 46.1716 81.1716 45.5 82 45.5Z" fill="black"/>
<path fill-rule="evenodd" clip-rule="evenodd" d="M82 39.5C82.8284 39.5 83.5 40.1716 83.5 41V43C83.5 43.8284 82.8284 44.5 82 44.5C81.1716 44.5 80.5 43.8284 80.5 43V41C80.5 40.1716 81.1716 39.5 82 39.5Z" fill="black"/>
<path fill-rule="evenodd" clip-rule="evenodd" d="M75 63.5C75.8284 63.5 76.5 64.1716 76.5 65V67C76.5 67.8284 75.8284 68.5 75 68.5C74.1716 68.5 73.5 67.8284 73.5 67V65C73.5 64.1716 74.1716 63.5 75 63.5Z" fill="black"/>
<path fill-rule="evenodd" clip-rule="evenodd" d="M78.4849 76.8844L88.0445 80.602L86.9571 83.398L78.5167 80.1157L70.5719 83.387L69.4297 80.613L78.4849 76.8844Z" fill="black"/>
</svg>
