<svg width="100" height="100" viewBox="0 0 100 100" fill="none" xmlns="http://www.w3.org/2000/svg">
<rect width="100" height="100" fill="white"/>
<path fill-rule="evenodd" clip-rule="evenodd" d="M49.5479 35C50.3763 35 51.0479 35.6716 51.0479 36.5V89.5C51.0479 90.3284 50.3763 91 49.5479 91C48.7194 91 48.0479 90.3284 48.0479 89.5V36.5C48.0479 35.6716 48.7194 35 49.5479 35Z" fill="black"/>
<path fill-rule="evenodd" clip-rule="evenodd" d="M69.8685 17.4316L70.3426 17.728C71.6323 18.534 72.2734 19.9426 72.5989 21.3084C72.9321 22.7061 73.0012 24.329 72.9338 25.9378C72.7986 29.1646 72.0981 32.6537 71.496 34.8899L68.5992 34.11C69.1638 32.0129 69.8133 28.7521 69.9364 25.8122C69.9982 24.3376 69.9235 23.023 69.6807 22.004C69.5189 21.3253 69.3084 20.8817 69.096 20.6003C63.5002 21.6658 59.3594 24.8429 56.4165 28.5025C53.3396 32.3288 51.6311 36.6162 51.0099 39.3342L48.0627 39.2121C47.6075 36.0259 45.7449 31.66 42.5337 27.9137C39.4788 24.3496 35.2899 21.4441 30.0778 20.5917C29.9597 20.8015 29.8191 21.1392 29.6961 21.6679C29.4755 22.6167 29.3823 23.883 29.422 25.3339C29.5015 28.2347 30.1023 31.5776 30.9612 33.9984L28.134 35.0016C27.1596 32.2556 26.5104 28.5986 26.4232 25.4161C26.3796 23.8253 26.4739 22.2791 26.7741 20.9883C27.0553 19.7793 27.6026 18.4177 28.7759 17.7137L29.2199 17.4473L29.7336 17.5116C36.188 18.3184 41.2551 21.8122 44.8115 25.9613C46.9689 28.4782 48.6054 31.2759 49.6777 33.9407C50.6957 31.5992 52.1429 29.0297 54.0787 26.6225C57.484 22.3878 62.4595 18.5893 69.316 17.518L69.8685 17.4316Z" fill="black"/>
<path fill-rule="evenodd" clip-rule="evenodd" d="M70.8685 32.4316L71.3426 32.728C72.6323 33.534 73.2734 34.9426 73.5989 36.3084C73.9321 37.7061 74.0012 39.329 73.9338 40.9378C73.7986 44.1646 73.0981 47.6537 72.496 49.8899L72.4846 49.9325L71.9706 51.4743L69.1246 50.5256L69.6105 49.068C70.1724 46.9695 70.8141 43.7325 70.9364 40.8122C70.9982 39.3376 70.9235 38.023 70.6807 37.004C70.519 36.3259 70.3088 35.8825 70.0966 35.6011C64.5005 36.6809 60.1132 40.0832 56.91 44.0105C53.5664 48.1101 51.623 52.6518 51.0099 55.3342L48.0627 55.2121C47.6122 52.0587 45.5206 47.4417 42.0385 43.4192C38.7231 39.5894 34.2895 36.4616 29.0772 35.5927C28.9592 35.8026 28.8188 36.1401 28.6961 36.6679C28.4755 37.6167 28.3823 38.883 28.422 40.3339C28.5015 43.2347 29.1023 46.5776 29.9612 48.9984L29.9661 49.0119L30.4706 50.5256L27.6246 51.4743L27.1291 49.9878C26.1574 47.2434 25.5102 43.5932 25.4232 40.4161C25.3796 38.8253 25.4739 37.2791 25.7741 35.9883C26.0553 34.7793 26.6026 33.4177 27.7759 32.7137L28.2199 32.4473L28.7336 32.5116C35.2111 33.3212 40.5228 37.0847 44.3067 41.4557C46.6767 44.1935 48.5088 47.2399 49.6788 50.0809C50.8022 47.5672 52.4356 44.7499 54.5852 42.1144C58.2196 37.6584 63.4391 33.5925 70.316 32.518L70.8685 32.4316Z" fill="black"/>
<path fill-rule="evenodd" clip-rule="evenodd" d="M49.6113 66.2445C48.2407 63.2225 46.0153 59.9511 43.2412 57.1349C38.9587 52.7875 33.0729 49.2269 26.4851 49.5014L26.1034 49.5173L25.7759 49.7139C25.1145 50.1107 24.6764 50.7426 24.383 51.3536C24.0808 51.9827 23.8681 52.7216 23.7273 53.5095C23.445 55.0883 23.4198 57.0416 23.6846 59.1265C24.2128 63.2862 25.9312 68.233 29.4484 72.0208L29.4673 72.0411L29.487 72.0608C31.1546 73.7284 34.1064 76.185 37.6312 78.2343C41.1346 80.2712 45.3649 82 49.5476 82C52.6102 82 56.5739 81.0566 60.2719 79.3639C63.9314 77.6888 67.5179 75.1941 69.733 71.9253C72.445 68.8928 74.2992 64.1456 75.096 59.9686C75.5012 57.8448 75.6535 55.7666 75.4671 54.0349C75.2932 52.4191 74.771 50.6209 73.3426 49.7281L72.9778 49.5001H72.5476C64.7534 49.5001 58.9559 53.3232 54.9857 57.8198C52.5661 60.5601 50.7895 63.587 49.6113 66.2445ZM27.175 52.4867C32.3775 52.4795 37.2748 55.353 41.104 59.2402C45.0902 63.2868 47.6228 68.1329 48.0627 71.2122L51.0099 71.3343C51.6235 68.6497 53.6377 63.8792 57.2345 59.8054C60.7021 55.878 65.5501 52.6904 71.9666 52.5083C72.1519 52.7932 72.3762 53.3505 72.4843 54.3559C72.6292 55.7023 72.519 57.4679 72.1492 59.4065C71.4034 63.3158 69.6847 67.5194 67.4377 69.9911L67.362 70.0744L67.2995 70.168C65.5093 72.8534 62.4291 75.0771 59.0233 76.6361C55.6213 78.1934 52.085 79 49.5476 79C46.1303 79 42.4439 77.5622 39.139 75.6408C35.8698 73.7401 33.1313 71.4585 31.628 69.9591C28.6575 66.749 27.1315 62.4561 26.6607 58.7486C26.4254 56.896 26.4627 55.2556 26.6804 54.0375C26.7896 53.427 26.9363 52.9667 27.0872 52.6525C27.1187 52.587 27.1482 52.5322 27.175 52.4867Z" fill="black"/>
<path fill-rule="evenodd" clip-rule="evenodd" d="M49.6421 8.28381L50.5216 8.57697C50.9768 8.72871 51.4254 9.04732 51.7752 9.32469C52.1693 9.63721 52.6108 10.0396 53.0736 10.5066C54.001 11.4423 55.0702 12.6943 56.086 14.1361C58.0787 16.9645 60.0473 20.78 60.0473 24.5H57.0473C57.0473 21.72 55.5158 18.5355 53.6336 15.8639C52.7119 14.5557 51.7498 13.4327 50.9428 12.6184C50.6921 12.3654 50.4617 12.1476 50.257 11.9665C49.3369 12.985 47.881 14.7036 46.5454 16.707C45.5821 18.1519 44.7092 19.7039 44.1382 21.2171C43.5618 22.7445 43.3373 24.116 43.5269 25.2534L40.5677 25.7466C40.2573 23.884 40.6578 21.943 41.3314 20.1579C42.0104 18.3586 43.0124 16.5981 44.0492 15.0429C46.1212 11.9349 48.4429 9.4831 48.9866 8.93934L49.6421 8.28381Z" fill="black"/>
</svg>
