<svg width="100" height="97" viewBox="0 0 100 97" fill="none" xmlns="http://www.w3.org/2000/svg">
<rect width="100" height="97" fill="white"/>
<path fill-rule="evenodd" clip-rule="evenodd" d="M18.417 21.875C18.417 21.0466 19.0886 20.375 19.917 20.375H37.667C41.2032 20.375 44.5946 21.7798 47.0951 24.2802C49.5956 26.7807 51.0003 30.1721 51.0003 33.7083V75.125C51.0003 75.9534 50.3288 76.625 49.5003 76.625C48.6719 76.625 48.0003 75.9534 48.0003 75.125C48.0003 73.169 47.2233 71.2932 45.8402 69.9101C44.4572 68.527 42.5813 67.75 40.6253 67.75H19.917C19.0886 67.75 18.417 67.0784 18.417 66.25V21.875ZM48.0003 67.8277V33.7083C48.0003 30.9678 46.9116 28.3394 44.9738 26.4016C43.0359 24.4637 40.4076 23.375 37.667 23.375H21.417V64.75H40.6253C43.3769 64.75 46.0159 65.8431 47.9616 67.7888C47.9745 67.8017 47.9874 67.8147 48.0003 67.8277Z" fill="black"/>
<path fill-rule="evenodd" clip-rule="evenodd" d="M51.9052 24.2802C54.4057 21.7798 57.7971 20.375 61.3333 20.375H79.0833C79.9118 20.375 80.5833 21.0466 80.5833 21.875V66.25C80.5833 67.0784 79.9118 67.75 79.0833 67.75H58.375C56.419 67.75 54.5432 68.527 53.1601 69.9101C51.777 71.2932 51 73.169 51 75.125C51 75.9534 50.3284 76.625 49.5 76.625C48.6716 76.625 48 75.9534 48 75.125V33.7083C48 30.1721 49.4048 26.7807 51.9052 24.2802ZM51 67.8277C51.0129 67.8147 51.0258 67.8017 51.0388 67.7888C52.9845 65.8431 55.6234 64.75 58.375 64.75H77.5833V23.375H61.3333C58.5928 23.375 55.9644 24.4637 54.0266 26.4016C52.0887 28.3394 51 30.9678 51 33.7083V67.8277Z" fill="black"/>
<path fill-rule="evenodd" clip-rule="evenodd" d="M18.5 66.5H21.5V74H77.5V66.5H80.5V77H18.5V66.5Z" fill="black"/>
</svg>
