<svg width="100" height="97" viewBox="0 0 100 97" fill="none" xmlns="http://www.w3.org/2000/svg">
<rect width="100" height="97" fill="white"/>
<path fill-rule="evenodd" clip-rule="evenodd" d="M60.5 30L60.5 60L63.5 60L63.5 30L60.5 30Z" fill="black"/>
<path fill-rule="evenodd" clip-rule="evenodd" d="M54.5 37L54.5 60L57.5 60L57.5 37L54.5 37Z" fill="black"/>
<path fill-rule="evenodd" clip-rule="evenodd" d="M48.5 43V60H51.5V43H48.5Z" fill="black"/>
<path fill-rule="evenodd" clip-rule="evenodd" d="M42.5 49V60H45.5V49H42.5Z" fill="black"/>
<path fill-rule="evenodd" clip-rule="evenodd" d="M36.5 54V60H39.5V54H36.5Z" fill="black"/>
<path fill-rule="evenodd" clip-rule="evenodd" d="M15 23.5H85V20.5H15V23.5Z" fill="black"/>
<path fill-rule="evenodd" clip-rule="evenodd" d="M15 69.5H85V66.5H15V69.5Z" fill="black"/>
<path fill-rule="evenodd" clip-rule="evenodd" d="M75.5 22L75.5 68L78.5 68L78.5 22L75.5 22Z" fill="black"/>
<path fill-rule="evenodd" clip-rule="evenodd" d="M21.5 22L21.5 68L24.5 68L24.5 22L21.5 22Z" fill="black"/>
<path fill-rule="evenodd" clip-rule="evenodd" d="M56.4752 66.5H43.0368L34.6362 84.8764L37.3646 86.1236L44.964 69.5H54.5256L62.1297 86.6092L64.8711 85.3908L56.4752 66.5Z" fill="black"/>
<path fill-rule="evenodd" clip-rule="evenodd" d="M41 76.5H58.5V73.5H41V76.5Z" fill="black"/>
</svg>
