<svg width="100" height="97" viewBox="0 0 100 97" fill="none" xmlns="http://www.w3.org/2000/svg">
<rect width="100" height="97" fill="white"/>
<path fill-rule="evenodd" clip-rule="evenodd" d="M33.9587 66.0834C32.4226 66.0834 30.9495 66.6936 29.8633 67.7797C28.7772 68.8659 28.167 70.339 28.167 71.875C28.167 72.7035 27.4954 73.375 26.667 73.375C25.8386 73.375 25.167 72.7035 25.167 71.875C25.167 69.5433 26.0933 67.3072 27.742 65.6584C29.3908 64.0096 31.627 63.0834 33.9587 63.0834H73.3337C74.1621 63.0834 74.8337 63.7549 74.8337 64.5834C74.8337 65.4118 74.1621 66.0834 73.3337 66.0834H33.9587Z" fill="black"/>
<path fill-rule="evenodd" clip-rule="evenodd" d="M33.9587 22.3334C32.4226 22.3334 30.9495 22.9436 29.8633 24.0297C28.7772 25.1159 28.167 26.589 28.167 28.125V71.875C28.167 73.4111 28.7772 74.8842 29.8633 75.9704C30.9495 77.0565 32.4226 77.6667 33.9587 77.6667H71.8337V22.3334H33.9587ZM33.9587 19.3334C31.627 19.3334 29.3908 20.2596 27.742 21.9084C26.0933 23.5572 25.167 25.7933 25.167 28.125V71.875C25.167 74.2067 26.0933 76.4429 27.742 78.0917C29.3908 79.7405 31.627 80.6667 33.9587 80.6667H73.3337C74.1621 80.6667 74.8337 79.9951 74.8337 79.1667V20.8334C74.8337 20.0049 74.1621 19.3334 73.3337 19.3334H33.9587Z" fill="black"/>
<path fill-rule="evenodd" clip-rule="evenodd" d="M50 32.5C50.571 32.5 51.0924 32.8241 51.3451 33.3361L54.0864 38.8897L60.217 39.7858C60.7818 39.8683 61.2508 40.2643 61.4269 40.8074C61.603 41.3504 61.4556 41.9462 61.0466 42.3445L56.6118 46.664L57.6585 52.7664C57.755 53.3292 57.5236 53.898 57.0616 54.2336C56.5997 54.5692 55.9872 54.6134 55.4819 54.3476L50 51.4648L44.5182 54.3476C44.0128 54.6134 43.4004 54.5692 42.9384 54.2336C42.4765 53.898 42.2451 53.3292 42.3416 52.7664L43.3883 46.664L38.9534 42.3445C38.5445 41.9462 38.3971 41.3504 38.5732 40.8074C38.7492 40.2643 39.2183 39.8683 39.7831 39.7858L45.9137 38.8897L48.655 33.3361C48.9077 32.8241 49.4291 32.5 50 32.5ZM50 37.3889L48.2551 40.9239C48.0368 41.3662 47.615 41.6729 47.127 41.7442L43.2227 42.3149L46.0466 45.0655C46.4005 45.4101 46.5619 45.9068 46.4785 46.3936L45.8123 50.2775L49.3019 48.4424C49.7389 48.2125 50.2611 48.2125 50.6982 48.4424L54.1878 50.2775L53.5216 46.3936C53.4381 45.9068 53.5996 45.4101 53.9534 45.0655L56.7774 42.3149L52.8731 41.7442C52.3851 41.6729 51.9633 41.3662 51.745 40.9239L50 37.3889Z" fill="black"/>
</svg>
