<svg width="100" height="97" viewBox="0 0 100 97" fill="none" xmlns="http://www.w3.org/2000/svg">
<rect width="100" height="97" fill="white"/>
<path fill-rule="evenodd" clip-rule="evenodd" d="M28.5503 21.0503C29.863 19.7375 31.6435 19 33.5 19H55.5C55.8978 19 56.2794 19.158 56.5607 19.4393L73.0607 35.9393C73.342 36.2206 73.5 36.6022 73.5 37V70C73.5 71.8565 72.7625 73.637 71.4497 74.9497C70.137 76.2625 68.3565 77 66.5 77H33.5C31.6435 77 29.863 76.2625 28.5503 74.9497C27.2375 73.637 26.5 71.8565 26.5 70V26C26.5 24.1435 27.2375 22.363 28.5503 21.0503ZM33.5 22C32.4391 22 31.4217 22.4214 30.6716 23.1716C29.9214 23.9217 29.5 24.9391 29.5 26V70C29.5 71.0609 29.9214 72.0783 30.6716 72.8284C31.4217 73.5786 32.4391 74 33.5 74H66.5C67.5609 74 68.5783 73.5786 69.3284 72.8284C70.0786 72.0783 70.5 71.0609 70.5 70V37.6213L54.8787 22H33.5Z" fill="black"/>
<path fill-rule="evenodd" clip-rule="evenodd" d="M55.5 19C56.3284 19 57 19.6716 57 20.5V35.5H72C72.8284 35.5 73.5 36.1716 73.5 37C73.5 37.8284 72.8284 38.5 72 38.5H55.5C54.6716 38.5 54 37.8284 54 37V20.5C54 19.6716 54.6716 19 55.5 19Z" fill="black"/>
<path fill-rule="evenodd" clip-rule="evenodd" d="M37.5 50.75C37.5 49.9216 38.1716 49.25 39 49.25H61C61.8284 49.25 62.5 49.9216 62.5 50.75C62.5 51.5784 61.8284 52.25 61 52.25H39C38.1716 52.25 37.5 51.5784 37.5 50.75Z" fill="black"/>
<path fill-rule="evenodd" clip-rule="evenodd" d="M37.5 61.75C37.5 60.9216 38.1716 60.25 39 60.25H61C61.8284 60.25 62.5 60.9216 62.5 61.75C62.5 62.5784 61.8284 63.25 61 63.25H39C38.1716 63.25 37.5 62.5784 37.5 61.75Z" fill="black"/>
<path fill-rule="evenodd" clip-rule="evenodd" d="M37.5 39.75C37.5 38.9216 38.1716 38.25 39 38.25H44.5C45.3284 38.25 46 38.9216 46 39.75C46 40.5784 45.3284 41.25 44.5 41.25H39C38.1716 41.25 37.5 40.5784 37.5 39.75Z" fill="black"/>
</svg>
