<svg width="100" height="100" viewBox="0 0 100 100" fill="none" xmlns="http://www.w3.org/2000/svg">
<rect width="100" height="100" fill="white"/>
<path fill-rule="evenodd" clip-rule="evenodd" d="M14.5957 32.8764V70.8774H82.7897V48.8664H50.1433C48.7626 48.8664 47.6433 47.7471 47.6433 46.3664V32.8764H14.5957ZM11.5957 32.3764C11.5957 30.9957 12.715 29.8764 14.0957 29.8764H48.1433C49.524 29.8764 50.6433 30.9957 50.6433 32.3764V45.8664H83.2897C84.6704 45.8664 85.7897 46.9857 85.7897 48.3664V71.3774C85.7897 72.7581 84.6704 73.8774 83.2897 73.8774H14.0957C12.715 73.8774 11.5957 72.7581 11.5957 71.3774V32.3764Z" fill="black"/>
<path fill-rule="evenodd" clip-rule="evenodd" d="M52.0449 23V44.3034H87V23H52.0449ZM50.0449 20C49.4926 20 49.0449 20.4477 49.0449 21V46.3034C49.0449 46.8557 49.4926 47.3034 50.0449 47.3034H89C89.5523 47.3034 90 46.8557 90 46.3034V21C90 20.4477 89.5523 20 89 20H50.0449Z" fill="black"/>
<path fill-rule="evenodd" clip-rule="evenodd" d="M12.6147 74.8764L12.8549 76.1573H84.0172L84.3374 74.8764H12.6147ZM10.2049 71.8764C9.57876 71.8764 9.10663 72.4453 9.22202 73.0607L10.2122 78.3416C10.3009 78.8146 10.7138 79.1573 11.1951 79.1573H85.5787C86.0376 79.1573 86.4376 78.845 86.5489 78.3998L87.8691 73.1189C88.0269 72.4878 87.5495 71.8764 86.899 71.8764H10.2049Z" fill="black"/>
<path fill-rule="evenodd" clip-rule="evenodd" d="M42.354 72.7865C42.354 72.9634 42.4974 73.1067 42.6742 73.1067H55.4158C55.5927 73.1067 55.736 72.9634 55.736 72.7865H58.736C58.736 74.6202 57.2495 76.1067 55.4158 76.1067H42.6742C40.8405 76.1067 39.354 74.6202 39.354 72.7865H42.354Z" fill="black"/>
<path fill-rule="evenodd" clip-rule="evenodd" d="M29.0227 54.3146C30.3817 54.3146 31.4834 53.2129 31.4834 51.8539C31.4834 50.4949 30.3817 49.3932 29.0227 49.3932C27.6637 49.3932 26.562 50.4949 26.562 51.8539C26.562 53.2129 27.6637 54.3146 29.0227 54.3146ZM29.0227 57.3146C32.0385 57.3146 34.4834 54.8698 34.4834 51.8539C34.4834 48.8381 32.0385 46.3932 29.0227 46.3932C26.0068 46.3932 23.562 48.8381 23.562 51.8539C23.562 54.8698 26.0068 57.3146 29.0227 57.3146Z" fill="black"/>
<path fill-rule="evenodd" clip-rule="evenodd" d="M29.0225 60.3146C26.2237 60.3146 23.8079 61.9545 22.6837 64.3259H35.3613C34.237 61.9545 31.8212 60.3146 29.0225 60.3146ZM38.5764 64.3259C37.3018 60.2625 33.5064 57.3146 29.0225 57.3146C24.5386 57.3146 20.7431 60.2625 19.4685 64.3259C19.1714 65.273 19.0112 66.2807 19.0112 67.3259H39.0337C39.0337 66.2807 38.8736 65.273 38.5764 64.3259Z" fill="black"/>
<path fill-rule="evenodd" clip-rule="evenodd" d="M45.7246 53.6741C45.7246 52.8457 46.3962 52.1741 47.2246 52.1741H76.8033C77.6317 52.1741 78.3033 52.8457 78.3033 53.6741C78.3033 54.5026 77.6317 55.1741 76.8033 55.1741H47.2246C46.3962 55.1741 45.7246 54.5026 45.7246 53.6741ZM45.7246 60.5C45.7246 59.6715 46.3962 59 47.2246 59H76.8033C77.6317 59 78.3033 59.6715 78.3033 60.5C78.3033 61.3284 77.6317 62 76.8033 62H47.2246C46.3962 62 45.7246 61.3284 45.7246 60.5Z" fill="black"/>
<path fill-rule="evenodd" clip-rule="evenodd" d="M63.9268 23.7215L79.6501 33.1555L63.9268 43.2184V23.7215ZM66.9268 29.0201V37.7366L73.9562 33.2378L66.9268 29.0201Z" fill="black"/>
</svg>
