<svg width="100" height="97" viewBox="0 0 100 97" fill="none" xmlns="http://www.w3.org/2000/svg">
<rect width="100" height="97" fill="white"/>
<path fill-rule="evenodd" clip-rule="evenodd" d="M30.25 18.9167C30.25 18.0883 30.9216 17.4167 31.75 17.4167H67.25C68.0784 17.4167 68.75 18.0883 68.75 18.9167V39.625C68.75 40.4534 68.0784 41.125 67.25 41.125C66.4216 41.125 65.75 40.4534 65.75 39.625V20.4167H33.25V39.625C33.25 40.4534 32.5784 41.125 31.75 41.125C30.9216 41.125 30.25 40.4534 30.25 39.625V18.9167Z" fill="black"/>
<path fill-rule="evenodd" clip-rule="evenodd" d="M25.8337 41.125C24.6623 41.125 23.5389 41.5903 22.7106 42.4186C21.8823 43.2469 21.417 44.3703 21.417 45.5417V60.3333C21.417 61.5047 21.8823 62.6281 22.7106 63.4564C23.5389 64.2847 24.6623 64.75 25.8337 64.75H31.7503C32.5788 64.75 33.2503 65.4216 33.2503 66.25C33.2503 67.0784 32.5788 67.75 31.7503 67.75H25.8337C23.8666 67.75 21.9802 66.9686 20.5893 65.5777C19.1984 64.1868 18.417 62.3004 18.417 60.3333V45.5417C18.417 43.5746 19.1984 41.6882 20.5893 40.2973C21.9802 38.9064 23.8666 38.125 25.8337 38.125H73.167C75.134 38.125 77.0205 38.9064 78.4114 40.2973C79.8023 41.6882 80.5837 43.5746 80.5837 45.5417V60.3333C80.5837 62.3004 79.8023 64.1868 78.4114 65.5777C77.0205 66.9686 75.134 67.75 73.167 67.75H67.2503C66.4219 67.75 65.7503 67.0784 65.7503 66.25C65.7503 65.4216 66.4219 64.75 67.2503 64.75H73.167C74.3384 64.75 75.4618 64.2847 76.2901 63.4564C77.1183 62.6281 77.5837 61.5047 77.5837 60.3333V45.5417C77.5837 44.3703 77.1183 43.2469 76.2901 42.4186C75.4618 41.5903 74.3384 41.125 73.167 41.125H25.8337Z" fill="black"/>
<path fill-rule="evenodd" clip-rule="evenodd" d="M30.25 54.4167C30.25 53.5883 30.9216 52.9167 31.75 52.9167H67.25C68.0784 52.9167 68.75 53.5883 68.75 54.4167V78.0834C68.75 78.9118 68.0784 79.5834 67.25 79.5834H31.75C30.9216 79.5834 30.25 78.9118 30.25 78.0834V54.4167ZM33.25 55.9167V76.5834H65.75V55.9167H33.25Z" fill="black"/>
</svg>
