<svg width="100" height="100" viewBox="0 0 100 100" fill="none" xmlns="http://www.w3.org/2000/svg">
<rect width="100" height="100" fill="white"/>
<path fill-rule="evenodd" clip-rule="evenodd" d="M47.6581 22.6582C51.4577 18.8586 56.611 16.724 61.9844 16.724C67.3578 16.724 72.5111 18.8586 76.3107 22.6582C80.1102 26.4577 82.2448 31.611 82.2448 36.9844C82.2448 42.3578 80.1102 47.5112 76.3107 51.3107L55.2497 72.4342C54.9683 72.7164 54.5861 72.8751 54.1875 72.8751H27.625C26.7966 72.8751 26.125 72.2035 26.125 71.3751V44.8126C26.125 44.4148 26.283 44.0332 26.5643 43.7519L47.6581 22.6582ZM61.9844 19.724C57.4066 19.724 53.0164 21.5425 49.7794 24.7795L29.125 45.4339V69.8751H53.5649L74.1878 49.191L74.1893 49.1894C77.4263 45.9525 79.2448 41.5622 79.2448 36.9844C79.2448 32.4067 77.4263 28.0164 74.1893 24.7795C70.9524 21.5425 66.5621 19.724 61.9844 19.724Z" fill="black"/>
<path fill-rule="evenodd" clip-rule="evenodd" d="M63.0607 35.9393C63.6464 36.5251 63.6464 37.4749 63.0607 38.0607L19.3107 81.8107C18.7249 82.3964 17.7751 82.3964 17.1893 81.8107C16.6036 81.2249 16.6036 80.2751 17.1893 79.6893L60.9393 35.9393C61.5251 35.3536 62.4749 35.3536 63.0607 35.9393Z" fill="black"/>
<path fill-rule="evenodd" clip-rule="evenodd" d="M38.625 58.875C38.625 58.0466 39.2966 57.375 40.125 57.375H66.6875C67.5159 57.375 68.1875 58.0466 68.1875 58.875C68.1875 59.7034 67.5159 60.375 66.6875 60.375H40.125C39.2966 60.375 38.625 59.7034 38.625 58.875Z" fill="black"/>
</svg>
