<svg width="100" height="100" viewBox="0 0 100 100" fill="none" xmlns="http://www.w3.org/2000/svg">
<rect width="100" height="100" fill="white"/>
<path fill-rule="evenodd" clip-rule="evenodd" d="M42.2087 20.6667C39.7444 20.6667 37.381 21.6456 35.6385 23.3881C33.8959 25.1307 32.917 27.494 32.917 29.9583C32.917 32.4226 33.8959 34.786 35.6385 36.5285C37.381 38.2711 39.7444 39.25 42.2087 39.25H51.5003V20.6667H42.2087ZM33.5171 21.2668C35.8223 18.9617 38.9487 17.6667 42.2087 17.6667H53.0003C53.8288 17.6667 54.5003 18.3382 54.5003 19.1667V40.75C54.5003 41.5784 53.8288 42.25 53.0003 42.25H42.2087C38.9487 42.25 35.8223 40.955 33.5171 38.6499C31.212 36.3447 29.917 33.2183 29.917 29.9583C29.917 26.6984 31.212 23.5719 33.5171 21.2668Z" fill="black"/>
<path fill-rule="evenodd" clip-rule="evenodd" d="M51.5 19.1667C51.5 18.3382 52.1716 17.6667 53 17.6667H63.7917C65.4058 17.6667 67.0042 17.9846 68.4955 18.6023C69.9868 19.22 71.3418 20.1254 72.4832 21.2668C73.6246 22.4082 74.53 23.7632 75.1477 25.2545C75.7654 26.7458 76.0833 28.3442 76.0833 29.9583C76.0833 31.5725 75.7654 33.1709 75.1477 34.6621C74.53 36.1534 73.6246 37.5085 72.4832 38.6499C71.3418 39.7912 69.9868 40.6966 68.4955 41.3144C67.0042 41.9321 65.4058 42.25 63.7917 42.25H53C52.1716 42.25 51.5 41.5784 51.5 40.75V19.1667ZM54.5 20.6667V39.25H63.7917C65.0119 39.25 66.2201 39.0097 67.3474 38.5427C68.4748 38.0758 69.4991 37.3913 70.3619 36.5285C71.2247 35.6657 71.9091 34.6414 72.376 33.5141C72.843 32.3868 73.0833 31.1785 73.0833 29.9583C73.0833 28.7381 72.843 27.5299 72.376 26.4026C71.9091 25.2752 71.2247 24.2509 70.3619 23.3881C69.4991 22.5253 68.4748 21.8409 67.3474 21.374C66.2201 20.907 65.0119 20.6667 63.7917 20.6667H54.5Z" fill="black"/>
<path fill-rule="evenodd" clip-rule="evenodd" d="M63.7917 42.25C62.5715 42.25 61.3632 42.4903 60.2359 42.9573C59.1086 43.4242 58.0843 44.1087 57.2215 44.9715C56.3587 45.8343 55.6742 46.8586 55.2073 47.9859C54.7403 49.1132 54.5 50.3215 54.5 51.5417C54.5 52.7619 54.7403 53.9701 55.2073 55.0974C55.6742 56.2248 56.3587 57.2491 57.2215 58.1119C58.0843 58.9747 59.1086 59.6591 60.2359 60.1261C61.3632 60.593 62.5715 60.8333 63.7917 60.8333C65.0119 60.8333 66.2201 60.593 67.3474 60.1261C68.4748 59.6591 69.4991 58.9747 70.3619 58.1119C71.2247 57.2491 71.9091 56.2248 72.376 55.0974C72.843 53.9701 73.0833 52.7619 73.0833 51.5417C73.0833 50.3215 72.843 49.1132 72.376 47.9859C71.9091 46.8586 71.2247 45.8343 70.3619 44.9715C69.4991 44.1087 68.4748 43.4242 67.3474 42.9573C66.2201 42.4903 65.0119 42.25 63.7917 42.25ZM59.0879 40.1856C60.5791 39.5679 62.1775 39.25 63.7917 39.25C65.4058 39.25 67.0042 39.5679 68.4955 40.1856C69.9868 40.8034 71.3418 41.7088 72.4832 42.8501C73.6246 43.9915 74.53 45.3466 75.1477 46.8379C75.7654 48.3291 76.0833 49.9275 76.0833 51.5417C76.0833 53.1558 75.7654 54.7542 75.1477 56.2455C74.53 57.7368 73.6246 59.0918 72.4832 60.2332C71.3418 61.3746 69.9868 62.28 68.4955 62.8977C67.0042 63.5154 65.4058 63.8333 63.7917 63.8333C62.1775 63.8333 60.5791 63.5154 59.0879 62.8977C57.5966 62.28 56.2415 61.3746 55.1001 60.2332C53.9588 59.0918 53.0534 57.7368 52.4356 56.2455C51.8179 54.7542 51.5 53.1558 51.5 51.5417C51.5 49.9275 51.8179 48.3291 52.4356 46.8379C53.0534 45.3466 53.9588 43.9915 55.1001 42.8501C56.2415 41.7088 57.5966 40.8034 59.0879 40.1856Z" fill="black"/>
<path fill-rule="evenodd" clip-rule="evenodd" d="M42.2087 63.8333C39.7444 63.8333 37.381 64.8123 35.6385 66.5548C33.8959 68.2973 32.917 70.6607 32.917 73.125C32.917 75.5893 33.8959 77.9527 35.6385 79.6952C37.381 81.4377 39.7444 82.4167 42.2087 82.4167C44.673 82.4167 47.0363 81.4377 48.7789 79.6952C50.5214 77.9527 51.5003 75.5893 51.5003 73.125V63.8333H42.2087ZM33.5171 64.4335C35.8223 62.1284 38.9487 60.8333 42.2087 60.8333H53.0003C53.8288 60.8333 54.5003 61.5049 54.5003 62.3333V73.125C54.5003 76.385 53.2053 79.5114 50.9002 81.8165C48.595 84.1217 45.4686 85.4167 42.2087 85.4167C38.9487 85.4167 35.8223 84.1217 33.5171 81.8165C31.212 79.5114 29.917 76.385 29.917 73.125C29.917 69.8651 31.212 66.7386 33.5171 64.4335Z" fill="black"/>
<path fill-rule="evenodd" clip-rule="evenodd" d="M42.2087 42.25C39.7444 42.25 37.381 43.2289 35.6385 44.9715C33.8959 46.714 32.917 49.0774 32.917 51.5417C32.917 54.006 33.8959 56.3693 35.6385 58.1119C37.381 59.8544 39.7444 60.8333 42.2087 60.8333H51.5003V42.25H42.2087ZM33.5171 42.8501C35.8223 40.545 38.9487 39.25 42.2087 39.25H53.0003C53.8288 39.25 54.5003 39.9216 54.5003 40.75V62.3333C54.5003 63.1618 53.8288 63.8333 53.0003 63.8333H42.2087C38.9487 63.8333 35.8223 62.5383 33.5171 60.2332C31.212 57.9281 29.917 54.8016 29.917 51.5417C29.917 48.2817 31.212 45.1553 33.5171 42.8501Z" fill="black"/>
</svg>
