<svg width="100" height="100" viewBox="0 0 100 100" fill="none" xmlns="http://www.w3.org/2000/svg">
<rect width="100" height="100" fill="white"/>
<path fill-rule="evenodd" clip-rule="evenodd" d="M22.4357 28.8714C25.4377 28.8714 27.8714 26.4377 27.8714 23.4357C27.8714 20.4336 25.4377 18 22.4357 18C19.4336 18 17 20.4336 17 23.4357C17 26.4377 19.4336 28.8714 22.4357 28.8714ZM22.4357 31.8714C27.0946 31.8714 30.8714 28.0946 30.8714 23.4357C30.8714 18.7768 27.0946 15 22.4357 15C17.7768 15 14 18.7768 14 23.4357C14 28.0946 17.7768 31.8714 22.4357 31.8714Z" fill="black"/>
<path fill-rule="evenodd" clip-rule="evenodd" d="M13.9062 36.6982H30.9657V86.7974H13.9062V36.6982ZM16.9062 39.6982V83.7974H27.9657V39.6982H16.9062Z" fill="black"/>
<path fill-rule="evenodd" clip-rule="evenodd" d="M70.3472 35.9982C74.5277 36.1966 77.71 37.6408 80.083 39.816C82.4381 41.9749 83.9121 44.7751 84.8421 47.5651C86.5551 52.704 86.5176 58.1297 86.503 60.2533C86.5018 60.421 86.5008 60.5682 86.5008 60.6929V87.5H68.7383V60.6929C68.7383 59.0718 68.4046 56.5561 67.2695 54.5885C66.7143 53.6261 65.9918 52.836 65.0584 52.3146C64.1346 51.7986 62.9056 51.4903 61.2355 51.6422C58.7678 51.8665 57.2215 53.2776 56.2344 55.112C55.2199 56.9977 54.867 59.2346 54.867 60.6929V87.5H37.1045V36.6978H54.867V40.3515C58.7338 36.9642 64.6473 35.4385 70.3472 35.9982ZM70.0892 38.9873C63.4088 38.3197 57.0956 40.9016 54.6782 45.253L51.867 50.3132V39.6978H40.1045V84.5H51.867V60.6929C51.867 58.8707 52.2873 56.1165 53.5926 53.6906C54.9253 51.2135 57.2454 48.9925 60.9639 48.6545C63.16 48.4548 65.0067 48.8495 66.5213 49.6955C68.0263 50.5362 69.1052 51.7671 69.868 53.0893C71.3691 55.6911 71.7383 58.7992 71.7383 60.6929V84.5H83.5008V60.6929C83.5008 60.5625 83.5016 60.4136 83.5026 60.2477C83.5146 58.1107 83.5426 53.1533 81.9961 48.5137C81.1686 46.0314 79.9186 43.735 78.0559 42.0275C76.2187 40.3435 73.7023 39.1538 70.1702 38.9932L70.1296 38.9914L70.0892 38.9873Z" fill="black"/>
</svg>
