<svg width="100" height="100" viewBox="0 0 100 100" fill="none" xmlns="http://www.w3.org/2000/svg">
<rect width="100" height="100" fill="white"/>
<path fill-rule="evenodd" clip-rule="evenodd" d="M59.2613 21.7816C53.6662 22.9123 51.0369 26.4361 49.8602 29.966C49.262 31.7608 49.0459 33.553 49.0388 35.0069C49.0352 35.7324 49.0838 36.3559 49.1559 36.8362C49.192 37.0763 49.2323 37.2696 49.271 37.4153C49.2901 37.4876 49.3075 37.5427 49.3215 37.5822C49.3346 37.619 49.3421 37.6348 49.3418 37.6342L50.4268 39.8042H47.9997C44.739 39.8042 39.53 38.7367 33.892 36.238C28.8236 33.9918 23.3305 30.5552 18.5262 25.5951C17.1145 29.9571 17.706 33.3941 19.0131 35.9769C20.5673 39.0479 23.2108 41.0572 25.1283 41.9422L24.4997 44.8042C22.6672 44.8042 20.2516 44.5536 17.9952 43.8219C19.6297 50.0216 24.0816 53.5471 28.7463 54.3246L28.8635 57.2594C27.3632 57.6345 25.6558 57.7536 23.8972 57.6352C26.8734 63.3257 32.4191 64.8042 34.9997 64.8042H39.4997L35.8997 67.5042C35.5159 67.7921 34.9123 68.1065 34.2783 68.4101C33.6061 68.7319 32.7738 69.0994 31.8498 69.4903C29.9998 70.273 27.7325 71.1703 25.5395 72.0162C23.4738 72.813 21.4648 73.5676 19.917 74.1432C22.4885 75.451 25.7283 76.4803 29.0653 77.1983C33.5955 78.1731 38.0697 78.5251 40.8847 78.3086C44.0461 78.0654 48.9192 77.3619 53.9613 75.675C59.013 73.9848 64.1322 71.3417 67.9005 67.2835C70.9003 64.053 72.9459 59.0874 74.1717 54.3066C75.4013 49.5111 75.7277 45.2211 75.5113 43.4902L75.51 43.48L75.5089 43.4698C75.0771 39.584 76.0246 36.6805 76.7135 35.5324L76.7491 35.473L80.5396 30.3042H77.3712L79.5507 24.2017L74.2125 25.9811L73.5788 25.4882C71.4404 23.825 69.365 22.6853 67.102 22.063C64.8497 21.4436 62.3274 21.3136 59.2613 21.7816ZM16.4997 73.8042C15.9871 72.3945 15.9871 72.3945 15.9872 72.3944L16.171 72.3274C16.2916 72.2834 16.4691 72.2185 16.6959 72.1353C17.1494 71.9688 17.8 71.7293 18.587 71.437C20.1615 70.8525 22.2802 70.0579 24.4599 69.2172C26.476 68.4395 28.5354 67.6258 30.2617 66.9038C26.4917 65.5543 22.142 62.4744 20.0767 56.2785L19.2593 53.8264L21.2886 54.2323C17.7872 51.5297 15.1836 47.2053 14.51 41.4795L14.1532 38.447L16.7715 40.018C17.3966 40.3931 18.1068 40.7005 18.8581 40.948C17.9121 39.9219 17.0373 38.7166 16.3363 37.3315C14.387 33.4797 13.8567 28.3793 16.631 22.1906L17.5912 20.0485L19.1316 21.8199C23.9619 27.3748 29.7697 31.1297 35.1075 33.4953C39.3937 35.3949 43.3151 36.3719 46.1152 36.6875C46.0637 36.1748 46.0358 35.6041 46.0388 34.9921C46.0473 33.2741 46.3 31.16 47.0142 29.0173C48.4602 24.6792 51.8231 20.2098 58.7055 18.8333L58.7385 18.8267L58.7716 18.8216C62.1904 18.2957 65.1579 18.417 67.8974 19.1703C70.3857 19.8546 72.6158 21.0411 74.775 22.6313L84.4488 19.4067L81.6282 27.3042H86.4598L79.2573 37.1258C78.9264 37.7251 78.1346 39.9169 78.4895 43.129C78.7704 45.4022 78.3461 50.1051 77.0777 55.0518C75.8036 60.0209 73.5992 65.5554 70.0989 69.3249C65.8672 73.8821 60.2364 76.739 54.9131 78.52C49.5802 80.3042 44.4534 81.0429 41.1148 81.2998C37.9297 81.5448 33.154 81.1468 28.4342 80.1312C23.7372 79.1205 18.8593 77.4489 15.5997 75.0042L13.3828 73.3415L15.9872 72.3944L16.4997 73.8042Z" fill="black"/>
</svg>
