<svg width="100" height="100" viewBox="0 0 100 100" fill="none" xmlns="http://www.w3.org/2000/svg">
<rect width="100" height="100" fill="white"/>
<path fill-rule="evenodd" clip-rule="evenodd" d="M16.3835 26.3574C15.0046 27.9485 14.5 29.8458 14.5 31V68C14.5 71.0608 15.681 73.1284 17.3209 74.4608C19.0047 75.8289 21.2759 76.5 23.5 76.5H79C82.4137 76.5 84.19 74.9567 85.1976 73.1933C86.2675 71.3211 86.5 69.1147 86.5 68V31C86.5 28.0486 85.1644 26.2302 83.5694 25.0983C81.9007 23.914 79.958 23.5 79 23.5H23.5C19.9197 23.5 17.7137 24.8226 16.3835 26.3574ZM14.1165 24.3926C16.0363 22.1774 19.0803 20.5 23.5 20.5H79C80.542 20.5 83.0993 21.086 85.3056 22.6517C87.5856 24.2698 89.5 26.9514 89.5 31V68C89.5 69.3853 89.2325 72.1789 87.8024 74.6817C86.31 77.2933 83.5863 79.5 79 79.5H23.5C20.7241 79.5 17.7453 78.6711 15.4291 76.7892C13.069 74.8716 11.5 71.9392 11.5 68V31C11.5 29.1542 12.2454 26.5515 14.1165 24.3926Z" fill="black"/>
<path fill-rule="evenodd" clip-rule="evenodd" d="M42.7663 37.6917C43.2395 37.4263 43.8192 37.4371 44.2822 37.7201L62.2822 48.7201C62.7235 48.9898 62.9948 49.4678 62.9999 49.985C63.0051 50.5022 62.7434 50.9856 62.3076 51.264L44.3076 62.764C43.8458 63.0591 43.2599 63.0788 42.7794 62.8156C42.2988 62.5523 42 62.048 42 61.5V39C42 38.4574 42.293 37.9571 42.7663 37.6917ZM45 41.6746V58.7617L58.6697 50.0283L45 41.6746Z" fill="black"/>
</svg>
