<svg width="100" height="100" viewBox="0 0 100 100" fill="none" xmlns="http://www.w3.org/2000/svg">
<rect width="100" height="100" fill="white"/>
<path fill-rule="evenodd" clip-rule="evenodd" d="M23.75 35.8333C25.1307 35.8333 26.25 36.9526 26.25 38.3333V73.75H73.75V38.3333C73.75 36.9526 74.8693 35.8333 76.25 35.8333C77.6307 35.8333 78.75 36.9526 78.75 38.3333V76.25C78.75 77.6307 77.6307 78.75 76.25 78.75H23.75C22.3693 78.75 21.25 77.6307 21.25 76.25V38.3333C21.25 36.9526 22.3693 35.8333 23.75 35.8333Z" fill="black"/>
<path fill-rule="evenodd" clip-rule="evenodd" d="M15.416 23.75C15.416 22.3693 16.5353 21.25 17.916 21.25H82.0827C83.4634 21.25 84.5827 22.3693 84.5827 23.75V38.3333C84.5827 39.714 83.4634 40.8333 82.0827 40.8333H17.916C16.5353 40.8333 15.416 39.714 15.416 38.3333V23.75ZM20.416 26.25V35.8333H79.5827V26.25H20.416Z" fill="black"/>
<path fill-rule="evenodd" clip-rule="evenodd" d="M41.666 50C41.666 48.6193 42.7853 47.5 44.166 47.5H55.8327C57.2134 47.5 58.3327 48.6193 58.3327 50C58.3327 51.3807 57.2134 52.5 55.8327 52.5H44.166C42.7853 52.5 41.666 51.3807 41.666 50Z" fill="black"/>
</svg>
