<svg width="100" height="100" viewBox="0 0 100 100" fill="none" xmlns="http://www.w3.org/2000/svg">
<rect width="100" height="100" fill="white"/>
<path fill-rule="evenodd" clip-rule="evenodd" d="M70 38.3333C70 36.9526 71.1193 35.8333 72.5 35.8333H75.4167C79.1739 35.8333 82.7772 37.3259 85.434 39.9827C88.0908 42.6394 89.5833 46.2428 89.5833 50C89.5833 53.7572 88.0908 57.3606 85.434 60.0174C82.7772 62.6741 79.1739 64.1667 75.4167 64.1667H72.5C71.1193 64.1667 70 63.0474 70 61.6667C70 60.286 71.1193 59.1667 72.5 59.1667H75.4167C77.8478 59.1667 80.1794 58.2009 81.8985 56.4818C83.6176 54.7627 84.5833 52.4312 84.5833 50C84.5833 47.5689 83.6176 45.2373 81.8985 43.5182C80.1794 41.7991 77.8478 40.8333 75.4167 40.8333H72.5C71.1193 40.8333 70 39.7141 70 38.3333Z" fill="black"/>
<path fill-rule="evenodd" clip-rule="evenodd" d="M23.334 38.3333C23.334 36.9526 24.4533 35.8333 25.834 35.8333H72.5007C73.8814 35.8333 75.0007 36.9526 75.0007 38.3333V64.5833C75.0007 68.3406 73.5081 71.9439 70.8513 74.6007C68.1946 77.2574 64.5912 78.75 60.834 78.75H37.5007C33.7434 78.75 30.1401 77.2574 27.4833 74.6007C24.8265 71.9439 23.334 68.3406 23.334 64.5833V38.3333ZM28.334 40.8333V64.5833C28.334 67.0145 29.2998 69.3461 31.0188 71.0651C32.7379 72.7842 35.0695 73.75 37.5007 73.75H60.834C63.2651 73.75 65.5967 72.7842 67.3158 71.0651C69.0349 69.3461 70.0007 67.0145 70.0007 64.5833V40.8333H28.334Z" fill="black"/>
<path fill-rule="evenodd" clip-rule="evenodd" d="M37.5 15.4167C38.8807 15.4167 40 16.5359 40 17.9167V26.6667C40 28.0474 38.8807 29.1667 37.5 29.1667C36.1193 29.1667 35 28.0474 35 26.6667V17.9167C35 16.5359 36.1193 15.4167 37.5 15.4167Z" fill="black"/>
<path fill-rule="evenodd" clip-rule="evenodd" d="M49.166 15.4167C50.5467 15.4167 51.666 16.5359 51.666 17.9167V26.6667C51.666 28.0474 50.5467 29.1667 49.166 29.1667C47.7853 29.1667 46.666 28.0474 46.666 26.6667V17.9167C46.666 16.5359 47.7853 15.4167 49.166 15.4167Z" fill="black"/>
<path fill-rule="evenodd" clip-rule="evenodd" d="M60.834 15.4167C62.2147 15.4167 63.334 16.5359 63.334 17.9167V26.6667C63.334 28.0474 62.2147 29.1667 60.834 29.1667C59.4533 29.1667 58.334 28.0474 58.334 26.6667V17.9167C58.334 16.5359 59.4533 15.4167 60.834 15.4167Z" fill="black"/>
</svg>
