<svg width="100" height="100" viewBox="0 0 100 100" fill="none" xmlns="http://www.w3.org/2000/svg">
<rect width="100" height="100" fill="white"/>
<path fill-rule="evenodd" clip-rule="evenodd" d="M48.8826 18.5973C49.5864 18.2454 50.4149 18.2454 51.1187 18.5973L80.2853 33.1806C81.1323 33.6041 81.6673 34.4697 81.6673 35.4167C81.6673 36.3636 81.1323 37.2293 80.2853 37.6527L51.1187 52.2361C50.4149 52.588 49.5864 52.588 48.8826 52.2361L19.716 37.6527C18.869 37.2293 18.334 36.3636 18.334 35.4167C18.334 34.4697 18.869 33.6041 19.716 33.1806L48.8826 18.5973ZM26.4242 35.4167L50.0006 47.2049L73.5771 35.4167L50.0006 23.6284L26.4242 35.4167Z" fill="black"/>
<path fill-rule="evenodd" clip-rule="evenodd" d="M18.5965 63.4653C19.214 62.2304 20.7157 61.7298 21.9506 62.3473L49.9992 76.3716L78.0479 62.3473C79.2828 61.7298 80.7845 62.2304 81.402 63.4653C82.0194 64.7003 81.5189 66.2019 80.2839 66.8194L51.1173 81.4027C50.4135 81.7547 49.585 81.7547 48.8812 81.4027L19.7145 66.8194C18.4796 66.2019 17.979 64.7003 18.5965 63.4653Z" fill="black"/>
<path fill-rule="evenodd" clip-rule="evenodd" d="M18.5965 48.882C19.214 47.647 20.7157 47.1465 21.9506 47.7639L49.9992 61.7882L78.0479 47.7639C79.2828 47.1465 80.7845 47.647 81.402 48.882C82.0194 50.1169 81.5189 51.6186 80.2839 52.2361L51.1173 66.8194C50.4135 67.1713 49.585 67.1713 48.8812 66.8194L19.7145 52.2361C18.4796 51.6186 17.979 50.1169 18.5965 48.882Z" fill="black"/>
</svg>
