<svg width="100" height="100" viewBox="0 0 100 100" fill="none" xmlns="http://www.w3.org/2000/svg">
<rect width="100" height="100" fill="white"/>
<path fill-rule="evenodd" clip-rule="evenodd" d="M26.6673 26.25C25.7833 26.25 24.9354 26.6012 24.3103 27.2263C23.6852 27.8514 23.334 28.6993 23.334 29.5833V70.4167C23.334 71.3007 23.6852 72.1486 24.3103 72.7737C24.9354 73.3988 25.7833 73.75 26.6673 73.75H73.334C74.218 73.75 75.0659 73.3988 75.691 72.7737C76.3161 72.1486 76.6673 71.3007 76.6673 70.4167V38.3333C76.6673 37.4493 76.3161 36.6014 75.691 35.9763C75.0659 35.3512 74.218 35 73.334 35H47.084C46.2481 35 45.4675 34.5822 45.0039 33.8868L39.9127 26.25H26.6673ZM20.7748 23.6908C22.3376 22.128 24.4572 21.25 26.6673 21.25H41.2506C42.0865 21.25 42.8671 21.6678 43.3308 22.3632L48.4219 30H73.334C75.5441 30 77.6637 30.878 79.2265 32.4408C80.7893 34.0036 81.6673 36.1232 81.6673 38.3333V70.4167C81.6673 72.6268 80.7893 74.7464 79.2265 76.3092C77.6637 77.872 75.5441 78.75 73.334 78.75H26.6673C24.4572 78.75 22.3376 77.872 20.7748 76.3092C19.212 74.7464 18.334 72.6268 18.334 70.4167V29.5833C18.334 27.3732 19.212 25.2536 20.7748 23.6908Z" fill="black"/>
</svg>
