<svg width="100" height="100" viewBox="0 0 100 100" fill="none" xmlns="http://www.w3.org/2000/svg">
<rect width="100" height="100" fill="white"/>
<path fill-rule="evenodd" clip-rule="evenodd" d="M42.045 18.7117C44.1548 16.6019 47.0163 15.4167 50 15.4167C52.9837 15.4167 55.8452 16.6019 57.955 18.7117C60.0647 20.8215 61.25 23.683 61.25 26.6667V50C61.25 52.9837 60.0647 55.8452 57.955 57.9549C55.8452 60.0647 52.9837 61.25 50 61.25C47.0163 61.25 44.1548 60.0647 42.045 57.9549C39.9353 55.8452 38.75 52.9837 38.75 50V26.6667C38.75 23.683 39.9353 20.8215 42.045 18.7117ZM50 20.4167C48.3424 20.4167 46.7527 21.0751 45.5806 22.2472C44.4085 23.4193 43.75 25.0091 43.75 26.6667V50C43.75 51.6576 44.4085 53.2473 45.5806 54.4194C46.7527 55.5915 48.3424 56.25 50 56.25C51.6576 56.25 53.2473 55.5915 54.4194 54.4194C55.5915 53.2473 56.25 51.6576 56.25 50V26.6667C56.25 25.0091 55.5915 23.4193 54.4194 22.2472C53.2473 21.0751 51.6576 20.4167 50 20.4167Z" fill="black"/>
<path fill-rule="evenodd" clip-rule="evenodd" d="M29.584 41.6667C30.9647 41.6667 32.084 42.7859 32.084 44.1667V50C32.084 54.7518 33.9716 59.309 37.3317 62.669C40.6917 66.029 45.2489 67.9167 50.0007 67.9167C54.7525 67.9167 59.3096 66.029 62.6697 62.669C66.0297 59.309 67.9173 54.7518 67.9173 50V44.1667C67.9173 42.7859 69.0366 41.6667 70.4173 41.6667C71.798 41.6667 72.9173 42.7859 72.9173 44.1667V50C72.9173 56.0779 70.5029 61.9068 66.2052 66.2045C61.9075 70.5022 56.0785 72.9167 50.0007 72.9167C43.9228 72.9167 38.0938 70.5022 33.7961 66.2045C29.4984 61.9068 27.084 56.0779 27.084 50V44.1667C27.084 42.7859 28.2033 41.6667 29.584 41.6667Z" fill="black"/>
<path fill-rule="evenodd" clip-rule="evenodd" d="M50 67.9167C51.3807 67.9167 52.5 69.0359 52.5 70.4167V82.0833C52.5 83.464 51.3807 84.5833 50 84.5833C48.6193 84.5833 47.5 83.464 47.5 82.0833V70.4167C47.5 69.0359 48.6193 67.9167 50 67.9167Z" fill="black"/>
<path fill-rule="evenodd" clip-rule="evenodd" d="M35.834 82.0833C35.834 80.7026 36.9533 79.5833 38.334 79.5833H61.6673C63.048 79.5833 64.1673 80.7026 64.1673 82.0833C64.1673 83.464 63.048 84.5833 61.6673 84.5833H38.334C36.9533 84.5833 35.834 83.464 35.834 82.0833Z" fill="black"/>
</svg>
