<svg width="100" height="100" viewBox="0 0 100 100" fill="none" xmlns="http://www.w3.org/2000/svg">
<rect width="100" height="100" fill="white"/>
<path fill-rule="evenodd" clip-rule="evenodd" d="M42 40.5C42.8284 40.5 43.5 41.1716 43.5 42V50.5H56.5V42C56.5 41.1716 57.1716 40.5 58 40.5C58.8284 40.5 59.5 41.1716 59.5 42V52C59.5 52.8284 58.8284 53.5 58 53.5H42C41.1716 53.5 40.5 52.8284 40.5 52V42C40.5 41.1716 41.1716 40.5 42 40.5Z" fill="black"/>
<path fill-rule="evenodd" clip-rule="evenodd" d="M38.5 37C38.5 36.1716 39.1716 35.5 40 35.5H60C60.8284 35.5 61.5 36.1716 61.5 37V42C61.5 42.8284 60.8284 43.5 60 43.5H40C39.1716 43.5 38.5 42.8284 38.5 42V37ZM41.5 38.5V40.5H58.5V38.5H41.5Z" fill="black"/>
<path fill-rule="evenodd" clip-rule="evenodd" d="M50 35.5C50.8284 35.5 51.5 36.1716 51.5 37V52C51.5 52.8284 50.8284 53.5 50 53.5C49.1716 53.5 48.5 52.8284 48.5 52V37C48.5 36.1716 49.1716 35.5 50 35.5Z" fill="black"/>
<path fill-rule="evenodd" clip-rule="evenodd" d="M45.5 33.5C45.2348 33.5 44.9804 33.6054 44.7929 33.7929C44.6054 33.9804 44.5 34.2348 44.5 34.5C44.5 34.7652 44.6054 35.0196 44.7929 35.2071C44.9804 35.3946 45.2348 35.5 45.5 35.5H47.8923C47.8469 35.4077 47.7989 35.3151 47.7482 35.2229C47.1485 34.1325 46.4159 33.5 45.5 33.5ZM50 37C51.4709 36.7058 51.4708 36.7053 51.4707 36.7048L51.4704 36.7037L51.4699 36.701L51.4685 36.6944L51.4646 36.6756C51.4615 36.6607 51.4572 36.641 51.4518 36.6169C51.4411 36.5687 51.4258 36.5027 51.4054 36.4214C51.3648 36.2589 51.3038 36.0336 51.2191 35.7659C51.0513 35.236 50.7818 34.5135 50.3768 33.7771C49.6015 32.3675 48.0841 30.5 45.5 30.5C44.4391 30.5 43.4217 30.9214 42.6716 31.6716C41.9214 32.4217 41.5 33.4391 41.5 34.5C41.5 35.5609 41.9214 36.5783 42.6716 37.3284C43.4217 38.0786 44.4391 38.5 45.5 38.5H50C50.4494 38.5 50.8751 38.2985 51.16 37.951C51.4449 37.6035 51.559 37.1465 51.4709 36.7058L50 37Z" fill="black"/>
<path fill-rule="evenodd" clip-rule="evenodd" d="M49.6232 33.7771C50.3985 32.3675 51.9159 30.5 54.5 30.5C55.5609 30.5 56.5783 30.9214 57.3284 31.6716C58.0786 32.4217 58.5 33.4391 58.5 34.5C58.5 35.5609 58.0786 36.5783 57.3284 37.3284C56.5783 38.0786 55.5609 38.5 54.5 38.5H50C49.5506 38.5 49.1249 38.2985 48.84 37.951C48.5551 37.6035 48.441 37.1465 48.5291 36.7058L50 37C48.5291 36.7058 48.5292 36.7053 48.5293 36.7048L48.5301 36.701L48.5315 36.6944L48.5354 36.6756C48.5385 36.6607 48.5428 36.641 48.5482 36.6169C48.5589 36.5687 48.5743 36.5027 48.5946 36.4214C48.6352 36.2589 48.6962 36.0336 48.7809 35.7659C48.9488 35.236 49.2182 34.5135 49.6232 33.7771ZM51.4706 37.2957C51.4702 37.2975 51.47 37.2984 51.47 37.2984L51.4703 37.2972L51.4706 37.2957ZM52.1077 35.5C52.1531 35.4077 52.2011 35.3151 52.2518 35.2229C52.8515 34.1325 53.5842 33.5 54.5 33.5C54.7652 33.5 55.0196 33.6054 55.2071 33.7929C55.3947 33.9804 55.5 34.2348 55.5 34.5C55.5 34.7652 55.3947 35.0196 55.2071 35.2071C55.0196 35.3946 54.7652 35.5 54.5 35.5H52.1077Z" fill="black"/>
<path fill-rule="evenodd" clip-rule="evenodd" d="M80 21H20C18.8954 21 18 21.8954 18 23V60C18 61.1046 18.8954 62 20 62H80C81.1046 62 82 61.1046 82 60V23C82 21.8954 81.1046 21 80 21ZM20 18C17.2386 18 15 20.2386 15 23V60C15 62.7614 17.2386 65 20 65H80C82.7614 65 85 62.7614 85 60V23C85 20.2386 82.7614 18 80 18H20Z" fill="black"/>
<path fill-rule="evenodd" clip-rule="evenodd" d="M62 66H38V72H62V66ZM35 63V75H65V63H35Z" fill="black"/>
<path fill-rule="evenodd" clip-rule="evenodd" d="M73 76H29C27.8954 76 27 76.8954 27 78C27 79.1046 27.8954 80 29 80H73C74.1046 80 75 79.1046 75 78C75 76.8954 74.1046 76 73 76ZM29 73C26.2386 73 24 75.2386 24 78C24 80.7614 26.2386 83 29 83H73C75.7614 83 78 80.7614 78 78C78 75.2386 75.7614 73 73 73H29Z" fill="black"/>
</svg>
