<svg width="100" height="100" viewBox="0 0 100 100" fill="none" xmlns="http://www.w3.org/2000/svg">
<rect width="100" height="100" fill="white"/>
<path d="M50.579 39.695C48.0476 39.695 45.9883 41.7543 45.9883 44.2857C45.9883 46.815 48.0476 48.8744 50.579 48.8744C53.1083 48.8744 55.1676 46.8152 55.1676 44.2857C55.1677 41.7543 53.1083 39.695 50.579 39.695ZM50.579 46.6869C49.2546 46.6869 48.1757 45.6102 48.1757 44.2857C48.1757 42.9613 49.2546 41.8824 50.579 41.8824C51.9034 41.8824 52.9801 42.9613 52.9801 44.2857C52.9801 45.6102 51.9034 46.6869 50.579 46.6869Z" fill="black"/>
<path d="M58.976 40.5514L61.392 37.6013L57.5553 33.7646L54.4534 36.3046C54.2056 36.1977 53.9536 36.1037 53.6993 36.0204L53.2956 32H47.8589L47.4551 36.0204C47.2009 36.1037 46.9489 36.1977 46.701 36.3046L43.597 33.7646L39.7646 37.6013L42.1784 40.5514C42.0267 40.8547 41.8921 41.1667 41.7747 41.4829L38 41.861V47.2827L41.7811 47.6609C41.8966 47.977 42.0311 48.2867 42.1827 48.588L39.7667 51.5424L43.597 55.3791L46.701 52.8391C46.9489 52.946 47.2009 53.04 47.4551 53.1211L47.8589 57.1416H53.2956L53.6993 53.1211C53.9534 53.04 54.2056 52.946 54.4534 52.8391L57.5553 55.3791L61.392 51.5446L58.9739 48.588C59.1256 48.2869 59.2601 47.977 59.3754 47.6609L63.1566 47.2827V41.861L59.3797 41.4829C59.2643 41.1667 59.1297 40.8547 58.976 40.5514ZM60.969 45.3046L57.6963 45.6293L57.4976 46.3556C57.3267 46.9836 57.0661 47.5817 56.7286 48.1307L56.3163 48.793L58.444 51.395L57.41 52.431L54.744 50.2499L54.101 50.5874C53.5776 50.863 53.02 51.0681 52.4433 51.2006L51.6743 51.3736L51.3176 54.9539H49.8371L49.4804 51.3736L48.7114 51.2006C48.1367 51.0703 47.5793 50.863 47.0559 50.5874L46.4129 50.2499L43.7469 52.431L42.7109 51.397L44.8407 48.7929L44.4284 48.1306C44.0909 47.5816 43.8303 46.9834 43.6594 46.3554L43.4607 45.6291L40.188 45.3044V43.8391L43.4543 43.5123L43.653 42.7881C43.8217 42.1666 44.0824 41.5684 44.4284 41.0087L44.8364 40.3444L42.713 37.7467L43.747 36.7127L46.413 38.8939L47.056 38.5563C47.5837 38.2786 48.1411 38.0713 48.7116 37.941L49.4806 37.768L49.8373 34.1877H51.3177L51.6744 37.768L52.4434 37.941C53.0117 38.0713 53.5714 38.2786 54.1033 38.5563L54.7441 38.8939L57.4101 36.7127L58.4441 37.7467L56.3164 40.3466L56.7287 41.0109C57.0749 41.5684 57.3354 42.1666 57.502 42.784L57.6986 43.5124L60.9691 43.8393V45.3046H60.969Z" fill="black"/>
<path fill-rule="evenodd" clip-rule="evenodd" d="M80 24H20C18.8954 24 18 24.8954 18 26V63C18 64.1046 18.8954 65 20 65H80C81.1046 65 82 64.1046 82 63V26C82 24.8954 81.1046 24 80 24ZM20 21C17.2386 21 15 23.2386 15 26V63C15 65.7614 17.2386 68 20 68H80C82.7614 68 85 65.7614 85 63V26C85 23.2386 82.7614 21 80 21H20Z" fill="black"/>
<path fill-rule="evenodd" clip-rule="evenodd" d="M62 69H38V75H62V69ZM35 66V78H65V66H35Z" fill="black"/>
<path fill-rule="evenodd" clip-rule="evenodd" d="M73 79H29C27.8954 79 27 79.8954 27 81C27 82.1046 27.8954 83 29 83H73C74.1046 83 75 82.1046 75 81C75 79.8954 74.1046 79 73 79ZM29 76C26.2386 76 24 78.2386 24 81C24 83.7614 26.2386 86 29 86H73C75.7614 86 78 83.7614 78 81C78 78.2386 75.7614 76 73 76H29Z" fill="black"/>
</svg>
