<svg width="100" height="100" viewBox="0 0 100 100" fill="none" xmlns="http://www.w3.org/2000/svg">
<rect width="100" height="100" fill="white"/>
<path fill-rule="evenodd" clip-rule="evenodd" d="M42 38.5C41.7239 38.5 41.5 38.7239 41.5 39V49C41.5 49.2761 41.7239 49.5 42 49.5H58C58.2761 49.5 58.5 49.2761 58.5 49V39C58.5 38.7239 58.2761 38.5 58 38.5H42ZM38.5 39C38.5 37.067 40.067 35.5 42 35.5H58C59.933 35.5 61.5 37.067 61.5 39V49C61.5 50.933 59.933 52.5 58 52.5H42C40.067 52.5 38.5 50.933 38.5 49V39Z" fill="black"/>
<path fill-rule="evenodd" clip-rule="evenodd" d="M45.5251 32.5251C46.1815 31.8687 47.0717 31.5 48 31.5H52C52.9283 31.5 53.8185 31.8687 54.4749 32.5251C55.1313 33.1815 55.5 34.0717 55.5 35V51C55.5 51.8284 54.8284 52.5 54 52.5C53.1716 52.5 52.5 51.8284 52.5 51V35C52.5 34.8674 52.4473 34.7402 52.3536 34.6464C52.2598 34.5527 52.1326 34.5 52 34.5H48C47.8674 34.5 47.7402 34.5527 47.6464 34.6464C47.5527 34.7402 47.5 34.8674 47.5 35V51C47.5 51.8284 46.8284 52.5 46 52.5C45.1716 52.5 44.5 51.8284 44.5 51V35C44.5 34.0717 44.8687 33.1815 45.5251 32.5251Z" fill="black"/>
<path fill-rule="evenodd" clip-rule="evenodd" d="M80 21H20C18.8954 21 18 21.8954 18 23V60C18 61.1046 18.8954 62 20 62H80C81.1046 62 82 61.1046 82 60V23C82 21.8954 81.1046 21 80 21ZM20 18C17.2386 18 15 20.2386 15 23V60C15 62.7614 17.2386 65 20 65H80C82.7614 65 85 62.7614 85 60V23C85 20.2386 82.7614 18 80 18H20Z" fill="black"/>
<path fill-rule="evenodd" clip-rule="evenodd" d="M62 66H38V72H62V66ZM35 63V75H65V63H35Z" fill="black"/>
<path fill-rule="evenodd" clip-rule="evenodd" d="M73 76H29C27.8954 76 27 76.8954 27 78C27 79.1046 27.8954 80 29 80H73C74.1046 80 75 79.1046 75 78C75 76.8954 74.1046 76 73 76ZM29 73C26.2386 73 24 75.2386 24 78C24 80.7614 26.2386 83 29 83H73C75.7614 83 78 80.7614 78 78C78 75.2386 75.7614 73 73 73H29Z" fill="black"/>
</svg>
