<svg width="100" height="100" viewBox="0 0 100 100" fill="none" xmlns="http://www.w3.org/2000/svg">
<rect width="100" height="100" fill="white"/>
<path fill-rule="evenodd" clip-rule="evenodd" d="M49 32.5C47.0109 32.5 45.1032 33.2902 43.6967 34.6967C42.2902 36.1032 41.5 38.0109 41.5 40C41.5 42.8971 43.3986 45.7814 45.5889 48.0934C46.6534 49.217 47.723 50.1386 48.5281 50.7797C48.6987 50.9155 48.8569 51.0384 49 51.1474C49.1431 51.0384 49.3013 50.9155 49.4719 50.7797C50.277 50.1386 51.3466 49.217 52.4111 48.0934C54.6014 45.7814 56.5 42.8971 56.5 40C56.5 38.0109 55.7098 36.1032 54.3033 34.6967C52.8968 33.2902 50.9891 32.5 49 32.5ZM49 53C48.1679 54.2481 48.1676 54.2478 48.1672 54.2476L48.1662 54.2469L48.1637 54.2452L48.1561 54.2401L48.1314 54.2234C48.1107 54.2094 48.0817 54.1895 48.0449 54.164C47.9713 54.1131 47.8665 54.0395 47.735 53.9445C47.4722 53.7547 47.1017 53.4788 46.6594 53.1265C45.777 52.4239 44.5966 51.408 43.4111 50.1566C41.1014 47.7186 38.5 44.1029 38.5 40C38.5 37.2152 39.6062 34.5445 41.5754 32.5754C43.5445 30.6062 46.2152 29.5 49 29.5C51.7848 29.5 54.4555 30.6062 56.4246 32.5754C58.3938 34.5445 59.5 37.2152 59.5 40C59.5 44.1029 56.8986 47.7186 54.5889 50.1566C53.4034 51.408 52.223 52.4239 51.3406 53.1265C50.8983 53.4788 50.5278 53.7547 50.265 53.9445C50.1335 54.0395 50.0287 54.1131 49.9551 54.164C49.9183 54.1895 49.8893 54.2094 49.8686 54.2234L49.8439 54.2401L49.8363 54.2452L49.8338 54.2469L49.8328 54.2476C49.8324 54.2478 49.8321 54.2481 49 53ZM49 53L49.8321 54.2481C49.3282 54.584 48.6718 54.584 48.1679 54.2481L49 53Z" fill="black"/>
<path fill-rule="evenodd" clip-rule="evenodd" d="M49 38.5C48.1716 38.5 47.5 39.1716 47.5 40C47.5 40.8284 48.1716 41.5 49 41.5C49.8284 41.5 50.5 40.8284 50.5 40C50.5 39.1716 49.8284 38.5 49 38.5ZM44.5 40C44.5 37.5147 46.5147 35.5 49 35.5C51.4853 35.5 53.5 37.5147 53.5 40C53.5 42.4853 51.4853 44.5 49 44.5C46.5147 44.5 44.5 42.4853 44.5 40Z" fill="black"/>
<path fill-rule="evenodd" clip-rule="evenodd" d="M80 21H20C18.8954 21 18 21.8954 18 23V60C18 61.1046 18.8954 62 20 62H80C81.1046 62 82 61.1046 82 60V23C82 21.8954 81.1046 21 80 21ZM20 18C17.2386 18 15 20.2386 15 23V60C15 62.7614 17.2386 65 20 65H80C82.7614 65 85 62.7614 85 60V23C85 20.2386 82.7614 18 80 18H20Z" fill="black"/>
<path fill-rule="evenodd" clip-rule="evenodd" d="M62 66H38V72H62V66ZM35 63V75H65V63H35Z" fill="black"/>
<path fill-rule="evenodd" clip-rule="evenodd" d="M73 76H29C27.8954 76 27 76.8954 27 78C27 79.1046 27.8954 80 29 80H73C74.1046 80 75 79.1046 75 78C75 76.8954 74.1046 76 73 76ZM29 73C26.2386 73 24 75.2386 24 78C24 80.7614 26.2386 83 29 83H73C75.7614 83 78 80.7614 78 78C78 75.2386 75.7614 73 73 73H29Z" fill="black"/>
</svg>
