<svg width="100" height="100" viewBox="0 0 100 100" fill="none" xmlns="http://www.w3.org/2000/svg">
<rect width="100" height="100" fill="white"/>
<path d="M63.3417 33H35.9022C34.3023 33 33 34.3006 33 35.9005V52.0978C33 53.6977 34.3023 55 35.9022 55H63.3418C64.9417 55 66.244 53.6977 66.244 52.0978V35.9005C66.2439 34.3006 64.9416 33 63.3417 33ZM35.9022 34.7119H63.3418C63.9988 34.7119 64.5321 35.2452 64.5321 35.9005V37.1944H34.7119V35.9005C34.7119 35.2452 35.2452 34.7119 35.9022 34.7119ZM64.532 38.9062V41.6445H34.7119V38.9062H64.532ZM63.3417 53.2881H35.9022C35.2452 53.2881 34.7119 52.7548 34.7119 52.0978V43.3565H64.5321V52.0978C64.532 52.7547 63.9987 53.2881 63.3417 53.2881Z" fill="black"/>
<path fill-rule="evenodd" clip-rule="evenodd" d="M80 24H20C18.8954 24 18 24.8954 18 26V63C18 64.1046 18.8954 65 20 65H80C81.1046 65 82 64.1046 82 63V26C82 24.8954 81.1046 24 80 24ZM20 21C17.2386 21 15 23.2386 15 26V63C15 65.7614 17.2386 68 20 68H80C82.7614 68 85 65.7614 85 63V26C85 23.2386 82.7614 21 80 21H20Z" fill="black"/>
<path fill-rule="evenodd" clip-rule="evenodd" d="M62 69H38V75H62V69ZM35 66V78H65V66H35Z" fill="black"/>
<path fill-rule="evenodd" clip-rule="evenodd" d="M73 79H29C27.8954 79 27 79.8954 27 81C27 82.1046 27.8954 83 29 83H73C74.1046 83 75 82.1046 75 81C75 79.8954 74.1046 79 73 79ZM29 76C26.2386 76 24 78.2386 24 81C24 83.7614 26.2386 86 29 86H73C75.7614 86 78 83.7614 78 81C78 78.2386 75.7614 76 73 76H29Z" fill="black"/>
</svg>
