<svg width="100" height="100" viewBox="0 0 100 100" fill="none" xmlns="http://www.w3.org/2000/svg">
<rect width="100" height="100" fill="white"/>
<path fill-rule="evenodd" clip-rule="evenodd" d="M45.2558 29.6976C45.6912 29.4488 46.2222 29.4341 46.6708 29.6584L53.9528 33.2993L60.2558 29.6976C60.72 29.4323 61.2904 29.4343 61.7529 29.7026C62.2154 29.971 62.5 30.4653 62.5 31V47C62.5 47.5383 62.2116 48.0353 61.7442 48.3024L54.7442 52.3024C54.3088 52.5512 53.7778 52.5659 53.3292 52.3416L46.0472 48.7007L39.7442 52.3024C39.28 52.5677 38.7096 52.5657 38.2471 52.2974C37.7846 52.029 37.5 51.5347 37.5 51V35C37.5 34.4617 37.7884 33.9647 38.2558 33.6976L45.2558 29.6976ZM46.0472 32.7007L40.5 35.8705V48.4152L45.2558 45.6976C45.6912 45.4488 46.2222 45.4341 46.6708 45.6584L53.9528 49.2993L59.5 46.1295V33.5848L54.7442 36.3024C54.3088 36.5512 53.7778 36.5659 53.3292 36.3416L46.0472 32.7007Z" fill="black"/>
<path fill-rule="evenodd" clip-rule="evenodd" d="M46 29.5C46.8284 29.5 47.5 30.1716 47.5 31V47C47.5 47.8284 46.8284 48.5 46 48.5C45.1716 48.5 44.5 47.8284 44.5 47V31C44.5 30.1716 45.1716 29.5 46 29.5Z" fill="black"/>
<path fill-rule="evenodd" clip-rule="evenodd" d="M54 33.5C54.8284 33.5 55.5 34.1716 55.5 35V51C55.5 51.8284 54.8284 52.5 54 52.5C53.1716 52.5 52.5 51.8284 52.5 51V35C52.5 34.1716 53.1716 33.5 54 33.5Z" fill="black"/>
<path fill-rule="evenodd" clip-rule="evenodd" d="M80 21H20C18.8954 21 18 21.8954 18 23V60C18 61.1046 18.8954 62 20 62H80C81.1046 62 82 61.1046 82 60V23C82 21.8954 81.1046 21 80 21ZM20 18C17.2386 18 15 20.2386 15 23V60C15 62.7614 17.2386 65 20 65H80C82.7614 65 85 62.7614 85 60V23C85 20.2386 82.7614 18 80 18H20Z" fill="black"/>
<path fill-rule="evenodd" clip-rule="evenodd" d="M62 66H38V72H62V66ZM35 63V75H65V63H35Z" fill="black"/>
<path fill-rule="evenodd" clip-rule="evenodd" d="M73 76H29C27.8954 76 27 76.8954 27 78C27 79.1046 27.8954 80 29 80H73C74.1046 80 75 79.1046 75 78C75 76.8954 74.1046 76 73 76ZM29 73C26.2386 73 24 75.2386 24 78C24 80.7614 26.2386 83 29 83H73C75.7614 83 78 80.7614 78 78C78 75.2386 75.7614 73 73 73H29Z" fill="black"/>
</svg>
