<svg width="100" height="100" viewBox="0 0 100 100" fill="none" xmlns="http://www.w3.org/2000/svg">
<rect width="100" height="100" fill="white"/>
<path fill-rule="evenodd" clip-rule="evenodd" d="M44.6968 32.6967C46.1033 31.2902 48.011 30.5 50.0001 30.5C51.9892 30.5 53.8969 31.2902 55.3034 32.6967C56.7099 34.1032 57.5001 36.0109 57.5001 38C57.5001 41.279 58.2007 43.2769 58.817 44.4067C59.1272 44.9754 59.4243 45.3396 59.6203 45.5465C59.7187 45.6504 59.7927 45.7157 59.8315 45.7481C59.845 45.7593 59.8543 45.7666 59.8589 45.7702C60.39 46.1409 60.6242 46.8124 60.4358 47.4347C60.2442 48.0673 59.6611 48.5 59.0001 48.5H41.0001C40.3391 48.5 39.756 48.0673 39.5645 47.4347C39.3761 46.8124 39.6102 46.1409 40.1413 45.7702C40.1459 45.7666 40.1552 45.7593 40.1687 45.7481C40.2076 45.7157 40.2815 45.6504 40.3799 45.5465C40.576 45.3396 40.8731 44.9754 41.1833 44.4067C41.7995 43.2769 42.5001 41.279 42.5001 38C42.5001 36.0109 43.2903 34.1032 44.6968 32.6967ZM40.166 45.7533C40.1661 45.7533 40.1661 45.7532 40.1661 45.7532C40.1661 45.7532 40.1661 45.7532 40.1661 45.7532L40.166 45.7533ZM43.9961 45.5H56.0042C55.1944 43.8767 54.5001 41.4677 54.5001 38C54.5001 36.8065 54.026 35.6619 53.1821 34.818C52.3382 33.9741 51.1936 33.5 50.0001 33.5C48.8066 33.5 47.6621 33.9741 46.8181 34.818C45.9742 35.6619 45.5001 36.8065 45.5001 38C45.5001 41.4677 44.8059 43.8767 43.9961 45.5Z" fill="black"/>
<path fill-rule="evenodd" clip-rule="evenodd" d="M47.5171 48.7025C48.2337 48.2868 49.1516 48.5308 49.5673 49.2473C49.6112 49.3231 49.6743 49.386 49.7502 49.4297C49.8261 49.4734 49.9122 49.4965 49.9998 49.4965C50.0874 49.4965 50.1734 49.4734 50.2493 49.4297C50.3252 49.386 50.3883 49.3231 50.4323 49.2473C50.848 48.5308 51.7658 48.2868 52.4824 48.7025C53.199 49.1182 53.443 50.0361 53.0273 50.7527C52.7196 51.283 52.278 51.7233 51.7467 52.0293C51.2153 52.3354 50.6129 52.4965 49.9998 52.4965C49.3866 52.4965 48.7842 52.3354 48.2529 52.0293C47.7216 51.7233 47.2799 51.283 46.9723 50.7527C46.5566 50.0361 46.8005 49.1182 47.5171 48.7025Z" fill="black"/>
<path fill-rule="evenodd" clip-rule="evenodd" d="M80 21H20C18.8954 21 18 21.8954 18 23V60C18 61.1046 18.8954 62 20 62H80C81.1046 62 82 61.1046 82 60V23C82 21.8954 81.1046 21 80 21ZM20 18C17.2386 18 15 20.2386 15 23V60C15 62.7614 17.2386 65 20 65H80C82.7614 65 85 62.7614 85 60V23C85 20.2386 82.7614 18 80 18H20Z" fill="black"/>
<path fill-rule="evenodd" clip-rule="evenodd" d="M62 66H38V72H62V66ZM35 63V75H65V63H35Z" fill="black"/>
<path fill-rule="evenodd" clip-rule="evenodd" d="M73 76H29C27.8954 76 27 76.8954 27 78C27 79.1046 27.8954 80 29 80H73C74.1046 80 75 79.1046 75 78C75 76.8954 74.1046 76 73 76ZM29 73C26.2386 73 24 75.2386 24 78C24 80.7614 26.2386 83 29 83H73C75.7614 83 78 80.7614 78 78C78 75.2386 75.7614 73 73 73H29Z" fill="black"/>
</svg>
