<svg width="100" height="100" viewBox="0 0 100 100" fill="none" xmlns="http://www.w3.org/2000/svg">
<rect width="100" height="100" fill="white"/>
<path fill-rule="evenodd" clip-rule="evenodd" d="M50 32.5C45.3056 32.5 41.5 36.3056 41.5 41C41.5 45.6944 45.3056 49.5 50 49.5C54.6944 49.5 58.5 45.6944 58.5 41C58.5 36.3056 54.6944 32.5 50 32.5ZM38.5 41C38.5 34.6487 43.6487 29.5 50 29.5C56.3513 29.5 61.5 34.6487 61.5 41C61.5 47.3513 56.3513 52.5 50 52.5C43.6487 52.5 38.5 47.3513 38.5 41Z" fill="black"/>
<path fill-rule="evenodd" clip-rule="evenodd" d="M38.5 41C38.5 40.1716 39.1716 39.5 40 39.5H60C60.8284 39.5 61.5 40.1716 61.5 41C61.5 41.8284 60.8284 42.5 60 42.5H40C39.1716 42.5 38.5 41.8284 38.5 41Z" fill="black"/>
<path fill-rule="evenodd" clip-rule="evenodd" d="M47.5004 41C47.5636 43.7399 48.4406 46.3852 50 48.6076C51.5594 46.3852 52.4364 43.7399 52.4996 41C52.4364 38.2601 51.5594 35.6148 50 33.3924C48.4406 35.6148 47.5636 38.2601 47.5004 41ZM50 31L48.8925 29.9884C46.146 32.9952 44.5851 36.8973 44.5003 40.9688C44.4999 40.9896 44.4999 41.0104 44.5003 41.0312C44.5851 45.1027 46.146 49.0048 48.8925 52.0116C49.1767 52.3228 49.5786 52.5 50 52.5C50.4214 52.5 50.8233 52.3228 51.1075 52.0116C53.854 49.0048 55.4149 45.1027 55.4997 41.0312C55.5001 41.0104 55.5001 40.9896 55.4997 40.9688C55.4149 36.8973 53.854 32.9952 51.1075 29.9884L50 31Z" fill="black"/>
<path fill-rule="evenodd" clip-rule="evenodd" d="M80 21H20C18.8954 21 18 21.8954 18 23V60C18 61.1046 18.8954 62 20 62H80C81.1046 62 82 61.1046 82 60V23C82 21.8954 81.1046 21 80 21ZM20 18C17.2386 18 15 20.2386 15 23V60C15 62.7614 17.2386 65 20 65H80C82.7614 65 85 62.7614 85 60V23C85 20.2386 82.7614 18 80 18H20Z" fill="black"/>
<path fill-rule="evenodd" clip-rule="evenodd" d="M62 66H38V72H62V66ZM35 63V75H65V63H35Z" fill="black"/>
<path fill-rule="evenodd" clip-rule="evenodd" d="M73 76H29C27.8954 76 27 76.8954 27 78C27 79.1046 27.8954 80 29 80H73C74.1046 80 75 79.1046 75 78C75 76.8954 74.1046 76 73 76ZM29 73C26.2386 73 24 75.2386 24 78C24 80.7614 26.2386 83 29 83H73C75.7614 83 78 80.7614 78 78C78 75.2386 75.7614 73 73 73H29Z" fill="black"/>
</svg>
