<svg width="100" height="100" viewBox="0 0 100 100" fill="none" xmlns="http://www.w3.org/2000/svg">
<rect width="100" height="100" fill="white"/>
<path d="M64.3927 33C62.4036 33 60.7856 34.6181 60.7856 36.6072C60.7856 37.5864 61.1789 38.4754 61.8153 39.126L54.8342 47.2127C54.265 46.8365 53.5838 46.6167 52.8522 46.6167C52.3359 46.6167 51.8451 46.7265 51.4006 46.9226L48.4205 43.88C48.6024 43.4496 48.7031 42.9769 48.7031 42.4812C48.7031 40.4921 47.085 38.8741 45.0975 38.8741C43.1085 38.8741 41.4903 40.4922 41.4903 42.4812C41.4903 43.1026 41.6486 43.688 41.9267 44.199L36.5264 48.9317C35.9701 48.5808 35.3122 48.3766 34.6072 48.3766C32.6181 48.3766 31 49.9948 31 51.9822C31 53.9713 32.6181 55.5895 34.6072 55.5895C36.5962 55.5895 38.2143 53.9714 38.2143 51.9822C38.2143 51.2647 38.0026 50.5958 37.6394 50.0333L42.952 45.3775C43.552 45.8228 44.2944 46.0867 45.0975 46.0867C46.0176 46.0867 46.8581 45.7395 47.496 45.1698L50.1308 47.8598C49.5798 48.4931 49.2451 49.3192 49.2451 50.2221C49.2451 52.2112 50.8632 53.8293 52.8523 53.8293C54.8398 53.8293 56.4579 52.2111 56.4579 50.2221C56.4579 49.5336 56.2634 48.8896 55.9271 48.3417L63.1389 39.9875C63.5297 40.1329 63.952 40.2126 64.3928 40.2126C66.3819 40.2126 68 38.5944 68 36.607C68 34.6181 66.3819 33 64.3927 33ZM34.607 54.0265C33.4804 54.0265 32.5629 53.1091 32.5629 51.9824C32.5629 50.8558 33.4804 49.9399 34.607 49.9399C35.7336 49.9399 36.651 50.8558 36.651 51.9824C36.651 53.1091 35.7336 54.0265 34.607 54.0265ZM45.0974 44.5238C43.9708 44.5238 43.0533 43.6079 43.0533 42.4813C43.0533 41.3547 43.9708 40.4373 45.0974 40.4373C46.224 40.4373 47.1399 41.3547 47.1399 42.4813C47.1399 43.6079 46.2239 44.5238 45.0974 44.5238ZM52.8522 52.2664C51.7256 52.2664 50.8081 51.349 50.8081 50.2224C50.8081 49.0958 51.7256 48.1799 52.8522 48.1799C53.9788 48.1799 54.8947 49.0958 54.8947 50.2224C54.8947 51.349 53.9788 52.2664 52.8522 52.2664ZM64.3927 38.6498C63.2661 38.6498 62.3487 37.7339 62.3487 36.6073C62.3487 35.4807 63.2661 34.5632 64.3927 34.5632C65.5193 34.5632 66.4368 35.4807 66.4368 36.6073C66.4368 37.7338 65.5193 38.6498 64.3927 38.6498Z" fill="black"/>
<path fill-rule="evenodd" clip-rule="evenodd" d="M80 24H20C18.8954 24 18 24.8954 18 26V63C18 64.1046 18.8954 65 20 65H80C81.1046 65 82 64.1046 82 63V26C82 24.8954 81.1046 24 80 24ZM20 21C17.2386 21 15 23.2386 15 26V63C15 65.7614 17.2386 68 20 68H80C82.7614 68 85 65.7614 85 63V26C85 23.2386 82.7614 21 80 21H20Z" fill="black"/>
<path fill-rule="evenodd" clip-rule="evenodd" d="M62 69H38V75H62V69ZM35 66V78H65V66H35Z" fill="black"/>
<path fill-rule="evenodd" clip-rule="evenodd" d="M73 79H29C27.8954 79 27 79.8954 27 81C27 82.1046 27.8954 83 29 83H73C74.1046 83 75 82.1046 75 81C75 79.8954 74.1046 79 73 79ZM29 76C26.2386 76 24 78.2386 24 81C24 83.7614 26.2386 86 29 86H73C75.7614 86 78 83.7614 78 81C78 78.2386 75.7614 76 73 76H29Z" fill="black"/>
</svg>
