<svg width="100" height="100" viewBox="0 0 100 100" fill="none" xmlns="http://www.w3.org/2000/svg">
<rect width="100" height="100" fill="white"/>
<path fill-rule="evenodd" clip-rule="evenodd" d="M50 33.5C45.3056 33.5 41.5 37.3056 41.5 42C41.5 46.6944 45.3056 50.5 50 50.5C54.6944 50.5 58.5 46.6944 58.5 42C58.5 37.3056 54.6944 33.5 50 33.5ZM38.5 42C38.5 35.6487 43.6487 30.5 50 30.5C56.3513 30.5 61.5 35.6487 61.5 42C61.5 48.3513 56.3513 53.5 50 53.5C43.6487 53.5 38.5 48.3513 38.5 42Z" fill="black"/>
<path fill-rule="evenodd" clip-rule="evenodd" d="M55.3005 36.6994C55.7022 37.1011 55.8425 37.6954 55.6628 38.2344L53.5428 44.5944C53.3935 45.0423 53.0421 45.3937 52.5941 45.543L46.2341 47.663C45.6951 47.8427 45.1009 47.7024 44.6991 47.3007C44.2974 46.8989 44.1571 46.3047 44.3368 45.7657L46.4568 39.4057C46.6061 38.9578 46.9576 38.6063 47.4055 38.457L53.7655 36.337C54.3045 36.1573 54.8987 36.2976 55.3005 36.6994ZM49.0657 41.0659L48.1315 43.8683L50.934 42.9342L51.8681 40.1317L49.0657 41.0659Z" fill="black"/>
<path fill-rule="evenodd" clip-rule="evenodd" d="M80 21H20C18.8954 21 18 21.8954 18 23V60C18 61.1046 18.8954 62 20 62H80C81.1046 62 82 61.1046 82 60V23C82 21.8954 81.1046 21 80 21ZM20 18C17.2386 18 15 20.2386 15 23V60C15 62.7614 17.2386 65 20 65H80C82.7614 65 85 62.7614 85 60V23C85 20.2386 82.7614 18 80 18H20Z" fill="black"/>
<path fill-rule="evenodd" clip-rule="evenodd" d="M62 66H38V72H62V66ZM35 63V75H65V63H35Z" fill="black"/>
<path fill-rule="evenodd" clip-rule="evenodd" d="M73 76H29C27.8954 76 27 76.8954 27 78C27 79.1046 27.8954 80 29 80H73C74.1046 80 75 79.1046 75 78C75 76.8954 74.1046 76 73 76ZM29 73C26.2386 73 24 75.2386 24 78C24 80.7614 26.2386 83 29 83H73C75.7614 83 78 80.7614 78 78C78 75.2386 75.7614 73 73 73H29Z" fill="black"/>
</svg>
