<svg width="100" height="100" viewBox="0 0 100 100" fill="none" xmlns="http://www.w3.org/2000/svg">
<rect width="100" height="100" fill="white"/>
<path fill-rule="evenodd" clip-rule="evenodd" d="M45.334 32.0417C45.334 31.4664 45.8004 31 46.3757 31H49.5007H52.6257C53.2009 31 53.6673 31.4664 53.6673 32.0417C53.6673 32.617 53.2009 33.0833 52.6257 33.0833H50.5423V35.1667C50.5423 35.1839 50.5419 35.201 50.5411 35.218C52.6366 35.4258 54.5495 36.2546 56.0931 37.5178L57.0974 36.5134C57.5042 36.1066 58.1638 36.1066 58.5706 36.5134C58.9774 36.9202 58.9774 37.5798 58.5706 37.9866L57.5662 38.9909C59.0357 40.7866 59.9173 43.082 59.9173 45.5833C59.9173 51.3363 55.2536 56 49.5007 56C43.7477 56 39.084 51.3363 39.084 45.5833C39.084 40.1815 43.1958 35.74 48.4602 35.218C48.4594 35.201 48.459 35.1839 48.459 35.1667V33.0833H46.3757C45.8004 33.0833 45.334 32.617 45.334 32.0417ZM49.5007 37.25C44.8983 37.25 41.1673 40.981 41.1673 45.5833C41.1673 50.1857 44.8983 53.9167 49.5007 53.9167C54.103 53.9167 57.834 50.1857 57.834 45.5833C57.834 40.981 54.103 37.25 49.5007 37.25ZM49.5007 41.4167C50.0759 41.4167 50.5423 41.883 50.5423 42.4583V45.5833H52.6257C53.2009 45.5833 53.6673 46.0497 53.6673 46.625C53.6673 47.2003 53.2009 47.6667 52.6257 47.6667H49.5007C48.9254 47.6667 48.459 47.2003 48.459 46.625V42.4583C48.459 41.883 48.9254 41.4167 49.5007 41.4167Z" fill="black"/>
<path fill-rule="evenodd" clip-rule="evenodd" d="M80 24H20C18.8954 24 18 24.8954 18 26V63C18 64.1046 18.8954 65 20 65H80C81.1046 65 82 64.1046 82 63V26C82 24.8954 81.1046 24 80 24ZM20 21C17.2386 21 15 23.2386 15 26V63C15 65.7614 17.2386 68 20 68H80C82.7614 68 85 65.7614 85 63V26C85 23.2386 82.7614 21 80 21H20Z" fill="black"/>
<path fill-rule="evenodd" clip-rule="evenodd" d="M62 69H38V75H62V69ZM35 66V78H65V66H35Z" fill="black"/>
<path fill-rule="evenodd" clip-rule="evenodd" d="M73 79H29C27.8954 79 27 79.8954 27 81C27 82.1046 27.8954 83 29 83H73C74.1046 83 75 82.1046 75 81C75 79.8954 74.1046 79 73 79ZM29 76C26.2386 76 24 78.2386 24 81C24 83.7614 26.2386 86 29 86H73C75.7614 86 78 83.7614 78 81C78 78.2386 75.7614 76 73 76H29Z" fill="black"/>
</svg>
