<svg width="100" height="100" viewBox="0 0 100 100" fill="none" xmlns="http://www.w3.org/2000/svg">
<rect width="100" height="100" fill="white"/>
<path fill-rule="evenodd" clip-rule="evenodd" d="M48.2533 30.9691C48.7846 30.6631 49.3869 30.5021 50 30.5021C50.6131 30.5021 51.2154 30.6631 51.7467 30.9691C51.7478 30.9697 51.7489 30.9704 51.75 30.971L58.7442 34.9677L58.75 34.971C59.2815 35.2779 59.723 35.7191 60.0302 36.2505C60.3374 36.7819 60.4994 37.3847 60.5 37.9985V46.0016C60.4994 46.6153 60.3373 47.2181 60.0302 47.7495C59.723 48.2809 59.2815 48.7222 58.75 49.0291L58.7442 49.0324L51.75 53.0291C51.7489 53.0297 51.7478 53.0303 51.7468 53.0309C51.2155 53.3369 50.6131 53.498 50 53.498C49.3869 53.498 48.7845 53.3369 48.2532 53.0309C48.2522 53.0303 48.2511 53.0297 48.25 53.0291L41.2558 49.0324L41.25 49.0291C40.7185 48.7222 40.277 48.2809 39.9698 47.7495C39.6627 47.2181 39.5006 46.6153 39.5 46.0016V37.9985C39.5006 37.3847 39.6626 36.7819 39.9698 36.2505C40.277 35.7191 40.7185 35.2779 41.25 34.971L41.2558 34.9676L48.2533 30.9691ZM50 33.5021C49.9122 33.5021 49.826 33.5252 49.75 33.5691L49.7442 33.5724L42.748 37.5702C42.673 37.614 42.6106 37.6766 42.5671 37.7519C42.5233 37.8276 42.5002 37.9135 42.5 38.001V45.999C42.5002 46.0865 42.5233 46.1724 42.5671 46.2482C42.6106 46.3235 42.673 46.3861 42.7481 46.4299C42.7487 46.4303 42.7494 46.4306 42.75 46.431L49.75 50.431C49.826 50.4749 49.9122 50.498 50 50.498C50.0878 50.498 50.174 50.4749 50.25 50.431L50.2558 50.4276L57.25 46.431C57.2506 46.4306 57.2512 46.4303 57.2519 46.4299C57.327 46.3861 57.3894 46.3235 57.4329 46.2482C57.4768 46.1723 57.4999 46.0862 57.5 45.9985V38.0016C57.4999 37.9139 57.4768 37.8278 57.4329 37.7519C57.3894 37.6766 57.327 37.614 57.252 37.5702C57.2513 37.5698 57.2507 37.5694 57.25 37.5691L50.25 33.5691C50.174 33.5252 50.0878 33.5021 50 33.5021Z" fill="black"/>
<path fill-rule="evenodd" clip-rule="evenodd" d="M44.2015 33.4596C44.6159 32.7422 45.5334 32.4967 46.2507 32.9112L50.0002 35.0776L53.7498 32.9112C54.4671 32.4967 55.3846 32.7422 55.799 33.4596C56.2135 34.1769 55.968 35.0943 55.2507 35.5088L50.7507 38.1088C50.2864 38.377 49.7141 38.377 49.2498 38.1088L44.7498 35.5088C44.0325 35.0943 43.787 34.1769 44.2015 33.4596Z" fill="black"/>
<path fill-rule="evenodd" clip-rule="evenodd" d="M39.7015 41.2496C40.1159 40.5323 41.0334 40.2868 41.7507 40.7012L46.2507 43.3012C46.7145 43.5692 47.0002 44.0643 47.0002 44.6V49.79C47.0002 50.6184 46.3287 51.29 45.5002 51.29C44.6718 51.29 44.0002 50.6184 44.0002 49.79V45.4657L40.2498 43.2988C39.5325 42.8844 39.287 41.9669 39.7015 41.2496Z" fill="black"/>
<path fill-rule="evenodd" clip-rule="evenodd" d="M60.2988 41.2496C60.7132 41.9669 60.4677 42.8844 59.7504 43.2988L56 45.4657V49.79C56 50.6184 55.3284 51.29 54.5 51.29C53.6716 51.29 53 50.6184 53 49.79V44.6C53 44.0643 53.2857 43.5692 53.7496 43.3012L58.2496 40.7012C58.9669 40.2868 59.8844 40.5323 60.2988 41.2496Z" fill="black"/>
<path fill-rule="evenodd" clip-rule="evenodd" d="M39.9714 36.2089C40.3862 35.4918 41.3038 35.2467 42.0209 35.6616L49.9998 40.2771L57.9787 35.6616C58.6958 35.2467 59.6134 35.4918 60.0282 36.2089C60.443 36.926 60.198 37.8436 59.4809 38.2584L50.7509 43.3084C50.2862 43.5772 49.7133 43.5772 49.2487 43.3084L40.5187 38.2584C39.8016 37.8436 39.5566 36.926 39.9714 36.2089Z" fill="black"/>
<path fill-rule="evenodd" clip-rule="evenodd" d="M50 40.5C50.8284 40.5 51.5 41.1716 51.5 42V52.08C51.5 52.9084 50.8284 53.58 50 53.58C49.1716 53.58 48.5 52.9084 48.5 52.08V42C48.5 41.1716 49.1716 40.5 50 40.5Z" fill="black"/>
<path fill-rule="evenodd" clip-rule="evenodd" d="M80 21H20C18.8954 21 18 21.8954 18 23V60C18 61.1046 18.8954 62 20 62H80C81.1046 62 82 61.1046 82 60V23C82 21.8954 81.1046 21 80 21ZM20 18C17.2386 18 15 20.2386 15 23V60C15 62.7614 17.2386 65 20 65H80C82.7614 65 85 62.7614 85 60V23C85 20.2386 82.7614 18 80 18H20Z" fill="black"/>
<path fill-rule="evenodd" clip-rule="evenodd" d="M62 66H38V72H62V66ZM35 63V75H65V63H35Z" fill="black"/>
<path fill-rule="evenodd" clip-rule="evenodd" d="M73 76H29C27.8954 76 27 76.8954 27 78C27 79.1046 27.8954 80 29 80H73C74.1046 80 75 79.1046 75 78C75 76.8954 74.1046 76 73 76ZM29 73C26.2386 73 24 75.2386 24 78C24 80.7614 26.2386 83 29 83H73C75.7614 83 78 80.7614 78 78C78 75.2386 75.7614 73 73 73H29Z" fill="black"/>
</svg>
