<svg width="100" height="100" viewBox="0 0 100 100" fill="none" xmlns="http://www.w3.org/2000/svg">
<rect width="100" height="100" fill="white"/>
<path fill-rule="evenodd" clip-rule="evenodd" d="M41.5251 31.5251C42.1815 30.8687 43.0717 30.5 44 30.5H52C52.3978 30.5 52.7794 30.658 53.0607 30.9393L59.0607 36.9393C59.342 37.2206 59.5 37.6022 59.5 38V50C59.5 50.9283 59.1313 51.8185 58.4749 52.4749C57.8185 53.1313 56.9283 53.5 56 53.5H44C43.0717 53.5 42.1815 53.1313 41.5251 52.4749C40.8687 51.8185 40.5 50.9283 40.5 50V34C40.5 33.0717 40.8687 32.1815 41.5251 31.5251ZM44 33.5C43.8674 33.5 43.7402 33.5527 43.6464 33.6464C43.5527 33.7402 43.5 33.8674 43.5 34V50C43.5 50.1326 43.5527 50.2598 43.6464 50.3536C43.7402 50.4473 43.8674 50.5 44 50.5H56C56.1326 50.5 56.2598 50.4473 56.3536 50.3536C56.4473 50.2598 56.5 50.1326 56.5 50V38.6213L51.3787 33.5H44Z" fill="black"/>
<path fill-rule="evenodd" clip-rule="evenodd" d="M52 30.5C52.8284 30.5 53.5 31.1716 53.5 32V36.5H58C58.8284 36.5 59.5 37.1716 59.5 38C59.5 38.8284 58.8284 39.5 58 39.5H52C51.1716 39.5 50.5 38.8284 50.5 38V32C50.5 31.1716 51.1716 30.5 52 30.5Z" fill="black"/>
<path fill-rule="evenodd" clip-rule="evenodd" d="M44.5 43C44.5 42.1716 45.1716 41.5 46 41.5H54C54.8284 41.5 55.5 42.1716 55.5 43C55.5 43.8284 54.8284 44.5 54 44.5H46C45.1716 44.5 44.5 43.8284 44.5 43Z" fill="black"/>
<path fill-rule="evenodd" clip-rule="evenodd" d="M44.5 47C44.5 46.1716 45.1716 45.5 46 45.5H54C54.8284 45.5 55.5 46.1716 55.5 47C55.5 47.8284 54.8284 48.5 54 48.5H46C45.1716 48.5 44.5 47.8284 44.5 47Z" fill="black"/>
<path fill-rule="evenodd" clip-rule="evenodd" d="M44.5 39C44.5 38.1716 45.1716 37.5 46 37.5H48C48.8284 37.5 49.5 38.1716 49.5 39C49.5 39.8284 48.8284 40.5 48 40.5H46C45.1716 40.5 44.5 39.8284 44.5 39Z" fill="black"/>
<path fill-rule="evenodd" clip-rule="evenodd" d="M80 21H20C18.8954 21 18 21.8954 18 23V60C18 61.1046 18.8954 62 20 62H80C81.1046 62 82 61.1046 82 60V23C82 21.8954 81.1046 21 80 21ZM20 18C17.2386 18 15 20.2386 15 23V60C15 62.7614 17.2386 65 20 65H80C82.7614 65 85 62.7614 85 60V23C85 20.2386 82.7614 18 80 18H20Z" fill="black"/>
<path fill-rule="evenodd" clip-rule="evenodd" d="M62 66H38V72H62V66ZM35 63V75H65V63H35Z" fill="black"/>
<path fill-rule="evenodd" clip-rule="evenodd" d="M73 76H29C27.8954 76 27 76.8954 27 78C27 79.1046 27.8954 80 29 80H73C74.1046 80 75 79.1046 75 78C75 76.8954 74.1046 76 73 76ZM29 73C26.2386 73 24 75.2386 24 78C24 80.7614 26.2386 83 29 83H73C75.7614 83 78 80.7614 78 78C78 75.2386 75.7614 73 73 73H29Z" fill="black"/>
</svg>
