<svg width="100" height="100" viewBox="0 0 100 100" fill="none" xmlns="http://www.w3.org/2000/svg">
<rect width="100" height="100" fill="white"/>
<path fill-rule="evenodd" clip-rule="evenodd" d="M44 34.5C43.7239 34.5 43.5 34.7239 43.5 35V47C43.5 47.2761 43.7239 47.5 44 47.5H56C56.2761 47.5 56.5 47.2761 56.5 47V35C56.5 34.7239 56.2761 34.5 56 34.5H44ZM40.5 35C40.5 33.067 42.067 31.5 44 31.5H56C57.933 31.5 59.5 33.067 59.5 35V47C59.5 48.933 57.933 50.5 56 50.5H44C42.067 50.5 40.5 48.933 40.5 47V35Z" fill="black"/>
<path fill-rule="evenodd" clip-rule="evenodd" d="M45.5 38C45.5 37.1716 46.1716 36.5 47 36.5H53C53.8284 36.5 54.5 37.1716 54.5 38V44C54.5 44.8284 53.8284 45.5 53 45.5H47C46.1716 45.5 45.5 44.8284 45.5 44V38ZM48.5 39.5V42.5H51.5V39.5H48.5Z" fill="black"/>
<path fill-rule="evenodd" clip-rule="evenodd" d="M47 28.5C47.8284 28.5 48.5 29.1716 48.5 30V33C48.5 33.8284 47.8284 34.5 47 34.5C46.1716 34.5 45.5 33.8284 45.5 33V30C45.5 29.1716 46.1716 28.5 47 28.5Z" fill="black"/>
<path fill-rule="evenodd" clip-rule="evenodd" d="M53 28.5C53.8284 28.5 54.5 29.1716 54.5 30V33C54.5 33.8284 53.8284 34.5 53 34.5C52.1716 34.5 51.5 33.8284 51.5 33V30C51.5 29.1716 52.1716 28.5 53 28.5Z" fill="black"/>
<path fill-rule="evenodd" clip-rule="evenodd" d="M47 47.5C47.8284 47.5 48.5 48.1716 48.5 49V52C48.5 52.8284 47.8284 53.5 47 53.5C46.1716 53.5 45.5 52.8284 45.5 52V49C45.5 48.1716 46.1716 47.5 47 47.5Z" fill="black"/>
<path fill-rule="evenodd" clip-rule="evenodd" d="M53 47.5C53.8284 47.5 54.5 48.1716 54.5 49V52C54.5 52.8284 53.8284 53.5 53 53.5C52.1716 53.5 51.5 52.8284 51.5 52V49C51.5 48.1716 52.1716 47.5 53 47.5Z" fill="black"/>
<path fill-rule="evenodd" clip-rule="evenodd" d="M56.5 38C56.5 37.1716 57.1716 36.5 58 36.5H61C61.8284 36.5 62.5 37.1716 62.5 38C62.5 38.8284 61.8284 39.5 61 39.5H58C57.1716 39.5 56.5 38.8284 56.5 38Z" fill="black"/>
<path fill-rule="evenodd" clip-rule="evenodd" d="M56.5 43C56.5 42.1716 57.1716 41.5 58 41.5H61C61.8284 41.5 62.5 42.1716 62.5 43C62.5 43.8284 61.8284 44.5 61 44.5H58C57.1716 44.5 56.5 43.8284 56.5 43Z" fill="black"/>
<path fill-rule="evenodd" clip-rule="evenodd" d="M37.5 38C37.5 37.1716 38.1716 36.5 39 36.5H42C42.8284 36.5 43.5 37.1716 43.5 38C43.5 38.8284 42.8284 39.5 42 39.5H39C38.1716 39.5 37.5 38.8284 37.5 38Z" fill="black"/>
<path fill-rule="evenodd" clip-rule="evenodd" d="M37.5 43C37.5 42.1716 38.1716 41.5 39 41.5H42C42.8284 41.5 43.5 42.1716 43.5 43C43.5 43.8284 42.8284 44.5 42 44.5H39C38.1716 44.5 37.5 43.8284 37.5 43Z" fill="black"/>
<path fill-rule="evenodd" clip-rule="evenodd" d="M80 21H20C18.8954 21 18 21.8954 18 23V60C18 61.1046 18.8954 62 20 62H80C81.1046 62 82 61.1046 82 60V23C82 21.8954 81.1046 21 80 21ZM20 18C17.2386 18 15 20.2386 15 23V60C15 62.7614 17.2386 65 20 65H80C82.7614 65 85 62.7614 85 60V23C85 20.2386 82.7614 18 80 18H20Z" fill="black"/>
<path fill-rule="evenodd" clip-rule="evenodd" d="M62 66H38V72H62V66ZM35 63V75H65V63H35Z" fill="black"/>
<path fill-rule="evenodd" clip-rule="evenodd" d="M73 76H29C27.8954 76 27 76.8954 27 78C27 79.1046 27.8954 80 29 80H73C74.1046 80 75 79.1046 75 78C75 76.8954 74.1046 76 73 76ZM29 73C26.2386 73 24 75.2386 24 78C24 80.7614 26.2386 83 29 83H73C75.7614 83 78 80.7614 78 78C78 75.2386 75.7614 73 73 73H29Z" fill="black"/>
</svg>
