<svg width="100" height="100" viewBox="0 0 100 100" fill="none" xmlns="http://www.w3.org/2000/svg">
<rect width="100" height="100" fill="white"/>
<path fill-rule="evenodd" clip-rule="evenodd" d="M42.166 26.6667C42.166 25.5621 43.0614 24.6667 44.166 24.6667H70.416C71.5206 24.6667 72.416 25.5621 72.416 26.6667C72.416 27.7712 71.5206 28.6667 70.416 28.6667H44.166C43.0614 28.6667 42.166 27.7712 42.166 26.6667Z" fill="black"/>
<path fill-rule="evenodd" clip-rule="evenodd" d="M27.584 73.3333C27.584 72.2288 28.4794 71.3333 29.584 71.3333H55.834C56.9386 71.3333 57.834 72.2288 57.834 73.3333C57.834 74.4379 56.9386 75.3333 55.834 75.3333H29.584C28.4794 75.3333 27.584 74.4379 27.584 73.3333Z" fill="black"/>
<path fill-rule="evenodd" clip-rule="evenodd" d="M59.4528 24.794C60.487 25.1818 61.011 26.3347 60.6232 27.3689L43.1232 74.0356C42.7354 75.0698 41.5825 75.5938 40.5483 75.206C39.5141 74.8181 38.99 73.6653 39.3779 72.6311L56.8779 25.9644C57.2657 24.9302 58.4185 24.4062 59.4528 24.794Z" fill="black"/>
</svg>
