<svg width="100" height="100" viewBox="0 0 100 100" fill="none" xmlns="http://www.w3.org/2000/svg">
<rect width="100" height="100" fill="white"/>
<path fill-rule="evenodd" clip-rule="evenodd" d="M50.0015 20.8457C50.5322 20.8455 51.0413 21.0562 51.4166 21.4315L67.9244 37.9394C71.469 41.4816 73.8834 45.9956 74.8623 50.9102C75.8411 55.8249 75.3404 60.9194 73.4235 65.5494C71.5065 70.1795 68.2595 74.137 64.0931 76.9214C59.9267 79.7058 55.0281 81.1919 50.0169 81.1919C45.0058 81.1919 40.1072 79.7058 35.9408 76.9214C31.7744 74.137 28.5273 70.1795 26.6104 65.5494C24.6935 60.9194 24.1928 55.8249 25.1716 50.9102C26.1503 45.9961 28.5644 41.4826 32.1084 37.9405C32.1087 37.9401 32.1091 37.9397 32.1094 37.9394L48.5869 21.4328C48.9619 21.0571 49.4707 20.846 50.0015 20.8457Z" fill="black"/>
</svg>
