<svg width="100" height="100" viewBox="0 0 100 100" fill="none" xmlns="http://www.w3.org/2000/svg">
<rect width="100" height="100" fill="white"/>
<path fill-rule="evenodd" clip-rule="evenodd" d="M60.2518 31.0858C61.0329 30.3047 62.2992 30.3047 63.0802 31.0858L80.5802 48.5858C80.9553 48.9609 81.166 49.4696 81.166 50C81.166 50.5304 80.9553 51.0391 80.5802 51.4142L63.0802 68.9142C62.2992 69.6953 61.0329 69.6953 60.2518 68.9142C59.4708 68.1332 59.4708 66.8668 60.2518 66.0858L76.3376 50L60.2518 33.9142C59.4708 33.1332 59.4708 31.8668 60.2518 31.0858Z" fill="black"/>
<path fill-rule="evenodd" clip-rule="evenodd" d="M39.7482 31.0858C40.5292 31.8668 40.5292 33.1332 39.7482 33.9142L23.6624 50L39.7482 66.0858C40.5292 66.8668 40.5292 68.1332 39.7482 68.9142C38.9671 69.6953 37.7008 69.6953 36.9198 68.9142L19.4198 51.4142C18.6387 50.6332 18.6387 49.3668 19.4198 48.5858L36.9198 31.0858C37.7008 30.3047 38.9671 30.3047 39.7482 31.0858Z" fill="black"/>
</svg>
