<svg width="100" height="100" viewBox="0 0 100 100" fill="none" xmlns="http://www.w3.org/2000/svg">
<rect width="100" height="100" fill="white"/>
<path fill-rule="evenodd" clip-rule="evenodd" d="M49.9993 37.4167C43.0498 37.4167 37.416 43.0504 37.416 50C37.416 56.9496 43.0498 62.5833 49.9993 62.5833C56.9489 62.5833 62.5827 56.9496 62.5827 50C62.5827 43.0504 56.9489 37.4167 49.9993 37.4167ZM33.416 50C33.416 40.8413 40.8406 33.4167 49.9993 33.4167C59.1581 33.4167 66.5827 40.8413 66.5827 50C66.5827 59.1587 59.1581 66.5833 49.9993 66.5833C40.8406 66.5833 33.416 59.1587 33.416 50Z" fill="black"/>
<path fill-rule="evenodd" clip-rule="evenodd" d="M50 15.9167C51.1046 15.9167 52 16.8121 52 17.9167V23.75C52 24.8546 51.1046 25.75 50 25.75C48.8954 25.75 48 24.8546 48 23.75V17.9167C48 16.8121 48.8954 15.9167 50 15.9167Z" fill="black"/>
<path fill-rule="evenodd" clip-rule="evenodd" d="M50 74.25C51.1046 74.25 52 75.1454 52 76.25V82.0833C52 83.1879 51.1046 84.0833 50 84.0833C48.8954 84.0833 48 83.1879 48 82.0833V76.25C48 75.1454 48.8954 74.25 50 74.25Z" fill="black"/>
<path fill-rule="evenodd" clip-rule="evenodd" d="M25.8963 25.8941C26.6774 25.113 27.9437 25.113 28.7248 25.8941L32.8664 30.0357C33.6475 30.8168 33.6475 32.0831 32.8664 32.8642C32.0854 33.6452 30.819 33.6452 30.038 32.8642L25.8963 28.7225C25.1153 27.9414 25.1153 26.6751 25.8963 25.8941Z" fill="black"/>
<path fill-rule="evenodd" clip-rule="evenodd" d="M67.1346 67.1358C67.9157 66.3547 69.182 66.3547 69.963 67.1358L74.1047 71.2774C74.8858 72.0585 74.8858 73.3248 74.1047 74.1059C73.3237 74.8869 72.0573 74.8869 71.2763 74.1059L67.1346 69.9642C66.3536 69.1831 66.3536 67.9168 67.1346 67.1358Z" fill="black"/>
<path fill-rule="evenodd" clip-rule="evenodd" d="M15.916 50C15.916 48.8954 16.8114 48 17.916 48H23.7493C24.8539 48 25.7493 48.8954 25.7493 50C25.7493 51.1046 24.8539 52 23.7493 52H17.916C16.8114 52 15.916 51.1046 15.916 50Z" fill="black"/>
<path fill-rule="evenodd" clip-rule="evenodd" d="M74.25 50C74.25 48.8954 75.1454 48 76.25 48H82.0833C83.1879 48 84.0833 48.8954 84.0833 50C84.0833 51.1046 83.1879 52 82.0833 52H76.25C75.1454 52 74.25 51.1046 74.25 50Z" fill="black"/>
<path fill-rule="evenodd" clip-rule="evenodd" d="M32.8664 67.1358C33.6475 67.9168 33.6475 69.1831 32.8664 69.9642L28.7248 74.1059C27.9437 74.8869 26.6774 74.8869 25.8963 74.1059C25.1153 73.3248 25.1153 72.0585 25.8963 71.2774L30.038 67.1358C30.819 66.3547 32.0854 66.3547 32.8664 67.1358Z" fill="black"/>
<path fill-rule="evenodd" clip-rule="evenodd" d="M74.1047 25.8941C74.8858 26.6751 74.8858 27.9414 74.1047 28.7225L69.963 32.8642C69.182 33.6452 67.9157 33.6452 67.1346 32.8642C66.3536 32.0831 66.3536 30.8168 67.1346 30.0357L71.2763 25.8941C72.0573 25.113 73.3237 25.113 74.1047 25.8941Z" fill="black"/>
</svg>
