<svg width="100" height="100" viewBox="0 0 100 100" fill="none" xmlns="http://www.w3.org/2000/svg">
<rect width="100" height="100" fill="white"/>
<path fill-rule="evenodd" clip-rule="evenodd" d="M26.666 53.8333C27.7706 53.8333 28.666 54.7288 28.666 55.8333V76.25C28.666 77.3546 27.7706 78.25 26.666 78.25C25.5614 78.25 24.666 77.3546 24.666 76.25V55.8333C24.666 54.7288 25.5614 53.8333 26.666 53.8333Z" fill="black"/>
<path fill-rule="evenodd" clip-rule="evenodd" d="M26.666 21.75C27.7706 21.75 28.666 22.6454 28.666 23.75V44.1667C28.666 45.2712 27.7706 46.1667 26.666 46.1667C25.5614 46.1667 24.666 45.2712 24.666 44.1667V23.75C24.666 22.6454 25.5614 21.75 26.666 21.75Z" fill="black"/>
<path fill-rule="evenodd" clip-rule="evenodd" d="M50 48C51.1046 48 52 48.8954 52 50V76.25C52 77.3546 51.1046 78.25 50 78.25C48.8954 78.25 48 77.3546 48 76.25V50C48 48.8954 48.8954 48 50 48Z" fill="black"/>
<path fill-rule="evenodd" clip-rule="evenodd" d="M50 21.75C51.1046 21.75 52 22.6454 52 23.75V38.3333C52 39.4379 51.1046 40.3333 50 40.3333C48.8954 40.3333 48 39.4379 48 38.3333V23.75C48 22.6454 48.8954 21.75 50 21.75Z" fill="black"/>
<path fill-rule="evenodd" clip-rule="evenodd" d="M73.334 59.6667C74.4386 59.6667 75.334 60.5621 75.334 61.6667V76.25C75.334 77.3546 74.4386 78.25 73.334 78.25C72.2294 78.25 71.334 77.3546 71.334 76.25V61.6667C71.334 60.5621 72.2294 59.6667 73.334 59.6667Z" fill="black"/>
<path fill-rule="evenodd" clip-rule="evenodd" d="M73.334 21.75C74.4386 21.75 75.334 22.6454 75.334 23.75V50C75.334 51.1046 74.4386 52 73.334 52C72.2294 52 71.334 51.1046 71.334 50V23.75C71.334 22.6454 72.2294 21.75 73.334 21.75Z" fill="black"/>
<path fill-rule="evenodd" clip-rule="evenodd" d="M15.916 55.8333C15.916 54.7288 16.8114 53.8333 17.916 53.8333H35.416C36.5206 53.8333 37.416 54.7288 37.416 55.8333C37.416 56.9379 36.5206 57.8333 35.416 57.8333H17.916C16.8114 57.8333 15.916 56.9379 15.916 55.8333Z" fill="black"/>
<path fill-rule="evenodd" clip-rule="evenodd" d="M39.25 38.3333C39.25 37.2288 40.1454 36.3333 41.25 36.3333H58.75C59.8546 36.3333 60.75 37.2288 60.75 38.3333C60.75 39.4379 59.8546 40.3333 58.75 40.3333H41.25C40.1454 40.3333 39.25 39.4379 39.25 38.3333Z" fill="black"/>
<path fill-rule="evenodd" clip-rule="evenodd" d="M62.584 61.6667C62.584 60.5621 63.4794 59.6667 64.584 59.6667H82.084C83.1886 59.6667 84.084 60.5621 84.084 61.6667C84.084 62.7712 83.1886 63.6667 82.084 63.6667H64.584C63.4794 63.6667 62.584 62.7712 62.584 61.6667Z" fill="black"/>
</svg>
