<svg width="100" height="100" viewBox="0 0 100 100" fill="none" xmlns="http://www.w3.org/2000/svg">
<rect width="100" height="100" fill="white"/>
<path fill-rule="evenodd" clip-rule="evenodd" d="M32.8965 15.9167C34.001 15.9263 34.8887 16.8295 34.8791 17.934L34.5 61.6744C34.5021 62.6883 34.9057 63.6602 35.6228 64.3772C36.3416 65.0961 37.3167 65.5 38.3333 65.5H82.0833C83.1879 65.5 84.0833 66.3954 84.0833 67.5C84.0833 68.6046 83.1879 69.5 82.0833 69.5H38.3333C36.2558 69.5 34.2634 68.6747 32.7943 67.2057C31.3253 65.7366 30.5 63.7442 30.5 61.6667L30.5001 61.6493L30.8792 17.8993C30.8888 16.7948 31.792 15.9072 32.8965 15.9167Z" fill="black"/>
<path fill-rule="evenodd" clip-rule="evenodd" d="M61.6487 30.5001L61.666 30.5C63.7435 30.5 65.736 31.3253 67.205 32.7943C68.674 34.2634 69.4993 36.2558 69.4993 38.3333V82.0833C69.4993 83.1879 68.6039 84.0833 67.4993 84.0833C66.3948 84.0833 65.4993 83.1879 65.4993 82.0833V38.3333C65.4993 37.3167 65.0955 36.3416 64.3766 35.6228C63.6595 34.9057 62.6876 34.5021 61.6738 34.5L17.9333 34.8791C16.8288 34.8887 15.9257 34.001 15.9161 32.8965C15.9065 31.792 16.7942 30.8888 17.8987 30.8792L61.6487 30.5001Z" fill="black"/>
</svg>
