<svg width="100" height="100" viewBox="0 0 100 100" fill="none" xmlns="http://www.w3.org/2000/svg">
<rect width="100" height="100" fill="white"/>
<path fill-rule="evenodd" clip-rule="evenodd" d="M70.4174 23.3339C69.5967 23.3339 68.784 23.4955 68.0258 23.8096C67.2675 24.1237 66.5786 24.584 65.9982 25.1643L26.9988 64.1638L23.6845 76.3163L35.837 73.002L74.8365 34.0026C75.4168 33.4222 75.8772 32.7333 76.1912 31.9751C76.5053 31.2168 76.6669 30.4042 76.6669 29.5834C76.6669 28.7627 76.5053 27.9501 76.1912 27.1918C75.8772 26.4336 75.4168 25.7447 74.8365 25.1643C74.2562 24.584 73.5672 24.1237 72.809 23.8096C72.0507 23.4955 71.2381 23.3339 70.4174 23.3339ZM66.495 20.1141C67.7386 19.599 69.0714 19.3339 70.4174 19.3339C71.7634 19.3339 73.0962 19.599 74.3397 20.1141C75.5832 20.6292 76.7132 21.3841 77.6649 22.3359C78.6167 23.2877 79.3717 24.4176 79.8867 25.6611C80.4018 26.9046 80.6669 28.2375 80.6669 29.5834C80.6669 30.9294 80.4018 32.2622 79.8867 33.5058C79.3717 34.7493 78.6167 35.8792 77.6649 36.831L38.2899 76.206C38.0438 76.4521 37.7377 76.6297 37.4019 76.7213L21.3603 81.0963C20.6678 81.2851 19.9273 81.0885 19.4198 80.581C18.9123 80.0735 18.7157 79.333 18.9045 78.6405L23.2795 62.5989C23.3711 62.2631 23.5487 61.957 23.7948 61.7109L63.1698 22.3359C64.1216 21.3841 65.2515 20.6292 66.495 20.1141Z" fill="black"/>
</svg>
