<svg width="100" height="100" viewBox="0 0 100 100" fill="none" xmlns="http://www.w3.org/2000/svg">
<rect width="100" height="100" fill="white"/>
<path fill-rule="evenodd" clip-rule="evenodd" d="M30 8.5C28.6193 8.5 27.5 9.61929 27.5 11V89C27.5 90.3807 28.6193 91.5 30 91.5H70C71.3807 91.5 72.5 90.3807 72.5 89V11C72.5 9.61929 71.3807 8.5 70 8.5H30ZM24.5 11C24.5 7.96243 26.9624 5.5 30 5.5H70C73.0376 5.5 75.5 7.96244 75.5 11V89C75.5 92.0376 73.0376 94.5 70 94.5H30C26.9624 94.5 24.5 92.0376 24.5 89V11Z" fill="black"/>
<path fill-rule="evenodd" clip-rule="evenodd" d="M74 17.5H26.5V14.5H74V17.5Z" fill="black"/>
<path fill-rule="evenodd" clip-rule="evenodd" d="M74 80.5H26.5V77.5H74V80.5Z" fill="black"/>
<path fill-rule="evenodd" clip-rule="evenodd" d="M50.5 87C51.3284 87 52 86.3284 52 85.5C52 84.6716 51.3284 84 50.5 84C49.6716 84 49 84.6716 49 85.5C49 86.3284 49.6716 87 50.5 87ZM50.5 90C52.9853 90 55 87.9853 55 85.5C55 83.0147 52.9853 81 50.5 81C48.0147 81 46 83.0147 46 85.5C46 87.9853 48.0147 90 50.5 90Z" fill="black"/>
<path fill-rule="evenodd" clip-rule="evenodd" d="M49.649 38.4953C50.2495 37.7154 51.4255 37.7154 52.026 38.4953L53.1373 39.9386L53.9731 38.6723C54.566 37.774 55.884 37.774 56.4769 38.6723L57.25 39.8436L58.0544 38.6248C58.6217 37.7653 59.8665 37.72 60.4948 38.5359L61.6375 40.0199L62.3115 39.1446C63.1851 38.0101 65 38.6278 65 40.0598V68.2727C65 69.3772 64.1046 70.2727 63 70.2727H38C36.8954 70.2727 36 69.3772 36 68.2727V39.8066C36 38.4666 37.6232 37.799 38.566 38.7513L39.8815 40.0801L40.8106 38.6723C41.4035 37.774 42.7215 37.774 43.3144 38.6723L44.1502 39.9386L45.2302 38.5359C45.8585 37.72 47.1033 37.7653 47.6706 38.6248L48.5377 39.9386L49.649 38.4953ZM50.8375 40.2299L49.6948 41.7139C49.0665 42.5299 47.8217 42.4846 47.2544 41.6251L46.3873 40.3113L45.3073 41.7139C44.679 42.5299 43.4342 42.4846 42.8669 41.6251L42.0625 40.4063L41.2114 41.6958C40.6867 42.4908 39.5636 42.6017 38.8935 41.9249L38 41.0223V68.2727H63V41.5286L62.826 41.7546C62.2255 42.5344 61.0495 42.5344 60.449 41.7546L59.3377 40.3113L58.5019 41.5776C57.909 42.4759 56.591 42.4759 55.9981 41.5776L55.225 40.4063L54.4206 41.6251C53.8533 42.4846 52.6085 42.5299 51.9802 41.7139L50.8375 40.2299Z" fill="black"/>
<path d="M44.9773 46.5681C44.9773 47.2459 44.4278 47.7954 43.75 47.7954C43.0722 47.7954 42.5227 47.2459 42.5227 46.5681C42.5227 45.8903 43.0722 45.3408 43.75 45.3408C44.4278 45.3408 44.9773 45.8903 44.9773 46.5681Z" fill="black"/>
<path d="M59.0909 46.5681C59.0909 47.2459 58.5414 47.7954 57.8636 47.7954C57.1858 47.7954 56.6364 47.2459 56.6364 46.5681C56.6364 45.8903 57.1858 45.3408 57.8636 45.3408C58.5414 45.3408 59.0909 45.8903 59.0909 46.5681Z" fill="black"/>
<path fill-rule="evenodd" clip-rule="evenodd" d="M50.8068 31C47.4617 31 44.75 33.7117 44.75 37.0568V45.9545H42.75V37.0568C42.75 32.6072 46.3572 29 50.8068 29C55.2565 29 58.8636 32.6072 58.8636 37.0568V45.9545H56.8636V37.0568C56.8636 33.7117 54.1519 31 50.8068 31Z" fill="black"/>
</svg>
