<svg width="100" height="100" viewBox="0 0 100 100" fill="none" xmlns="http://www.w3.org/2000/svg">
<rect width="100" height="100" fill="white"/>
<path fill-rule="evenodd" clip-rule="evenodd" d="M8.5 30C8.5 29.1716 9.17157 28.5 10 28.5H31.1712L33.6712 38.5H89.0905C90.8126 38.5 92.0191 40.2004 91.4502 41.8259L81.6502 69.8259C81.2992 70.8286 80.3529 71.5 79.2905 71.5H40.7808C39.6336 71.5 38.6336 70.7193 38.3554 69.6063L28.8288 31.5H10C9.17157 31.5 8.5 30.8284 8.5 30ZM34.4212 41.5L41.1712 68.5H78.9358L88.3858 41.5H34.4212Z" fill="black"/>
<path fill-rule="evenodd" clip-rule="evenodd" d="M45.5 82C47.433 82 49 80.433 49 78.5C49 76.567 47.433 75 45.5 75C43.567 75 42 76.567 42 78.5C42 80.433 43.567 82 45.5 82ZM45.5 85C49.0899 85 52 82.0899 52 78.5C52 74.9101 49.0899 72 45.5 72C41.9101 72 39 74.9101 39 78.5C39 82.0899 41.9101 85 45.5 85Z" fill="black"/>
<path fill-rule="evenodd" clip-rule="evenodd" d="M75.5 82C77.433 82 79 80.433 79 78.5C79 76.567 77.433 75 75.5 75C73.567 75 72 76.567 72 78.5C72 80.433 73.567 82 75.5 82ZM75.5 85C79.0899 85 82 82.0899 82 78.5C82 74.9101 79.0899 72 75.5 72C71.9101 72 69 74.9101 69 78.5C69 82.0899 71.9101 85 75.5 85Z" fill="black"/>
<path fill-rule="evenodd" clip-rule="evenodd" d="M47 50.5C47 49.6716 47.6716 49 48.5 49H74.5C75.3284 49 76 49.6716 76 50.5C76 51.3284 75.3284 52 74.5 52H48.5C47.6716 52 47 51.3284 47 50.5Z" fill="black"/>
<path fill-rule="evenodd" clip-rule="evenodd" d="M47 58.5C47 57.6716 47.6716 57 48.5 57H74.5C75.3284 57 76 57.6716 76 58.5C76 59.3284 75.3284 60 74.5 60H48.5C47.6716 60 47 59.3284 47 58.5Z" fill="black"/>
</svg>
