<svg width="100" height="100" viewBox="0 0 100 100" fill="none" xmlns="http://www.w3.org/2000/svg">
<rect width="100" height="100" fill="white"/>
<path fill-rule="evenodd" clip-rule="evenodd" d="M24 31V86H67V31H24ZM22 28C21.4477 28 21 28.4477 21 29V88C21 88.5523 21.4477 89 22 89H69C69.5523 89 70 88.5523 70 88V29C70 28.4477 69.5523 28 69 28H22Z" fill="black"/>
<path d="M28 23C28 22.4477 28.4477 22 29 22H46H63C63.5523 22 64 22.4477 64 23V42.1535C64 42.9477 63.1187 43.425 62.4536 42.991L46.0179 32.2676C45.6773 32.0453 45.236 32.0515 44.9017 32.2832L29.5697 42.9118C28.9065 43.3716 28 42.8969 28 42.09V23Z" fill="white"/>
<path fill-rule="evenodd" clip-rule="evenodd" d="M61 25H31V38.27L43.1926 29.8177C44.5296 28.8909 46.2947 28.8661 47.6572 29.755L61 38.4606V25ZM64 23C64 22.4477 63.5523 22 63 22H29C28.4477 22 28 22.4477 28 23V42.09C28 42.8969 28.9065 43.3716 29.5697 42.9118L44.9017 32.2832C45.236 32.0515 45.6773 32.0453 46.0179 32.2676L62.4536 42.991C63.1187 43.425 64 42.9477 64 42.1535V23Z" fill="black"/>
<path fill-rule="evenodd" clip-rule="evenodd" d="M63.6156 25.3679L45.2124 33.6494L27.3681 25.3604L28.632 22.6396L45.2322 30.3507L62.3845 22.6321L63.6156 25.3679Z" fill="black"/>
<path d="M12.0331 87.9422V45.3141C12.0331 44.7618 12.4808 44.3141 13.0331 44.3141H22.9339C23.4862 44.3141 23.9339 44.7618 23.9339 45.3141V87.9422C23.9339 88.4945 23.4862 88.9422 22.9339 88.9422H13.0331C12.4808 88.9422 12.0331 88.4945 12.0331 87.9422Z" fill="white"/>
<path fill-rule="evenodd" clip-rule="evenodd" d="M13.5331 45.8141V87.4422H22.4339V45.8141H13.5331ZM10.5331 45.3141C10.5331 43.9334 11.6524 42.8141 13.0331 42.8141H22.9339C24.3146 42.8141 25.4339 43.9334 25.4339 45.3141V87.9422C25.4339 89.3229 24.3146 90.4422 22.9339 90.4422H13.0331C11.6524 90.4422 10.5331 89.3229 10.5331 87.9422V45.3141Z" fill="black"/>
<path d="M27.6529 66.2562C27.6529 71.8018 23.1572 76.2975 17.6116 76.2975C12.0659 76.2975 7.57025 71.8018 7.57025 66.2562C7.57025 60.7105 12.0659 56.2148 17.6116 56.2148C23.1572 56.2148 27.6529 60.7105 27.6529 66.2562Z" fill="white"/>
<path fill-rule="evenodd" clip-rule="evenodd" d="M17.6116 73.2975C21.5004 73.2975 24.6529 70.145 24.6529 66.2562C24.6529 62.3674 21.5004 59.2148 17.6116 59.2148C13.7228 59.2148 10.5703 62.3674 10.5703 66.2562C10.5703 70.145 13.7228 73.2975 17.6116 73.2975ZM17.6116 76.2975C23.1572 76.2975 27.6529 71.8018 27.6529 66.2562C27.6529 60.7105 23.1572 56.2148 17.6116 56.2148C12.0659 56.2148 7.57025 60.7105 7.57025 66.2562C7.57025 71.8018 12.0659 76.2975 17.6116 76.2975Z" fill="black"/>
<path fill-rule="evenodd" clip-rule="evenodd" d="M24.6227 63.226L17.7409 70.1077L11.8623 65.5857L13.6914 63.2078L17.4822 66.1238L22.5013 61.1047L24.6227 63.226Z" fill="black"/>
<path fill-rule="evenodd" clip-rule="evenodd" d="M65 50.5H54V47.5H65V50.5Z" fill="black"/>
<path fill-rule="evenodd" clip-rule="evenodd" d="M44.5 88V31H47.5V88H44.5Z" fill="black"/>
<path d="M56 88.9846V72C56 71.4477 56.4477 71 57 71H71.0325C71.3136 71 71.5816 71.1183 71.7711 71.3258L75.9705 75.9261C77.3522 77.4397 79.209 78.4364 81.234 78.7514L92.4078 80.4898C92.4511 80.4965 92.4923 80.5132 92.5281 80.5385C95.3386 82.5279 95.5885 86.6065 93.0419 88.9241L92.5607 89.362C92.5046 89.413 92.4318 89.4418 92.356 89.443L57.0153 89.9844C56.4571 89.993 56 89.5428 56 88.9846Z" fill="white"/>
<path fill-rule="evenodd" clip-rule="evenodd" d="M57.5 72.5V88.4768L91.8836 87.95L92.0323 87.8147C93.8035 86.2027 93.7002 83.4104 91.8749 81.9249L81.0034 80.2336C78.6409 79.8661 76.4746 78.7033 74.8627 76.9374L70.812 72.5H57.5ZM91.6614 81.7628L91.6615 81.7628ZM54.5 72C54.5 70.6193 55.6193 69.5 57 69.5H71.0325C71.7351 69.5 72.4053 69.7956 72.8789 70.3145L77.0783 74.9149C78.2297 76.1762 79.7771 77.0068 81.4646 77.2693L92.6384 79.0076L92.4078 80.4898L92.6384 79.0076C92.9108 79.05 93.1697 79.1549 93.3947 79.3142C96.9874 81.8572 97.3068 87.0708 94.0515 90.0334L93.5703 90.4713C93.2439 90.7684 92.8203 90.936 92.379 90.9428L57.0383 91.4843C55.6428 91.5056 54.5 90.3803 54.5 88.9846V72Z" fill="black"/>
<path fill-rule="evenodd" clip-rule="evenodd" d="M95 87.5H57V84.5H95V87.5Z" fill="black"/>
<path fill-rule="evenodd" clip-rule="evenodd" d="M75 75.5H57V72.5H75V75.5Z" fill="black"/>
<path fill-rule="evenodd" clip-rule="evenodd" d="M73.7776 79.8807L76.4442 76.1307L78.8554 77.8453L78.9982 77.5664L81.4357 78.8144L81.5804 78.3905L84.4196 79.3596L83.3529 82.4846C83.0853 83.2686 82.2328 83.6872 81.4488 83.4196C80.6648 83.152 80.2461 82.2995 80.5137 81.5155L80.8481 80.5361L80.0685 82.0586C79.691 82.796 78.7871 83.0877 78.0497 82.7102C77.3123 82.3326 77.0206 81.4288 77.3982 80.6914L78.7247 78.1004L76.2224 81.6193C75.7423 82.2944 74.8058 82.4525 74.1307 81.9725C73.4556 81.4924 73.2975 80.5559 73.7776 79.8807Z" fill="black"/>
</svg>
