<svg width="100" height="100" viewBox="0 0 100 100" fill="none" xmlns="http://www.w3.org/2000/svg">
<rect width="100" height="100" fill="white"/>
<path fill-rule="evenodd" clip-rule="evenodd" d="M43.7094 29.9874C43.4566 30.3805 42.9652 30.5461 42.526 30.3861L23.9925 23.6354C23.1866 23.3418 22.4094 24.1324 22.7165 24.9331L29.46 42.5135C29.6377 42.9766 29.449 43.5 29.0167 43.7432L12.2526 53.1752C11.4948 53.6016 11.6047 54.7252 12.4308 54.9967L31.0797 61.1262C31.5387 61.2771 31.8241 61.7345 31.758 62.2131L29.1967 80.7574C29.0815 81.5916 29.986 82.186 30.706 81.7492L47.3317 71.6626C47.7254 71.4237 48.2313 71.4846 48.5571 71.81L62.3151 85.5531C62.9109 86.1483 63.9306 85.7854 64.0166 84.9477L65.928 66.3251C65.9773 65.8446 66.3632 65.4679 66.8448 65.4303L86.4155 63.9002C87.2824 63.8324 87.6557 62.7669 87.0207 62.173L72.973 49.033C72.6108 48.6941 72.5516 48.141 72.8341 47.7332L83.5559 32.2546C84.0443 31.5496 83.4768 30.5973 82.6243 30.6912L63.0183 32.8522C62.5537 32.9034 62.1157 32.626 61.9633 32.1842L55.7717 14.2242C55.4995 13.4347 54.4369 13.3069 53.9852 14.0092L43.7094 29.9874ZM54.2789 19.0987L46.2326 31.6102C45.2214 33.1826 43.2559 33.8448 41.4993 33.205L27.0893 27.9562L32.261 41.4391C32.9716 43.2916 32.2169 45.3849 30.4878 46.3578L17.6796 53.564L32.0164 58.2762C33.8523 58.8796 34.9942 60.7092 34.7298 62.6235L32.7436 77.0041L45.7756 69.0977C47.3504 68.1423 49.3741 68.3858 50.6773 69.6876L61.4614 80.46L62.9437 66.0188C63.141 64.0965 64.6844 62.59 66.611 62.4394L81.6564 61.2631L70.9236 51.2239C69.4747 49.8686 69.2382 47.6559 70.3679 46.025L78.5908 34.154L63.347 35.8342C61.4887 36.039 59.7365 34.9293 59.1272 33.1619L54.2789 19.0987Z" fill="black"/>
<path fill-rule="evenodd" clip-rule="evenodd" d="M74.295 14.728C74.9975 15.1671 75.2111 16.0925 74.772 16.795L67.272 28.795C66.8329 29.4975 65.9075 29.7111 65.205 29.272C64.5025 28.8329 64.2889 27.9075 64.728 27.205L72.228 15.205C72.6671 14.5025 73.5925 14.289 74.295 14.728Z" fill="black"/>
<path fill-rule="evenodd" clip-rule="evenodd" d="M92.0706 47.3735C92.0311 48.201 91.3282 48.8398 90.5007 48.8002L77.8561 48.1963C77.0287 48.1567 76.3899 47.4539 76.4294 46.6264C76.4689 45.7989 77.1718 45.1602 77.9993 45.1997L90.6439 45.8037C91.4713 45.8432 92.1101 46.546 92.0706 47.3735Z" fill="black"/>
<path fill-rule="evenodd" clip-rule="evenodd" d="M68.9111 68.9684C69.4808 68.367 70.4302 68.3413 71.0316 68.9111L80.5316 77.9111C81.133 78.4808 81.1587 79.4302 80.5889 80.0316C80.0192 80.633 79.0698 80.6587 78.4684 80.0889L68.9684 71.0889C68.367 70.5192 68.3413 69.5698 68.9111 68.9684Z" fill="black"/>
<path fill-rule="evenodd" clip-rule="evenodd" d="M48 76.5C48.8284 76.5 49.5 77.1716 49.5 78V89.5C49.5 90.3284 48.8284 91 48 91C47.1716 91 46.5 90.3284 46.5 89.5V78C46.5 77.1716 47.1716 76.5 48 76.5Z" fill="black"/>
<path fill-rule="evenodd" clip-rule="evenodd" d="M27.7314 64.1434C28.2044 64.8235 28.0367 65.7583 27.3566 66.2314L15.8566 74.2314C15.1765 74.7045 14.2417 74.5367 13.7686 73.8566C13.2956 73.1765 13.4633 72.2417 14.1434 71.7687L25.6434 63.7687C26.3235 63.2956 27.2583 63.4634 27.7314 64.1434Z" fill="black"/>
<path fill-rule="evenodd" clip-rule="evenodd" d="M9.5176 38.1587C9.64414 37.34 10.4104 36.7789 11.2291 36.9054L24.3586 38.9347C25.1773 39.0612 25.7384 39.8275 25.6118 40.6462C25.4853 41.4649 24.719 42.026 23.9003 41.8995L10.7709 39.8702C9.95217 39.7437 9.39106 38.9774 9.5176 38.1587Z" fill="black"/>
<path fill-rule="evenodd" clip-rule="evenodd" d="M35.3845 12.6321C36.1399 12.2922 37.0279 12.629 37.3679 13.3845L41.8679 23.3845C42.2078 24.1399 41.871 25.0279 41.1156 25.3679C40.3601 25.7078 39.4721 25.371 39.1321 24.6156L34.6321 14.6156C34.2922 13.8601 34.629 12.9721 35.3845 12.6321Z" fill="black"/>
<path d="M45.6051 47.8428H43.7922V44.1044H40.2571V47.8428H38.4443V39.1198H40.2571V42.6545H43.7922V39.1198H45.6051V47.8428Z" fill="black"/>
<path d="M54.4218 43.679C54.4218 44.5377 54.2687 45.2906 53.9625 45.9376C53.6563 46.5846 53.2172 47.0839 52.6451 47.4354C52.0771 47.7868 51.4245 47.9626 50.6872 47.9626C49.958 47.9626 49.3074 47.7888 48.7354 47.4414C48.1633 47.0939 47.7201 46.5986 47.4059 45.9556C47.0917 45.3085 46.9326 44.5657 46.9285 43.7269V43.2956C46.9285 42.4369 47.0836 41.682 47.3938 41.031C47.7081 40.3759 48.1492 39.8747 48.7172 39.5272C49.2893 39.1757 49.9419 39 50.6751 39C51.4083 39 52.059 39.1757 52.627 39.5272C53.1991 39.8747 53.6402 40.3759 53.9504 41.031C54.2646 41.682 54.4218 42.4349 54.4218 43.2896V43.679ZM52.5847 43.2836C52.5847 42.369 52.4195 41.674 52.0892 41.1987C51.7588 40.7234 51.2875 40.4858 50.6751 40.4858C50.0668 40.4858 49.5975 40.7214 49.2671 41.1927C48.9368 41.66 48.7696 42.347 48.7656 43.2536V43.679C48.7656 44.5697 48.9308 45.2606 49.2611 45.7519C49.5914 46.2431 50.0668 46.4888 50.6872 46.4888C51.2955 46.4888 51.7629 46.2531 52.0892 45.7818C52.4155 45.3066 52.5807 44.6156 52.5847 43.7089V43.2836Z" fill="black"/>
<path d="M61.8425 40.5756H59.1473V47.8428H57.3344V40.5756H54.6756V39.1198H61.8425V40.5756Z" fill="black"/>
<path d="M37 62V53.2771H39.7072C40.4807 53.2771 41.1716 53.4508 41.78 53.7983C42.3923 54.1418 42.8697 54.633 43.2121 55.2721C43.5546 55.9071 43.7258 56.63 43.7258 57.4408V57.8422C43.7258 58.653 43.5566 59.3739 43.2182 60.005C42.8838 60.636 42.4104 61.1253 41.7981 61.4728C41.1857 61.8203 40.4948 61.996 39.7254 62H37ZM38.8129 54.7329V60.5562H39.6891C40.3981 60.5562 40.94 60.3265 41.3146 59.8672C41.6893 59.4079 41.8807 58.7509 41.8887 57.8962V57.4348C41.8887 56.5482 41.7034 55.8772 41.3328 55.4219C40.9621 54.9625 40.4203 54.7329 39.7072 54.7329H38.8129Z" fill="black"/>
<path d="M50.3428 58.2197H46.8621V60.5562H50.9471V62H45.0492V53.2771H50.935V54.7329H46.8621V56.8118H50.3428V58.2197Z" fill="black"/>
<path d="M56.9779 60.2027H53.7993L53.195 62H51.2673L54.5426 53.2771H56.2225L59.5159 62H57.5882L56.9779 60.2027ZM54.2888 58.7469H56.4884L55.3826 55.4818L54.2888 58.7469Z" fill="black"/>
<path d="M62.1507 60.5562H66V62H60.3378V53.2771H62.1507V60.5562Z" fill="black"/>
</svg>
