<svg width="100" height="100" viewBox="0 0 100 100" fill="none" xmlns="http://www.w3.org/2000/svg">
<rect width="100" height="100" fill="white"/>
<path fill-rule="evenodd" clip-rule="evenodd" d="M29.2028 25.4236H52.2668C52.9244 25.4236 53.5556 25.6827 54.0235 26.1448L82.3208 54.0884C83.3017 55.0571 83.3133 56.6371 82.3467 57.6201L62.1451 78.1641C61.1712 79.1544 59.5769 79.1611 58.5947 78.179L29.935 49.5193C29.4662 49.0505 29.2028 48.4146 29.2028 47.7515V25.4236ZM32.2028 28.4236V47.5444L60.3595 75.7012L79.8578 55.8724L52.0616 28.4236H32.2028Z" fill="black"/>
<path fill-rule="evenodd" clip-rule="evenodd" d="M39.1264 38.2071C40.5036 38.2071 41.62 37.0907 41.62 35.7135C41.62 34.3363 40.5036 33.2198 39.1264 33.2198C37.7492 33.2198 36.6327 34.3363 36.6327 35.7135C36.6327 37.0907 37.7492 38.2071 39.1264 38.2071ZM39.1264 41.2071C42.1604 41.2071 44.62 38.7476 44.62 35.7135C44.62 32.6794 42.1604 30.2198 39.1264 30.2198C36.0923 30.2198 33.6327 32.6794 33.6327 35.7135C33.6327 38.7476 36.0923 41.2071 39.1264 41.2071Z" fill="black"/>
<path fill-rule="evenodd" clip-rule="evenodd" d="M21.9604 24.5521C21.4605 24.6567 21.0384 24.9252 20.7376 25.6605C20.487 26.273 20.4611 26.7566 20.539 27.1489C20.6183 27.549 20.8272 27.9602 21.2079 28.3837C22.001 29.2657 23.4151 30.0585 25.232 30.6595C27.0158 31.2496 29.0276 31.602 30.8417 31.7105C32.7017 31.8217 34.1673 31.665 34.9417 31.3774L35.9862 34.1897C34.6242 34.6956 32.6594 34.8245 30.6627 34.7051C28.62 34.583 26.3485 34.1887 24.2899 33.5077C22.2645 32.8378 20.2772 31.8353 18.9772 30.3896C18.3114 29.6493 17.8008 28.7636 17.5963 27.7327C17.3902 26.6939 17.516 25.6123 17.9609 24.5246C18.634 22.8792 19.8586 21.9269 21.3459 21.6157C22.7259 21.3269 24.1952 21.6149 25.4855 22.0786C28.0589 23.0034 30.6323 24.891 31.8457 26.3185L29.5599 28.2615C28.6979 27.2473 26.5684 25.6556 24.4709 24.9018C23.4256 24.5262 22.5674 24.425 21.9604 24.5521Z" fill="black"/>
<path fill-rule="evenodd" clip-rule="evenodd" d="M60.6831 40.1332C61.2763 40.7115 61.2883 41.6612 60.71 42.2543L46.4265 56.904C45.8482 57.4972 44.8985 57.5092 44.3054 56.9309C43.7122 56.3526 43.7002 55.4029 44.2785 54.8097L58.562 40.16C59.1403 39.5668 60.09 39.5548 60.6831 40.1332ZM65.4578 44.5414C66.0436 45.1272 66.0436 46.0769 65.4578 46.6627L50.8081 61.3125C50.2223 61.8982 49.2726 61.8982 48.6868 61.3125C48.101 60.7267 48.101 59.7769 48.6868 59.1911L63.3365 44.5414C63.9223 43.9556 64.872 43.9556 65.4578 44.5414Z" fill="black"/>
<path fill-rule="evenodd" clip-rule="evenodd" d="M69.473 48.1905C70.0661 48.7689 70.0782 49.7185 69.4998 50.3117L55.2164 64.9614C54.638 65.5546 53.6884 65.5666 53.0952 64.9882C52.5021 64.4099 52.49 63.4603 53.0684 62.8671L67.3518 48.2174C67.9302 47.6242 68.8798 47.6122 69.473 48.1905Z" fill="black"/>
</svg>
