<svg width="100" height="100" viewBox="0 0 100 100" fill="none" xmlns="http://www.w3.org/2000/svg">
<rect width="100" height="100" fill="white"/>
<path d="M38.7727 39.6818C38.7727 40.937 37.7552 41.9546 36.5 41.9546C35.2448 41.9546 34.2273 40.937 34.2273 39.6818C34.2273 38.4267 35.2448 37.4091 36.5 37.4091C37.7552 37.4091 38.7727 38.4267 38.7727 39.6818Z" fill="black"/>
<path d="M64.9091 39.6818C64.9091 40.937 63.8916 41.9546 62.6364 41.9546C61.3812 41.9546 60.3636 40.937 60.3636 39.6818C60.3636 38.4267 61.3812 37.4091 62.6364 37.4091C63.8916 37.4091 64.9091 38.4267 64.9091 39.6818Z" fill="black"/>
<path fill-rule="evenodd" clip-rule="evenodd" d="M49.5682 10.5C43.1793 10.5 38 15.6792 38 22.0682V38.5455H35V22.0682C35 14.0224 41.5224 7.5 49.5682 7.5C57.614 7.5 64.1364 14.0224 64.1364 22.0682V38.5455H61.1364V22.0682C61.1364 15.6793 55.9571 10.5 49.5682 10.5Z" fill="black"/>
<path fill-rule="evenodd" clip-rule="evenodd" d="M48.0403 28.5993C48.8409 27.5596 50.409 27.5596 51.2097 28.5993L53.906 32.1011L56.0808 28.806C56.8713 27.6082 58.6287 27.6082 59.4192 28.806L61.5 31.9587L63.6121 28.7585C64.3685 27.6125 66.0283 27.5521 66.866 28.64L69.625 32.2232L71.9153 29.2487C73.0801 27.7359 75.5 28.5597 75.5 30.4689V84.8182C75.5 86.1989 74.3807 87.3182 73 87.3182H25C23.6193 87.3182 22.5 86.1989 22.5 84.8182V30.2157C22.5 28.429 24.6643 27.5389 25.9213 28.8086L29.3909 32.3133L31.7058 28.806C32.4963 27.6082 34.2537 27.6082 35.0442 28.806L37.219 32.1011L39.884 28.64C40.7217 27.5521 42.3815 27.6125 43.1379 28.7585L45.344 32.1011L48.0403 28.5993ZM49.625 31.4586L46.866 35.0417C46.0283 36.1297 44.3685 36.0693 43.6121 34.9232L41.406 31.5807L38.741 35.0417C37.9033 36.1297 36.2435 36.0693 35.4871 34.9232L33.375 31.7231L31.2162 34.994C30.5166 36.0539 29.0192 36.2019 28.1257 35.2994L25.5 32.6472V84.3182H72.5V33.4067L71.2097 35.0824C70.409 36.1222 68.8409 36.1222 68.0403 35.0824L65.344 31.5807L63.1692 34.8758C62.3787 36.0735 60.6213 36.0735 59.8308 34.8758L57.75 31.7231L55.6379 34.9232C54.8815 36.0693 53.2217 36.1297 52.384 35.0417L49.625 31.4586Z" fill="black"/>
<path d="M68 73.6563C68 80.7923 76.2571 90 76.2571 90C76.2571 90 85 80.8782 85 73.6563C85 68.3686 81.0837 64.8674 76.2572 65.0039C71.5627 65.1366 68 68.8493 68 73.6563Z" fill="white"/>
<path fill-rule="evenodd" clip-rule="evenodd" d="M83.5 73.6563C83.5 69.2315 80.2994 66.3902 76.2996 66.5033C72.4401 66.6124 69.5 69.6377 69.5 73.6563C69.5 76.7542 71.3393 80.5195 73.3884 83.6899C74.3874 85.2357 75.3891 86.5694 76.1416 87.5169C76.1938 87.5827 76.2448 87.6466 76.2945 87.7085C76.3541 87.639 76.4154 87.567 76.4785 87.4926C77.275 86.5519 78.335 85.2267 79.392 83.6873C81.5627 80.526 83.5 76.7722 83.5 73.6563ZM76.2571 90C75.1404 91.0014 75.1402 91.0012 75.1399 91.0009L75.1374 90.9981L75.1314 90.9913L75.1106 90.9679C75.0928 90.9479 75.0675 90.9192 75.0351 90.8821C74.9702 90.8079 74.8769 90.7002 74.7593 90.5617C74.524 90.2848 74.1908 89.8844 73.7923 89.3827C72.9966 88.3807 71.934 86.9665 70.8688 85.3184C68.7893 82.101 66.5 77.6944 66.5 73.6563C66.5 68.061 70.6854 63.6608 76.2148 63.5045C81.8681 63.3446 86.5 67.5058 86.5 73.6563C86.5 77.7623 84.0659 82.1804 81.8651 85.3854C80.7365 87.0292 79.6107 88.4358 78.768 89.4312C78.3459 89.9297 77.993 90.3271 77.7438 90.6018C77.6192 90.7392 77.5203 90.846 77.4516 90.9196C77.4173 90.9563 77.3905 90.9848 77.3717 91.0047L77.3496 91.0279L77.3413 91.0367L77.3406 91.0374C77.3403 91.0377 77.3401 91.0379 76.2571 90ZM76.2571 90L77.3406 91.0374L76.2206 92.2059L75.1399 91.0009L76.2571 90Z" fill="black"/>
<path fill-rule="evenodd" clip-rule="evenodd" d="M76.5 75C77.3284 75 78 74.3284 78 73.5C78 72.6716 77.3284 72 76.5 72C75.6716 72 75 72.6716 75 73.5C75 74.3284 75.6716 75 76.5 75ZM76.5 78C78.9853 78 81 75.9853 81 73.5C81 71.0147 78.9853 69 76.5 69C74.0147 69 72 71.0147 72 73.5C72 75.9853 74.0147 78 76.5 78Z" fill="black"/>
</svg>
