<svg width="100" height="100" viewBox="0 0 100 100" fill="none" xmlns="http://www.w3.org/2000/svg">
<rect width="100" height="100" fill="white"/>
<path fill-rule="evenodd" clip-rule="evenodd" d="M32 58.4849V70.9697H66.6667V58.4849H32ZM30 55.4849C29.4477 55.4849 29 55.9326 29 56.4849V72.9697C29 73.522 29.4477 73.9697 30 73.9697H68.6667C69.219 73.9697 69.6667 73.522 69.6667 72.9697V56.4849C69.6667 55.9326 69.219 55.4849 68.6667 55.4849H30Z" fill="black"/>
<path fill-rule="evenodd" clip-rule="evenodd" d="M73.406 40V70.9697H86.9999V52.1212L84.2727 40H73.406ZM71.406 37C70.8537 37 70.406 37.4477 70.406 38V72.9697C70.406 73.522 70.8537 73.9697 71.406 73.9697H88.9999C89.5522 73.9697 89.9999 73.522 89.9999 72.9697V51.899C89.9999 51.8251 89.9918 51.7515 89.9756 51.6795L86.8483 37.7805C86.7456 37.3242 86.3404 37 85.8727 37H71.406Z" fill="black"/>
<path d="M43.7879 75.0788C43.7879 77.7331 41.6362 79.8848 38.9818 79.8848C36.3275 79.8848 34.1758 77.7331 34.1758 75.0788C34.1758 72.4245 36.3275 70.2727 38.9818 70.2727C41.6362 70.2727 43.7879 72.4245 43.7879 75.0788Z" fill="white"/>
<path fill-rule="evenodd" clip-rule="evenodd" d="M38.9818 76.8848C39.9793 76.8848 40.7879 76.0762 40.7879 75.0788C40.7879 74.0813 39.9793 73.2727 38.9818 73.2727C37.9844 73.2727 37.1758 74.0813 37.1758 75.0788C37.1758 76.0762 37.9844 76.8848 38.9818 76.8848ZM38.9818 79.8848C41.6362 79.8848 43.7879 77.7331 43.7879 75.0788C43.7879 72.4245 41.6362 70.2727 38.9818 70.2727C36.3275 70.2727 34.1758 72.4245 34.1758 75.0788C34.1758 77.7331 36.3275 79.8848 38.9818 79.8848Z" fill="black"/>
<path d="M81.497 75.0788C81.497 77.7331 79.3453 79.8848 76.6909 79.8848C74.0366 79.8848 71.8849 77.7331 71.8849 75.0788C71.8849 72.4245 74.0366 70.2727 76.6909 70.2727C79.3453 70.2727 81.497 72.4245 81.497 75.0788Z" fill="white"/>
<path fill-rule="evenodd" clip-rule="evenodd" d="M76.6909 76.8848C77.6884 76.8848 78.497 76.0762 78.497 75.0788C78.497 74.0813 77.6884 73.2727 76.6909 73.2727C75.6935 73.2727 74.8849 74.0813 74.8849 75.0788C74.8849 76.0762 75.6935 76.8848 76.6909 76.8848ZM76.6909 79.8848C79.3453 79.8848 81.497 77.7331 81.497 75.0788C81.497 72.4245 79.3453 70.2727 76.6909 70.2727C74.0366 70.2727 71.8849 72.4245 71.8849 75.0788C71.8849 77.7331 74.0366 79.8848 76.6909 79.8848Z" fill="black"/>
<path fill-rule="evenodd" clip-rule="evenodd" d="M82.2152 52.2666V38.4788H85.2152V51.7666H88.891V54.7666H84.7152C83.3345 54.7666 82.2152 53.6474 82.2152 52.2666Z" fill="black"/>
<path fill-rule="evenodd" clip-rule="evenodd" d="M12 57C12 56.1716 12.6716 55.5 13.5 55.5H24C24.8284 55.5 25.5 56.1716 25.5 57C25.5 57.8284 24.8284 58.5 24 58.5H13.5C12.6716 58.5 12 57.8284 12 57ZM5.5 64C5.5 63.1716 6.17157 62.5 7 62.5H24C24.8284 62.5 25.5 63.1716 25.5 64C25.5 64.8284 24.8284 65.5 24 65.5H7C6.17157 65.5 5.5 64.8284 5.5 64ZM12 70.5C12 69.6716 12.6716 69 13.5 69H24C24.8284 69 25.5 69.6716 25.5 70.5C25.5 71.3284 24.8284 72 24 72H13.5C12.6716 72 12 71.3284 12 70.5Z" fill="black"/>
</svg>
