<svg width="100" height="100" viewBox="0 0 100 100" fill="none" xmlns="http://www.w3.org/2000/svg">
<rect width="100" height="100" fill="white"/>
<path d="M48.6787 68.3017V65.4785C47.1093 65.4515 45.4858 64.9478 44.5386 64.2492L45.1879 62.3764C46.1622 63.047 47.5691 63.5787 49.0851 63.5787C51.0057 63.5787 52.3052 62.4324 52.3052 60.8394C52.3052 59.3014 51.2496 58.351 49.2476 57.5125C46.4872 56.3952 44.7823 55.109 44.7823 52.6775C44.7823 50.357 46.3788 48.596 48.8684 48.1773V45.3541H50.5461V48.0654C52.1697 48.1214 53.2795 48.5681 54.0641 49.0439L53.3878 50.8887C52.8189 50.5531 51.7101 49.9384 49.978 49.9384C47.8939 49.9384 47.1093 51.2237 47.1093 52.3419C47.1093 53.796 48.1107 54.5225 50.4648 55.5289C53.2523 56.7022 54.6592 58.1563 54.6592 60.6438C54.6592 62.8514 53.171 64.9201 50.3836 65.3959V68.3021H48.6787V68.3017Z" fill="black"/>
<path d="M84 38.8882H15L49.5 15L84 38.8882ZM22.0602 36.6697H76.9398L49.5 17.6691L22.0602 36.6697Z" fill="black"/>
<path d="M83.8659 84H15.1343V75.0782H83.8657V84H83.8659ZM17.2821 81.7814H81.7179V77.2966H17.2821V81.7814Z" fill="black"/>
<path d="M30.5721 71.1046H21.9365V42.541H30.5721V71.1046ZM24.0844 68.886H28.4242V44.7596H24.0844V68.886Z" fill="black"/>
<path d="M40.6297 71.1046H31.9922V42.541H40.6297V71.1046ZM34.1401 68.886H38.4818V44.7596H34.1401V68.886Z" fill="black"/>
<path d="M67.0081 71.1046H58.3706V42.541H67.0081V71.1046ZM60.5185 68.886H64.8603V44.7596H60.5185V68.886Z" fill="black"/>
<path d="M77.0636 71.1046H68.4282V42.541H77.0636V71.1046ZM70.576 68.886H74.9158V44.7596H70.576V68.886Z" fill="black"/>
<path d="M37.9803 28.2887H39.9037C40.7783 28.2887 41.4139 28.4188 41.8103 28.6743C42.2046 28.932 42.4039 29.3416 42.4039 29.9028C42.4039 30.2841 42.3157 30.5961 42.1438 30.8409C41.9697 31.0857 41.741 31.2331 41.4536 31.283V31.3263C41.8438 31.4152 42.1269 31.5842 42.299 31.8312C42.473 32.0781 42.559 32.4074 42.559 32.8169C42.559 33.3997 42.3556 33.8525 41.9486 34.1774C41.5416 34.5045 40.9901 34.6671 40.2915 34.6671H37.98V28.2887H37.9803ZM39.2913 30.8149H40.0505C40.405 30.8149 40.663 30.7586 40.8225 30.6459C40.9798 30.5311 41.0595 30.3448 41.0595 30.0826C41.0595 29.8378 40.9735 29.6622 40.8015 29.5562C40.6275 29.45 40.3526 29.3981 39.9793 29.3981H39.2913V30.8149ZM39.2913 31.8873V33.5512H40.1429C40.5037 33.5512 40.7701 33.4797 40.9421 33.3367C41.114 33.1937 41.2 32.9748 41.2 32.6825C41.2 32.1539 40.8329 31.8873 40.101 31.8873H39.2913V31.8873Z" fill="black"/>
<path d="M47.5747 34.6679L47.1258 33.1491H44.8751L44.4283 34.6679H43.0166L45.1959 28.2636H46.7965L48.9843 34.6679H47.5747ZM46.8133 32.0161C46.4 30.6404 46.1672 29.8625 46.1148 29.6828C46.0625 29.5008 46.0246 29.36 46.0037 29.2538C45.9094 29.6265 45.643 30.5473 45.2046 32.0162H46.8133V32.0161Z" fill="black"/>
<path d="M55.2385 34.6678H53.5752L50.8883 29.8429H50.8505C50.9029 30.6944 50.9302 31.3032 50.9302 31.6672V34.6678H49.7598V28.2895H51.4127L54.0932 33.0668H54.1225C54.0806 32.237 54.0596 31.652 54.0596 31.3098V28.2895H55.2384V34.6678H55.2385Z" fill="black"/>
<path d="M61.7579 34.6678H60.2728L58.6536 31.9813L58.102 32.3908V34.6678H56.791V28.2895H58.102V31.2078L58.6159 30.4582L60.2897 28.2895H61.7413L59.5871 31.1126L61.7579 34.6678Z" fill="black"/>
</svg>
