<svg width="100" height="100" viewBox="0 0 100 100" fill="none" xmlns="http://www.w3.org/2000/svg">
<rect width="100" height="100" fill="white"/>
<path fill-rule="evenodd" clip-rule="evenodd" d="M26.6673 37.9167C24.8264 37.9167 23.334 39.409 23.334 41.25V70.4167C23.334 72.2576 24.8264 73.75 26.6673 73.75H73.334C75.1749 73.75 76.6673 72.2576 76.6673 70.4167V41.25C76.6673 39.409 75.1749 37.9167 73.334 37.9167H26.6673ZM18.334 41.25C18.334 36.6476 22.0649 32.9167 26.6673 32.9167H73.334C77.9363 32.9167 81.6673 36.6476 81.6673 41.25V70.4167C81.6673 75.019 77.9363 78.75 73.334 78.75H26.6673C22.0649 78.75 18.334 75.019 18.334 70.4167V41.25Z" fill="black"/>
<path fill-rule="evenodd" clip-rule="evenodd" d="M38.2748 23.6908C39.8376 22.128 41.9572 21.25 44.1673 21.25H55.834C58.0441 21.25 60.1637 22.128 61.7265 23.6908C63.2893 25.2536 64.1673 27.3732 64.1673 29.5833V76.25C64.1673 77.6307 63.048 78.75 61.6673 78.75C60.2866 78.75 59.1673 77.6307 59.1673 76.25V29.5833C59.1673 28.6993 58.8161 27.8514 58.191 27.2263C57.5659 26.6012 56.718 26.25 55.834 26.25H44.1673C43.2833 26.25 42.4354 26.6012 41.8103 27.2263C41.1852 27.8514 40.834 28.6993 40.834 29.5833V76.25C40.834 77.6307 39.7147 78.75 38.334 78.75C36.9533 78.75 35.834 77.6307 35.834 76.25V29.5833C35.834 27.3732 36.712 25.2536 38.2748 23.6908Z" fill="black"/>
</svg>
