<svg width="100" height="100" viewBox="0 0 100 100" fill="none" xmlns="http://www.w3.org/2000/svg">
<rect width="100" height="100" fill="white"/>
<path fill-rule="evenodd" clip-rule="evenodd" d="M42.5 32C42.5 31.1716 43.1716 30.5 44 30.5H56C56.8284 30.5 57.5 31.1716 57.5 32V39C57.5 39.8284 56.8284 40.5 56 40.5C55.1716 40.5 54.5 39.8284 54.5 39V33.5H45.5V39C45.5 39.8284 44.8284 40.5 44 40.5C43.1716 40.5 42.5 39.8284 42.5 39V32Z" fill="black"/>
<path fill-rule="evenodd" clip-rule="evenodd" d="M42 40.5C41.8674 40.5 41.7402 40.5527 41.6464 40.6464C41.5527 40.7402 41.5 40.8674 41.5 41V46C41.5 46.1326 41.5527 46.2598 41.6464 46.3536C41.7402 46.4473 41.8674 46.5 42 46.5H44C44.8284 46.5 45.5 47.1716 45.5 48C45.5 48.8284 44.8284 49.5 44 49.5H42C41.0717 49.5 40.1815 49.1313 39.5251 48.4749C38.8687 47.8185 38.5 46.9283 38.5 46V41C38.5 40.0717 38.8687 39.1815 39.5251 38.5251C40.1815 37.8687 41.0717 37.5 42 37.5H58C58.9283 37.5 59.8185 37.8688 60.4749 38.5251C61.1313 39.1815 61.5 40.0717 61.5 41V46C61.5 46.9283 61.1313 47.8185 60.4749 48.4749C59.8185 49.1313 58.9283 49.5 58 49.5H56C55.1716 49.5 54.5 48.8284 54.5 48C54.5 47.1716 55.1716 46.5 56 46.5H58C58.1326 46.5 58.2598 46.4473 58.3536 46.3536C58.4473 46.2598 58.5 46.1326 58.5 46V41C58.5 40.8674 58.4473 40.7402 58.3536 40.6464C58.2598 40.5527 58.1326 40.5 58 40.5H42Z" fill="black"/>
<path fill-rule="evenodd" clip-rule="evenodd" d="M42.5 44C42.5 43.1716 43.1716 42.5 44 42.5H56C56.8284 42.5 57.5 43.1716 57.5 44V52C57.5 52.8284 56.8284 53.5 56 53.5H44C43.1716 53.5 42.5 52.8284 42.5 52V44ZM45.5 45.5V50.5H54.5V45.5H45.5Z" fill="black"/>
<path fill-rule="evenodd" clip-rule="evenodd" d="M80 21H20C18.8954 21 18 21.8954 18 23V60C18 61.1046 18.8954 62 20 62H80C81.1046 62 82 61.1046 82 60V23C82 21.8954 81.1046 21 80 21ZM20 18C17.2386 18 15 20.2386 15 23V60C15 62.7614 17.2386 65 20 65H80C82.7614 65 85 62.7614 85 60V23C85 20.2386 82.7614 18 80 18H20Z" fill="black"/>
<path fill-rule="evenodd" clip-rule="evenodd" d="M62 66H38V72H62V66ZM35 63V75H65V63H35Z" fill="black"/>
<path fill-rule="evenodd" clip-rule="evenodd" d="M73 76H29C27.8954 76 27 76.8954 27 78C27 79.1046 27.8954 80 29 80H73C74.1046 80 75 79.1046 75 78C75 76.8954 74.1046 76 73 76ZM29 73C26.2386 73 24 75.2386 24 78C24 80.7614 26.2386 83 29 83H73C75.7614 83 78 80.7614 78 78C78 75.2386 75.7614 73 73 73H29Z" fill="black"/>
</svg>
