<svg width="100" height="100" viewBox="0 0 100 100" fill="none" xmlns="http://www.w3.org/2000/svg">
<rect width="100" height="100" fill="white"/>
<path fill-rule="evenodd" clip-rule="evenodd" d="M43.6478 18.3159C41.0509 22.4262 41.0316 27.0394 41.0316 29.0345V40.2655H28.5V54.4379H41.0316V90.5H55.6899V54.4379H70.5V40.2655H55.6899V29.0345C55.6899 26.8 56.9162 25.2861 58.2736 24.3707C59.5892 23.4835 61.1178 23.0797 62.15 22.9644L62.233 22.9552H70.5V10.5H62.3165C51.3212 10.5 46.1637 14.3339 43.6478 18.3159ZM41.1117 16.7134C44.292 11.6799 50.5269 7.5 62.3165 7.5H73.5V25.9552H62.4062C61.7298 26.0428 60.7411 26.3251 59.951 26.8579C59.1724 27.3831 58.6899 28.0635 58.6899 29.0345V37.2655H73.5V57.4379H58.6899V93.5H38.0316V57.4379H25.5V37.2655H38.0316L38.0316 28.9975C38.0315 26.9571 38.0312 21.5889 41.1117 16.7134Z" fill="black"/>
</svg>
