<svg width="100" height="100" viewBox="0 0 100 100" fill="none" xmlns="http://www.w3.org/2000/svg">
<rect width="100" height="100" fill="white"/>
<path fill-rule="evenodd" clip-rule="evenodd" d="M23.0206 12.6267C23.0367 12.589 23.0587 12.55 23.0861 12.517C23.0869 12.516 23.0877 12.5151 23.0885 12.5142C23.1318 12.5319 23.2091 12.5714 23.3177 12.6565L39.7468 26.5964C40.4044 27.2802 40.9437 28.5255 41.2948 30.398C41.6447 32.2639 41.7691 34.5318 41.7691 36.9966C41.7691 38.948 42.7675 41.1162 44.2085 42.5573L47.2085 45.5573L49.3298 43.4359L46.3298 40.4359C45.3708 39.477 44.7691 38.0452 44.7691 36.9966C44.7691 34.4613 44.6436 31.9793 44.2435 29.8452C43.8514 27.7539 43.1549 25.761 41.8298 24.4359L41.7864 24.3925L25.2231 10.3388L25.2062 10.3253C24.4745 9.73994 23.6298 9.42271 22.7502 9.5159C21.8856 9.60751 21.2165 10.0721 20.7773 10.6014C20.3454 11.122 20.0729 11.7739 20.0066 12.4283C19.9417 13.0681 20.0647 13.9135 20.7085 14.5572C20.7085 14.5572 20.7085 14.5573 20.7085 14.5572L33.6478 27.4966L32.7691 28.3753L19.3298 14.9359L17.2085 17.0572L30.6478 30.4966L30.2691 30.8753L16.8298 17.4359L14.7085 19.5572L28.1478 32.9966L27.7085 33.4359C27.6207 33.5237 27.5509 33.5666 27.5065 33.5884C27.5008 33.5912 27.4953 33.5937 27.49 33.5961L14.8298 20.9359C14.1602 20.2663 13.3174 19.9552 12.4528 20.0434C11.6464 20.1257 10.9826 20.5368 10.521 20.9984C10.0603 21.4591 9.69226 22.0762 9.55609 22.7571C9.41653 23.4549 9.51037 24.3591 10.2085 25.0572C10.4006 25.2493 11.2801 26.2719 12.5841 27.816C13.8549 29.3206 15.4621 31.2399 17.0559 33.1462C17.6022 33.7996 18.147 34.4517 18.676 35.0847C19.6889 36.2969 20.6438 37.4396 21.4397 38.3896C22.0454 39.1126 22.5612 39.7264 22.9418 40.1759C23.2894 40.5863 23.589 40.9377 23.7085 41.0572L25.2963 42.645L25.3973 42.7172C27.5373 44.2458 30.0604 44.4948 32.225 44.5584C32.7295 44.5733 33.2328 44.5778 33.714 44.5822C33.7572 44.5826 33.8003 44.583 33.8431 44.5834C34.3696 44.5883 34.8689 44.5941 35.3521 44.6126C36.3272 44.6502 37.1548 44.7382 37.8571 44.9389L37.9388 44.9622L38.0225 44.9762C38.2588 45.0155 38.7517 45.2131 39.3257 45.5237C39.5869 45.665 39.8245 45.8076 40.0052 45.9252C40.1671 46.0305 40.23 46.0815 40.2311 46.0802C40.2312 46.0801 40.2308 46.0796 40.2301 46.0788L43.7085 49.5572L45.8298 47.4359L42.3298 43.9359C42.1356 43.7417 41.8517 43.5475 41.6414 43.4106C41.3896 43.2468 41.0822 43.0631 40.7533 42.8851C40.1711 42.5701 39.3478 42.1768 38.6069 42.0334C37.5811 41.7503 36.4987 41.6545 35.4674 41.6149C34.935 41.5944 34.3952 41.5884 33.871 41.5835L33.7455 41.5824C33.2589 41.5779 32.7855 41.5736 32.3132 41.5597C30.2764 41.4998 28.5815 41.2589 27.2365 40.3426L27.0738 40.1799L27.0729 40.179L25.8298 38.9359C25.8372 38.9433 25.8347 38.9405 25.8185 38.9222C25.7979 38.8988 25.7549 38.8502 25.6816 38.7653C25.5706 38.6367 25.4191 38.4591 25.2312 38.2372C24.856 37.794 24.3444 37.1852 23.7392 36.4629C22.9444 35.5142 21.9916 34.374 20.9794 33.1626C20.4503 32.5294 19.9049 31.8768 19.3574 31.2219C17.7637 29.3157 16.1522 27.3913 14.8761 25.8803C13.868 24.6867 13.0226 23.6948 12.5749 23.1984C12.5948 23.1712 12.6175 23.1445 12.6423 23.1197C12.6674 23.0947 12.691 23.0751 12.7116 23.0603L25.8806 36.2294L26.0983 36.3382C26.9332 36.7557 28.516 36.8711 29.8298 35.5572L31.18 34.207L31.1855 34.2015L31.1998 34.1872L31.2252 34.1618L31.2349 34.1522L31.2364 34.1506L31.238 34.149L31.2396 34.1475L31.2411 34.1459L31.2427 34.1443L31.2442 34.1428L31.2577 34.1293L31.2635 34.1235L31.2788 34.1083L31.2867 34.1004L31.2943 34.0928L31.3051 34.0819L31.3164 34.0706L31.3207 34.0664L31.3248 34.0622L35.8298 29.5572C36.1662 29.2208 36.555 28.6477 36.6747 27.9126C36.8095 27.0845 36.5755 26.1816 35.8298 25.4359L23.0206 12.6267ZM12.6529 23.0105C12.6529 23.0105 12.6534 23.0108 12.6544 23.0113Z" fill="black"/>
<path fill-rule="evenodd" clip-rule="evenodd" d="M85.727 80.576L59.2508 56.098L61.2873 53.8952L87.8089 78.4152L87.8297 78.436C89.1796 79.7858 89.6808 81.5704 89.6179 83.2043C89.5559 84.8161 88.9401 86.4469 87.8297 87.5573C86.6799 88.7071 85.1452 89.3826 83.6681 89.6C82.2174 89.8135 80.591 89.6131 79.369 88.6966L79.2545 88.6107L54.6582 61.5046L56.8799 59.4886L81.2647 86.3617C81.6634 86.6083 82.3531 86.7612 83.2313 86.6319C84.158 86.4956 85.0733 86.071 85.7084 85.436C86.198 84.9463 86.5821 84.0772 86.6202 83.089C86.657 82.1321 86.3642 81.2249 85.727 80.576Z" fill="black"/>
<path fill-rule="evenodd" clip-rule="evenodd" d="M79.7415 13.7057C77.2704 14.2941 74.9381 15.3533 73.6011 16.2445L73.5234 16.2963L73.44 16.338C73.44 16.338 73.4325 16.3419 73.4165 16.3511C73.3997 16.3608 73.3772 16.3743 73.3485 16.3925C73.2903 16.4291 73.2168 16.4782 73.1275 16.5409C72.9484 16.6665 72.7289 16.8303 72.4778 17.0252C71.9765 17.4143 71.384 17.9002 70.7978 18.3938C69.6047 19.3985 68.5277 20.3592 68.3298 20.5571L68.1992 20.6877L68.0408 20.7827C67.2558 21.2537 66.3419 22.1431 65.4765 23.1656C64.6589 24.1314 63.9702 25.113 63.5806 25.7287C63.0513 26.8261 63.0212 27.9631 63.1393 29.4393C63.1597 29.6944 63.1855 29.9638 63.2124 30.2456C63.3334 31.5118 63.4782 33.0269 63.2685 34.6036C63.2288 38.1584 61.219 40.168 60.3432 41.0437L60.34 41.0469L22.34 80.5468L22.3298 80.5571C21.3705 81.5164 20.6875 83.7225 22.7525 85.8572C24.1804 86.8682 26.249 86.8427 27.6545 85.4887L62.0978 42.5594M79.7415 13.7057C82.1713 13.1272 84.407 13.0821 85.9244 13.7561ZM85.9244 13.7561C86.4056 14.229 86.7704 14.9441 86.9818 15.9345C87.2119 17.0125 87.2358 18.3129 87.0897 19.716C86.7994 22.5022 85.8687 25.4211 84.9561 27.268M79.0467 10.7873C81.7723 10.1383 84.9574 9.91361 87.4399 11.1548L87.6051 11.2374L87.7453 11.3576C88.9489 12.3892 89.5991 13.8246 89.9157 15.3084C90.2326 16.7929 90.2399 18.43 90.0735 20.0269C89.7418 23.2116 88.689 26.5107 87.6107 28.6673L87.5812 28.7263L83.5553 35.2682C83.5538 35.2708 83.5522 35.2734 83.5507 35.2759C82.816 36.4967 81.5347 37.7496 80.3232 38.7266C79.126 39.6921 77.7558 40.582 76.7434 40.9195C75.0666 41.4784 71.9534 41.9838 68.403 41.9962C66.5529 42.3503 64.9703 43.7712 64.4404 44.4335L64.4391 44.4351L29.8877 87.4991L29.8298 87.5571C27.2631 90.1237 23.4213 90.1106 20.8691 88.1964L20.7838 88.1325L20.7084 88.0571C17.2738 84.6224 18.1761 80.4801 20.1972 78.4471L58.1982 38.946L58.2084 38.9358C58.998 38.1463 60.2691 36.8564 60.2691 34.4964V34.3898L60.2842 34.2843C60.4595 33.0567 60.3546 31.9321 60.2361 30.6616C60.2065 30.3443 60.176 30.0179 60.1489 29.6786C60.0192 28.0573 59.9857 26.2091 60.9275 24.3256L60.9593 24.2619L60.9971 24.2014C61.449 23.4784 62.241 22.3446 63.1867 21.2273C64.0743 20.1787 65.1852 19.0386 66.3456 18.3038C66.7799 17.8957 67.8191 16.9801 68.8654 16.0991C69.4667 15.5927 70.093 15.0786 70.6385 14.6552C71.1021 14.2954 71.6094 13.9194 72.0031 13.7046C73.6702 12.6085 76.3042 11.4403 79.0467 10.7873Z" fill="black"/>
</svg>
