<svg width="100" height="100" viewBox="0 0 100 100" fill="none" xmlns="http://www.w3.org/2000/svg">
<rect width="100" height="100" fill="white"/>
<path fill-rule="evenodd" clip-rule="evenodd" d="M59.7024 29.6915C60.6954 28.679 62.331 28.6944 63.3048 29.7255L70.4108 37.2495C71.3529 38.247 71.315 39.8173 70.3261 40.7682L45.7473 64.4016C44.7658 65.3454 43.2096 65.3301 42.2468 64.3673L35.6404 57.7609C34.6708 56.7913 34.6632 55.2216 35.6234 54.2427L59.7024 29.6915ZM61.4804 32.163L38.1119 55.9898L44.0214 61.8993L67.8896 38.9492L61.4804 32.163Z" fill="black"/>
<path fill-rule="evenodd" clip-rule="evenodd" d="M57.4575 25.4215C58.0531 24.8457 59.0027 24.8618 59.5785 25.4575L74.0785 40.4575C74.6543 41.0531 74.6382 42.0027 74.0425 42.5785C73.4469 43.1543 72.4973 43.1382 71.9215 42.5425L57.4215 27.5425C56.8457 26.9469 56.8618 25.9973 57.4575 25.4215Z" fill="black"/>
<path fill-rule="evenodd" clip-rule="evenodd" d="M76.5705 24.4503C77.1503 25.0421 77.1405 25.9918 76.5487 26.5715L52.0498 50.5715C51.458 51.1513 50.5083 51.1415 49.9285 50.5497C49.3488 49.9579 49.3586 49.0082 49.9504 48.4285L74.4493 24.4285C75.0411 23.8488 75.9908 23.8585 76.5705 24.4503Z" fill="black"/>
<path fill-rule="evenodd" clip-rule="evenodd" d="M68.4393 17.9393C69.0251 17.3536 69.9749 17.3536 70.5607 17.9393L82.0607 29.4393C82.6464 30.0251 82.6464 30.9749 82.0607 31.5607C81.4749 32.1464 80.5251 32.1464 79.9393 31.5607L68.4393 20.0607C67.8536 19.4749 67.8536 18.5251 68.4393 17.9393Z" fill="black"/>
<path fill-rule="evenodd" clip-rule="evenodd" d="M49.9395 57.5607L42.4395 50.0607L44.5608 47.9393L52.0608 55.4393L49.9395 57.5607Z" fill="black"/>
<path fill-rule="evenodd" clip-rule="evenodd" d="M53.9395 54.5607L45.9395 46.5607L48.0608 44.4393L56.0608 52.4393L53.9395 54.5607Z" fill="black"/>
<path fill-rule="evenodd" clip-rule="evenodd" d="M36.5607 63.4393C37.1464 64.0251 37.1464 64.9749 36.5607 65.5607L20.0607 82.0607C19.4749 82.6464 18.5251 82.6464 17.9393 82.0607C17.3536 81.4749 17.3536 80.5251 17.9393 79.9393L34.4393 63.4393C35.0251 62.8536 35.9749 62.8536 36.5607 63.4393Z" fill="black"/>
<path fill-rule="evenodd" clip-rule="evenodd" d="M36.9396 57.4393L39.0609 59.5607L36.1215 62.5L37.0002 63.3787L40.4396 59.9393L42.5609 62.0607L37.0002 67.6213L31.8789 62.5L36.9396 57.4393Z" fill="black"/>
</svg>
