<svg width="80" height="80" viewBox="0 0 80 80" fill="none" xmlns="http://www.w3.org/2000/svg">
<path d="M33.75 71.25H25C24.6685 71.25 24.3505 71.3817 24.1161 71.6161C23.8817 71.8505 23.75 72.1685 23.75 72.5C23.75 72.8315 23.8817 73.1495 24.1161 73.3839C24.3505 73.6183 24.6685 73.75 25 73.75H33.75C34.0815 73.75 34.3995 73.6183 34.6339 73.3839C34.8683 73.1495 35 72.8315 35 72.5C35 72.1685 34.8683 71.8505 34.6339 71.6161C34.3995 71.3817 34.0815 71.25 33.75 71.25Z" fill="url(#paint0_linear)"/>
<path d="M38.75 71.25H37.5C37.1685 71.25 36.8505 71.3817 36.6161 71.6161C36.3817 71.8505 36.25 72.1685 36.25 72.5C36.25 72.8315 36.3817 73.1495 36.6161 73.3839C36.8505 73.6183 37.1685 73.75 37.5 73.75H38.75C39.0815 73.75 39.3995 73.6183 39.6339 73.3839C39.8683 73.1495 40 72.8315 40 72.5C40 72.1685 39.8683 71.8505 39.6339 71.6161C39.3995 71.3817 39.0815 71.25 38.75 71.25Z" fill="url(#paint1_linear)"/>
<path d="M69.1687 56.7938L61.25 48.875V25.8234L64.75 22.3234C64.8873 22.1862 64.9906 22.0187 65.0515 21.8344L67.7031 13.8781C67.7766 13.6579 67.7872 13.4215 67.7339 13.1956C67.6806 12.9696 67.5654 12.763 67.4012 12.5988C67.237 12.4346 67.0304 12.3194 66.8044 12.2661C66.5784 12.2128 66.3421 12.2234 66.1218 12.2969L61.25 13.9203V6.25C61.2482 4.92445 60.7209 3.65369 59.7836 2.71638C58.8463 1.77908 57.5755 1.25174 56.25 1.25H23.75C22.4244 1.25174 21.1537 1.77908 20.2164 2.71638C19.279 3.65369 18.7517 4.92445 18.75 6.25V13.5203L10.8312 21.4391C10.597 21.6735 10.4654 21.9913 10.4654 22.3227C10.4654 22.654 10.597 22.9719 10.8312 23.2063L18.75 31.125V54.1781L12.5984 60.3297C11.7339 61.1961 11.2172 62.3494 11.146 63.5712C11.0749 64.7931 11.4543 65.9986 12.2124 66.9594C12.9705 67.9203 14.0546 68.5697 15.2595 68.7849C16.4643 69 17.7062 68.7657 18.75 68.1266V73.75C18.7517 75.0755 19.279 76.3463 20.2164 77.2836C21.1537 78.2209 22.4244 78.7483 23.75 78.75H56.25C57.5755 78.7483 58.8463 78.2209 59.7836 77.2836C60.7209 76.3463 61.2482 75.0755 61.25 73.75V66.4797L69.1687 58.5609C69.403 58.3265 69.5346 58.0087 69.5346 57.6773C69.5346 57.346 69.403 57.0281 69.1687 56.7938ZM64.5406 15.4594L63.7609 17.7984L62.2015 16.2391L64.5406 15.4594ZM59.5484 17.1219L62.8781 20.4516L62.7734 20.7641L62.0984 21.4391L58.5609 17.9016L59.2359 17.2266L59.5484 17.1219ZM47.9562 35.5812L47.0718 34.6969L57.6781 24.0906C57.7942 23.9745 57.8864 23.8366 57.9492 23.6849C58.0121 23.5331 58.0444 23.3705 58.0444 23.2063C58.0444 23.042 58.0121 22.8794 57.9492 22.7276C57.8864 22.5759 57.7942 22.438 57.6781 22.3219C57.562 22.2057 57.4241 22.1136 57.2723 22.0508C57.1206 21.9879 56.958 21.9556 56.7937 21.9556C56.6295 21.9556 56.4668 21.9879 56.3151 22.0508C56.1634 22.1136 56.0255 22.2057 55.9094 22.3219L45.3031 32.9281L44.4187 32.0453L56.7937 19.6703L60.3297 23.2078L59.1203 24.4172L59.1125 24.425L47.9562 35.5812ZM58.75 28.3234V46.375L49.725 37.35L58.75 28.3234ZM45.85 3.75L45.1469 6.25H34.7265L34.1015 3.75H45.85ZM21.25 6.25C21.2508 5.58723 21.5145 4.95184 21.9832 4.48319C22.4518 4.01454 23.0872 3.75087 23.75 3.75H31.5234L32.5375 7.80312C32.6051 8.07355 32.7611 8.31362 32.9808 8.48518C33.2005 8.65675 33.4712 8.74996 33.75 8.75H46.0937C46.3661 8.75 46.6311 8.66101 46.8483 8.49657C47.0654 8.33214 47.223 8.10126 47.2969 7.83906L48.4468 3.75H56.25C56.9128 3.75087 57.5481 4.01454 58.0168 4.48319C58.4854 4.95184 58.7491 5.58723 58.75 6.25V14.7531L58.1656 14.9484C57.9813 15.0094 57.8138 15.1127 57.6765 15.25L42.6515 30.2766L23.2062 10.8313C22.9718 10.597 22.654 10.4654 22.3226 10.4654C21.9913 10.4654 21.6734 10.597 21.439 10.8313L21.25 11.0203V6.25ZM17.9047 65.6328C17.6725 65.8651 17.3968 66.0494 17.0934 66.1751C16.7901 66.3008 16.4649 66.3656 16.1365 66.3657C15.808 66.3658 15.4828 66.3011 15.1794 66.1755C14.8759 66.0499 14.6002 65.8658 14.3679 65.6336C14.1357 65.4014 13.9514 65.1258 13.8256 64.8224C13.6999 64.519 13.6351 64.1938 13.6351 63.8654C13.635 63.537 13.6996 63.2118 13.8252 62.9083C13.9508 62.6049 14.135 62.3292 14.3672 62.0969L16.1343 60.3281L19.6718 63.8656L17.9047 65.6328ZM17.9031 58.5609L18.7875 57.6781L22.3218 61.2125L21.439 62.0969L17.9031 58.5609ZM32.0453 44.4203L35.5812 47.9563L24.0906 59.4469L20.5547 55.9094L32.0453 44.4203ZM21.25 51.6781V33.625L30.2765 42.6516L21.25 51.6781ZM58.75 73.75C58.7491 74.4128 58.4854 75.0482 58.0168 75.5168C57.5481 75.9855 56.9128 76.2491 56.25 76.25H23.75C23.0872 76.2491 22.4518 75.9855 21.9832 75.5168C21.5145 75.0482 21.2508 74.4128 21.25 73.75V65.8219L37.35 49.725L56.7937 69.1687C57.0281 69.403 57.3459 69.5346 57.6773 69.5346C58.0087 69.5346 58.3265 69.403 58.5609 69.1687L58.75 68.9797V73.75ZM57.6781 66.5172L54.1422 62.9812L55.0265 62.0969C55.2609 61.8623 55.3925 61.5443 55.3923 61.2127C55.3922 60.8812 55.2603 60.5633 55.0258 60.3289C54.9096 60.2129 54.7718 60.1208 54.6201 60.0581C54.4684 59.9953 54.3058 59.9631 54.1416 59.9631C53.8101 59.9633 53.4921 60.0951 53.2578 60.3297L52.375 61.2125L50.6062 59.4453L53.2578 56.7938C53.4823 56.5574 53.6056 56.2427 53.6015 55.9168C53.5973 55.5908 53.466 55.2794 53.2355 55.0489C53.0049 54.8184 52.6935 54.6871 52.3676 54.6829C52.0416 54.6787 51.7269 54.802 51.4906 55.0266L48.839 57.6781L47.0703 55.9094L47.9547 55.0266C48.1892 54.7922 48.3211 54.4743 48.3212 54.1427C48.3214 53.8112 48.1898 53.4931 47.9554 53.2586C47.7211 53.024 47.4032 52.8922 47.0716 52.892C46.7401 52.8919 46.422 53.0235 46.1875 53.2578L45.3031 54.1422L43.5359 52.375L46.1875 49.7234C46.3036 49.6073 46.3957 49.4694 46.4586 49.3177C46.5214 49.1659 46.5538 49.0033 46.5538 48.8391C46.5538 48.6748 46.5214 48.5122 46.4586 48.3604C46.3957 48.2087 46.3036 48.0708 46.1875 47.9547C46.0713 47.8386 45.9335 47.7464 45.7817 47.6836C45.63 47.6207 45.4673 47.5884 45.3031 47.5884C45.1389 47.5884 44.9762 47.6207 44.8245 47.6836C44.6727 47.7464 44.5349 47.8386 44.4187 47.9547L41.7672 50.6063L40 48.8391L40.8843 47.9547C41.0004 47.8386 41.0924 47.7007 41.1552 47.549C41.2179 47.3973 41.2502 47.2347 41.2501 47.0705C41.25 46.9064 41.2176 46.7438 41.1547 46.5922C41.0919 46.4405 40.9997 46.3028 40.8836 46.1867C40.7674 46.0707 40.6296 45.9787 40.4779 45.9159C40.3262 45.8531 40.1636 45.8209 39.9994 45.821C39.8353 45.821 39.6727 45.8534 39.5211 45.9163C39.3694 45.9792 39.2316 46.0714 39.1156 46.1875L38.2328 47.0703C38.2316 47.0701 38.2305 47.0696 38.2297 47.0687L36.464 45.3031L39.1156 42.6516C39.3401 42.4152 39.4634 42.1005 39.4593 41.7746C39.4551 41.4486 39.3238 41.1372 39.0933 40.9067C38.8628 40.6762 38.5513 40.5449 38.2254 40.5407C37.8994 40.5365 37.5847 40.6599 37.3484 40.8844L34.6968 43.5359L32.9328 41.7719C32.9312 41.7703 32.9312 41.7687 32.9297 41.7672L33.8125 40.8844C34.047 40.65 34.1789 40.3321 34.179 40.0006C34.1792 39.669 34.0476 39.351 33.8133 39.1164C33.5789 38.8819 33.261 38.75 32.9294 38.7499C32.5979 38.7497 32.2798 38.8813 32.0453 39.1156L31.1609 40L29.3937 38.2328L32.0453 35.5812C32.2798 35.3467 32.4116 35.0286 32.4116 34.6969C32.4116 34.3652 32.2798 34.0471 32.0453 33.8125C31.8107 33.5779 31.4926 33.4462 31.1609 33.4462C30.8292 33.4462 30.5111 33.5779 30.2765 33.8125L27.625 36.4641L25.8578 34.6969L26.7422 33.8125C26.8582 33.6964 26.9502 33.5585 27.013 33.4068C27.0757 33.2551 27.108 33.0925 27.1079 32.9284C27.1079 32.7642 27.0754 32.6016 27.0126 32.45C26.9497 32.2983 26.8575 32.1606 26.7414 32.0445C26.6252 31.9285 26.4874 31.8365 26.3357 31.7737C26.184 31.711 26.0214 31.6787 25.8572 31.6788C25.6931 31.6788 25.5305 31.7112 25.3789 31.7741C25.2272 31.837 25.0894 31.9292 24.9734 32.0453L24.0906 32.9297L22.3218 31.1609L24.9734 28.5094C25.1979 28.273 25.3213 27.9584 25.3171 27.6324C25.3129 27.3065 25.1816 26.995 24.9511 26.7645C24.7206 26.534 24.4091 26.4027 24.0832 26.3985C23.7572 26.3943 23.4425 26.5177 23.2062 26.7422L20.5547 29.3937L18.7875 27.625L19.6703 26.7422C19.9048 26.5078 20.0367 26.1899 20.0368 25.8584C20.037 25.5268 19.9054 25.2088 19.6711 24.9742C19.4367 24.7397 19.1188 24.6078 18.7872 24.6077C18.4557 24.6075 18.1376 24.7391 17.9031 24.9734L17.0187 25.8578L13.4828 22.3219L19.6703 16.1359L63.864 60.3297L57.6781 66.5172ZM65.6328 58.5609L21.439 14.3672L22.3218 13.4828L41.764 32.925C41.7656 32.9266 41.7656 32.9281 41.7672 32.9297C41.7687 32.9312 41.7703 32.9313 41.7718 32.9328L44.4172 35.5797C44.4187 35.5797 44.4187 35.5797 44.4187 35.5812C44.4187 35.5828 44.4203 35.5812 44.4203 35.5828L47.0687 38.2297C47.0703 38.2313 47.0703 38.2328 47.0718 38.2344C47.0734 38.2359 47.075 38.2359 47.0765 38.2375L59.1109 50.2719C59.1137 50.2763 59.1175 50.28 59.1219 50.2828L66.5172 57.6781L65.6328 58.5609Z" fill="url(#paint2_linear)"/>
<defs>
<linearGradient id="paint0_linear" x1="29.375" y1="71.25" x2="29.375" y2="73.75" gradientUnits="userSpaceOnUse">
<stop stop-color="#006ADA"/>
<stop offset="1" stop-color="#024287"/>
</linearGradient>
<linearGradient id="paint1_linear" x1="38.125" y1="71.25" x2="38.125" y2="73.75" gradientUnits="userSpaceOnUse">
<stop stop-color="#006ADA"/>
<stop offset="1" stop-color="#024287"/>
</linearGradient>
<linearGradient id="paint2_linear" x1="40" y1="1.25" x2="40" y2="78.75" gradientUnits="userSpaceOnUse">
<stop stop-color="#006ADA"/>
<stop offset="1" stop-color="#024287"/>
</linearGradient>
</defs>
</svg>
