<svg width="80" height="80" viewBox="0 0 80 80" fill="none" xmlns="http://www.w3.org/2000/svg">
<path d="M77.5 1.25H2.5C2.16848 1.25 1.85054 1.3817 1.61612 1.61612C1.3817 1.85054 1.25 2.16848 1.25 2.5V10C1.25 10.3315 1.3817 10.6495 1.61612 10.8839C1.85054 11.1183 2.16848 11.25 2.5 11.25H77.5C77.8315 11.25 78.1495 11.1183 78.3839 10.8839C78.6183 10.6495 78.75 10.3315 78.75 10V2.5C78.75 2.16848 78.6183 1.85054 78.3839 1.61612C78.1495 1.3817 77.8315 1.25 77.5 1.25ZM3.75 3.75H16.25V8.75H3.75V3.75ZM76.25 8.75H18.75V3.75H76.25V8.75Z" fill="url(#paint0_linear)"/>
<path d="M6.25 7.5C6.94036 7.5 7.5 6.94036 7.5 6.25C7.5 5.55964 6.94036 5 6.25 5C5.55964 5 5 5.55964 5 6.25C5 6.94036 5.55964 7.5 6.25 7.5Z" fill="url(#paint1_linear)"/>
<path d="M9.84375 7.5C10.5341 7.5 11.0938 6.94036 11.0938 6.25C11.0938 5.55964 10.5341 5 9.84375 5C9.15339 5 8.59375 5.55964 8.59375 6.25C8.59375 6.94036 9.15339 7.5 9.84375 7.5Z" fill="url(#paint2_linear)"/>
<path d="M13.75 7.5C14.4404 7.5 15 6.94036 15 6.25C15 5.55964 14.4404 5 13.75 5C13.0596 5 12.5 5.55964 12.5 6.25C12.5 6.94036 13.0596 7.5 13.75 7.5Z" fill="url(#paint3_linear)"/>
<path d="M12.5 13.75H2.5C2.16848 13.75 1.85054 13.8817 1.61612 14.1161C1.3817 14.3505 1.25 14.6685 1.25 15V77.5C1.25 77.8315 1.3817 78.1495 1.61612 78.3839C1.85054 78.6183 2.16848 78.75 2.5 78.75H12.5C12.8315 78.75 13.1495 78.6183 13.3839 78.3839C13.6183 78.1495 13.75 77.8315 13.75 77.5V15C13.75 14.6685 13.6183 14.3505 13.3839 14.1161C13.1495 13.8817 12.8315 13.75 12.5 13.75ZM6.25 76.25H3.75V73.75H6.25V76.25ZM6.25 71.25H3.75V68.75H6.25V71.25ZM6.25 66.25H3.75V63.75H6.25V66.25ZM6.25 61.25H3.75V58.75H6.25V61.25ZM6.25 56.25H3.75V53.75H6.25V56.25ZM6.25 51.25H3.75V48.75H6.25V51.25ZM6.25 46.25H3.75V43.75H6.25V46.25ZM6.25 41.25H3.75V38.75H6.25V41.25ZM6.25 36.25H3.75V33.75H6.25V36.25ZM6.25 31.25H3.75V28.75H6.25V31.25ZM6.25 26.25H3.75V23.75H6.25V26.25ZM11.25 76.25H8.75V73.75H11.25V76.25ZM11.25 71.25H8.75V68.75H11.25V71.25ZM11.25 66.25H8.75V63.75H11.25V66.25ZM11.25 61.25H8.75V58.75H11.25V61.25ZM11.25 56.25H8.75V53.75H11.25V56.25ZM11.25 51.25H8.75V48.75H11.25V51.25ZM11.25 46.25H8.75V43.75H11.25V46.25ZM11.25 41.25H8.75V38.75H11.25V41.25ZM11.25 36.25H8.75V33.75H11.25V36.25ZM11.25 31.25H8.75V28.75H11.25V31.25ZM11.25 26.25H8.75V23.75H11.25V26.25ZM11.25 21.25H3.75V16.25H11.25V21.25Z" fill="url(#paint4_linear)"/>
<path d="M77.5 13.75H17.5C17.1685 13.75 16.8505 13.8817 16.6161 14.1161C16.3817 14.3505 16.25 14.6685 16.25 15V77.5C16.25 77.8315 16.3817 78.1495 16.6161 78.3839C16.8505 78.6183 17.1685 78.75 17.5 78.75H77.5C77.8315 78.75 78.1495 78.6183 78.3839 78.3839C78.6183 78.1495 78.75 77.8315 78.75 77.5V15C78.75 14.6685 78.6183 14.3505 78.3839 14.1161C78.1495 13.8817 77.8315 13.75 77.5 13.75ZM76.25 76.25H18.75V30H20C20.3315 30 20.6495 29.8683 20.8839 29.6339C21.1183 29.3995 21.25 29.0815 21.25 28.75C21.25 28.4185 21.1183 28.1005 20.8839 27.8661C20.6495 27.6317 20.3315 27.5 20 27.5H18.75V16.25H76.25V76.25Z" fill="url(#paint5_linear)"/>
<path d="M41.7064 45.638C41.7566 45.8554 41.8641 46.0554 42.0176 46.2173C42.1712 46.3792 42.3653 46.497 42.5798 46.5585C42.7943 46.62 43.0213 46.623 43.2374 46.5671C43.4534 46.5112 43.6505 46.3986 43.8083 46.2408L45.5761 44.473L51.7636 50.6605C51.8797 50.7766 52.0175 50.8687 52.1692 50.9315C52.3209 50.9944 52.4834 51.0267 52.6476 51.0267C52.8118 51.0267 52.9744 50.9944 53.126 50.9315C53.2777 50.8687 53.4155 50.7766 53.5316 50.6605L57.0666 47.125C57.1827 47.0089 57.2748 46.8711 57.3376 46.7195C57.4005 46.5678 57.4328 46.4052 57.4328 46.241C57.4328 46.0769 57.4005 45.9143 57.3376 45.7626C57.2748 45.6109 57.1827 45.4731 57.0666 45.3571L50.8791 39.1696L52.6469 37.4017C52.8047 37.244 52.9174 37.0468 52.9732 36.8308C53.0291 36.6148 53.0261 36.3877 52.9646 36.1733C52.9031 35.9588 52.7853 35.7647 52.6234 35.6111C52.4615 35.4575 52.2615 35.35 52.0441 35.2999L40.5538 32.6485C40.3472 32.6008 40.1319 32.6064 39.9281 32.6649C39.7243 32.7233 39.5387 32.8327 39.3888 32.9826C39.2389 33.1325 39.1296 33.3181 39.0711 33.5219C39.0127 33.7256 39.007 33.941 39.0547 34.1475L41.7064 45.638ZM49.2846 37.2291L48.2275 38.2858C48.1114 38.4019 48.0193 38.5397 47.9565 38.6914C47.8937 38.843 47.8613 39.0056 47.8613 39.1698C47.8613 39.334 47.8937 39.4965 47.9565 39.6482C48.0193 39.7999 48.1114 39.9377 48.2275 40.0538L54.415 46.2413L52.6472 48.0091L46.4597 41.8216C46.3436 41.7055 46.2058 41.6134 46.0542 41.5505C45.9025 41.4877 45.7399 41.4554 45.5757 41.4554C45.4116 41.4554 45.249 41.4877 45.0973 41.5505C44.9456 41.6134 44.8078 41.7055 44.6918 41.8216L43.635 42.8786L41.9402 35.5349L49.2846 37.2291Z" fill="url(#paint6_linear)"/>
<path d="M35 33.75C34.6685 33.75 34.3505 33.8817 34.1161 34.1161C33.8817 34.3505 33.75 34.6685 33.75 35V40C33.75 40.3315 33.8817 40.6495 34.1161 40.8839C34.3505 41.1183 34.6685 41.25 35 41.25C35.3315 41.25 35.6495 41.1183 35.8839 40.8839C36.1183 40.6495 36.25 40.3315 36.25 40V35C36.25 34.6685 36.1183 34.3505 35.8839 34.1161C35.6495 33.8817 35.3315 33.75 35 33.75Z" fill="url(#paint7_linear)"/>
<path d="M36.25 26.25C36.25 25.9185 36.1183 25.6005 35.8839 25.3661C35.6495 25.1317 35.3315 25 35 25C34.6685 25 34.3505 25.1317 34.1161 25.3661C33.8817 25.6005 33.75 25.9185 33.75 26.25V27.5H32.5C32.1685 27.5 31.8505 27.6317 31.6161 27.8661C31.3817 28.1005 31.25 28.4185 31.25 28.75C31.25 29.0815 31.3817 29.3995 31.6161 29.6339C31.8505 29.8683 32.1685 30 32.5 30H33.75V31.25C33.75 31.5815 33.8817 31.8995 34.1161 32.1339C34.3505 32.3683 34.6685 32.5 35 32.5C35.3315 32.5 35.6495 32.3683 35.8839 32.1339C36.1183 31.8995 36.25 31.5815 36.25 31.25V30H37.5C37.8315 30 38.1495 29.8683 38.3839 29.6339C38.6183 29.3995 38.75 29.0815 38.75 28.75C38.75 28.4185 38.6183 28.1005 38.3839 27.8661C38.1495 27.6317 37.8315 27.5 37.5 27.5H36.25V26.25Z" fill="url(#paint8_linear)"/>
<path d="M36.25 17.5V22.5C36.25 22.8315 36.1183 23.1495 35.8839 23.3839C35.6495 23.6183 35.3315 23.75 35 23.75C34.6685 23.75 34.3505 23.6183 34.1161 23.3839C33.8817 23.1495 33.75 22.8315 33.75 22.5V17.5C33.75 17.1685 33.8817 16.8505 34.1161 16.6161C34.3505 16.3817 34.6685 16.25 35 16.25C35.3315 16.25 35.6495 16.3817 35.8839 16.6161C36.1183 16.8505 36.25 17.1685 36.25 17.5Z" fill="url(#paint9_linear)"/>
<path d="M35 51.25C34.6685 51.25 34.3505 51.3817 34.1161 51.6161C33.8817 51.8505 33.75 52.1685 33.75 52.5V57.5C33.75 57.8315 33.8817 58.1495 34.1161 58.3839C34.3505 58.6183 34.6685 58.75 35 58.75C35.3315 58.75 35.6495 58.6183 35.8839 58.3839C36.1183 58.1495 36.25 57.8315 36.25 57.5V52.5C36.25 52.1685 36.1183 51.8505 35.8839 51.6161C35.6495 51.3817 35.3315 51.25 35 51.25Z" fill="url(#paint10_linear)"/>
<path d="M35 42.5C34.6685 42.5 34.3505 42.6317 34.1161 42.8661C33.8817 43.1005 33.75 43.4185 33.75 43.75V48.75C33.75 49.0815 33.8817 49.3995 34.1161 49.6339C34.3505 49.8683 34.6685 50 35 50C35.3315 50 35.6495 49.8683 35.8839 49.6339C36.1183 49.3995 36.25 49.0815 36.25 48.75V43.75C36.25 43.4185 36.1183 43.1005 35.8839 42.8661C35.6495 42.6317 35.3315 42.5 35 42.5Z" fill="url(#paint11_linear)"/>
<path d="M36.25 75V70C36.25 69.6685 36.1183 69.3505 35.8839 69.1161C35.6495 68.8817 35.3315 68.75 35 68.75C34.6685 68.75 34.3505 68.8817 34.1161 69.1161C33.8817 69.3505 33.75 69.6685 33.75 70V75C33.75 75.3315 33.8817 75.6495 34.1161 75.8839C34.3505 76.1183 34.6685 76.25 35 76.25C35.3315 76.25 35.6495 76.1183 35.8839 75.8839C36.1183 75.6495 36.25 75.3315 36.25 75Z" fill="url(#paint12_linear)"/>
<path d="M35 60C34.6685 60 34.3505 60.1317 34.1161 60.3661C33.8817 60.6005 33.75 60.9185 33.75 61.25V66.25C33.75 66.5815 33.8817 66.8995 34.1161 67.1339C34.3505 67.3683 34.6685 67.5 35 67.5C35.3315 67.5 35.6495 67.3683 35.8839 67.1339C36.1183 66.8995 36.25 66.5815 36.25 66.25V61.25C36.25 60.9185 36.1183 60.6005 35.8839 60.3661C35.6495 60.1317 35.3315 60 35 60Z" fill="url(#paint13_linear)"/>
<path d="M50 30H55C55.3315 30 55.6495 29.8683 55.8839 29.6339C56.1183 29.3995 56.25 29.0815 56.25 28.75C56.25 28.4185 56.1183 28.1005 55.8839 27.8661C55.6495 27.6317 55.3315 27.5 55 27.5H50C49.6685 27.5 49.3505 27.6317 49.1161 27.8661C48.8817 28.1005 48.75 28.4185 48.75 28.75C48.75 29.0815 48.8817 29.3995 49.1161 29.6339C49.3505 29.8683 49.6685 30 50 30Z" fill="url(#paint14_linear)"/>
<path d="M58.75 30H63.75C64.0815 30 64.3995 29.8683 64.6339 29.6339C64.8683 29.3995 65 29.0815 65 28.75C65 28.4185 64.8683 28.1005 64.6339 27.8661C64.3995 27.6317 64.0815 27.5 63.75 27.5H58.75C58.4185 27.5 58.1005 27.6317 57.8661 27.8661C57.6317 28.1005 57.5 28.4185 57.5 28.75C57.5 29.0815 57.6317 29.3995 57.8661 29.6339C58.1005 29.8683 58.4185 30 58.75 30Z" fill="url(#paint15_linear)"/>
<path d="M67.5 30H73.75C74.0815 30 74.3995 29.8683 74.6339 29.6339C74.8683 29.3995 75 29.0815 75 28.75C75 28.4185 74.8683 28.1005 74.6339 27.8661C74.3995 27.6317 74.0815 27.5 73.75 27.5H67.5C67.1685 27.5 66.8505 27.6317 66.6161 27.8661C66.3817 28.1005 66.25 28.4185 66.25 28.75C66.25 29.0815 66.3817 29.3995 66.6161 29.6339C66.8505 29.8683 67.1685 30 67.5 30Z" fill="url(#paint16_linear)"/>
<path d="M41.25 30H46.25C46.5815 30 46.8995 29.8683 47.1339 29.6339C47.3683 29.3995 47.5 29.0815 47.5 28.75C47.5 28.4185 47.3683 28.1005 47.1339 27.8661C46.8995 27.6317 46.5815 27.5 46.25 27.5H41.25C40.9185 27.5 40.6005 27.6317 40.3661 27.8661C40.1317 28.1005 40 28.4185 40 28.75C40 29.0815 40.1317 29.3995 40.3661 29.6339C40.6005 29.8683 40.9185 30 41.25 30Z" fill="url(#paint17_linear)"/>
<path d="M28.75 27.5H23.75C23.4185 27.5 23.1005 27.6317 22.8661 27.8661C22.6317 28.1005 22.5 28.4185 22.5 28.75C22.5 29.0815 22.6317 29.3995 22.8661 29.6339C23.1005 29.8683 23.4185 30 23.75 30H28.75C29.0815 30 29.3995 29.8683 29.6339 29.6339C29.8683 29.3995 30 29.0815 30 28.75C30 28.4185 29.8683 28.1005 29.6339 27.8661C29.3995 27.6317 29.0815 27.5 28.75 27.5Z" fill="url(#paint18_linear)"/>
<defs>
<linearGradient id="paint0_linear" x1="40" y1="1.25" x2="40" y2="11.25" gradientUnits="userSpaceOnUse">
<stop stop-color="#006ADA"/>
<stop offset="1" stop-color="#024287"/>
</linearGradient>
<linearGradient id="paint1_linear" x1="6.25" y1="5" x2="6.25" y2="7.5" gradientUnits="userSpaceOnUse">
<stop stop-color="#006ADA"/>
<stop offset="1" stop-color="#024287"/>
</linearGradient>
<linearGradient id="paint2_linear" x1="9.84375" y1="5" x2="9.84375" y2="7.5" gradientUnits="userSpaceOnUse">
<stop stop-color="#006ADA"/>
<stop offset="1" stop-color="#024287"/>
</linearGradient>
<linearGradient id="paint3_linear" x1="13.75" y1="5" x2="13.75" y2="7.5" gradientUnits="userSpaceOnUse">
<stop stop-color="#006ADA"/>
<stop offset="1" stop-color="#024287"/>
</linearGradient>
<linearGradient id="paint4_linear" x1="7.5" y1="13.75" x2="7.5" y2="78.75" gradientUnits="userSpaceOnUse">
<stop stop-color="#006ADA"/>
<stop offset="1" stop-color="#024287"/>
</linearGradient>
<linearGradient id="paint5_linear" x1="47.5" y1="13.75" x2="47.5" y2="78.75" gradientUnits="userSpaceOnUse">
<stop stop-color="#006ADA"/>
<stop offset="1" stop-color="#024287"/>
</linearGradient>
<linearGradient id="paint6_linear" x1="48.2278" y1="32.6165" x2="48.2278" y2="51.0267" gradientUnits="userSpaceOnUse">
<stop stop-color="#006ADA"/>
<stop offset="1" stop-color="#024287"/>
</linearGradient>
<linearGradient id="paint7_linear" x1="35" y1="33.75" x2="35" y2="41.25" gradientUnits="userSpaceOnUse">
<stop stop-color="#006ADA"/>
<stop offset="1" stop-color="#024287"/>
</linearGradient>
<linearGradient id="paint8_linear" x1="35" y1="25" x2="35" y2="32.5" gradientUnits="userSpaceOnUse">
<stop stop-color="#006ADA"/>
<stop offset="1" stop-color="#024287"/>
</linearGradient>
<linearGradient id="paint9_linear" x1="35" y1="16.25" x2="35" y2="23.75" gradientUnits="userSpaceOnUse">
<stop stop-color="#006ADA"/>
<stop offset="1" stop-color="#024287"/>
</linearGradient>
<linearGradient id="paint10_linear" x1="35" y1="51.25" x2="35" y2="58.75" gradientUnits="userSpaceOnUse">
<stop stop-color="#006ADA"/>
<stop offset="1" stop-color="#024287"/>
</linearGradient>
<linearGradient id="paint11_linear" x1="35" y1="42.5" x2="35" y2="50" gradientUnits="userSpaceOnUse">
<stop stop-color="#006ADA"/>
<stop offset="1" stop-color="#024287"/>
</linearGradient>
<linearGradient id="paint12_linear" x1="35" y1="68.75" x2="35" y2="76.25" gradientUnits="userSpaceOnUse">
<stop stop-color="#006ADA"/>
<stop offset="1" stop-color="#024287"/>
</linearGradient>
<linearGradient id="paint13_linear" x1="35" y1="60" x2="35" y2="67.5" gradientUnits="userSpaceOnUse">
<stop stop-color="#006ADA"/>
<stop offset="1" stop-color="#024287"/>
</linearGradient>
<linearGradient id="paint14_linear" x1="52.5" y1="27.5" x2="52.5" y2="30" gradientUnits="userSpaceOnUse">
<stop stop-color="#006ADA"/>
<stop offset="1" stop-color="#024287"/>
</linearGradient>
<linearGradient id="paint15_linear" x1="61.25" y1="27.5" x2="61.25" y2="30" gradientUnits="userSpaceOnUse">
<stop stop-color="#006ADA"/>
<stop offset="1" stop-color="#024287"/>
</linearGradient>
<linearGradient id="paint16_linear" x1="70.625" y1="27.5" x2="70.625" y2="30" gradientUnits="userSpaceOnUse">
<stop stop-color="#006ADA"/>
<stop offset="1" stop-color="#024287"/>
</linearGradient>
<linearGradient id="paint17_linear" x1="43.75" y1="27.5" x2="43.75" y2="30" gradientUnits="userSpaceOnUse">
<stop stop-color="#006ADA"/>
<stop offset="1" stop-color="#024287"/>
</linearGradient>
<linearGradient id="paint18_linear" x1="26.25" y1="27.5" x2="26.25" y2="30" gradientUnits="userSpaceOnUse">
<stop stop-color="#006ADA"/>
<stop offset="1" stop-color="#024287"/>
</linearGradient>
</defs>
</svg>
