<svg width="80" height="80" viewBox="0 0 80 80" fill="none" xmlns="http://www.w3.org/2000/svg">
<path d="M40.1479 52.1871C39.285 52.1871 38.5854 52.8868 38.5854 53.7496C38.5854 54.6124 39.285 55.3121 40.1479 55.3121H40.1628C41.0257 55.3121 41.7178 54.6124 41.7178 53.7496C41.7178 52.8868 41.0109 52.1871 40.1479 52.1871Z" fill="#006ADA"/>
<path d="M73.4375 3.12463H6.5625C2.94391 3.12463 0 6.06854 0 9.68713V53.7496C0 58.0574 3.50469 61.5621 7.8125 61.5621H31.5625V67.5003H29.375C25.7564 67.5003 22.8125 70.4442 22.8125 74.0628V75.3128C22.8125 76.1756 23.512 76.8753 24.375 76.8753H51.4062C51.4531 76.8753 51.4992 76.8723 51.545 76.8682C51.6286 76.8717 73.8281 76.8746 73.8281 76.8746C77.2312 76.8746 80 74.1059 80 70.7028V66.8746V9.68713C80 6.06854 77.0561 3.12463 73.4375 3.12463ZM7.8125 58.4371C5.22781 58.4371 3.125 56.3343 3.125 53.7496V49.0628H45.625V58.4371H33.125H7.8125ZM45.625 61.5621V67.5003H34.6875V61.5621H45.625ZM25.9516 73.7503C26.11 72.0007 27.5848 70.6253 29.375 70.6253H33.125H45.625V70.7028C45.625 71.8107 45.92 72.8504 46.4331 73.7503H25.9516ZM76.875 70.7028C76.875 72.3828 75.5081 73.7496 73.8281 73.7496H51.7969C50.1169 73.7496 48.75 72.3828 48.75 70.7028V69.0628V68.4371H76.875V70.7028ZM76.875 65.3121H48.75V59.9996V38.457H76.875V65.3121ZM76.875 35.332H48.75V32.4215C48.75 30.7415 50.1169 29.3746 51.7969 29.3746H73.8281C75.5081 29.3746 76.875 30.7415 76.875 32.4215V35.332ZM76.875 27.0574C75.9753 26.5445 74.9358 26.2496 73.8281 26.2496H51.7969C50.2253 26.2496 48.7898 26.841 47.6991 27.8117H39.2978C38.4348 27.8117 37.7353 28.5113 37.7353 29.3742C37.7353 30.237 38.4348 30.9367 39.2978 30.9367H45.8067C45.6887 31.4126 45.625 31.9096 45.625 32.4215V45.9378H3.125V9.68713C3.125 7.79166 4.66703 6.24963 6.5625 6.24963H73.4375C75.333 6.24963 76.875 7.79166 76.875 9.68713V27.0574Z" fill="#006ADA"/>
<path d="M66.6863 30.7809H58.9517C58.0887 30.7809 57.3892 31.4806 57.3892 32.3434C57.3892 33.2062 58.0887 33.9059 58.9517 33.9059H66.6863C67.5493 33.9059 68.2488 33.2062 68.2488 32.3434C68.2488 31.4806 67.5493 30.7809 66.6863 30.7809Z" fill="#006ADA"/>
<path d="M62.8226 69.5309H62.8022C61.9393 69.5309 61.2397 70.2306 61.2397 71.0934C61.2397 71.9562 61.9393 72.6559 62.8022 72.6559H62.8226C63.6855 72.6559 64.3851 71.9562 64.3851 71.0934C64.3851 70.2306 63.6855 69.5309 62.8226 69.5309Z" fill="#006ADA"/>
<path d="M53.8874 51.8847L56.7571 49.0151C57.3672 48.405 57.3672 47.4156 56.7571 46.8053C56.1469 46.1953 55.1576 46.1953 54.5472 46.8053L50.5727 50.7798C49.9627 51.39 49.9627 52.3793 50.5729 52.9895L54.5474 56.964C54.8526 57.269 55.2524 57.4217 55.6522 57.4217C56.0521 57.4217 56.4521 57.269 56.7571 56.964C57.3672 56.3539 57.3672 55.3645 56.7571 54.7542L53.8874 51.8847Z" fill="#006ADA"/>
<path d="M75.0522 50.7794L71.0776 46.8049C70.4675 46.1949 69.4781 46.1949 68.8678 46.8049C68.2576 47.4151 68.2576 48.4044 68.8678 49.0148L71.7375 51.8843L68.8678 54.7538C68.2579 55.3643 68.2579 56.3537 68.8679 56.9638C69.1731 57.2688 69.5729 57.4215 69.9728 57.4215C70.3726 57.4215 70.7726 57.2688 71.0776 56.9638L75.0522 52.9893C75.6623 52.3791 75.6623 51.3898 75.0522 50.7794Z" fill="#006ADA"/>
<path d="M66.4101 45.7628C65.6662 45.3255 64.7085 45.5742 64.2714 46.3183L58.6595 55.8675C58.2223 56.6116 58.4709 57.5691 59.215 58.0063C59.4636 58.1525 59.7361 58.2221 60.0051 58.2221C60.5409 58.2221 61.0626 57.9461 61.3537 57.4508L66.9656 47.9016C67.4028 47.1575 67.1542 46.2 66.4101 45.7628Z" fill="#006ADA"/>
<path d="M36.8192 20.312H15C14.137 20.312 13.4375 21.0117 13.4375 21.8745C13.4375 22.7373 14.137 23.437 15 23.437H36.8192C37.6822 23.437 38.3817 22.7373 38.3817 21.8745C38.3817 21.0117 37.6822 20.312 36.8192 20.312Z" fill="#006ADA"/>
<path d="M64.9997 20.312H44.3511C43.4881 20.312 42.7886 21.0117 42.7886 21.8745C42.7886 22.7373 43.4881 23.437 44.3511 23.437H64.9997C65.8626 23.437 66.5622 22.7373 66.5622 21.8745C66.5622 21.0117 65.8626 20.312 64.9997 20.312Z" fill="#006ADA"/>
<path d="M50.7156 12.8124H15C14.137 12.8124 13.4375 13.5121 13.4375 14.3749C13.4375 15.2377 14.137 15.9374 15 15.9374H50.7156C51.5786 15.9374 52.2781 15.2377 52.2781 14.3749C52.2781 13.5121 51.5786 12.8124 50.7156 12.8124Z" fill="#006ADA"/>
<path d="M65.0001 12.8124H58.769C57.9061 12.8124 57.2065 13.5121 57.2065 14.3749C57.2065 15.2377 57.9061 15.9374 58.769 15.9374H65.0001C65.8631 15.9374 66.5626 15.2377 66.5626 14.3749C66.5626 13.5121 65.8631 12.8124 65.0001 12.8124Z" fill="#006ADA"/>
<path d="M42.0158 35.3104H35.7847C34.9219 35.3104 34.2222 36.0101 34.2222 36.8729C34.2222 37.7357 34.9217 38.4354 35.7847 38.4354H42.0158C42.8787 38.4354 43.5783 37.7357 43.5783 36.8729C43.5783 36.0101 42.8787 35.3104 42.0158 35.3104Z" fill="#006ADA"/>
<path d="M27.1355 35.3125H15C14.137 35.3125 13.4375 36.0122 13.4375 36.875C13.4375 37.7378 14.137 38.4375 15 38.4375H27.1355C27.9984 38.4375 28.698 37.7378 28.698 36.875C28.698 36.0122 27.9984 35.3125 27.1355 35.3125Z" fill="#006ADA"/>
<path d="M27.7702 27.8118H15C14.137 27.8118 13.4375 28.5115 13.4375 29.3743C13.4375 30.2371 14.137 30.9368 15 30.9368H27.7702C28.6331 30.9368 29.3327 30.2371 29.3327 29.3743C29.3327 28.5115 28.6331 27.8118 27.7702 27.8118Z" fill="#006ADA"/>
<path d="M34.8483 28.2687C34.5577 27.9781 34.1546 27.8109 33.7437 27.8109C33.3327 27.8109 32.9296 27.9779 32.639 28.2687C32.3483 28.5609 32.1812 28.9623 32.1812 29.375C32.1812 29.7859 32.3483 30.1875 32.639 30.4795C32.9296 30.7701 33.3327 30.9375 33.7437 30.9375C34.1546 30.9375 34.5577 30.7703 34.8483 30.4795C35.139 30.1875 35.3062 29.7859 35.3062 29.375C35.3062 28.9623 35.139 28.5609 34.8483 28.2687Z" fill="#006ADA"/>
</svg>
