<svg width="64" height="64" viewBox="0 0 64 64" fill="none" xmlns="http://www.w3.org/2000/svg">
<path d="M39.5 43.25C38.8101 43.25 38.25 43.8101 38.25 44.5C38.25 45.1899 38.8101 45.75 39.5 45.75C40.1899 45.75 40.75 45.1899 40.75 44.5C40.75 43.8101 40.1899 43.25 39.5 43.25Z" fill="#006ADA"/>
<path d="M57.75 0H6.25C2.80371 0 0 2.80371 0 6.25V44.5C0 47.9463 2.80371 50.75 6.25 50.75H25.75V56.5H24.5C22.8311 56.5 21.2622 57.1504 20.0811 58.3311C18.9004 59.5122 18.25 61.0811 18.25 62.75C18.25 63.4404 18.8096 64 19.5 64H44.5C45.1904 64 45.75 63.4404 45.75 62.75C45.75 59.3037 42.9463 56.5 39.5 56.5H38.25V50.75H57.75C61.1963 50.75 64 47.9463 64 44.5V6.25C64 2.80371 61.1963 0 57.75 0ZM6.25 2.5H57.75C59.8179 2.5 61.5 4.18213 61.5 6.25V38.25H55.75V9.5C55.75 8.80957 55.1904 8.25 54.5 8.25H44.5C43.8096 8.25 43.25 8.80957 43.25 9.5V38.25H36.9932C36.98 36.957 36.9463 35.6826 36.8926 34.4463C36.6738 29.3555 36.1753 25.9453 35.916 24.4453C38.4951 22.5464 39.1992 19.0269 37.6226 16.2925L33.29 8.78857C33.0664 8.40186 32.6538 8.16357 32.2075 8.16357C31.7607 8.16357 31.3481 8.40186 31.125 8.78857L26.7905 16.293C25.3042 18.8711 25.8311 22.2104 28.166 24.1812C27.8955 25.6768 27.3496 29.209 27.1123 34.4438C27.0562 35.6934 27.0205 36.9688 27.0068 38.25H20.75V19.5C20.75 19.3018 20.7031 19.1211 20.6265 18.9604C20.623 18.9541 20.6211 18.9473 20.6182 18.9409L15.6182 8.94092C15.4062 8.51758 14.9736 8.25 14.5 8.25C14.0264 8.25 13.5938 8.51758 13.3818 8.94092L8.38184 18.9409C8.37891 18.9473 8.37695 18.9541 8.37402 18.9604C8.2959 19.1226 8.25 19.3062 8.25 19.5V38.25H2.5V6.25C2.5 4.18213 4.18213 2.5 6.25 2.5ZM45.75 38.25V10.75H53.25V13.25H52C51.3096 13.25 50.75 13.8096 50.75 14.5C50.75 15.1904 51.3096 15.75 52 15.75H53.25V19.5H52C51.3096 19.5 50.75 20.0596 50.75 20.75C50.75 21.4404 51.3096 22 52 22H53.25V25.75H52C51.3096 25.75 50.75 26.3096 50.75 27C50.75 27.6904 51.3096 28.25 52 28.25H53.25V33.25H52C51.3096 33.25 50.75 33.8096 50.75 34.5C50.75 35.1904 51.3096 35.75 52 35.75H53.25V38.25H45.75ZM32.2075 25.6636C32.6616 25.6636 33.1138 25.6113 33.5562 25.5137C33.7881 27.0005 34.1289 29.6313 34.3306 33.25H29.6777C29.8892 29.6338 30.2461 26.9619 30.4927 25.4248C31.0464 25.5825 31.623 25.6636 32.2075 25.6636ZM32.2075 23.1636C29.3506 23.1636 27.5083 20.0542 28.9561 17.5425L32.2075 11.9136L35.457 17.542C36.8994 20.0435 35.0825 23.1636 32.2075 23.1636ZM29.563 35.75H34.4404C34.4668 36.5713 34.4849 37.4067 34.4937 38.25H29.5068C29.5161 37.4121 29.5352 36.5767 29.563 35.75ZM15.75 38.25V20.75H18.25V38.25H15.75ZM10.75 38.25V20.75H13.25V38.25H10.75ZM11.5225 18.25L14.5 12.2949L17.4775 18.25H11.5225ZM43.0356 61.5H20.9629C21.1465 60.979 21.4463 60.5015 21.8486 60.0986C22.5576 59.3901 23.499 59 24.5 59H39.5C41.1299 59 42.52 60.0449 43.0356 61.5ZM35.75 56.5H28.25V50.75H35.75V56.5ZM57.75 48.25H6.25C4.18213 48.25 2.5 46.5679 2.5 44.5V40.75H61.5V44.5C61.5 46.5679 59.8179 48.25 57.75 48.25Z" fill="#006ADA"/>
<path d="M34.5 43.25H27C26.3096 43.25 25.75 43.8096 25.75 44.5C25.75 45.1904 26.3096 45.75 27 45.75H34.5C35.1904 45.75 35.75 45.1904 35.75 44.5C35.75 43.8096 35.1904 43.25 34.5 43.25Z" fill="#006ADA"/>
</svg>
