<svg width="60" height="60" viewBox="0 0 60 60" fill="none" xmlns="http://www.w3.org/2000/svg">
<g clip-path="url(#clip0)">
<path d="M58.2471 15.111L32.4679 0.641587C30.9464 -0.213862 29.089 -0.213862 27.5681 0.641587L1.7884 15.111C0.726413 15.7042 0.127794 16.8795 0.272322 18.087C0.41685 19.295 1.27669 20.2954 2.44854 20.6211C2.71611 20.6919 2.9915 20.729 3.26835 20.731C3.78103 20.7324 4.28492 20.5977 4.72827 20.3408L30.0177 6.15123L55.3072 20.3408C56 20.7329 56.8203 20.834 57.5874 20.6211C58.7593 20.2954 59.6186 19.295 59.7631 18.087C59.9081 16.8795 59.309 15.7042 58.2471 15.111ZM57.647 18.2208C57.376 18.7007 56.7676 18.8707 56.2871 18.6011L31.0177 4.40127C30.3991 4.04385 29.6364 4.04385 29.0177 4.40127L3.74832 18.6011C3.26542 18.877 2.64971 18.709 2.37335 18.2261C2.09748 17.7428 2.26544 17.127 2.74834 16.8512L28.548 2.38129C29.4606 1.86812 30.5748 1.86812 31.4879 2.38129L57.2671 16.8512C57.5005 16.9811 57.6719 17.1993 57.7432 17.4566C57.8144 17.7139 57.7798 17.9893 57.647 18.2208Z" fill="#006ADA"/>
<path d="M6.01853 22.4707C5.4663 22.4707 5.01855 22.9184 5.01855 23.4707V59.0001C5.01855 59.5523 5.4663 60.0001 6.01853 60.0001C6.57076 60.0001 7.01851 59.5523 7.01851 59.0001V23.4707C7.01851 22.9184 6.57076 22.4707 6.01853 22.4707Z" fill="#006ADA"/>
<path d="M54.0176 22.4707C53.4653 22.4707 53.0176 22.9184 53.0176 23.4707V59.0001C53.0176 59.5523 53.4653 60.0001 54.0176 60.0001C54.5698 60.0001 55.0175 59.5523 55.0175 59.0001V23.4707C55.0175 22.9184 54.5698 22.4707 54.0176 22.4707Z" fill="#006ADA"/>
<path d="M50.0176 21.001H10.0185C9.4663 21.001 9.01855 21.4487 9.01855 22.001V59.0001C9.01855 59.5523 9.4663 60 10.0185 60C10.5708 60 11.0185 59.5523 11.0185 59.0001V27.0008H49.0176V59.0001C49.0176 59.5523 49.4654 60 50.0176 60C50.5698 60 51.0176 59.5523 51.0176 59.0001V22.001C51.0176 21.4487 50.5698 21.001 50.0176 21.001ZM11.0185 25.0009V23.0009H49.0176V25.0009H11.0185Z" fill="#006ADA"/>
<path d="M38.0172 15.0012C38.5694 15.0012 39.0172 14.5534 39.0172 14.0012C39.0172 13.449 38.5694 13.0012 38.0172 13.0012H22.0176C21.4653 13.0012 21.0176 13.449 21.0176 14.0012V18.0011C21.0176 18.5533 21.4653 19.0011 22.0176 19.0011H38.0172C38.5694 19.0011 39.0172 18.5533 39.0172 18.0011C39.0172 17.4489 38.5694 17.0011 38.0172 17.0011H23.0175V15.0012H38.0172Z" fill="#006ADA"/>
<path d="M46.0178 54.0003H45.0178V43.0005C45.0178 42.4483 44.5701 42.0006 44.0178 42.0006H41.0179V31.0008C41.0179 30.4486 40.5702 30.0009 40.0179 30.0009H26.0183C25.466 30.0009 25.0183 30.4486 25.0183 31.0008V36.0007H20.0184C19.4662 36.0007 19.0184 36.4485 19.0184 37.0007V42.0006H16.0185C15.4663 42.0006 15.0185 42.4483 15.0185 43.0005V54.0003H14.0185C13.4663 54.0003 13.0186 54.448 13.0186 55.0002V59.0001C13.0186 59.5524 13.4663 60.0001 14.0185 60.0001C14.5708 60.0001 15.0185 59.5524 15.0185 59.0001V56.0002H18.0184V59.0001C18.0184 59.5524 18.4662 60.0001 19.0184 60.0001C19.5706 60.0001 20.0184 59.5524 20.0184 59.0001V56.0002H22.0183V59.0001C22.0183 59.5524 22.4661 60.0001 23.0183 60.0001C23.5706 60.0001 24.0183 59.5524 24.0183 59.0001V56.0002H27.0182V59.0001C27.0182 59.5524 27.466 60.0001 28.0182 60.0001C28.5704 60.0001 29.0182 59.5524 29.0182 59.0001V56.0002H31.0181V59.0001C31.0181 59.5524 31.4659 60.0001 32.0181 60.0001C32.5703 60.0001 33.0181 59.5524 33.0181 59.0001V56.0002H36.018V59.0001C36.018 59.5524 36.4658 60.0001 37.018 60.0001C37.5702 60.0001 38.018 59.5524 38.018 59.0001V56.0002H40.0179V59.0001C40.0179 59.5524 40.4657 60.0001 41.0179 60.0001C41.5701 60.0001 42.0179 59.5524 42.0179 59.0001V56.0002H45.0178V59.0001C45.0178 59.5524 45.4656 60.0001 46.0178 60.0001C46.57 60.0001 47.0178 59.5524 47.0178 59.0001V55.0002C47.0178 54.448 46.57 54.0003 46.0178 54.0003ZM36.018 44.0005H38.018V46.0005H36.018V44.0005ZM34.0181 32.0008V34.0008H32.0181V32.0008H34.0181ZM27.0182 32.0008H30.0182V35.0007C30.0182 35.553 30.4659 36.0007 31.0181 36.0007H35.018C35.5703 36.0007 36.018 35.553 36.018 35.0007V32.0008H39.018V42.0006H27.0182V32.0008ZM22.0183 44.0005H24.0183V46.0005H22.0183V44.0005ZM21.0184 38.0007H25.0183V42.0006H21.0184V38.0007ZM17.0185 54.0003V44.0005H20.0184V47.0004C20.0184 47.5527 20.4661 48.0004 21.0184 48.0004H25.0183C25.5705 48.0004 26.0183 47.5527 26.0183 47.0004V44.0005H29.0182V54.0003H17.0185ZM31.0181 54.0003V44.0005H34.0181V47.0004C34.0181 47.5527 34.4658 48.0004 35.018 48.0004H39.018C39.5702 48.0004 40.0179 47.5527 40.0179 47.0004V44.0005H43.0179V54.0003H31.0181Z" fill="#006ADA"/>
</g>
<defs>
<clipPath id="clip0">
<rect width="60" height="60" fill="white"/>
</clipPath>
</defs>
</svg>
