<svg width="80" height="80" viewBox="0 0 80 80" fill="none" xmlns="http://www.w3.org/2000/svg">
<path d="M73.3333 0H6.66672C2.98484 0 0 2.98484 0 6.66672V56.6667C0 60.3486 2.98484 63.3334 6.66672 63.3334H35V60H6.66672C4.82578 60 3.33344 58.5077 3.33344 56.6667V6.66672C3.33344 4.82578 4.82578 3.33344 6.66672 3.33344H73.3334C75.1744 3.33344 76.6667 4.82578 76.6667 6.66672V10H80V6.66672C80 2.98484 77.0153 0 73.3333 0Z" fill="#006ADA"/>
<path d="M16.6665 73.3333H34.9998V70H16.6665C13.9051 70 11.6665 72.2386 11.6665 75C11.6665 77.7614 13.9051 80 16.6665 80H34.9998V76.6667H16.6665C15.746 76.6667 14.9998 75.9205 14.9998 75C14.9998 74.0795 15.746 73.3333 16.6665 73.3333Z" fill="#006ADA"/>
<path d="M31.6668 70V61.6667H28.3335V71.6668C28.3335 72.5872 29.0797 73.3335 30.0002 73.3335H35.0002V70H31.6668Z" fill="#006ADA"/>
<path d="M35 50H0V53.3333H35V50Z" fill="#006ADA"/>
<path d="M35.0002 55H28.3335V58.3333H35.0002V55Z" fill="#006ADA"/>
<path d="M11.6665 15C8.9051 15 6.6665 17.2386 6.6665 20C6.6665 22.7614 8.9051 25 11.6665 25C14.4279 25 16.6665 22.7614 16.6665 20C16.6665 17.2386 14.4279 15 11.6665 15ZM11.6665 21.6667C10.746 21.6667 9.99979 20.9205 9.99979 20C9.99979 19.0795 10.746 18.3333 11.6665 18.3333C12.587 18.3333 13.3332 19.0795 13.3332 20C13.3332 20.9205 12.587 21.6667 11.6665 21.6667Z" fill="#006ADA"/>
<path d="M11.6665 28.3333C8.9051 28.3333 6.6665 30.5718 6.6665 33.3333C6.6665 36.0947 8.9051 38.3333 11.6665 38.3333C14.4279 38.3333 16.6665 36.0947 16.6665 33.3333C16.6665 30.5718 14.4279 28.3333 11.6665 28.3333ZM11.6665 35C10.746 35 9.99979 34.2537 9.99979 33.3333C9.99979 32.4128 10.746 31.6665 11.6665 31.6665C12.587 31.6665 13.3332 32.4128 13.3332 33.3333C13.3331 34.2537 12.587 35 11.6665 35Z" fill="#006ADA"/>
<path d="M26.6665 21.6667C23.9051 21.6667 21.6665 23.9053 21.6665 26.6667C21.6665 29.4282 23.9051 31.6667 26.6665 31.6667C29.4279 31.6667 31.6665 29.4282 31.6665 26.6667C31.6665 23.9053 29.4279 21.6667 26.6665 21.6667ZM26.6665 28.3333C25.746 28.3333 24.9998 27.5871 24.9998 26.6666C24.9998 25.7461 25.746 24.9999 26.6665 24.9999C27.587 24.9999 28.3332 25.7461 28.3332 26.6666C28.3331 27.5872 27.587 28.3333 26.6665 28.3333Z" fill="#006ADA"/>
<path d="M18.3335 38.3333C15.5721 38.3333 13.3335 40.5719 13.3335 43.3333C13.3335 46.0947 15.5721 48.3333 18.3335 48.3333C21.0949 48.3333 23.3335 46.0947 23.3335 43.3333C23.3335 40.5719 21.0949 38.3333 18.3335 38.3333ZM18.3335 45C17.413 45 16.6668 44.2537 16.6668 43.3333C16.6668 42.4128 17.413 41.6665 18.3335 41.6665C19.254 41.6665 20.0002 42.4128 20.0002 43.3333C20.0002 44.2537 19.254 45 18.3335 45Z" fill="#006ADA"/>
<path d="M28.6533 35L20.6183 31.785C20.4216 31.7066 20.2117 31.6664 20 31.6667H15V35H19.68L27.715 38.215C27.9117 38.2935 28.1216 38.3336 28.3333 38.3333H35V35H28.6533Z" fill="#006ADA"/>
<path d="M35 25H30V28.3333H35V25Z" fill="#006ADA"/>
<path d="M30.3932 43.3332L27.4115 41.8415C27.1801 41.7262 26.9251 41.6662 26.6665 41.6665H21.6665V44.9999H26.2732L29.2549 46.4916C29.4863 46.607 29.7413 46.667 29.9999 46.6666H34.9999V43.3334H30.3932V43.3332Z" fill="#006ADA"/>
<path d="M78.3335 25H38.3335V28.3333H78.3335V25Z" fill="#006ADA"/>
<path d="M70 18.3333V20H48.3333V18.3333H45V21.6665C45 22.587 45.7462 23.3332 46.6667 23.3332H71.6667C72.5872 23.3332 73.3334 22.587 73.3334 21.6665V18.3333H70Z" fill="#006ADA"/>
<path d="M71.6669 31.6667H43.3335V35H70.0002V38.3333H43.3335V41.6666H71.6668C72.5872 41.6666 73.3335 40.9204 73.3335 39.9999V33.3332C73.3335 32.4128 72.5874 31.6667 71.6669 31.6667Z" fill="#006ADA"/>
<path d="M73.3335 48.3333V45H45.0002C44.0797 45 43.3335 45.7462 43.3335 46.6667V53.3334C43.3335 54.2539 44.0797 55.0002 45.0002 55.0002H73.3335V51.6669H46.6669V48.3336H73.3335V48.3333Z" fill="#006ADA"/>
<path d="M48.3333 58.3333H45V61.6665H48.3333V58.3333Z" fill="#006ADA"/>
<path d="M48.3333 65H45V68.3333H48.3333V65Z" fill="#006ADA"/>
<path d="M56.6668 58.3333H53.3335V61.6665H56.6668V58.3333Z" fill="#006ADA"/>
<path d="M56.6668 65H53.3335V68.3333H56.6668V65Z" fill="#006ADA"/>
<path d="M64.9998 58.3333H61.6665V61.6665H64.9998V58.3333Z" fill="#006ADA"/>
<path d="M64.9998 65H61.6665V68.3333H64.9998V65Z" fill="#006ADA"/>
<path d="M73.3333 58.3333H70V61.6665H73.3333V58.3333Z" fill="#006ADA"/>
<path d="M73.3333 65H70V68.3333H73.3333V65Z" fill="#006ADA"/>
<path d="M65.0002 70H53.3335V73.3333H65.0002V70Z" fill="#006ADA"/>
<path d="M73.3333 13.3333H29.7183C28.5095 13.3337 27.3236 13.6622 26.2866 14.2833L20.3316 17.8565C19.8131 18.1683 19.2197 18.3329 18.6148 18.3333H15V21.6665H18.615C19.8238 21.6661 21.0097 21.3376 22.0467 20.7165L28.0017 17.1433C28.5202 16.8315 29.1136 16.6668 29.7184 16.6665H73.3334C75.1744 16.6665 76.6667 18.1589 76.6667 19.9998V73.3331C76.6667 75.174 75.1744 76.6664 73.3334 76.6664H43.3334C41.4925 76.6664 40.0002 75.174 40.0002 73.3331V20H36.6669V73.3333C36.6669 77.0151 39.6516 80 43.3336 80H73.3336C77.0153 80 80 77.0153 80 73.3333V20C80 16.3181 77.0153 13.3333 73.3333 13.3333Z" fill="#006ADA"/>
<path d="M26.6668 6.66675H18.3335V10H26.6668V6.66675Z" fill="#006ADA"/>
<path d="M33.3333 6.66675H30V10H33.3333V6.66675Z" fill="#006ADA"/>
<path d="M39.9998 6.66675H36.6665V10H39.9998V6.66675Z" fill="#006ADA"/>
<path d="M46.6668 6.66675H43.3335V10H46.6668V6.66675Z" fill="#006ADA"/>
<path d="M53.3333 6.66675H50V10H53.3333V6.66675Z" fill="#006ADA"/>
</svg>
