<svg width="80" height="80" viewBox="0 0 80 80" fill="none" xmlns="http://www.w3.org/2000/svg">
<path d="M52.2781 46.789L41.0281 30.539C40.9131 30.3727 40.7595 30.2368 40.5804 30.1429C40.4013 30.049 40.2022 30 40 30C39.7978 30 39.5986 30.049 39.4195 30.1429C39.2405 30.2368 39.0869 30.3727 38.9719 30.539L27.7219 46.789C27.6114 46.9485 27.5397 47.1315 27.5123 47.3235C27.4849 47.5156 27.5026 47.7113 27.564 47.8953L30.7656 57.5H30C29.6685 57.5 29.3505 57.6317 29.1161 57.8661C28.8817 58.1005 28.75 58.4185 28.75 58.75V62.5C28.75 62.8315 28.8817 63.1494 29.1161 63.3839C29.3505 63.6183 29.6685 63.75 30 63.75H31.25V77.5C31.25 77.8315 31.3817 78.1494 31.6161 78.3839C31.8505 78.6183 32.1685 78.75 32.5 78.75H47.5C47.8315 78.75 48.1494 78.6183 48.3839 78.3839C48.6183 78.1494 48.75 77.8315 48.75 77.5V63.75H50C50.3315 63.75 50.6494 63.6183 50.8839 63.3839C51.1183 63.1494 51.25 62.8315 51.25 62.5V58.75C51.25 58.4185 51.1183 58.1005 50.8839 57.8661C50.6494 57.6317 50.3315 57.5 50 57.5H49.2344L52.4359 47.8953C52.4974 47.7113 52.5151 47.5156 52.4877 47.3235C52.4603 47.1315 52.3885 46.9485 52.2781 46.789ZM40 45C40.2472 45 40.4889 45.0733 40.6944 45.2106C40.9 45.348 41.0602 45.5432 41.1548 45.7716C41.2494 46 41.2742 46.2514 41.226 46.4938C41.1777 46.7363 41.0587 46.959 40.8839 47.1339C40.7091 47.3087 40.4863 47.4277 40.2438 47.476C40.0014 47.5242 39.75 47.4994 39.5216 47.4048C39.2932 47.3102 39.098 47.15 38.9606 46.9444C38.8233 46.7389 38.75 46.4972 38.75 46.25C38.7504 45.9186 38.8823 45.6009 39.1166 45.3666C39.3509 45.1323 39.6686 45.0004 40 45ZM46.25 76.25H33.75V63.75H46.25V76.25ZM48.75 61.25H31.25V60H48.75V61.25ZM46.5984 57.5H33.4015L30.1328 47.6984L38.75 35.2515V42.5C38.7507 42.5702 38.7569 42.6402 38.7687 42.7094C37.9315 43.0004 37.2245 43.5785 36.773 44.3412C36.3215 45.1039 36.1548 46.0019 36.3023 46.8758C36.4499 47.7497 36.9022 48.5432 37.5791 49.1154C38.256 49.6875 39.1137 50.0015 40 50.0015C40.8863 50.0015 41.744 49.6875 42.4208 49.1154C43.0977 48.5432 43.5501 47.7497 43.6976 46.8758C43.8452 46.0019 43.6784 45.1039 43.227 44.3412C42.7755 43.5785 42.0684 43.0004 41.2312 42.7094C41.243 42.6402 41.2493 42.5702 41.25 42.5V35.2515L49.8672 47.6984L46.5984 57.5Z" fill="url(#paint0_linear)"/>
<path d="M77.5 15H72.5C72.1685 15 71.8505 15.1317 71.6161 15.3661C71.3817 15.6005 71.25 15.9185 71.25 16.25V17.5109C71.1982 17.5041 71.146 17.5005 71.0938 17.5H43.75V16.25C43.75 15.9185 43.6183 15.6005 43.3839 15.3661C43.1495 15.1317 42.8315 15 42.5 15H41.25V8.75H42.5C42.8315 8.75 43.1495 8.6183 43.3839 8.38388C43.6183 8.14946 43.75 7.83152 43.75 7.5V2.5C43.75 2.16848 43.6183 1.85054 43.3839 1.61612C43.1495 1.3817 42.8315 1.25 42.5 1.25H37.5C37.1685 1.25 36.8505 1.3817 36.6161 1.61612C36.3817 1.85054 36.25 2.16848 36.25 2.5V7.5C36.25 7.83152 36.3817 8.14946 36.6161 8.38388C36.8505 8.6183 37.1685 8.75 37.5 8.75H38.75V15H37.5C37.1685 15 36.8505 15.1317 36.6161 15.3661C36.3817 15.6005 36.25 15.9185 36.25 16.25V17.5H8.75V16.25C8.75 15.9185 8.6183 15.6005 8.38388 15.3661C8.14946 15.1317 7.83152 15 7.5 15H2.5C2.16848 15 1.85054 15.1317 1.61612 15.3661C1.3817 15.6005 1.25 15.9185 1.25 16.25V21.25C1.25 21.5815 1.3817 21.8995 1.61612 22.1339C1.85054 22.3683 2.16848 22.5 2.5 22.5H7.5C7.83152 22.5 8.14946 22.3683 8.38388 22.1339C8.6183 21.8995 8.75 21.5815 8.75 21.25V20H29.4156C27.7658 21.0915 26.2912 22.427 25.0422 23.9609C21.8375 27.8469 20 32.7812 20 37.5H18.75C18.4185 37.5 18.1005 37.6317 17.8661 37.8661C17.6317 38.1005 17.5 38.4185 17.5 38.75V43.75C17.5 44.0815 17.6317 44.3995 17.8661 44.6339C18.1005 44.8683 18.4185 45 18.75 45H23.75C24.0815 45 24.3995 44.8683 24.6339 44.6339C24.8683 44.3995 25 44.0815 25 43.75V38.75C25 38.4185 24.8683 38.1005 24.6339 37.8661C24.3995 37.6317 24.0815 37.5 23.75 37.5H22.5C22.5 28.2313 29.6313 20.9203 36.25 20.0813V21.25C36.25 21.5815 36.3817 21.8995 36.6161 22.1339C36.8505 22.3683 37.1685 22.5 37.5 22.5H42.5C42.8315 22.5 43.1495 22.3683 43.3839 22.1339C43.6183 21.8995 43.75 21.5815 43.75 21.25V20.0766C47.1344 20.4781 50.3828 22.5063 53.0047 25.8891C55.5563 29.1781 57.1766 33.4375 57.4562 37.5H56.25C55.9185 37.5 55.6005 37.6317 55.3661 37.8661C55.1317 38.1005 55 38.4185 55 38.75V43.75C55 44.0815 55.1317 44.3995 55.3661 44.6339C55.6005 44.8683 55.9185 45 56.25 45H61.25C61.5815 45 61.8995 44.8683 62.1339 44.6339C62.3683 44.3995 62.5 44.0815 62.5 43.75V38.75C62.5 38.4185 62.3683 38.1005 62.1339 37.8661C61.8995 37.6317 61.5815 37.5 61.25 37.5H59.9609C59.6875 32.8578 57.9078 28.1297 54.9813 24.3563C53.6942 22.6666 52.143 21.1956 50.3875 20H71.0938C71.146 19.9995 71.1982 19.9959 71.25 19.9891V21.25C71.25 21.5815 71.3817 21.8995 71.6161 22.1339C71.8505 22.3683 72.1685 22.5 72.5 22.5H77.5C77.8315 22.5 78.1495 22.3683 78.3839 22.1339C78.6183 21.8995 78.75 21.5815 78.75 21.25V16.25C78.75 15.9185 78.6183 15.6005 78.3839 15.3661C78.1495 15.1317 77.8315 15 77.5 15ZM6.25 20H3.75V17.5H6.25V20ZM22.5 42.5H20V40H22.5V42.5ZM38.75 3.75H41.25V6.25H38.75V3.75ZM41.25 20H38.75V17.5H41.25V20ZM57.5 40H60V42.5H57.5V40ZM76.25 20H73.75V17.5H76.25V20Z" fill="url(#paint1_linear)"/>
<defs>
<linearGradient id="paint0_linear" x1="40" y1="30" x2="40" y2="78.75" gradientUnits="userSpaceOnUse">
<stop stop-color="#006ADA"/>
<stop offset="1" stop-color="#024287"/>
</linearGradient>
<linearGradient id="paint1_linear" x1="40" y1="1.25" x2="40" y2="45" gradientUnits="userSpaceOnUse">
<stop stop-color="#006ADA"/>
<stop offset="1" stop-color="#024287"/>
</linearGradient>
</defs>
</svg>
