<svg width="80" height="80" viewBox="0 0 80 80" fill="none" xmlns="http://www.w3.org/2000/svg">
<path d="M77.5 17.5H75V8.75C75 8.41848 74.8683 8.10054 74.6339 7.86612C74.3995 7.6317 74.0815 7.5 73.75 7.5H6.25C5.91848 7.5 5.60054 7.6317 5.36612 7.86612C5.1317 8.10054 5 8.41848 5 8.75V12.5H2.5C2.16848 12.5 1.85054 12.6317 1.61612 12.8661C1.3817 13.1005 1.25 13.4185 1.25 13.75V71.25C1.25 71.5815 1.3817 71.8995 1.61612 72.1339C1.85054 72.3683 2.16848 72.5 2.5 72.5H77.5C77.8315 72.5 78.1495 72.3683 78.3839 72.1339C78.6183 71.8995 78.75 71.5815 78.75 71.25V18.75C78.75 18.4185 78.6183 18.1005 78.3839 17.8661C78.1495 17.6317 77.8315 17.5 77.5 17.5ZM7.5 10H72.5V17.5H44.1172L41.0281 13.0391C40.9131 12.8728 40.7595 12.7368 40.5804 12.643C40.4014 12.5491 40.2022 12.5 40 12.5C39.7978 12.5 39.5986 12.5491 39.4196 12.643C39.2405 12.7368 39.0869 12.8728 38.9719 13.0391L35.8828 17.5H25.7719L23.6188 13.1906C23.5147 12.9831 23.3549 12.8086 23.1573 12.6866C22.9598 12.5646 22.7322 12.5 22.5 12.5H7.5V10ZM41.25 28.75C41.25 28.9972 41.1767 29.2389 41.0393 29.4445C40.902 29.65 40.7068 29.8102 40.4784 29.9049C40.2499 29.9995 39.9986 30.0242 39.7561 29.976C39.5137 29.9277 39.2909 29.8087 39.1161 29.6339C38.9413 29.4591 38.8223 29.2363 38.774 28.9939C38.7258 28.7514 38.7505 28.5001 38.8451 28.2716C38.9398 28.0432 39.1 27.848 39.3055 27.7107C39.5111 27.5733 39.7528 27.5 40 27.5C40.3314 27.5005 40.6491 27.6323 40.8834 27.8666C41.1177 28.1009 41.2495 28.4186 41.25 28.75ZM30 41.25C29.6685 41.25 29.3505 41.3817 29.1161 41.6161C28.8817 41.8505 28.75 42.1685 28.75 42.5V46.25C28.75 46.5815 28.8817 46.8995 29.1161 47.1339C29.3505 47.3683 29.6685 47.5 30 47.5V70H3.75V15H21.7281L23.8812 19.3094C23.9853 19.5169 24.1451 19.6914 24.3427 19.8134C24.5402 19.9354 24.7678 20 25 20H34.1531L27.7219 29.2891C27.6153 29.4434 27.5448 29.6197 27.5156 29.805C27.4864 29.9903 27.4992 30.1797 27.5531 30.3594L30.8203 41.25H30ZM30.1203 30.2172L38.75 17.7516V25C38.7507 25.0702 38.7569 25.1402 38.7687 25.2094C37.9316 25.5004 37.2245 26.0785 36.773 26.8412C36.3215 27.6039 36.1548 28.5019 36.3023 29.3758C36.4499 30.2498 36.9022 31.0432 37.5791 31.6154C38.256 32.1876 39.1137 32.5015 40 32.5015C40.8863 32.5015 41.744 32.1876 42.4209 31.6154C43.0978 31.0432 43.5501 30.2498 43.6977 29.3758C43.8452 28.5019 43.6785 27.6039 43.227 26.8412C42.7755 26.0785 42.0684 25.5004 41.2313 25.2094C41.2431 25.1402 41.2493 25.0702 41.25 25V17.7516L49.8797 30.2172L46.5703 41.25H33.4297L30.1203 30.2172ZM47.5 70H32.5V47.5H47.5V70ZM48.75 45H31.25V43.75H48.75V45ZM76.25 70H50V47.5C50.3315 47.5 50.6495 47.3683 50.8839 47.1339C51.1183 46.8995 51.25 46.5815 51.25 46.25V42.5C51.25 42.1685 51.1183 41.8505 50.8839 41.6161C50.6495 41.3817 50.3315 41.25 50 41.25H49.1797L52.4469 30.3594C52.5008 30.1797 52.5136 29.9903 52.4844 29.805C52.4552 29.6197 52.3847 29.4434 52.2781 29.2891L45.8469 20H76.25V70Z" fill="url(#paint0_linear)"/>
<path d="M18.75 17.5H6.25C5.91848 17.5 5.60054 17.6317 5.36612 17.8661C5.1317 18.1005 5 18.4185 5 18.75C5 19.0815 5.1317 19.3995 5.36612 19.6339C5.60054 19.8683 5.91848 20 6.25 20H18.75C19.0815 20 19.3995 19.8683 19.6339 19.6339C19.8683 19.3995 20 19.0815 20 18.75C20 18.4185 19.8683 18.1005 19.6339 17.8661C19.3995 17.6317 19.0815 17.5 18.75 17.5Z" fill="url(#paint1_linear)"/>
<path d="M11.25 21.25H6.25C5.91848 21.25 5.60054 21.3817 5.36612 21.6161C5.1317 21.8505 5 22.1685 5 22.5C5 22.8315 5.1317 23.1495 5.36612 23.3839C5.60054 23.6183 5.91848 23.75 6.25 23.75H11.25C11.5815 23.75 11.8995 23.6183 12.1339 23.3839C12.3683 23.1495 12.5 22.8315 12.5 22.5C12.5 22.1685 12.3683 21.8505 12.1339 21.6161C11.8995 21.3817 11.5815 21.25 11.25 21.25Z" fill="url(#paint2_linear)"/>
<path d="M73.75 65H62.5C62.1685 65 61.8505 65.1317 61.6161 65.3661C61.3817 65.6005 61.25 65.9185 61.25 66.25C61.25 66.5815 61.3817 66.8995 61.6161 67.1339C61.8505 67.3683 62.1685 67.5 62.5 67.5H73.75C74.0815 67.5 74.3995 67.3683 74.6339 67.1339C74.8683 66.8995 75 66.5815 75 66.25C75 65.9185 74.8683 65.6005 74.6339 65.3661C74.3995 65.1317 74.0815 65 73.75 65Z" fill="url(#paint3_linear)"/>
<path d="M70 61.25C69.6685 61.25 69.3505 61.3817 69.1161 61.6161C68.8817 61.8505 68.75 62.1685 68.75 62.5C68.75 62.8315 68.8817 63.1495 69.1161 63.3839C69.3505 63.6183 69.6685 63.75 70 63.75H73.75C74.0815 63.75 74.3995 63.6183 74.6339 63.3839C74.8683 63.1495 75 62.8315 75 62.5C75 62.1685 74.8683 61.8505 74.6339 61.6161C74.3995 61.3817 74.0815 61.25 73.75 61.25H70Z" fill="url(#paint4_linear)"/>
<defs>
<linearGradient id="paint0_linear" x1="40" y1="7.5" x2="40" y2="72.5" gradientUnits="userSpaceOnUse">
<stop stop-color="#006ADA"/>
<stop offset="1" stop-color="#024287"/>
</linearGradient>
<linearGradient id="paint1_linear" x1="12.5" y1="17.5" x2="12.5" y2="20" gradientUnits="userSpaceOnUse">
<stop stop-color="#006ADA"/>
<stop offset="1" stop-color="#024287"/>
</linearGradient>
<linearGradient id="paint2_linear" x1="8.75" y1="21.25" x2="8.75" y2="23.75" gradientUnits="userSpaceOnUse">
<stop stop-color="#006ADA"/>
<stop offset="1" stop-color="#024287"/>
</linearGradient>
<linearGradient id="paint3_linear" x1="68.125" y1="65" x2="68.125" y2="67.5" gradientUnits="userSpaceOnUse">
<stop stop-color="#006ADA"/>
<stop offset="1" stop-color="#024287"/>
</linearGradient>
<linearGradient id="paint4_linear" x1="71.875" y1="61.25" x2="71.875" y2="63.75" gradientUnits="userSpaceOnUse">
<stop stop-color="#006ADA"/>
<stop offset="1" stop-color="#024287"/>
</linearGradient>
</defs>
</svg>
