<svg width="80" height="80" viewBox="0 0 80 80" fill="none" xmlns="http://www.w3.org/2000/svg">
<path d="M33.5168 63.667C34.4519 63.667 34.4855 64.2615 34.4965 64.6576C34.5074 65.0537 34.8926 65.1746 35.3546 65.1746C35.9375 65.1746 36.2128 65.0208 36.2128 64.3604C36.2128 62.9633 35.0244 62.171 33.4509 62.171C32.0093 62.171 30.8105 62.8748 30.8105 64.7675V67.6831C30.8105 69.5758 31.9879 70.2802 33.5059 70.2802C35.0244 70.2802 36.2128 69.5758 36.2128 67.6831V66.5277C36.2128 66.2421 36.026 65.9888 35.6958 65.9888H33.847C33.5168 65.9888 33.3301 66.33 33.3301 66.6492C33.3301 66.9897 33.5168 67.309 33.847 67.309H34.4965V67.6831C34.4965 68.4314 34.1223 68.7836 33.5059 68.7836C32.89 68.7836 32.5269 68.4314 32.5269 67.6831V64.7675C32.5269 64.0192 32.89 63.667 33.5168 63.667Z" fill="url(#paint0_linear)"/>
<path d="M39.6014 62.171C39.1724 62.171 38.7433 62.3248 38.7433 62.688V69.6857C38.7433 70.0378 39.1724 70.2142 39.6014 70.2142C40.0305 70.2142 40.4596 70.0378 40.4596 69.6857V62.688C40.4602 62.3248 40.0305 62.171 39.6014 62.171Z" fill="url(#paint1_linear)"/>
<path d="M47.7551 62.171H43.9368C43.5626 62.171 43.1885 62.3468 43.1885 62.699V69.6857C43.1885 70.0378 43.6176 70.2136 44.0466 70.2136C44.4757 70.2136 44.9048 70.0378 44.9048 69.6857V66.8469H46.5662C46.9293 66.8469 47.0837 66.4948 47.0837 66.1975C47.0837 65.8459 46.897 65.5267 46.5662 65.5267H44.9048V63.667H47.7545C48.0847 63.667 48.2721 63.3154 48.2721 62.9077C48.2721 62.5562 48.1177 62.171 47.7551 62.171Z" fill="url(#paint2_linear)"/>
<path d="M66.9025 68.7762C66.2549 68.7762 65.7306 69.3011 65.7306 69.9481V77.6562H14.375V40.6305C14.375 39.9835 13.8507 39.4586 13.2031 39.4586C12.5555 39.4586 12.0312 39.9835 12.0312 40.6305V78.8281C12.0312 79.4751 12.5555 80 13.2031 80H66.9025C67.55 80 68.0743 79.4751 68.0743 78.8281V69.9481C68.0743 69.3011 67.55 68.7762 66.9025 68.7762Z" fill="url(#paint3_linear)"/>
<path d="M66.9025 0H25.2039C25.1904 0 25.1776 0.00183106 25.1642 0.00183106C25.1508 0.00244141 25.1373 0.00305175 25.1239 0.00366211C25.0751 0.00732422 25.0262 0.0128174 24.9786 0.0219727C24.9768 0.022583 24.975 0.022583 24.9731 0.0231934C24.9243 0.0329591 24.8773 0.0463867 24.8303 0.0622559C24.8169 0.0671388 24.8035 0.0714111 24.7906 0.0762939C24.7479 0.0927734 24.7058 0.110474 24.6655 0.131836C24.6606 0.134277 24.6552 0.136719 24.6503 0.13916C24.6075 0.162353 24.5667 0.188599 24.527 0.216675C24.5142 0.22583 24.502 0.234985 24.4897 0.244141C24.4537 0.272217 24.4189 0.301514 24.386 0.333862C24.3823 0.336914 24.3781 0.339966 24.3744 0.343628L12.3743 12.3431C12.3737 12.3444 12.3737 12.345 12.373 12.3456C12.3364 12.3816 12.3041 12.4207 12.2729 12.4615C12.265 12.4719 12.2571 12.4823 12.2498 12.4927C12.2205 12.5342 12.1924 12.5769 12.1686 12.6215C12.1674 12.6239 12.1667 12.6263 12.1649 12.6288C12.1429 12.6715 12.124 12.7161 12.1069 12.7612C12.1021 12.7734 12.0984 12.785 12.0941 12.7972C12.0776 12.8448 12.0636 12.8937 12.0538 12.9431V12.9449C12.0441 12.9932 12.0386 13.0432 12.0349 13.0933C12.0343 13.1061 12.0337 13.1195 12.0331 13.1323C12.0331 13.1458 12.0312 13.1586 12.0312 13.172V35.4431C12.0312 36.0901 12.5562 36.615 13.2031 36.615C13.8507 36.615 14.375 36.0901 14.375 35.4431V14.3439H25.2032C25.8508 14.3439 26.3751 13.819 26.3751 13.172V2.34375H65.7306V65.0208C65.7306 65.6683 66.2555 66.1926 66.9025 66.1926C67.55 66.1926 68.0743 65.6683 68.0743 65.0208V1.17188C68.0743 0.524902 67.55 0 66.9025 0ZM16.0321 12.0001L24.0314 4.00146V12.0001H16.0321Z" fill="url(#paint4_linear)"/>
<path d="M19.5978 57.9871V74.1302C19.5978 74.7778 20.1221 75.3021 20.7697 75.3021H59.3359C59.9835 75.3021 60.5078 74.7778 60.5078 74.1302V57.9871C60.5078 57.3401 59.9835 56.8152 59.3359 56.8152H20.7697C20.1221 56.8152 19.5978 57.3401 19.5978 57.9871ZM21.9415 59.1589H58.1641V72.9584H21.9415V59.1589Z" fill="url(#paint5_linear)"/>
<path d="M20.1068 22.4939V51.9373C20.1068 52.5842 20.6311 53.1091 21.2787 53.1091H26.1084C26.1707 53.1195 26.2335 53.1262 26.2976 53.1262H57.2302C57.3053 53.1262 57.3779 53.1171 57.4493 53.103C58.0414 53.0444 58.504 52.5446 58.504 51.9373V27.6007C58.504 27.5714 58.5016 27.5427 58.4991 27.514C60.365 25.6854 61.5259 23.1403 61.5259 20.3278C61.5259 14.7772 57.0105 10.2618 51.46 10.2618C45.9094 10.2618 41.394 14.7772 41.394 20.3278C41.394 20.6635 41.4111 20.9949 41.4435 21.322H21.2787C20.6311 21.322 20.1068 21.8469 20.1068 22.4939ZM28.3374 50.7654L33.3081 42.1564L37.4677 48.5199C37.6868 48.855 38.056 49.0594 38.4619 49.0503C38.8623 49.046 39.2328 48.8373 39.444 48.4973L46.9293 36.4563L55.191 50.7654H28.3374ZM51.46 12.6056C55.7178 12.6056 59.1821 16.0699 59.1821 20.3284C59.1821 24.5862 55.7178 28.0505 51.46 28.0505C47.2015 28.0505 43.7378 24.5862 43.7378 20.3284C43.7378 16.0699 47.2015 12.6056 51.46 12.6056ZM22.4506 23.6658H41.9647C43.3453 27.58 47.0789 30.3943 51.46 30.3943C53.1567 30.3943 54.7559 29.9701 56.1597 29.2255V47.7563L47.981 33.5907C47.7753 33.2343 47.3975 33.0121 46.9855 33.0054C46.5668 32.998 46.1884 33.2086 45.9711 33.5583L38.4235 45.6989L34.2273 39.2786C34.0045 38.938 33.6212 38.7366 33.2141 38.7482C32.807 38.7598 32.4353 38.9813 32.2314 39.3335L25.6311 50.7654H22.4506V23.6658Z" fill="url(#paint6_linear)"/>
<path d="M31.9446 37.7869C35.1306 37.7869 37.7228 35.1941 37.7228 32.0081C37.7228 28.8214 35.1306 26.2292 31.9446 26.2292C28.7579 26.2292 26.1658 28.8214 26.1658 32.0081C26.1658 35.1941 28.7579 37.7869 31.9446 37.7869ZM31.9446 28.573C33.8385 28.573 35.379 30.1141 35.379 32.0081C35.379 33.902 33.8385 35.4431 31.9446 35.4431C30.05 35.4431 28.5095 33.902 28.5095 32.0081C28.5095 30.1141 30.05 28.573 31.9446 28.573Z" fill="url(#paint7_linear)"/>
<path d="M48.8806 25.3376C49.0619 25.4419 49.2639 25.4944 49.4666 25.4944C49.6686 25.4944 49.8712 25.4419 50.0525 25.3376L56.8292 21.4246C57.1918 21.2152 57.4152 20.8283 57.4152 20.4096C57.4152 19.9915 57.1918 19.6045 56.8292 19.3952L50.0525 15.4822C49.6899 15.2729 49.2432 15.2729 48.8806 15.4822C48.5181 15.6916 48.2947 16.0785 48.2947 16.4972V24.3225C48.2947 24.7412 48.5181 25.1282 48.8806 25.3376ZM50.6384 18.5273L53.8995 20.4096L50.6384 22.2925V18.5273Z" fill="url(#paint8_linear)"/>
<defs>
<linearGradient id="paint0_linear" x1="33.5117" y1="62.171" x2="33.5117" y2="70.2802" gradientUnits="userSpaceOnUse">
<stop stop-color="#006ADA"/>
<stop offset="1" stop-color="#024287"/>
</linearGradient>
<linearGradient id="paint1_linear" x1="39.6014" y1="62.171" x2="39.6014" y2="70.2142" gradientUnits="userSpaceOnUse">
<stop stop-color="#006ADA"/>
<stop offset="1" stop-color="#024287"/>
</linearGradient>
<linearGradient id="paint2_linear" x1="45.7303" y1="62.171" x2="45.7303" y2="70.2136" gradientUnits="userSpaceOnUse">
<stop stop-color="#006ADA"/>
<stop offset="1" stop-color="#024287"/>
</linearGradient>
<linearGradient id="paint3_linear" x1="40.0528" y1="39.4586" x2="40.0528" y2="80" gradientUnits="userSpaceOnUse">
<stop stop-color="#006ADA"/>
<stop offset="1" stop-color="#024287"/>
</linearGradient>
<linearGradient id="paint4_linear" x1="40.0528" y1="0" x2="40.0528" y2="66.1926" gradientUnits="userSpaceOnUse">
<stop stop-color="#006ADA"/>
<stop offset="1" stop-color="#024287"/>
</linearGradient>
<linearGradient id="paint5_linear" x1="40.0528" y1="56.8152" x2="40.0528" y2="75.3021" gradientUnits="userSpaceOnUse">
<stop stop-color="#006ADA"/>
<stop offset="1" stop-color="#024287"/>
</linearGradient>
<linearGradient id="paint6_linear" x1="40.8163" y1="10.2618" x2="40.8163" y2="53.1262" gradientUnits="userSpaceOnUse">
<stop stop-color="#006ADA"/>
<stop offset="1" stop-color="#024287"/>
</linearGradient>
<linearGradient id="paint7_linear" x1="31.9443" y1="26.2292" x2="31.9443" y2="37.7869" gradientUnits="userSpaceOnUse">
<stop stop-color="#006ADA"/>
<stop offset="1" stop-color="#024287"/>
</linearGradient>
<linearGradient id="paint8_linear" x1="52.8549" y1="15.3252" x2="52.8549" y2="25.4944" gradientUnits="userSpaceOnUse">
<stop stop-color="#006ADA"/>
<stop offset="1" stop-color="#024287"/>
</linearGradient>
</defs>
</svg>
