<svg width="74" height="74" viewBox="0 0 74 74" fill="none" xmlns="http://www.w3.org/2000/svg">
<path d="M62.1292 37C62.1292 23.1438 50.8562 11.8708 37 11.8708C23.1438 11.8708 11.8708 23.1438 11.8708 37C11.8708 43.5245 14.371 49.4756 18.4625 53.9474L13.1185 59.2914C12.339 60.0707 12.9019 61.3969 13.9906 61.3969C14.3062 61.3969 14.6219 61.2765 14.8627 61.0357L20.2145 55.6839C24.6926 59.7111 30.5868 62.1296 37.0014 62.1293C50.8571 62.1284 62.1292 50.8557 62.1292 37ZM49.1268 35.7667H38.2333V15.495C41.6668 18.2057 48.6266 24.9937 49.1268 35.7667ZM35.7667 14.3714V35.7667H24.8749C25.2285 28.3189 28.7226 22.7942 31.6805 19.4113C32.1288 18.8985 32.0765 18.1194 31.5638 17.671C31.051 17.2226 30.2719 17.275 29.8235 17.7878C26.5867 21.4898 22.7601 27.5557 22.4061 35.7667H14.3714C14.9921 24.2503 24.2503 14.9921 35.7667 14.3714ZM14.3714 38.2333H22.405C22.8506 48.7066 28.8868 55.7473 32.878 59.2857C22.8029 57.4266 14.9428 48.8349 14.3714 38.2333ZM24.8725 38.2333H35.7667V58.4928C29.664 53.6485 25.2551 46.5474 24.8725 38.2333ZM38.2333 59.6286V38.2333H49.1247C48.7598 45.9401 45.0435 51.6058 41.8985 55.06C41.4398 55.5637 41.4765 56.3438 41.9802 56.8022C42.4839 57.2609 43.2639 57.2242 43.7224 56.7205C47.1617 52.9431 51.2287 46.7265 51.5939 38.2333H55.5C56.1811 38.2333 56.7333 37.6811 56.7333 37C56.7333 36.3189 56.1811 35.7667 55.5 35.7667H51.5951C51.1503 25.2958 45.1167 18.2544 41.1272 14.7154C51.6594 16.6613 59.6625 25.9131 59.6625 37C59.6625 49.0824 50.1581 58.9859 38.2333 59.6286ZM64.7401 63.1501L58.7617 57.1716C58.2801 56.69 57.4992 56.69 57.0176 57.1716C56.5358 57.6532 56.5358 58.4341 57.0176 58.9157L63.0293 64.9274C60.5687 68.8627 63.4141 74 68.0646 74C71.3374 74 74 71.3374 74 68.0646C74 63.3013 68.6503 60.4964 64.7401 63.1501ZM68.0646 71.5333C66.1518 71.5333 64.5958 69.9773 64.5958 68.0646C64.5958 66.1518 66.1518 64.5958 68.0646 64.5958C69.9773 64.5958 71.5333 66.1518 71.5333 68.0646C71.5333 69.9773 69.9773 71.5333 68.0646 71.5333ZM9.0724 10.9708L15.0841 16.9825C15.5659 17.4643 16.3466 17.4642 16.8282 16.9825C17.31 16.5009 17.31 15.7201 16.8282 15.2385L10.8499 9.25987C13.5035 5.34974 10.6984 0 5.93542 0C2.66261 0 0 2.66261 0 5.93542C0 10.5925 5.14423 13.4268 9.0724 10.9708ZM5.93542 2.46667C7.84816 2.46667 9.40417 4.02267 9.40417 5.93542C9.40417 7.84816 7.84816 9.40417 5.93542 9.40417C4.02267 9.40417 2.46667 7.84816 2.46667 5.93542C2.46667 4.02267 4.02267 2.46667 5.93542 2.46667ZM5.93542 62.1292C2.66261 62.1292 0 64.7918 0 68.0646C0 71.3374 2.66261 74 5.93542 74C9.20822 74 11.8708 71.3374 11.8708 68.0646C11.8708 64.7918 9.20822 62.1292 5.93542 62.1292ZM5.93542 71.5333C4.02267 71.5333 2.46667 69.9773 2.46667 68.0646C2.46667 66.1518 4.02267 64.5958 5.93542 64.5958C7.84816 64.5958 9.40417 66.1518 9.40417 68.0646C9.40417 69.9773 7.84816 71.5333 5.93542 71.5333ZM58.7617 16.8284L64.7401 10.8499C68.6503 13.5035 74 10.6984 74 5.93542C74 2.66261 71.3374 0 68.0646 0C63.4075 0 60.5732 5.14423 63.0292 9.0724L57.0175 15.0841C56.5357 15.5657 56.5357 16.3466 57.0175 16.8282C57.4992 17.31 58.2801 17.31 58.7617 16.8284ZM68.0646 2.46667C69.9773 2.46667 71.5333 4.02267 71.5333 5.93542C71.5333 7.84816 69.9773 9.40417 68.0646 9.40417C66.1518 9.40417 64.5958 7.84816 64.5958 5.93542C64.5958 4.02267 66.1518 2.46667 68.0646 2.46667Z" fill="#006ADA"/>
</svg>
