<svg width="74" height="74" viewBox="0 0 74 74" fill="none" xmlns="http://www.w3.org/2000/svg">
<path d="M46.4855 51.5152C54.6852 47.795 59.9836 39.5756 59.9836 30.5755C59.9836 25.7165 58.4853 21.072 55.6507 17.1444C55.3003 16.6592 54.6229 16.5493 54.1373 16.8998C53.6518 17.2502 53.5422 17.9277 53.8927 18.4132C56.459 21.9693 57.8156 26.175 57.8156 30.5757C57.8156 38.7272 53.0167 46.1716 45.5903 49.5409C44.1483 50.1945 43.2165 51.63 43.2165 53.1977V58.1074H30.7839V53.1977C30.7839 51.6293 29.8644 50.1994 28.4406 49.5548C20.9582 46.1749 16.1475 38.6885 16.1848 30.4822C16.2354 19.056 25.5731 9.76013 37.0002 9.76013C42.0219 9.76013 46.8714 11.573 50.6551 14.8647C51.1067 15.2577 51.7915 15.2103 52.1844 14.7585C52.5773 14.3068 52.5298 13.6222 52.0781 13.2292C47.8997 9.59407 42.545 7.59216 37.0002 7.59216C30.8731 7.59216 25.1124 9.96768 20.7792 14.2812C16.4457 18.595 14.044 24.3452 14.0168 30.4723C13.9758 39.533 19.2872 47.7989 27.5474 51.5301C28.1965 51.8239 28.6161 52.4785 28.6161 53.1976V58.1073H28.2403C26.8376 58.1073 25.6966 59.2491 25.6966 60.6525V62.4042C25.6966 63.741 26.7339 64.838 28.0453 64.9381L28.9637 70.6331C29.2785 72.584 30.9412 74 32.9172 74H34.4709C35.0695 74 35.5549 73.5146 35.5549 72.916C35.5549 72.3173 35.0695 71.832 34.4709 71.832H32.9172C32.0108 71.832 31.2483 71.1825 31.1039 70.2878L30.2428 64.948H31.9416C32.5403 64.948 33.0256 64.4626 33.0256 63.864C33.0256 63.2653 32.5403 62.78 31.9416 62.78H28.2402C28.0329 62.78 27.8644 62.6113 27.8644 62.4042V60.6525C27.8644 60.4445 28.033 60.2753 28.2402 60.2753H45.7602C45.9675 60.2753 46.136 60.4445 46.136 60.6525V62.4042C46.136 62.6115 45.9673 62.78 45.7602 62.78H37.0002C36.4015 62.78 35.9162 63.2653 35.9162 63.864C35.9162 64.4626 36.4015 64.948 37.0002 64.948H43.7576L42.8965 70.2877C42.7521 71.1825 41.9896 71.832 41.0832 71.832H39.5295C38.9308 71.832 38.4455 72.3173 38.4455 72.916C38.4455 73.5146 38.9308 74 39.5295 74H41.0832C43.0592 74 44.7219 72.584 45.0367 70.633L45.9551 64.9381C47.2667 64.838 48.304 63.7411 48.304 62.4042V60.6525C48.304 59.2491 47.1628 58.1073 45.7602 58.1073H45.3845V53.1976C45.3845 52.4788 45.8166 51.8185 46.4855 51.5152Z" fill="#006ADA"/>
<path d="M23.6514 36.416V42.84C23.6514 43.4386 24.1367 43.924 24.7354 43.924H49.2633C49.862 43.924 50.3473 43.4386 50.3473 42.84V36.416C50.3473 32.5981 47.2412 29.4919 43.4234 29.4919H42.6191C44.3156 27.9567 45.3834 25.7387 45.3834 23.2759C45.3834 18.653 41.6224 14.892 36.9994 14.892C32.3764 14.892 28.6154 18.653 28.6154 23.2759C28.6154 25.7387 29.6832 27.9567 31.3797 29.4919H30.5754C26.7575 29.4921 23.6514 32.5981 23.6514 36.416ZM30.7834 23.2761C30.7834 19.8485 33.5718 17.0601 36.9994 17.0601C40.427 17.0601 43.2154 19.8485 43.2154 23.2761C43.2154 26.7035 40.427 29.4921 36.9994 29.4921C33.5718 29.4921 30.7834 26.7035 30.7834 23.2761ZM43.4234 31.66C46.0459 31.66 48.1793 33.7936 48.1793 36.4161V41.7561H44.2153V39.92C44.2153 39.3214 43.7299 38.836 43.1313 38.836C42.5326 38.836 42.0473 39.3214 42.0473 39.92V41.7561H31.9512V39.92C31.9512 39.3214 31.4659 38.836 30.8672 38.836C30.2686 38.836 29.7833 39.3214 29.7833 39.92V41.7561H25.8192V36.4161C25.8192 33.7936 27.9528 31.66 30.5751 31.66H43.4234Z" fill="#006ADA"/>
<path d="M37 5.08793C37.5986 5.08793 38.084 4.6026 38.084 4.00395V1.08398C38.084 0.485336 37.5986 0 37 0C36.4014 0 35.916 0.485336 35.916 1.08398V4.00395C35.916 4.6026 36.4014 5.08793 37 5.08793Z" fill="#006ADA"/>
<path d="M22.7744 8.10586C22.9752 8.4536 23.3395 8.648 23.7141 8.648C23.898 8.648 24.0844 8.60117 24.2551 8.5026C24.7736 8.20327 24.9512 7.54031 24.6519 7.02188L23.1918 4.49301C22.8925 3.97458 22.2294 3.7968 21.7111 4.09627C21.1927 4.3956 21.015 5.05856 21.3143 5.577L22.7744 8.10586Z" fill="#006ADA"/>
<path d="M10.9171 16.7687L13.446 18.2287C13.6167 18.3273 13.8031 18.3741 13.987 18.3741C14.3616 18.3741 14.726 18.1796 14.9267 17.832C15.2261 17.3135 15.0484 16.6506 14.53 16.3513L12.0011 14.8912C11.4825 14.5917 10.8197 14.7695 10.5204 15.2879C10.2211 15.8065 10.3987 16.4695 10.9171 16.7687Z" fill="#006ADA"/>
<path d="M11.5118 30.576C11.5118 29.9774 11.0264 29.4921 10.4278 29.4921H7.50781C6.90916 29.4921 6.42383 29.9774 6.42383 30.576C6.42383 31.1747 6.90916 31.66 7.50781 31.66H10.4278C11.0264 31.66 11.5118 31.1747 11.5118 30.576Z" fill="#006ADA"/>
<path d="M13.446 42.9233L10.9171 44.3833C10.3987 44.6826 10.2211 45.3456 10.5204 45.864C10.7212 46.2118 11.0855 46.4062 11.4601 46.4062C11.644 46.4062 11.8304 46.3594 12.0011 46.2608L14.53 44.8007C15.0484 44.5014 15.2261 43.8384 14.9267 43.32C14.6274 42.8014 13.9644 42.6239 13.446 42.9233Z" fill="#006ADA"/>
<path d="M49.7434 8.50278C49.9141 8.60136 50.1006 8.64818 50.2844 8.64818C50.659 8.64818 51.0234 8.45364 51.2241 8.10605L52.6842 5.57718C52.9835 5.05875 52.8059 4.39578 52.2875 4.09646C51.769 3.79685 51.1061 3.97476 50.8067 4.4932L49.3467 7.02192C49.0472 7.5405 49.2248 8.20346 49.7434 8.50278Z" fill="#006ADA"/>
<path d="M60.0129 18.3741C60.1967 18.3741 60.3832 18.3273 60.5539 18.2287L63.0827 16.7687C63.6012 16.4694 63.7788 15.8064 63.4795 15.288C63.1801 14.7694 62.517 14.5918 61.9987 14.8912L59.4699 16.3513C58.9514 16.6506 58.7738 17.3136 59.0731 17.832C59.2739 18.1797 59.6383 18.3741 60.0129 18.3741Z" fill="#006ADA"/>
<path d="M66.4913 29.4921H63.5713C62.9726 29.4921 62.4873 29.9774 62.4873 30.576C62.4873 31.1747 62.9726 31.66 63.5713 31.66H66.4913C67.0899 31.66 67.5752 31.1747 67.5752 30.576C67.5752 29.9774 67.0899 29.4921 66.4913 29.4921Z" fill="#006ADA"/>
<path d="M63.0827 44.3832L60.5539 42.9232C60.0354 42.6237 59.3725 42.8015 59.0731 43.3199C58.7738 43.8384 58.9514 44.5013 59.4699 44.8006L61.9987 46.2607C62.1694 46.3593 62.3559 46.4061 62.5397 46.4061C62.9143 46.4061 63.2787 46.2116 63.4795 45.864C63.7788 45.3455 63.6012 44.6826 63.0827 44.3832Z" fill="#006ADA"/>
</svg>
