<svg width="80" height="80" viewBox="0 0 80 80" fill="none" xmlns="http://www.w3.org/2000/svg">
<path d="M60.3306 33.4375H51.8931C51.0303 33.4375 50.3306 34.1372 50.3306 35V43.4375C50.3306 44.3003 51.0303 45 51.8931 45H60.3306C61.1934 45 61.8931 44.3003 61.8931 43.4375V35C61.8931 34.1372 61.1935 33.4375 60.3306 33.4375ZM58.7681 41.875H53.4556V36.5625H58.7681V41.875Z" fill="#006ADA"/>
<path d="M44.2368 33.4375H35.7993C34.9365 33.4375 34.2368 34.1372 34.2368 35V43.4375C34.2368 44.3003 34.9365 45 35.7993 45H44.2368C45.0996 45 45.7993 44.3003 45.7993 43.4375V35C45.7993 34.1372 45.0998 33.4375 44.2368 33.4375ZM42.6743 41.875H37.3618V36.5625H42.6743V41.875Z" fill="#006ADA"/>
<path d="M28.1431 33.4375H19.7056C18.8428 33.4375 18.1431 34.1372 18.1431 35V43.4375C18.1431 44.3003 18.8428 45 19.7056 45H28.1431C29.0059 45 29.7056 44.3003 29.7056 43.4375V35C29.7056 34.1372 29.006 33.4375 28.1431 33.4375ZM26.5806 41.875H21.2681V36.5625H26.5806V41.875Z" fill="#006ADA"/>
<path d="M35.7993 54.375H19.7056C18.8428 54.375 18.1431 55.0747 18.1431 55.9375V64.375C18.1431 65.2378 18.8428 65.9375 19.7056 65.9375H35.7993C36.6621 65.9375 37.3618 65.2378 37.3618 64.375V55.9375C37.3618 55.0747 36.6623 54.375 35.7993 54.375ZM34.2368 62.8125H21.2681V57.5H34.2368V62.8125Z" fill="#006ADA"/>
<path d="M60.0345 54.375H42.7715C41.9087 54.375 41.209 55.0747 41.209 55.9375C41.209 56.8003 41.9087 57.5 42.7715 57.5H60.0345C60.8973 57.5 61.597 56.8003 61.597 55.9375C61.597 55.0747 60.8973 54.375 60.0345 54.375Z" fill="#006ADA"/>
<path d="M61.1389 61.0828C60.8482 60.792 60.4451 60.625 60.0342 60.625C59.6232 60.625 59.2201 60.792 58.9295 61.0828C58.639 61.3734 58.4717 61.7766 58.4717 62.1875C58.4717 62.5984 58.6389 63.0016 58.9295 63.292C59.2201 63.5827 59.6232 63.75 60.0342 63.75C60.4451 63.75 60.8482 63.5828 61.1389 63.292C61.4293 63.0016 61.5967 62.5984 61.5967 62.1875C61.5967 61.7766 61.4295 61.3734 61.1389 61.0828Z" fill="#006ADA"/>
<path d="M53.8021 60.625H42.7715C41.9087 60.625 41.209 61.3247 41.209 62.1875C41.209 63.0503 41.9087 63.75 42.7715 63.75H53.8021C54.6649 63.75 55.3646 63.0503 55.3646 62.1875C55.3646 61.3247 54.6649 60.625 53.8021 60.625Z" fill="#006ADA"/>
<path d="M25.1294 6.04932C22.5447 6.04932 20.4419 8.15213 20.4419 10.7368C20.4419 13.3215 22.5447 15.4243 25.1294 15.4243C27.7141 15.4243 29.8169 13.3215 29.8169 10.7368C29.8169 8.15213 27.7141 6.04932 25.1294 6.04932ZM25.1294 12.2993C24.2678 12.2993 23.5669 11.5984 23.5669 10.7368C23.5669 9.87526 24.2678 9.17432 25.1294 9.17432C25.991 9.17432 26.6919 9.87526 26.6919 10.7368C26.6919 11.5984 25.991 12.2993 25.1294 12.2993Z" fill="#006ADA"/>
<path d="M78.4375 68.4375H77.3438V28.7519C77.3438 24.4441 73.8391 20.9394 69.5312 20.9394H68.125V1.5625C68.125 0.699688 67.4253 0 66.5625 0H13.4375C12.5747 0 11.875 0.699688 11.875 1.5625V20.9394H10.4688C6.16094 20.9394 2.65625 24.4441 2.65625 28.7519V40.3645C2.65625 41.2273 3.35594 41.927 4.21875 41.927C5.08156 41.927 5.78125 41.2273 5.78125 40.3645V28.7519C5.78125 26.1672 7.88406 24.0644 10.4688 24.0644H11.875V68.4375H5.78125V52.6562C5.78125 51.7934 5.08156 51.0938 4.21875 51.0938C3.35594 51.0938 2.65625 51.7934 2.65625 52.6562V68.4375H1.5625C0.699688 68.4375 0 69.1372 0 70V72.1875C0 76.4953 3.50469 80 7.8125 80H72.1875C76.4953 80 80 76.4953 80 72.1875V70C80 69.1372 79.3003 68.4375 78.4375 68.4375ZM68.125 27.7437C68.125 27.7433 68.125 27.7427 68.125 27.7422V24.0644H69.5312C72.1159 24.0644 74.2188 26.1672 74.2188 28.7519V68.4375H68.125V27.7437ZM15 3.125H65V23.9706L51.7695 10.7402C51.4764 10.4472 51.0791 10.2825 50.6647 10.2825C50.2503 10.2825 49.853 10.4472 49.5598 10.7402L43.0672 17.233L40.3758 14.5416C39.7655 13.9316 38.7764 13.9316 38.1659 14.5416L25.52 27.1875H15V3.125ZM45.2769 19.4428L50.6647 14.0548L63.7973 27.1875H53.0216L45.2769 19.4428ZM48.602 27.1875H29.9395L39.2708 17.8563L48.602 27.1875ZM15 30.3125H65V48.125H15V30.3125ZM15 51.25H65V68.4375H15V51.25ZM76.875 72.1875C76.875 74.7722 74.7722 76.875 72.1875 76.875H7.8125C5.22781 76.875 3.125 74.7722 3.125 72.1875V71.5625H4.42937C4.44156 71.5627 76.875 71.5625 76.875 71.5625V72.1875Z" fill="#006ADA"/>
<path d="M42.8123 72.6562H37.1743C36.3115 72.6562 35.6118 73.3559 35.6118 74.2188C35.6118 75.0816 36.3115 75.7812 37.1743 75.7812H42.8123C43.6751 75.7812 44.3748 75.0816 44.3748 74.2188C44.3748 73.3559 43.6751 72.6562 42.8123 72.6562Z" fill="#006ADA"/>
<path d="M5.32328 45.9266C5.03281 45.6358 4.62969 45.4688 4.21875 45.4688C3.80781 45.4688 3.40469 45.6358 3.11406 45.9266C2.82344 46.2173 2.65625 46.6203 2.65625 47.0312C2.65625 47.4422 2.82328 47.8453 3.11406 48.1358C3.40469 48.4266 3.80781 48.5938 4.21875 48.5938C4.62969 48.5938 5.03281 48.4266 5.32328 48.1358C5.61406 47.8453 5.78125 47.4422 5.78125 47.0312C5.78125 46.6203 5.61406 46.2172 5.32328 45.9266Z" fill="#006ADA"/>
</svg>
