<svg width="14" height="14" viewBox="0 0 14 14" fill="none" xmlns="http://www.w3.org/2000/svg">
<path fill-rule="evenodd" clip-rule="evenodd" d="M11.6049 7.60848C11.7231 7.63727 11.8437 7.66667 11.9601 7.66667C12.9002 7.83526 13.5899 8.64504 13.6067 9.6V11.6C13.6094 12.1724 13.3667 12.7184 12.9401 13.1C12.573 13.427 12.0984 13.6074 11.6067 13.6067H11.3534C5.60529 12.897 1.0707 8.37884 0.34008 2.63333C0.260596 2.05739 0.435669 1.47537 0.8197 1.03886C1.20373 0.60234 1.75871 0.354542 2.34008 0.360001H4.34008C5.32444 0.345689 6.17283 1.04985 6.34008 2.02C6.36008 2.17333 6.38675 2.32667 6.42008 2.47333C6.48737 2.76987 6.57423 3.06162 6.68008 3.34667C6.91309 3.98717 6.62555 4.70029 6.01341 5L5.73341 5.18667C6.09463 5.836 6.54326 6.43268 7.06675 6.96C7.59407 7.48349 8.19075 7.93212 8.84008 8.29333L8.98675 7.99333C9.28646 7.3812 9.99958 7.09366 10.6401 7.32667C10.9245 7.43432 11.2164 7.52122 11.5134 7.58667C11.5437 7.59354 11.5742 7.60099 11.6049 7.60848ZM12.0667 12.1667C12.2106 12.0403 12.2932 11.8582 12.2934 11.6667L12.2801 9.58667C12.2872 9.26687 12.0662 8.9871 11.7534 8.92C11.5712 8.89333 11.3912 8.86 11.2134 8.82C10.8565 8.73899 10.5047 8.63659 10.1601 8.51333L9.74675 9.44667C9.67155 9.6084 9.53469 9.73326 9.36675 9.79333C9.20444 9.86001 9.02239 9.86001 8.86008 9.79333C6.80491 8.83387 5.15288 7.18184 4.19341 5.12667C4.11874 4.96583 4.11122 4.78186 4.17253 4.61546C4.23383 4.44907 4.3589 4.31395 4.52008 4.24L5.45341 3.80667C5.32625 3.47012 5.22376 3.12476 5.14675 2.77333C5.10675 2.59556 5.07341 2.41556 5.04675 2.23333C4.97965 1.92058 4.69988 1.69955 4.38008 1.70667H2.38008C2.1886 1.70691 2.00646 1.78948 1.88008 1.93333C1.75219 2.08514 1.69197 2.28266 1.71341 2.48C2.34756 7.61905 6.3841 11.6748 11.5201 12.3333C11.7177 12.3581 11.9165 12.2975 12.0667 12.1667Z" fill="#A5B1C2"/>
</svg>
