<svg width="100" height="97" viewBox="0 0 100 97" fill="none" xmlns="http://www.w3.org/2000/svg">
<rect width="100" height="97" fill="white"/>
<path d="M81.7802 79.9999H71.2466V61.1116H81.7802V79.9999ZM73.434 77.8125H79.5926V63.2991H73.434V77.8125Z" fill="black"/>
<path d="M68.218 79.9999H57.6865V51.569H68.218V79.9999ZM59.8741 77.8125H66.0306V53.7566H59.8741V77.8125Z" fill="black"/>
<path d="M54.6571 80H44.1235V40.8348H54.6571V80ZM46.3109 77.8125H52.4696V43.0222H46.3109V77.8125Z" fill="black"/>
<path d="M41.094 79.9998H30.5625V30.098H41.094V79.9998ZM32.75 77.8124H38.9066V32.2854H32.75V77.8124Z" fill="black"/>
<path d="M27.5337 79.9999H17V22.9418H27.5336V79.9999H27.5337ZM19.1875 77.8125H25.3462V25.1293H19.1875V77.8125Z" fill="black"/>
<path d="M27.9756 12.2107L79.5759 49.453L77.5688 52.2724L86.9996 53.1863L83.0717 44.5425L81.0646 47.3619L29.7166 10C29.7166 10 28.0476 12.1814 27.9756 12.2107Z" fill="black"/>
</svg>
