<svg width="100" height="100" viewBox="0 0 100 100" fill="none" xmlns="http://www.w3.org/2000/svg">
<rect width="100" height="100" fill="white"/>
<path fill-rule="evenodd" clip-rule="evenodd" d="M18.0317 80.9682V18H18V81H81.0159V80.9682H18.0317ZM82.0159 79.9682V82H17V17H19.0317V79.9682H82.0159Z" fill="black"/>
<path d="M32.6133 65.6072C35.4843 65.6072 37.8196 63.2698 37.8196 60.3988C37.8196 59.3186 37.4889 58.3144 36.9236 57.4818L44.9873 50.4116C45.8692 51.0977 46.9756 51.5079 48.1767 51.5079C49.5543 51.5079 50.8081 50.9688 51.7407 50.0917L55.841 54.2766C54.9938 55.2034 54.4762 56.4362 54.4762 57.7877C54.4762 60.6587 56.8116 62.996 59.6826 62.996C62.5536 62.996 64.891 60.6587 64.891 57.7877C64.891 56.7563 64.5881 55.7945 64.0684 54.9846L74.9057 42.4303C75.4954 42.6626 76.1365 42.7915 76.8076 42.7915C79.6786 42.7915 82.0159 40.4561 82.0159 37.5851C82.0159 34.7141 79.6786 32.3768 76.8076 32.3768C73.9366 32.3768 71.6012 34.7141 71.6012 37.5851C71.6012 39.047 72.2074 40.369 73.1807 41.3155L62.6518 53.5125C61.8088 52.925 60.7853 52.5792 59.6826 52.5792C58.9018 52.5792 58.1612 52.7532 57.4959 53.0626L52.9365 48.4091C53.2238 47.7636 53.385 47.0501 53.385 46.2994C53.385 43.4284 51.0477 41.093 48.1767 41.093C45.3057 41.093 42.9703 43.4284 42.9703 46.2994C42.9703 47.2366 43.2205 48.1162 43.6556 48.877L35.4721 56.0504C34.6508 55.5087 33.6685 55.1923 32.6131 55.1923C29.7421 55.1923 27.4048 57.5277 27.4048 60.3987C27.4049 63.2698 29.7421 65.6072 32.6133 65.6072ZM76.8077 34.4087C78.5598 34.4087 79.9843 35.8333 79.9843 37.5853C79.9843 39.3352 78.5598 40.7599 76.8077 40.7599C75.0577 40.7599 73.6331 39.3352 73.6331 37.5853C73.6331 35.8333 75.0576 34.4087 76.8077 34.4087ZM62.8592 57.7877C62.8592 59.5396 61.4347 60.9642 59.6826 60.9642C57.9326 60.9642 56.5079 59.5396 56.5079 57.7877C56.5079 56.0356 57.9325 54.611 59.6826 54.611C61.4347 54.6111 62.8592 56.0357 62.8592 57.7877ZM48.1767 43.125C49.9286 43.125 51.3533 44.5495 51.3533 46.2996C51.3533 48.0516 49.9287 49.4761 48.1767 49.4761C46.4267 49.4761 45.002 48.0516 45.002 46.2996C45.0021 44.5495 46.4267 43.125 48.1767 43.125ZM32.6133 57.2241C34.3632 57.2241 35.7879 58.6488 35.7879 60.3988C35.7879 62.1508 34.3634 63.5754 32.6133 63.5754C30.8613 63.5754 29.4366 62.1509 29.4366 60.3988C29.4366 58.6488 30.8612 57.2241 32.6133 57.2241Z" fill="black"/>
</svg>
