<svg width="100" height="100" viewBox="0 0 100 100" fill="none" xmlns="http://www.w3.org/2000/svg">
<rect width="100" height="100" fill="white"/>
<path d="M48.906 19.187V37.3044H51.0934V19.187L56.1456 24.2391L57.6923 22.6926L49.9997 15L42.3071 22.6926L43.8537 24.2391L48.906 19.187Z" fill="black"/>
<path d="M55.0457 66.7716H23.75V68.9592H55.0457V66.7716Z" fill="black"/>
<path d="M35.5933 73.0842H23.75V75.2718H35.5933V73.0842Z" fill="black"/>
<path d="M79.5056 39.1822H20.4923C17.463 39.1822 15 41.6452 15 44.6745V79.5078C15 82.5371 17.463 85.0001 20.4923 85.0001H79.5056C82.5347 85.0001 85 82.5371 85 79.5078V44.6745C85 41.6452 82.5347 39.1822 79.5056 39.1822ZM20.4923 41.3696H79.5056C81.33 41.3696 82.8124 42.8522 82.8124 44.6743V48.2012H17.1876V44.6743C17.1876 42.8522 18.67 41.3696 20.4923 41.3696ZM82.8126 50.3889V57.7718H17.1876V50.3889H82.8126V50.3889ZM79.5056 82.8125H20.4923C18.6701 82.8125 17.1876 81.3299 17.1876 79.5078V59.9592H82.8126V79.5078C82.8126 81.3301 81.33 82.8125 79.5056 82.8125Z" fill="black"/>
</svg>
