<svg width="100" height="100" viewBox="0 0 100 100" fill="none" xmlns="http://www.w3.org/2000/svg">
<rect width="100" height="100" fill="white"/>
<g clip-path="url(#clip0)">
<path d="M55.0457 54.6815H23.75V56.8691H55.0457V54.6815Z" fill="black"/>
<path d="M35.5933 60.9941H23.75V63.1817H35.5933V60.9941Z" fill="black"/>
<path d="M79.5056 27.0901H20.4923C17.463 27.0901 15 29.5552 15 32.5845V67.4179C15 70.4471 17.463 72.9102 20.4923 72.9102H79.5057C82.5349 72.9102 85.0001 70.4472 85.0001 67.4179V32.5845C85 29.5552 82.5347 27.0901 79.5056 27.0901ZM20.4923 29.2775H79.5057C81.33 29.2775 82.8126 30.7601 82.8126 32.5843V36.1112H17.1876V32.5843C17.1876 30.7601 18.67 29.2775 20.4923 29.2775ZM82.8126 38.2989V45.6818H17.1876V38.2989H82.8126ZM79.5056 70.7226H20.4923C18.67 70.7226 17.1876 69.2401 17.1876 67.4179V47.8692H82.8126V67.4179C82.8126 69.2401 81.33 70.7226 79.5056 70.7226Z" fill="black"/>
</g>
<defs>
<clipPath id="clip0">
<rect width="70" height="70" fill="white" transform="translate(15 15)"/>
</clipPath>
</defs>
</svg>
