<svg width="100" height="100" viewBox="0 0 100 100" fill="none" xmlns="http://www.w3.org/2000/svg">
<rect width="100" height="100" fill="white"/>
<path d="M58.7308 29.6119L57.1843 28.0651L52.1321 33.1174V15H49.9446V33.1174L44.8924 28.0651L43.3457 29.6119L51.0384 37.3044L58.7308 29.6119Z" fill="black"/>
<path d="M55.0479 66.7716H23.75V68.9592H55.0479V66.7716Z" fill="black"/>
<path d="M35.5954 73.0842H23.75V75.2718H35.5954V73.0842Z" fill="black"/>
<path d="M79.5077 39.1822H20.4944C17.4653 39.1822 15 41.6452 15 44.6745V79.5078C15 82.5371 17.4653 85.0001 20.4944 85.0001H79.5077C82.5369 85.0001 85 82.5371 85 79.5078V44.6745C85 41.6452 82.5369 39.1822 79.5077 39.1822ZM20.4944 41.3696H79.5077C81.3299 41.3696 82.8124 42.8522 82.8124 44.6743V48.2012H17.1874V44.6743C17.1874 42.8522 18.67 41.3696 20.4944 41.3696ZM82.8124 50.3889V57.7718H17.1874V50.3889H82.8124V50.3889ZM79.5077 82.8125H20.4944C18.67 82.8125 17.1876 81.3299 17.1876 79.5078V59.9592H82.8126V79.5078C82.8124 81.3301 81.33 82.8125 79.5077 82.8125Z" fill="black"/>
</svg>
