<svg width="100" height="100" viewBox="0 0 100 100" fill="none" xmlns="http://www.w3.org/2000/svg">
<rect width="100" height="100" fill="white"/>
<path d="M50.0002 39.1635C53.8742 39.1635 57.0145 36.0229 57.0145 32.1489C57.0145 28.2749 53.8742 25.1343 50.0002 25.1343C46.1262 25.1343 42.9854 28.2749 42.9854 32.1489C42.9854 36.0229 46.1262 39.1635 50.0002 39.1635ZM50.0002 27.3217C52.6619 27.3217 54.8271 29.487 54.8271 32.1489C54.8271 34.8106 52.6619 36.9759 50.0002 36.9759C47.3385 36.9759 45.1729 34.8106 45.1729 32.1489C45.1728 29.4872 47.3385 27.3217 50.0002 27.3217Z" fill="black"/>
<path d="M42.8907 40.7751C42.8907 40.7751 35.7812 40.87 35.7812 47.4105C35.7812 53.9511 35.7812 55.4678 35.7812 55.4678C35.7812 55.4678 49.6202 55.4678 49.6678 55.4678L42.8907 40.7751ZM37.9688 47.4105C37.9688 44.4817 40.0644 43.4791 41.5711 43.137L46.25 53.2803H37.9688V47.4105Z" fill="black"/>
<path d="M64.2187 55.4678C64.2187 55.4678 64.2187 53.9511 64.2187 47.4105C64.2187 40.87 57.1093 40.7751 57.1093 40.7751L50.3315 55.4678H64.2187ZM58.429 43.137C59.9356 43.4791 62.0313 44.4814 62.0313 47.4105V53.2804H53.7497L58.429 43.137Z" fill="black"/>
<path d="M45.1177 40.7751L49.9995 51.5812L54.8812 40.7751H49.9995H45.1177Z" fill="black"/>
<path d="M67.5 15H22.6562V85H77.3438V25.9376L67.5 15ZM67.5454 18.3203L74.524 26.0741H67.5454V18.3203ZM24.8437 82.8126V17.1876H65.3578V28.2619H75.1563V82.8126H24.8437Z" fill="black"/>
<path d="M66.4062 63.0438H33.5938V65.2312H66.4062V63.0438Z" fill="black"/>
<path d="M66.4062 68.6343H33.5938V70.8219H66.4062V68.6343Z" fill="black"/>
<path d="M66.4062 74.2247H33.5938V76.4123H66.4062V74.2247Z" fill="black"/>
</svg>
