<svg width="100" height="100" viewBox="0 0 100 100" fill="none" xmlns="http://www.w3.org/2000/svg">
<rect width="100" height="100" fill="white"/>
<path d="M73.9297 84.9999H25.2695V77.5106H73.9298V84.9999H73.9297ZM27.4575 82.8119H71.7417V79.6986H27.4575V82.8119Z" fill="black"/>
<path d="M70.3078 72.9039H29.6923V47.2799H21.8462L50 15L78.1539 47.2799H70.3078V72.9039ZM31.8803 70.7159H68.1196V45.0919H73.3419L50 18.329L26.6582 45.0919H31.8803V70.7159Z" fill="black"/>
<path d="M47.6579 46.3439C47.6579 48.5042 47.2389 50.1363 46.4009 51.2402C45.5629 52.344 44.3334 52.8959 42.7122 52.8959C41.1787 52.8959 39.9875 52.3322 39.1387 51.2046C38.2898 50.077 37.8652 48.4569 37.8652 46.3439C37.8652 44.193 38.2732 42.5729 39.0894 41.4832C39.9054 40.3936 41.1131 39.8488 42.7124 39.8488C44.3007 39.8488 45.5219 40.4125 46.3764 41.54C47.2307 42.6676 47.6579 44.2689 47.6579 46.3439ZM40.1327 46.3439C40.1327 47.9546 40.3354 49.1628 40.7407 49.968C41.1459 50.7735 41.8032 51.1762 42.7124 51.1762C44.5088 51.1762 45.4069 49.5655 45.4069 46.3439C45.4069 43.1413 44.5087 41.54 42.7124 41.54C41.8032 41.54 41.1459 41.938 40.7407 42.7339C40.3354 43.5299 40.1327 44.7332 40.1327 46.3439ZM57.8955 40.1473L44.5689 60.926H42.1537L55.4802 40.1473H57.8955V40.1473ZM62.1347 54.6725C62.1347 56.8233 61.7129 58.4506 60.8749 59.5545C60.0369 60.6583 58.8102 61.2102 57.1889 61.2102C55.6335 61.2102 54.4341 60.6465 53.5961 59.5189C52.7581 58.3913 52.342 56.7759 52.342 54.6725C52.342 52.5216 52.7472 50.9015 53.5632 49.8118C54.3792 48.7222 55.5897 48.1773 57.1889 48.1773C58.7444 48.1773 59.9548 48.734 60.8257 49.8473C61.6965 50.9606 62.1347 52.569 62.1347 54.6725ZM54.5929 54.6725C54.5929 56.2926 54.7955 57.5032 55.2008 58.3038C55.6061 59.1045 56.2688 59.5048 57.1889 59.5048C58.1091 59.5048 58.7882 59.1092 59.2264 58.318C59.6645 57.5269 59.8837 56.3118 59.8837 54.6725C59.8837 53.0522 59.6645 51.8513 59.2264 51.0696C58.7882 50.2879 58.1091 49.897 57.1889 49.897C56.2688 49.897 55.6061 50.2879 55.2008 51.0696C54.7957 51.8513 54.5929 53.0523 54.5929 54.6725Z" fill="black"/>
</svg>
