<svg width="12" height="14" viewBox="0 0 12 14" fill="none" xmlns="http://www.w3.org/2000/svg">
<path fill-rule="evenodd" clip-rule="evenodd" d="M10 0.333008H2C0.89543 0.333008 0 1.22844 0 2.33301V9.66634C0 10.7709 0.89543 11.6663 2 11.6663H3.72667L5.52667 13.473C5.65248 13.5978 5.8228 13.6674 6 13.6663C6.1589 13.6664 6.31257 13.6096 6.43333 13.5063L8.58 11.6663H10C11.1046 11.6663 12 10.7709 12 9.66634V2.33301C12 1.22844 11.1046 0.333008 10 0.333008ZM8.19333 5.19967C8.18972 5.68465 8.02299 6.15431 7.72 6.53301C8.31673 6.89357 8.78538 7.43217 9.06 8.07301C9.2033 8.41175 9.04519 8.80254 8.70667 8.94634C8.62401 8.97993 8.53587 8.99801 8.44667 8.99967C8.17915 8.99946 7.93767 8.83934 7.83333 8.59301C7.51924 7.85883 6.79854 7.38186 6 7.37967C5.20389 7.38451 4.48646 7.86105 4.17333 8.59301C4.08675 8.82149 3.88212 8.98431 3.64002 9.01733C3.39792 9.05035 3.15716 8.94829 3.01255 8.75134C2.86794 8.55439 2.84266 8.29411 2.94667 8.07301C3.21953 7.43312 3.68575 6.89464 4.28 6.53301C3.97701 6.15431 3.81028 5.68465 3.80667 5.19967C3.80667 3.98833 4.78866 3.00634 6 3.00634C7.21134 3.00634 8.19333 3.98833 8.19333 5.19967ZM5.20485 5.51389C5.33756 5.83607 5.65156 6.04633 6 6.04634C6.47237 6.04636 6.85634 5.66537 6.86 5.19301C6.8627 4.84458 6.65489 4.52895 6.33375 4.39373C6.01262 4.25852 5.64163 4.33044 5.39428 4.57587C5.14694 4.82129 5.07213 5.19171 5.20485 5.51389ZM10 10.333C10.3682 10.333 10.6667 10.0345 10.6667 9.66634V2.33301C10.6667 1.96482 10.3682 1.66634 10 1.66634H2C1.63181 1.66634 1.33333 1.96482 1.33333 2.33301V9.66634C1.33333 10.0345 1.63181 10.333 2 10.333H4C4.1772 10.332 4.34752 10.4016 4.47333 10.5263L6.03333 12.093L7.9 10.493C8.02076 10.3897 8.17444 10.333 8.33333 10.333H10Z" fill="#A5B1C2"/>
</svg>
