<svg width="14" height="12" viewBox="0 0 14 12" fill="none" xmlns="http://www.w3.org/2000/svg">
<path fill-rule="evenodd" clip-rule="evenodd" d="M11.6667 0.666992H2.33333C1.22876 0.666992 0.333328 1.56242 0.333328 2.66699V9.33366C0.333328 10.4382 1.22876 11.3337 2.33333 11.3337H11.6667C12.7712 11.3337 13.6667 10.4382 13.6667 9.33366V2.66699C13.6667 1.56242 12.7712 0.666992 11.6667 0.666992ZM11.3933 2.00033L7.47333 5.92033C7.34815 6.04653 7.17775 6.11752 7 6.11752C6.82224 6.11752 6.65184 6.04653 6.52666 5.92033L2.60666 2.00033H11.3933ZM11.6667 10.0003C12.0349 10.0003 12.3333 9.70185 12.3333 9.33366V2.94033L8.41333 6.86033C7.63248 7.6402 6.36751 7.6402 5.58666 6.86033L1.66666 2.94033V9.33366C1.66666 9.70185 1.96514 10.0003 2.33333 10.0003H11.6667Z" fill="#A5B1C2"/>
</svg>
