<svg width="100" height="100" viewBox="0 0 100 100" fill="none" xmlns="http://www.w3.org/2000/svg">
<rect width="100" height="100" fill="white"/>
<path fill-rule="evenodd" clip-rule="evenodd" d="M49.9987 23.4167C40.1036 23.4167 32.082 31.4382 32.082 41.3333C32.082 51.2284 40.1036 59.25 49.9987 59.25C59.8938 59.25 67.9154 51.2284 67.9154 41.3333C67.9154 31.4382 59.8938 23.4167 49.9987 23.4167ZM27.082 41.3333C27.082 28.6768 37.3422 18.4167 49.9987 18.4167C62.6552 18.4167 72.9154 28.6768 72.9154 41.3333C72.9154 53.9898 62.6552 64.25 49.9987 64.25C37.3422 64.25 27.082 53.9898 27.082 41.3333Z" fill="black"/>
<path fill-rule="evenodd" clip-rule="evenodd" d="M60.7267 56.005C62.0954 55.8234 63.3522 56.7858 63.5338 58.1545L67.063 84.7545C67.1892 85.7061 66.7595 86.6459 65.9571 87.1729C65.1548 87.6999 64.1216 87.7209 63.2985 87.2271L50.0014 79.2488L36.7043 87.2271C35.8811 87.721 34.8478 87.6999 34.0454 87.1728C33.2431 86.6457 32.8134 85.7058 32.9398 84.7542L36.469 58.1833C36.6508 56.8146 37.9077 55.8525 39.2764 56.0343C40.645 56.216 41.6072 57.473 41.4254 58.8416L38.5791 80.2712L48.7151 74.1896C49.5068 73.7146 50.4959 73.7146 51.2876 74.1896L61.4244 80.2717L58.5772 58.8121C58.3957 57.4434 59.358 56.1866 60.7267 56.005Z" fill="black"/>
</svg>
