<svg width="100" height="100" viewBox="0 0 100 100" fill="none" xmlns="http://www.w3.org/2000/svg">
<rect width="100" height="100" fill="white"/>
<path fill-rule="evenodd" clip-rule="evenodd" d="M23.7513 35C22.8672 35 22.0194 35.3512 21.3943 35.9763C20.7692 36.6014 20.418 37.4493 20.418 38.3333V61.6667C20.418 62.5507 20.7692 63.3986 21.3943 64.0237C22.0194 64.6488 22.8672 65 23.7513 65H29.5846C30.9653 65 32.0846 66.1193 32.0846 67.5C32.0846 68.8807 30.9653 70 29.5846 70H23.7513C21.5412 70 19.4215 69.122 17.8587 67.5592C16.2959 65.9964 15.418 63.8768 15.418 61.6667V38.3333C15.418 36.1232 16.2959 34.0036 17.8587 32.4408C19.4215 30.878 21.5412 30 23.7513 30H33.0555C34.4362 30 35.5555 31.1193 35.5555 32.5C35.5555 33.8807 34.4362 35 33.0555 35H23.7513ZM56.2513 32.5C56.2513 31.1193 57.3706 30 58.7513 30H64.5846C66.7948 30 68.9144 30.878 70.4772 32.4408C72.04 34.0036 72.918 36.1232 72.918 38.3333V61.6667C72.918 63.8768 72.04 65.9964 70.4772 67.5592C68.9144 69.122 66.7948 70 64.5846 70H55.2805C53.8998 70 52.7805 68.8807 52.7805 67.5C52.7805 66.1193 53.8998 65 55.2805 65H64.5846C65.4687 65 66.3165 64.6488 66.9417 64.0237C67.5668 63.3986 67.918 62.5507 67.918 61.6667V38.3333C67.918 37.4493 67.5668 36.6014 66.9417 35.9763C66.3165 35.3512 65.4687 35 64.5846 35H58.7513C57.3706 35 56.2513 33.8807 56.2513 32.5Z" fill="black"/>
<path fill-rule="evenodd" clip-rule="evenodd" d="M82.082 44.5833C83.4627 44.5833 84.582 45.7026 84.582 47.0833V52.9167C84.582 54.2974 83.4627 55.4167 82.082 55.4167C80.7013 55.4167 79.582 54.2974 79.582 52.9167V47.0833C79.582 45.7026 80.7013 44.5833 82.082 44.5833Z" fill="black"/>
<path fill-rule="evenodd" clip-rule="evenodd" d="M48.4714 30.4199C49.6202 31.1858 49.9307 32.7379 49.1648 33.8868L40.0893 47.5H52.918C53.84 47.5 54.6871 48.0075 55.1222 48.8204C55.5572 49.6333 55.5095 50.6196 54.9981 51.3868L43.3314 68.8868C42.5656 70.0356 41.0134 70.346 39.8646 69.5801C38.7157 68.8143 38.4053 67.2621 39.1712 66.1133L48.2467 52.5H35.418C34.496 52.5 33.6488 51.9925 33.2138 51.1797C32.7787 50.3668 32.8264 49.3804 33.3378 48.6133L45.0045 31.1133C45.7704 29.9644 47.3226 29.654 48.4714 30.4199Z" fill="black"/>
</svg>
