<svg width="100" height="100" viewBox="0 0 100 100" fill="none" xmlns="http://www.w3.org/2000/svg">
<rect width="100" height="100" fill="white"/>
<path fill-rule="evenodd" clip-rule="evenodd" d="M35.8581 24.1912C39.6088 20.4405 44.6959 18.3333 50.0002 18.3333C55.3045 18.3333 60.3916 20.4405 64.1423 24.1912C67.8931 27.9419 70.0002 33.029 70.0002 38.3333C70.0002 48.1733 72.1054 54.3157 74.0699 57.9175C75.0557 59.7246 76.0196 60.9176 76.6979 61.6335C77.0377 61.9922 77.3075 62.2329 77.4747 62.3723C77.5583 62.442 77.6164 62.4864 77.6448 62.5075C77.6528 62.5135 77.6585 62.5176 77.6617 62.5199C78.5609 63.1349 78.9593 64.2629 78.6429 65.3078C78.3237 66.3622 77.3519 67.0833 76.2502 67.0833H23.7502C22.6485 67.0833 21.6767 66.3622 21.3575 65.3078C21.0411 64.2629 21.4395 63.1349 22.3387 62.5199C22.3419 62.5176 22.3476 62.5135 22.3556 62.5075C22.384 62.4864 22.4421 62.442 22.5257 62.3723C22.6929 62.2329 22.9627 61.9922 23.3025 61.6335C23.9808 60.9176 24.9447 59.7246 25.9305 57.9175C27.895 54.3157 30.0002 48.1733 30.0002 38.3333C30.0002 33.029 32.1073 27.9419 35.8581 24.1912ZM22.36 62.5055C22.3601 62.5054 22.3602 62.5054 22.3603 62.5053C22.3603 62.5053 22.3603 62.5053 22.3603 62.5053L22.36 62.5055ZM29.2638 62.0833H70.7366C70.3874 61.5475 70.033 60.9581 69.6805 60.3117C67.27 55.8926 65.0002 48.91 65.0002 38.3333C65.0002 34.3551 63.4198 30.5398 60.6068 27.7267C57.7938 24.9137 53.9784 23.3333 50.0002 23.3333C46.0219 23.3333 42.2066 24.9137 39.3936 27.7267C36.5805 30.5398 35.0002 34.3551 35.0002 38.3333C35.0002 48.91 32.7304 55.8926 30.3199 60.3117C29.9674 60.9581 29.613 61.5475 29.2638 62.0833Z" fill="black"/>
<path fill-rule="evenodd" clip-rule="evenodd" d="M43.746 67.8375C44.9403 67.1447 46.4701 67.5513 47.1629 68.7456C47.4559 69.2507 47.8765 69.67 48.3825 69.9615C48.8886 70.2529 49.4623 70.4063 50.0462 70.4063C50.6302 70.4063 51.2039 70.2529 51.71 69.9615C52.216 69.67 52.6366 69.2507 52.9296 68.7456C53.6224 67.5513 55.1522 67.1447 56.3465 67.8375C57.5408 68.5303 57.9474 70.0601 57.2546 71.2544C56.522 72.5173 55.4706 73.5655 54.2055 74.2941C52.9404 75.0228 51.5062 75.4063 50.0462 75.4063C48.5863 75.4063 47.152 75.0228 45.887 74.2941C44.6219 73.5655 43.5705 72.5173 42.8379 71.2544C42.1451 70.0601 42.5517 68.5303 43.746 67.8375Z" fill="black"/>
</svg>
