<svg width="100" height="100" viewBox="0 0 100 100" fill="none" xmlns="http://www.w3.org/2000/svg">
<rect width="100" height="100" fill="white"/>
<path fill-rule="evenodd" clip-rule="evenodd" d="M39.1712 22.3632C39.6348 21.6678 40.4154 21.25 41.2513 21.25H58.7513C59.5872 21.25 60.3678 21.6678 60.8314 22.3632L65.9226 30H76.2513C78.4614 30 80.5811 30.878 82.1439 32.4408C83.7067 34.0036 84.5846 36.1232 84.5846 38.3333V70.4167C84.5846 72.6268 83.7067 74.7464 82.1439 76.3092C80.5811 77.872 78.4614 78.75 76.2513 78.75H23.7513C21.5412 78.75 19.4215 77.872 17.8587 76.3092C16.2959 74.7464 15.418 72.6268 15.418 70.4167V38.3333C15.418 36.1232 16.2959 34.0036 17.8587 32.4408C19.4215 30.878 21.5412 30 23.7513 30H34.08L39.1712 22.3632ZM42.5893 26.25L37.4981 33.8868C37.0344 34.5822 36.2539 35 35.418 35H23.7513C22.8672 35 22.0194 35.3512 21.3943 35.9763C20.7692 36.6014 20.418 37.4493 20.418 38.3333V70.4167C20.418 71.3007 20.7692 72.1486 21.3943 72.7737C22.0194 73.3988 22.8672 73.75 23.7513 73.75H76.2513C77.1354 73.75 77.9832 73.3988 78.6083 72.7737C79.2334 72.1486 79.5846 71.3007 79.5846 70.4167V38.3333C79.5846 37.4493 79.2334 36.6014 78.6083 35.9763C77.9832 35.3512 77.1354 35 76.2513 35H64.5846C63.7487 35 62.9682 34.5822 62.5045 33.8868L57.4133 26.25H42.5893Z" fill="black"/>
<path fill-rule="evenodd" clip-rule="evenodd" d="M49.9987 43.75C44.9361 43.75 40.832 47.8541 40.832 52.9167C40.832 57.9793 44.9361 62.0833 49.9987 62.0833C55.0613 62.0833 59.1654 57.9793 59.1654 52.9167C59.1654 47.8541 55.0613 43.75 49.9987 43.75ZM35.832 52.9167C35.832 45.0926 42.1747 38.75 49.9987 38.75C57.8227 38.75 64.1654 45.0926 64.1654 52.9167C64.1654 60.7407 57.8227 67.0833 49.9987 67.0833C42.1747 67.0833 35.832 60.7407 35.832 52.9167Z" fill="black"/>
</svg>
