<svg width="100" height="100" viewBox="0 0 100 100" fill="none" xmlns="http://www.w3.org/2000/svg">
<rect width="100" height="100" fill="white"/>
<path fill-rule="evenodd" clip-rule="evenodd" d="M36.5662 62.8156C37.5425 61.8393 39.1254 61.8393 40.1018 62.8156L50.0007 72.7145L59.8995 62.8156C60.8759 61.8393 62.4588 61.8393 63.4351 62.8156C64.4114 63.7919 64.4114 65.3748 63.4351 66.3511L51.7684 78.0178C51.2996 78.4866 50.6637 78.75 50.0007 78.75C49.3376 78.75 48.7017 78.4866 48.2329 78.0178L36.5662 66.3511C35.5899 65.3748 35.5899 63.7919 36.5662 62.8156Z" fill="black"/>
<path fill-rule="evenodd" clip-rule="evenodd" d="M50 47.5C51.3807 47.5 52.5 48.6193 52.5 50V76.25C52.5 77.6307 51.3807 78.75 50 78.75C48.6193 78.75 47.5 77.6307 47.5 76.25V50C47.5 48.6193 48.6193 47.5 50 47.5Z" fill="black"/>
<path fill-rule="evenodd" clip-rule="evenodd" d="M40.2955 21.2328C44.2006 21.0923 48.0867 21.8396 51.6612 23.4184C55.2357 24.9971 58.4054 27.3662 60.9318 30.3473C63.0349 32.8288 64.6466 35.6807 65.6879 38.75H67.4982C67.4986 38.75 67.499 38.75 67.4994 38.75C67.4997 38.75 67.4992 38.75 67.4994 38.75C71.1301 38.7476 74.6678 39.902 77.5981 42.0456C80.5289 44.1897 82.7002 47.2119 83.797 50.6736C84.8938 54.1354 84.859 57.8565 83.6975 61.2971C82.5361 64.7377 80.3086 67.7187 77.3382 69.8075C76.2087 70.6018 74.6493 70.33 73.8551 69.2006C73.0609 68.0712 73.3326 66.5118 74.4621 65.7175C76.5631 64.2401 78.1387 62.1316 78.9602 59.698C79.7817 57.2644 79.8063 54.6323 79.0305 52.1838C78.2547 49.7352 76.7189 47.5976 74.6459 46.0811C72.5729 44.5645 70.0706 43.748 67.5021 43.75H63.8251C62.6837 43.75 61.6872 42.977 61.4036 41.8714C60.6203 38.819 59.1548 35.984 57.1174 33.5799C55.08 31.1759 52.5237 29.2653 49.6411 27.9921C46.7584 26.7189 43.6245 26.1163 40.4752 26.2295C37.326 26.3428 34.2434 27.169 31.4597 28.646C28.6759 30.1229 26.2635 32.2122 24.404 34.7564C22.5446 37.3006 21.2865 40.2335 20.7245 43.3343C20.1626 46.4351 20.3114 49.623 21.1598 52.6579C22.0081 55.6929 23.5339 58.4958 25.6223 60.8558C26.5373 61.8898 26.4409 63.4697 25.4069 64.3847C24.3729 65.2998 22.7929 65.2033 21.8779 64.1693C19.2883 61.243 17.3963 57.7673 16.3443 54.004C15.2924 50.2406 15.1079 46.2877 15.8047 42.4427C16.5015 38.5977 18.0615 34.9609 20.3673 31.8061C22.673 28.6512 25.6644 26.0606 29.1163 24.2291C32.5681 22.3977 36.3905 21.3732 40.2955 21.2328Z" fill="black"/>
</svg>
