<svg width="100" height="100" viewBox="0 0 100 100" fill="none" xmlns="http://www.w3.org/2000/svg">
<rect width="100" height="100" fill="white"/>
<path fill-rule="evenodd" clip-rule="evenodd" d="M56.4116 17.6406C56.5641 16.2684 57.8001 15.2795 59.1724 15.4319C65.6548 16.1521 71.6997 19.055 76.3145 23.6641C80.9294 28.2731 83.8399 34.3143 84.5682 40.7958C84.7224 42.1679 83.7351 43.4052 82.363 43.5594C80.9909 43.7135 79.7536 42.7262 79.5995 41.3542C78.9978 35.9999 76.5935 31.0093 72.7812 27.2018C68.9689 23.3943 63.9753 20.9963 58.6203 20.4014C57.248 20.2489 56.2592 19.0129 56.4116 17.6406ZM37.9689 24.1391C37.3556 23.6117 36.5714 23.3252 35.7626 23.3332L35.738 23.3333H26.9895C26.527 23.3339 26.0697 23.4307 25.6467 23.6175C25.2234 23.8045 24.8436 24.0776 24.5316 24.4194C24.2196 24.7611 23.9822 25.1641 23.8345 25.6027C23.6886 26.0359 23.6334 26.4943 23.6722 26.9496C24.5908 35.5667 27.5245 43.8467 32.2362 51.1199L32.248 51.1384C36.5293 57.8758 42.2414 63.5879 48.9788 67.8691L48.9982 67.8816C56.2376 72.5763 64.4763 75.5092 73.0535 76.4452C73.5093 76.4837 73.9683 76.4279 74.4018 76.2813C74.8415 76.1326 75.2453 75.8937 75.5873 75.5799C75.9294 75.2661 76.2021 74.8844 76.388 74.4591C76.574 74.0338 76.6691 73.5743 76.6672 73.1101L76.6672 73.1V64.35C76.6672 64.3375 76.6673 64.3251 76.6674 64.3126C76.6676 64.3044 76.6677 64.2962 76.6679 64.288C76.6882 63.4706 76.4074 62.6743 75.8788 62.0505C75.3524 61.4292 74.6168 61.0221 73.8109 60.906C70.8282 60.5117 67.8995 59.7816 65.0807 58.7297L65.075 58.7276C64.4785 58.5034 63.8302 58.4549 63.2069 58.5878C62.5855 58.7203 62.015 59.0276 61.5625 59.4735C61.5611 59.4749 61.5597 59.4763 61.5583 59.4776L57.8641 63.1719C57.0683 63.9677 55.8389 64.1337 54.8606 63.5774C47.1674 59.2029 40.7976 52.8331 36.4231 45.1399C35.8668 44.1616 36.0328 42.9322 36.8286 42.1364L40.5271 38.4379C40.9729 37.9854 41.2802 37.4149 41.4127 36.7936C41.5456 36.1703 41.4971 35.522 41.2729 34.9255L41.2708 34.9198C40.219 32.1012 39.4889 29.1727 39.0946 26.1902C38.9795 25.3931 38.5797 24.6644 37.9689 24.1391ZM35.7268 18.3333C37.7442 18.3167 39.6992 19.0325 41.2291 20.3482C42.7623 21.6667 43.7637 23.4978 44.0467 25.5001L44.0499 25.5231C44.3944 28.1356 45.0333 30.7007 45.9544 33.1696C46.5139 34.66 46.6348 36.2795 46.3027 37.8365C45.9704 39.3947 45.1984 40.825 44.0781 41.9578L44.0683 41.9678L41.7411 44.2949C45.2821 49.9439 50.0566 54.7184 55.7056 58.2594L58.0426 55.9223C59.1755 54.8021 60.6058 54.0301 62.164 53.6978C63.721 53.3657 65.3406 53.4866 66.8311 54.0462C69.2999 54.9672 71.865 55.6061 74.4774 55.9506L74.4997 55.9537C76.5238 56.2392 78.3722 57.2587 79.6936 58.8182C81.0077 60.3692 81.7094 62.3467 81.6672 64.3784V73.0949C81.6712 74.2536 81.4335 75.4004 80.9693 76.4621C80.5044 77.5254 79.8226 78.4798 78.9675 79.2643C78.1124 80.0488 77.1029 80.646 76.0036 81.0178C74.9043 81.3896 73.7395 81.5276 72.5838 81.4232C72.5688 81.4218 72.5538 81.4203 72.5388 81.4187C63.1788 80.4017 54.1878 77.2042 46.2874 72.083C38.9378 67.4107 32.706 61.1789 28.0338 53.8292C22.8946 45.8928 19.6963 36.8579 18.6978 27.4557C18.6964 27.4427 18.6952 27.4297 18.694 27.4167C18.5899 26.2644 18.7268 25.1032 19.0961 24.0068C19.4653 22.9104 20.0589 21.9029 20.8388 21.0484C21.6188 20.194 22.5682 19.5113 23.6264 19.0438C24.6847 18.5764 25.8287 18.3344 26.9856 18.3333L35.7268 18.3333ZM56.4426 29.1046C56.707 27.7494 58.0199 26.8652 59.3751 27.1296C62.7122 27.7807 65.7792 29.4128 68.1835 31.817C70.5877 34.2213 72.2198 37.2883 72.8709 40.6254C73.1353 41.9806 72.2511 43.2935 70.8959 43.5579C69.5407 43.8223 68.2278 42.9381 67.9634 41.5829C67.5029 39.2225 66.3485 37.0531 64.6479 35.3526C62.9474 33.652 60.778 32.4976 58.4176 32.0371C57.0624 31.7727 56.1782 30.4598 56.4426 29.1046Z" fill="black"/>
</svg>
