<svg width="100" height="100" viewBox="0 0 100 100" fill="none" xmlns="http://www.w3.org/2000/svg">
<rect width="100" height="100" fill="white"/>
<path fill-rule="evenodd" clip-rule="evenodd" d="M26.6673 23.3333C24.8264 23.3333 23.334 24.8257 23.334 26.6667V38.3333C23.334 40.1743 24.8264 41.6667 26.6673 41.6667H73.334C75.1749 41.6667 76.6673 40.1743 76.6673 38.3333V26.6667C76.6673 24.8257 75.1749 23.3333 73.334 23.3333H26.6673ZM18.334 26.6667C18.334 22.0643 22.0649 18.3333 26.6673 18.3333H73.334C77.9363 18.3333 81.6673 22.0643 81.6673 26.6667V38.3333C81.6673 42.9357 77.9363 46.6667 73.334 46.6667H26.6673C22.0649 46.6667 18.334 42.9357 18.334 38.3333V26.6667Z" fill="black"/>
<path fill-rule="evenodd" clip-rule="evenodd" d="M26.6673 58.3333C24.8264 58.3333 23.334 59.8257 23.334 61.6667V73.3333C23.334 75.1743 24.8264 76.6667 26.6673 76.6667H73.334C75.1749 76.6667 76.6673 75.1743 76.6673 73.3333V61.6667C76.6673 59.8257 75.1749 58.3333 73.334 58.3333H26.6673ZM18.334 61.6667C18.334 57.0643 22.0649 53.3333 26.6673 53.3333H73.334C77.9363 53.3333 81.6673 57.0643 81.6673 61.6667V73.3333C81.6673 77.9357 77.9363 81.6667 73.334 81.6667H26.6673C22.0649 81.6667 18.334 77.9357 18.334 73.3333V61.6667Z" fill="black"/>
<path fill-rule="evenodd" clip-rule="evenodd" d="M30 32.5C30 31.1193 31.1193 30 32.5 30H32.5267C33.9074 30 35.0267 31.1193 35.0267 32.5C35.0267 33.8807 33.9074 35 32.5267 35H32.5C31.1193 35 30 33.8807 30 32.5Z" fill="black"/>
<path fill-rule="evenodd" clip-rule="evenodd" d="M30 67.5C30 66.1193 31.1193 65 32.5 65H32.5267C33.9074 65 35.0267 66.1193 35.0267 67.5C35.0267 68.8807 33.9074 70 32.5267 70H32.5C31.1193 70 30 68.8807 30 67.5Z" fill="black"/>
</svg>
