<svg width="100" height="100" viewBox="0 0 100 100" fill="none" xmlns="http://www.w3.org/2000/svg">
<rect width="100" height="100" fill="white"/>
<path fill-rule="evenodd" clip-rule="evenodd" d="M29.5833 26.25C28.6993 26.25 27.8514 26.6012 27.2263 27.2263C26.6012 27.8514 26.25 28.6993 26.25 29.5833V70.4167C26.25 71.3007 26.6012 72.1486 27.2263 72.7737C27.8514 73.3988 28.6993 73.75 29.5833 73.75H70.4167C71.3007 73.75 72.1486 73.3988 72.7737 72.7737C73.3988 72.1486 73.75 71.3007 73.75 70.4167V39.3689L60.6311 26.25H29.5833ZM23.6908 23.6908C25.2536 22.128 27.3732 21.25 29.5833 21.25H61.6667C62.3297 21.25 62.9656 21.5134 63.4344 21.9822L78.0178 36.5656C78.4866 37.0344 78.75 37.6703 78.75 38.3333V70.4167C78.75 72.6268 77.872 74.7464 76.3092 76.3092C74.7464 77.872 72.6268 78.75 70.4167 78.75H29.5833C27.3732 78.75 25.2536 77.872 23.6908 76.3092C22.128 74.7464 21.25 72.6268 21.25 70.4167V29.5833C21.25 27.3732 22.128 25.2536 23.6908 23.6908Z" fill="black"/>
<path fill-rule="evenodd" clip-rule="evenodd" d="M32.916 52.9167C32.916 51.5359 34.0353 50.4167 35.416 50.4167H64.5827C65.9634 50.4167 67.0827 51.5359 67.0827 52.9167V76.25C67.0827 77.6307 65.9634 78.75 64.5827 78.75C63.202 78.75 62.0827 77.6307 62.0827 76.25V55.4167H37.916V76.25C37.916 77.6307 36.7967 78.75 35.416 78.75C34.0353 78.75 32.916 77.6307 32.916 76.25V52.9167Z" fill="black"/>
<path fill-rule="evenodd" clip-rule="evenodd" d="M35.416 21.25C36.7967 21.25 37.916 22.3693 37.916 23.75V35.8333H58.7494C60.1301 35.8333 61.2494 36.9526 61.2494 38.3333C61.2494 39.714 60.1301 40.8333 58.7494 40.8333H35.416C34.0353 40.8333 32.916 39.714 32.916 38.3333V23.75C32.916 22.3693 34.0353 21.25 35.416 21.25Z" fill="black"/>
</svg>
