<svg width="100" height="100" viewBox="0 0 100 100" fill="none" xmlns="http://www.w3.org/2000/svg">
<rect width="100" height="100" fill="white"/>
<path fill-rule="evenodd" clip-rule="evenodd" d="M83.2266 33.1937C84.0593 33.6222 84.5827 34.4802 84.5827 35.4167V64.5833C84.5827 65.5198 84.0593 66.3777 83.2266 66.8062C82.3939 67.2347 81.3916 67.162 80.6296 66.6176L60.2129 52.0343C59.5559 51.565 59.166 50.8074 59.166 50C59.166 49.1926 59.5559 48.4349 60.2129 47.9656L80.6296 33.3823C81.3916 32.838 82.3939 32.7652 83.2266 33.1937ZM65.9672 50L79.5827 59.7253V40.2746L65.9672 50Z" fill="black"/>
<path fill-rule="evenodd" clip-rule="evenodd" d="M23.7493 32.0833C21.9084 32.0833 20.416 33.5757 20.416 35.4167V64.5834C20.416 66.4243 21.9084 67.9167 23.7493 67.9167H55.8327C57.6736 67.9167 59.166 66.4243 59.166 64.5834V35.4167C59.166 33.5757 57.6736 32.0833 55.8327 32.0833H23.7493ZM15.416 35.4167C15.416 30.8143 19.147 27.0833 23.7493 27.0833H55.8327C60.4351 27.0833 64.166 30.8143 64.166 35.4167V64.5834C64.166 69.1857 60.4351 72.9167 55.8327 72.9167H23.7493C19.147 72.9167 15.416 69.1857 15.416 64.5834V35.4167Z" fill="black"/>
</svg>
