<svg width="100" height="100" viewBox="0 0 100 100" fill="none" xmlns="http://www.w3.org/2000/svg">
<rect width="100" height="100" fill="white"/>
<path fill-rule="evenodd" clip-rule="evenodd" d="M66.1527 29.0004C72.6381 29.04 77.2663 32.19 80.2313 36.1657C83.1772 40.1159 84.5288 44.9313 84.5288 48.4999C84.5288 56.2867 81.9471 65.2574 78.5137 72.6329C76.792 76.3315 74.8334 79.6784 72.8329 82.3132C70.8985 84.8609 68.8055 86.9032 66.7253 87.8324C64.3169 89.2858 60.4875 89.7525 57.0155 89.431C55.2167 89.2644 53.4136 88.8789 51.8298 88.2436C50.7296 87.8024 49.6837 87.2195 48.8216 86.4637C45.779 88.3908 42.3123 89.2519 39.1827 89.3121C35.7948 89.3773 32.4915 88.5008 30.5662 86.6564C25.2249 82.8597 21.1286 75.4133 18.4334 68.0798C15.7109 60.672 14.2644 52.9513 14.5314 48.4118C14.794 43.9476 16.1098 39.3901 18.8316 35.7838C21.5824 32.139 25.7135 29.547 31.3866 29.0068C36.9983 28.4723 40.4196 29.8241 43.0525 31.2418C43.5822 31.527 44.0347 31.7868 44.4486 32.0244C45.1047 32.4011 45.6637 32.7221 46.2793 33.0002C47.1774 33.406 47.97 33.5984 48.8796 33.5074L49.1029 33.4851L49.323 33.5291C50.1743 33.6994 50.9769 33.5495 51.9276 33.1336C52.657 32.8145 53.3596 32.3968 54.1932 31.9012C54.5309 31.7005 54.89 31.487 55.2811 31.2621C57.8962 29.7584 61.229 28.2141 66.1527 29.0004ZM48.9568 36.5114C50.5138 36.7685 51.8894 36.4248 53.1301 35.882C54.0432 35.4825 54.9856 34.9221 55.8798 34.3904C56.1854 34.2087 56.4853 34.0303 56.7765 33.8628C59.1398 32.504 61.7734 31.3114 65.7822 31.9796L65.9047 32H66.0288C71.4784 32 75.3102 34.5852 77.8264 37.9592C80.3805 41.3839 81.5288 45.5684 81.5288 48.4999C81.5288 55.713 79.1105 64.2423 75.794 71.3668C74.1407 74.9183 72.2868 78.0714 70.4435 80.4991C68.5669 82.9707 66.823 84.5276 65.438 85.1212L65.3318 85.1667L65.2338 85.2279C63.6354 86.2269 60.5224 86.7429 57.2921 86.4438C55.7159 86.2978 54.2065 85.9646 52.9466 85.4593C51.6723 84.9481 50.7563 84.3031 50.2288 83.5999L49.3288 82.3999L48.1288 83.2999C45.4166 85.3341 42.1085 86.2553 39.125 86.3127C36.0711 86.3714 33.6796 85.5293 32.5895 84.4392L32.4966 84.3464L32.389 84.271C27.7804 81.045 23.9118 74.2896 21.2493 67.0449C18.5968 59.8277 17.2933 52.5485 17.5262 48.588C17.7636 44.5522 18.9479 40.6097 21.2261 37.5911C23.4753 34.6109 26.8442 32.4529 31.671 31.9932C36.5593 31.5277 39.3881 32.6759 41.6302 33.8832C41.9931 34.0786 42.3759 34.2973 42.7666 34.5204C43.5256 34.9539 44.3141 35.4043 45.044 35.7341C46.1987 36.2559 47.4634 36.6166 48.9568 36.5114Z" fill="black"/>
<path fill-rule="evenodd" clip-rule="evenodd" d="M68.4779 16.1135C68.6914 16.914 68.2155 17.7359 67.4151 17.9494C64.1037 18.8324 60.4803 21.0301 57.447 24.1267C54.4194 27.2176 52.0675 31.1142 51.1808 35.3102C51.0095 36.1207 50.2136 36.6389 49.403 36.4676C48.5925 36.2963 48.0743 35.5004 48.2456 34.6899C49.273 29.8286 51.9611 25.44 55.3039 22.0274C58.6409 18.6208 62.7182 16.097 66.6421 15.0507C67.4425 14.8372 68.2645 15.3131 68.4779 16.1135Z" fill="black"/>
<path fill-rule="evenodd" clip-rule="evenodd" d="M39.3896 11.0238C39.7669 10.5837 40.3639 10.4003 40.9232 10.5528C47.2531 12.2792 55.7164 21.1504 50.9565 35.959C50.8277 36.3599 50.5363 36.6881 50.1535 36.8636C49.7707 37.039 49.3318 37.0455 48.944 36.8814C41.9274 33.9129 38.6465 28.4668 37.5607 23.309C37.0216 20.7482 37.0192 18.2498 37.3601 16.1361C37.6935 14.0694 38.3845 12.1965 39.3896 11.0238ZM41.1505 13.8003C40.8215 14.4748 40.5138 15.4239 40.3219 16.6138C40.0378 18.3752 40.0355 20.5018 40.4963 22.691C41.3284 26.6433 43.6558 30.771 48.5791 33.3893C51.4759 22.1396 45.5875 15.6583 41.1505 13.8003Z" fill="black"/>
</svg>
