<svg width="100" height="100" viewBox="0 0 100 100" fill="none" xmlns="http://www.w3.org/2000/svg">
<rect width="100" height="100" fill="white"/>
<path fill-rule="evenodd" clip-rule="evenodd" d="M69.4601 11.5426C65.2348 12.4495 63.4422 14.5948 62.6929 16.7429C61.8944 19.0318 62.204 21.566 62.6564 23.1493L62.6845 23.2478L62.699 23.3493C63.1694 26.6419 61.7488 29.7135 60.9622 30.8934L60.8798 31.017L31.6994 60.1974L31.6141 60.2614C29.1929 62.0772 25.2442 62.5977 21.8899 61.5331C18.4149 61.134 16.2361 62.2264 14.8729 63.5231C13.4251 64.9003 12.8127 66.5935 12.6937 67.3079C12.2387 70.0379 12.6473 71.8825 13.2709 73.1513C13.9029 74.437 14.8217 75.2669 15.6141 75.8613C17.3443 77.1589 19.0671 77.6033 21.0779 78.106L22.2141 78.3901V79.5613C22.2141 80.544 22.5 81.6756 22.6371 82.0869L22.6474 82.1178L22.6564 82.1492C23.2682 84.2904 25.8858 87.0922 30.2885 87.561C35.592 87.5201 38.1446 83.1067 38.2127 79.7008C37.7153 77.1485 37.58 74.7802 37.8522 72.738C38.1287 70.665 38.8431 68.811 40.1534 67.5006L68.7122 38.9419L68.7771 38.89C70.3522 37.6298 72.1955 37.1965 73.8364 37.1252C75.4557 37.0548 76.9705 37.3315 78.0415 37.597C81.2866 38.2363 83.5729 37.268 85.1288 35.9714C86.7324 34.6351 87.5578 32.9466 87.7494 32.2339C88.2 29.8344 88.0359 28.0227 87.5737 26.649C87.1104 25.2722 86.3182 24.2464 85.3788 23.4636C83.4513 21.8573 80.9152 21.2822 79.4676 21.041L78.2964 20.8458L78.2174 19.6612C77.996 16.3392 76.5845 14.2537 74.8943 13.0244C73.1764 11.775 71.0924 11.3548 69.4601 11.5426ZM81.0891 18.2989C80.5756 14.7371 78.8611 12.1998 76.6589 10.5982C74.2729 8.86299 71.387 8.27807 69.028 8.57297L68.9661 8.58071L68.9051 8.59356C63.6756 9.6945 60.9822 12.5386 59.8603 15.7548C58.8036 18.7841 59.2085 21.9385 59.7417 23.8663C60.0181 26.0432 59.0928 28.2205 58.5397 29.1145L29.7348 57.9194C28.1714 59.0344 25.2583 59.4949 22.6885 58.6382L22.5476 58.5913L22.4002 58.5728C17.9557 58.0173 14.8408 59.4132 12.8053 61.3494C10.8364 63.2223 9.94877 65.529 9.7345 66.8147C9.18951 70.0847 9.64515 72.5757 10.5786 74.4747C11.5037 76.3568 12.8349 77.5269 13.8141 78.2613C15.6905 79.6686 17.572 80.2922 19.2917 80.747C19.4105 81.7102 19.6386 82.5698 19.7807 83.0042C20.779 86.4413 24.5293 90.0003 30.0648 90.5538L30.1393 90.5613H30.2141C37.787 90.5613 41.2141 84.122 41.2141 79.5613V79.4127L41.185 79.2671C40.7072 76.8784 40.6037 74.8011 40.8259 73.1345C41.0495 71.4575 41.5851 70.3116 42.2747 69.6219L70.7117 41.185C71.6262 40.4791 72.7595 40.1748 73.9668 40.1223C75.204 40.0686 76.4232 40.2847 77.3503 40.5165L77.3849 40.5251L77.4199 40.5321C81.6572 41.3796 84.8606 40.1001 87.0494 38.2761C89.1678 36.5108 90.3418 34.2351 90.6693 32.9251L90.6796 32.8838L90.6876 32.8419C91.2261 30.0146 91.0769 27.6534 90.417 25.6923C89.7553 23.7254 88.61 22.2511 87.2994 21.1589C85.2479 19.4494 82.7885 18.674 81.0891 18.2989Z" fill="black"/>
<path fill-rule="evenodd" clip-rule="evenodd" d="M80.6536 25.5006C81.2394 24.9148 82.1891 24.9148 82.7749 25.5006C83.4259 26.1516 84.0674 27.1083 84.3979 28.1827C84.732 29.2684 84.7913 30.6499 83.9623 31.8933C83.4557 32.6533 82.7558 33.6106 81.6475 34.1143C80.454 34.6568 79.1252 34.5412 77.6572 33.954C76.888 33.6463 76.5139 32.7734 76.8216 32.0042C77.1292 31.235 78.0022 30.8609 78.7714 31.1686C79.8034 31.5814 80.2245 31.4658 80.4061 31.3832C80.6728 31.262 80.9728 30.9693 81.4662 30.2292C81.6373 29.9726 81.6965 29.6042 81.5306 29.0649C81.3612 28.5143 81.0026 27.9709 80.6536 27.6219C80.0678 27.0362 80.0678 26.0864 80.6536 25.5006Z" fill="black"/>
</svg>
