<svg width="100" height="100" viewBox="0 0 100 100" fill="none" xmlns="http://www.w3.org/2000/svg">
<rect width="100" height="100" fill="white"/>
<path fill-rule="evenodd" clip-rule="evenodd" d="M12.85 39.1726C13.7712 38.4816 14.963 38.3726 16 38.3726H30V41.3726H16C15.5526 41.3726 15.2283 41.4015 14.9934 41.4504C14.7622 41.4986 14.6737 41.5548 14.65 41.5726C14.6495 41.5729 14.649 41.5733 14.6485 41.5737C14.6398 41.5799 14.6186 41.5951 14.5892 41.6722C14.5496 41.7762 14.5 41.9873 14.5 42.3726V75.8726C14.5 76.4632 14.6246 76.5891 14.6456 76.6096C14.6844 76.6472 14.9581 76.8726 16 76.8726H83C83.3088 76.8726 83.772 76.7851 84.1033 76.5863C84.253 76.4965 84.3429 76.404 84.3965 76.3174C84.4445 76.2398 84.5 76.1098 84.5 75.8726V42.3726C84.5 41.7376 84.3817 41.6253 84.377 41.6208C84.3627 41.6066 84.1123 41.3726 83 41.3726H68.5V38.3726H83C84.3877 38.3726 85.6374 38.6387 86.4982 39.4994C87.3712 40.3725 87.5 41.5153 87.5 42.3726V75.8726C87.5 77.4862 86.6438 78.5606 85.6467 79.1588C84.728 79.71 83.6912 79.8726 83 79.8726H16C14.6419 79.8726 13.4156 79.5979 12.5544 78.7606C11.6754 77.906 11.5 76.782 11.5 75.8726V42.3726C11.5 41.1451 11.812 39.951 12.85 39.1726Z" fill="black"/>
<path fill-rule="evenodd" clip-rule="evenodd" d="M15.5 76.8726C16.3284 76.8726 17 77.5441 17 78.3726V82.8726H23V78.3726C23 77.5441 23.6716 76.8726 24.5 76.8726C25.3284 76.8726 26 77.5441 26 78.3726V84.3726C26 85.201 25.3284 85.8726 24.5 85.8726H15.5C14.6716 85.8726 14 85.201 14 84.3726V78.3726C14 77.5441 14.6716 76.8726 15.5 76.8726Z" fill="black"/>
<path fill-rule="evenodd" clip-rule="evenodd" d="M75.5 76.8726C76.3284 76.8726 77 77.5441 77 78.3726V82.8726H83V78.3726C83 77.5441 83.6716 76.8726 84.5 76.8726C85.3284 76.8726 86 77.5441 86 78.3726V84.3726C86 85.201 85.3284 85.8726 84.5 85.8726H75.5C74.6716 85.8726 74 85.201 74 84.3726V78.3726C74 77.5441 74.6716 76.8726 75.5 76.8726Z" fill="black"/>
<path fill-rule="evenodd" clip-rule="evenodd" d="M27.5 66.8726C28.3284 66.8726 29 67.5441 29 68.3726V71.8726C29 72.701 28.3284 73.3726 27.5 73.3726C26.6716 73.3726 26 72.701 26 71.8726V68.3726C26 67.5441 26.6716 66.8726 27.5 66.8726Z" fill="black"/>
<path fill-rule="evenodd" clip-rule="evenodd" d="M21.5 66.8726C22.3284 66.8726 23 67.5441 23 68.3726V71.8726C23 72.701 22.3284 73.3726 21.5 73.3726C20.6716 73.3726 20 72.701 20 71.8726V68.3726C20 67.5441 20.6716 66.8726 21.5 66.8726Z" fill="black"/>
<path fill-rule="evenodd" clip-rule="evenodd" d="M29.8959 16.9997C42.88 11.2869 59.319 13.3847 69.5571 17.4798C69.5846 17.4908 69.6119 17.5027 69.6387 17.5153C71.9238 18.5907 73.5117 19.8807 74.4262 21.3681C75.365 22.8949 75.5139 24.5016 75.1427 25.9863C74.5226 28.4669 72.4913 30.5322 70.5 31.7528V46.8725H74.5C75.3284 46.8725 76 47.5441 76 48.3725C76 49.201 75.3284 49.8725 74.5 49.8725H24.5C23.6716 49.8725 23 49.201 23 48.3725C23 47.5441 23.6716 46.8725 24.5 46.8725H29V31.7989C26.9423 30.7105 25.4847 29.4825 24.5968 28.122C23.5575 26.5294 23.3669 24.8543 23.784 23.297C24.1866 21.7938 25.1274 20.4882 26.2094 19.4529C27.2991 18.4102 28.61 17.5654 29.8959 16.9997ZM32 46.8725H67.5V30.8725C67.5 30.3044 67.821 29.785 68.3292 29.5309C70.1045 28.6432 71.8142 26.9312 72.2323 25.2587C72.4236 24.4935 72.3538 23.7252 71.8707 22.9394C71.3668 22.12 70.3402 21.1674 68.401 20.2485C58.6365 16.3552 43.1029 14.4663 31.1041 19.7456C30.1172 20.1798 29.1043 20.835 28.2834 21.6205C27.4549 22.4133 26.8986 23.2639 26.6819 24.0731C26.4796 24.8283 26.5476 25.622 27.1092 26.4825C27.7034 27.3931 28.9077 28.4585 31.1422 29.5169C31.666 29.7651 32 30.2929 32 30.8725V46.8725Z" fill="black"/>
</svg>
