<svg width="100" height="100" viewBox="0 0 100 100" fill="none" xmlns="http://www.w3.org/2000/svg">
<rect width="100" height="100" fill="white"/>
<path fill-rule="evenodd" clip-rule="evenodd" d="M25.3798 43.5048C26.2055 43.4384 26.9288 44.054 26.9952 44.8797L30.3842 87H71.1L74.0036 44.8968C74.0606 44.0704 74.7768 43.4466 75.6033 43.5036C76.4297 43.5606 77.0535 44.2768 76.9965 45.1032L73.9965 88.6032C73.9423 89.3897 73.2885 90 72.5001 90H29.0001C28.2183 90 27.5676 89.3996 27.5049 88.6203L24.0049 45.1203C23.9385 44.2946 24.554 43.5713 25.3798 43.5048Z" fill="black"/>
<path fill-rule="evenodd" clip-rule="evenodd" d="M73 84H28.5V81H73V84Z" fill="black"/>
<path fill-rule="evenodd" clip-rule="evenodd" d="M61.0936 73.0029C61.9204 73.0546 62.5488 73.7667 62.4971 74.5936L61.9971 82.5936C61.9455 83.4204 61.2333 84.0487 60.4065 83.9971C59.5797 83.9454 58.9513 83.2332 59.003 82.4064L59.503 74.4064C59.5546 73.5796 60.2668 72.9512 61.0936 73.0029Z" fill="black"/>
<path fill-rule="evenodd" clip-rule="evenodd" d="M41.0936 83.9971C41.9204 83.9454 42.5488 83.2333 42.4971 82.4064L41.9971 74.4064C41.9455 73.5796 41.2333 72.9513 40.4065 73.0029C39.5797 73.0546 38.9513 73.7668 39.003 74.5936L39.503 82.5936C39.5546 83.4204 40.2668 84.0488 41.0936 83.9971Z" fill="black"/>
<path fill-rule="evenodd" clip-rule="evenodd" d="M51.5004 12.5C45.96 12.5 36.6523 16.2494 33.4162 25.4955C33.1425 26.2774 32.2868 26.6895 31.5049 26.4158C30.723 26.1421 30.311 25.2864 30.5846 24.5045C34.3485 13.7506 45.0408 9.5 51.5004 9.5C55.9113 9.5 60.4696 11.4144 64.1504 14.175C67.825 16.9309 70.8268 20.6822 71.9427 24.5879C72.1703 25.3845 71.709 26.2147 70.9125 26.4423C70.1159 26.6699 69.2857 26.2086 69.0581 25.4121C68.174 22.3178 65.6758 19.0691 62.3504 16.575C59.0313 14.0856 55.0895 12.5 51.5004 12.5Z" fill="black"/>
<path fill-rule="evenodd" clip-rule="evenodd" d="M15.3584 18.6687C18.5179 16.3334 22.2135 15.5 24.5 15.5C28.8055 15.5 32.0935 16.5929 35.3321 18.7519C36.0213 19.2115 36.2076 20.1428 35.7481 20.8321C35.2885 21.5213 34.3572 21.7076 33.6679 21.2481C30.9065 19.4071 28.1945 18.5 24.5 18.5C22.7865 18.5 19.7321 19.1666 17.1416 21.0813C14.6247 22.9416 12.5 26.0056 12.5 31C12.5 35.9345 14.8199 39.0082 17.492 40.901C20.2447 42.8508 23.3181 43.5 24.5 43.5C25.3201 43.5 26.8028 43.2825 28.2831 42.8681C29.0115 42.6641 29.699 42.4234 30.2729 42.1601C30.8671 41.8875 31.2461 41.6326 31.4393 41.4393C32.0251 40.8536 32.9749 40.8536 33.5607 41.4393C34.1464 42.0251 34.1464 42.9749 33.5607 43.5607C33.0039 44.1174 32.2579 44.55 31.524 44.8868C30.7697 45.2329 29.926 45.5234 29.0919 45.7569C27.4472 46.2175 25.6799 46.5 24.5 46.5C22.6819 46.5 19.0053 45.6492 15.758 43.349C12.4301 40.9918 9.5 37.0655 9.5 31C9.5 24.9944 12.1253 21.0584 15.3584 18.6687Z" fill="black"/>
<path fill-rule="evenodd" clip-rule="evenodd" d="M84.6416 18.6687C81.4821 16.3334 77.7865 15.5 75.5 15.5C73.4492 15.5 71.9257 15.6264 70.5558 15.9869C69.1694 16.3517 68.0291 16.9332 66.7283 17.7138C66.0179 18.14 65.7875 19.0614 66.2138 19.7717C66.64 20.4821 67.5614 20.7125 68.2717 20.2862C69.4709 19.5668 70.3306 19.1483 71.3192 18.8881C72.3243 18.6236 73.5508 18.5 75.5 18.5C77.2135 18.5 80.2679 19.1666 82.8584 21.0813C85.3753 22.9416 87.5 26.0056 87.5 31C87.5 35.9345 85.1801 39.0082 82.508 40.901C79.7553 42.8508 76.6819 43.5 75.5 43.5C74.6799 43.5 73.1972 43.2825 71.7169 42.8681C70.9885 42.6641 70.301 42.4234 69.7271 42.1601C69.1329 41.8875 68.7539 41.6326 68.5607 41.4393C67.9749 40.8536 67.0251 40.8536 66.4393 41.4393C65.8536 42.0251 65.8536 42.9749 66.4393 43.5607C66.9961 44.1174 67.7421 44.55 68.476 44.8868C69.2303 45.2329 70.074 45.5234 70.9081 45.7569C72.5528 46.2175 74.3201 46.5 75.5 46.5C77.3181 46.5 80.9947 45.6492 84.242 43.349C87.5699 40.9918 90.5 37.0655 90.5 31C90.5 24.9944 87.8747 21.0584 84.6416 18.6687Z" fill="black"/>
</svg>
