<svg width="100" height="100" viewBox="0 0 100 100" fill="none" xmlns="http://www.w3.org/2000/svg">
<rect width="100" height="100" fill="white"/>
<path fill-rule="evenodd" clip-rule="evenodd" d="M32.4277 28.6804C30.3184 28.0142 28.8036 27.5835 28.1797 27.4796L28.6729 24.5204C29.549 24.6664 31.2842 25.1732 33.3311 25.8196C35.425 26.4808 37.9686 27.3288 40.536 28.2055C45.6685 29.958 50.9338 31.8383 52.953 32.5955C58.8269 34.7982 63.553 32.7672 70.9709 27.834L71.3656 27.4393L73.4869 29.5606L72.8819 30.1657L72.7583 30.2481C65.2474 35.2554 59.3265 38.1896 51.8996 35.4045C49.9188 34.6617 44.6841 32.7919 39.5666 31.0445C37.009 30.1712 34.49 29.3316 32.4277 28.6804Z" fill="black"/>
<path fill-rule="evenodd" clip-rule="evenodd" d="M29.2383 40.2976C26.577 39.6846 24.4234 39.3891 23.0415 39.4954L22.8115 36.5042C24.6797 36.3606 27.2136 36.7527 29.9116 37.3741C32.6517 38.0052 35.7139 38.9106 38.7044 39.8864C44.6877 41.8389 50.4726 44.1028 52.9836 45.1071C59.2625 47.6185 65.0923 44.3756 66.5265 43.3L66.5373 43.2919L75.5483 36.784L77.3048 39.216L68.3151 45.7085C66.5309 47.0412 59.574 50.9741 51.8695 47.8925C49.3804 46.897 43.6654 44.661 37.7737 42.7384C34.8266 41.7767 31.8576 40.9009 29.2383 40.2976Z" fill="black"/>
<path fill-rule="evenodd" clip-rule="evenodd" d="M79.9869 49.0607L79.4869 49.5607C79.0176 50.0299 77.2015 51.5806 75.0608 53.2858C72.9077 55.0007 70.3122 56.9631 68.2398 58.2604C65.5979 60.0174 58.9926 63.5017 49.3995 59.9043C48.8263 59.6894 48.0293 59.3696 47.0559 58.9791C44.4571 57.9364 40.6011 56.3893 36.3894 54.9854C33.5141 54.027 30.5289 53.1559 27.7571 52.5864C24.9625 52.0121 22.4904 51.7674 20.6015 51.9896L20.251 49.0101C22.612 48.7324 25.4525 49.0501 28.3609 49.6478C31.2923 50.2501 34.4008 51.1603 37.3381 52.1394C41.6477 53.5759 45.7103 55.2057 48.3042 56.2463C49.2227 56.6148 49.957 56.9094 50.4529 57.0954C58.8374 60.2395 64.4236 57.1989 66.5942 55.7519L66.6125 55.7397L66.6312 55.728C68.5557 54.5252 71.0511 52.6441 73.1917 50.9392C75.3509 49.2194 77.0348 47.7701 77.3656 47.4393L77.8656 46.9393L79.9869 49.0607Z" fill="black"/>
<path fill-rule="evenodd" clip-rule="evenodd" d="M80.4869 61.5607L79.4869 62.5607C78.7855 63.262 76.5508 64.9868 74.1085 66.7631C71.6231 68.5706 68.7556 70.5517 66.6979 71.7862C61.2272 75.0687 55.2826 74.5076 50.5807 72.9656C50.4906 72.9491 50.4204 72.9311 50.3872 72.9225C50.3834 72.9216 50.3801 72.9207 50.3773 72.92C50.2556 72.8892 50.1144 72.8484 49.9653 72.8029C49.664 72.711 49.2715 72.5821 48.8182 72.4279C47.9084 72.1184 46.71 71.6926 45.4145 71.2224C42.8231 70.282 39.8109 69.1525 37.8796 68.3967L37.8162 68.3719L37.7554 68.3415C36.3975 67.6626 33.2683 66.5689 29.8687 65.7036C26.429 64.828 23.0428 64.274 21.0918 64.4907L21.0095 64.4998L20.4266 64.5L20.4258 61.5L20.8467 61.4999C23.3961 61.2415 27.2119 61.9316 30.6087 62.7963C34.04 63.6697 37.3693 64.8079 39.0336 65.6268C40.9381 66.371 43.89 67.4777 46.4379 68.4024C47.7257 68.8698 48.9023 69.2877 49.7842 69.5877C50.2267 69.7382 50.5842 69.8553 50.8402 69.9333C50.9389 69.9634 51.0143 69.9852 51.0688 70H51.1696L51.4005 70.0769C55.6787 71.503 60.6753 71.9012 65.1545 69.2138C67.0968 68.0483 69.8793 66.1293 72.3439 64.3369C74.8516 62.5131 76.8669 60.9379 77.3655 60.4393L78.3655 59.4393L80.4869 61.5607ZM51.1628 70.023C51.1634 70.0233 51.1559 70.022 51.1387 70.0179C51.1537 70.0206 51.1623 70.0226 51.1628 70.023Z" fill="black"/>
<path fill-rule="evenodd" clip-rule="evenodd" d="M35.9241 19.6826C32.0816 23.1048 29.4295 27.0832 28.2377 29.2285L28.2205 29.2594L28.2018 29.2895C25.1115 34.2816 22.9022 42.0412 21.9782 49.7412C21.0492 57.4836 21.4667 64.7724 23.2971 68.8908L23.3141 68.929L23.3289 68.968C25.9627 75.9115 29.9932 80.2627 34.5634 82.958C39.1508 85.6633 44.3752 86.7538 49.4618 87C59.5458 86.9865 72.255 81.2065 75.9928 69.0589L76.0004 69.034L76.009 69.0093C78.1544 62.8115 78.3494 55.3232 77.2732 48.0959C76.1978 40.8744 73.8746 34.0576 71.1241 29.2442C69.1946 25.8676 66.1746 21.8855 62.5158 18.7665C58.8419 15.6346 54.6772 13.5 50.4264 13.5C44.6768 13.5 39.7677 16.2594 35.9241 19.6826ZM33.9288 17.4424C38.0852 13.7406 43.6761 10.5 50.4264 10.5C55.6756 10.5 60.511 13.1154 64.462 16.4835C68.4282 19.8645 71.6583 24.1324 73.7288 27.7558C76.6926 32.9424 79.1194 40.1256 80.2404 47.6541C81.3593 55.1677 81.1989 63.1692 78.8524 69.9661C74.585 83.7868 60.3303 90 49.4264 90H49.3907L49.3551 89.9983C43.953 89.7411 38.1913 88.5803 33.0395 85.542C27.8684 82.4925 23.4053 77.6051 20.5385 70.0703C18.3844 65.1854 18.0562 57.2455 18.9996 49.3838C19.9489 41.4732 22.233 33.2484 25.6324 27.7406C26.9483 25.3795 29.7894 21.129 33.9288 17.4424Z" fill="black"/>
</svg>
