<svg width="100" height="100" viewBox="0 0 100 100" fill="none" xmlns="http://www.w3.org/2000/svg">
<rect width="100" height="100" fill="white"/>
<path fill-rule="evenodd" clip-rule="evenodd" d="M29.2521 10.1679C29.7116 9.47863 30.6429 9.29237 31.3322 9.7519C33.7182 11.3425 35.0219 12.9647 35.2041 14.8477C35.3667 16.5275 34.5526 18.0345 33.9563 19.1384C33.9316 19.1842 33.9073 19.2293 33.8834 19.2736C33.2008 20.5412 32.6834 21.5427 32.6314 22.6707C32.5837 23.7031 32.9309 25.0877 34.6249 27.0075C35.173 27.6287 35.1138 28.5766 34.4926 29.1247C33.8714 29.6728 32.9235 29.6136 32.3754 28.9924C30.3194 26.6623 29.5416 24.5468 29.6346 22.5324C29.7204 20.6728 30.5578 19.12 31.1829 17.961C31.2028 17.924 31.2225 17.8875 31.242 17.8513C31.9544 16.5283 32.2831 15.8091 32.2181 15.1367C32.1659 14.5978 31.7822 13.6574 29.6681 12.2481C28.9788 11.7885 28.7926 10.8572 29.2521 10.1679Z" fill="black"/>
<path fill-rule="evenodd" clip-rule="evenodd" d="M18.2521 27.1679C18.7116 26.4786 19.6429 26.2924 20.3322 26.7519C22.7182 28.3425 24.0219 29.9647 24.2041 31.8477C24.3667 33.5275 23.5526 35.0345 22.9563 36.1384C22.9316 36.1842 22.9073 36.2293 22.8834 36.2736C22.2008 37.5412 21.6834 38.5427 21.6314 39.6707C21.5837 40.7031 21.9309 42.0877 23.6249 44.0075C24.173 44.6287 24.1138 45.5766 23.4926 46.1247C22.8714 46.6728 21.9235 46.6136 21.3754 45.9924C19.3194 43.6623 18.5416 41.5468 18.6346 39.5324C18.7204 37.6728 19.5578 36.12 20.1829 34.961C20.2028 34.924 20.2225 34.8875 20.242 34.8513C20.9544 33.5283 21.2831 32.8091 21.2181 32.1367C21.1659 31.5978 20.7822 30.6574 18.6681 29.2481C17.9788 28.7885 17.7926 27.8572 18.2521 27.1679Z" fill="black"/>
<path fill-rule="evenodd" clip-rule="evenodd" d="M14.059 78.2461C13.8601 78.4229 13.5 78.8668 13.5 80C13.5 80.8188 13.7715 81.2846 14.0305 81.5602C14.265 81.8097 14.5286 81.9431 14.6918 82H84C84.9419 82 85.3644 81.7278 85.5726 81.4966C85.8063 81.2369 86 80.7714 86 80C86 79.5202 85.7586 79.0237 85.3035 78.6099C84.8283 78.1779 84.2987 78 84 78H14.5C14.5237 78 14.5208 78.0008 14.4986 78.007C14.4406 78.0231 14.2508 78.0757 14.059 78.2461ZM12.066 76.0039C12.9259 75.2395 13.9144 75 14.5 75H84C85.2013 75 86.4217 75.5721 87.3215 76.3901C88.2414 77.2263 89 78.4798 89 80C89 81.2286 88.6937 82.5131 87.8024 83.5034C86.8856 84.5222 85.5581 85 84 85H14.3515L14.2058 84.9709C12.85 84.6997 10.5 83.2827 10.5 80C10.5 78.1332 11.1399 76.8271 12.066 76.0039Z" fill="black"/>
<path fill-rule="evenodd" clip-rule="evenodd" d="M19.042 68.8342C18.1304 72.2301 17.8877 74.9876 17.9952 76.385L15.004 76.615C14.8615 74.7624 15.1813 71.6449 16.1446 68.0564C17.1153 64.4405 18.7666 60.243 21.3671 56.2447C26.6004 48.1985 35.6671 41 50.4996 41H50.5263L50.5531 41.001C65.1416 41.522 73.8122 48.9911 78.7756 57.024C83.6868 64.9723 84.9996 73.5009 84.9996 76.5H81.9996C81.9996 73.9991 80.8124 66.0277 76.2235 58.601C71.69 51.2638 63.8679 44.487 50.4728 44C36.8213 44.0086 28.6456 50.5563 23.882 57.8803C21.4826 61.5695 19.9463 65.4658 19.042 68.8342Z" fill="black"/>
<path fill-rule="evenodd" clip-rule="evenodd" d="M39.9976 43.867C39.9987 44.0767 39.9998 44.2878 39.9998 44.5H36.9998C36.9998 44.3181 36.9977 44.1217 36.9955 43.9133C36.9783 42.3131 36.9534 40.0038 37.8186 38.0739C38.3396 36.9116 39.1847 35.8548 40.5033 35.1086C41.7995 34.3751 43.4496 34 45.4998 34H54.4998C56.5274 34 58.7218 34.584 60.3974 36.3393C62.0654 38.0868 62.9998 40.7664 62.9998 44.5H59.9998C59.9998 41.2336 59.1842 39.4132 58.2273 38.4107C57.2778 37.416 55.9723 37 54.4998 37H45.4998C43.8 37 42.7001 37.3124 41.9808 37.7195C41.2837 38.114 40.8476 38.6509 40.5561 39.3011C39.9804 40.5854 39.9887 42.1785 39.9976 43.867Z" fill="black"/>
<path fill-rule="evenodd" clip-rule="evenodd" d="M68.9735 10.1679C68.514 9.47863 67.5827 9.29237 66.8934 9.7519C64.5074 11.3425 63.2037 12.9647 63.0215 14.8477C62.8589 16.5275 63.6729 18.0345 64.2693 19.1384C64.294 19.1842 64.3183 19.2293 64.3422 19.2736C65.0248 20.5412 65.5421 21.5427 65.5942 22.6707C65.6419 23.7031 65.2947 25.0877 63.6007 27.0075C63.0526 27.6287 63.1118 28.5766 63.733 29.1247C64.3542 29.6728 65.3021 29.6136 65.8502 28.9924C67.9062 26.6623 68.684 24.5468 68.591 22.5324C68.5052 20.6728 67.6678 19.12 67.0427 17.961C67.0228 17.924 67.0031 17.8875 66.9836 17.8513C66.2712 16.5283 65.9424 15.8091 66.0075 15.1367C66.0597 14.5978 66.4434 13.6574 68.5575 12.2481C69.2468 11.7885 69.433 10.8572 68.9735 10.1679Z" fill="black"/>
<path fill-rule="evenodd" clip-rule="evenodd" d="M79.9735 27.1679C79.514 26.4786 78.5827 26.2924 77.8934 26.7519C75.5074 28.3425 74.2037 29.9647 74.0215 31.8477C73.8589 33.5275 74.6729 35.0345 75.2693 36.1384C75.294 36.1842 75.3183 36.2293 75.3422 36.2736C76.0248 37.5412 76.5421 38.5427 76.5942 39.6707C76.6419 40.7031 76.2947 42.0877 74.6007 44.0075C74.0526 44.6287 74.1118 45.5766 74.733 46.1247C75.3542 46.6728 76.3021 46.6136 76.8502 45.9924C78.9062 43.6623 79.684 41.5468 79.591 39.5324C79.5052 37.6728 78.6678 36.12 78.0427 34.961C78.0228 34.924 78.0031 34.8875 77.9836 34.8513C77.2712 33.5283 76.9424 32.8091 77.0075 32.1367C77.0597 31.5978 77.4434 30.6574 79.5575 29.2481C80.2468 28.7885 80.433 27.8572 79.9735 27.1679Z" fill="black"/>
</svg>
