<svg width="100" height="100" viewBox="0 0 100 100" fill="none" xmlns="http://www.w3.org/2000/svg">
<rect width="100" height="100" fill="white"/>
<path fill-rule="evenodd" clip-rule="evenodd" d="M69.9796 10.7534C70.1158 11.5705 69.5638 12.3434 68.7466 12.4796L52 15.2707V30C52 30.8284 51.3284 31.5 50.5 31.5C49.6716 31.5 49 30.8284 49 30V12.7293L68.2534 9.5204C69.0706 9.38421 69.8434 9.93624 69.9796 10.7534Z" fill="black"/>
<path fill-rule="evenodd" clip-rule="evenodd" d="M28.2173 33.2515C27.6903 33.9834 27.5 34.9067 27.5 35.5V39H72.5V35.5C72.5 33.415 70.8472 32.325 69.796 32H31C29.4889 32 28.6892 32.596 28.2173 33.2515ZM25.7827 31.4985C26.8108 30.0706 28.5111 29 31 29H70C70.1226 29 70.2448 29.015 70.3638 29.0448C71.9971 29.4531 75.5 31.2941 75.5 35.5V40.5C75.5 41.3284 74.8284 42 74 42H26C25.1716 42 24.5 41.3284 24.5 40.5V35.5C24.5 34.4266 24.8097 32.85 25.7827 31.4985Z" fill="black"/>
<path fill-rule="evenodd" clip-rule="evenodd" d="M69.6709 39.0098C70.4939 39.1041 71.0847 39.8477 70.9904 40.6708L65.4904 88.6708C65.4036 89.4282 64.7625 90 64.0001 90H35.5001C34.7319 90 34.0878 89.4196 34.0082 88.6554L29.0082 40.6554C28.9224 39.8315 29.5207 39.0939 30.3447 39.0081C31.1687 38.9223 31.9062 39.5206 31.992 40.3446L36.852 87H62.6622L68.0099 40.3293C68.1042 39.5062 68.8478 38.9155 69.6709 39.0098Z" fill="black"/>
<path fill-rule="evenodd" clip-rule="evenodd" d="M67.5 58.5H32.5V55.5H67.5V58.5Z" fill="black"/>
<path fill-rule="evenodd" clip-rule="evenodd" d="M65.5 73.5H34V70.5H65.5V73.5Z" fill="black"/>
</svg>
