<svg width="100" height="100" viewBox="0 0 100 100" fill="none" xmlns="http://www.w3.org/2000/svg">
<rect width="100" height="100" fill="white"/>
<path d="M78.4994 59.8405C77.123 59.8405 75.846 60.2769 74.7939 61.0186L63.9754 51.4019C64.578 50.4042 64.9259 49.2325 64.9259 47.9798C64.9259 44.3514 62.0099 41.4 58.4253 41.4C54.8407 41.4 51.9247 44.3513 51.9247 47.9798C51.9247 48.9837 52.1487 49.9351 52.5474 50.7872L46.45 57.0997C45.585 56.668 44.6127 56.4243 43.5847 56.4243C42.1389 56.4243 40.8023 56.905 39.7214 57.716L25.8709 41.4447C27.1776 40.2405 27.999 38.5055 27.999 36.5798C27.999 32.9514 25.083 30 21.4984 30C17.916 30.0001 15 32.9514 15 36.5798C15 40.2083 17.916 43.1596 21.4984 43.1596C22.3907 43.1596 23.2414 42.9765 24.0163 42.6458L38.2053 59.3144C37.4983 60.3672 37.0844 61.6374 37.0844 63.0039C37.0844 66.6324 40.0004 69.5837 43.585 69.5837C47.1696 69.5837 50.0856 66.6324 50.0856 63.0039C50.0856 61.2172 49.3776 59.5956 48.2319 58.4088L53.8223 52.6212C55 53.8178 56.6286 54.5595 58.4254 54.5595C59.9884 54.5595 61.424 53.9981 62.5464 53.0645L73.2354 62.5661C72.4586 63.6501 71.9989 64.9815 71.9989 66.4202C71.9989 70.0486 74.9149 73 78.4994 73C82.084 73 85 70.0488 85 66.4202C85 62.7917 82.084 59.8405 78.4994 59.8405ZM17.1876 36.5798C17.1876 34.1622 19.1209 32.1948 21.4984 32.1948C23.8761 32.1948 25.8114 34.1623 25.8114 36.5798C25.8114 38.9973 23.876 40.9649 21.4984 40.9649C19.1209 40.965 17.1876 38.9974 17.1876 36.5798ZM43.5849 67.3891C41.2073 67.3891 39.2719 65.4215 39.2719 63.004C39.2719 60.5865 41.2073 58.6189 43.5849 58.6189C45.9626 58.6189 47.8979 60.5865 47.8979 63.004C47.898 65.4215 45.9626 67.3891 43.5849 67.3891ZM58.4253 52.3649C56.0477 52.3649 54.1123 50.3975 54.1123 47.9798C54.1123 45.5622 56.0477 43.5948 58.4253 43.5948C60.8029 43.5948 62.7383 45.5622 62.7383 47.9798C62.7383 50.3975 60.8029 52.3649 58.4253 52.3649ZM78.4994 70.8054C76.1219 70.8054 74.1864 68.8378 74.1864 66.4203C74.1864 64.0027 76.1219 62.0353 78.4994 62.0353C80.877 62.0353 82.8124 64.0028 82.8124 66.4203C82.8126 68.8378 80.8771 70.8054 78.4994 70.8054Z" fill="black"/>
</svg>
