<svg width="100" height="100" viewBox="0 0 100 100" fill="none" xmlns="http://www.w3.org/2000/svg">
<rect width="100" height="100" fill="white"/>
<path d="M49.9999 17.1876C57.7192 17.1876 63.9996 23.468 63.9996 31.1876C63.9996 38.9071 57.719 45.1874 49.9999 45.1874C42.28 45.1874 35.9996 38.907 35.9996 31.1876C35.9996 23.4679 42.28 17.1876 49.9999 17.1876ZM49.9999 15C41.0597 15 33.812 22.2474 33.812 31.1876C33.812 40.1277 41.0597 47.375 49.9999 47.375C58.94 47.375 66.1872 40.1277 66.1872 31.1876C66.1872 22.2474 58.94 15 49.9999 15Z" fill="black"/>
<path d="M32.2481 53.3981L45.8164 82.8123H19.3751V66.4061C19.3751 61.1101 21.6758 57.3136 26.2126 55.1216C28.4931 54.0197 30.8232 53.576 32.2481 53.3981ZM33.5938 51.0936C33.5938 51.0936 17.1875 51.3124 17.1875 66.406C17.1875 81.4998 17.1875 84.9997 17.1875 84.9997C17.1875 84.9997 49.1242 84.9997 49.2342 84.9997L33.5938 51.0936ZM49.2348 84.9999H49.2342H49.2348Z" fill="black"/>
<path d="M67.7521 53.3981C69.1769 53.576 71.5071 54.0197 73.7875 55.1214C78.3244 57.3134 80.6251 61.1101 80.6251 66.406V82.8123H54.1832L67.7521 53.3981ZM66.4062 51.0936L50.7652 84.9999H50.7646H82.8124C82.8124 84.9999 82.8124 81.4998 82.8124 66.4061C82.8125 51.3124 66.4062 51.0936 66.4062 51.0936Z" fill="black"/>
<path d="M49.9996 51.0936H38.7339L49.9996 76.0311L61.2652 51.0936H49.9996Z" fill="black"/>
</svg>
