<svg width="100" height="100" viewBox="0 0 100 100" fill="none" xmlns="http://www.w3.org/2000/svg">
<rect width="100" height="100" fill="white"/>
<path d="M85 39.5774H15L50 16.1149L85 39.5774ZM22.1626 37.3984H77.8374L50 18.7365L22.1626 37.3984Z" fill="black"/>
<path d="M84.8639 83.885H15.1362V75.1223H84.8638V83.885H84.8639ZM17.3152 81.706H82.6848V77.3013H17.3152V81.706Z" fill="black"/>
<path d="M30.7978 71.2195H22.0371V43.165H30.7977V71.2195H30.7978ZM24.2161 69.0405H28.6188V45.344H24.2161V69.0405Z" fill="black"/>
<path d="M41.001 71.2195H32.2383V43.165H41.001V71.2195ZM34.4173 69.0405H38.822V45.344H34.4173V69.0405Z" fill="black"/>
<path d="M67.7617 71.2195H58.999V43.165H67.7617V71.2195ZM61.178 69.0405H65.5829V45.344H61.178V69.0405Z" fill="black"/>
<path d="M77.9629 71.2195H69.2021V43.165H77.9629V71.2195ZM71.3812 69.0405H75.7839V45.344H71.3812V69.0405Z" fill="black"/>
<path d="M38.3136 29.1675H40.2649C41.1523 29.1675 41.797 29.2953 42.1992 29.5463C42.5992 29.7995 42.8013 30.2017 42.8013 30.7528C42.8013 31.1274 42.7119 31.4338 42.5375 31.6743C42.3609 31.9147 42.1289 32.0594 41.8373 32.1084V32.151C42.2332 32.2383 42.5203 32.4043 42.6949 32.6468C42.8715 32.8894 42.9588 33.2128 42.9588 33.6151C42.9588 34.1875 42.7523 34.6322 42.3395 34.9514C41.9266 35.2727 41.367 35.4322 40.6585 35.4322H38.3135V29.1675H38.3136ZM39.6436 31.6487H40.4139C40.7735 31.6487 41.0352 31.5934 41.1969 31.4827C41.3565 31.3698 41.4373 31.1868 41.4373 30.9294C41.4373 30.689 41.35 30.5165 41.1756 30.4123C40.999 30.308 40.7202 30.257 40.3415 30.257H39.6435V31.6487H39.6436ZM39.6436 32.702V34.3362H40.5076C40.8736 34.3362 41.1439 34.266 41.3183 34.1255C41.4928 33.9851 41.58 33.7701 41.58 33.483C41.58 32.9638 41.2076 32.702 40.465 32.702H39.6436V32.702Z" fill="black"/>
<path d="M48.0465 35.4322L47.5911 33.9405H45.3078L44.8545 35.4322H43.4224L45.6332 29.1421H47.2571L49.4765 35.4322H48.0465ZM47.2741 32.8277C46.8549 31.4764 46.6186 30.7125 46.5655 30.5359C46.5124 30.3572 46.4739 30.2189 46.4528 30.1147C46.3571 30.4807 46.0868 31.3851 45.6421 32.8278H47.2741V32.8277Z" fill="black"/>
<path d="M55.8223 35.4321H54.1349L51.409 30.6933H51.3707C51.4239 31.5295 51.4516 32.1275 51.4516 32.485V35.4321H50.2642V29.1675H51.941L54.6604 33.8595H54.6903C54.6477 33.0445 54.6264 32.47 54.6264 32.1338V29.1675H55.8223V35.4321Z" fill="black"/>
<path d="M62.4358 35.4321H60.9293L59.2865 32.7935L58.727 33.1957V35.4321H57.397V29.1675H58.727V32.0338L59.2483 31.2975L60.9464 29.1675H62.419L60.2335 31.9403L62.4358 35.4321Z" fill="black"/>
<path d="M48.6924 67.3647V62.5441H44.4214V61.1657H48.6924V59.1827H44.4214V57.8054H48.0027L43.375 49.4574H45.9647L48.8293 55.1327C49.27 56.0693 49.601 56.814 49.9319 57.6394H50.0149C50.2897 56.8688 50.6474 56.0143 51.1163 55.0777L54.0907 49.4574H56.6256L51.695 57.8054H55.2774V59.1827H50.9784V61.1657H55.2774V62.5441H50.9784V67.3647H48.6924Z" fill="black"/>
</svg>
