<svg width="100" height="100" viewBox="0 0 100 100" fill="none" xmlns="http://www.w3.org/2000/svg">
<rect width="100" height="100" fill="white"/>
<path d="M70.9297 72.5195H36.5703V74.5196H70.9297V72.5195Z" fill="black"/>
<path d="M79.5 79.9999H28V82H79.5V79.9999Z" fill="black"/>
<path d="M74.9125 65.2031H32.5884V59.1114H36.2368V56.754H71.2641V59.1114H74.9125V65.2031ZM34.5883 63.2031H72.9126V61.1113H69.2642V58.7539H38.2367V61.1113H34.5883V63.2031Z" fill="black"/>
<path d="M69.4595 54.0917H61.7075V36.785H69.4595V54.0917ZM63.7075 52.0916H67.4594V38.785H63.7075V52.0916Z" fill="black"/>
<path d="M57.6255 54.0917H49.8735V36.785H57.6255V54.0917ZM51.8736 52.0916H55.6256V38.785H51.8736V52.0916Z" fill="black"/>
<path d="M45.7935 54.0917H38.0415V36.7851H45.7935V54.0917ZM40.0416 52.0916H43.7935V38.785H40.0416V52.0916Z" fill="black"/>
<path d="M75.5392 34.1172H31.9609L53.7501 18L75.5392 34.1172ZM38.0274 32.1172H69.4726L53.7501 20.4883L38.0274 32.1172ZM53.7501 30.1368C52.1973 30.1368 50.9337 28.879 50.9337 27.3321C50.9337 25.7872 52.1973 24.5293 53.7501 24.5293C55.3028 24.5293 56.5665 25.7871 56.5665 27.3321C56.5665 28.879 55.3028 30.1368 53.7501 30.1368ZM53.7501 26.5292C53.3009 26.5292 52.9336 26.8887 52.9336 27.332C52.9336 27.7753 53.3008 28.1367 53.7501 28.1367C54.1994 28.1367 54.5665 27.7754 54.5665 27.332C54.5665 26.8887 54.1992 26.5292 53.7501 26.5292Z" fill="black"/>
</svg>
