<svg width="100" height="100" viewBox="0 0 100 100" fill="none" xmlns="http://www.w3.org/2000/svg">
<rect width="100" height="100" fill="white"/>
<path d="M50 17.1876C68.0929 17.1876 82.8126 31.9073 82.8126 50C82.8126 68.0927 68.0929 82.8126 50 82.8126C31.9071 82.8126 17.1876 68.0929 17.1876 50C17.1876 31.9071 31.9071 17.1876 50 17.1876ZM50 15C30.6697 15 15 30.67 15 50C15 69.33 30.6697 85 50 85C69.3303 85 85 69.33 85 50C85 30.67 69.3301 15 50 15Z" fill="black"/>
<path d="M67.9443 69.2175L48.9062 50.1794V23.327H51.0937V49.2737L69.491 67.6708L67.9443 69.2175Z" fill="black"/>
</svg>
