<svg width="100" height="100" viewBox="0 0 100 100" fill="none" xmlns="http://www.w3.org/2000/svg">
<rect width="100" height="100" fill="white"/>
<path d="M51.8197 28.0314V33.1053C54.9584 33.21 57.1031 34.046 58.6198 34.9363L57.3124 38.3887C56.2128 37.7604 54.0697 36.61 50.7221 36.61C46.6937 36.61 45.177 39.0152 45.177 41.1079C45.177 43.8292 47.1124 45.1886 51.6625 47.072C57.0507 49.2677 59.7701 51.9889 59.7701 56.6439C59.7701 60.775 56.8937 64.6464 51.5055 65.5364V70.9753H48.2104V65.6919C45.177 65.6414 42.0382 64.6987 40.2075 63.3914L41.4625 59.8867C43.3457 61.1417 46.0651 62.1367 48.9954 62.1367C52.7081 62.1367 55.2198 59.9914 55.2198 57.0103C55.2198 54.1323 53.1791 52.3536 49.31 50.7844C43.9742 48.6933 40.6785 46.2866 40.6785 41.7362C40.6785 37.3937 43.7648 34.0983 48.5767 33.3149V28.0314H51.8197ZM54.0071 25.8439H51.8195H48.5767H46.3892V28.0314V31.5757C41.5331 33.0286 38.4911 36.8602 38.4911 41.7362C38.4911 48.0436 43.5567 50.8792 48.5117 52.821C52.6811 54.5122 53.0325 55.8704 53.0325 57.0102C53.0325 58.7954 51.448 59.949 48.9955 59.949C46.807 59.949 44.4448 59.2452 42.6761 58.0662L40.3471 56.5139L39.4034 59.1489L38.1484 62.6536L37.5908 64.2103L38.9367 65.1713C40.7241 66.448 43.3148 67.3639 46.0231 67.7187V70.9749V73.1624H48.2105H51.5057H53.6932V70.9749V67.2699C58.707 65.7532 61.9578 61.6676 61.9578 56.6434C61.9578 49.7843 56.8971 46.8424 52.4884 45.0459C47.722 43.073 47.3647 42.2054 47.3647 41.1074C47.3647 39.6607 48.6197 38.7972 50.7222 38.7972C53.619 38.7972 55.3802 39.8039 56.2274 40.2877L58.4512 41.5586L59.3587 39.163L60.6661 35.7106L61.3198 33.984L59.7272 33.0494C58.0081 32.0403 56.1224 31.3957 54.0075 31.0984V28.0314V25.8439H54.0071Z" fill="black"/>
<path d="M50 17.1876C68.0929 17.1876 82.8126 31.9073 82.8126 50C82.8126 68.0927 68.0929 82.8126 50 82.8126C31.9071 82.8126 17.1876 68.0929 17.1876 50C17.1876 31.9071 31.9071 17.1876 50 17.1876ZM50 15C30.6703 15 15 30.67 15 50C15 69.33 30.6703 85 50 85C69.3301 85 85 69.33 85 50C85 30.67 69.3301 15 50 15Z" fill="black"/>
</svg>
