<svg width="100" height="97" viewBox="0 0 100 97" fill="none" xmlns="http://www.w3.org/2000/svg">
<rect width="100" height="97" fill="white"/>
<path d="M50 15.1876C68.0929 15.1876 82.8126 29.9071 82.8126 48C82.8126 66.093 68.0929 80.8126 50 80.8126C31.9071 80.8126 17.1876 66.093 17.1876 48C17.1876 29.9071 31.9071 15.1876 50 15.1876ZM50 13C30.6703 13 15 28.67 15 48C15 67.33 30.6703 83 50 83C69.3301 83 85 67.33 85 48C85 28.67 69.3301 13 50 13Z" fill="black"/>
<path d="M49.1318 58.9456H24.6763L29.5106 45.6924H44.2976L49.1318 58.9456ZM27.8037 56.758H46.0044L42.768 47.8799H31.0401L27.8037 56.758Z" fill="black"/>
<path d="M75.3008 58.9456H50.8452L55.6795 45.6924H70.4665L75.3008 58.9456ZM53.9726 56.758H72.1734L68.9369 47.8799H57.2091L53.9726 56.758Z" fill="black"/>
<path d="M62.2163 43.4984H37.7607L42.595 30.2452H57.382L62.2163 43.4984ZM40.8882 41.311H59.0889L55.8525 32.4328H44.1246L40.8882 41.311Z" fill="black"/>
</svg>
