<svg width="100" height="97" viewBox="0 0 100 97" fill="none" xmlns="http://www.w3.org/2000/svg">
<rect width="100" height="97" fill="white"/>
<path d="M50.0104 42.0725C51.6612 42.0725 53.0039 43.4154 53.0039 45.0659C53.0039 46.7164 51.6613 48.0594 50.0104 48.0594C48.3597 48.0594 47.017 46.7165 47.017 45.0659C47.017 43.4154 48.3596 42.0725 50.0104 42.0725ZM50.0104 39.8849C47.149 39.8849 44.8296 42.2045 44.8296 45.0658C44.8296 47.9271 47.149 50.2467 50.0104 50.2467C52.8719 50.2467 55.1913 47.9271 55.1913 45.0658C55.1913 42.2045 52.8719 39.8849 50.0104 39.8849Z" fill="black"/>
<path d="M43.4694 53.8625L46.3474 60.1014H41.6962V56.3378C41.6962 54.8372 42.6036 54.1635 43.4694 53.8625ZM44.7596 51.4371C44.7596 51.4371 39.5088 51.5071 39.5088 56.3378C39.5088 61.1686 39.5088 62.2888 39.5088 62.2888C39.5088 62.2888 49.7291 62.2888 49.7654 62.2888L44.7596 51.4371Z" fill="black"/>
<path d="M56.5556 53.8539C57.4059 54.1488 58.3248 54.8188 58.3248 56.3378V60.1014H53.6737L56.5556 53.8539ZM55.2616 51.4371L50.2559 62.2888H60.5124C60.5124 62.2888 60.5124 61.1686 60.5124 56.3378C60.5124 51.5069 55.2616 51.4371 55.2616 51.4371Z" fill="black"/>
<path d="M50.0104 51.4371H46.4048L50.0104 59.4184L53.6159 51.4371H50.0104Z" fill="black"/>
<path d="M80.625 28H19.375V30.1876H80.625V28Z" fill="black"/>
<path d="M85 69.5967H15V32.939H85V69.5967ZM17.1876 67.4093H82.8126V35.1265H17.1876V67.4093Z" fill="black"/>
<path d="M20.4019 37.998V43.7649L26.1687 37.998H20.4019Z" fill="black"/>
<path d="M20.4019 64.5374V58.7705L26.1687 64.5374H20.4019Z" fill="black"/>
<path d="M79.5969 37.998V43.7649L73.8301 37.998H79.5969Z" fill="black"/>
<path d="M79.5969 64.5374V58.7705L73.8301 64.5374H79.5969Z" fill="black"/>
</svg>
