<svg width="100" height="100" viewBox="0 0 100 100" fill="none" xmlns="http://www.w3.org/2000/svg">
<rect width="100" height="100" fill="white"/>
<path fill-rule="evenodd" clip-rule="evenodd" d="M50 55.4431C53.0025 55.4431 55.4385 53.0074 55.4385 50.0002C55.4385 46.993 53.0025 44.5573 50 44.5573C46.9975 44.5573 44.5615 46.993 44.5615 50.0002C44.5615 53.0074 46.9975 55.4431 50 55.4431ZM57.4385 50.0002C57.4385 54.1108 54.1082 57.4431 50 57.4431C45.8918 57.4431 42.5615 54.1108 42.5615 50.0002C42.5615 45.8896 45.8918 42.5573 50 42.5573C54.1082 42.5573 57.4385 45.8896 57.4385 50.0002Z" fill="black"/>
<path d="M56.0922 84.9996H43.908L42.7683 73.6135C41.2125 73.208 39.693 72.6424 38.231 71.9276L29.5384 79.0452L20.9525 70.4529L27.7692 62.1146C26.8685 60.546 26.1472 58.8791 25.6115 57.1376L15 56.0747V43.9267L25.5942 42.8661C26.1235 41.1395 26.8492 39.4685 27.7626 37.8784L20.9524 29.5485L29.5383 20.9562L38.233 28.0738C39.6971 27.3588 41.2166 26.7933 42.7681 26.3878L43.9078 15.0018H56.092L57.2296 26.3878C58.7811 26.7934 60.3028 27.359 61.7669 28.0738L70.4594 20.9562L79.0496 29.5485L72.2372 37.8784C73.1506 39.4683 73.8763 41.1394 74.4056 42.8661L84.9999 43.9267V56.0747L74.3886 57.1375C73.8529 58.879 73.1294 60.5479 72.231 62.1166L79.0498 70.4528L70.4596 79.0451L61.767 71.9275C60.3072 72.6424 58.7855 73.208 57.2297 73.6134L56.0922 84.9996ZM45.8842 82.8141H54.1158L55.2106 71.8422L55.9789 71.6693C57.8505 71.2468 59.6732 70.5724 61.3976 69.6631L62.04 69.326L70.3143 76.0999L76.1044 70.3077L69.5588 62.3022L69.9685 61.6406C71.0783 59.8457 71.9277 57.8929 72.4911 55.8355L72.6895 55.112L82.8142 54.0983V45.903L72.7024 44.8914L72.5061 44.1657C71.9554 42.1382 71.1039 40.1833 69.9749 38.3543L69.5673 37.6906L76.1044 29.6937L70.3143 23.9015L62.04 30.6754L61.3997 30.3383C59.6668 29.427 57.8441 28.7526 55.9787 28.3321L55.2105 28.1592L54.1157 17.1873H45.8841L44.7871 28.1592L44.0188 28.3321C42.1556 28.7525 40.3331 29.429 38.6001 30.3383L37.9599 30.6754L29.6834 23.9015L23.8933 29.6937L30.4325 37.6906L30.0248 38.3543C28.8959 40.1833 28.0443 42.1382 27.4936 44.1657L27.2973 44.8914L17.1855 45.903V54.0983L27.3102 55.112L27.5088 55.8355C28.0722 57.8907 28.9194 59.8435 30.0293 61.6406L30.437 62.3043L23.8934 70.3077L29.6836 76.0999L37.9579 69.326L38.6003 69.6631C40.3268 70.5724 42.1495 71.2466 44.019 71.6693L44.7872 71.8422L45.8842 82.8141ZM49.9989 66.3935C40.9648 66.3935 33.6167 59.039 33.6167 50.0006C33.6167 40.9621 40.9648 33.6076 49.9989 33.6076C59.0331 33.6076 66.3833 40.9621 66.3833 50.0006C66.3833 59.039 59.0331 66.3935 49.9989 66.3935ZM49.9989 35.7931C42.1706 35.7931 35.8022 42.1659 35.8022 50.0006C35.8022 57.8352 42.1707 64.208 49.9989 64.208C57.8273 64.208 64.1979 57.8352 64.1979 50.0006C64.1979 42.1659 57.8273 35.7931 49.9989 35.7931Z" fill="black"/>
</svg>
