<svg width="100" height="100" viewBox="0 0 100 100" fill="none" xmlns="http://www.w3.org/2000/svg">
<rect width="100" height="100" fill="white"/>
<g clip-path="url(#clip0)">
<path d="M50.7336 40.8033V38.146C53.3396 37.7111 54.7309 35.8197 54.7309 33.8011C54.7309 31.5269 53.4156 30.1973 50.8096 29.1246C48.6088 28.2044 47.6726 27.5401 47.6726 26.2107C47.6726 25.1883 48.4062 24.0131 50.3546 24.0131C51.9738 24.0131 53.0105 24.5751 53.5423 24.8821L54.1746 23.1954C53.441 22.7606 52.4035 22.3521 50.8856 22.3009V19.8217H49.317V22.403C46.9896 22.7859 45.497 24.396 45.497 26.5176C45.497 28.7407 47.0909 29.9167 49.6716 30.9383C51.5432 31.7049 52.53 32.5739 52.53 33.9801C52.53 35.4367 51.3153 36.4847 49.5196 36.4847C48.1022 36.4847 46.7869 35.9987 45.876 35.3854L45.269 37.0979C46.1546 37.7366 47.6725 38.1971 49.1398 38.2219V40.8031H50.7336V40.8033Z" fill="black"/>
<path d="M28.1252 69.95C31.7014 69.95 34.6001 67.051 34.6001 63.475C34.6001 60.272 32.2738 57.6139 29.219 57.094V52.7196H70.476V57.1536C67.5728 57.7933 65.4002 60.3797 65.4002 63.4751C65.4002 67.0511 68.2991 69.9501 71.8751 69.9501C75.4511 69.9501 78.35 67.0511 78.35 63.4751C78.35 60.1661 75.8672 57.4389 72.6632 57.0497V50.5321H51.094V45.587C59.1815 45.0336 65.5882 38.394 65.5882 30.3127C65.5882 21.8701 58.5964 15 50.0002 15C41.4041 15 34.4121 21.8701 34.4121 30.3126C34.4121 38.3937 40.8188 45.0334 48.9064 45.5869V50.532H27.0315V57.094C23.9767 57.614 21.6504 60.272 21.6504 63.475C21.6504 67.051 24.5491 69.95 28.1252 69.95ZM76.1627 63.4749C76.1627 65.839 74.2395 67.7624 71.8753 67.7624C69.511 67.7624 67.5878 65.839 67.5878 63.4749C67.5878 61.1107 69.511 59.1874 71.8753 59.1874C74.2395 59.1876 76.1627 61.1109 76.1627 63.4749ZM36.5997 30.3126C36.5997 23.075 42.611 17.1876 50.0002 17.1876C57.3895 17.1876 63.4008 23.075 63.4008 30.3126C63.4008 37.5501 57.3895 43.4376 50.0002 43.4376C42.611 43.4376 36.5997 37.55 36.5997 30.3126ZM28.1252 59.1876C30.4895 59.1876 32.4127 61.1109 32.4127 63.475C32.4127 65.8391 30.4895 67.7626 28.1252 67.7626C25.761 67.7626 23.8378 65.8391 23.8378 63.475C23.8378 61.1109 25.761 59.1876 28.1252 59.1876Z" fill="black"/>
<path d="M15 77.5624C15 83.6 15 85 15 85C15 85 27.7747 85 27.819 85L21.5626 71.4374C21.5626 71.4374 15 71.5249 15 77.5624ZM17.1876 82.8126V77.5626C17.1876 75.0646 18.9239 74.1496 20.2504 73.8152L24.4011 82.8127H17.1876V82.8126Z" fill="black"/>
<path d="M34.6877 71.4374L28.4312 85H41.2502C41.2502 85 41.2502 83.6 41.2502 77.5624C41.2502 71.5249 34.6877 71.4374 34.6877 71.4374ZM39.0627 82.8126H31.8492L35.9999 73.815C37.3264 74.1494 39.0627 75.0644 39.0627 77.5624V82.8126Z" fill="black"/>
<path d="M28.1249 71.4374H23.6187L28.1249 81.4124L32.6312 71.4374H28.1249Z" fill="black"/>
<path d="M58.75 77.5624C58.75 83.6 58.75 85 58.75 85C58.75 85 71.5247 85 71.569 85L65.3126 71.4374C65.3126 71.4374 58.75 71.5249 58.75 77.5624ZM60.9376 82.8126V77.5626C60.9376 75.0646 62.6739 74.1496 64.0004 73.8152L68.1511 82.8127H60.9376V82.8126Z" fill="black"/>
<path d="M78.4377 71.4374L72.1812 85H85.0002C85.0002 85 85.0002 83.6 85.0002 77.5624C85.0002 71.5249 78.4377 71.4374 78.4377 71.4374ZM82.8127 82.8126H75.5992L79.7499 73.815C81.0764 74.1494 82.8127 75.0644 82.8127 77.5624V82.8126Z" fill="black"/>
<path d="M71.8749 71.4374H67.3687L71.8749 81.4124L76.3812 71.4374H71.8749Z" fill="black"/>
</g>
<defs>
<clipPath id="clip0">
<rect width="70" height="70" fill="white" transform="translate(15 15)"/>
</clipPath>
</defs>
</svg>
