<svg width="100" height="100" viewBox="0 0 100 100" fill="none" xmlns="http://www.w3.org/2000/svg">
<rect width="100" height="100" fill="white"/>
<g clip-path="url(#clip0)">
<path d="M30.7611 84.9887H20.229V66.1053H30.7611V84.9887ZM22.4161 82.8016H28.574V68.2924H22.4161V82.8016Z" fill="black"/>
<path d="M44.3197 84.9887H33.7876V56.5641H44.3197V84.9887ZM35.9747 82.8016H42.1326V58.7513H35.9747V82.8016Z" fill="black"/>
<path d="M57.8808 84.9887H47.3486V45.8292H57.8808V84.9887ZM49.5358 82.8016H55.6936V48.0163H49.5358V82.8016V82.8016Z" fill="black"/>
<path d="M71.4394 84.9887H60.9072V35.0963H71.4394V84.9887V84.9887ZM63.0944 82.8016H69.2522V37.2834H63.0944V82.8016Z" fill="black"/>
<path d="M85.0004 84.9887H74.4683V27.9388H85.0004V84.9887ZM76.6554 82.8016H82.8133V30.126H76.6554V82.8016Z" fill="black"/>
<path d="M15 58.7305L64.771 19.0912L62.6329 16.3705L72.0083 15.011L68.495 23.8299L66.3569 21.109L16.8434 60.8559C16.8434 60.8559 15.0733 58.7563 15 58.7305Z" fill="black"/>
</g>
<defs>
<clipPath id="clip0">
<rect width="70" height="70" fill="white" transform="translate(15 15)"/>
</clipPath>
</defs>
</svg>
