<svg width="100" height="100" viewBox="0 0 100 100" fill="none" xmlns="http://www.w3.org/2000/svg">
<rect width="100" height="100" fill="white"/>
<path fill-rule="evenodd" clip-rule="evenodd" d="M40.2185 34.5842C37.8671 36.407 35.1617 38.5041 31.3647 39.4558C28.959 40.0587 25.8654 40.4418 23.4245 40.6746C22.2973 40.7821 21.2924 40.859 20.5337 40.9109C21.2691 56.2722 33.9565 68.5008 49.5 68.5008C65.1829 68.5008 77.9582 56.0519 78.4832 40.4968C77.692 40.4872 76.6459 40.4642 75.4728 40.412C72.9281 40.2988 69.6891 40.045 67.1629 39.4624C63.3239 38.5771 60.6505 36.4436 58.3324 34.5937C58.1005 34.4086 57.8721 34.2264 57.6465 34.0485C55.1262 32.0615 52.8817 30.5376 49.4837 30.5007C45.9941 30.4628 43.6615 31.9531 41.0689 33.9287C40.7899 34.1413 40.5068 34.3607 40.2185 34.5842ZM80.0065 39.5008C80.0046 39.3561 80.0025 39.1904 80 39.0008C79.9805 37.5009 79.9806 37.5009 79.9806 37.5009L79.9618 37.5011L79.8999 37.5017C79.8447 37.5021 79.7621 37.5027 79.6545 37.503C79.4395 37.5036 79.1252 37.5032 78.7325 37.4994C77.9465 37.4917 76.8492 37.4702 75.6061 37.415C73.0938 37.3032 70.0828 37.0571 67.8371 36.5392C64.6921 35.8139 62.5336 34.0987 60.1654 32.2169C59.947 32.0433 59.7268 31.8683 59.5039 31.6926C56.9034 29.6425 53.9769 27.5494 49.5163 27.5009C44.9721 27.4515 41.9513 29.4846 39.2506 31.5425C38.9569 31.7663 38.6676 31.9895 38.381 32.2108C35.9952 34.0519 33.7872 35.7558 30.6353 36.5458C28.4599 37.091 25.5535 37.458 23.1397 37.6881C21.9435 37.8022 20.8877 37.881 20.1314 37.9312C19.7535 37.9563 19.451 37.9742 19.2439 37.9858C19.1403 37.9916 19.0606 37.9958 19.0073 37.9985L18.9474 38.0016L18.9296 38.0024L17.5 38.0702V39.5008C17.5 57.1739 31.8269 71.5008 49.5 71.5008C67.1731 71.5008 81.5 57.1739 81.5 39.5008H80.0065Z" fill="black"/>
<path fill-rule="evenodd" clip-rule="evenodd" d="M83 40.5008H79.5V37.5008H83C88.799 37.5008 93.5 42.2018 93.5 48.0008V49.0008C93.5 54.7998 88.799 59.5008 83 59.5008H74V56.5008H83C87.1421 56.5008 90.5 53.1429 90.5 49.0008V48.0008C90.5 43.8587 87.1421 40.5008 83 40.5008Z" fill="black"/>
<path fill-rule="evenodd" clip-rule="evenodd" d="M8.5 48.3836C8.5 44.119 12.0513 40.7126 16.3122 40.8901L18.9376 40.9995L19.0624 38.0021L16.4371 37.8927C10.4718 37.6442 5.5 42.4131 5.5 48.3836V49.0008C5.5 54.7998 10.201 59.5008 16 59.5008H25V56.5008H16C11.8579 56.5008 8.5 53.1429 8.5 49.0008V48.3836Z" fill="black"/>
<path fill-rule="evenodd" clip-rule="evenodd" d="M49.4995 63.5008C58.4161 63.5008 66.001 59.6205 69.7637 54.1507L72.2354 55.8509C67.8125 62.2806 59.212 66.5008 49.4995 66.5008C39.787 66.5008 31.1866 62.2806 26.7637 55.8509L29.2354 54.1507C32.998 59.6205 40.5829 63.5008 49.4995 63.5008Z" fill="black"/>
<path fill-rule="evenodd" clip-rule="evenodd" d="M49.5 53.5008C58.7593 53.5008 66.5983 52.284 70.4004 50.6259L71.5997 53.3757C67.2162 55.2874 58.8698 56.5008 49.5 56.5008C40.1302 56.5008 31.7839 55.2874 27.4004 53.3757L28.5997 50.6259C32.4017 52.284 40.2407 53.5008 49.5 53.5008Z" fill="black"/>
<path fill-rule="evenodd" clip-rule="evenodd" d="M41.9211 39.1726C41.0559 39.6331 40.1428 40.1048 39.192 40.5072C37.2564 41.3264 34.9668 41.8181 33.2181 42.1059C32.3323 42.2517 31.5618 42.3488 31.0111 42.4097C30.7355 42.4402 30.514 42.4616 30.3598 42.4756C30.2826 42.4826 30.2222 42.4877 30.1802 42.4912L30.131 42.4951L30.1172 42.4962L30.1115 42.4966C30.1113 42.4966 30.1106 42.4967 29.9998 41.0008C29.889 39.5049 29.8889 39.5049 29.8887 39.5049L29.8898 39.5048L29.8979 39.5042L29.9349 39.5012C29.9688 39.4985 30.0206 39.4941 30.0888 39.4879C30.2253 39.4755 30.4271 39.456 30.6815 39.4278C31.191 39.3715 31.9078 39.2812 32.7309 39.1457C34.3999 38.871 36.4141 38.4252 38.0228 37.7444C38.8441 37.3968 39.6594 36.9779 40.5116 36.5243C40.6896 36.4296 40.8702 36.3328 41.0529 36.2348C41.7271 35.8734 42.4299 35.4967 43.1343 35.1528C44.9353 34.2736 46.953 33.5008 49.2403 33.5008C51.4194 33.5008 53.2969 34.4008 54.9352 35.2925C55.2848 35.4828 55.6233 35.6722 55.9551 35.8579C57.2604 36.5883 58.4617 37.2606 59.8246 37.6973C62.3289 38.4998 64.8602 38.8419 66.7824 38.9802C67.7392 39.049 68.5346 39.0666 69.0868 39.0672C69.3627 39.0675 69.5771 39.0636 69.7199 39.0597C69.7912 39.0577 69.8446 39.0558 69.8787 39.0544L69.9153 39.0529L69.9224 39.0526C69.9221 39.0526 69.9219 39.0526 69.9998 40.5506C70.0777 42.0485 70.0775 42.0485 70.0771 42.0486L70.0746 42.0487L70.0695 42.0489L70.0535 42.0497L69.9988 42.052C69.9523 42.0539 69.8861 42.0563 69.8016 42.0586C69.6325 42.0632 69.3897 42.0676 69.0836 42.0672C68.4718 42.0666 67.6048 42.0471 66.5671 41.9724C64.5004 41.8238 61.7153 41.4534 58.9092 40.5542C57.2295 40.016 55.7003 39.1574 54.3754 38.4136C54.0731 38.2439 53.7814 38.0801 53.501 37.9275C51.9052 37.0589 50.6055 36.5008 49.2403 36.5008C47.6327 36.5008 46.1061 37.0405 44.4504 37.8487C43.8022 38.1652 43.1656 38.5064 42.499 38.8636C42.3091 38.9653 42.1168 39.0684 41.9211 39.1726ZM29.8887 39.5049C29.8886 39.5049 29.8887 39.5049 29.8887 39.5049Z" fill="black"/>
</svg>
