<svg width="100" height="100" viewBox="0 0 100 100" fill="none" xmlns="http://www.w3.org/2000/svg">
<rect width="100" height="100" fill="white"/>
<path fill-rule="evenodd" clip-rule="evenodd" d="M33.9577 66.0833C32.4216 66.0833 30.9485 66.6935 29.8624 67.7797C28.7762 68.8658 28.166 70.339 28.166 71.875C28.166 72.7034 27.4944 73.375 26.666 73.375C25.8376 73.375 25.166 72.7034 25.166 71.875C25.166 69.5433 26.0923 67.3071 27.741 65.6584C29.3898 64.0096 31.626 63.0833 33.9577 63.0833H73.3327C74.1611 63.0833 74.8327 63.7549 74.8327 64.5833C74.8327 65.4118 74.1611 66.0833 73.3327 66.0833H33.9577Z" fill="black"/>
<path fill-rule="evenodd" clip-rule="evenodd" d="M33.9577 22.3333C32.4216 22.3333 30.9485 22.9435 29.8624 24.0297C28.7762 25.1158 28.166 26.589 28.166 28.125V71.875C28.166 73.4111 28.7762 74.8842 29.8624 75.9703C30.9485 77.0565 32.4216 77.6667 33.9577 77.6667H71.8327V22.3333H33.9577ZM33.9577 19.3333C31.626 19.3333 29.3898 20.2596 27.741 21.9084C26.0923 23.5571 25.166 25.7933 25.166 28.125V71.875C25.166 74.2067 26.0923 76.4429 27.741 78.0917C29.3898 79.7404 31.626 80.6667 33.9577 80.6667H73.3327C74.1611 80.6667 74.8327 79.9951 74.8327 79.1667V20.8333C74.8327 20.0049 74.1611 19.3333 73.3327 19.3333H33.9577Z" fill="black"/>
<path fill-rule="evenodd" clip-rule="evenodd" d="M47.5 34.5C47.5 33.6716 48.1716 33 49 33H53C53.8284 33 54.5 33.6716 54.5 34.5V41.5H61C61.8284 41.5 62.5 42.1716 62.5 43V47C62.5 47.8284 61.8284 48.5 61 48.5H54.5V55C54.5 55.8284 53.8284 56.5 53 56.5H49C48.1716 56.5 47.5 55.8284 47.5 55V48.5H41C40.1716 48.5 39.5 47.8284 39.5 47V43C39.5 42.1716 40.1716 41.5 41 41.5H47.5V34.5ZM50.5 36V43C50.5 43.8284 49.8284 44.5 49 44.5H42.5V45.5H49C49.8284 45.5 50.5 46.1716 50.5 47V53.5H51.5V47C51.5 46.1716 52.1716 45.5 53 45.5H59.5V44.5H53C52.1716 44.5 51.5 43.8284 51.5 43V36H50.5Z" fill="black"/>
</svg>
