<svg width="100" height="100" viewBox="0 0 100 100" fill="none" xmlns="http://www.w3.org/2000/svg">
<rect width="100" height="100" fill="white"/>
<path fill-rule="evenodd" clip-rule="evenodd" d="M24.5 23.875C23.2402 23.875 22.032 24.3754 21.1412 25.2662C20.2504 26.157 19.75 27.3652 19.75 28.625V72.375C19.75 73.6348 20.2504 74.843 21.1412 75.7338C22.032 76.6246 23.2402 77.125 24.5 77.125H74.5C75.7598 77.125 76.968 76.6246 77.8588 75.7338C78.7496 74.843 79.25 73.6348 79.25 72.375V38C79.25 36.7402 78.7496 35.532 77.8588 34.6412C76.968 33.7504 75.7598 33.25 74.5 33.25H46.375C45.8735 33.25 45.4051 32.9993 45.1269 32.5821L39.3222 23.875H24.5ZM19.0199 23.1449C20.4733 21.6915 22.4446 20.875 24.5 20.875H40.125C40.6265 20.875 41.0949 21.1257 41.3731 21.5429L47.1778 30.25H74.5C76.5554 30.25 78.5267 31.0665 79.9801 32.5199C81.4335 33.9733 82.25 35.9446 82.25 38V72.375C82.25 74.4304 81.4335 76.4017 79.9801 77.8551C78.5267 79.3085 76.5554 80.125 74.5 80.125H24.5C22.4446 80.125 20.4733 79.3085 19.0199 77.8551C17.5665 76.4017 16.75 74.4304 16.75 72.375V28.625C16.75 26.5696 17.5665 24.5983 19.0199 23.1449Z" fill="black"/>
<path fill-rule="evenodd" clip-rule="evenodd" d="M46.5 45C46.5 44.1716 47.1716 43.5 48 43.5H52C52.8284 43.5 53.5 44.1716 53.5 45V52H60C60.8284 52 61.5 52.6716 61.5 53.5V57.5C61.5 58.3284 60.8284 59 60 59H53.5V65.5C53.5 66.3284 52.8284 67 52 67H48C47.1716 67 46.5 66.3284 46.5 65.5V59H40C39.1716 59 38.5 58.3284 38.5 57.5V53.5C38.5 52.6716 39.1716 52 40 52H46.5V45ZM49.5 46.5V53.5C49.5 54.3284 48.8284 55 48 55H41.5V56H48C48.8284 56 49.5 56.6716 49.5 57.5V64H50.5V57.5C50.5 56.6716 51.1716 56 52 56H58.5V55H52C51.1716 55 50.5 54.3284 50.5 53.5V46.5H49.5Z" fill="black"/>
</svg>
