<svg width="100" height="100" viewBox="0 0 100 100" fill="none" xmlns="http://www.w3.org/2000/svg">
<rect width="100" height="100" fill="white"/>
<path fill-rule="evenodd" clip-rule="evenodd" d="M53.0007 18.3333C34.9593 18.3333 20.334 32.9587 20.334 51C20.334 69.0413 34.9593 83.6667 53.0007 83.6667C71.042 83.6667 85.6673 69.0413 85.6673 51C85.6673 32.9587 71.042 18.3333 53.0007 18.3333ZM17.334 51C17.334 31.3019 33.3025 15.3333 53.0007 15.3333C72.6988 15.3333 88.6673 31.3019 88.6673 51C88.6673 70.6982 72.6988 86.6667 53.0007 86.6667C33.3025 86.6667 17.334 70.6982 17.334 51Z" fill="black"/>
<path fill-rule="evenodd" clip-rule="evenodd" d="M21.0089 65.8377C21.0986 65.0142 21.8388 64.4192 22.6624 64.5088L22.5001 66L22.3378 67.4912C21.5143 67.4016 20.9193 66.6613 21.0089 65.8377ZM83.0085 66C83.1702 67.4913 83.1701 67.4913 83.1699 67.4913L82.9553 67.5142C82.8152 67.5291 82.6087 67.5509 82.3419 67.5785C81.8083 67.6338 81.0334 67.7127 80.0666 67.8072C78.1333 67.9964 75.4309 68.2484 72.354 68.5C66.2118 69.0022 58.5335 69.5067 52.4985 69.5C46.5636 69.4934 39.0133 68.989 32.9735 68.49C29.9478 68.2401 27.2906 67.9905 25.3896 67.8035C24.4389 67.7099 23.677 67.632 23.1523 67.5773C22.8899 67.55 22.6868 67.5286 22.5491 67.5139L22.3389 67.4913C22.3387 67.4913 22.3378 67.4912 22.5001 66C22.6624 64.5088 22.6623 64.5088 22.6624 64.5088L22.867 64.5308C23.0024 64.5452 23.2031 64.5664 23.4629 64.5935C23.9826 64.6476 24.7388 64.7249 25.6833 64.8179C27.5726 65.0038 30.2138 65.2518 33.2205 65.5002C39.2453 65.998 46.6949 66.4936 52.5018 66.5C58.4066 66.5065 65.9825 66.011 72.1095 65.5099C75.1672 65.2599 77.8532 65.0094 79.7746 64.8215C80.7351 64.7275 81.5042 64.6492 82.0327 64.5945C82.297 64.5671 82.501 64.5456 82.6387 64.531L82.8462 64.5088C82.8463 64.5088 82.8468 64.5087 83.0085 66ZM83.0085 66L83.1699 67.4913C83.9935 67.402 84.589 66.6619 84.4998 65.8383C84.4105 65.0147 83.6698 64.4195 82.8462 64.5088L83.0085 66Z" fill="black"/>
<path fill-rule="evenodd" clip-rule="evenodd" d="M73.0543 38.2249C66.6304 37.5948 58.6933 36.9764 52.5059 37C46.6067 37.0225 39.0416 37.6411 32.9193 38.2595C29.865 38.568 27.1824 38.8752 25.2637 39.1051C24.3045 39.2201 23.5366 39.3157 23.009 39.3826C22.7453 39.416 22.5416 39.4422 22.4042 39.46L22.2486 39.4802L22.1975 39.487L22.0002 38C21.8034 36.513 21.8035 36.5129 21.8037 36.5129L21.8589 36.5057L22.0186 36.4849C22.1587 36.4667 22.3653 36.4401 22.6321 36.4063C23.1656 36.3388 23.9402 36.2423 24.9067 36.1264C26.8394 35.8948 29.541 35.5855 32.6179 35.2747C38.7579 34.6545 46.4428 34.0231 52.4944 34C58.8418 33.9758 66.9047 34.6073 73.3471 35.2392C76.5755 35.5559 79.4103 35.874 81.4384 36.1129C82.4526 36.2325 83.2654 36.3322 83.8253 36.4022C84.1052 36.4372 84.322 36.4647 84.469 36.4835L84.6366 36.5051L84.6937 36.5125C84.6939 36.5126 84.6948 36.5127 84.5027 37.9809L84.6948 36.5127C85.5163 36.6202 86.095 37.3733 85.9875 38.1947C85.88 39.0161 85.1269 39.5948 84.3055 39.4873L84.2513 39.4803L84.088 39.4592C83.9438 39.4408 83.7301 39.4136 83.4533 39.379C82.8997 39.3098 82.0939 39.2109 81.0873 39.0923C79.0739 38.8551 76.259 38.5392 73.0543 38.2249ZM20.5131 38.1968C20.4045 37.3755 20.9825 36.6216 21.8037 36.5129L22.0002 38L22.1975 39.487C21.3763 39.5956 20.6218 39.018 20.5131 38.1968Z" fill="black"/>
<path fill-rule="evenodd" clip-rule="evenodd" d="M40.8343 51C41.086 62.7358 45.3953 74.0043 53.0007 82.9017C60.606 74.0043 64.9153 62.7358 65.167 51C64.9153 39.2641 60.606 27.9957 53.0007 19.0983C45.3953 27.9957 41.086 39.2641 40.8343 51ZM53.0007 16.8333L51.8931 15.8217C43.1019 25.4462 38.1058 37.9363 37.8343 50.9687C37.8339 50.9896 37.8339 51.0104 37.8343 51.0312C38.1058 64.0636 43.1019 76.5538 51.8931 86.1783C52.1773 86.4894 52.5793 86.6667 53.0007 86.6667C53.422 86.6667 53.824 86.4894 54.1082 86.1783C62.8994 76.5538 67.8955 64.0636 68.167 51.0312C68.1672 51.021 68.1673 51.0107 68.1673 51.0004C68.1673 50.9899 68.1672 50.9793 68.167 50.9687C67.8955 37.9363 62.8994 25.4462 54.1082 15.8217L53.0007 16.8333Z" fill="black"/>
<path fill-rule="evenodd" clip-rule="evenodd" d="M50.1 45C50.1 44.1716 50.7716 43.5 51.6 43.5H54.4C55.2284 43.5 55.9 44.1716 55.9 45V49.3049H60C60.8284 49.3049 61.5 49.9765 61.5 50.8049V53.5366C61.5 54.365 60.8284 55.0366 60 55.0366H55.9V59C55.9 59.8284 55.2284 60.5 54.4 60.5H51.6C50.7716 60.5 50.1 59.8284 50.1 59V55.0366H46C45.1716 55.0366 44.5 54.365 44.5 53.5366V50.8049C44.5 49.9765 45.1716 49.3049 46 49.3049H50.1V45ZM53 51.3445C52.8585 51.7114 52.577 52.0086 52.2209 52.1707C52.577 52.3329 52.8585 52.6301 53 52.9969C53.1415 52.6301 53.423 52.3329 53.7791 52.1707C53.423 52.0086 53.1415 51.7114 53 51.3445Z" fill="black"/>
</svg>
