<svg width="100" height="100" viewBox="0 0 100 100" fill="none" xmlns="http://www.w3.org/2000/svg">
<rect width="100" height="100" fill="white"/>
<path fill-rule="evenodd" clip-rule="evenodd" d="M24.7083 23.6667C21.6247 23.6667 19.125 26.1664 19.125 29.25V78.8333C19.125 81.9169 21.6247 84.4167 24.7083 84.4167H74.2917C77.3753 84.4167 79.875 81.9169 79.875 78.8333V29.25C79.875 26.1664 77.3753 23.6667 74.2917 23.6667H24.7083ZM16.125 29.25C16.125 24.5095 19.9679 20.6667 24.7083 20.6667H74.2917C79.0321 20.6667 82.875 24.5095 82.875 29.25V78.8333C82.875 83.5738 79.0321 87.4167 74.2917 87.4167H24.7083C19.9679 87.4167 16.125 83.5738 16.125 78.8333V29.25Z" fill="black"/>
<path fill-rule="evenodd" clip-rule="evenodd" d="M63.666 13.5833C64.4944 13.5833 65.166 14.2549 65.166 15.0833V29.25C65.166 30.0784 64.4944 30.75 63.666 30.75C62.8376 30.75 62.166 30.0784 62.166 29.25V15.0833C62.166 14.2549 62.8376 13.5833 63.666 13.5833Z" fill="black"/>
<path fill-rule="evenodd" clip-rule="evenodd" d="M35.334 13.5833C36.1624 13.5833 36.834 14.2549 36.834 15.0833V29.25C36.834 30.0784 36.1624 30.75 35.334 30.75C34.5056 30.75 33.834 30.0784 33.834 29.25V15.0833C33.834 14.2549 34.5056 13.5833 35.334 13.5833Z" fill="black"/>
<path fill-rule="evenodd" clip-rule="evenodd" d="M16.125 43.4167C16.125 42.5882 16.7966 41.9167 17.625 41.9167H81.375C82.2034 41.9167 82.875 42.5882 82.875 43.4167C82.875 44.2451 82.2034 44.9167 81.375 44.9167H17.625C16.7966 44.9167 16.125 44.2451 16.125 43.4167Z" fill="black"/>
<path fill-rule="evenodd" clip-rule="evenodd" d="M45.5 52C45.5 51.1716 46.1716 50.5 47 50.5H52C52.8284 50.5 53.5 51.1716 53.5 52V60.8659H62C62.8284 60.8659 63.5 61.5374 63.5 62.3659V67.2439C63.5 68.0723 62.8284 68.7439 62 68.7439H53.5V77C53.5 77.8284 52.8284 78.5 52 78.5H47C46.1716 78.5 45.5 77.8284 45.5 77V68.7439H37C36.1716 68.7439 35.5 68.0723 35.5 67.2439V62.3659C35.5 61.5374 36.1716 60.8659 37 60.8659H45.5V52ZM48.5 53.5V62.3659C48.5 63.1943 47.8284 63.8659 47 63.8659H38.5V65.7439H47C47.8284 65.7439 48.5 66.4155 48.5 67.2439V75.5H50.5V67.2439C50.5 66.4155 51.1716 65.7439 52 65.7439H60.5V63.8659H52C51.1716 63.8659 50.5 63.1943 50.5 62.3659V53.5H48.5Z" fill="black"/>
</svg>
