<svg width="100" height="100" viewBox="0 0 100 100" fill="none" xmlns="http://www.w3.org/2000/svg">
<rect width="100" height="100" fill="white"/>
<path fill-rule="evenodd" clip-rule="evenodd" d="M49.4727 17.4288C49.8122 17.3015 50.1865 17.3015 50.526 17.4288L77.8594 27.6788C78.4448 27.8984 78.8327 28.4581 78.8327 29.0833V53C78.8327 63.9197 71.5767 72.8421 64.6538 78.8997C61.1608 81.9561 57.6749 84.3519 55.0652 85.9829C53.7588 86.7994 52.668 87.4268 51.9003 87.8517C51.5164 88.0643 51.213 88.2263 51.0036 88.3363C50.8988 88.3913 50.8176 88.4332 50.7615 88.462L50.6963 88.4951L50.6783 88.5042L50.673 88.5069L50.6713 88.5078C50.6707 88.5081 50.6702 88.5083 49.9993 87.1667C49.3285 88.5083 49.328 88.5081 49.3274 88.5078L49.3257 88.5069L49.3204 88.5042L49.3024 88.4951L49.2372 88.462C49.1811 88.4332 49.0999 88.3913 48.9951 88.3363C48.7857 88.2263 48.4823 88.0643 48.0984 87.8517C47.3307 87.4268 46.2399 86.7994 44.9335 85.9829C42.3238 84.3519 38.8379 81.9561 35.3449 78.8997C28.422 72.8421 21.166 63.9197 21.166 53V29.0833C21.166 28.4581 21.5539 27.8984 22.1393 27.6788L49.4727 17.4288ZM49.9993 87.1667L49.3285 88.5083C49.7508 88.7195 50.2479 88.7195 50.6702 88.5083L49.9993 87.1667ZM49.9993 85.4721C50.1311 85.4009 50.2809 85.3192 50.4474 85.2271C51.1745 84.8245 52.2191 84.224 53.4752 83.4389C55.9905 81.8669 59.3379 79.5648 62.6783 76.642C69.422 70.7412 75.8327 62.5803 75.8327 53V30.1228L49.9993 20.4353L24.166 30.1228V53C24.166 62.5803 30.5767 70.7412 37.3204 76.642C40.6608 79.5648 44.0082 81.8669 46.5235 83.4389C47.7796 84.224 48.8242 84.8245 49.5513 85.2271C49.7178 85.3192 49.8676 85.4009 49.9993 85.4721Z" fill="black"/>
<path fill-rule="evenodd" clip-rule="evenodd" d="M45.5 39C45.5 38.1716 46.1716 37.5 47 37.5H52C52.8284 37.5 53.5 38.1716 53.5 39V47.8659H62C62.8284 47.8659 63.5 48.5374 63.5 49.3659V54.2439C63.5 55.0723 62.8284 55.7439 62 55.7439H53.5V64C53.5 64.8284 52.8284 65.5 52 65.5H47C46.1716 65.5 45.5 64.8284 45.5 64V55.7439H37C36.1716 55.7439 35.5 55.0723 35.5 54.2439V49.3659C35.5 48.5374 36.1716 47.8659 37 47.8659H45.5V39ZM48.5 40.5V49.3659C48.5 50.1943 47.8284 50.8659 47 50.8659H38.5V52.7439H47C47.8284 52.7439 48.5 53.4155 48.5 54.2439V62.5H50.5V54.2439C50.5 53.4155 51.1716 52.7439 52 52.7439H60.5V50.8659H52C51.1716 50.8659 50.5 50.1943 50.5 49.3659V40.5H48.5Z" fill="black"/>
</svg>
