<svg width="100" height="100" viewBox="0 0 100 100" fill="none" xmlns="http://www.w3.org/2000/svg">
<rect width="100" height="100" fill="white"/>
<path fill-rule="evenodd" clip-rule="evenodd" d="M24 25C24 20.5831 27.5732 17 31.9928 17H59C59.5523 17 60 17.4477 60 18C60 18.5523 59.5523 19 59 19H31.9928C28.6804 19 26 21.685 26 25V36.5769C26 43.353 31.6096 48.8025 38.3992 48.6784C43.7076 48.5813 50.0645 48.5 56.4627 48.5C57.015 48.5 57.4627 48.9477 57.4627 49.5C57.4627 50.0523 57.015 50.5 56.4627 50.5C50.0803 50.5 43.7363 50.5811 38.4358 50.678C30.5421 50.8224 24 44.4864 24 36.5769V25Z" fill="black"/>
<path fill-rule="evenodd" clip-rule="evenodd" d="M25.1571 36.5124C25.7025 36.5992 26.0743 37.1117 25.9876 37.6571C25.4191 41.2303 25.12 47.5392 25.856 53.9866C26.596 60.4694 28.3606 66.8843 31.7591 70.8492C32.1185 71.2686 32.07 71.8999 31.6507 72.2593C31.2313 72.6187 30.6 72.5701 30.2406 72.1508C26.4392 67.7158 24.6205 60.7973 23.8689 54.2134C23.1133 47.5942 23.4142 41.103 24.0124 37.3429C24.0992 36.7975 24.6117 36.4257 25.1571 36.5124Z" fill="black"/>
<path fill-rule="evenodd" clip-rule="evenodd" d="M68.2321 33.7659C71.396 36.4219 73.2737 40.6716 73.5032 43.5787L73.5063 43.6181L73.5126 43.6571C74.0504 47.0381 73.014 52.1917 70.3607 57.3554C67.7211 62.4923 63.5529 67.4953 58.008 70.6294C57.5272 70.9011 57.3577 71.5112 57.6294 71.992C57.9012 72.4728 58.5113 72.6422 58.9921 72.3705C64.9472 69.0045 69.3624 63.6742 72.1395 58.2695C74.8939 52.9092 76.1085 47.3319 75.4938 43.3818C75.2102 39.9586 73.0905 35.2331 69.518 32.2341C67.7051 30.7121 65.4864 29.6088 62.9173 29.3789C60.3429 29.1485 57.5069 29.8033 54.48 31.6457L54.4624 31.6564L54.4453 31.6679C52.1195 33.2184 50.8661 35.9456 52.0726 38.9365C53.2299 41.8057 56.5556 44.6513 62.6489 46.9363C63.166 47.1303 63.7424 46.8683 63.9363 46.3511C64.1302 45.834 63.8682 45.2576 63.3511 45.0637C57.4444 42.8486 54.7701 40.2776 53.9274 38.1884C53.1364 36.2275 53.8755 34.4599 55.538 33.3431C58.2538 31.6943 60.6617 31.1851 62.739 31.371C64.8261 31.5577 66.67 32.4545 68.2321 33.7659Z" fill="black"/>
<path fill-rule="evenodd" clip-rule="evenodd" d="M58.0035 17.9169C58.0494 17.3666 58.5327 16.9576 59.0831 17.0034C60.6321 17.1325 61.9057 17.3973 62.9075 17.9171C63.9535 18.4598 64.6541 19.2551 65.0785 20.3161C65.4842 21.3302 65.6241 22.5541 65.653 23.956C65.682 25.366 65.5982 27.0614 65.4988 29.0499C65.4712 29.6015 65.0017 30.0263 64.4501 29.9987C63.8985 29.9712 63.4737 29.5017 63.5013 28.9501C63.6019 26.9385 63.6806 25.3215 63.6534 23.9971C63.626 22.6647 63.491 21.7323 63.2216 21.0589C62.971 20.4324 62.5966 20.0089 61.9864 19.6923C61.3319 19.3527 60.368 19.1175 58.917 18.9965C58.3666 18.9507 57.9576 18.4673 58.0035 17.9169Z" fill="black"/>
<path fill-rule="evenodd" clip-rule="evenodd" d="M55 71H35C33.8954 71 33 71.8954 33 73V82C33 83.1046 33.8954 84 35 84H55C56.1046 84 57 83.1046 57 82V73C57 71.8954 56.1046 71 55 71ZM35 69C32.7909 69 31 70.7909 31 73V82C31 84.2091 32.7909 86 35 86H55C57.2091 86 59 84.2091 59 82V73C59 70.7909 57.2091 69 55 69H35Z" fill="black"/>
<path fill-rule="evenodd" clip-rule="evenodd" d="M57 75H42L42 79H57V75ZM42 73C40.8954 73 40 73.8954 40 75V79C40 80.1046 40.8954 81 42 81H57C58.1046 81 59 80.1046 59 79V75C59 73.8954 58.1046 73 57 73H42Z" fill="black"/>
<path fill-rule="evenodd" clip-rule="evenodd" d="M37.1122 56.5397C37.3664 56.0494 37.97 55.858 38.4603 56.1123L51.9603 63.1123C52.4506 63.3665 52.6419 63.97 52.3877 64.4603C52.1335 64.9506 51.5299 65.142 51.0396 64.8878L37.5396 57.8878C37.0494 57.6336 36.858 57.03 37.1122 56.5397Z" fill="black"/>
<path fill-rule="evenodd" clip-rule="evenodd" d="M37.2753 64.7602C37.0019 64.2804 37.1691 63.6697 37.649 63.3963L50.8606 55.8662C51.3405 55.5927 51.9511 55.76 52.2246 56.2398C52.4981 56.7196 52.3308 57.3303 51.851 57.6038L38.6393 65.1338C38.1595 65.4073 37.5488 65.24 37.2753 64.7602Z" fill="black"/>
</svg>
