<svg width="100" height="100" viewBox="0 0 100 100" fill="none" xmlns="http://www.w3.org/2000/svg">
<rect width="100" height="100" fill="white"/>
<path fill-rule="evenodd" clip-rule="evenodd" d="M12 22V78H88V22H12ZM11 20C10.4477 20 10 20.4477 10 21V79C10 79.5523 10.4477 80 11 80H89C89.5523 80 90 79.5523 90 79V21C90 20.4477 89.5523 20 89 20H11Z" fill="black"/>
<path fill-rule="evenodd" clip-rule="evenodd" d="M21.5 26V28.2C21.5 29.8569 20.1569 31.2 18.5 31.2H16V68.8H19C20.6569 68.8 22 70.1431 22 71.8V74H78V71.8C78 70.1431 79.3431 68.8 81 68.8H84V31.2H81C79.3431 31.2 78 29.8569 78 28.2V26H21.5ZM19.5 28.2C19.5 28.7523 19.0523 29.2 18.5 29.2H15C14.4477 29.2 14 29.6477 14 30.2V69.8C14 70.3523 14.4477 70.8 15 70.8H19C19.5523 70.8 20 71.2477 20 71.8V75C20 75.5523 20.4477 76 21 76H79C79.5523 76 80 75.5523 80 75V71.8C80 71.2477 80.4477 70.8 81 70.8H85C85.5523 70.8 86 70.3523 86 69.8V30.2C86 29.6477 85.5523 29.2 85 29.2H81C80.4477 29.2 80 28.7523 80 28.2V25C80 24.4477 79.5523 24 79 24H20.5C19.9477 24 19.5 24.4477 19.5 25V28.2Z" fill="black"/>
<path fill-rule="evenodd" clip-rule="evenodd" d="M20 42C20 41.4477 20.4477 41 21 41H79C79.5523 41 80 41.4477 80 42C80 42.5523 79.5523 43 79 43H21C20.4477 43 20 42.5523 20 42Z" fill="black"/>
<path fill-rule="evenodd" clip-rule="evenodd" d="M20 48C20 47.4477 20.4477 47 21 47H69C69.5523 47 70 47.4477 70 48C70 48.5523 69.5523 49 69 49H21C20.4477 49 20 48.5523 20 48Z" fill="black"/>
<path fill-rule="evenodd" clip-rule="evenodd" d="M20 54C20 53.4477 20.4477 53 21 53H59C59.5523 53 60 53.4477 60 54C60 54.5523 59.5523 55 59 55H21C20.4477 55 20 54.5523 20 54Z" fill="black"/>
<path fill-rule="evenodd" clip-rule="evenodd" d="M64 54C64 53.4477 64.4477 53 65 53L79 53C79.5523 53 80 53.4477 80 54C80 54.5523 79.5523 55 79 55L65 55C64.4477 55 64 54.5523 64 54Z" fill="black"/>
<path fill-rule="evenodd" clip-rule="evenodd" d="M73 48C73 47.4477 73.4477 47 74 47H79C79.5523 47 80 47.4477 80 48C80 48.5523 79.5523 49 79 49H74C73.4477 49 73 48.5523 73 48Z" fill="black"/>
<path fill-rule="evenodd" clip-rule="evenodd" d="M20 64C20 63.4477 20.4477 63 21 63H39C39.5523 63 40 63.4477 40 64C40 64.5523 39.5523 65 39 65H21C20.4477 65 20 64.5523 20 64Z" fill="black"/>
<path fill-rule="evenodd" clip-rule="evenodd" d="M60 64C60 63.4477 60.4477 63 61 63H79C79.5523 63 80 63.4477 80 64C80 64.5523 79.5523 65 79 65H61C60.4477 65 60 64.5523 60 64Z" fill="black"/>
<path fill-rule="evenodd" clip-rule="evenodd" d="M39 35C39 34.4477 39.4477 34 40 34H59C59.5523 34 60 34.4477 60 35C60 35.5523 59.5523 36 59 36H40C39.4477 36 39 35.5523 39 35Z" fill="black"/>
</svg>
