<svg width="100" height="100" viewBox="0 0 100 100" fill="none" xmlns="http://www.w3.org/2000/svg">
<rect width="100" height="100" fill="white"/>
<path fill-rule="evenodd" clip-rule="evenodd" d="M57 23H25C24.4477 23 24 23.4477 24 24C24 24.5523 24.4477 25 25 25H57C57.5523 25 58 24.5523 58 24C58 23.4477 57.5523 23 57 23ZM25 21C23.3431 21 22 22.3431 22 24C22 25.6569 23.3431 27 25 27H57C58.6569 27 60 25.6569 60 24C60 22.3431 58.6569 21 57 21H25Z" fill="black"/>
<path fill-rule="evenodd" clip-rule="evenodd" d="M55 86H29C28.4477 86 28 86.4477 28 87C28 87.5523 28.4477 88 29 88H55C55.5523 88 56 87.5523 56 87C56 86.4477 55.5523 86 55 86ZM29 84C27.3431 84 26 85.3431 26 87C26 88.6569 27.3431 90 29 90H55C56.6569 90 58 88.6569 58 87C58 85.3431 56.6569 84 55 84H29Z" fill="black"/>
<path fill-rule="evenodd" clip-rule="evenodd" d="M50 76H33C31.8954 76 31 76.8954 31 78V83H52V78C52 76.8954 51.1046 76 50 76ZM33 74C30.7909 74 29 75.7909 29 78V84C29 84.5523 29.4477 85 30 85H54V78C54 75.7909 52.2091 74 50 74H33Z" fill="black"/>
<path fill-rule="evenodd" clip-rule="evenodd" d="M45 69H38C36.8954 69 36 69.8954 36 71V73H47V71C47 69.8954 46.1046 69 45 69ZM38 67C35.7909 67 34 68.7909 34 71V74C34 74.5523 34.4477 75 35 75H49V71C49 68.7909 47.2091 67 45 67H38Z" fill="black"/>
<path fill-rule="evenodd" clip-rule="evenodd" d="M43 56H40V66H43V56ZM38 54V68H45V54H38Z" fill="black"/>
<path fill-rule="evenodd" clip-rule="evenodd" d="M55 28H28V40C28 47.1797 33.8203 53 41 53H43C49.6274 53 55 47.6274 55 41V28ZM26 26V40C26 48.2843 32.7157 55 41 55H43C50.732 55 57 48.732 57 41V26H26Z" fill="black"/>
<path fill-rule="evenodd" clip-rule="evenodd" d="M66.931 28H56V26H66.931C69.625 26 71.5487 28.6092 70.7521 31.1827L66.6778 44.3461C65.8153 47.1325 63.5842 49.2822 60.7676 50.0405L51.7599 52.4656L51.24 50.5344L60.2477 48.1092C62.4015 47.5294 64.1076 45.8855 64.7672 43.7547L68.8415 30.5914C69.2398 29.3046 68.278 28 66.931 28Z" fill="black"/>
<path fill-rule="evenodd" clip-rule="evenodd" d="M63.1544 33H56.6924V31H63.1544C65.2322 31 66.6809 33.0612 65.9771 35.0162L62.9058 43.5475C62.5122 44.6408 61.6627 45.5089 60.5782 45.926L60.2192 44.9926L60.5782 45.926L55.3591 47.9333L54.6411 46.0667L59.8602 44.0593C60.4025 43.8507 60.8273 43.4167 61.024 42.87L64.0953 34.3387C64.3299 33.6871 63.847 33 63.1544 33Z" fill="black"/>
<path fill-rule="evenodd" clip-rule="evenodd" d="M19.8456 33H26.3076V31H19.8456C17.7678 31 16.3191 33.0612 17.0229 35.0162L20.0942 43.5475C20.4878 44.6408 21.3373 45.5089 22.4218 45.926L22.7808 44.9926L22.4218 45.926L27.6409 47.9333L28.3589 46.0667L23.1398 44.0593C22.5975 43.8507 22.1727 43.4167 21.976 42.87L18.9047 34.3387C18.6701 33.6871 19.153 33 19.8456 33Z" fill="black"/>
<path fill-rule="evenodd" clip-rule="evenodd" d="M16.069 28H27V26H16.069C13.375 26 11.4513 28.6092 12.2478 31.1827L16.2693 44.1753C17.1642 47.0665 19.5289 49.2637 22.478 49.9443L31.2751 51.9744L31.7249 50.0256L22.9277 47.9955C20.6726 47.4751 18.8642 45.7948 18.1799 43.5839L14.1584 30.5914C13.7601 29.3046 14.722 28 16.069 28Z" fill="black"/>
<path fill-rule="evenodd" clip-rule="evenodd" d="M73 84C77.9706 84 82 79.9706 82 75C82 70.0294 77.9706 66 73 66C68.0294 66 64 70.0294 64 75C64 79.9706 68.0294 84 73 84ZM73 86C79.0751 86 84 81.0751 84 75C84 68.9249 79.0751 64 73 64C66.9249 64 62 68.9249 62 75C62 81.0751 66.9249 86 73 86Z" fill="black"/>
<path fill-rule="evenodd" clip-rule="evenodd" d="M73 88C80.1797 88 86 82.1797 86 75C86 67.8203 80.1797 62 73 62C65.8203 62 60 67.8203 60 75C60 82.1797 65.8203 88 73 88ZM73 90C81.2843 90 88 83.2843 88 75C88 66.7157 81.2843 60 73 60C64.7157 60 58 66.7157 58 75C58 83.2843 64.7157 90 73 90Z" fill="black"/>
<path fill-rule="evenodd" clip-rule="evenodd" d="M71.2986 72.2075C71.2269 72.3846 71.0607 72.5054 70.8701 72.5188L67.576 72.7502C67.1276 72.7817 66.9453 73.3428 67.2896 73.6319L69.8185 75.7553C69.9648 75.8782 70.0283 76.0737 69.9821 76.259L69.1843 79.4634C69.0757 79.8996 69.553 80.2464 69.9343 80.0083L72.7353 78.2593C72.8974 78.1582 73.1029 78.1582 73.2649 78.2593L76.0659 80.0083C76.4472 80.2464 76.9245 79.8996 76.8159 79.4634L76.0181 76.259C75.972 76.0737 76.0355 75.8782 76.1818 75.7553L78.7107 73.6319C79.0549 73.3428 78.8726 72.7817 78.4242 72.7502L75.1302 72.5188C74.9396 72.5054 74.7733 72.3846 74.7017 72.2075L73.4637 69.1462C73.2951 68.7294 72.7051 68.7294 72.5366 69.1462L71.2986 72.2075ZM73.0001 73.2701C72.6462 73.8833 72.0474 74.3183 71.3549 74.4654C71.8287 74.9915 72.0574 75.6954 71.9833 76.3995C72.63 76.1114 73.3702 76.1114 74.0169 76.3995C73.9428 75.6954 74.1715 74.9915 74.6454 74.4654C73.9528 74.3183 73.354 73.8833 73.0001 73.2701Z" fill="black"/>
<path fill-rule="evenodd" clip-rule="evenodd" d="M66 53C66 51.8954 66.8954 51 68 51H78C79.1046 51 80 51.8954 80 53V62H78L78 53L68 53V62H66V53Z" fill="black"/>
<path fill-rule="evenodd" clip-rule="evenodd" d="M11 17C12.1046 17 13 16.1046 13 15C13 13.8954 12.1046 13 11 13C9.89543 13 9 13.8954 9 15C9 16.1046 9.89543 17 11 17Z" fill="black"/>
<path fill-rule="evenodd" clip-rule="evenodd" d="M89 45C90.1046 45 91 44.1046 91 43C91 41.8954 90.1046 41 89 41C87.8954 41 87 41.8954 87 43C87 44.1046 87.8954 45 89 45Z" fill="black"/>
<path fill-rule="evenodd" clip-rule="evenodd" d="M16 70C17.1046 70 18 69.1046 18 68C18 66.8954 17.1046 66 16 66C14.8954 66 14 66.8954 14 68C14 69.1046 14.8954 70 16 70Z" fill="black"/>
<path fill-rule="evenodd" clip-rule="evenodd" d="M74 17C75.1046 17 76 16.1046 76 15C76 13.8954 75.1046 13 74 13C72.8954 13 72 13.8954 72 15C72 16.1046 72.8954 17 74 17Z" fill="black"/>
<path fill-rule="evenodd" clip-rule="evenodd" d="M41 6C41.5523 6 42 6.44772 42 7V11C42 11.5523 41.5523 12 41 12C40.4477 12 40 11.5523 40 11V7C40 6.44772 40.4477 6 41 6Z" fill="black"/>
<path fill-rule="evenodd" clip-rule="evenodd" d="M38 9C38 8.44772 38.4477 8 39 8H43C43.5523 8 44 8.44772 44 9C44 9.55228 43.5523 10 43 10H39C38.4477 10 38 9.55228 38 9Z" fill="black"/>
<path fill-rule="evenodd" clip-rule="evenodd" d="M5 43C5.55228 43 6 43.4477 6 44V48C6 48.5523 5.55228 49 5 49C4.44772 49 4 48.5523 4 48V44C4 43.4477 4.44772 43 5 43Z" fill="black"/>
<path fill-rule="evenodd" clip-rule="evenodd" d="M2 46C2 45.4477 2.44772 45 3 45H7C7.55228 45 8 45.4477 8 46C8 46.5523 7.55228 47 7 47H3C2.44772 47 2 46.5523 2 46Z" fill="black"/>
<path fill-rule="evenodd" clip-rule="evenodd" d="M11 85C11.5523 85 12 85.4477 12 86V90C12 90.5523 11.5523 91 11 91C10.4477 91 10 90.5523 10 90V86C10 85.4477 10.4477 85 11 85Z" fill="black"/>
<path fill-rule="evenodd" clip-rule="evenodd" d="M8 88C8 87.4477 8.44772 87 9 87H13C13.5523 87 14 87.4477 14 88C14 88.5523 13.5523 89 13 89H9C8.44772 89 8 88.5523 8 88Z" fill="black"/>
<path fill-rule="evenodd" clip-rule="evenodd" d="M94 70C94.5523 70 95 70.4477 95 71V75C95 75.5523 94.5523 76 94 76C93.4477 76 93 75.5523 93 75V71C93 70.4477 93.4477 70 94 70Z" fill="black"/>
<path fill-rule="evenodd" clip-rule="evenodd" d="M91 73C91 72.4477 91.4477 72 92 72H96C96.5523 72 97 72.4477 97 73C97 73.5523 96.5523 74 96 74H92C91.4477 74 91 73.5523 91 73Z" fill="black"/>
</svg>
