<svg width="100" height="100" viewBox="0 0 100 100" fill="none" xmlns="http://www.w3.org/2000/svg">
<rect width="100" height="100" fill="white"/>
<path fill-rule="evenodd" clip-rule="evenodd" d="M57.8716 25.2258C59.8134 24.4166 61.895 24 63.9973 24C66.0995 24 68.1811 24.4166 70.1229 25.2258C72.0648 26.035 73.8287 27.2209 75.3141 28.7154C76.7999 30.2092 77.9784 31.9825 78.7823 33.9337C79.5863 35.8852 80 37.9766 80 40.0885C80 42.2005 79.5863 44.2919 78.7823 46.2433C77.9783 48.1947 76.7998 49.9681 75.3137 51.4619L51.2084 75.7051C51.021 75.8935 50.7664 75.9996 50.5007 76C50.235 76.0004 49.98 75.895 49.7922 75.7071L29.7929 55.7071L29.7814 55.6954L25.6798 51.4569C22.6826 48.44 21 44.3509 21 40.0885C21 35.8238 22.6845 31.7326 25.6847 28.7153C28.685 25.6977 32.7556 24.0015 37.0013 24.0015C41.2469 24.0015 45.3175 25.6977 48.3179 28.7153C48.3765 28.7742 48.4276 28.8403 48.4698 28.9118L50.4993 32.3482L52.5287 28.9118C52.5709 28.8403 52.6219 28.7744 52.6805 28.7154C54.1658 27.2209 55.9297 26.035 57.8716 25.2258ZM63.9973 26C62.1593 26 60.3392 26.3642 58.6409 27.0719C56.9803 27.7639 55.4679 28.7711 54.1861 30.0385L51.3603 34.8232C51.1804 35.1278 50.853 35.3147 50.4993 35.3147C50.1455 35.3147 49.8181 35.1278 49.6382 34.8232L46.8125 30.0386C44.195 27.4517 40.6719 26.0015 37.0013 26.0015C33.2898 26.0015 29.7291 27.4842 27.1029 30.1255C24.4765 32.7669 23 36.3506 23 40.0885C23 43.8265 24.4765 47.4102 27.1029 50.0516L27.1125 50.0612L31.2129 54.2987L50.4973 73.5838L73.8956 50.0516C75.1964 48.744 76.2288 47.191 76.9331 45.4814C77.6374 43.7719 78 41.9393 78 40.0885C78 38.2377 77.6374 36.4052 76.9331 34.6956C76.2288 32.9861 75.1966 31.4332 73.8958 30.1256C72.5957 28.8174 71.0519 27.7796 69.3536 27.0719C67.6553 26.3642 65.8352 26 63.9973 26Z" fill="black"/>
<path fill-rule="evenodd" clip-rule="evenodd" d="M22.0011 48.9539L23.9734 48.771L27.792 65H36.6388L38.0111 55.8517L39.9848 55.8263L43.1231 73.6098L45.0031 49.9209L46.9701 49.7575L50.7808 65H69.1388L70.5111 55.8517L72.4907 55.8641L74.6341 71.4805L76.002 49.9367L77.9829 49.8157L80.8299 65H93.5C94.0523 65 94.5 65.4478 94.5 66C94.5 66.5523 94.0523 67 93.5 67H79.1701L77.4912 58.0459L75.998 81.5634L74.0093 81.636L71.4561 63.0341L70.8612 67H49.2192L46.513 56.1753L44.4969 81.5792L42.5152 81.6738L39.08 62.2078L38.3612 67H26.208L23.6684 56.207L22.4989 81.5461L20.5152 81.6738L16.7473 60.3224L14.744 67H6C5.44772 67 5 66.5523 5 66C5 65.4478 5.44772 65 6 65H13.256L16.0422 55.7127L17.9848 55.8263L20.917 72.4421L22.0011 48.9539Z" fill="black"/>
</svg>
