<svg width="100" height="100" viewBox="0 0 100 100" fill="none" xmlns="http://www.w3.org/2000/svg">
<rect width="100" height="100" fill="white"/>
<path fill-rule="evenodd" clip-rule="evenodd" d="M50 85C54.9706 85 59 80.9706 59 76C59 71.0294 54.9706 67 50 67C45.0294 67 41 71.0294 41 76C41 80.9706 45.0294 85 50 85ZM50 87C56.0751 87 61 82.0751 61 76C61 69.9249 56.0751 65 50 65C43.9249 65 39 69.9249 39 76C39 82.0751 43.9249 87 50 87Z" fill="black"/>
<path fill-rule="evenodd" clip-rule="evenodd" d="M50 89C57.1797 89 63 83.1797 63 76C63 68.8203 57.1797 63 50 63C42.8203 63 37 68.8203 37 76C37 83.1797 42.8203 89 50 89ZM50 91C58.2843 91 65 84.2843 65 76C65 67.7157 58.2843 61 50 61C41.7157 61 35 67.7157 35 76C35 84.2843 41.7157 91 50 91Z" fill="black"/>
<path fill-rule="evenodd" clip-rule="evenodd" d="M48.2986 73.2075C48.2269 73.3846 48.0607 73.5054 47.8701 73.5188L44.576 73.7502C44.1276 73.7817 43.9453 74.3428 44.2896 74.6319L46.8185 76.7553C46.9648 76.8782 47.0283 77.0737 46.9821 77.259L46.1843 80.4634C46.0757 80.8996 46.553 81.2464 46.9343 81.0083L49.7353 79.2593C49.8974 79.1582 50.1029 79.1582 50.2649 79.2593L53.0659 81.0083C53.4472 81.2464 53.9245 80.8996 53.8159 80.4634L53.0181 77.259C52.972 77.0737 53.0355 76.8782 53.1818 76.7553L55.7107 74.6319C56.0549 74.3428 55.8726 73.7817 55.4242 73.7502L52.1302 73.5188C51.9396 73.5054 51.7733 73.3846 51.7017 73.2075L50.4637 70.1462C50.2951 69.7294 49.7051 69.7294 49.5366 70.1462L48.2986 73.2075ZM50.0001 74.2701C49.6462 74.8833 49.0474 75.3183 48.3549 75.4654C48.8287 75.9915 49.0574 76.6954 48.9833 77.3995C49.63 77.1114 50.3702 77.1114 51.0169 77.3995C50.9428 76.6954 51.1715 75.9915 51.6454 75.4654C50.9528 75.3183 50.354 74.8833 50.0001 74.2701Z" fill="black"/>
<path fill-rule="evenodd" clip-rule="evenodd" d="M43 59C43 57.8954 43.8954 57 45 57H55C56.1046 57 57 57.8954 57 59V63H55L55 59H45V63H43V59Z" fill="black"/>
<path fill-rule="evenodd" clip-rule="evenodd" d="M37.1411 25L46.0144 56.5H52.3227L43.0058 25H37.1411ZM35.1602 23C34.8288 23 34.5891 23.3166 34.6789 23.6356L44.3972 58.1356C44.458 58.3511 44.6546 58.5 44.8785 58.5H54.3306C54.6647 58.5 54.9048 58.1786 54.8101 57.8582L44.6058 23.3582C44.543 23.1458 44.3479 23 44.1264 23H35.1602Z" fill="black"/>
<path d="M58.3751 23.3166C58.4504 23.1255 58.6349 23 58.8402 23H66.7938C67.1386 23 67.3799 23.3408 67.2654 23.6661L55.1175 58.1661C55.0471 58.3661 54.858 58.5 54.6459 58.5H50H45.2346C44.8819 58.5 44.6401 58.1447 44.7695 57.8166L58.3751 23.3166Z" fill="white"/>
<path fill-rule="evenodd" clip-rule="evenodd" d="M59.8611 25L47.4386 56.5H53.5838L64.6754 25H59.8611ZM54.6459 58.5C54.858 58.5 55.0471 58.3661 55.1175 58.1661L67.2654 23.6661C67.3799 23.3408 67.1386 23 66.7938 23H58.8402C58.6349 23 58.4504 23.1255 58.3751 23.3166L44.7695 57.8166C44.6401 58.1447 44.8819 58.5 45.2346 58.5H54.6459Z" fill="black"/>
</svg>
