<svg width="100" height="100" viewBox="0 0 100 100" fill="none" xmlns="http://www.w3.org/2000/svg">
<rect width="100" height="100" fill="white"/>
<path fill-rule="evenodd" clip-rule="evenodd" d="M41.1097 77.5881C43.6584 78.4486 47.2942 79 51.5 79C55.7058 79 59.3416 78.4486 61.8903 77.5881C63.1695 77.1562 64.1197 76.6647 64.7301 76.1696C65.3465 75.6696 65.5 75.2686 65.5 75H67.5C67.5 76.1121 66.8486 77.0264 65.99 77.7229C65.1255 78.4241 63.9308 79.0101 62.53 79.483C59.7188 80.4321 55.8546 81 51.5 81C47.1454 81 43.2812 80.4321 40.47 79.483C39.0692 79.0101 37.8745 78.4241 37.01 77.7229C36.1514 77.0264 35.5 76.1121 35.5 75H37.5C37.5 75.2686 37.6535 75.6696 38.2699 76.1696C38.8803 76.6647 39.8305 77.1562 41.1097 77.5881Z" fill="black"/>
<path fill-rule="evenodd" clip-rule="evenodd" d="M11.1097 77.5881C13.6584 78.4486 17.2942 79 21.5 79C25.7058 79 29.3416 78.4486 31.8903 77.5881C33.1695 77.1562 34.1197 76.6647 34.7301 76.1696C35.3465 75.6696 35.5 75.2686 35.5 75H37.5C37.5 76.1121 36.8486 77.0264 35.99 77.7229C35.1255 78.4241 33.9308 79.0101 32.53 79.483C29.7188 80.4321 25.8546 81 21.5 81C17.1454 81 13.2812 80.4321 10.47 79.483C9.06923 79.0101 7.87451 78.4241 7.00998 77.7229C6.15144 77.0264 5.5 76.1121 5.5 75H7.5C7.5 75.2686 7.65351 75.6696 8.2699 76.1696C8.88031 76.6647 9.83052 77.1562 11.1097 77.5881Z" fill="black"/>
<path fill-rule="evenodd" clip-rule="evenodd" d="M35.0138 55.9011C35.014 55.9011 35.0131 55.9042 35.0103 55.9102C35.0121 55.9041 35.0135 55.9011 35.0138 55.9011ZM34.9517 56C34.8921 55.9236 34.7787 55.8039 34.5691 55.6441C34.035 55.2367 33.1361 54.784 31.8461 54.3679C29.2886 53.5429 25.6304 53 21.5 53C17.3696 53 13.7114 53.5429 11.1539 54.3679C9.86388 54.784 8.965 55.2367 8.43092 55.6441C8.2213 55.8039 8.10794 55.9236 8.04825 56C8.10794 56.0764 8.2213 56.1961 8.43092 56.3559C8.965 56.7633 9.86388 57.216 11.1539 57.6321C13.7114 58.4571 17.3696 59 21.5 59C25.6304 59 29.2886 58.4571 31.8461 57.6321C33.1361 57.216 34.035 56.7633 34.5691 56.3559C34.7787 56.1961 34.8921 56.0764 34.9517 56ZM7.98625 55.9011C7.98649 55.9011 7.98786 55.9041 7.98966 55.9102C7.98691 55.9042 7.98601 55.9011 7.98625 55.9011ZM7.98625 56.0989C7.98601 56.0989 7.98691 56.0958 7.98966 56.0898C7.98786 56.0959 7.98649 56.0989 7.98625 56.0989ZM35.0103 56.0898C35.0131 56.0958 35.014 56.0989 35.0138 56.0989C35.0135 56.0989 35.0121 56.0959 35.0103 56.0898ZM21.5 61C30.0604 61 37 58.7614 37 56C37 53.2386 30.0604 51 21.5 51C12.9396 51 6 53.2386 6 56C6 58.7614 12.9396 61 21.5 61Z" fill="black"/>
<path fill-rule="evenodd" clip-rule="evenodd" d="M95.0138 59.9011C95.014 59.9011 95.0131 59.9042 95.0103 59.9102C95.0121 59.9041 95.0135 59.9011 95.0138 59.9011ZM94.9517 60C94.8921 59.9236 94.7787 59.8039 94.5691 59.6441C94.035 59.2367 93.1361 58.784 91.8461 58.3679C89.2886 57.5429 85.6304 57 81.5 57C77.3696 57 73.7114 57.5429 71.1539 58.3679C69.8639 58.784 68.965 59.2367 68.4309 59.6441C68.2213 59.8039 68.1079 59.9236 68.0483 60C68.1079 60.0764 68.2213 60.1961 68.4309 60.3559C68.965 60.7633 69.8639 61.216 71.1539 61.6321C73.7114 62.4571 77.3696 63 81.5 63C85.6304 63 89.2886 62.4571 91.8461 61.6321C93.1361 61.216 94.035 60.7633 94.5691 60.3559C94.7787 60.1961 94.8921 60.0764 94.9517 60ZM67.9862 59.9011C67.9865 59.9011 67.9879 59.9041 67.9897 59.9102C67.9869 59.9042 67.986 59.9011 67.9862 59.9011ZM67.9862 60.0989C67.986 60.0989 67.9869 60.0958 67.9897 60.0898C67.9879 60.0959 67.9865 60.0989 67.9862 60.0989ZM95.0103 60.0898C95.0131 60.0958 95.014 60.0989 95.0138 60.0989C95.0135 60.0989 95.0121 60.0959 95.0103 60.0898ZM81.5 65C90.0604 65 97 62.7614 97 60C97 57.2386 90.0604 55 81.5 55C72.9396 55 66 57.2386 66 60C66 62.7614 72.9396 65 81.5 65Z" fill="black"/>
<path fill-rule="evenodd" clip-rule="evenodd" d="M91.2358 59.3272C91.2374 59.3273 91.2283 59.3376 91.2036 59.3576C91.2218 59.3369 91.2342 59.327 91.2358 59.3272ZM89.7751 60C89.5786 59.9378 89.3627 59.8754 89.1269 59.8139C87.2535 59.3252 84.5561 59 81.5 59C78.4439 59 75.7465 59.3252 73.8731 59.8139C73.6373 59.8754 73.4214 59.9378 73.2249 60C73.4214 60.0622 73.6373 60.1246 73.8731 60.1861C75.7465 60.6748 78.4439 61 81.5 61C84.5561 61 87.2535 60.6748 89.1269 60.1861C89.3627 60.1246 89.5786 60.0622 89.7751 60ZM71.7642 59.3272C71.7658 59.327 71.7782 59.3369 71.7965 59.3576C71.7718 59.3376 71.7626 59.3273 71.7642 59.3272ZM71.7642 60.6728C71.7626 60.6727 71.7718 60.6624 71.7965 60.6424C71.7782 60.6631 71.7658 60.673 71.7642 60.6728ZM91.2036 60.6424C91.2282 60.6624 91.2374 60.6727 91.2358 60.6728C91.2342 60.673 91.2218 60.6631 91.2036 60.6424ZM81.5 63C87.8513 63 93 61.6569 93 60C93 58.3431 87.8513 57 81.5 57C75.1487 57 70 58.3431 70 60C70 61.6569 75.1487 63 81.5 63Z" fill="#F2F2F2"/>
<path fill-rule="evenodd" clip-rule="evenodd" d="M31.2358 55.3272C31.2374 55.3273 31.2283 55.3376 31.2036 55.3576C31.2218 55.3369 31.2342 55.327 31.2358 55.3272ZM29.7751 56C29.5786 55.9378 29.3627 55.8754 29.1269 55.8139C27.2535 55.3252 24.5561 55 21.5 55C18.4439 55 15.7465 55.3252 13.8731 55.8139C13.6373 55.8754 13.4214 55.9378 13.2249 56C13.4214 56.0622 13.6373 56.1246 13.8731 56.1861C15.7465 56.6748 18.4439 57 21.5 57C24.5561 57 27.2535 56.6748 29.1269 56.1861C29.3627 56.1246 29.5786 56.0622 29.7751 56ZM11.7642 55.3272C11.7658 55.327 11.7782 55.3369 11.7965 55.3576C11.7718 55.3376 11.7626 55.3273 11.7642 55.3272ZM11.7642 56.6728C11.7626 56.6727 11.7718 56.6624 11.7965 56.6424C11.7782 56.6631 11.7658 56.673 11.7642 56.6728ZM31.2036 56.6424C31.2282 56.6624 31.2374 56.6727 31.2358 56.6728C31.2342 56.673 31.2218 56.6631 31.2036 56.6424ZM21.5 59C27.8513 59 33 57.6569 33 56C33 54.3431 27.8513 53 21.5 53C15.1487 53 10 54.3431 10 56C10 57.6569 15.1487 59 21.5 59Z" fill="#F2F2F2"/>
<path fill-rule="evenodd" clip-rule="evenodd" d="M61.2358 44.3272C61.2374 44.3273 61.2283 44.3376 61.2036 44.3576C61.2218 44.3369 61.2342 44.327 61.2358 44.3272ZM59.7751 45C59.5786 44.9378 59.3627 44.8754 59.1269 44.8139C57.2535 44.3252 54.5561 44 51.5 44C48.4439 44 45.7465 44.3252 43.8731 44.8139C43.6373 44.8754 43.4214 44.9378 43.2249 45C43.4214 45.0622 43.6373 45.1246 43.8731 45.1861C45.7465 45.6748 48.4439 46 51.5 46C54.5561 46 57.2535 45.6748 59.1269 45.1861C59.3627 45.1246 59.5786 45.0622 59.7751 45ZM41.7642 44.3272C41.7658 44.327 41.7782 44.3369 41.7965 44.3576C41.7718 44.3376 41.7626 44.3273 41.7642 44.3272ZM41.7642 45.6728C41.7626 45.6727 41.7718 45.6624 41.7965 45.6424C41.7782 45.6631 41.7658 45.673 41.7642 45.6728ZM61.2036 45.6424C61.2282 45.6624 61.2374 45.6727 61.2358 45.6728C61.2342 45.673 61.2218 45.6631 61.2036 45.6424ZM51.5 48C57.8513 48 63 46.6569 63 45C63 43.3431 57.8513 42 51.5 42C45.1487 42 40 43.3431 40 45C40 46.6569 45.1487 48 51.5 48Z" fill="#F2F2F2"/>
<path fill-rule="evenodd" clip-rule="evenodd" d="M71.1097 77.5881C73.6584 78.4486 77.2942 79 81.5 79C85.7058 79 89.3416 78.4486 91.8903 77.5881C93.1695 77.1562 94.1197 76.6647 94.7301 76.1696C95.3465 75.6696 95.5 75.2686 95.5 75H97.5C97.5 76.1121 96.8486 77.0264 95.99 77.7229C95.1255 78.4241 93.9308 79.0101 92.53 79.483C89.7188 80.4321 85.8546 81 81.5 81C77.1454 81 73.2812 80.4321 70.47 79.483C69.0692 79.0101 67.8745 78.4241 67.01 77.7229C66.1514 77.0264 65.5 76.1121 65.5 75H67.5C67.5 75.2686 67.6535 75.6696 68.2699 76.1696C68.8803 76.6647 69.8305 77.1562 71.1097 77.5881Z" fill="black"/>
<path fill-rule="evenodd" clip-rule="evenodd" d="M65.0138 44.9011C65.014 44.9011 65.0131 44.9042 65.0103 44.9102C65.0121 44.9041 65.0135 44.9011 65.0138 44.9011ZM64.9517 45C64.8921 44.9236 64.7787 44.8039 64.5691 44.6441C64.035 44.2367 63.1361 43.784 61.8461 43.3679C59.2886 42.5429 55.6304 42 51.5 42C47.3696 42 43.7114 42.5429 41.1539 43.3679C39.8639 43.784 38.965 44.2367 38.4309 44.6441C38.2213 44.8039 38.1079 44.9236 38.0483 45C38.1079 45.0764 38.2213 45.1961 38.4309 45.3559C38.965 45.7633 39.8639 46.216 41.1539 46.6321C43.7114 47.4571 47.3696 48 51.5 48C55.6304 48 59.2886 47.4571 61.8461 46.6321C63.1361 46.216 64.035 45.7633 64.5691 45.3559C64.7787 45.1961 64.8921 45.0764 64.9517 45ZM37.9862 44.9011C37.9865 44.9011 37.9879 44.9041 37.9897 44.9102C37.9869 44.9042 37.986 44.9011 37.9862 44.9011ZM37.9862 45.0989C37.986 45.0989 37.9869 45.0958 37.9897 45.0898C37.9879 45.0959 37.9865 45.0989 37.9862 45.0989ZM65.0103 45.0898C65.0131 45.0958 65.014 45.0989 65.0138 45.0989C65.0135 45.0989 65.0121 45.0959 65.0103 45.0898ZM51.5 50C60.0604 50 67 47.7614 67 45C67 42.2386 60.0604 40 51.5 40C42.9396 40 36 42.2386 36 45C36 47.7614 42.9396 50 51.5 50Z" fill="black"/>
<path fill-rule="evenodd" clip-rule="evenodd" d="M40.9492 52.0647C43.4863 52.6908 47.1422 53 51.5 53C55.8578 53 59.5137 52.6908 62.0508 52.0647C63.326 51.7499 64.2419 51.373 64.8168 50.9707C65.3775 50.5782 65.5 50.2518 65.5 50H67.5C67.5 51.1289 66.8443 51.9929 65.9636 52.6093C65.0969 53.2158 63.908 53.6663 62.53 54.0064C59.7607 54.6899 55.9166 55 51.5 55C47.0834 55 43.2393 54.6899 40.47 54.0064C39.092 53.6663 37.9031 53.2158 37.0364 52.6093C36.1557 51.9929 35.5 51.1289 35.5 50H37.5C37.5 50.2518 37.6225 50.5782 38.1832 50.9707C38.7581 51.373 39.674 51.7499 40.9492 52.0647Z" fill="black"/>
<path fill-rule="evenodd" clip-rule="evenodd" d="M35.5 75V45H37.5V75H35.5Z" fill="black"/>
<path fill-rule="evenodd" clip-rule="evenodd" d="M65.5 75V45H67.5V75H65.5Z" fill="black"/>
<path fill-rule="evenodd" clip-rule="evenodd" d="M5.5 75V56H7.5V75H5.5Z" fill="black"/>
<path fill-rule="evenodd" clip-rule="evenodd" d="M95.5 75V60H97.5V75H95.5Z" fill="black"/>
<path d="M53.7422 61V71.1924H50.9258V64.5137C50.4701 64.86 50.028 65.1403 49.5996 65.3545C49.1758 65.5687 48.6426 65.7738 48 65.9697V63.6865C48.9479 63.3812 49.6839 63.0143 50.208 62.5859C50.7321 62.1576 51.1423 61.6289 51.4385 61H53.7422Z" fill="black"/>
<path d="M25.1602 74.7363H18C18.082 74.0293 18.3301 73.3652 18.7441 72.7441C19.1621 72.1191 19.9434 71.3828 21.0879 70.5352C21.7871 70.0156 22.2344 69.6211 22.4297 69.3516C22.625 69.082 22.7227 68.8262 22.7227 68.584C22.7227 68.3223 22.625 68.0996 22.4297 67.916C22.2383 67.7285 21.9961 67.6348 21.7031 67.6348C21.3984 67.6348 21.1484 67.7305 20.9531 67.9219C20.7617 68.1133 20.6328 68.4512 20.5664 68.9355L18.1758 68.7422C18.2695 68.0703 18.4414 67.5469 18.6914 67.1719C18.9414 66.793 19.293 66.5039 19.7461 66.3047C20.2031 66.1016 20.834 66 21.6387 66C22.4785 66 23.1309 66.0957 23.5957 66.2871C24.0645 66.4785 24.4316 66.7734 24.6973 67.1719C24.9668 67.5664 25.1016 68.0098 25.1016 68.502C25.1016 69.0254 24.9473 69.5254 24.6387 70.002C24.334 70.4785 23.7773 71.002 22.9688 71.5723C22.4883 71.9043 22.166 72.1367 22.002 72.2695C21.8418 72.4023 21.6523 72.5762 21.4336 72.791H25.1602V74.7363Z" fill="black"/>
<path d="M79.8066 69.8945L77.5508 69.4902C77.7383 68.7715 78.0977 68.2207 78.6289 67.8379C79.1641 67.4551 79.9199 67.2637 80.8965 67.2637C82.0176 67.2637 82.8281 67.4727 83.3281 67.8906C83.8281 68.3086 84.0781 68.834 84.0781 69.4668C84.0781 69.8379 83.9766 70.1738 83.7734 70.4746C83.5703 70.7754 83.2637 71.0391 82.8535 71.2656C83.1855 71.3477 83.4395 71.4434 83.6152 71.5527C83.9004 71.7285 84.1211 71.9609 84.2773 72.25C84.4375 72.5352 84.5176 72.877 84.5176 73.2754C84.5176 73.7754 84.3867 74.2559 84.125 74.7168C83.8633 75.1738 83.4863 75.5273 82.9941 75.7773C82.502 76.0234 81.8555 76.1465 81.0547 76.1465C80.2734 76.1465 79.6562 76.0547 79.2031 75.8711C78.7539 75.6875 78.3828 75.4199 78.0898 75.0684C77.8008 74.7129 77.5781 74.2676 77.4219 73.7324L79.8066 73.416C79.9004 73.8965 80.0449 74.2305 80.2402 74.418C80.4395 74.6016 80.6914 74.6934 80.9961 74.6934C81.3164 74.6934 81.582 74.5762 81.793 74.3418C82.0078 74.1074 82.1152 73.7949 82.1152 73.4043C82.1152 73.0059 82.0117 72.6973 81.8047 72.4785C81.6016 72.2598 81.3242 72.1504 80.9727 72.1504C80.7852 72.1504 80.5273 72.1973 80.1992 72.291L80.3223 70.5859C80.4551 70.6055 80.5586 70.6152 80.6328 70.6152C80.9453 70.6152 81.2051 70.5156 81.4121 70.3164C81.623 70.1172 81.7285 69.8809 81.7285 69.6074C81.7285 69.3457 81.6504 69.1367 81.4941 68.9805C81.3379 68.8242 81.123 68.7461 80.8496 68.7461C80.5684 68.7461 80.3398 68.832 80.1641 69.0039C79.9883 69.1719 79.8691 69.4688 79.8066 69.8945Z" fill="black"/>
</svg>
