<svg width="100" height="100" viewBox="0 0 100 100" fill="none" xmlns="http://www.w3.org/2000/svg">
<rect width="100" height="100" fill="white"/>
<path fill-rule="evenodd" clip-rule="evenodd" d="M31.1452 19.1807L40.4583 24.1111C41.0917 24.4303 41.938 25.0686 42.5237 26.0087C43.135 26.99 43.4547 28.2978 42.9486 29.8162C42.1414 32.2377 41.2677 34.523 40.9284 35.3713L40.4767 36.5005L27.8011 28.2867L19.3428 41.538L17.657 40.4619L26.6544 26.3659L31.1452 19.1807ZM28.8693 26.5957L39.5121 33.4923C39.9259 32.4022 40.5045 30.824 41.0512 29.1837C41.3451 28.3021 41.1648 27.6099 40.8261 27.0662C40.4652 26.4868 39.9181 26.0771 39.5527 25.8944L39.5423 25.8892L31.8546 21.8192L28.8693 26.5957Z" fill="black"/>
<path fill-rule="evenodd" clip-rule="evenodd" d="M16.1312 38.6047L62.7804 66.9999H90V69.4595C90.2127 72.1579 89.2133 74.1702 87.8681 75.5584C86.5436 76.9251 84.8941 77.6822 83.7425 77.9701L83.6231 77.9999H61.2391L10.1418 49.3855L16.1312 38.6047ZM16.8688 41.3951L12.8582 48.6144L61.7609 75.9999H83.3707C84.2186 75.7652 85.451 75.1787 86.4319 74.1665C87.4296 73.137 88.1768 71.6632 88.0035 69.583L88 69.5415V68.9999H62.2196L16.8688 41.3951Z" fill="black"/>
<path fill-rule="evenodd" clip-rule="evenodd" d="M55.3188 31.0094C54.8403 31.0806 54.3272 31.2386 53.8845 31.4231L53.866 31.4308L40.3472 36.4377L39.6526 34.5622L53.1344 29.569C53.688 29.3399 54.3547 29.1308 55.0247 29.0312C55.6804 28.9337 56.4609 28.9224 57.1475 29.2199C57.9176 29.5536 58.4489 30.226 58.5701 31.1856C58.6662 31.9457 58.5031 32.85 58.1125 33.9038L70.0946 53.5545L79.5211 54.4972C80.9996 54.4194 83.035 54.696 84.8707 55.7486C86.7799 56.8434 88.4263 58.7552 88.9838 61.8211L89.1081 62.5048C89.9716 67.2532 89.9999 67.4086 89.9999 68H87.9999C87.9999 67.9888 87.9999 67.978 88 67.9675C88.0008 67.622 88.0009 67.5956 87.016 62.1789C86.5692 59.7211 85.2989 58.2996 83.8759 57.4836C82.4141 56.6455 80.7443 56.4242 79.5623 56.4981L79.4812 56.5031L68.9052 55.4455L55.8809 34.0856L56.0768 33.6154C56.551 32.4774 56.6318 31.7994 56.5859 31.4363C56.5509 31.1594 56.4572 31.1005 56.3523 31.055C56.1639 30.9734 55.8194 30.935 55.3188 31.0094Z" fill="black"/>
<path fill-rule="evenodd" clip-rule="evenodd" d="M56.5651 33.0995C56.5652 33.0994 56.5654 33.0993 57 34C57.4346 34.9006 57.4347 34.9005 57.4348 34.9005L57.4338 34.901L57.4274 34.9041L57.3987 34.9182C57.3726 34.9311 57.3329 34.9508 57.2812 34.977C57.1777 35.0294 57.0262 35.1076 56.8385 35.2082C56.4625 35.4099 55.9452 35.7001 55.381 36.0532C54.2219 36.7785 52.9814 37.6985 52.2977 38.603C51.2878 39.939 51.3474 41.497 52.2668 43.3191C53.1999 45.1683 54.9428 47.0998 56.931 48.8843C58.904 50.6553 61.0484 52.2201 62.7071 53.3457C63.5346 53.9074 64.2373 54.3571 64.7319 54.6656C64.8813 54.7588 65.0117 54.8391 65.1206 54.9056L69.1838 53.5513L69.8162 55.4486L64.8864 57.0919L64.4953 56.8632L65 56C64.4953 56.8632 64.4956 56.8634 64.4953 56.8632L64.4937 56.8623L64.4905 56.8604L64.4789 56.8536L64.4359 56.8282C64.3986 56.8061 64.3442 56.7736 64.2739 56.7313C64.1335 56.6466 63.9298 56.5225 63.6733 56.3625C63.1605 56.0426 62.4359 55.5788 61.5839 55.0006C59.8834 53.8465 57.6593 52.2256 55.5951 50.3727C53.5459 48.5334 51.5827 46.403 50.4812 44.2201C49.3661 42.0101 49.0629 39.5657 50.7022 37.397C51.6201 36.1828 53.1295 35.1028 54.3201 34.3578C54.9307 33.9756 55.4881 33.6631 55.8931 33.4458C56.096 33.337 56.2615 33.2516 56.3775 33.1929C56.4355 33.1635 56.4811 33.1407 56.5129 33.125L56.5501 33.1068L56.5605 33.1017L56.5651 33.0995Z" fill="black"/>
<path fill-rule="evenodd" clip-rule="evenodd" d="M31.8554 39.2479C29.7603 36.2504 26.4715 34.0236 24.0771 32.9062L24.9229 31.0939C27.5286 32.3098 31.1398 34.733 33.4947 38.1022C35.8869 41.5247 36.9937 45.9658 34.3866 50.9626L32.6134 50.0375C34.8064 45.8343 33.9132 42.1921 31.8554 39.2479Z" fill="black"/>
<path fill-rule="evenodd" clip-rule="evenodd" d="M45.8001 45.4001C46.1314 45.8419 46.0419 46.4687 45.6001 46.8001L37.6001 52.8001C37.1582 53.1314 36.5314 53.0419 36.2001 52.6001C35.8687 52.1582 35.9582 51.5314 36.4001 51.2001L44.4001 45.2001C44.8419 44.8687 45.4687 44.9582 45.8001 45.4001Z" fill="black"/>
<path fill-rule="evenodd" clip-rule="evenodd" d="M51.7864 50.3822C52.1276 50.8165 52.0521 51.4451 51.6179 51.7864L44.6179 57.2864C44.1836 57.6276 43.5549 57.5521 43.2137 57.1179C42.8725 56.6836 42.9479 56.0549 43.3822 55.7137L50.3822 50.2137C50.8165 49.8725 51.4451 49.9479 51.7864 50.3822Z" fill="black"/>
<path fill-rule="evenodd" clip-rule="evenodd" d="M57.7433 56.331C58.1128 56.7416 58.0795 57.3738 57.669 57.7433L52.669 62.2433C52.2585 62.6128 51.6262 62.5795 51.2567 62.169C50.8873 61.7585 50.9205 61.1262 51.331 60.7567L56.331 56.2567C56.7416 55.8873 57.3738 55.9205 57.7433 56.331Z" fill="black"/>
<path fill-rule="evenodd" clip-rule="evenodd" d="M10 60C10 59.4477 10.4477 59 11 59H20C20.5523 59 21 59.4477 21 60C21 60.5523 20.5523 61 20 61H11C10.4477 61 10 60.5523 10 60Z" fill="black"/>
<path fill-rule="evenodd" clip-rule="evenodd" d="M10 68C10 67.4477 10.4477 67 11 67H29C29.5523 67 30 67.4477 30 68C30 68.5523 29.5523 69 29 69H11C10.4477 69 10 68.5523 10 68Z" fill="black"/>
<path fill-rule="evenodd" clip-rule="evenodd" d="M10 76C10 75.4477 10.4477 75 11 75H40C40.5523 75 41 75.4477 41 76C41 76.5523 40.5523 77 40 77H11C10.4477 77 10 76.5523 10 76Z" fill="black"/>
</svg>
