<svg width="100" height="100" viewBox="0 0 100 100" fill="none" xmlns="http://www.w3.org/2000/svg">
<rect width="100" height="100" fill="white"/>
<path fill-rule="evenodd" clip-rule="evenodd" d="M50 83C68.2254 83 83 68.2254 83 50C83 31.7746 68.2254 17 50 17C31.7746 17 17 31.7746 17 50C17 68.2254 31.7746 83 50 83ZM50 85C69.33 85 85 69.33 85 50C85 30.67 69.33 15 50 15C30.67 15 15 30.67 15 50C15 69.33 30.67 85 50 85Z" fill="black"/>
<path fill-rule="evenodd" clip-rule="evenodd" d="M79.8782 17.1933L80.93 16.0329L80.9827 16.4739C81.1203 17.6266 82.0954 18.4961 83.2564 18.5012L83.5102 18.5023L82.5234 19.591L79.8782 17.1933ZM82.8636 22.1937C82.7523 22.3165 82.5626 22.3258 82.4398 22.2145L77.2755 17.5334C77.1527 17.4222 77.1434 17.2325 77.2547 17.1097L81.9536 11.9257C82.1264 11.7351 82.4433 11.8362 82.4737 12.0916L82.9686 16.2368C82.9865 16.3871 83.1137 16.5006 83.2651 16.5012L87.3317 16.519C87.5914 16.5202 87.7271 16.8282 87.5527 17.0205L82.8636 22.1937Z" fill="black"/>
<path fill-rule="evenodd" clip-rule="evenodd" d="M50 73C62.7025 73 73 62.7025 73 50C73 37.2975 62.7025 27 50 27C37.2975 27 27 37.2975 27 50C27 62.7025 37.2975 73 50 73ZM50 75C63.8071 75 75 63.8071 75 50C75 36.1929 63.8071 25 50 25C36.1929 25 25 36.1929 25 50C25 63.8071 36.1929 75 50 75Z" fill="black"/>
<path fill-rule="evenodd" clip-rule="evenodd" d="M50 63C57.1797 63 63 57.1797 63 50C63 42.8203 57.1797 37 50 37C42.8203 37 37 42.8203 37 50C37 57.1797 42.8203 63 50 63ZM50 65C58.2843 65 65 58.2843 65 50C65 41.7157 58.2843 35 50 35C41.7157 35 35 41.7157 35 50C35 58.2843 41.7157 65 50 65Z" fill="black"/>
<path fill-rule="evenodd" clip-rule="evenodd" d="M50 53C51.6569 53 53 51.6569 53 50C53 48.3431 51.6569 47 50 47C48.3431 47 47 48.3431 47 50C47 51.6569 48.3431 53 50 53ZM50 55C52.7614 55 55 52.7614 55 50C55 47.2386 52.7614 45 50 45C47.2386 45 45 47.2386 45 50C45 52.7614 47.2386 55 50 55Z" fill="black"/>
<path fill-rule="evenodd" clip-rule="evenodd" d="M80.713 20.7012L50.713 51.2012L49.2871 49.7988L79.2871 19.2988L80.713 20.7012Z" fill="black"/>
</svg>
