<svg width="100" height="100" viewBox="0 0 100 100" fill="none" xmlns="http://www.w3.org/2000/svg">
<rect width="100" height="100" fill="white"/>
<path d="M34.6875 15H65.3125C67.7189 15 69.6875 16.9689 69.6875 19.375V80.625C69.6875 83.0311 67.7189 85 65.3125 85H34.6875C32.2811 85 30.3125 83.0311 30.3125 80.625V19.375C30.3125 16.9689 32.2811 15 34.6875 15ZM32.5001 80.625C32.5001 81.8311 33.4811 82.8126 34.6876 82.8126H65.3125C66.5189 82.8126 67.4999 81.8313 67.4999 80.625V72.9687H32.4999V80.625H32.5001ZM32.5001 70.7813H67.5001V22.6563H32.5001V70.7813ZM32.5001 20.4687H67.5001V19.375C67.5001 18.1689 66.5191 17.1874 65.3126 17.1874H34.6876C33.4812 17.1874 32.5001 18.1687 32.5001 19.375V20.4687Z" fill="black"/>
<path d="M49.9999 81.5138C47.9898 81.5138 46.3533 79.8773 46.3533 77.8672C46.3533 75.857 47.9896 74.2206 49.9999 74.2206C52.0101 74.2206 53.6465 75.8569 53.6465 77.8672C53.6465 79.8773 52.0101 81.5138 49.9999 81.5138ZM49.9999 76.4082C49.1946 76.4082 48.5409 77.0619 48.5409 77.8672C48.5409 78.6726 49.1946 79.3262 49.9999 79.3262C50.8053 79.3262 51.4589 78.6725 51.4589 77.8672C51.4589 77.0618 50.8052 76.4082 49.9999 76.4082Z" fill="black"/>
<path fill-rule="evenodd" clip-rule="evenodd" d="M42.18 41C41.5283 41 41 41.5283 41 42.18V57.82C41 58.4717 41.5283 59 42.18 59H57.82C58.4717 59 59 58.4717 59 57.82V42.18C59 41.5283 58.4717 41 57.82 41H42.18ZM39 42.18C39 40.4237 40.4237 39 42.18 39H57.82C59.5763 39 61 40.4237 61 42.18V57.82C61 59.5763 59.5763 61 57.82 61H42.18C40.4237 61 39 59.5763 39 57.82V42.18Z" fill="black"/>
<path fill-rule="evenodd" clip-rule="evenodd" d="M45 39C45.5523 39 46 39.4477 46 40V60C46 60.5523 45.5523 61 45 61C44.4477 61 44 60.5523 44 60V40C44 39.4477 44.4477 39 45 39Z" fill="black"/>
<path fill-rule="evenodd" clip-rule="evenodd" d="M55 39C55.5523 39 56 39.4477 56 40V60C56 60.5523 55.5523 61 55 61C54.4477 61 54 60.5523 54 60V40C54 39.4477 54.4477 39 55 39Z" fill="black"/>
<path fill-rule="evenodd" clip-rule="evenodd" d="M39 50C39 49.4477 39.4477 49 40 49H60C60.5523 49 61 49.4477 61 50C61 50.5523 60.5523 51 60 51H40C39.4477 51 39 50.5523 39 50Z" fill="black"/>
<path fill-rule="evenodd" clip-rule="evenodd" d="M39 45C39 44.4477 39.4477 44 40 44H45C45.5523 44 46 44.4477 46 45C46 45.5523 45.5523 46 45 46H40C39.4477 46 39 45.5523 39 45Z" fill="black"/>
<path fill-rule="evenodd" clip-rule="evenodd" d="M39 55C39 54.4477 39.4477 54 40 54H45C45.5523 54 46 54.4477 46 55C46 55.5523 45.5523 56 45 56H40C39.4477 56 39 55.5523 39 55Z" fill="black"/>
<path fill-rule="evenodd" clip-rule="evenodd" d="M54 55C54 54.4477 54.4477 54 55 54H60C60.5523 54 61 54.4477 61 55C61 55.5523 60.5523 56 60 56H55C54.4477 56 54 55.5523 54 55Z" fill="black"/>
<path fill-rule="evenodd" clip-rule="evenodd" d="M54 45C54 44.4477 54.4477 44 55 44H60C60.5523 44 61 44.4477 61 45C61 45.5523 60.5523 46 60 46H55C54.4477 46 54 45.5523 54 45Z" fill="black"/>
</svg>
