<svg width="48" height="47" viewBox="0 0 48 47" fill="none" xmlns="http://www.w3.org/2000/svg">
<path d="M18.6991 15.2279C18.9455 15.4727 19.3892 15.4727 19.6356 15.2279L21.3608 13.5146C20.7693 12.8782 20.4243 12.095 20.4243 11.165C20.4243 9.25586 22.0016 7.68943 23.9239 7.68943C24.7619 7.68943 25.5505 7.98314 26.142 8.5216C26.9306 7.00411 26.7335 5.09502 25.4519 3.87124C24.6633 3.08802 23.6775 2.69641 22.6424 2.69641C21.6072 2.69641 20.6214 3.08802 19.8328 3.87124L19.192 4.5076L18.5019 3.82229C17.7133 3.03907 16.7275 2.64746 15.6924 2.64746C14.6573 2.64746 13.5729 3.03907 12.7842 3.87124C11.3055 5.43768 11.3548 7.93418 12.9321 9.45167L18.6991 15.2279Z" fill="#00A981"/>
<path d="M23.0367 18.458C23.0367 19.486 23.8747 20.3671 24.9591 20.3671C25.4027 20.3671 29.2967 20.3182 31.4162 18.0664C31.8105 17.6748 32.1062 17.1853 32.3527 16.5979L32.5006 22.9126L32.4513 23.3042L40.3871 24.4301L40.1406 22.9126L40.2885 16.7937C40.3378 16.8916 40.3378 16.9895 40.3871 17.0874C40.7814 18.0175 41.4222 20.9056 41.7179 22.472C41.9151 23.4021 42.7038 23.9895 43.591 23.9895C43.7389 23.9895 43.8374 23.9895 43.9853 23.9406C45.0204 23.7448 45.7105 22.7657 45.464 21.7378C45.3655 21.2972 44.5275 17.1853 43.8867 15.6189C43.8374 15.472 43.7389 15.2273 43.6403 14.9825C42.9995 13.2203 41.7672 9.8916 38.6126 9.8916H33.9793C31.3176 9.8916 30.036 12.535 29.1981 14.2972C29.0009 14.6888 28.7052 15.3252 28.6066 15.472C27.8179 16.3042 25.797 16.5979 24.9591 16.5979C23.8747 16.549 23.0367 17.3811 23.0367 18.458Z" fill="#00A981"/>
<path d="M36.2959 8.91275C38.5281 8.91275 40.3377 7.11563 40.3377 4.89876C40.3377 2.68189 38.5281 0.884766 36.2959 0.884766C34.0636 0.884766 32.254 2.68189 32.254 4.89876C32.254 7.11563 34.0636 8.91275 36.2959 8.91275Z" fill="#00A981"/>
<path d="M27.4729 24.6263C26.7828 24.5284 26.142 24.3815 25.5012 24.1368L18.7977 21.5424C17.7626 21.1508 16.5796 21.2976 15.6924 22.0319C13.9672 23.4025 14.1151 26.0948 16.0374 27.2207L20.0793 29.6193C20.9172 30.1088 21.903 30.4025 22.8888 30.4025H44.1824C45.119 30.4025 45.9076 29.6683 45.9076 28.6892C45.9076 27.8571 45.2668 27.1228 44.4289 27.0249L27.4729 24.6263Z" fill="#00A981"/>
<path d="M10.6154 23.8422C12.8204 23.8422 14.6079 22.067 14.6079 19.8772C14.6079 17.6873 12.8204 15.9121 10.6154 15.9121C8.41033 15.9121 6.6228 17.6873 6.6228 19.8772C6.6228 22.067 8.41033 23.8422 10.6154 23.8422Z" fill="#00A981"/>
<path d="M45.9076 32.3596H22.5931C21.2622 32.3596 19.9807 32.017 18.847 31.3806L4.79913 23.3037V20.8072C4.79913 19.6323 3.81332 18.6533 2.63034 18.6533C1.44736 18.6533 0.461548 19.6323 0.461548 20.8072V43.9611C0.461548 45.1359 1.44736 46.1149 2.63034 46.1149C3.81332 46.1149 4.79913 45.1359 4.79913 43.9611V38.7722H42.9995V43.9611C42.9995 45.1359 43.9853 46.1149 45.1683 46.1149C46.3512 46.1149 47.3371 45.1359 47.3371 43.9611V33.7792C47.3371 32.996 46.6963 32.3596 45.9076 32.3596Z" fill="#00A981"/>
<path d="M24.4167 9.01074H23.4309C23.3323 9.01074 23.2338 9.10864 23.2338 9.20655V10.4303H22.0015C21.9029 10.4303 21.8043 10.5282 21.8043 10.6261V11.6052C21.8043 11.7031 21.9029 11.801 22.0015 11.801H23.2338V13.0247C23.2338 13.1226 23.3323 13.2205 23.4309 13.2205H24.4167C24.5153 13.2205 24.6139 13.1226 24.6139 13.0247V11.801H25.8462C25.9447 11.801 26.0433 11.7031 26.0433 11.6052V10.6261C26.0433 10.5282 25.9447 10.4303 25.8462 10.4303H24.6139V9.20655C24.6139 9.10864 24.5153 9.01074 24.4167 9.01074Z" fill="#00A981"/>
</svg>
