<svg width="27" height="49" viewBox="0 0 27 49" fill="none" xmlns="http://www.w3.org/2000/svg">
<path d="M26.893 25.5972C26.7501 25.026 25.8219 20.1703 25.0364 18.3138C24.965 18.0996 24.8936 17.8853 24.7508 17.5997C23.9653 15.5289 22.5372 11.6016 18.824 11.6016L19.2525 14.7434C19.6809 14.8863 20.0379 15.2433 20.0379 15.7431C20.0379 16.3144 19.5381 16.8142 18.9668 16.8142C18.3956 16.8142 17.8957 16.3144 17.8957 15.7431C17.8957 15.2433 18.1814 14.8863 18.6098 14.7434L18.1814 11.6016H14.5396L14.1826 14.4578C14.8967 14.4578 15.4679 15.0291 15.4679 15.7431V16.6714C15.4679 16.8142 15.3251 16.9571 15.1823 16.9571H14.5396C14.3968 16.9571 14.254 16.8142 14.254 16.6714C14.254 16.5286 14.3968 16.3858 14.5396 16.3858H14.8967V15.7431C14.8967 15.3861 14.611 15.0291 14.1826 15.0291H13.5399C13.1829 15.0291 12.8259 15.3147 12.8259 15.7431V16.3858H13.1829C13.3257 16.3858 13.4685 16.5286 13.4685 16.6714C13.4685 16.8142 13.3257 16.9571 13.1829 16.9571H12.5403C12.3974 16.9571 12.2546 16.8142 12.2546 16.6714V15.7431C12.2546 15.0291 12.8259 14.4578 13.5399 14.4578H13.6113L13.9684 11.6016H13.4685C10.3266 11.6016 8.82711 14.7434 7.82741 16.8142C7.6132 17.3141 7.25616 18.0281 7.11335 18.171C6.18506 19.1707 3.82865 19.4563 2.82896 19.4563C1.61505 19.4563 0.615356 20.456 0.615356 21.6699C0.615356 22.8838 1.61505 23.8835 2.82896 23.8835C3.32881 23.8835 7.89883 23.8121 10.3981 21.17C10.8265 20.6702 11.1835 20.0989 11.5406 19.3849L11.6834 26.8826L9.54117 45.5911C9.39836 46.8764 10.3266 48.0903 11.612 48.2331C12.8973 48.3759 14.1112 47.4476 14.254 46.1623L16.2534 29.1676L18.2528 46.1623C18.3956 47.3762 19.3953 48.2331 20.6092 48.2331C20.6806 48.2331 20.8234 48.2331 20.8948 48.2331C22.1801 48.0903 23.1084 46.8764 22.9656 45.5911L20.8234 26.8826L20.9662 19.5991C21.0376 19.7419 21.0376 19.8133 21.109 19.8847C21.5375 20.9558 22.3229 24.3833 22.68 26.3113C22.8942 27.3824 23.8225 28.0965 24.8936 28.0965C25.0364 28.0965 25.1792 28.0965 25.322 28.0251C26.3931 28.0251 27.1786 26.8112 26.893 25.5972Z" fill="#00A981"/>
<path d="M18.9668 16.3141C19.2428 16.3141 19.4666 16.0904 19.4666 15.8143C19.4666 15.5382 19.2428 15.3145 18.9668 15.3145C18.6907 15.3145 18.4669 15.5382 18.4669 15.8143C18.4669 16.0904 18.6907 16.3141 18.9668 16.3141Z" fill="#00A981"/>
<path d="M16.1819 10.3876C18.7848 10.3876 20.8948 8.27757 20.8948 5.67475C20.8948 3.07192 18.7848 0.961914 16.1819 0.961914C13.5791 0.961914 11.4691 3.07192 11.4691 5.67475C11.4691 8.27757 13.5791 10.3876 16.1819 10.3876Z" fill="#00A981"/>
</svg>
