<svg width="37" height="37" viewBox="0 0 37 37" fill="none" xmlns="http://www.w3.org/2000/svg">
<path d="M18.0813 18.8598C22.4355 18.8598 25.9653 15.1527 25.9653 10.5798C25.9653 6.00689 22.4355 2.2998 18.0813 2.2998C13.7271 2.2998 10.1973 6.00689 10.1973 10.5798C10.1973 15.1527 13.7271 18.8598 18.0813 18.8598Z" fill="#00A981"/>
<path d="M33.9221 29.1913C32.9861 21.7393 23.3381 19.3633 22.1861 19.1113C19.8101 20.9833 16.4981 20.9833 14.1221 19.1113C12.9701 19.3633 3.32212 21.7753 2.38612 29.1913C2.31412 29.9473 2.63812 30.6673 3.25012 31.0993C5.01412 32.3233 9.51412 34.6993 18.1541 34.6993V34.6633V34.6993C26.8301 34.6993 31.2941 32.3593 33.0581 31.0993C33.6701 30.6673 33.9941 29.9473 33.9221 29.1913ZM26.6501 28.6513C25.4981 30.0913 23.6261 31.4233 23.6261 31.4233C23.6261 31.4233 21.7541 30.0193 20.6021 28.6513C19.4501 27.2833 20.1341 25.1593 21.6101 25.1593C22.8701 25.1593 23.4821 25.9153 23.6261 26.1313C23.7701 25.9513 24.3821 25.1593 25.6421 25.1593C27.0821 25.1233 27.7661 27.2473 26.6501 28.6513Z" fill="#00A981"/>
</svg>
