<svg width="37" height="46" viewBox="0 0 37 46" fill="none" xmlns="http://www.w3.org/2000/svg">
<path d="M33.5544 35.8782V6.03834C33.5544 3.17525 31.2639 0.884766 28.4008 0.884766C25.5377 0.884766 23.3108 3.17525 23.3108 6.03834V6.16559H22.611C21.9111 6.16559 21.4021 6.73821 21.4021 7.37446V13.4824C21.4021 14.1823 21.9747 14.6913 22.611 14.6913H23.5653C23.3108 15.6456 23.0563 17.3635 24.0107 18.8905C24.7106 19.9721 24.2016 21.8172 23.7562 22.8352H20.3841C20.3841 22.8352 18.4754 20.9901 17.521 20.163C16.1849 18.9541 14.976 18.5724 13.5127 19.0177C12.431 19.3358 11.5403 20.0993 11.0949 21.0537C10.5859 22.0717 10.5859 23.2169 11.0313 24.2349L14.8488 33.3968C15.2305 34.3512 16.1849 34.9238 17.2029 34.9238H25.9831C26.3012 34.9238 26.6829 35.0511 26.8738 35.3692L32.2182 41.9861C32.7272 42.6224 33.4271 42.9405 34.1906 42.9405C34.6996 42.9405 35.2722 42.7496 35.7176 42.4315C36.8628 41.5408 36.9265 39.8229 36.0357 38.7413L33.5544 35.8782ZM22.7382 10.8102V10.1103C22.7382 10.0467 22.8018 9.98306 22.8655 9.98306H23.7562V9.09232C23.7562 9.02869 23.8198 8.96507 23.8834 8.96507H24.5833C24.6469 8.96507 24.7106 9.02869 24.7106 9.09232V9.98306H25.6013C25.6649 9.98306 25.7286 10.0467 25.7286 10.1103V10.8102C25.7286 10.8738 25.6649 10.9374 25.6013 10.9374H24.7106V11.8282C24.7106 11.8918 24.6469 11.9554 24.5833 11.9554H23.9471C23.8834 11.9554 23.8198 11.8918 23.8198 11.8282V10.9374H22.9291C22.8018 10.9374 22.7382 10.8738 22.7382 10.8102ZM27.7009 30.0248H21.9747L20.6386 26.9072H26.0467C27.0647 26.9072 27.9554 26.2073 28.1463 25.2529C28.3372 23.9804 27.3828 22.8988 26.1739 22.8988H25.0923C25.5377 21.69 25.983 19.7176 25.0923 18.2542C24.2652 16.9181 24.7106 15.2639 24.8378 14.6913H26.0467C26.7465 14.6913 27.2555 14.1186 27.2555 13.4824V7.37446C27.2555 6.67459 26.6829 6.16559 26.0467 6.16559H25.3468V6.03834C25.3468 4.32049 26.7465 2.92075 28.4644 2.92075C30.1823 2.92075 31.582 4.32049 31.582 6.03834V33.3332L29.6733 30.9791C29.1643 30.4065 28.4644 30.0248 27.7009 30.0248Z" fill="#00A981"/>
<path d="M25.4105 38.2962C25.0923 37.9144 24.647 37.7235 24.2016 37.7235H16.8212C14.9124 37.7235 13.2582 36.5783 12.4947 34.8604L6.64126 20.7358C5.94139 19.1452 4.15991 18.2545 2.50567 18.7635C1.5513 19.018 0.787812 19.7178 0.342441 20.6086C-0.10293 21.4993 -0.10293 22.5173 0.278816 23.408L8.80449 43.8315C9.31349 45.104 10.5224 45.9311 11.9221 45.9311H28.2736C28.9098 45.9311 29.4188 45.5493 29.6733 45.0403C29.9278 44.4677 29.8642 43.8315 29.4824 43.3861L25.4105 38.2962Z" fill="#00A981"/>
<path d="M15.1896 16.2454C16.3155 14.2179 15.5848 11.6616 13.5573 10.5357C11.5299 9.40973 8.97363 10.1405 7.84768 12.1679C6.72173 14.1953 7.4525 16.7516 9.47991 17.8776C11.5073 19.0035 14.0636 18.2728 15.1896 16.2454Z" fill="#00A981"/>
</svg>
