<svg width="100" height="100" viewBox="0 0 100 100" fill="none" xmlns="http://www.w3.org/2000/svg">
<rect width="100" height="100" fill="white"/>
<path fill-rule="evenodd" clip-rule="evenodd" d="M22.9637 64.322C23.3652 65.0698 23.4312 65.9525 23.1453 66.7516L16.9929 83.9495L33.886 77.6871C34.7032 77.3841 35.6116 77.4515 36.3751 77.8717C41.1558 80.5023 46.6485 82 52.5 82C71.0015 82 86 67.0015 86 48.5C86 29.9985 71.0015 15 52.5 15C33.9985 15 19 29.9985 19 48.5C19 54.2286 20.4354 59.613 22.9637 64.322ZM12 89L20.3206 65.7411C17.5638 60.6065 16 54.7359 16 48.5C16 28.3416 32.3416 12 52.5 12C72.6584 12 89 28.3416 89 48.5C89 68.6584 72.6584 85 52.5 85C46.1301 85 40.1413 83.3683 34.9288 80.5L12 89Z" fill="black"/>
</svg>
