<svg width="100" height="100" viewBox="0 0 100 100" fill="none" xmlns="http://www.w3.org/2000/svg">
<rect width="100" height="100" fill="white"/>
<path fill-rule="evenodd" clip-rule="evenodd" d="M32.4062 19.3426C32.6384 18.7821 33.1853 18.4167 33.792 18.4167H75.2087C76.0371 18.4167 76.7087 19.0882 76.7087 19.9167V40.625C76.7087 41.4534 76.0371 42.125 75.2087 42.125H58.1217L76.2694 60.2727C76.6984 60.7017 76.8267 61.3468 76.5945 61.9074C76.3624 62.4679 75.8154 62.8333 75.2087 62.8333H56.0004V82.0417C56.0004 82.6484 55.6349 83.1953 55.0744 83.4275C54.5139 83.6597 53.8687 83.5313 53.4397 83.1023L32.7316 62.3942C32.7315 62.3942 32.7317 62.3943 32.7316 62.3942C32.4752 62.1379 32.311 61.7888 32.2936 61.4019C32.2923 61.3752 32.2918 61.3484 32.292 61.3215V40.625C32.292 39.7966 32.9636 39.125 33.792 39.125H50.879L32.7314 20.9773C32.3024 20.5483 32.174 19.9032 32.4062 19.3426ZM55.1217 39.125H73.7087V21.4167H37.4134L55.1217 39.125ZM53.8791 42.125H35.292V59.8333H71.5874L53.8791 42.125ZM53.0004 62.8333H37.4134L53.0004 78.4203V62.8333Z" fill="black"/>
</svg>
