<svg width="100" height="100" viewBox="0 0 100 100" fill="none" xmlns="http://www.w3.org/2000/svg">
<rect width="100" height="100" fill="white"/>
<path fill-rule="evenodd" clip-rule="evenodd" d="M13.4196 14.1535C14.7733 12.5609 16.8196 11.5 19.5 11.5H81.5C84.46 11.5 86.5295 12.7121 87.8181 14.4034C89.0575 16.03 89.5 17.9948 89.5 19.5V63C89.5 65.218 88.951 67.6468 87.693 69.5709C86.4017 71.5457 84.3386 73 81.5 73H44.0824L27.0122 88.607C26.5734 89.0082 25.9391 89.1124 25.3951 88.8726C24.8511 88.6329 24.5 88.0945 24.5 87.5V73H19.5C16.0955 73 14.0095 71.1822 12.8618 69.0143C11.7646 66.9418 11.5 64.5417 11.5 63V19.5C11.5 17.6904 12.0982 15.7081 13.4196 14.1535ZM15.7054 16.0965C14.9018 17.0419 14.5 18.3096 14.5 19.5V63C14.5 64.2916 14.7354 66.1416 15.5132 67.6107C16.2405 68.9845 17.4045 70 19.5 70H26C26.8284 70 27.5 70.6716 27.5 71.5V84.0961L42.4878 70.393C42.7643 70.1402 43.1254 70 43.5 70H81.5C83.1614 70 84.3483 69.2043 85.182 67.9291C86.049 66.6032 86.5 64.782 86.5 63V19.5C86.5 18.5052 86.1925 17.22 85.4319 16.2216C84.7205 15.2879 83.54 14.5 81.5 14.5H19.5C17.6804 14.5 16.4767 15.1891 15.7054 16.0965Z" fill="black"/>
<path fill-rule="evenodd" clip-rule="evenodd" d="M49.5071 25.8419C49.116 27.2388 49.0001 28.8462 49.0001 29.5C49.0001 30.1713 48.7534 31.0152 48.4397 31.7993C48.105 32.6361 47.6194 33.5878 46.9982 34.5196C45.9625 36.0731 44.4243 37.7552 42.414 38.6036C42.4733 38.9053 42.5001 39.2067 42.5001 39.5V53.0729L42.5935 53.1196C48.0329 55.0926 53.296 56.5 57.5001 56.5H57.5935L57.6862 56.5116C59.3932 56.725 60.8757 56.4035 61.9718 55.9338C62.5211 55.6984 62.9564 55.4328 63.262 55.1964C63.5182 54.9982 63.6258 54.8656 63.6538 54.831C63.6629 54.8198 63.6637 54.8188 63.6585 54.8292C64.0976 53.9511 66.5001 48.1867 66.5001 42C66.5001 41.0722 66.201 40.4163 65.7396 39.9066C65.2504 39.3662 64.5134 38.9224 63.5665 38.5906C61.6533 37.92 59.2645 37.8388 57.6424 37.9932L57.5714 38H57.5001C56.8318 38 56.1908 37.967 55.6171 37.8824C55.0637 37.8007 54.4687 37.6568 53.9592 37.3737C53.4254 37.0772 52.8437 36.537 52.7124 35.67C52.608 34.9811 52.8356 34.3628 53.1209 33.8771C53.943 31.0523 53.5954 28.4885 52.8089 26.6534C52.4052 25.7114 51.9027 25.0003 51.4269 24.5475C50.9251 24.0698 50.5898 24 50.5001 24C50.4786 24 50.4643 24.0018 50.431 24.022C50.3856 24.0496 50.298 24.1188 50.183 24.2744C49.9407 24.6022 49.7045 25.137 49.5071 25.8419ZM42.3098 56.205C42.1991 56.6111 42.0243 57.0429 41.7482 57.4571C40.8843 58.7529 39.3245 59.5 37.0001 59.5C34.6758 59.5 33.116 58.7529 32.2521 57.4571C31.4966 56.3238 31.4991 55.0577 31.5001 54.5497C31.5001 54.5322 31.5001 54.5156 31.5001 54.5V39.5C31.5001 38.4126 31.8707 37.2234 32.8717 36.3226C33.8579 35.4349 35.264 35 37.0001 35C38.5268 35 39.798 35.3385 40.7467 36.0155C42.1733 35.614 43.4874 34.3774 44.5021 32.8554C45.0059 32.0997 45.3953 31.3327 45.6543 30.6851C45.7837 30.3617 45.8751 30.0817 45.9323 29.8595C45.9607 29.7488 45.9788 29.6602 45.9892 29.5935C45.9986 29.5339 45.9999 29.5043 46.0001 29.5C46.0001 29.4993 46.0001 29.4993 46.0001 29.5C46.0001 28.6538 46.1343 26.7612 46.6182 25.0331C46.8583 24.1755 47.2158 23.2416 47.7704 22.4912C48.3402 21.7203 49.2386 21 50.5001 21C51.6605 21 52.7002 21.6177 53.4952 22.3744C54.3163 23.1559 55.0326 24.2261 55.5664 25.4716C56.6337 27.9621 57.0393 31.3104 55.9472 34.8974C55.9813 34.9032 56.0172 34.9089 56.055 34.9145C56.4196 34.9683 56.8807 34.9976 57.4322 34.9999C59.3106 34.8298 62.1292 34.9079 64.5588 35.7594C65.7994 36.1942 67.0311 36.863 67.9638 37.8934C68.9243 38.9545 69.5001 40.3278 69.5001 42C69.5001 48.8133 66.9027 55.0489 66.3418 56.1708C66.0706 56.7133 65.5867 57.1909 65.0976 57.5692C64.5751 57.9735 63.9167 58.3641 63.1535 58.6912C61.6456 59.3375 59.6624 59.7633 57.4083 59.4998C52.8889 59.4808 47.5463 58.0611 42.3098 56.205ZM34.8786 38.5524C34.6296 38.7766 34.5001 39.0874 34.5001 39.5V54.5C34.5001 55.0296 34.5297 55.4652 34.7482 55.7929C34.8843 55.9971 35.3245 56.5 37.0001 56.5C38.6758 56.5 39.116 55.9971 39.2521 55.7929C39.4706 55.4652 39.5001 55.0296 39.5001 54.5V39.5C39.5001 39.1393 39.3994 38.8609 39.2236 38.6564C39.0052 38.4024 38.4351 38 37.0001 38C35.7363 38 35.1424 38.3151 34.8786 38.5524Z" fill="black"/>
</svg>
