<svg width="100" height="100" viewBox="0 0 100 100" fill="none" xmlns="http://www.w3.org/2000/svg">
<rect width="100" height="100" fill="white"/>
<path fill-rule="evenodd" clip-rule="evenodd" d="M73 31C76.866 31 80 27.866 80 24C80 20.134 76.866 17 73 17C69.134 17 66 20.134 66 24C66 27.866 69.134 31 73 31ZM73 34C78.5228 34 83 29.5228 83 24C83 18.4772 78.5228 14 73 14C67.4772 14 63 18.4772 63 24C63 29.5228 67.4772 34 73 34Z" fill="black"/>
<path fill-rule="evenodd" clip-rule="evenodd" d="M73 83C76.866 83 80 79.866 80 76C80 72.134 76.866 69 73 69C69.134 69 66 72.134 66 76C66 79.866 69.134 83 73 83ZM73 86C78.5228 86 83 81.5228 83 76C83 70.4772 78.5228 66 73 66C67.4772 66 63 70.4772 63 76C63 81.5228 67.4772 86 73 86Z" fill="black"/>
<path fill-rule="evenodd" clip-rule="evenodd" d="M27 57C30.866 57 34 53.866 34 50C34 46.134 30.866 43 27 43C23.134 43 20 46.134 20 50C20 53.866 23.134 57 27 57ZM27 60C32.5228 60 37 55.5228 37 50C37 44.4772 32.5228 40 27 40C21.4772 40 17 44.4772 17 50C17 55.5228 21.4772 60 27 60Z" fill="black"/>
<path fill-rule="evenodd" clip-rule="evenodd" d="M65.7489 29.7996L36.2489 46.7996L34.751 44.2004L64.251 27.2004L65.7489 29.7996Z" fill="black"/>
<path fill-rule="evenodd" clip-rule="evenodd" d="M65.7489 70.7004L36.2489 53.7004L34.751 56.2997L64.251 73.2997L65.7489 70.7004Z" fill="black"/>
</svg>
