<svg width="100" height="100" viewBox="0 0 100 100" fill="none" xmlns="http://www.w3.org/2000/svg">
<rect width="100" height="100" fill="white"/>
<path fill-rule="evenodd" clip-rule="evenodd" d="M57.708 20.6667C55.9773 20.6667 54.583 22.0609 54.583 23.7917V39.2083C54.583 40.9391 55.9773 42.3333 57.708 42.3333C59.4387 42.3333 60.833 40.9391 60.833 39.2083V23.7917C60.833 22.0609 59.4387 20.6667 57.708 20.6667ZM51.583 23.7917C51.583 20.4041 54.3204 17.6667 57.708 17.6667C61.0956 17.6667 63.833 20.4041 63.833 23.7917V39.2083C63.833 42.5959 61.0956 45.3333 57.708 45.3333C54.3204 45.3333 51.583 42.5959 51.583 39.2083V23.7917Z" fill="black"/>
<path fill-rule="evenodd" clip-rule="evenodd" d="M76.208 36.0833C74.4773 36.0833 73.083 37.4776 73.083 39.2083V42.3333H76.208C77.9387 42.3333 79.333 40.9391 79.333 39.2083C79.333 37.4776 77.9387 36.0833 76.208 36.0833ZM70.083 39.2083C70.083 35.8207 72.8204 33.0833 76.208 33.0833C79.5956 33.0833 82.333 35.8207 82.333 39.2083C82.333 42.5959 79.5956 45.3333 76.208 45.3333H71.583C70.7546 45.3333 70.083 44.6618 70.083 43.8333V39.2083Z" fill="black"/>
<path fill-rule="evenodd" clip-rule="evenodd" d="M42.292 57.6667C40.5613 57.6667 39.167 59.0609 39.167 60.7917V76.2083C39.167 77.9391 40.5613 79.3333 42.292 79.3333C44.0227 79.3333 45.417 77.9391 45.417 76.2083V60.7917C45.417 59.0609 44.0227 57.6667 42.292 57.6667ZM36.167 60.7917C36.167 57.4041 38.9044 54.6667 42.292 54.6667C45.6796 54.6667 48.417 57.4041 48.417 60.7917V76.2083C48.417 79.5959 45.6796 82.3333 42.292 82.3333C38.9044 82.3333 36.167 79.5959 36.167 76.2083V60.7917Z" fill="black"/>
<path fill-rule="evenodd" clip-rule="evenodd" d="M23.792 57.6667C22.0613 57.6667 20.667 59.0609 20.667 60.7917C20.667 62.5224 22.0613 63.9167 23.792 63.9167C25.5227 63.9167 26.917 62.5224 26.917 60.7917V57.6667H23.792ZM17.667 60.7917C17.667 57.4041 20.4044 54.6667 23.792 54.6667H28.417C29.2454 54.6667 29.917 55.3382 29.917 56.1667V60.7917C29.917 64.1792 27.1796 66.9167 23.792 66.9167C20.4044 66.9167 17.667 64.1792 17.667 60.7917Z" fill="black"/>
<path fill-rule="evenodd" clip-rule="evenodd" d="M60.792 54.5833C59.0613 54.5833 57.667 55.9776 57.667 57.7083C57.667 59.4391 59.0613 60.8333 60.792 60.8333H76.2087C77.9394 60.8333 79.3337 59.4391 79.3337 57.7083C79.3337 55.9776 77.9394 54.5833 76.2087 54.5833H60.792ZM54.667 57.7083C54.667 54.3207 57.4044 51.5833 60.792 51.5833H76.2087C79.5963 51.5833 82.3337 54.3207 82.3337 57.7083C82.3337 61.0959 79.5963 63.8333 76.2087 63.8333H60.792C57.4044 63.8333 54.667 61.0959 54.667 57.7083Z" fill="black"/>
<path fill-rule="evenodd" clip-rule="evenodd" d="M54.667 71.5833C54.667 70.7549 55.3386 70.0833 56.167 70.0833H60.792C64.1796 70.0833 66.917 72.8207 66.917 76.2083C66.917 79.5959 64.1796 82.3333 60.792 82.3333C57.4044 82.3333 54.667 79.5959 54.667 76.2083V71.5833ZM57.667 73.0833V76.2083C57.667 77.9391 59.0613 79.3333 60.792 79.3333C62.5227 79.3333 63.917 77.9391 63.917 76.2083C63.917 74.4776 62.5227 73.0833 60.792 73.0833H57.667Z" fill="black"/>
<path fill-rule="evenodd" clip-rule="evenodd" d="M17.667 42.2917C17.667 38.9041 20.4044 36.1667 23.792 36.1667H39.2087C42.5963 36.1667 45.3337 38.9041 45.3337 42.2917C45.3337 45.6793 42.5963 48.4167 39.2087 48.4167H23.792C20.4044 48.4167 17.667 45.6793 17.667 42.2917ZM23.792 39.1667C22.0613 39.1667 20.667 40.5609 20.667 42.2917C20.667 44.0224 22.0613 45.4167 23.792 45.4167H39.2087C40.9394 45.4167 42.3337 44.0224 42.3337 42.2917C42.3337 40.5609 40.9394 39.1667 39.2087 39.1667H23.792Z" fill="black"/>
<path fill-rule="evenodd" clip-rule="evenodd" d="M33.083 23.7917C33.083 20.4041 35.8204 17.6667 39.208 17.6667C42.5956 17.6667 45.333 20.4041 45.333 23.7917V28.4167C45.333 29.2451 44.6614 29.9167 43.833 29.9167H39.208C35.8204 29.9167 33.083 27.1793 33.083 23.7917ZM39.208 20.6667C37.4773 20.6667 36.083 22.0609 36.083 23.7917C36.083 25.5224 37.4773 26.9167 39.208 26.9167H42.333V23.7917C42.333 22.0609 40.9387 20.6667 39.208 20.6667Z" fill="black"/>
</svg>
