<svg width="100" height="100" viewBox="0 0 100 100" fill="none" xmlns="http://www.w3.org/2000/svg">
<rect width="100" height="100" fill="white"/>
<path fill-rule="evenodd" clip-rule="evenodd" d="M49.9813 13.4977L50.0732 13.5009C57.7393 13.765 63.8009 16.9572 67.7197 22.1596C71.2833 26.8907 72.9892 33.1664 72.6606 40.1608C73.7296 40.0275 74.9213 39.9912 76.0427 40.168C77.0096 40.3205 78.04 40.6493 78.8869 41.3216C79.7398 41.9986 80.3197 42.9577 80.4925 44.1767C81.1576 46.3985 80.1081 48.4244 78.4704 49.9197C77.0464 51.22 75.0258 52.2925 72.6733 53.0687C73.0047 54.4006 73.8889 56.2508 75.4262 58.1045C77.3891 60.4716 80.2532 62.6363 83.8853 63.5443L83.9412 63.5583L83.9959 63.5765C85.9654 64.233 87.3561 65.8166 87.4569 67.7332C87.5591 69.6732 86.3222 71.3957 84.2079 72.3365C82.1461 73.5522 79.8121 74.1637 78.2593 74.3914C78.0786 75.032 77.8048 75.7456 77.4158 76.436C76.753 77.612 75.6698 78.8646 73.9959 79.4225L73.9412 79.4408L73.8853 79.4547C72.7031 79.7503 71.0524 79.7499 69.6068 79.7495C69.5573 79.7495 69.508 79.7495 69.459 79.7495C67.8463 79.7495 66.3885 79.7558 65.3157 79.9704C63.1936 80.3948 60.9143 81.6499 58.4624 83C58.3484 83.0628 58.2341 83.1257 58.1194 83.1888C56.8749 83.8733 55.5908 84.5668 54.3511 85.0861C53.121 85.6014 51.8124 85.9995 50.5215 85.9995H50.4336L50.3463 85.9892C45.7979 85.4541 42.3387 83.7129 39.7013 82.169C39.1211 81.8294 38.6109 81.5184 38.1427 81.233C37.4982 80.8402 36.9332 80.4958 36.375 80.1922C35.4553 79.6918 34.908 79.5136 34.5631 79.5003C33.3755 79.5841 31.5586 79.6826 29.8725 79.7118C29.0153 79.7266 28.1732 79.7239 27.4568 79.69C26.8001 79.6589 26.069 79.5965 25.5472 79.4225C24.8413 79.1872 24.2633 78.711 23.8256 78.2442C23.3728 77.7611 22.9767 77.1878 22.6517 76.6099C22.1747 75.7619 21.7627 74.7439 21.598 73.8099C21.5504 73.7912 21.497 73.7713 21.4374 73.7503C20.9762 73.5879 20.3501 73.4321 19.6404 73.2778C19.292 73.202 18.9378 73.1297 18.5869 73.0583L18.5012 73.0409C18.1828 72.9762 17.8658 72.9117 17.5731 72.8488C17.0157 72.7288 16.3064 72.569 15.8507 72.3412C15.1673 71.9995 14.4899 71.4733 13.9327 70.8574C13.3792 70.2458 12.8682 69.4608 12.6334 68.5688C12.3891 67.6404 12.4465 66.5749 13.0911 65.6012C13.7087 64.6682 14.7385 64.0127 16.0472 63.5765L16.0726 63.568L16.0983 63.5605C23.4075 61.4107 26.5207 56.1782 26.9651 52.8164C26.4947 52.5625 25.9691 52.3177 25.3867 52.0497C25.3538 52.0345 25.3206 52.0193 25.2874 52.004C24.4522 51.6199 23.5021 51.183 22.6505 50.6379C21.7514 50.0625 20.8654 49.3089 20.2574 48.2423C19.6373 47.1543 19.3774 45.8658 19.529 44.3503L19.5484 44.1558L19.617 43.9728C20.0641 42.7807 20.6911 41.8502 21.5213 41.1908C22.3554 40.5282 23.2875 40.2242 24.1998 40.1113C25.0906 40.001 25.9952 40.0691 26.8168 40.1708C27.059 40.2008 27.302 40.2349 27.5411 40.2699C27.6948 33.6072 28.7891 27.5187 31.8934 22.8002C35.3284 17.579 41.0503 14.2855 49.8898 13.5058L49.9813 13.4977ZM21.9079 73.9591C21.9075 73.9592 21.9013 73.9554 21.891 73.9471C21.9032 73.9549 21.9084 73.959 21.9079 73.9591ZM50.0614 16.5024C41.957 17.2363 37.2041 20.1864 34.3997 24.4491C31.5208 28.825 30.5216 34.8356 30.5216 42L30.5216 43.699L28.8357 43.4884C28.418 43.4363 28.0018 43.3732 27.6101 43.3138L27.5958 43.3117C27.1929 43.2506 26.8159 43.1936 26.4482 43.1481C25.7043 43.056 25.0901 43.024 24.5683 43.0885C24.0681 43.1505 23.6939 43.2963 23.3874 43.5398C23.1012 43.7671 22.7832 44.1519 22.4979 44.8435C22.44 45.72 22.6115 46.3142 22.8638 46.7567C23.1465 47.2527 23.6042 47.6865 24.2676 48.1111C24.9416 48.5424 25.7268 48.9038 26.6288 49.3189L26.6408 49.3244C27.5046 49.7219 28.489 50.175 29.3536 50.7514L30.0215 51.1967V51.9995C30.0215 56.7317 26.0198 63.7577 16.9721 66.4305C16.0487 66.7421 15.7084 67.0823 15.5926 67.2572C15.5028 67.3929 15.4664 67.5462 15.5346 67.8053C15.6124 68.1007 15.82 68.472 16.1573 68.8447C16.4907 69.2132 16.8757 69.4996 17.1923 69.6579C17.1888 69.6561 17.1897 69.6564 17.1959 69.6587C17.2164 69.6663 17.2946 69.6953 17.4611 69.7406C17.6557 69.7935 17.9044 69.8514 18.2043 69.9159C18.4793 69.9751 18.7795 70.0361 19.1023 70.1017L19.1847 70.1185C19.535 70.1897 19.9073 70.2657 20.2777 70.3463C21.0054 70.5045 21.7856 70.6924 22.4338 70.9206C22.7564 71.0342 23.0985 71.1756 23.4035 71.356C23.6733 71.5156 24.1067 71.8157 24.3632 72.3287L24.5215 72.6454V72.9995C24.5215 73.3808 24.7614 74.2413 25.2664 75.1391C25.5038 75.5612 25.764 75.9254 26.0143 76.1924C26.2797 76.4755 26.4517 76.5618 26.4959 76.5765C26.4921 76.5752 26.516 76.5832 26.5785 76.5954C26.6382 76.6072 26.7179 76.6199 26.8198 76.6325C27.0247 76.6579 27.2859 76.6786 27.5987 76.6934C28.224 76.723 28.9944 76.7266 29.8205 76.7122C31.4699 76.6837 33.267 76.5853 34.4146 76.5033L34.468 76.4995H34.5215C35.6795 76.4995 36.8131 77.0153 37.8086 77.5569C38.4082 77.883 39.098 78.3024 39.8119 78.7364C40.276 79.0186 40.7504 79.307 41.2168 79.58C43.6846 81.0246 46.6969 82.521 50.6029 82.9985C51.2976 82.982 52.1506 82.7554 53.1919 82.3191C54.2648 81.8697 55.4182 81.2507 56.6736 80.5602C56.8329 80.4726 56.994 80.3836 57.157 80.2937C59.4671 79.0185 62.1312 77.5479 64.7273 77.0286C66.1244 76.7492 67.8713 76.7494 69.3629 76.7495L69.459 76.7495C71.0643 76.7495 72.3181 76.7391 73.1001 76.5582C73.8017 76.306 74.3676 75.7344 74.8022 74.9631C75.2489 74.1705 75.4708 73.3118 75.5331 72.8135L75.6973 71.4995H77.0215C77.777 71.4995 80.5053 71.06 82.7498 69.7133L82.8371 69.6609L82.9306 69.6208C84.2581 69.0519 84.4825 68.2968 84.4611 67.8909C84.4373 67.4397 84.0889 66.787 83.0955 66.4391C78.7577 65.3382 75.3931 62.7644 73.1169 60.0195C70.8781 57.3198 69.5215 54.239 69.5215 51.9995V50.8538L70.6268 50.5524C73.2387 49.8401 75.2445 48.8027 76.4476 47.7043C77.6477 46.6085 77.8381 45.6927 77.5985 44.9739L77.5482 44.8231L77.5307 44.6652C77.4745 44.1591 77.2794 43.8758 77.0218 43.6713C76.7218 43.4332 76.246 43.2371 75.5754 43.1314C74.2196 42.9176 72.545 43.1461 71.4081 43.4493L69.3132 44.0081L69.529 41.8507C70.2499 34.641 68.6751 28.4143 65.3234 23.9646C62.007 19.5618 56.8501 16.7596 50.0614 16.5024Z" fill="black"/>
</svg>
