<svg width="100" height="100" viewBox="0 0 100 100" fill="none" xmlns="http://www.w3.org/2000/svg">
<rect width="100" height="100" fill="white"/>
<path fill-rule="evenodd" clip-rule="evenodd" d="M50 11.5H65.5V13C65.5 19.4234 68.5578 23.4857 72.3321 26.0019C76.1776 28.5657 80.7538 29.5 83.5 29.5H85V44.4092L83.5936 44.4971C80.1286 44.7136 76.0494 43.9055 72.3816 42.7C69.8692 41.8742 67.4645 40.8337 65.5 39.7361V63.5C65.5 68.2648 63.4934 74.3427 59.5426 79.2416C55.5586 84.1818 49.5288 88 41.5 88C29.3232 88 15.5 79.0594 15.5 63.5C15.5 54.1486 20.4665 47.4672 26.4868 43.4977C32.4217 39.5846 39.6279 38.1506 44.4233 39.561L45.5 39.8776V54H41.5C40.4448 54 37.8602 54.336 35.5934 55.7182C33.4229 57.0417 31.5 59.334 31.5 63.5C31.5 67.7421 33.2425 70.0147 35.247 71.2997C37.3535 72.65 39.9082 73 41.5 73C44.9482 73 46.996 71.4616 48.2449 69.5535C49.5468 67.5645 50 65.1204 50 63.5V11.5ZM53 14.5V63.5C53 65.5463 52.4532 68.6021 50.7551 71.1965C49.004 73.8717 46.0518 76 41.5 76C39.5918 76 36.3965 75.6 33.628 73.8253C30.7575 71.9853 28.5 68.7579 28.5 63.5C28.5 58.166 31.0771 54.9583 34.0316 53.1568C36.8898 51.414 40.0552 51 41.5 51H42.4997L42.5 42.1948C38.7301 41.5651 33.0816 42.7429 28.1382 46.0023C22.7835 49.5328 18.5 55.3514 18.5 63.5C18.5 76.9406 30.4768 85 41.5 85C48.4712 85 53.6914 81.7182 57.2074 77.3584C60.7566 72.9573 62.5 67.5352 62.5 63.5V34L64.9 35.8C66.726 37.1695 69.837 38.7058 73.3184 39.85C76.2638 40.8181 79.3441 41.4623 82 41.5269V32.4328C78.7874 32.1583 74.4448 31.016 70.6679 28.4981C66.4947 25.7159 63.0026 21.235 62.5497 14.5H53Z" fill="black"/>
</svg>
