<svg width="100" height="100" viewBox="0 0 100 100" fill="none" xmlns="http://www.w3.org/2000/svg">
<rect width="100" height="100" fill="white"/>
<path fill-rule="evenodd" clip-rule="evenodd" d="M30.6667 21.5C27.8132 21.5 25.5 23.8132 25.5 26.6667V73.3333C25.5 76.1868 27.8132 78.5 30.6667 78.5H77.3333C80.1868 78.5 82.5 76.1868 82.5 73.3333V26.6667C82.5 23.8132 80.1868 21.5 77.3333 21.5H30.6667ZM22.5 26.6667C22.5 22.1563 26.1563 18.5 30.6667 18.5H77.3333C81.8437 18.5 85.5 22.1563 85.5 26.6667V73.3333C85.5 77.8437 81.8437 81.5 77.3333 81.5H30.6667C26.1563 81.5 22.5 77.8437 22.5 73.3333V26.6667Z" fill="black"/>
<path fill-rule="evenodd" clip-rule="evenodd" d="M35.833 33.3333C35.833 32.5049 36.5046 31.8333 37.333 31.8333H47.333C48.1614 31.8333 48.833 32.5049 48.833 33.3333V63.3333C48.833 64.1618 48.1614 64.8333 47.333 64.8333H37.333C36.5046 64.8333 35.833 64.1618 35.833 63.3333V33.3333ZM38.833 34.8333V61.8333H45.833V34.8333H38.833Z" fill="black"/>
<path fill-rule="evenodd" clip-rule="evenodd" d="M59.167 33.3333C59.167 32.5049 59.8386 31.8333 60.667 31.8333H70.667C71.4954 31.8333 72.167 32.5049 72.167 33.3333V50C72.167 50.8284 71.4954 51.5 70.667 51.5H60.667C59.8386 51.5 59.167 50.8284 59.167 50V33.3333ZM62.167 34.8333V48.5H69.167V34.8333H62.167Z" fill="black"/>
</svg>
