<svg width="100" height="100" viewBox="0 0 100 100" fill="none" xmlns="http://www.w3.org/2000/svg">
<rect width="100" height="100" fill="white"/>
<path fill-rule="evenodd" clip-rule="evenodd" d="M22.9637 64.322C23.3652 65.0698 23.4312 65.9525 23.1453 66.7516L16.9929 83.9495L33.886 77.6871C34.7032 77.3841 35.6116 77.4515 36.3751 77.8717C41.1558 80.5023 46.6485 82 52.5 82C71.0015 82 86 67.0015 86 48.5C86 29.9985 71.0015 15 52.5 15C33.9985 15 19 29.9985 19 48.5C19 54.2286 20.4354 59.613 22.9637 64.322ZM12 89L20.3206 65.7411C17.5638 60.6065 16 54.7359 16 48.5C16 28.3416 32.3416 12 52.5 12C72.6584 12 89 28.3416 89 48.5C89 68.6584 72.6584 85 52.5 85C46.1301 85 40.1413 83.3683 34.9288 80.5L12 89Z" fill="black"/>
<path fill-rule="evenodd" clip-rule="evenodd" d="M39.5631 28.8287C40.1744 28.3397 41.059 28.403 41.5945 28.9741L49.0945 36.9741C49.6482 37.5647 49.6333 38.4882 49.0608 39.0607L45.883 42.2385C45.8699 42.5863 45.9601 43.2124 46.4159 44.1653C47.0087 45.405 48.1404 47.019 50.0608 48.9393C52.5037 51.3822 54.635 53.0219 56.3311 53.9265C57.8743 54.7495 58.7543 54.8097 59.1634 54.7154L61.9395 51.9393C62.5253 51.3536 63.475 51.3536 64.0608 51.9393L72.0608 59.9393C72.6287 60.5072 72.6486 61.4216 72.1059 62.0136L66.6059 68.0136C66.5083 68.1201 66.3958 68.2119 66.2719 68.2862C65.1832 68.9395 62.4862 69.8864 59.5811 68.9412C57.3423 68.3678 53.8343 66.6497 50.3824 64.453C46.8818 62.2254 43.2327 59.3752 40.8392 56.4499L40.836 56.4459C39.7242 55.0775 37.9928 52.7857 36.382 50.3205C34.7943 47.8908 33.2301 45.1533 32.5634 42.931L32.5579 42.9121C32.0105 40.9961 31.8629 39.1831 32.0069 37.6703C32.1436 36.2353 32.5703 34.8086 33.4395 33.9393C34.3149 33.064 37.9388 30.1281 39.5631 28.8287ZM40.3568 32.0403C38.5634 33.4895 36.1534 35.4681 35.5608 36.0607C35.43 36.1914 35.1067 36.7647 34.9934 37.9547C34.8877 39.0647 34.9895 40.4981 35.4397 42.0783C35.9749 43.8551 37.3255 46.2801 38.8934 48.6795C40.44 51.0464 42.1078 53.2536 43.1627 54.5521C45.2694 57.1262 48.6194 59.7752 51.993 61.922C55.3875 64.0821 58.6 65.6038 60.364 66.0448C60.4012 66.0541 60.4381 66.0648 60.4745 66.077C62.1928 66.6497 63.8565 66.1548 64.5612 65.8045L68.924 61.0451L63.0002 55.1213L61.0608 57.0607C60.9468 57.1747 60.8152 57.2695 60.671 57.3416C58.9715 58.1914 56.8693 57.6135 54.9193 56.5735C52.8654 55.4781 50.4967 53.6178 47.9395 51.0607C45.8599 48.9811 44.4916 47.0951 43.7095 45.4597C42.949 43.8695 42.6489 42.3103 43.0771 41.0257C43.1508 40.8047 43.2748 40.604 43.4395 40.4393L45.9125 37.9663L40.3568 32.0403Z" fill="black"/>
</svg>
