<svg width="100" height="100" viewBox="0 0 100 100" fill="none" xmlns="http://www.w3.org/2000/svg">
<rect width="100" height="100" fill="white"/>
<path fill-rule="evenodd" clip-rule="evenodd" d="M66 23H34C33.4477 23 33 23.4477 33 24C33 24.5523 33.4477 25 34 25H66C66.5523 25 67 24.5523 67 24C67 23.4477 66.5523 23 66 23ZM34 21C32.3431 21 31 22.3431 31 24C31 25.6569 32.3431 27 34 27H66C67.6569 27 69 25.6569 69 24C69 22.3431 67.6569 21 66 21H34Z" fill="black"/>
<path fill-rule="evenodd" clip-rule="evenodd" d="M64 86H38C37.4477 86 37 86.4477 37 87C37 87.5523 37.4477 88 38 88H64C64.5523 88 65 87.5523 65 87C65 86.4477 64.5523 86 64 86ZM38 84C36.3431 84 35 85.3431 35 87C35 88.6569 36.3431 90 38 90H64C65.6569 90 67 88.6569 67 87C67 85.3431 65.6569 84 64 84H38Z" fill="black"/>
<path fill-rule="evenodd" clip-rule="evenodd" d="M59 76H42C40.8954 76 40 76.8954 40 78V83H61V78C61 76.8954 60.1046 76 59 76ZM42 74C39.7909 74 38 75.7909 38 78V84C38 84.5523 38.4477 85 39 85H63V78C63 75.7909 61.2091 74 59 74H42Z" fill="black"/>
<path fill-rule="evenodd" clip-rule="evenodd" d="M54 69H47C45.8954 69 45 69.8954 45 71V73H56V71C56 69.8954 55.1046 69 54 69ZM47 67C44.7909 67 43 68.7909 43 71V74C43 74.5523 43.4477 75 44 75H58V71C58 68.7909 56.2091 67 54 67H47Z" fill="black"/>
<path fill-rule="evenodd" clip-rule="evenodd" d="M52 56H49V66H52V56ZM47 54V68H54V54H47Z" fill="black"/>
<path fill-rule="evenodd" clip-rule="evenodd" d="M64 28H37V40C37 47.1797 42.8203 53 50 53H52C58.6274 53 64 47.6274 64 41V28ZM35 26V40C35 48.2843 41.7157 55 50 55H52C59.732 55 66 48.732 66 41V26H35Z" fill="black"/>
<path fill-rule="evenodd" clip-rule="evenodd" d="M75.931 28H65V26H75.931C78.625 26 80.5487 28.6092 79.7521 31.1827L75.6778 44.3461C74.8153 47.1325 72.5842 49.2822 69.7676 50.0405L60.7599 52.4656L60.24 50.5344L69.2477 48.1092C71.4015 47.5294 73.1076 45.8855 73.7672 43.7547L77.8415 30.5914C78.2398 29.3046 77.278 28 75.931 28Z" fill="black"/>
<path fill-rule="evenodd" clip-rule="evenodd" d="M72.1544 33H65.6924V31H72.1544C74.2322 31 75.6809 33.0612 74.9771 35.0162L71.9058 43.5475C71.5122 44.6408 70.6627 45.5089 69.5782 45.926L69.2192 44.9926L69.5782 45.926L64.3591 47.9333L63.6411 46.0667L68.8602 44.0593C69.4025 43.8507 69.8273 43.4167 70.024 42.87L73.0953 34.3387C73.3299 33.6871 72.847 33 72.1544 33Z" fill="black"/>
<path fill-rule="evenodd" clip-rule="evenodd" d="M28.8456 33H35.3076V31H28.8456C26.7678 31 25.3191 33.0612 26.0229 35.0162L29.0942 43.5475C29.4878 44.6408 30.3373 45.5089 31.4218 45.926L31.7808 44.9926L31.4218 45.926L36.6409 47.9333L37.3589 46.0667L32.1398 44.0593C31.5975 43.8507 31.1727 43.4167 30.976 42.87L27.9047 34.3387C27.6701 33.6871 28.153 33 28.8456 33Z" fill="black"/>
<path fill-rule="evenodd" clip-rule="evenodd" d="M25.069 28H36V26H25.069C22.375 26 20.4513 28.6092 21.2478 31.1827L25.2693 44.1753C26.1642 47.0665 28.5289 49.2637 31.478 49.9443L40.2751 51.9744L40.7249 50.0256L31.9277 47.9955C29.6726 47.4751 27.8642 45.7948 27.1799 43.5839L23.1584 30.5914C22.7601 29.3046 23.722 28 25.069 28Z" fill="black"/>
</svg>
