<svg width="100" height="100" viewBox="0 0 100 100" fill="none" xmlns="http://www.w3.org/2000/svg">
<rect width="100" height="100" fill="white"/>
<path fill-rule="evenodd" clip-rule="evenodd" d="M29 64.5V35.5C29 33.567 27.433 32 25.5 32C23.567 32 22 33.567 22 35.5V64.5C22 66.433 23.567 68 25.5 68C27.433 68 29 66.433 29 64.5ZM25.5 30C22.4624 30 20 32.4624 20 35.5V64.5C20 67.5376 22.4624 70 25.5 70C28.5376 70 31 67.5376 31 64.5V35.5C31 32.4624 28.5376 30 25.5 30Z" fill="black"/>
<path fill-rule="evenodd" clip-rule="evenodd" d="M68 48H32V53H68V48ZM30 46V55H70V46H30Z" fill="black"/>
<path fill-rule="evenodd" clip-rule="evenodd" d="M85.5 45C84.6716 45 84 45.6716 84 46.5V52.5C84 53.3284 84.6716 54 85.5 54C86.3284 54 87 53.3284 87 52.5V46.5C87 45.6716 86.3284 45 85.5 45Z" fill="black"/>
<path fill-rule="evenodd" clip-rule="evenodd" d="M14.5 45C13.6716 45 13 45.6716 13 46.5V52.5C13 53.3284 13.6716 54 14.5 54C15.3284 54 16 53.3284 16 52.5V46.5C16 45.6716 15.3284 45 14.5 45Z" fill="black"/>
<path fill-rule="evenodd" clip-rule="evenodd" d="M71 64.5V35.5C71 33.567 72.567 32 74.5 32C76.433 32 78 33.567 78 35.5V64.5C78 66.433 76.433 68 74.5 68C72.567 68 71 66.433 71 64.5ZM74.5 30C77.5376 30 80 32.4624 80 35.5V64.5C80 67.5376 77.5376 70 74.5 70C71.4624 70 69 67.5376 69 64.5V35.5C69 32.4624 71.4624 30 74.5 30Z" fill="black"/>
<path fill-rule="evenodd" clip-rule="evenodd" d="M19 39.1C19.3231 39.0344 19.6575 39 20 39H21V61H20C19.6575 61 19.3231 60.9656 19 60.9C16.7178 60.4367 15 58.419 15 56V44C15 41.581 16.7178 39.5633 19 39.1ZM19 58.8293C17.8348 58.4175 17 57.3062 17 56V44C17 42.6938 17.8348 41.5825 19 41.1707V58.8293Z" fill="black"/>
<path fill-rule="evenodd" clip-rule="evenodd" d="M81 39.1C80.6769 39.0344 80.3425 39 80 39H79V61H80C80.3425 61 80.6769 60.9656 81 60.9C83.2822 60.4367 85 58.419 85 56V44C85 41.581 83.2822 39.5633 81 39.1ZM81 58.8293C82.1652 58.4175 83 57.3062 83 56V44C83 42.6938 82.1652 41.5825 81 41.1707V58.8293Z" fill="black"/>
</svg>
