<svg width="100" height="100" viewBox="0 0 100 100" fill="none" xmlns="http://www.w3.org/2000/svg">
<rect width="100" height="100" fill="white"/>
<path fill-rule="evenodd" clip-rule="evenodd" d="M29.5552 47.8602C26.0666 48.097 22.9342 49.7863 21.1369 51.271C20.7111 51.6227 20.0808 51.5627 19.7291 51.1369C19.3773 50.7111 19.4374 50.0808 19.8631 49.7291C21.8992 48.0471 25.4168 46.1365 29.4198 45.8648C33.4912 45.5886 37.9802 47.0187 41.7875 51.8837C42.1279 52.3187 42.0513 52.9472 41.6163 53.2875C41.1814 53.6279 40.5529 53.5513 40.2125 53.1163C36.8199 48.7813 32.9755 47.6282 29.5552 47.8602Z" fill="black"/>
<path fill-rule="evenodd" clip-rule="evenodd" d="M44.4852 51.5619C41.3848 53.2823 39.5168 56.7457 38.9769 59.2138C38.8588 59.7533 38.3258 60.095 37.7863 59.977C37.2467 59.8589 36.905 59.3259 37.0231 58.7864C37.6498 55.9211 39.7818 51.8845 43.5148 49.8131C47.3713 47.6732 52.6337 47.7856 59.1051 52.7039C59.5448 53.0381 59.6303 53.6654 59.2961 54.1051C58.9619 54.5449 58.3346 54.6304 57.8949 54.2962C51.8662 49.7144 47.462 49.9101 44.4852 51.5619Z" fill="black"/>
<path fill-rule="evenodd" clip-rule="evenodd" d="M52.4764 18.363L69.8653 27.321L79.1474 65.9961L75.1249 68.2947C69.9303 73.7532 55.5798 82.8734 38.2556 77.143C35.9909 79.1017 30.1255 81.4927 20.3478 79.9884C19.802 79.9044 19.4275 79.3939 19.5115 78.848C19.5955 78.3021 20.1061 77.9277 20.652 78.0117C30.8668 79.5832 36.0667 76.6532 37.2566 75.3311L37.7014 74.8368L38.3293 75.0559C55.0255 80.8801 68.9317 71.9773 73.7704 66.8161L73.8732 66.7064L76.8524 65.004L68.1345 28.6791L52.539 20.6451C52.3868 20.7406 52.2018 20.8593 51.9922 20.999C51.3763 21.4099 50.557 21.9966 49.7353 22.7036C48.91 23.4137 48.107 24.224 47.5042 25.0779C46.8968 25.9383 46.5401 26.7755 46.4985 27.5535C46.3939 29.5062 47.373 31.7646 48.7957 33.4413C49.4985 34.2696 50.2654 34.9018 50.9822 35.2673C51.7075 35.637 52.2784 35.6865 52.6837 35.5514C53.9436 35.1314 54.6481 34.4125 55.0428 33.8204C55.2435 33.5194 55.3669 33.2463 55.4386 33.0552C55.4743 32.96 55.4966 32.8865 55.509 32.8418C55.5122 32.8304 55.5147 32.821 55.5166 32.8136C55.5184 32.8064 55.5197 32.8012 55.5205 32.7979C55.5205 32.7977 55.5204 32.7981 55.5205 32.7979C55.5206 32.7975 55.5208 32.7967 55.5208 32.7964L55.7914 31.4435L61.048 34.4472L59.5247 53.2345L62.3319 57.4454C62.6383 57.9049 62.5141 58.5257 62.0546 58.8321C61.5951 59.1385 60.9742 59.0143 60.6678 58.5547L57.4751 53.7656L58.9518 35.5529L57.0016 34.4385C56.9178 34.5947 56.8203 34.7597 56.7069 34.9298C56.1017 35.8376 55.0561 36.8687 53.3161 37.4487C52.2214 37.8136 51.0742 37.5591 50.0738 37.049C49.0649 36.5346 48.0984 35.7108 47.2706 34.7352C45.6322 32.8041 44.3613 30.0625 44.5013 27.4466C44.5707 26.152 45.1444 24.9528 45.8704 23.9245C46.6008 22.8897 47.534 21.9592 48.4309 21.1875C49.3315 20.4126 50.2206 19.7766 50.8825 19.3352C51.2143 19.1139 51.4912 18.9399 51.6869 18.8204C51.7847 18.7606 51.8624 18.7144 51.9166 18.6825C51.9437 18.6666 51.9649 18.6542 51.9799 18.6455L51.9976 18.6354L52.0028 18.6324L52.0045 18.6314C52.0047 18.6313 52.0056 18.6308 52.4999 19.5001L52.0056 18.6308L52.4764 18.363Z" fill="black"/>
<path fill-rule="evenodd" clip-rule="evenodd" d="M28 65C28.5523 65 29 65.4477 29 66C29 67.0453 28.5157 67.8586 27.822 68.4399C27.1577 68.9966 26.2984 69.3489 25.4476 69.5781C23.7413 70.0376 21.7466 70.0853 20.4335 69.9978C19.8825 69.961 19.4655 69.4845 19.5023 68.9335C19.539 68.3824 20.0155 67.9655 20.5666 68.0022C21.7535 68.0813 23.5087 68.029 24.9275 67.6469C25.6392 67.4552 26.1862 67.2013 26.5375 66.907C26.8594 66.6372 27 66.3547 27 66C27 65.4477 27.4478 65 28 65Z" fill="black"/>
<path fill-rule="evenodd" clip-rule="evenodd" d="M66.5369 63.1563C67.0028 63.4529 67.1402 64.0709 66.8437 64.5369C63.8721 69.2065 59.5357 71.496 55.3761 72.4616C51.2371 73.4224 47.2255 73.0872 44.7575 72.4701C44.2217 72.3362 43.8959 71.7933 44.0298 71.2575C44.1638 70.7217 44.7067 70.3959 45.2425 70.5299C47.4412 71.0795 51.1295 71.3942 54.9239 70.5134C58.6976 69.6374 62.5279 67.5935 65.1563 63.4631C65.4528 62.9972 66.0709 62.8598 66.5369 63.1563Z" fill="black"/>
<path fill-rule="evenodd" clip-rule="evenodd" d="M32.3236 23.9585C32.8571 23.7374 33.4288 23.6237 34.0063 23.6237C34.5837 23.6237 35.1555 23.7374 35.689 23.9585C36.2224 24.1795 36.707 24.5034 37.1152 24.9117C37.1152 24.9118 37.1152 24.9118 37.1153 24.9118C37.1153 24.9118 37.1153 24.9119 37.1153 24.9119C37.5237 25.3201 37.8476 25.8047 38.0686 26.3381C38.2896 26.8716 38.4034 27.4433 38.4034 28.0208C38.4034 28.5982 38.2896 29.17 38.0686 29.7035C37.8476 30.2369 37.5236 30.7216 37.1153 31.1298L36.7617 30.7762L37.1152 31.1298C37.1152 31.1298 37.1152 31.1298 37.1153 31.1298M30.5 25.3091L30.1465 25.6626L30.5 26.0162L30.8536 25.6626L30.5 25.3091ZM30.5 36.3308L30.1465 36.6843L30.5 37.0379L30.8536 36.6843L30.5 36.3308ZM32.3236 23.9585C31.7902 24.1795 31.3055 24.5034 30.8973 24.9118ZM30.8973 24.9118C30.8973 24.9118 30.8973 24.9119 30.8972 24.9119Z" fill="black"/>
</svg>
