<svg width="100" height="100" viewBox="0 0 100 100" fill="none" xmlns="http://www.w3.org/2000/svg">
<rect width="100" height="100" fill="white"/>
<path fill-rule="evenodd" clip-rule="evenodd" d="M65.2442 70.7581C69.2386 65.6615 72.049 58.6853 74.0339 51.2423L75.9663 51.7576C73.9511 59.3146 71.0532 66.5885 66.8184 71.9918C62.5604 77.4248 56.9168 81 49.5001 81C42.1076 81 36.2145 77.5728 31.8196 72.1953C27.4435 66.8408 24.5386 59.5448 23.0183 51.69L24.9819 51.31C26.4616 58.9552 29.2651 65.9092 33.3682 70.9297C37.4524 75.9271 42.8093 79 49.5001 79C56.1666 79 61.273 75.8252 65.2442 70.7581Z" fill="black"/>
<path fill-rule="evenodd" clip-rule="evenodd" d="M39.2632 88.9701C40.3516 88.9999 41.7342 89 43.5 89H55V91H43.485C41.7369 91 40.3274 91 39.2084 90.9693C38.0975 90.9389 37.2094 90.8774 36.5287 90.7372C35.862 90.5999 35.2052 90.3511 34.7762 89.7897C34.3423 89.2217 34.3072 88.5503 34.3462 87.9927C34.3809 87.4961 34.4846 86.9296 34.6068 86.2617C35.0222 83.9912 35.6521 80.5483 34.5183 74.69L36.4818 74.3099C37.7022 80.6153 36.9648 84.5716 36.5541 86.7752C36.4491 87.3389 36.3654 87.7879 36.3413 88.1322C36.3191 88.4504 36.3563 88.5554 36.366 88.5759C36.3814 88.591 36.495 88.6883 36.9322 88.7783C37.4273 88.8803 38.1635 88.9399 39.2632 88.9701Z" fill="black"/>
<path fill-rule="evenodd" clip-rule="evenodd" d="M56.2873 89.001C55.8831 89.0005 55.4546 89 55.0001 89V91C55.4453 91 55.8681 91.0005 56.2693 91.0009C57.4459 91.0024 58.4364 91.0035 59.258 90.9911C60.3487 90.9745 61.2121 90.9337 61.862 90.8213C62.4789 90.7145 63.1557 90.5055 63.5766 89.9333C64.0046 89.3516 63.9676 88.6668 63.8962 88.1703C63.8412 87.7875 63.7304 87.3213 63.6128 86.8268C63.5742 86.6647 63.5349 86.4995 63.4967 86.3333C63.3335 85.6243 63.1584 84.7812 63.036 83.7634C62.7919 81.7337 62.7517 78.9631 63.482 75.19L61.5184 74.8099C60.7487 78.7869 60.7814 81.7663 61.0503 84.0022C61.1844 85.1171 61.3759 86.0358 61.5476 86.7819C61.5984 87.0023 61.6453 87.1998 61.6878 87.3786C61.796 87.8341 61.8755 88.1689 61.9166 88.4547C61.9372 88.5985 61.9408 88.6893 61.9397 88.7424C61.8765 88.7688 61.7507 88.8108 61.521 88.8505C61.042 88.9334 60.3202 88.9747 59.2276 88.9913C58.4238 89.0035 57.4573 89.0024 56.2873 89.001Z" fill="black"/>
<path fill-rule="evenodd" clip-rule="evenodd" d="M73.7248 45.9743C52.7363 50.8178 32.6998 48 25.2368 45.9647L25.7631 44.0351C32.9668 45.9998 52.6636 48.782 73.2751 44.0255L73.7248 45.9743Z" fill="black"/>
<path fill-rule="evenodd" clip-rule="evenodd" d="M74.7248 51.9744C53.7391 56.8173 31.7031 54.001 24.2368 51.9648L24.7631 50.0353C31.9635 51.999 53.6608 54.7828 74.2751 50.0256L74.7248 51.9744Z" fill="black"/>
<path fill-rule="evenodd" clip-rule="evenodd" d="M42.1176 70.5294C42.3775 70.0421 42.9832 69.8577 43.4705 70.1176C45.3505 71.1202 46.7103 71.8132 47.8078 72.2507C48.894 72.6837 49.6548 72.8375 50.3393 72.8131C51.0249 72.7886 51.7298 72.5821 52.7055 72.1313C53.4641 71.7807 54.3254 71.3128 55.4261 70.715C55.7682 70.5292 56.1334 70.3308 56.5259 70.1195C57.0121 69.8576 57.6186 70.0396 57.8804 70.5259C58.1423 71.0121 57.9603 71.6186 57.4741 71.8804C57.1079 72.0776 56.7591 72.2671 56.426 72.4481C55.3081 73.0554 54.3673 73.5665 53.5444 73.9468C52.4576 74.449 51.475 74.7738 50.4106 74.8118C49.3451 74.8499 48.2934 74.5974 47.0671 74.1085C45.8521 73.6242 44.3995 72.8797 42.5294 71.8823C42.0421 71.6224 41.8577 71.0167 42.1176 70.5294Z" fill="black"/>
<path fill-rule="evenodd" clip-rule="evenodd" d="M26.4807 44.6961L24.9807 52.1961L23.0195 51.8038L24.5195 44.3038L26.4807 44.6961Z" fill="black"/>
<path fill-rule="evenodd" clip-rule="evenodd" d="M74.4778 44.2905L75.9778 51.2905L74.0222 51.7096L72.5222 44.7096L74.4778 44.2905Z" fill="black"/>
<path fill-rule="evenodd" clip-rule="evenodd" d="M47.6218 14.5388C48.2166 12.712 50.794 12.6929 51.4159 14.5106L56.5259 29.4475L65.8907 23.2044C67.2198 22.3183 69.0001 23.2711 69.0001 24.8685V35.4999H78.8811C80.5713 35.4999 81.4994 37.4666 80.4249 38.7714L74.772 45.6357C74.4209 46.062 73.7907 46.123 73.3644 45.7719C72.938 45.4208 72.8771 44.7906 73.2281 44.3642L78.8811 37.4999H69.0001C67.8955 37.4999 67.0001 36.6045 67.0001 35.4999V24.8685L57.6353 31.1116C56.5435 31.8395 55.0583 31.3365 54.6336 30.0949L49.5235 15.158L43.8962 32.4418C43.4647 33.7672 41.8438 34.2558 40.7517 33.3896L29.1481 24.1868L29.9236 35.8193C30.0028 37.0082 29.0315 38.0023 27.8411 37.9505L19.8173 37.6016L26.2475 44.8356C26.6144 45.2484 26.5772 45.8804 26.1644 46.2474C25.7517 46.6143 25.1196 46.5771 24.7527 46.1643L18.3225 38.9304C17.1485 37.6096 18.1388 35.5268 19.9042 35.6035L27.928 35.9524L27.1525 24.3198C27.0371 22.588 29.031 21.5413 30.3909 22.6198L41.9945 31.8226L47.6218 14.5388Z" fill="black"/>
<path fill-rule="evenodd" clip-rule="evenodd" d="M37 59.5C37.5523 59.5 38 59.9477 38 60.5C38 61.3284 38.6716 62 39.5 62C40.3284 62 41 61.3284 41 60.5C41 59.9477 41.4477 59.5 42 59.5C42.5523 59.5 43 59.9477 43 60.5C43 62.433 41.433 64 39.5 64C37.567 64 36 62.433 36 60.5C36 59.9477 36.4477 59.5 37 59.5Z" fill="black"/>
<path fill-rule="evenodd" clip-rule="evenodd" d="M56 59.5C56.5523 59.5 57 59.9477 57 60.5C57 61.3284 57.6716 62 58.5 62C59.3284 62 60 61.3284 60 60.5C60 59.9477 60.4477 59.5 61 59.5C61.5523 59.5 62 59.9477 62 60.5C62 62.433 60.433 64 58.5 64C56.567 64 55 62.433 55 60.5C55 59.9477 55.4477 59.5 56 59.5Z" fill="black"/>
</svg>
