<svg width="100" height="100" viewBox="0 0 100 100" fill="none" xmlns="http://www.w3.org/2000/svg">
<rect width="100" height="100" fill="white"/>
<path fill-rule="evenodd" clip-rule="evenodd" d="M30.9826 61.3397C32.1967 58.6686 33 54.8381 33 50.5C33 46.1619 32.1967 42.3314 30.9826 39.6603C29.6864 36.8087 28.3045 36 27.5 36C26.6955 36 25.3136 36.8087 24.0174 39.6603C22.8033 42.3314 22 46.1619 22 50.5C22 54.8381 22.8033 58.6686 24.0174 61.3397C25.3136 64.1913 26.6955 65 27.5 65C28.3045 65 29.6864 64.1913 30.9826 61.3397ZM27.5 67C31.6421 67 35 59.6127 35 50.5C35 41.3873 31.6421 34 27.5 34C23.3579 34 20 41.3873 20 50.5C20 59.6127 23.3579 67 27.5 67Z" fill="black"/>
<path fill-rule="evenodd" clip-rule="evenodd" d="M40.9999 50C40.9999 41.7765 37.6675 37.6343 34.4187 35.3137L35.5812 33.6863C39.3324 36.3657 42.9999 41.1027 42.9999 50C42.9999 58.7732 39.4166 65.128 35.4961 67.3683L34.5038 65.6318C37.5833 63.872 40.9999 58.3476 40.9999 50Z" fill="black"/>
<path fill-rule="evenodd" clip-rule="evenodd" d="M46.9999 50C46.9999 41.7765 43.6675 37.6343 40.4187 35.3137L41.5812 33.6863C45.3324 36.3657 48.9999 41.1027 48.9999 50C48.9999 58.7732 45.4166 65.128 41.4961 67.3683L40.5038 65.6318C43.5833 63.872 46.9999 58.3476 46.9999 50Z" fill="black"/>
<path fill-rule="evenodd" clip-rule="evenodd" d="M66.5 50.5C66.5 42.2152 63.6196 38.1001 60.4187 35.8137L61.5812 34.1863C65.3803 36.8999 68.5 41.664 68.5 50.5C68.5 55.0243 66.7866 59.0765 65.1152 61.9615C64.2757 63.4106 63.4364 64.5831 62.8053 65.3955C62.4894 65.8021 62.2248 66.1195 62.0371 66.3375C61.9433 66.4465 61.8686 66.5307 61.8164 66.5888C61.7902 66.6179 61.7697 66.6404 61.7551 66.6563L61.7378 66.675L61.7326 66.6806L61.7309 66.6824C61.7307 66.6827 61.7298 66.6836 61 66C60.2701 65.3164 60.2699 65.3166 60.2698 65.3168L60.2715 65.3149L60.2821 65.3034C60.2921 65.2925 60.3081 65.275 60.3295 65.2512C60.3725 65.2034 60.4375 65.1302 60.5214 65.0327C60.6892 64.8377 60.9324 64.5462 61.2259 64.1684C61.8135 63.4121 62.5992 62.3147 63.3847 60.9589C64.9633 58.2339 66.5 54.5361 66.5 50.5Z" fill="black"/>
<path fill-rule="evenodd" clip-rule="evenodd" d="M72.5 50.5C72.5 42.2152 69.6196 38.1001 66.4187 35.8137L67.5812 34.1863C71.3803 36.8999 74.5 41.664 74.5 50.5C74.5 55.0243 72.7866 59.0765 71.1152 61.9615C70.2757 63.4106 69.4364 64.5831 68.8053 65.3955C68.4894 65.8021 68.2248 66.1195 68.0371 66.3375C67.9433 66.4465 67.8686 66.5307 67.8164 66.5888C67.7902 66.6179 67.7697 66.6404 67.7551 66.6563L67.7378 66.675L67.7326 66.6806L67.7309 66.6824C67.7307 66.6827 67.7298 66.6836 67 66C66.2701 65.3164 66.2699 65.3166 66.2698 65.3168L66.2715 65.3149L66.2821 65.3034C66.2921 65.2925 66.3081 65.275 66.3295 65.2512C66.3725 65.2034 66.4375 65.1302 66.5214 65.0327C66.6892 64.8377 66.9324 64.5462 67.2259 64.1684C67.8135 63.4121 68.5992 62.3147 69.3847 60.9589C70.9633 58.2339 72.5 54.5361 72.5 50.5Z" fill="black"/>
<path fill-rule="evenodd" clip-rule="evenodd" d="M77.9031 39.9754C76.5912 37.2641 74.9709 36 73.5 36V34C76.1712 34 78.3009 36.2057 79.7035 39.1043C81.1397 42.0724 82 46.1027 82 50.5C82 54.8973 81.1397 58.9276 79.7035 61.8957C78.3009 64.7943 76.1712 67 73.5 67V65C74.9709 65 76.5912 63.7359 77.9031 61.0246C79.1814 58.3828 80 54.6631 80 50.5C80 46.3369 79.1814 42.6172 77.9031 39.9754Z" fill="black"/>
<path fill-rule="evenodd" clip-rule="evenodd" d="M28.8002 58.6614C29.5177 56.6684 30 53.7831 30 50.5C30 47.2169 29.5177 44.3316 28.8002 42.3386C28.4384 41.3336 28.0545 40.6616 27.7286 40.2786C27.6307 40.1637 27.5543 40.0922 27.5 40.0486C27.4457 40.0922 27.3693 40.1637 27.2714 40.2786C26.9455 40.6616 26.5616 41.3336 26.1998 42.3386C25.4823 44.3316 25 47.2169 25 50.5C25 53.7831 25.4823 56.6684 26.1998 58.6614C26.5616 59.6664 26.9455 60.3384 27.2714 60.7214C27.3693 60.8363 27.4457 60.9078 27.5 60.9514C27.5543 60.9078 27.6307 60.8363 27.7286 60.7214C28.0545 60.3384 28.4384 59.6664 28.8002 58.6614ZM27.401 61.0149C27.401 61.0145 27.4048 61.0127 27.4126 61.0104C27.4049 61.0141 27.401 61.0153 27.401 61.0149ZM27.5874 61.0104C27.5952 61.0127 27.599 61.0145 27.599 61.0149C27.599 61.0153 27.5951 61.0141 27.5874 61.0104ZM27.599 39.9851C27.599 39.9855 27.5952 39.9873 27.5874 39.9896C27.5951 39.9859 27.599 39.9847 27.599 39.9851ZM27.4126 39.9896C27.4048 39.9873 27.401 39.9855 27.401 39.9851C27.401 39.9847 27.4049 39.9859 27.4126 39.9896ZM27.5 63C29.9853 63 32 57.4036 32 50.5C32 43.5964 29.9853 38 27.5 38C25.0147 38 23 43.5964 23 50.5C23 57.4036 25.0147 63 27.5 63Z" fill="black"/>
<path fill-rule="evenodd" clip-rule="evenodd" d="M73.489 35.9999L27.489 35.4999L27.5108 33.5L73.5107 34L73.489 35.9999Z" fill="black"/>
<path fill-rule="evenodd" clip-rule="evenodd" d="M27.4893 65.5L73.9893 65L74.0108 66.9999L27.5108 67.4999L27.4893 65.5Z" fill="black"/>
</svg>
