<svg width="100" height="100" viewBox="0 0 100 100" fill="none" xmlns="http://www.w3.org/2000/svg">
<rect width="100" height="100" fill="white"/>
<path fill-rule="evenodd" clip-rule="evenodd" d="M49.5 73C54.4706 73 58.5 68.9706 58.5 64C58.5 59.0294 54.4706 55 49.5 55C44.5294 55 40.5 59.0294 40.5 64C40.5 68.9706 44.5294 73 49.5 73ZM49.5 75C55.5751 75 60.5 70.0751 60.5 64C60.5 57.9249 55.5751 53 49.5 53C43.4249 53 38.5 57.9249 38.5 64C38.5 70.0751 43.4249 75 49.5 75Z" fill="black"/>
<path fill-rule="evenodd" clip-rule="evenodd" d="M19.5 66C23.0899 66 26 63.0899 26 59.5C26 55.9101 23.0899 53 19.5 53C15.9101 53 13 55.9101 13 59.5C13 63.0899 15.9101 66 19.5 66ZM19.5 68C24.1944 68 28 64.1944 28 59.5C28 54.8056 24.1944 51 19.5 51C14.8056 51 11 54.8056 11 59.5C11 64.1944 14.8056 68 19.5 68Z" fill="black"/>
<path fill-rule="evenodd" clip-rule="evenodd" d="M80.5 66C84.0899 66 87 63.0899 87 59.5C87 55.9101 84.0899 53 80.5 53C76.9101 53 74 55.9101 74 59.5C74 63.0899 76.9101 66 80.5 66ZM80.5 68C85.1944 68 89 64.1944 89 59.5C89 54.8056 85.1944 51 80.5 51C75.8056 51 72 54.8056 72 59.5C72 64.1944 75.8056 68 80.5 68Z" fill="black"/>
<path d="M51 59V69H48.5476V62.4474C48.1508 62.7872 47.7659 63.0622 47.3929 63.2723C47.0238 63.4825 46.5595 63.6837 46 63.8759V61.6358C46.8254 61.3362 47.4663 60.9763 47.9226 60.556C48.379 60.1357 48.7361 59.617 48.994 59H51Z" fill="black"/>
<path fill-rule="evenodd" clip-rule="evenodd" d="M49.5 77C56.6797 77 62.5 71.1797 62.5 64C62.5 56.8203 56.6797 51 49.5 51C42.3203 51 36.5 56.8203 36.5 64C36.5 71.1797 42.3203 77 49.5 77ZM49.5 79C57.7843 79 64.5 72.2843 64.5 64C64.5 55.7157 57.7843 49 49.5 49C41.2157 49 34.5 55.7157 34.5 64C34.5 72.2843 41.2157 79 49.5 79Z" fill="black"/>
<path fill-rule="evenodd" clip-rule="evenodd" d="M19.5 69C24.7467 69 29 64.7467 29 59.5C29 54.2533 24.7467 50 19.5 50C14.2533 50 10 54.2533 10 59.5C10 64.7467 14.2533 69 19.5 69ZM19.5 71C25.8513 71 31 65.8513 31 59.5C31 53.1487 25.8513 48 19.5 48C13.1487 48 8 53.1487 8 59.5C8 65.8513 13.1487 71 19.5 71Z" fill="black"/>
<path fill-rule="evenodd" clip-rule="evenodd" d="M80.5 69C85.7467 69 90 64.7467 90 59.5C90 54.2533 85.7467 50 80.5 50C75.2533 50 71 54.2533 71 59.5C71 64.7467 75.2533 69 80.5 69ZM80.5 71C86.8513 71 92 65.8513 92 59.5C92 53.1487 86.8513 48 80.5 48C74.1487 48 69 53.1487 69 59.5C69 65.8513 74.1487 71 80.5 71Z" fill="black"/>
<path fill-rule="evenodd" clip-rule="evenodd" d="M42.5 47C42.5 45.8954 43.3954 45 44.5 45H54.5C55.6046 45 56.5 45.8954 56.5 47V51H54.5L54.5 47H44.5V51H42.5V47Z" fill="black"/>
<path fill-rule="evenodd" clip-rule="evenodd" d="M14 47.5C14 46.3954 14.8954 45.5 16 45.5H23C24.1046 45.5 25 46.3954 25 47.5V49.5H23V47.5H16V49.5H14V47.5Z" fill="black"/>
<path fill-rule="evenodd" clip-rule="evenodd" d="M75 47.5C75 46.3954 75.8954 45.5 77 45.5H84C85.1046 45.5 86 46.3954 86 47.5V49.5H84V47.5H77V49.5H75V47.5Z" fill="black"/>
<path fill-rule="evenodd" clip-rule="evenodd" d="M36.6411 13L45.5144 44.5H51.8227L42.5058 13H36.6411ZM34.6602 11C34.3288 11 34.0891 11.3166 34.1789 11.6356L43.8972 46.1356C43.958 46.3511 44.1546 46.5 44.3785 46.5H53.8306C54.1647 46.5 54.4048 46.1786 54.3101 45.8582L44.1058 11.3582C44.043 11.1458 43.8479 11 43.6264 11H34.6602Z" fill="black"/>
<path fill-rule="evenodd" clip-rule="evenodd" d="M10.6142 22L16.8473 45H20.3516L13.8068 22H10.6142ZM8.6536 20C8.32425 20 8.08486 20.3129 8.17101 20.6308L15.2171 46.6308C15.2761 46.8487 15.4739 47 15.6997 47H22.3379C22.6699 47 22.9097 46.6824 22.8188 46.3632L15.4205 20.3632C15.3593 20.1482 15.163 20 14.9396 20H8.6536Z" fill="black"/>
<path fill-rule="evenodd" clip-rule="evenodd" d="M71.6142 22L77.8473 45H81.3516L74.8068 22H71.6142ZM69.6536 20C69.3242 20 69.0849 20.3129 69.171 20.6308L76.2171 46.6308C76.2761 46.8487 76.4739 47 76.6997 47H83.3379C83.6699 47 83.9097 46.6824 83.8188 46.3632L76.4205 20.3632C76.3593 20.1482 76.163 20 75.9396 20H69.6536Z" fill="black"/>
<path d="M57.8751 11.3166C57.9504 11.1255 58.1349 11 58.3402 11H66.2938C66.6386 11 66.8799 11.3408 66.7654 11.6661L54.6175 46.1661C54.5471 46.3661 54.358 46.5 54.1459 46.5H49.5H44.7346C44.3819 46.5 44.1401 46.1447 44.2695 45.8166L57.8751 11.3166Z" fill="white"/>
<path fill-rule="evenodd" clip-rule="evenodd" d="M59.3611 13L46.9386 44.5H53.0838L64.1754 13H59.3611ZM54.1459 46.5C54.358 46.5 54.5471 46.3661 54.6175 46.1661L66.7654 11.6661C66.8799 11.3408 66.6386 11 66.2938 11H58.3402C58.1349 11 57.9504 11.1255 57.8751 11.3166L44.2695 45.8166C44.1401 46.1447 44.3819 46.5 44.7346 46.5H54.1459Z" fill="black"/>
<path d="M25.8299 20.312C25.9064 20.1234 26.0896 20 26.2932 20H32.287C32.6337 20 32.8752 20.3443 32.7571 20.6703L23.3368 46.6703C23.2651 46.8682 23.0772 47 22.8667 47H19.3043H15.7424C15.3876 47 15.1457 46.6408 15.2791 46.312L25.8299 20.312Z" fill="white"/>
<path fill-rule="evenodd" clip-rule="evenodd" d="M27.3033 22L17.9699 45H21.8147L30.1481 22H27.3033ZM26.2932 20C26.0896 20 25.9064 20.1234 25.8299 20.312L15.2791 46.312C15.1457 46.6408 15.3876 47 15.7424 47H22.8667C23.0772 47 23.2651 46.8682 23.3368 46.6703L32.2753 22L32.7571 20.6703C32.8752 20.3443 32.6337 20 32.287 20H26.2932Z" fill="black"/>
<path d="M86.8299 20.312C86.9064 20.1234 87.0896 20 87.2932 20H93.287C93.6337 20 93.8752 20.3443 93.7571 20.6703L84.3368 46.6703C84.2651 46.8682 84.0772 47 83.8667 47H80.3043H76.7424C76.3876 47 76.1457 46.6408 76.2791 46.312L86.8299 20.312Z" fill="white"/>
<path fill-rule="evenodd" clip-rule="evenodd" d="M88.3033 22L78.9699 45H82.8147L91.1481 22H88.3033ZM87.2932 20C87.0896 20 86.9064 20.1234 86.8299 20.312L76.2791 46.312C76.1457 46.6408 76.3876 47 76.7424 47H83.8667C84.0772 47 84.2651 46.8682 84.3368 46.6703L93.2753 22L93.7571 20.6703C93.8752 20.3443 93.6337 20 93.287 20H87.2932Z" fill="black"/>
<path d="M23.1602 63.7363H16C16.082 63.0293 16.3301 62.3652 16.7441 61.7441C17.1621 61.1191 17.9434 60.3828 19.0879 59.5352C19.7871 59.0156 20.2344 58.6211 20.4297 58.3516C20.625 58.082 20.7227 57.8262 20.7227 57.584C20.7227 57.3223 20.625 57.0996 20.4297 56.916C20.2383 56.7285 19.9961 56.6348 19.7031 56.6348C19.3984 56.6348 19.1484 56.7305 18.9531 56.9219C18.7617 57.1133 18.6328 57.4512 18.5664 57.9355L16.1758 57.7422C16.2695 57.0703 16.4414 56.5469 16.6914 56.1719C16.9414 55.793 17.293 55.5039 17.7461 55.3047C18.2031 55.1016 18.834 55 19.6387 55C20.4785 55 21.1309 55.0957 21.5957 55.2871C22.0645 55.4785 22.4316 55.7734 22.6973 56.1719C22.9668 56.5664 23.1016 57.0098 23.1016 57.502C23.1016 58.0254 22.9473 58.5254 22.6387 59.002C22.334 59.4785 21.7773 60.002 20.9688 60.5723C20.4883 60.9043 20.166 61.1367 20.002 61.2695C19.8418 61.4023 19.6523 61.5762 19.4336 61.791H23.1602V63.7363Z" fill="black"/>
<path d="M79.3526 57.6656L77.1272 57.2559C77.3121 56.5277 77.6667 55.9697 78.1908 55.5818C78.7187 55.1939 79.4644 55 80.4277 55C81.5337 55 82.3333 55.2117 82.8266 55.6352C83.3198 56.0587 83.5665 56.591 83.5665 57.2322C83.5665 57.6082 83.4663 57.9485 83.2659 58.2533C83.0655 58.558 82.763 58.8252 82.3584 59.0547C82.6859 59.1379 82.9364 59.2348 83.1098 59.3456C83.3911 59.5237 83.6089 59.7592 83.763 60.0521C83.921 60.341 84 60.6873 84 61.091C84 61.5976 83.8709 62.0844 83.6127 62.5515C83.3545 63.0145 82.9827 63.3727 82.4971 63.626C82.0116 63.8753 81.3738 64 80.5838 64C79.8131 64 79.2042 63.907 78.7572 63.721C78.3141 63.535 77.948 63.2639 77.659 62.9077C77.3738 62.5475 77.1541 62.0963 77 61.5541L79.3526 61.2335C79.4451 61.7203 79.5877 62.0587 79.7803 62.2487C79.9769 62.4347 80.2254 62.5277 80.526 62.5277C80.842 62.5277 81.104 62.409 81.3121 62.1715C81.5241 61.934 81.6301 61.6174 81.6301 61.2216C81.6301 60.8179 81.5279 60.5053 81.3237 60.2836C81.1233 60.062 80.8497 59.9512 80.5029 59.9512C80.3179 59.9512 80.0636 59.9987 79.7399 60.0937L79.8613 58.3661C79.9923 58.3859 80.0944 58.3958 80.1676 58.3958C80.4759 58.3958 80.7322 58.2949 80.9364 58.093C81.1445 57.8912 81.2486 57.6517 81.2486 57.3747C81.2486 57.1095 81.1715 56.8978 81.0173 56.7394C80.8632 56.5811 80.6513 56.502 80.3815 56.502C80.104 56.502 79.8786 56.5891 79.7052 56.7632C79.5318 56.9334 79.4143 57.2342 79.3526 57.6656Z" fill="black"/>
</svg>
