<svg width="100" height="100" viewBox="0 0 100 100" fill="none" xmlns="http://www.w3.org/2000/svg">
<rect width="100" height="100" fill="white"/>
<path fill-rule="evenodd" clip-rule="evenodd" d="M38.4731 59.606L30.1091 81.1386L34.1065 79.3283C35.3827 78.7503 36.8846 79.3337 37.4361 80.6216L39.1634 84.6557L47.5274 63.123L38.4731 59.606ZM49.9349 62.4489C50.0348 62.1915 49.9072 61.9018 49.6498 61.8018L37.7991 57.1986C37.5417 57.0986 37.252 57.2262 37.152 57.4836L26.9141 83.8401C26.7519 84.2576 27.1784 84.6614 27.5865 84.4766L34.9316 81.1502C35.1868 81.0346 35.4872 81.1512 35.5975 81.4088L38.7713 88.8212C38.9476 89.233 39.5348 89.223 39.697 88.8054L49.9349 62.4489Z" fill="black"/>
<path fill-rule="evenodd" clip-rule="evenodd" d="M61.656 59.6009L70.0214 81.1369L66.0148 79.3249C64.7392 78.748 63.2386 79.3309 62.6869 80.6175L60.954 84.659L52.5886 63.123L61.656 59.6009ZM50.1812 62.449C50.0812 62.1916 50.2088 61.9018 50.4662 61.8018L62.3301 57.1935C62.5875 57.0935 62.8772 57.2211 62.9772 57.4785L73.2153 83.8358C73.3775 84.2533 72.9513 84.657 72.5432 84.4724L65.1906 81.1472C64.9355 81.0318 64.6354 81.1484 64.5251 81.4057L61.345 88.8223C61.1685 89.2338 60.5815 89.2237 60.4194 88.8063L50.1812 62.449Z" fill="black"/>
<path d="M48.0815 11.2574C49.2466 10.4939 50.7536 10.4939 51.9186 11.2574L54.0971 12.6852C54.8554 13.1822 55.7771 13.3655 56.6679 13.1966L59.2269 12.7111C60.5955 12.4515 61.9877 13.0282 62.7719 14.1795L64.2381 16.3322C64.7486 17.0817 65.5299 17.6037 66.4176 17.7885L68.9675 18.3193C70.3313 18.6032 71.3969 19.6688 71.6808 21.0326L72.2116 23.5825C72.3964 24.4702 72.9185 25.2515 73.6679 25.762L75.8206 27.2282C76.9719 28.0124 77.5486 29.4046 77.289 30.7732L76.8036 33.3322C76.6346 34.223 76.8179 35.1447 77.3149 35.903L78.7427 38.0815C79.5062 39.2465 79.5062 40.7535 78.7427 41.9186L77.3149 44.097C76.8179 44.8554 76.6346 45.777 76.8036 46.6678L77.289 49.2268C77.5486 50.5954 76.9719 51.9877 75.8206 52.7718L73.6679 54.2381C72.9185 54.7485 72.3964 55.5298 72.2116 56.4175L71.6808 58.9675C71.3969 60.3312 70.3313 61.3968 68.9675 61.6807L66.4176 62.2115C65.5299 62.3963 64.7486 62.9184 64.2381 63.6678L62.7719 65.8205C61.9877 66.9718 60.5955 67.5485 59.2269 67.2889L56.6679 66.8035C55.7771 66.6345 54.8554 66.8178 54.0971 67.3149L51.9186 68.7426C50.7536 69.5062 49.2466 69.5062 48.0815 68.7426L45.9031 67.3149C45.1447 66.8178 44.2231 66.6345 43.3323 66.8035L40.7733 67.2889C39.4047 67.5485 38.0124 66.9718 37.2283 65.8205L35.762 63.6678C35.2516 62.9184 34.4703 62.3963 33.5826 62.2115L31.0326 61.6807C29.6689 61.3968 28.6033 60.3312 28.3194 58.9675L27.7886 56.4175C27.6038 55.5298 27.0817 54.7485 26.3323 54.2381L24.1796 52.7718C23.0283 51.9877 22.4516 50.5954 22.7112 49.2268L23.1966 46.6678C23.3656 45.777 23.1823 44.8554 22.6852 44.097L21.2575 41.9186C20.4939 40.7535 20.4939 39.2465 21.2575 38.0815L22.6852 35.903C23.1823 35.1447 23.3656 34.223 23.1966 33.3322L22.7112 30.7732C22.4516 29.4046 23.0283 28.0124 24.1796 27.2282L26.3323 25.762C27.0817 25.2515 27.6038 24.4702 27.7886 23.5825L28.3194 21.0326C28.6033 19.6688 29.6689 18.6032 31.0326 18.3193L33.5826 17.7885C34.4703 17.6037 35.2516 17.0817 35.762 16.3322L37.2283 14.1795C38.0124 13.0282 39.4047 12.4515 40.7733 12.7111L43.3323 13.1966C44.2231 13.3655 45.1447 13.1822 45.9031 12.6852L48.0815 11.2574Z" fill="white"/>
<path fill-rule="evenodd" clip-rule="evenodd" d="M53.0007 14.3579L50.8223 12.9302C50.323 12.6029 49.6772 12.6029 49.1778 12.9302L46.9994 14.3579C45.8077 15.139 44.3594 15.4271 42.9595 15.1615L40.4006 14.6761C39.814 14.5648 39.2173 14.812 38.8813 15.3054L37.415 17.4581C36.6129 18.6358 35.3851 19.4562 33.9902 19.7465L31.4402 20.2774C30.8558 20.399 30.3991 20.8557 30.2774 21.4402L29.7466 23.9901C29.4562 25.3851 28.6358 26.6129 27.4582 27.415L25.3055 28.8812C24.8121 29.2173 24.5649 29.814 24.6762 30.4005L25.1616 32.9595C25.4271 34.3594 25.139 35.8077 24.358 36.9994L22.9303 39.1778C22.603 39.6771 22.603 40.3229 22.9303 40.8223L24.358 43.0007C25.139 44.1924 25.4271 45.6407 25.1616 47.0406L24.6762 49.5995C24.5649 50.1861 24.8121 50.7828 25.3055 51.1188L27.4582 52.5851C28.6358 53.3872 29.4562 54.615 29.7466 56.0099L30.2774 58.5599C30.3991 59.1443 30.8558 59.601 31.4402 59.7227L33.9902 60.2535C35.3851 60.5439 36.6129 61.3643 37.415 62.5419L38.8813 64.6946C39.2173 65.188 39.814 65.4352 40.4006 65.3239L42.9595 64.8385C44.3594 64.573 45.8077 64.8611 46.9994 65.6421L49.1778 67.0699C49.6772 67.3971 50.323 67.3971 50.8223 67.0699L53.0007 65.6421C54.1925 64.8611 55.6408 64.573 57.0406 64.8385L59.5996 65.3239C60.1862 65.4352 60.7828 65.188 61.1189 64.6946L62.5851 62.5419C63.3872 61.3643 64.6151 60.5439 66.01 60.2535L68.5599 59.7227C69.1444 59.601 69.6011 59.1443 69.7228 58.5599L70.2536 56.0099C70.5439 54.615 71.3643 53.3872 72.542 52.5851L74.6947 51.1188C75.1881 50.7828 75.4353 50.1861 75.324 49.5995L74.8386 47.0406C74.573 45.6407 74.8611 44.1924 75.6422 43.0007L77.0699 40.8223C77.3972 40.3229 77.3972 39.6771 77.0699 39.1778L75.6422 36.9994C74.8611 35.8077 74.573 34.3594 74.8386 32.9595L75.324 30.4005C75.4353 29.814 75.1881 29.2173 74.6947 28.8812L72.542 27.415C71.3643 26.6129 70.5439 25.3851 70.2536 23.9901L69.7228 21.4402C69.6011 20.8557 69.1444 20.399 68.5599 20.2774L66.01 19.7465C64.6151 19.4562 63.3872 18.6358 62.5851 17.4581L61.1189 15.3054C60.7828 14.812 60.1861 14.5648 59.5996 14.6761L57.0406 15.1615C55.6408 15.4271 54.1924 15.139 53.0007 14.3579ZM51.9186 11.2574C50.7536 10.4939 49.2466 10.4939 48.0815 11.2574L45.9031 12.6852C45.1447 13.1822 44.2231 13.3655 43.3323 13.1966L40.7733 12.7111C39.4047 12.4515 38.0124 13.0282 37.2283 14.1795L35.762 16.3322C35.2516 17.0817 34.4703 17.6037 33.5826 17.7885L31.0326 18.3193C29.6689 18.6032 28.6033 19.6688 28.3194 21.0326L27.7886 23.5825C27.6038 24.4702 27.0817 25.2515 26.3323 25.762L24.1796 27.2282C23.0283 28.0124 22.4516 29.4046 22.7112 30.7732L23.1966 33.3322C23.3656 34.223 23.1823 35.1447 22.6852 35.903L21.2575 38.0815C20.4939 39.2465 20.4939 40.7535 21.2575 41.9186L22.6852 44.097C23.1823 44.8554 23.3656 45.777 23.1966 46.6678L22.7112 49.2268C22.4516 50.5954 23.0283 51.9877 24.1796 52.7718L26.3323 54.2381C27.0817 54.7485 27.6038 55.5298 27.7886 56.4175L28.3194 58.9675C28.6033 60.3312 29.6689 61.3968 31.0326 61.6807L33.5826 62.2115C34.4703 62.3963 35.2516 62.9184 35.762 63.6678L37.2283 65.8205C38.0124 66.9718 39.4047 67.5485 40.7733 67.2889L43.3323 66.8035C44.2231 66.6345 45.1447 66.8178 45.9031 67.3149L48.0815 68.7426C49.2466 69.5062 50.7536 69.5062 51.9186 68.7426L54.0971 67.3149C54.8554 66.8178 55.7771 66.6345 56.6679 66.8035L59.2269 67.2889C60.5955 67.5485 61.9877 66.9718 62.7719 65.8205L64.2381 63.6678C64.7486 62.9184 65.5299 62.3963 66.4176 62.2115L68.9675 61.6807C70.3313 61.3968 71.3969 60.3312 71.6808 58.9675L72.2116 56.4175C72.3964 55.5298 72.9185 54.7485 73.6679 54.2381L75.8206 52.7718C76.9719 51.9877 77.5486 50.5954 77.289 49.2268L76.8036 46.6678C76.6346 45.777 76.8179 44.8554 77.3149 44.097L78.7427 41.9186C79.5062 40.7535 79.5062 39.2465 78.7427 38.0815L77.3149 35.903C76.8179 35.1447 76.6346 34.223 76.8036 33.3322L77.289 30.7732C77.5486 29.4046 76.9719 28.0124 75.8206 27.2282L73.6679 25.762C72.9185 25.2515 72.3964 24.4702 72.2116 23.5825L71.6808 21.0326C71.3969 19.6688 70.3313 18.6032 68.9675 18.3193L66.4176 17.7885C65.5299 17.6037 64.7486 17.0817 64.2381 16.3322L62.7719 14.1795C61.9877 13.0282 60.5955 12.4515 59.2269 12.7111L56.6679 13.1966C55.7771 13.3655 54.8554 13.1822 54.0971 12.6852L51.9186 11.2574Z" fill="black"/>
<path fill-rule="evenodd" clip-rule="evenodd" d="M50 58C59.9411 58 68 49.9411 68 40C68 30.0589 59.9411 22 50 22C40.0589 22 32 30.0589 32 40C32 49.9411 40.0589 58 50 58ZM50 60C61.0457 60 70 51.0457 70 40C70 28.9543 61.0457 20 50 20C38.9543 20 30 28.9543 30 40C30 51.0457 38.9543 60 50 60Z" fill="black"/>
<path fill-rule="evenodd" clip-rule="evenodd" d="M46.9995 35.4195C46.9278 35.5966 46.7616 35.7174 46.571 35.7308L39.8207 36.2051C39.3723 36.2366 39.1899 36.7978 39.5342 37.0868L44.7165 41.4383C44.8628 41.5611 44.9264 41.7566 44.8802 41.942L43.2453 48.5085C43.1367 48.9446 43.614 49.2914 43.9953 49.0534L49.7352 45.4693C49.8973 45.3682 50.1028 45.3682 50.2649 45.4693L56.0047 49.0534C56.386 49.2914 56.8634 48.9446 56.7548 48.5085L55.1199 41.942C55.0737 41.7566 55.1372 41.5611 55.2835 41.4383L60.4659 37.0868C60.8101 36.7978 60.6278 36.2366 60.1794 36.2051L53.4291 35.7308C53.2385 35.7174 53.0722 35.5966 53.0006 35.4195L50.4636 29.1462C50.295 28.7294 49.705 28.7294 49.5365 29.1462L46.9995 35.4195ZM50 33.3345L48.8536 36.1694C48.4955 37.0549 47.664 37.659 46.7112 37.7259L43.6608 37.9402L46.0026 39.9066C46.7342 40.5208 47.0517 41.4982 46.821 42.4252L46.0822 45.3925L48.6759 43.7729C49.4862 43.267 50.5139 43.267 51.3241 43.7729L53.9179 45.3925L53.1791 42.4252C52.9483 41.4982 53.2659 40.5208 53.9974 39.9066L56.3393 37.9402L53.2889 37.7259C52.336 37.659 51.5046 37.0549 51.1465 36.1694L50 33.3345Z" fill="black"/>
</svg>
