<svg width="100" height="100" viewBox="0 0 100 100" fill="none" xmlns="http://www.w3.org/2000/svg">
<rect width="100" height="100" fill="white"/>
<path fill-rule="evenodd" clip-rule="evenodd" d="M69 49H91V91H9V79H29.5V69H49V59H69V49ZM71 51V61H51V71H31.5V81H11V89H89V51H71Z" fill="black"/>
<path fill-rule="evenodd" clip-rule="evenodd" d="M74.5 23C73.6716 23 73 23.6716 73 24.5C73 25.3284 73.6716 26 74.5 26H87.5C88.3284 26 89 25.3284 89 24.5C89 23.6716 88.3284 23 87.5 23H74.5Z" fill="black"/>
<path fill-rule="evenodd" clip-rule="evenodd" d="M75.5 44C74.6716 44 74 44.6716 74 45.5C74 46.3284 74.6716 47 75.5 47H86.5C87.3284 47 88 46.3284 88 45.5C88 44.6716 87.3284 44 86.5 44H75.5Z" fill="black"/>
<path fill-rule="evenodd" clip-rule="evenodd" d="M82 42H80C79.2597 42 78.6134 42.4022 78.2676 43H83.7324C83.3866 42.4022 82.7403 42 82 42ZM85.874 43C85.4299 41.2748 83.8638 40 82 40H80C77.7909 40 76 41.7909 76 44C76 44.5523 76.4477 45 77 45H86V44C86 43.6547 85.9562 43.3196 85.874 43Z" fill="black"/>
<path fill-rule="evenodd" clip-rule="evenodd" d="M79 35V41H83V35H79Z" fill="black"/>
<path fill-rule="evenodd" clip-rule="evenodd" d="M85 27H77V29.7931C77 32.1165 78.8835 34 81.2069 34C83.3018 34 85 32.3018 85 30.2069V27ZM75 25V29.7931C75 33.2211 77.7789 36 81.2069 36C84.4063 36 87 33.4063 87 30.2069V25H75Z" fill="black"/>
<path fill-rule="evenodd" clip-rule="evenodd" d="M88.4827 27H86.6155V25H88.4827C90.9049 25 92.6402 27.3378 91.9389 29.6562C91.0274 32.6697 88.3367 34.7976 85.1942 34.99L85.0612 34.9981L84.939 33.0019L85.072 32.9937C87.3795 32.8524 89.3553 31.29 90.0246 29.0772C90.3374 28.0429 89.5633 27 88.4827 27Z" fill="black"/>
<path fill-rule="evenodd" clip-rule="evenodd" d="M73.4818 27H75.3846V25H73.4818C71.0755 25 69.3467 27.3153 70.0303 29.6224C70.9548 32.7426 73.7861 34.9104 77.0394 34.9891L77.4758 34.9997L77.5242 33.0003L77.0877 32.9897L77.0636 33.9894L77.0877 32.9897C74.7021 32.932 72.6259 31.3423 71.9479 29.0542C71.6441 28.0289 72.4124 27 73.4818 27Z" fill="black"/>
</svg>
