<svg width="100" height="100" viewBox="0 0 100 100" fill="none" xmlns="http://www.w3.org/2000/svg">
<rect width="100" height="100" fill="white"/>
<path fill-rule="evenodd" clip-rule="evenodd" d="M62 57C64.2091 57 66 55.2091 66 53C66 50.7909 64.2091 49 62 49C59.7909 49 58 50.7909 58 53C58 55.2091 59.7909 57 62 57ZM62 59C65.3137 59 68 56.3137 68 53C68 49.6863 65.3137 47 62 47C58.6863 47 56 49.6863 56 53C56 56.3137 58.6863 59 62 59Z" fill="black"/>
<path fill-rule="evenodd" clip-rule="evenodd" d="M71.9955 61.0818C73.4788 59.3882 74 56.8023 74 53C74 46.3726 68.6274 41 62 41C55.3726 41 50 46.3726 50 53C50 56.8752 50.4148 59.4321 51.8342 61.106C53.1915 62.7067 55.9326 64 62 64C67.7803 64 70.5598 62.721 71.9955 61.0818ZM62 66C74 66 76 60.732 76 53C76 45.268 69.732 39 62 39C54.268 39 48 45.268 48 53C48 60.732 49.49 66 62 66Z" fill="black"/>
<path fill-rule="evenodd" clip-rule="evenodd" d="M50.9 34.6205C48.8499 31.2891 51.2467 27 55.1583 27H67.8032C71.5865 27 73.9992 31.0393 72.2055 34.3705L68.3805 41.4741L66.6196 40.5259L70.4446 33.4223C71.5208 31.4236 70.0732 29 67.8032 29H55.1583C52.8113 29 51.3733 31.5735 52.6033 33.5723L56.8517 40.4759L55.1484 41.5241L50.9 34.6205Z" fill="black"/>
<path fill-rule="evenodd" clip-rule="evenodd" d="M47.5948 34.6015C44.7954 29.9358 48.1562 24 53.5972 24H69.0347C74.3097 24 77.6893 29.6132 75.2212 34.2752L70.8839 42.4679L69.1163 41.5321L73.4536 33.3394C75.2165 30.0094 72.8025 26 69.0347 26H53.5972C49.7108 26 47.3102 30.2399 49.3098 33.5725L54.3576 41.9855L52.6426 43.0145L47.5948 34.6015Z" fill="black"/>
<path d="M36.7309 59.6573C34.6722 65.8126 37.037 72.1515 42.0128 73.8157L46.9999 76L56.6593 54.5236L49.4679 51.5255C44.4922 49.8613 38.7896 53.502 36.7309 59.6573Z" fill="white"/>
<path fill-rule="evenodd" clip-rule="evenodd" d="M42.7326 71.9476L45.9883 73.3735L53.9919 55.5784L48.7703 53.4015C45.2059 52.258 40.4578 54.8196 38.6276 60.2917C36.7866 65.7962 39.0759 70.7245 42.6472 71.919L42.7326 71.9476ZM49.4679 51.5255L56.6593 54.5236L46.9999 76L42.0128 73.8157C37.037 72.1515 34.6722 65.8126 36.7309 59.6573C38.7896 53.502 44.4922 49.8613 49.4679 51.5255Z" fill="black"/>
<path fill-rule="evenodd" clip-rule="evenodd" d="M31.2696 41.9507C27.0021 40.5484 21.776 43.6475 19.8312 49.4623C18.8477 52.4029 18.6601 55.2909 19.2629 57.6315C19.8595 59.9483 21.2173 61.7099 23.3715 62.5716L23.389 62.5786L27.9062 64.5862L27.0939 66.4139L22.6107 64.4213C19.7756 63.2803 18.0512 60.946 17.326 58.1302C16.6055 55.3322 16.8593 52.0427 17.9345 48.828C20.102 42.3473 26.259 38.1659 31.9371 40.065L31.9713 40.0764L39.196 43.0885L38.4264 44.9345L31.2696 41.9507Z" fill="black"/>
<path fill-rule="evenodd" clip-rule="evenodd" d="M37.4326 44.5731C33.1936 43.1554 27.8483 46.4313 25.7885 52.59C24.7459 55.7071 24.4223 59.5485 25.5883 62.1334C26.1509 63.3808 27.0493 64.3199 28.405 64.8012C29.7907 65.2931 31.7722 65.3478 34.5528 64.5601C35.0841 64.4095 35.637 64.7182 35.7875 65.2496C35.938 65.781 35.6293 66.3338 35.098 66.4843C32.0808 67.3391 29.6461 67.364 27.7359 66.686C25.7958 65.9972 24.5187 64.6263 23.7651 62.9557C22.2988 59.7047 22.7802 55.2789 23.8917 51.9556C26.14 45.2336 32.3544 40.7658 38.0669 42.6764C41.025 43.6658 42.1218 46.0387 42.4751 48.01C42.651 48.9911 42.6523 49.9033 42.6119 50.5644C42.5916 50.897 42.5604 51.1715 42.5337 51.366C42.5203 51.4634 42.508 51.5411 42.4986 51.5965C42.4939 51.6242 42.49 51.6464 42.487 51.6626L42.4833 51.6826L42.482 51.6892L42.4815 51.6916L42.4813 51.6926C42.4812 51.6931 42.4812 51.6935 41.5001 51.4999L42.4812 51.6935C42.3742 52.2353 41.8483 52.5879 41.3065 52.481C40.7653 52.3742 40.4129 51.8495 40.5186 51.3084C40.5187 51.308 40.5187 51.3076 40.5188 51.3073C40.5188 51.3072 40.5188 51.3071 40.5188 51.3071L40.5199 51.3015C40.5212 51.2941 40.5235 51.2812 40.5266 51.263C40.5328 51.2266 40.5419 51.1693 40.5523 51.0936C40.5732 50.942 40.5988 50.7182 40.6157 50.4425C40.6496 49.8871 40.6463 49.1425 40.5065 48.3629C40.2287 46.8127 39.4503 45.248 37.4326 44.5731Z" fill="black"/>
<path d="M60.5829 68.183C58.5222 74.3445 52.8179 77.9904 47.8421 76.3262C42.8663 74.662 40.5033 68.318 42.564 62.1564C44.6248 55.9949 50.3291 52.3491 55.3049 54.0133C60.2806 55.6775 62.6437 62.0215 60.5829 68.183Z" fill="white"/>
<path fill-rule="evenodd" clip-rule="evenodd" d="M48.4765 74.4294C52.0462 75.6234 56.8424 73.0614 58.6862 67.5486C60.53 62.0359 58.2402 57.1039 54.6705 55.91C51.1008 54.7161 46.3046 57.2781 44.4608 62.7908C42.617 68.3036 44.9068 73.2355 48.4765 74.4294ZM47.8421 76.3262C52.8179 77.9904 58.5222 74.3445 60.5829 68.183C62.6437 62.0215 60.2806 55.6775 55.3049 54.0133C50.3291 52.3491 44.6248 55.9949 42.564 62.1564C40.5033 68.318 42.8663 74.662 47.8421 76.3262Z" fill="black"/>
<path fill-rule="evenodd" clip-rule="evenodd" d="M36.5957 55.9935L32.5991 53.9252C32.3539 53.7983 32.0522 53.8942 31.9253 54.1395C31.7984 54.3847 31.8943 54.6864 32.1395 54.8133L36.1361 56.8816L36.5957 55.9935ZM30.149 53.2203C29.5144 54.4465 29.9941 55.955 31.2203 56.5896L36.9931 59.5771L39.2911 55.1365L33.5184 52.149C32.2921 51.5144 30.7836 51.994 30.149 53.2203Z" fill="black"/>
</svg>
