<svg width="100" height="100" viewBox="0 0 100 100" fill="none" xmlns="http://www.w3.org/2000/svg">
<rect width="100" height="100" fill="white"/>
<path fill-rule="evenodd" clip-rule="evenodd" d="M33 75.5V41.5C33 40.1193 31.8807 39 30.5 39C29.1193 39 28 40.1193 28 41.5V75.5C28 76.8807 29.1193 78 30.5 78C31.8807 78 33 76.8807 33 75.5ZM30.5 37C28.0147 37 26 39.0147 26 41.5V75.5C26 77.9853 28.0147 80 30.5 80C32.9853 80 35 77.9853 35 75.5V41.5C35 39.0147 32.9853 37 30.5 37Z" fill="black"/>
<path fill-rule="evenodd" clip-rule="evenodd" d="M21 75.5V52.5C21 51.1193 19.8807 50 18.5 50C17.1193 50 16 51.1193 16 52.5V75.5C16 76.8807 17.1193 78 18.5 78C19.8807 78 21 76.8807 21 75.5ZM18.5 48C16.0147 48 14 50.0147 14 52.5V75.5C14 77.9853 16.0147 80 18.5 80C20.9853 80 23 77.9853 23 75.5V52.5C23 50.0147 20.9853 48 18.5 48Z" fill="black"/>
<path fill-rule="evenodd" clip-rule="evenodd" d="M59.7183 46H63.1972L65.2295 43H57.7275L59.7183 46ZM58.3485 47.5529C58.5338 47.8321 58.8466 48 59.1817 48H63.7276C64.0594 48 64.3695 47.8355 64.5555 47.5608L67.9426 42.5608C68.3925 41.8968 67.9168 41 67.1147 41H55.8637C55.066 41 54.5894 41.8882 55.0305 42.5529L58.3485 47.5529Z" fill="black"/>
<path fill-rule="evenodd" clip-rule="evenodd" d="M74.0383 57.6389L74.0599 60.8081L77.4677 62.8848L77.4178 55.5621L74.0383 57.6389ZM72.5106 56.2297C72.2127 56.4128 72.0321 56.7383 72.0345 57.0881L72.0638 61.3781C72.0662 61.7246 72.2477 62.0453 72.5437 62.2257L77.9599 65.5263C78.6289 65.9339 79.4853 65.4493 79.48 64.6661L79.4056 53.7747C79.4003 52.9956 78.5454 52.5212 77.8817 52.929L72.5106 56.2297Z" fill="black"/>
<path fill-rule="evenodd" clip-rule="evenodd" d="M59.7183 72H63.1972L65.2295 75H57.7275L59.7183 72ZM58.3485 70.4471C58.5338 70.1679 58.8466 70 59.1817 70H63.7276C64.0594 70 64.3695 70.1645 64.5555 70.4392L67.9426 75.4392C68.3925 76.1032 67.9168 77 67.1147 77H55.8637C55.066 77 54.5894 76.1118 55.0305 75.4471L58.3485 70.4471Z" fill="black"/>
<path fill-rule="evenodd" clip-rule="evenodd" d="M48.4317 57.6174L48.4533 60.7866L45.0742 62.9062L45.0242 55.5836L48.4317 57.6174ZM49.94 56.1891C50.2405 56.3684 50.4254 56.6916 50.4278 57.0414L50.4571 61.3314C50.4595 61.6779 50.2823 62.0008 49.9888 62.1849L44.6181 65.5537C43.9548 65.9698 43.0918 65.4961 43.0865 64.7128L43.0121 53.8215C43.0068 53.0423 43.8551 52.5571 44.5243 52.9565L49.94 56.1891Z" fill="black"/>
<path fill-rule="evenodd" clip-rule="evenodd" d="M56 59.5C56 62.5376 58.4624 65 61.5 65C64.5376 65 67 62.5376 67 59.5C67 56.4624 64.5376 54 61.5 54C58.4624 54 56 56.4624 56 59.5ZM61.5 52C57.3579 52 54 55.3579 54 59.5C54 63.6421 57.3579 67 61.5 67C65.6421 67 69 63.6421 69 59.5C69 55.3579 65.6421 52 61.5 52Z" fill="black"/>
<path fill-rule="evenodd" clip-rule="evenodd" d="M41 59.5C41 70.8218 50.1782 80 61.5 80C72.8218 80 82 70.8218 82 59.5C82 48.1782 72.8218 39 61.5 39C50.1782 39 41 48.1782 41 59.5ZM61.5 37C49.0736 37 39 47.0736 39 59.5C39 71.9264 49.0736 82 61.5 82C73.9264 82 84 71.9264 84 59.5C84 47.0736 73.9264 37 61.5 37Z" fill="black"/>
<path fill-rule="evenodd" clip-rule="evenodd" d="M59 59.5C59 60.8807 60.1193 62 61.5 62C62.8807 62 64 60.8807 64 59.5C64 58.1193 62.8807 57 61.5 57C60.1193 57 59 58.1193 59 59.5ZM61.5 55C59.0147 55 57 57.0147 57 59.5C57 61.9853 59.0147 64 61.5 64C63.9853 64 66 61.9853 66 59.5C66 57.0147 63.9853 55 61.5 55Z" fill="black"/>
</svg>
