<svg width="100" height="100" viewBox="0 0 100 100" fill="none" xmlns="http://www.w3.org/2000/svg">
<rect width="100" height="100" fill="white"/>
<path fill-rule="evenodd" clip-rule="evenodd" d="M41 23.6362V30.5C41 32.3794 41.7654 33.5591 42.6923 34.3108C43.6574 35.0933 44.8341 35.4353 45.5905 35.5041C46.1406 35.5541 46.5459 36.0405 46.4959 36.5905C46.4459 37.1406 45.9595 37.5459 45.4095 37.4959C44.3326 37.398 42.7593 36.94 41.4327 35.8642C40.0679 34.7575 39 33.0206 39 30.5V23.369L39.0338 23.2423C39.7646 20.5018 42.9709 15 50 15C57.0291 15 60.2354 20.5018 60.9662 23.2423L61 23.369V30.4528C61.0895 31.4498 60.9355 32.929 60.1917 34.3015C59.412 35.7401 58.0028 37.0192 55.6961 37.4806C55.1546 37.5889 54.6277 37.2377 54.5194 36.6961C54.4111 36.1546 54.7623 35.6277 55.3039 35.5194C56.9972 35.1808 57.9213 34.2932 58.4333 33.3485C58.968 32.3619 59.0719 31.2691 59.005 30.5995L59 30.5499V23.6362C58.3366 21.3411 55.6693 17 50 17C44.3307 17 41.6634 21.3412 41 23.6362Z" fill="black"/>
<path fill-rule="evenodd" clip-rule="evenodd" d="M53.3298 23.2336C52.8468 24.9235 51.4091 26.095 49.9683 26.8586C48.5067 27.6332 46.8342 28.1088 45.5 28.3555V29.8346C45.9079 31.0113 46.6393 32.6064 47.5503 33.7715C48.0265 34.3806 48.5011 34.8059 48.9418 35.0239C49.3464 35.224 49.712 35.2497 50.1061 35.0808C52.4569 34.0733 53.9718 31.8835 54.5 30.7835V26.1723C54.1654 25.2355 53.741 24.1437 53.3298 23.2336ZM54.4936 21.0921C55.1668 22.2723 55.9416 24.2465 56.443 25.6672L56.5 25.8287V31.2052L56.4191 31.3939C55.8577 32.7038 54.0087 35.5842 50.8939 36.9191C49.888 37.3502 48.9078 37.2383 48.0551 36.8166C47.2385 36.4127 46.5443 35.7318 45.9747 35.0034C44.8336 33.544 43.9886 31.628 43.5513 30.3162L43.5 30.1622V26.6172L44.376 26.5077C45.6287 26.3511 47.5028 25.9018 49.0317 25.0914C50.5969 24.2619 51.5 23.23 51.5 22C51.5 21.525 51.5308 21.0991 51.6228 20.7601C51.6684 20.5923 51.7477 20.3727 51.9033 20.1737C52.0765 19.9521 52.3625 19.7397 52.754 19.7106C53.1065 19.6843 53.3818 19.8207 53.5401 19.9239C53.7047 20.0311 53.8368 20.1628 53.9366 20.2763C54.1374 20.5047 54.325 20.7963 54.4936 21.0921Z" fill="black"/>
<path fill-rule="evenodd" clip-rule="evenodd" d="M46.5001 38.2792V35H48.5001V39.7208L39.4052 42.7524L36.9498 60.431L30.2211 68.195L34.4483 66.6376L39.0525 62.0334L40.5085 50.8707L42.493 50.8809L44.0466 63.8279L39.7475 68.6644L38.2527 67.3356L41.9536 63.1721L41.4588 59.0486L40.9477 62.9666L35.5519 68.3624L25.4154 72.0969L18.4041 68.2017L23.6391 66.706L24.2882 63.4605L29.2761 66.2316L35.0504 59.569L37.595 41.2476L46.5001 38.2792ZM29.3017 68.5337L25.712 66.5395L25.3611 68.294L23.5961 68.7983L25.5848 69.9031L29.3017 68.5337Z" fill="black"/>
<path fill-rule="evenodd" clip-rule="evenodd" d="M53.9999 38.2792V34.2316H51.9999V39.7207L61.0948 42.7524L63.5502 60.431L70.2789 68.195L66.0517 66.6376L61.4475 62.0334L59.9915 50.8706L58.007 50.8808L56.4534 63.8278L60.7525 68.6643L62.2473 67.3356L58.5464 63.1721L59.0412 59.0485L59.5523 62.9666L64.9481 68.3624L75.0846 72.0969L82.0959 68.2017L76.8609 66.706L76.2118 63.4605L71.2239 66.2316L65.4496 59.5689L62.905 41.2476L53.9999 38.2792ZM71.1983 68.5337L74.788 66.5394L75.1389 68.294L76.9039 68.7983L74.9152 69.9031L71.1983 68.5337Z" fill="black"/>
<path fill-rule="evenodd" clip-rule="evenodd" d="M33.5805 66.45C37.2606 66.4238 41.5375 67.5405 44.3418 68.5602L43.6583 70.4398C40.9627 69.4596 36.9395 68.4262 33.5947 68.45C31.9163 68.4619 30.5274 68.7404 29.566 69.317C28.6686 69.8552 28.0791 70.6863 27.9983 72.0587C27.8365 74.8095 29.8562 76.8271 33.0144 78.2649C36.1135 79.6757 39.9402 80.3347 42.5316 80.5H59.1926L66.1598 83.2869L68.0658 80.7457L67.4453 80.332L68.5547 78.6679L70.9343 80.2543L66.8402 85.7131L58.8074 82.5H42.4689L42.4377 82.4981C39.6962 82.3267 35.591 81.6353 32.1857 80.0851C28.8273 78.5562 25.7636 75.9905 26.0018 71.9413C26.1211 69.9137 27.0691 68.4823 28.5373 67.6018C29.9415 66.7597 31.7464 66.4631 33.5805 66.45Z" fill="black"/>
<path fill-rule="evenodd" clip-rule="evenodd" d="M66.9905 69.1858C64.0169 69.0083 60.5728 69.7235 58.3061 70.4521L57.6941 68.548C60.0941 67.7766 63.8 66.9918 67.1097 67.1893C68.7651 67.2881 70.4044 67.637 71.7388 68.4293C73.1084 69.2425 74.121 70.5054 74.4807 72.3039C74.8524 74.1627 74.2559 75.6926 73.0871 76.857C71.9662 77.9735 70.3438 78.7375 68.6193 79.2683C65.1567 80.3341 60.86 80.5846 57.9707 80.4997L57.7439 80.493L57.5421 80.3891C54.811 78.9821 50.5154 76.9215 46.5151 75.3156C44.513 74.5119 42.6069 73.831 41.0186 73.4013C40.2242 73.1864 39.5287 73.0397 38.9524 72.969C38.3594 72.8963 37.9674 72.914 37.7426 72.9702L37.2576 71.0299C37.8328 70.8861 38.5095 70.8997 39.1959 70.9839C39.8988 71.0701 40.6932 71.2414 41.5409 71.4707C43.2371 71.9296 45.2248 72.6425 47.2601 73.4596C51.2361 75.0557 55.4784 77.0838 58.2541 78.5063C61.0222 78.5684 64.9447 78.3067 68.0309 77.3568C69.6231 76.8668 70.8881 76.2245 71.6756 75.44C72.4152 74.7033 72.7478 73.8374 72.5195 72.6962C72.2792 71.4947 71.6376 70.6952 70.7177 70.149C69.7624 69.5818 68.4768 69.2745 66.9905 69.1858Z" fill="black"/>
<path fill-rule="evenodd" clip-rule="evenodd" d="M58.8822 70.9701L59.1521 71.0116C60.3118 71.19 62.0709 71.6409 63.6191 72.4353C65.1161 73.2034 66.7177 74.4523 66.99 76.3586L65.0101 76.6414C64.8824 75.7476 64.0673 74.9132 62.706 74.2147C61.5056 73.5987 60.1113 73.212 59.1116 73.0324L51.8714 75.9285L51.1287 74.0715L58.8822 70.9701Z" fill="black"/>
<path fill-rule="evenodd" clip-rule="evenodd" d="M31.7407 81.1508L33.2592 79.8492L35.8781 82.9046L40.3039 82.0195L40.6961 83.9806L35.1218 85.0955L31.7407 81.1508Z" fill="black"/>
<path fill-rule="evenodd" clip-rule="evenodd" d="M48.8149 45.2C46.4537 44.6608 44.6166 42.6086 43.6467 41.0215L45.3533 39.9786C46.2167 41.3915 47.6796 42.8893 49.2601 43.2502C50.0041 43.42 50.8095 43.3491 51.6794 42.8422C52.5742 42.321 53.5877 41.3073 54.6346 39.499L56.3654 40.5011C55.2123 42.4928 53.98 43.8166 52.6862 44.5704C51.3676 45.3386 50.0418 45.4801 48.8149 45.2Z" fill="black"/>
<path fill-rule="evenodd" clip-rule="evenodd" d="M40.876 54.4922L36.876 53.9922L37.124 52.0077L41.124 52.5077L40.876 54.4922Z" fill="black"/>
<path fill-rule="evenodd" clip-rule="evenodd" d="M63.7426 53.9702L59.7426 54.9702L59.2576 53.0299L63.2576 52.0299L63.7426 53.9702Z" fill="black"/>
<path fill-rule="evenodd" clip-rule="evenodd" d="M57.0001 64.5C56.722 64.5 55.2839 64.7262 52.9473 65.8944C52.1514 66.2924 51.2165 66.4193 50.3004 66.4125C49.3739 66.4055 48.3909 66.2607 47.4462 66.0513C45.5586 65.6328 43.7153 64.9314 42.5811 64.408L43.4192 62.592C44.4516 63.0686 46.1583 63.7172 47.8791 64.0987C48.7385 64.2893 49.5742 64.407 50.3154 64.4125C51.0671 64.4182 51.6489 64.3076 52.0529 64.1056C54.5164 62.8738 56.2782 62.5 57.0001 62.5V64.5Z" fill="black"/>
</svg>
