<svg width="100" height="97" viewBox="0 0 100 97" fill="none" xmlns="http://www.w3.org/2000/svg">
<rect width="100" height="97" fill="white"/>
<path fill-rule="evenodd" clip-rule="evenodd" d="M33.9587 64.0834C32.4226 64.0834 30.9495 64.6936 29.8633 65.7797C28.7772 66.8659 28.167 68.339 28.167 69.875C28.167 70.7035 27.4954 71.375 26.667 71.375C25.8386 71.375 25.167 70.7035 25.167 69.875C25.167 67.5433 26.0933 65.3072 27.742 63.6584C29.3908 62.0096 31.627 61.0834 33.9587 61.0834H73.3337C74.1621 61.0834 74.8337 61.7549 74.8337 62.5834C74.8337 63.4118 74.1621 64.0834 73.3337 64.0834H33.9587Z" fill="black"/>
<path fill-rule="evenodd" clip-rule="evenodd" d="M33.9587 20.3334C32.4226 20.3334 30.9495 20.9436 29.8633 22.0297C28.7772 23.1159 28.167 24.589 28.167 26.125V69.875C28.167 71.4111 28.7772 72.8842 29.8633 73.9704C30.9495 75.0565 32.4226 75.6667 33.9587 75.6667H71.8337V20.3334H33.9587ZM33.9587 17.3334C31.627 17.3334 29.3908 18.2596 27.742 19.9084C26.0933 21.5572 25.167 23.7933 25.167 26.125V69.875C25.167 72.2067 26.0933 74.4429 27.742 76.0917C29.3908 77.7405 31.627 78.6667 33.9587 78.6667H73.3337C74.1621 78.6667 74.8337 77.9951 74.8337 77.1667V18.8334C74.8337 18.0049 74.1621 17.3334 73.3337 17.3334H33.9587Z" fill="black"/>
<path fill-rule="evenodd" clip-rule="evenodd" d="M45 35.5C44.8674 35.5 44.7402 35.5527 44.6464 35.6464C44.5527 35.7402 44.5 35.8674 44.5 36V49.0852L49.1281 45.7794C49.6497 45.4069 50.3503 45.4069 50.8719 45.7794L55.5 49.0852V36C55.5 35.8674 55.4473 35.7402 55.3536 35.6464C55.2598 35.5527 55.1326 35.5 55 35.5H45ZM42.5251 33.5251C43.1815 32.8687 44.0717 32.5 45 32.5H55C55.9283 32.5 56.8185 32.8687 57.4749 33.5251C58.1313 34.1815 58.5 35.0717 58.5 36V52C58.5 52.5619 58.186 53.0766 57.6864 53.3338C57.1868 53.5909 56.5854 53.5472 56.1281 53.2206L50 48.8434L43.8719 53.2206C43.4146 53.5472 42.8132 53.5909 42.3136 53.3338C41.814 53.0766 41.5 52.5619 41.5 52V36C41.5 35.0717 41.8687 34.1815 42.5251 33.5251Z" fill="black"/>
</svg>
