<svg width="100" height="97" viewBox="0 0 100 97" fill="none" xmlns="http://www.w3.org/2000/svg">
<rect width="100" height="97" fill="white"/>
<path fill-rule="evenodd" clip-rule="evenodd" d="M85 21.5H15V18.5H85V21.5Z" fill="black"/>
<path fill-rule="evenodd" clip-rule="evenodd" d="M85 67.5H15V64.5H85V67.5Z" fill="black"/>
<path fill-rule="evenodd" clip-rule="evenodd" d="M24.5 20L24.5 66L21.5 66L21.5 20L24.5 20Z" fill="black"/>
<path fill-rule="evenodd" clip-rule="evenodd" d="M78.5 20L78.5 66L75.5 66L75.5 20L78.5 20Z" fill="black"/>
<path fill-rule="evenodd" clip-rule="evenodd" d="M43.5253 64.5H56.9637L65.3643 82.8764L62.6359 84.1236L55.0365 67.5H45.4749L37.8708 84.6092L35.1294 83.3908L43.5253 64.5Z" fill="black"/>
<path fill-rule="evenodd" clip-rule="evenodd" d="M59 74.5H41.5V71.5H59V74.5Z" fill="black"/>
<path fill-rule="evenodd" clip-rule="evenodd" d="M34.1 42.5H43.9L49.5 53H28.5L34.1 42.5ZM35.9 45.5L33.5 50H44.5L42.1 45.5H35.9Z" fill="black"/>
<path fill-rule="evenodd" clip-rule="evenodd" d="M56.1 42.5H65.9L71.5 53H50.5L56.1 42.5ZM57.9 45.5L55.5 50H66.5L64.1 45.5H57.9Z" fill="black"/>
<path fill-rule="evenodd" clip-rule="evenodd" d="M45.1 30.5H54.9L60.5 41H39.5L45.1 30.5ZM46.9 33.5L44.5 38H55.5L53.1 33.5H46.9Z" fill="black"/>
</svg>
