<svg width="100" height="100" viewBox="0 0 100 100" fill="none" xmlns="http://www.w3.org/2000/svg">
<rect width="100" height="100" fill="white"/>
<path fill-rule="evenodd" clip-rule="evenodd" d="M27.5 46V67.6136C27.5 67.8463 27.6491 68.0219 27.8411 68.0702C31.7307 69.0491 42.2243 71.5 49.5 71.5C56.7757 71.5 67.2693 69.0491 71.1589 68.0702C71.3509 68.0219 71.5 67.8463 71.5 67.6136V46H74.5V67.6136C74.5 69.1863 73.4499 70.5871 71.8911 70.9795C68.039 71.949 57.2005 74.5 49.5 74.5C41.7995 74.5 30.961 71.949 27.1089 70.9795C25.5501 70.5872 24.5 69.1863 24.5 67.6136V46H27.5Z" fill="black"/>
<path fill-rule="evenodd" clip-rule="evenodd" d="M48.9788 31.6561L21.5161 40.7569L49.0189 52.3663L78.3195 41.1138L48.9788 31.6561ZM49.5881 28.7005C49.1838 28.5702 48.7486 28.572 48.3454 28.7056L18.0484 38.7457C16.296 39.3264 16.1989 41.7688 17.8997 42.4867L48.2235 55.2868C48.6998 55.4879 49.2356 55.4967 49.7183 55.3113L82.0404 42.8984C83.8018 42.222 83.7328 39.7067 81.9369 39.1278L49.5881 28.7005Z" fill="black"/>
<path fill-rule="evenodd" clip-rule="evenodd" d="M83 38.5C83.8284 38.5 84.5 39.1716 84.5 40L84.5 64C84.5 64.8284 83.8284 65.5 83 65.5C82.1716 65.5 81.5 64.8284 81.5 64L81.5 40C81.5 39.1716 82.1716 38.5 83 38.5Z" fill="black"/>
<path fill-rule="evenodd" clip-rule="evenodd" d="M83 66.5C83.8284 66.5 84.5 67.1716 84.5 68L84.5 73C84.5 73.8284 83.8284 74.5 83 74.5C82.1716 74.5 81.5 73.8284 81.5 73L81.5 68C81.5 67.1716 82.1716 66.5 83 66.5Z" fill="black"/>
<path fill-rule="evenodd" clip-rule="evenodd" d="M83 65C82.4477 65 82 65.4477 82 66C82 66.5523 82.4477 67 83 67C83.5523 67 84 66.5523 84 66C84 65.4477 83.5523 65 83 65ZM83 68C84.1046 68 85 67.1046 85 66C85 64.8954 84.1046 64 83 64C81.8954 64 81 64.8954 81 66C81 67.1046 81.8954 68 83 68Z" fill="black"/>
</svg>
