<svg width="100" height="97" viewBox="0 0 100 97" fill="none" xmlns="http://www.w3.org/2000/svg">
<rect width="100" height="97" fill="white"/>
<path fill-rule="evenodd" clip-rule="evenodd" d="M85 21.5H15V18.5H85V21.5Z" fill="black"/>
<path fill-rule="evenodd" clip-rule="evenodd" d="M85 67.5H15V64.5H85V67.5Z" fill="black"/>
<path fill-rule="evenodd" clip-rule="evenodd" d="M24.5 20L24.5 66L21.5 66L21.5 20L24.5 20Z" fill="black"/>
<path fill-rule="evenodd" clip-rule="evenodd" d="M78.5 20L78.5 66L75.5 66L75.5 20L78.5 20Z" fill="black"/>
<path fill-rule="evenodd" clip-rule="evenodd" d="M43.5248 64.5H56.9632L65.3638 82.8764L62.6354 84.1236L55.036 67.5H45.4744L37.8703 84.6092L35.1289 83.3908L43.5248 64.5Z" fill="black"/>
<path fill-rule="evenodd" clip-rule="evenodd" d="M59 74.5H41.5V71.5H59V74.5Z" fill="black"/>
<path fill-rule="evenodd" clip-rule="evenodd" d="M51.4038 40.975L63.6705 34.8417L62.3289 32.1584L48.5956 39.025L47.2067 51.9879L35.9006 48.2192L28.7617 58.653L31.2376 60.3471L37.0987 51.7808L49.7927 56.0122L51.4038 40.975Z" fill="black"/>
<path fill-rule="evenodd" clip-rule="evenodd" d="M61.6894 34.4377L57.4873 32.9097L58.5125 30.0903L65.3104 32.5623L63.4471 39.3947L60.5528 38.6053L61.6894 34.4377Z" fill="black"/>
</svg>
