<svg width="100" height="97" viewBox="0 0 100 97" fill="none" xmlns="http://www.w3.org/2000/svg">
<rect width="100" height="97" fill="white"/>
<path fill-rule="evenodd" clip-rule="evenodd" d="M40.667 34C40.667 32.8954 41.5624 32 42.667 32H73.0003C74.1049 32 75.0003 32.8954 75.0003 34C75.0003 35.1046 74.1049 36 73.0003 36H42.667C41.5624 36 40.667 35.1046 40.667 34Z" fill="black"/>
<path fill-rule="evenodd" clip-rule="evenodd" d="M40.667 48C40.667 46.8954 41.5624 46 42.667 46H73.0003C74.1049 46 75.0003 46.8954 75.0003 48C75.0003 49.1046 74.1049 50 73.0003 50H42.667C41.5624 50 40.667 49.1046 40.667 48Z" fill="black"/>
<path fill-rule="evenodd" clip-rule="evenodd" d="M40.667 62C40.667 60.8954 41.5624 60 42.667 60H73.0003C74.1049 60 75.0003 60.8954 75.0003 62C75.0003 63.1046 74.1049 64 73.0003 64H42.667C41.5624 64 40.667 63.1046 40.667 62Z" fill="black"/>
<path fill-rule="evenodd" clip-rule="evenodd" d="M29 34C29 32.8954 29.8954 32 31 32H31.0225C32.1271 32 33.0225 32.8954 33.0225 34C33.0225 35.1046 32.1271 36 31.0225 36H31C29.8954 36 29 35.1046 29 34Z" fill="black"/>
<path fill-rule="evenodd" clip-rule="evenodd" d="M29 48C29 46.8954 29.8954 46 31 46H31.0225C32.1271 46 33.0225 46.8954 33.0225 48C33.0225 49.1046 32.1271 50 31.0225 50H31C29.8954 50 29 49.1046 29 48Z" fill="black"/>
<path fill-rule="evenodd" clip-rule="evenodd" d="M29 62C29 60.8954 29.8954 60 31 60H31.0225C32.1271 60 33.0225 60.8954 33.0225 62C33.0225 63.1046 32.1271 64 31.0225 64H31C29.8954 64 29 63.1046 29 62Z" fill="black"/>
</svg>
