<svg width="100" height="100" viewBox="0 0 100 100" fill="none" xmlns="http://www.w3.org/2000/svg">
<rect width="100" height="100" fill="white"/>
<path fill-rule="evenodd" clip-rule="evenodd" d="M84.2897 47.3664C83.7374 47.3664 83.2897 47.8141 83.2897 48.3664V51.8769V70.3774C83.2897 70.9297 82.842 71.3774 82.2897 71.3774H15.0957C14.5434 71.3774 14.0957 70.9297 14.0957 70.3774V33.3764C14.0957 32.8241 14.5434 32.3764 15.0957 32.3764H48.1433C48.6956 32.3764 49.1433 31.9287 49.1433 31.3764V31.3764C49.1433 30.8241 48.6956 30.3764 48.1433 30.3764H13.0957V30.3764C12.5434 30.3764 12.0957 30.8241 12.0957 31.3764V31.3764V72.3774V72.3774C12.0957 72.9297 12.5434 73.3774 13.0957 73.3774V73.3774H84.2897V73.3774C84.842 73.3774 85.2897 72.9297 85.2897 72.3774V72.3774V51.8769V48.3664C85.2897 47.8141 84.842 47.3664 84.2897 47.3664V47.3664Z" fill="black"/>
<path fill-rule="evenodd" clip-rule="evenodd" d="M52.0449 23V44.3034H87V23H52.0449ZM50.0449 20C49.4926 20 49.0449 20.4477 49.0449 21V46.3034C49.0449 46.8557 49.4926 47.3034 50.0449 47.3034H89C89.5523 47.3034 90 46.8557 90 46.3034V21C90 20.4477 89.5523 20 89 20H50.0449Z" fill="black"/>
<path fill-rule="evenodd" clip-rule="evenodd" d="M12.6147 74.8764L12.8549 76.1573H84.0172L84.3374 74.8764H12.6147ZM10.2049 71.8764C9.57876 71.8764 9.10663 72.4453 9.22202 73.0607L10.2122 78.3416C10.3009 78.8146 10.7138 79.1573 11.1951 79.1573H85.5787C86.0376 79.1573 86.4376 78.845 86.5489 78.3998L87.8691 73.1189C88.0269 72.4878 87.5495 71.8764 86.899 71.8764H10.2049Z" fill="black"/>
<path fill-rule="evenodd" clip-rule="evenodd" d="M42.354 72.7865C42.354 72.9634 42.4974 73.1067 42.6742 73.1067H55.4158C55.5927 73.1067 55.736 72.9634 55.736 72.7865H58.736C58.736 74.6202 57.2495 76.1067 55.4158 76.1067H42.6742C40.8405 76.1067 39.354 74.6202 39.354 72.7865H42.354Z" fill="black"/>
<path fill-rule="evenodd" clip-rule="evenodd" d="M29.0227 54.3146C30.3817 54.3146 31.4834 53.2129 31.4834 51.8539C31.4834 50.4949 30.3817 49.3932 29.0227 49.3932C27.6637 49.3932 26.562 50.4949 26.562 51.8539C26.562 53.2129 27.6637 54.3146 29.0227 54.3146ZM29.0227 57.3146C32.0385 57.3146 34.4834 54.8698 34.4834 51.8539C34.4834 48.8381 32.0385 46.3932 29.0227 46.3932C26.0068 46.3932 23.562 48.8381 23.562 51.8539C23.562 54.8698 26.0068 57.3146 29.0227 57.3146Z" fill="black"/>
<path fill-rule="evenodd" clip-rule="evenodd" d="M29.0225 60.3146C26.2237 60.3146 23.8079 61.9545 22.6837 64.3259H35.3613C34.237 61.9545 31.8212 60.3146 29.0225 60.3146ZM38.5764 64.3259C37.3018 60.2625 33.5064 57.3146 29.0225 57.3146C24.5386 57.3146 20.7431 60.2625 19.4685 64.3259C19.1714 65.273 19.0112 66.2807 19.0112 67.3259H39.0337C39.0337 66.2807 38.8736 65.273 38.5764 64.3259Z" fill="black"/>
<path fill-rule="evenodd" clip-rule="evenodd" d="M45.7246 53.6741C45.7246 52.8457 46.3962 52.1741 47.2246 52.1741H76.8033C77.6317 52.1741 78.3033 52.8457 78.3033 53.6741C78.3033 54.5026 77.6317 55.1741 76.8033 55.1741H47.2246C46.3962 55.1741 45.7246 54.5026 45.7246 53.6741ZM45.7246 60.5C45.7246 59.6715 46.3962 59 47.2246 59H76.8033C77.6317 59 78.3033 59.6715 78.3033 60.5C78.3033 61.3284 77.6317 62 76.8033 62H47.2246C46.3962 62 45.7246 61.3284 45.7246 60.5Z" fill="black"/>
<path fill-rule="evenodd" clip-rule="evenodd" d="M69 27.5C67.067 27.5 65.5 29.067 65.5 31C65.5 32.933 67.067 34.5 69 34.5C70.933 34.5 72.5 32.933 72.5 31C72.5 29.067 70.933 27.5 69 27.5ZM62.5 31C62.5 27.4101 65.4101 24.5 69 24.5C72.5899 24.5 75.5 27.4101 75.5 31C75.5 34.5899 72.5899 37.5 69 37.5C65.4101 37.5 62.5 34.5899 62.5 31Z" fill="black"/>
<path fill-rule="evenodd" clip-rule="evenodd" d="M72.7124 33C73.5408 33 74.2124 33.6716 74.2124 34.5V42.5957C74.2124 43.1473 73.9097 43.6543 73.4242 43.9161C72.9387 44.1778 72.3488 44.152 71.888 43.8488L69.2124 42.0886L66.5368 43.8488C66.0761 44.152 65.4861 44.1778 65.0006 43.9161C64.5151 43.6543 64.2124 43.1473 64.2124 42.5957V35C64.2124 34.1716 64.884 33.5 65.7124 33.5C66.5408 33.5 67.2124 34.1716 67.2124 35V39.8134L68.388 39.0399C68.8883 38.7108 69.5365 38.7108 70.0368 39.0399L71.2124 39.8134V34.5C71.2124 33.6716 71.884 33 72.7124 33Z" fill="black"/>
</svg>
