<svg width="100" height="97" viewBox="0 0 100 97" fill="none" xmlns="http://www.w3.org/2000/svg">
<rect width="100" height="97" fill="white"/>
<path fill-rule="evenodd" clip-rule="evenodd" d="M67.7087 25.8385C66.9926 25.8385 66.2835 25.9796 65.6218 26.2536C64.9602 26.5277 64.3591 26.9293 63.8527 27.4357L30.9469 60.3415L28.0549 70.9456L38.6589 68.0536L71.5647 35.1477C72.0711 34.6413 72.4728 34.0402 72.7468 33.3786C73.0209 32.717 73.1619 32.0078 73.1619 31.2917C73.1619 30.5756 73.0209 29.8665 72.7468 29.2049C72.4728 28.5432 72.0711 27.9421 71.5647 27.4357C71.0583 26.9293 70.4572 26.5277 69.7955 26.2536C69.1339 25.9796 68.4248 25.8385 67.7087 25.8385ZM64.4738 23.482C65.4994 23.0571 66.5986 22.8385 67.7087 22.8385C68.8188 22.8385 69.918 23.0571 70.9436 23.482C71.9692 23.9068 72.9011 24.5294 73.686 25.3144C74.471 26.0993 75.0936 27.0312 75.5184 28.0568C75.9433 29.0824 76.1619 30.1816 76.1619 31.2917C76.1619 32.4018 75.9433 33.501 75.5184 34.5266C75.0936 35.5522 74.471 36.4841 73.686 37.269L40.4985 70.4565C40.3139 70.6411 40.0844 70.7743 39.8325 70.843L26.3117 74.5305C25.7924 74.6722 25.237 74.5247 24.8564 74.144C24.4757 73.7634 24.3282 73.208 24.4699 72.6887L28.1574 59.1679C28.2261 58.916 28.3593 58.6865 28.5439 58.5019L61.7314 25.3144C62.5163 24.5294 63.4482 23.9068 64.4738 23.482Z" fill="black"/>
</svg>
