<svg width="100" height="100" viewBox="0 0 100 100" fill="none" xmlns="http://www.w3.org/2000/svg">
<rect width="100" height="100" fill="white"/>
<path fill-rule="evenodd" clip-rule="evenodd" d="M27.2259 17.5586C28.7575 16.0271 30.8347 15.1667 33.0007 15.1667H59.6673C60.0651 15.1667 60.4467 15.3247 60.728 15.606L80.728 35.606C81.0093 35.8873 81.1673 36.2688 81.1673 36.6667V76.6667C81.1673 78.8326 80.3069 80.9098 78.7753 82.4414C77.2438 83.9729 75.1666 84.8333 73.0006 84.8333H33.0007C30.8347 84.8333 28.7575 83.9729 27.2259 82.4414C25.6944 80.9098 24.834 78.8326 24.834 76.6667V23.3333C24.834 21.1674 25.6944 19.0902 27.2259 17.5586ZM33.0007 18.1667C31.6304 18.1667 30.3162 18.711 29.3473 19.6799C28.3783 20.6489 27.834 21.963 27.834 23.3333V76.6667C27.834 78.0369 28.3783 79.3511 29.3473 80.32C30.3162 81.289 31.6304 81.8333 33.0007 81.8333H73.0006C74.3709 81.8333 75.6851 81.289 76.654 80.32C77.623 79.3511 78.1673 78.0369 78.1673 76.6667V37.288L59.046 18.1667H33.0007Z" fill="black"/>
<path fill-rule="evenodd" clip-rule="evenodd" d="M59.666 15.1667C60.4944 15.1667 61.166 15.8382 61.166 16.6667V35.1667H79.666C80.4944 35.1667 81.166 35.8382 81.166 36.6667C81.166 37.4951 80.4944 38.1667 79.666 38.1667H59.666C58.8376 38.1667 58.166 37.4951 58.166 36.6667V16.6667C58.166 15.8382 58.8376 15.1667 59.666 15.1667Z" fill="black"/>
<path fill-rule="evenodd" clip-rule="evenodd" d="M48.5 43C48.5 42.1716 49.1716 41.5 50 41.5H55C55.8284 41.5 56.5 42.1716 56.5 43V51.8659H65C65.8284 51.8659 66.5 52.5374 66.5 53.3659V58.2439C66.5 59.0723 65.8284 59.7439 65 59.7439H56.5V68C56.5 68.8284 55.8284 69.5 55 69.5H50C49.1716 69.5 48.5 68.8284 48.5 68V59.7439H40C39.1716 59.7439 38.5 59.0723 38.5 58.2439V53.3659C38.5 52.5374 39.1716 51.8659 40 51.8659H48.5V43ZM51.5 44.5V53.3659C51.5 54.1943 50.8284 54.8659 50 54.8659H41.5V56.7439H50C50.8284 56.7439 51.5 57.4155 51.5 58.2439V66.5H53.5V58.2439C53.5 57.4155 54.1716 56.7439 55 56.7439H63.5V54.8659H55C54.1716 54.8659 53.5 54.1943 53.5 53.3659V44.5H51.5Z" fill="black"/>
</svg>
