<svg width="100" height="100" viewBox="0 0 100 100" fill="none" xmlns="http://www.w3.org/2000/svg">
<rect width="100" height="100" fill="white"/>
<path d="M43.4996 48.5C38.4996 50 39.4996 54.5 39.4996 54.5L64.4996 57L68.9996 52.5C66.9996 51.5 64.4996 52.5 64.4996 52.5C64.4996 52.5 64.3982 49.6017 63.9996 48.5C63.136 46.113 59.4579 45.8671 56.9996 46.5C54.7226 47.0862 53.4996 50.5 53.4996 50.5C53.4996 50.5 52.2435 50.262 51.4996 50.5C50.8291 50.7146 49.9996 51.5 49.9996 51.5C49.9996 51.5 48.3182 47.0544 43.4996 48.5Z" fill="white"/>
<path fill-rule="evenodd" clip-rule="evenodd" d="M60.7889 47.8355C59.7152 47.6096 58.4172 47.684 57.3736 47.9526C56.8132 48.0969 56.2047 48.672 55.6608 49.5258C55.4126 49.9154 55.2207 50.2957 55.0909 50.5802C55.0266 50.7211 54.9791 50.835 54.9488 50.9104C54.9338 50.948 54.9231 50.9758 54.9169 50.9923L54.9109 51.0082L54.9105 51.0094L54.4795 52.2124L53.2235 51.9744L53.2218 51.9741L53.2201 51.9738L53.1945 51.9693C53.1694 51.9651 53.1296 51.9587 53.0783 51.9513C52.9744 51.9363 52.8298 51.9185 52.6692 51.9068C52.2907 51.8791 52.0369 51.903 51.9568 51.9286C51.8831 51.9522 51.6804 52.0642 51.4106 52.271C51.296 52.3589 51.1963 52.4427 51.1258 52.5042C51.091 52.5346 51.0643 52.5586 51.0477 52.5738L51.0309 52.5893C51.0302 52.59 51.0296 52.5905 51.0293 52.5908C51.0289 52.5911 51.0293 52.5908 51.0293 52.5908L49.5442 53.997L63.9416 55.4367L65.6645 53.7138C65.5436 53.7424 65.4359 53.7716 65.3447 53.7984C65.2392 53.8295 65.1585 53.8565 65.1082 53.8742C65.083 53.883 65.0657 53.8894 65.0568 53.8928L65.0517 53.8947L65.0501 53.8953L63.0751 54.6853L63.0005 52.5527L63.0003 52.5471L62.9995 52.5258L62.9959 52.4387C62.9925 52.362 62.9873 52.2499 62.9797 52.1115C62.9646 51.8338 62.9405 51.454 62.9047 51.0434C62.8268 50.1492 62.7107 49.3465 62.5891 49.0103C62.4115 48.5194 61.8874 48.0665 60.7889 47.8355ZM65.8795 50.6274C65.8042 49.8084 65.6702 48.7086 65.4101 47.9897C64.7241 46.0936 62.9773 45.2301 61.4063 44.8997C59.8104 44.564 58.0402 44.6832 56.6256 45.0474C54.909 45.4893 53.7675 46.9141 53.1306 47.9139C52.908 48.2633 52.7218 48.6013 52.5718 48.8977C52.1389 48.8834 51.5651 48.9041 51.0424 49.0714C50.8382 49.1367 50.6397 49.2252 50.4545 49.3228C50.2138 49.0058 49.9197 48.6702 49.5662 48.3485C48.2007 47.1058 46.0398 46.1719 43.0686 47.0633C40.0524 47.9681 38.69 49.8736 38.1823 51.6504C37.9408 52.4957 37.9029 53.269 37.9224 53.826C37.9323 54.1071 37.957 54.3408 37.9808 54.511C37.9927 54.5964 38.0044 54.6664 38.0141 54.7193C38.019 54.7458 38.0233 54.768 38.0269 54.7858L38.0318 54.809L38.0337 54.8181L38.0346 54.8219L38.035 54.8237C38.0351 54.8246 38.0353 54.8254 39.4996 54.5L38.0353 54.8254L38.2707 55.8846L65.0576 58.5633L71.5319 52.0891L69.6704 51.1584C68.3223 50.4843 66.8907 50.4938 65.8795 50.6274ZM40.9404 53.1366L49.3323 53.9758L48.6 52.0397L48.596 52.03C48.5897 52.0149 48.5773 51.9861 48.5586 51.9459C48.5209 51.8651 48.4587 51.7408 48.3702 51.5911C48.1903 51.2866 47.9184 50.9053 47.547 50.5673C46.8671 49.9486 45.778 49.3825 43.9306 49.9367C41.9468 50.5319 41.3092 51.6264 41.0669 52.4746C41.0013 52.7041 40.962 52.9283 40.9404 53.1366Z" fill="black"/>
<path fill-rule="evenodd" clip-rule="evenodd" d="M76.8491 48.5306C77.48 48.5903 78.3288 48.7654 78.9883 49.3429C79.9895 50.2196 80.4502 51.6266 80.6751 52.5159C80.7997 53.0089 80.8785 53.4578 80.9263 53.7825C80.9504 53.946 80.967 54.0808 80.9778 54.1773C80.9832 54.2256 80.9872 54.2646 80.99 54.2929L80.9933 54.3274L80.9943 54.3385L80.9946 54.3424L80.9947 54.344C80.9948 54.3443 80.9948 54.3453 79.5002 54.4715C80.7566 55.2908 80.7564 55.2911 80.7562 55.2914L80.7484 55.3033L80.7284 55.3338C80.7111 55.36 80.686 55.3979 80.6533 55.4468C80.588 55.5446 80.4924 55.6864 80.3685 55.8671C80.1208 56.2282 79.7597 56.7447 79.301 57.3739C78.3846 58.6309 77.0741 60.3442 75.4967 62.1692C72.389 65.7645 68.0695 70.0035 63.572 71.8582C59.2293 73.649 53.8543 73.4787 49.621 73.0677C48.2875 72.9383 46.9839 72.7743 45.8601 72.6329C45.2158 72.5519 44.6306 72.4783 44.1328 72.4229C43.4108 72.3425 42.8624 72.2981 42.4731 72.2972C42.3688 72.297 42.2894 72.3 42.2311 72.3041C40.9495 73.3389 39.6386 75.0667 38.5901 76.6755C38.0559 77.4954 37.6141 78.2459 37.3062 78.791C37.1526 79.0631 37.033 79.2827 36.9526 79.4327C36.9125 79.5077 36.8822 79.5652 36.8624 79.603L36.8407 79.6447L36.8352 79.6553L36.2801 80.739L16.2148 75.2666L30.9684 59.3781L31.0448 59.315C33.0651 57.6461 35.9514 55.8071 38.9555 54.6363C41.894 53.4912 45.2957 52.8502 48.1094 54.1007C50.0333 54.9558 52.8366 55.0952 55.7828 55.1593C55.9757 55.1635 56.1692 55.1674 56.3628 55.1713C57.5802 55.196 58.7994 55.2207 59.8641 55.313C61.0456 55.4154 62.3249 55.617 63.2719 56.1852C63.2915 56.197 63.3109 56.2089 63.3301 56.2209L72.3051 49.1084L72.5957 49.027L73.0002 50.4715C72.5957 49.027 72.5955 49.0271 72.5957 49.027L72.6024 49.0251L72.6146 49.0218L72.655 49.0109C72.6888 49.0018 72.7363 48.9893 72.7958 48.9742C72.9147 48.944 73.0826 48.903 73.2866 48.8578C73.6918 48.768 74.2538 48.6584 74.8661 48.5845C75.4689 48.5117 76.1741 48.4668 76.8491 48.5306ZM73.6814 51.8455L64.9278 58.7826C65.0053 59.3177 65.0028 59.864 65.0008 60.2885C65.0005 60.3524 65.0002 60.4135 65.0002 60.4715C65.0002 61.6711 64.3486 62.5752 63.6814 63.1634C63.0134 63.7522 62.1952 64.1542 61.4745 64.3945C58.967 65.2303 55.8758 65.347 53.5221 65.2834C52.3236 65.251 51.2724 65.1701 50.5197 65.0973C50.1429 65.0608 49.8394 65.0262 49.6282 65.0005C49.5225 64.9876 49.4398 64.9769 49.3823 64.9693L49.3154 64.9602L49.2966 64.9576L49.2892 64.9566C49.289 64.9565 49.288 64.9564 49.5002 63.4715C49.7123 61.9865 49.7121 61.9865 49.7119 61.9865L49.7139 61.9868L49.7254 61.9884L49.7774 61.9954C49.8247 62.0017 49.8968 62.011 49.9913 62.0225C50.1804 62.0456 50.459 62.0774 50.8087 62.1112C51.5092 62.179 52.4892 62.2544 53.6032 62.2845C55.8745 62.3459 58.5333 62.2126 60.5258 61.5484C60.9767 61.3981 61.4085 61.1677 61.6977 60.9128C61.9875 60.6574 62.0002 60.5068 62.0002 60.4715C62.0002 60.4255 62.0002 60.3809 62.0002 60.3376C62.0005 59.7191 62.0007 59.3692 61.9348 59.0799C61.9065 58.9559 61.8752 58.8967 61.856 58.8681C61.841 58.8455 61.8115 58.8075 61.7284 58.7577C61.4254 58.5759 60.7673 58.4025 59.605 58.3018C58.6478 58.2188 57.5428 58.1962 56.3144 58.1711C56.1185 58.167 55.9196 58.163 55.7176 58.1586C52.9137 58.0976 49.4671 57.9871 46.891 56.8422C45.2046 56.0927 42.773 56.3684 40.0448 57.4316C37.4189 58.4549 34.8405 60.0846 33.0308 61.566L21.7855 73.6763L34.7524 77.2127C35.0799 76.6368 35.533 75.872 36.0767 75.0376C37.2025 73.3101 38.8191 71.1226 40.5936 69.7764C40.9597 69.4987 41.3652 69.4019 41.6184 69.3586C41.9009 69.3102 42.1988 69.2965 42.4802 69.2972C43.0436 69.2986 43.7297 69.3595 44.4646 69.4413C45.0522 69.5067 45.6733 69.5851 46.3336 69.6684C47.4125 69.8047 48.5963 69.9541 49.9109 70.0818C54.1124 70.4896 58.8283 70.5693 62.4283 69.0847C66.2287 67.5175 70.1592 63.7565 73.227 60.2073C74.7373 58.46 75.996 56.8149 76.8768 55.6066C77.3168 55.0031 77.6613 54.5103 77.8945 54.1702C77.9104 54.1471 77.9257 54.1247 77.9404 54.1031C77.9025 53.8649 77.8465 53.5671 77.7666 53.2513C77.5593 52.4315 77.2772 51.8454 77.0268 51.6133C77.0218 51.6138 76.9045 51.5492 76.5666 51.5173C76.1905 51.4817 75.7215 51.503 75.2256 51.5629C74.7394 51.6216 74.2785 51.7108 73.9355 51.7868C73.8398 51.808 73.7544 51.8279 73.6814 51.8455ZM42.1056 72.3196C42.1054 72.3194 42.1104 72.3181 42.1215 72.3161C42.1114 72.3188 42.1059 72.3198 42.1056 72.3196ZM79.5002 54.4715L80.7562 55.2914L81.0382 54.859L80.9948 54.3453L79.5002 54.4715Z" fill="black"/>
<path fill-rule="evenodd" clip-rule="evenodd" d="M19.5391 22.9276L20.4601 20.0724L35.7096 24.9916C35.7998 24.9885 35.912 24.9847 36.0447 24.9803C36.4306 24.9676 36.9897 24.9499 37.6838 24.9303C39.0716 24.8911 41.0006 24.844 43.1653 24.8127C47.4802 24.7501 52.7833 24.7489 56.5993 25.0033C58.751 25.1468 60.2298 26.8011 61.2087 28.476C62.2249 30.2149 62.9694 32.42 63.5136 34.5094C64.0629 36.6181 64.4316 38.7025 64.6628 40.2521C64.7788 41.029 64.8609 41.6764 64.9142 42.1316C64.9409 42.3592 64.9603 42.539 64.9733 42.6632C64.9798 42.7253 64.9846 42.7735 64.9879 42.8068L64.9916 42.8455L64.9927 42.8562L64.993 42.8594L64.9931 42.8605C64.9931 42.8608 64.9931 42.8611 63.4996 43L64.9931 42.8605L65.025 43.2041L63.4041 47.5267L60.5951 46.4733L61.9712 42.8036C61.9613 42.7127 61.9491 42.6045 61.9346 42.4806C61.8843 42.052 61.8063 41.4361 61.6957 40.6948C61.4738 39.2079 61.1238 37.2361 60.6105 35.2656C60.0922 33.2758 59.4304 31.3789 58.6186 29.9897C57.7693 28.5365 56.9982 28.0366 56.3998 27.9967C52.7158 27.7511 47.5189 27.7499 43.2088 27.8124C41.061 27.8435 39.1462 27.8902 37.7685 27.9291C37.0797 27.9486 36.5255 27.9661 36.1439 27.9787C35.9531 27.985 35.8054 27.9901 35.7057 27.9936L35.5555 27.999L35.2908 28.0088L19.5391 22.9276ZM51.6269 30.0766C52.5513 30.0752 54.2933 30.2364 55.2476 31.668C55.3301 31.7916 55.434 31.9433 55.5549 32.1199C56.1148 32.9373 57.039 34.2866 57.8794 35.841C58.8919 37.7139 59.8972 40.0814 59.9982 42.4357C60.0429 43.4782 59.897 44.6016 59.7561 45.4176C59.684 45.8356 59.6094 46.1941 59.5525 46.4496C59.5239 46.5776 59.4997 46.6806 59.4822 46.753C59.4769 46.7746 59.4723 46.7935 59.4684 46.8096M51.6269 30.0766C51.0889 30.0774 50.6008 30.1345 50.2529 30.1892ZM50.2529 30.1892C50.0767 30.2169 49.9309 30.2448 49.8259 30.2666ZM49.8259 30.2666C49.7733 30.2775 49.7306 30.287 49.6991 30.2942ZM49.6991 30.2942L49.6603 30.3033ZM49.6603 30.3033L49.6474 30.3064ZM49.6474 30.3064L49.6426 30.3075ZM49.6426 30.3075L49.6406 30.308ZM49.6406 30.308C49.6402 30.3081 49.639 30.3084 49.9996 31.7644ZM49.9996 31.7644C50.3602 33.2205 50.3598 33.2205 50.3594 33.2206ZM50.3594 33.2206L50.3576 33.2211ZM50.3576 33.2211L50.3682 33.2187ZM50.3682 33.2187C50.3813 33.2157 50.4042 33.2105 50.4359 33.2039ZM50.4359 33.2039C50.4996 33.1907 50.5968 33.172 50.7185 33.1528ZM50.7185 33.1528C50.9662 33.1139 51.2929 33.0771 51.6314 33.0766ZM51.6314 33.0766C52.4601 33.0754 52.7181 33.282 52.7515 33.3321ZM52.7515 33.3321C52.8542 33.4861 52.9746 33.6621 53.1087 33.8582ZM53.1087 33.8582C53.6745 34.6854 54.4845 35.8697 55.2403 37.2677ZM55.2403 37.2677C56.1846 39.0144 56.9294 40.8969 57.0009 42.5643ZM20.1609 37.9913C20.1611 37.9913 20.1613 37.9913 19.9996 36.5C19.8379 35.0087 19.8381 35.0087 19.8384 35.0087L19.8409 35.0084L19.8462 35.0079L19.8634 35.0061L19.9238 35C19.9753 34.995 20.049 34.9881 20.1427 34.98C20.33 34.964 20.5976 34.9433 20.9277 34.9242C21.5866 34.8859 22.5022 34.8529 23.5301 34.8747C25.5182 34.9168 28.1834 35.1648 30.1704 36.1584C31.6231 36.8847 32.2103 38.0633 32.7708 39.1881C32.7943 39.2352 32.8177 39.2823 32.8412 39.3292C34.306 42.2588 34.6991 42.8577 36.1346 44.5194C36.8075 45.2982 38.0659 46.0639 39.3178 46.6695C39.916 46.9589 40.4646 47.1893 40.8633 47.347C41.0237 47.4105 41.1587 47.4618 41.2618 47.5L44.1647 47.5C44.1041 47.1523 44.043 46.7707 43.9875 46.3693C43.874 45.5481 43.7807 44.6218 43.7672 43.7227C43.7539 42.8442 43.8141 41.892 44.0637 41.0661C44.0873 40.988 44.1114 40.9062 44.1362 40.8216C44.3062 40.2433 44.5144 39.5349 44.8838 38.9844C45.4254 38.1771 46.2025 37.7781 47.1358 37.5448C48.8961 37.1047 50.3163 38.0261 51.2742 38.956C52.2166 39.8708 53.0405 41.107 53.7025 42.1002L53.7476 42.168C54.1763 42.8109 54.3741 43.6292 54.5037 44.2529C54.5773 44.6067 54.6296 44.8973 54.6795 45.1741C54.7416 45.5188 54.7998 45.8419 54.8902 46.2385C55.1919 47.5621 55.5218 47.9283 55.8176 48.0308C55.8888 47.9585 56.0001 47.8085 56.1226 47.5479C56.2594 47.2566 56.3614 46.9326 56.4301 46.6653C56.4634 46.5356 56.4867 46.4278 56.5011 46.3555C56.5083 46.3196 56.5131 46.2929 56.5159 46.2774L56.5179 46.2662L56.5181 46.2647L56.5183 46.2635C56.5185 46.2625 56.5187 46.2615 56.5186 46.262L56.5291 46.1952L56.5468 46.1265L56.5474 46.1242L56.5508 46.1106C56.5541 46.0974 56.5593 46.0764 56.5662 46.0481C56.5798 45.9916 56.6 45.9062 56.6242 45.7972C56.6729 45.5787 56.7375 45.2685 56.7998 44.9073C56.928 44.165 57.032 43.2883 57.0009 42.5643M59.4684 46.8096C59.4622 46.8439 59.4538 46.8891 59.443 46.9429C59.4197 47.0598 59.3846 47.2213 59.3358 47.4115C59.2401 47.7841 59.0825 48.3029 58.8378 48.8236C58.6027 49.324 58.2298 49.9515 57.6436 50.4159C56.9945 50.9302 56.1213 51.2057 55.1301 50.9538C52.9138 50.3905 52.2647 48.2188 51.9653 46.9052C51.8749 46.509 51.7811 46.0015 51.6997 45.5617C51.6492 45.2885 51.6035 45.0415 51.5665 44.8635C51.4345 44.2281 51.3229 43.9391 51.2515 43.8321C50.5339 42.7557 49.8739 41.7777 49.1846 41.1086C48.4893 40.4336 48.103 40.3953 47.8634 40.4552C47.5913 40.5233 47.4699 40.5833 47.422 40.6124C47.3927 40.6302 47.388 40.6365 47.3749 40.656C47.3477 40.6966 47.297 40.7897 47.2183 41.0165C47.1574 41.1918 47.1004 41.3826 47.025 41.6353C46.9979 41.7261 46.9684 41.825 46.9354 41.9339C46.8168 42.3265 46.7554 42.9211 46.7668 43.6774C46.7779 44.413 46.8557 45.2093 46.9593 45.9585C47.0623 46.7041 47.1878 47.3807 47.2877 47.8715C47.3375 48.1162 47.3807 48.313 47.411 48.4469C47.4261 48.5139 47.438 48.5651 47.4459 48.5986L47.4546 48.6353L47.4565 48.6433L47.4568 48.6444L47.91 50.5L40.7499 50.5L40.5136 50.4191L40.9996 49C40.5136 50.4191 40.5139 50.4192 40.5136 50.4191L40.5126 50.4188L40.5112 50.4183L40.5071 50.4169L40.4945 50.4125L40.4515 50.3974C40.4152 50.3846 40.3637 50.3662 40.2988 50.3424C40.1689 50.2948 39.9848 50.2257 39.7595 50.1366C39.3104 49.9588 38.6915 49.6991 38.0114 49.3701C36.7066 48.7389 34.9651 47.7546 33.8645 46.4806C32.2153 44.5716 31.6931 43.7412 30.1579 40.6708C29.5061 39.3672 29.3152 39.0849 28.8287 38.8416C27.4791 38.1668 25.3943 37.9149 23.4666 37.874C22.5366 37.8543 21.7027 37.8842 21.1017 37.9191C20.8019 37.9365 20.562 37.9551 20.3991 37.9691C20.3178 37.976 20.2558 37.9819 20.2154 37.9858L20.1713 37.9902L20.1609 37.9913" fill="black"/>
</svg>
