<svg width="100" height="100" viewBox="0 0 100 100" fill="none" xmlns="http://www.w3.org/2000/svg">
<rect width="100" height="100" fill="white"/>
<path fill-rule="evenodd" clip-rule="evenodd" d="M24.825 54.991C27.7006 52.1155 31.6007 50.5 35.6673 50.5H63.334C67.4006 50.5 71.3007 52.1155 74.1763 54.991C77.0518 57.8666 78.6673 61.7667 78.6673 65.8333V72.75C78.6673 73.5784 77.9957 74.25 77.1673 74.25C76.3389 74.25 75.6673 73.5784 75.6673 72.75V65.8333C75.6673 62.5623 74.3679 59.4253 72.055 57.1124C69.742 54.7994 66.605 53.5 63.334 53.5H35.6673C32.3963 53.5 29.2593 54.7994 26.9463 57.1124C24.6334 59.4253 23.334 62.5623 23.334 65.8333V72.75C23.334 73.5784 22.6624 74.25 21.834 74.25C21.0056 74.25 20.334 73.5784 20.334 72.75V65.8333C20.334 61.7667 21.9495 57.8666 24.825 54.991Z" fill="black"/>
<path fill-rule="evenodd" clip-rule="evenodd" d="M49.4994 18.875C42.6878 18.875 37.166 24.3968 37.166 31.2083C37.166 38.0198 42.6878 43.5417 49.4994 43.5417C56.3109 43.5417 61.8327 38.0198 61.8327 31.2083C61.8327 24.3968 56.3109 18.875 49.4994 18.875ZM34.166 31.2083C34.166 22.74 41.031 15.875 49.4994 15.875C57.9677 15.875 64.8327 22.74 64.8327 31.2083C64.8327 39.6767 57.9677 46.5417 49.4994 46.5417C41.031 46.5417 34.166 39.6767 34.166 31.2083Z" fill="black"/>
<path fill-rule="evenodd" clip-rule="evenodd" d="M45.5 61C45.5 60.1716 46.1716 59.5 47 59.5H52C52.8284 59.5 53.5 60.1716 53.5 61V69.8659H62C62.8284 69.8659 63.5 70.5374 63.5 71.3659V76.2439C63.5 77.0723 62.8284 77.7439 62 77.7439H53.5V86C53.5 86.8284 52.8284 87.5 52 87.5H47C46.1716 87.5 45.5 86.8284 45.5 86V77.7439H37C36.1716 77.7439 35.5 77.0723 35.5 76.2439V71.3659C35.5 70.5374 36.1716 69.8659 37 69.8659H45.5V61ZM48.5 62.5V71.3659C48.5 72.1943 47.8284 72.8659 47 72.8659H38.5V74.7439H47C47.8284 74.7439 48.5 75.4155 48.5 76.2439V84.5H50.5V76.2439C50.5 75.4155 51.1716 74.7439 52 74.7439H60.5V72.8659H52C51.1716 72.8659 50.5 72.1943 50.5 71.3659V62.5H48.5Z" fill="black"/>
</svg>
