<svg width="100" height="100" viewBox="0 0 100 100" fill="none" xmlns="http://www.w3.org/2000/svg">
<rect width="100" height="100" fill="white"/>
<path fill-rule="evenodd" clip-rule="evenodd" d="M27.3327 37.3333C25.0315 37.3333 23.166 39.1988 23.166 41.5V69.8333C23.166 72.1345 25.0315 74 27.3327 74H72.666C74.9672 74 76.8327 72.1345 76.8327 69.8333V41.5C76.8327 39.1988 74.9672 37.3333 72.666 37.3333H27.3327ZM20.166 41.5C20.166 37.542 23.3746 34.3333 27.3327 34.3333H72.666C76.6241 34.3333 79.8327 37.542 79.8327 41.5V69.8333C79.8327 73.7914 76.6241 77 72.666 77H27.3327C23.3746 77 20.166 73.7914 20.166 69.8333V41.5Z" fill="black"/>
<path fill-rule="evenodd" clip-rule="evenodd" d="M39.2651 25.0991C40.6091 23.7551 42.432 23 44.3327 23H55.666C57.5667 23 59.3896 23.7551 60.7336 25.0991C62.0776 26.4431 62.8327 28.2659 62.8327 30.1667V75.5C62.8327 76.3284 62.1611 77 61.3327 77C60.5043 77 59.8327 76.3284 59.8327 75.5V30.1667C59.8327 29.0616 59.3937 28.0018 58.6123 27.2204C57.8309 26.439 56.7711 26 55.666 26H44.3327C43.2276 26 42.1678 26.439 41.3864 27.2204C40.605 28.0018 40.166 29.0616 40.166 30.1667V75.5C40.166 76.3284 39.4944 77 38.666 77C37.8376 77 37.166 76.3284 37.166 75.5V30.1667C37.166 28.2659 37.9211 26.4431 39.2651 25.0991Z" fill="black"/>
<path fill-rule="evenodd" clip-rule="evenodd" d="M47.1 49C47.1 48.1716 47.7716 47.5 48.6 47.5H51.4C52.2284 47.5 52.9 48.1716 52.9 49V53.3049H57C57.8284 53.3049 58.5 53.9765 58.5 54.8049V57.5366C58.5 58.365 57.8284 59.0366 57 59.0366H52.9V63C52.9 63.8284 52.2284 64.5 51.4 64.5H48.6C47.7716 64.5 47.1 63.8284 47.1 63V59.0366H43C42.1716 59.0366 41.5 58.365 41.5 57.5366V54.8049C41.5 53.9765 42.1716 53.3049 43 53.3049H47.1V49ZM50 55.3445C49.8585 55.7114 49.577 56.0086 49.2209 56.1707C49.577 56.3329 49.8585 56.6301 50 56.9969C50.1415 56.6301 50.423 56.3329 50.7791 56.1707C50.423 56.0086 50.1415 55.7114 50 55.3445Z" fill="black"/>
</svg>
