<svg width="100" height="100" viewBox="0 0 100 100" fill="none" xmlns="http://www.w3.org/2000/svg">
<rect width="100" height="100" fill="white"/>
<path fill-rule="evenodd" clip-rule="evenodd" d="M32.584 28.3216C32.8645 27.6487 33.084 26.6734 33.084 25.5C33.084 24.3266 32.8645 23.3513 32.584 22.6784C32.3035 23.3513 32.084 24.3266 32.084 25.5C32.084 26.6734 32.3035 27.6487 32.584 28.3216ZM32.0925 29.1316C32.092 29.1296 32.104 29.1175 32.13 29.1014C32.106 29.1256 32.093 29.1336 32.0925 29.1316ZM33.038 29.1014C33.0639 29.1175 33.0759 29.1296 33.0754 29.1316C33.075 29.1336 33.062 29.1256 33.038 29.1014ZM33.0754 21.8684C33.0759 21.8704 33.0639 21.8825 33.038 21.8986C33.062 21.8744 33.075 21.8664 33.0754 21.8684ZM32.13 21.8986C32.104 21.8825 32.092 21.8704 32.0925 21.8684C32.093 21.8664 32.106 21.8744 32.13 21.8986ZM32.584 32C34.517 32 36.084 29.0899 36.084 25.5C36.084 21.9101 34.517 19 32.584 19C30.651 19 29.084 21.9101 29.084 25.5C29.084 29.0899 30.651 32 32.584 32Z" fill="black"/>
<path fill-rule="evenodd" clip-rule="evenodd" d="M59.584 28.3216C59.3035 27.6487 59.084 26.6734 59.084 25.5C59.084 24.3266 59.3035 23.3513 59.584 22.6784C59.8645 23.3513 60.084 24.3266 60.084 25.5C60.084 26.6734 59.8645 27.6487 59.584 28.3216ZM60.0754 29.1316C60.0759 29.1296 60.0639 29.1175 60.038 29.1014C60.062 29.1256 60.075 29.1336 60.0754 29.1316ZM59.13 29.1014C59.104 29.1175 59.092 29.1296 59.0925 29.1316C59.093 29.1336 59.106 29.1256 59.13 29.1014ZM59.0925 21.8684C59.092 21.8704 59.104 21.8825 59.13 21.8986C59.106 21.8744 59.093 21.8664 59.0925 21.8684ZM60.038 21.8986C60.0639 21.8825 60.0759 21.8704 60.0754 21.8684C60.075 21.8664 60.062 21.8744 60.038 21.8986ZM59.584 32C57.651 32 56.084 29.0899 56.084 25.5C56.084 21.9101 57.651 19 59.584 19C61.517 19 63.084 21.9101 63.084 25.5C63.084 29.0899 61.517 32 59.584 32Z" fill="black"/>
<path fill-rule="evenodd" clip-rule="evenodd" d="M81.084 70C83.2931 70 85.084 68.2091 85.084 66C85.084 63.7909 83.2931 62 81.084 62C78.8748 62 77.084 63.7909 77.084 66C77.084 68.2091 78.8748 70 81.084 70ZM81.084 73C84.95 73 88.084 69.866 88.084 66C88.084 62.134 84.95 59 81.084 59C77.218 59 74.084 62.134 74.084 66C74.084 69.866 77.218 73 81.084 73Z" fill="black"/>
<path fill-rule="evenodd" clip-rule="evenodd" d="M81.084 67C81.6363 67 82.084 66.5523 82.084 66C82.084 65.4477 81.6363 65 81.084 65C80.5317 65 80.084 65.4477 80.084 66C80.084 66.5523 80.5317 67 81.084 67ZM81.084 70C83.2931 70 85.084 68.2091 85.084 66C85.084 63.7909 83.2931 62 81.084 62C78.8748 62 77.084 63.7909 77.084 66C77.084 68.2091 78.8748 70 81.084 70Z" fill="black"/>
<path fill-rule="evenodd" clip-rule="evenodd" d="M23.755 24.1836C25.5506 23.5078 27.7392 23.413 29.177 23.5029L28.9898 26.497C27.761 26.4202 26.0496 26.5254 24.8118 26.9913C24.198 27.2223 23.8448 27.4885 23.6721 27.7228C23.5428 27.8981 23.4326 28.1568 23.5477 28.6745C23.7501 29.5852 24.5394 31.5264 25.8865 34.0117C27.2107 36.4546 29.009 39.3038 31.1376 42.0101C33.2708 44.7224 35.7015 47.2471 38.2813 49.0824C40.8669 50.9219 43.5035 52 46.0837 52V55C42.664 55 39.4254 53.5781 36.5422 51.5269C33.6532 49.4716 31.0214 46.7151 28.7795 43.8648C26.5331 41.0086 24.6437 38.0141 23.2491 35.4413C21.8775 32.911 20.9168 30.6647 20.6191 29.3253C20.3342 28.0431 20.5657 26.8809 21.2572 25.9427C21.9054 25.0635 22.8521 24.5234 23.755 24.1836Z" fill="black"/>
<path fill-rule="evenodd" clip-rule="evenodd" d="M68.4129 24.1836C66.6174 23.5078 64.4288 23.413 62.991 23.5029L63.1781 26.497C64.407 26.4202 66.1184 26.5254 67.3562 26.9913C67.97 27.2223 68.3232 27.4885 68.4959 27.7228C68.6252 27.8981 68.7353 28.1568 68.6203 28.6745C68.4179 29.5852 67.6286 31.5264 66.2814 34.0117C64.9572 36.4546 63.159 39.3038 61.0304 42.0101C58.8971 44.7224 56.4664 47.2471 53.8866 49.0824C51.301 50.9219 48.6645 52 46.0843 52V55C49.504 55 52.7425 53.5781 55.6257 51.5269C58.5147 49.4716 61.1466 46.7151 63.3884 43.8648C65.6349 41.0086 67.5243 38.0141 68.9189 35.4413C70.2905 32.911 71.2512 30.6647 71.5488 29.3253C71.8338 28.0431 71.6023 26.8809 70.9107 25.9427C70.2626 25.0635 69.3158 24.5234 68.4129 24.1836Z" fill="black"/>
<path fill-rule="evenodd" clip-rule="evenodd" d="M44.8544 66.4329C44.2414 62.0857 44.2484 57.4157 44.5888 53.3741L47.5782 53.6259C47.2518 57.501 47.2505 61.9393 47.825 66.014C48.4052 70.1287 49.5466 73.6793 51.357 75.9532C52.2443 77.0678 53.271 77.8497 54.4589 78.2739C55.6452 78.6974 57.0969 78.8017 58.8964 78.3948C62.5567 77.567 67.511 74.6546 74.0478 68.415L76.1192 70.585C69.4559 76.9454 64.0186 80.3122 59.5581 81.3209C57.2971 81.8322 55.2561 81.744 53.4502 81.0992C51.646 80.455 50.181 79.2927 49.01 77.8218C46.7036 74.9249 45.4617 70.74 44.8544 66.4329Z" fill="black"/>
</svg>
