<svg width="100" height="100" viewBox="0 0 100 100" fill="none" xmlns="http://www.w3.org/2000/svg">
<rect width="100" height="100" fill="white"/>
<path fill-rule="evenodd" clip-rule="evenodd" d="M54 33H44C34.6112 33 27 40.6112 27 50V82C27 84.7614 29.2386 87 32 87H67C69.7614 87 72 84.7614 72 82V51C72 41.0589 63.9411 33 54 33ZM44 30C32.9543 30 24 38.9543 24 50V82C24 86.4183 27.5817 90 32 90H67C71.4183 90 75 86.4183 75 82V51C75 39.402 65.598 30 54 30H44Z" fill="black"/>
<path fill-rule="evenodd" clip-rule="evenodd" d="M53 25H44V28H53V25ZM41 22V31H56V22H41Z" fill="black"/>
<path fill-rule="evenodd" clip-rule="evenodd" d="M49 17H48V20H49V17ZM45 14V23H52V14H45Z" fill="black"/>
<path fill-rule="evenodd" clip-rule="evenodd" d="M51 14V18H68V14H51Z" fill="black"/>
<path fill-rule="evenodd" clip-rule="evenodd" d="M45.5 48C45.5 47.1716 46.1716 46.5 47 46.5H52C52.8284 46.5 53.5 47.1716 53.5 48V56.8659H62C62.8284 56.8659 63.5 57.5374 63.5 58.3659V63.2439C63.5 64.0723 62.8284 64.7439 62 64.7439H53.5V73C53.5 73.8284 52.8284 74.5 52 74.5H47C46.1716 74.5 45.5 73.8284 45.5 73V64.7439H37C36.1716 64.7439 35.5 64.0723 35.5 63.2439V58.3659C35.5 57.5374 36.1716 56.8659 37 56.8659H45.5V48ZM48.5 49.5V58.3659C48.5 59.1943 47.8284 59.8659 47 59.8659H38.5V61.7439H47C47.8284 61.7439 48.5 62.4155 48.5 63.2439V71.5H50.5V63.2439C50.5 62.4155 51.1716 61.7439 52 61.7439H60.5V59.8659H52C51.1716 59.8659 50.5 59.1943 50.5 58.3659V49.5H48.5Z" fill="black"/>
</svg>
