<svg width="100" height="100" viewBox="0 0 100 100" fill="none" xmlns="http://www.w3.org/2000/svg">
<rect width="100" height="100" fill="white"/>
<path d="M78.1932 79.5H48.8085C48.2563 79.5 47.8085 79.0523 47.8085 78.5V54.6538C47.8085 54.6538 47.3046 44.1159 49.1162 39.6154C50.6057 35.9153 54.2756 37.7187 54.347 33.7308C54.3803 31.8721 53.0393 29.8077 53.0393 29.8077H73.3086C73.3086 29.8077 72.4689 31.9348 72.6547 33.7308C73.0488 37.5406 76.5328 35.3782 77.8855 38.9615C79.5988 43.5004 79.1932 54.6538 79.1932 54.6538V78.5C79.1932 79.0523 78.7454 79.5 78.1932 79.5Z" fill="white"/>
<path fill-rule="evenodd" clip-rule="evenodd" d="M55.0393 21.5C54.7632 21.5 54.5393 21.7239 54.5393 22V28.3077H72.4624L72.4624 22C72.4624 21.7239 72.2385 21.5 71.9624 21.5H55.0393ZM75.4624 28.3077L75.4624 22C75.4624 20.067 73.8954 18.5 71.9624 18.5H55.0393C53.1063 18.5 51.5393 20.067 51.5393 22V30.2521L51.7796 30.6221C51.7793 30.6216 51.7794 30.6217 51.7796 30.6221L51.7803 30.6231L51.7853 30.631C51.7913 30.6405 51.8017 30.6572 51.8159 30.6805C51.8443 30.7272 51.8877 30.8 51.9409 30.8947C52.0481 31.0852 52.1918 31.3579 52.3339 31.6791C52.634 32.3575 52.8581 33.0998 52.8473 33.7039C52.8337 34.4579 52.6597 34.7294 52.5601 34.8479C52.4197 35.0152 52.1914 35.1639 51.6382 35.4175C51.5643 35.4514 51.4867 35.4862 51.4058 35.5224C50.3207 36.0085 48.6499 36.7569 47.7247 39.0553C46.7063 41.5852 46.3835 45.6002 46.2838 48.7752C46.2325 50.4048 46.2391 51.8883 46.2583 52.9638C46.268 53.5022 46.2808 53.9397 46.2913 54.244C46.2966 54.3961 46.3012 54.515 46.3046 54.5966L46.3085 54.688V78.5C46.3085 79.8807 47.4278 81 48.8085 81H78.1932C79.5739 81 80.6932 79.8807 80.6932 78.5V54.6799L80.6934 54.6722L80.6966 54.5737C80.6992 54.488 80.7028 54.3629 80.7068 54.2027C80.7147 53.8825 80.724 53.4217 80.7297 52.8553C80.7411 51.7236 80.7383 50.1648 80.681 48.4594C80.5692 45.133 80.2458 40.9669 79.2888 38.4318C78.8467 37.2605 78.1878 36.4737 77.4046 35.9335C76.7484 35.4809 76.0361 35.2339 75.5503 35.0655C75.5007 35.0483 75.4534 35.0319 75.4088 35.0162C74.8483 34.8189 74.6298 34.7073 74.4896 34.572C74.4039 34.4893 74.219 34.2751 74.1467 33.5764C74.08 32.9316 74.1975 32.1471 74.3682 31.4552C74.4502 31.1234 74.5373 30.8403 74.6033 30.6424C74.6361 30.5439 74.6633 30.4678 74.6813 30.4186C74.6851 30.4082 74.6885 30.399 74.6914 30.3911C74.6954 30.3804 74.6986 30.3721 74.7008 30.3662L74.7038 30.3584L74.7044 30.3568L75.1793 29.1538H75.4624V28.4366L75.5133 28.3077H75.4624ZM71.3281 31.3077H55.4101C55.658 32.0244 55.8625 32.8824 55.8468 33.7576C55.8246 34.9976 55.5131 35.9962 54.8579 36.7767C54.2435 37.5086 53.4479 37.8881 52.8886 38.1445C52.8215 38.1753 52.7558 38.2052 52.6916 38.2344C51.6446 38.7111 50.9744 39.0162 50.5077 40.1755C49.7145 42.1461 49.3834 45.6504 49.2823 48.8694C49.233 50.4369 49.2392 51.8692 49.2579 52.9101C49.2672 53.43 49.2795 53.8509 49.2895 54.1405C49.2945 54.2853 49.2989 54.3972 49.302 54.4722L49.3057 54.5564L49.3066 54.5768L49.3068 54.5814L49.3085 54.618V78H77.6932V54.6266L77.6941 54.5994L77.6944 54.5932L77.6951 54.5712L77.698 54.4813C77.7005 54.4014 77.7039 54.2824 77.7077 54.1287C77.7153 53.8213 77.7243 53.3752 77.7298 52.8251C77.741 51.7237 77.7381 50.2104 77.6827 48.5602C77.5689 45.1752 77.2385 41.495 76.4821 39.4913C76.248 38.8709 75.9641 38.5843 75.7013 38.4031C75.394 38.1911 75.0548 38.0718 74.4979 37.876C74.4699 37.8662 74.4415 37.8562 74.4125 37.8459C73.8837 37.6598 73.0727 37.3736 72.4065 36.7309C71.6859 36.0356 71.2875 35.0914 71.1627 33.8851C71.069 32.98 71.1785 32.059 71.3281 31.3077Z" fill="black"/>
<path fill-rule="evenodd" clip-rule="evenodd" d="M78.5398 45.0385H48.4629V42.0385H78.5398V45.0385Z" fill="black"/>
<path fill-rule="evenodd" clip-rule="evenodd" d="M78.5398 64H48.4629V61H78.5398V64Z" fill="black"/>
<path fill-rule="evenodd" clip-rule="evenodd" d="M78.5398 49.6154H48.4629V46.6154H78.5398V49.6154Z" fill="black"/>
<path fill-rule="evenodd" clip-rule="evenodd" d="M78.5398 68.5769H48.4629V65.5769H78.5398V68.5769Z" fill="black"/>
<path d="M21 78.5V55C21 54.4477 21.4477 54 22 54H63.1538C63.7061 54 64.1538 54.4477 64.1538 55V78.5C64.1538 79.0523 63.7061 79.5 63.1538 79.5H22C21.4477 79.5 21 79.0523 21 78.5Z" fill="white"/>
<path fill-rule="evenodd" clip-rule="evenodd" d="M22.5 55.5V78H62.6538V55.5H22.5ZM19.5 55C19.5 53.6193 20.6193 52.5 22 52.5H63.1538C64.5346 52.5 65.6538 53.6193 65.6538 55V78.5C65.6538 79.8807 64.5346 81 63.1538 81H22C20.6193 81 19.5 79.8807 19.5 78.5V55Z" fill="black"/>
<path d="M33.4234 60.5385C33.4234 63.0662 31.3742 65.1154 28.8465 65.1154C26.3187 65.1154 24.2695 63.0662 24.2695 60.5385C24.2695 58.0107 26.3187 55.9615 28.8465 55.9615C31.3742 55.9615 33.4234 58.0107 33.4234 60.5385Z" fill="white"/>
<path fill-rule="evenodd" clip-rule="evenodd" d="M28.8465 62.1154C29.7174 62.1154 30.4234 61.4094 30.4234 60.5385C30.4234 59.6676 29.7174 58.9615 28.8465 58.9615C27.9755 58.9615 27.2695 59.6676 27.2695 60.5385C27.2695 61.4094 27.9755 62.1154 28.8465 62.1154ZM28.8465 65.1154C31.3742 65.1154 33.4234 63.0662 33.4234 60.5385C33.4234 58.0107 31.3742 55.9615 28.8465 55.9615C26.3187 55.9615 24.2695 58.0107 24.2695 60.5385C24.2695 63.0662 26.3187 65.1154 28.8465 65.1154Z" fill="black"/>
<path d="M33.4234 72.3077C33.4234 74.8355 31.3742 76.8846 28.8465 76.8846C26.3187 76.8846 24.2695 74.8355 24.2695 72.3077C24.2695 69.7799 26.3187 67.7308 28.8465 67.7308C31.3742 67.7308 33.4234 69.7799 33.4234 72.3077Z" fill="white"/>
<path fill-rule="evenodd" clip-rule="evenodd" d="M28.8465 73.8846C29.7174 73.8846 30.4234 73.1786 30.4234 72.3077C30.4234 71.4368 29.7174 70.7308 28.8465 70.7308C27.9755 70.7308 27.2695 71.4368 27.2695 72.3077C27.2695 73.1786 27.9755 73.8846 28.8465 73.8846ZM28.8465 76.8846C31.3742 76.8846 33.4234 74.8355 33.4234 72.3077C33.4234 69.7799 31.3742 67.7308 28.8465 67.7308C26.3187 67.7308 24.2695 69.7799 24.2695 72.3077C24.2695 74.8355 26.3187 76.8846 28.8465 76.8846Z" fill="black"/>
<path d="M46.4995 60.5385C46.4995 63.0662 44.4504 65.1154 41.9226 65.1154C39.3949 65.1154 37.3457 63.0662 37.3457 60.5385C37.3457 58.0107 39.3949 55.9615 41.9226 55.9615C44.4504 55.9615 46.4995 58.0107 46.4995 60.5385Z" fill="white"/>
<path fill-rule="evenodd" clip-rule="evenodd" d="M41.9226 62.1154C42.7935 62.1154 43.4995 61.4094 43.4995 60.5385C43.4995 59.6676 42.7935 58.9615 41.9226 58.9615C41.0517 58.9615 40.3457 59.6676 40.3457 60.5385C40.3457 61.4094 41.0517 62.1154 41.9226 62.1154ZM41.9226 65.1154C44.4504 65.1154 46.4995 63.0662 46.4995 60.5385C46.4995 58.0107 44.4504 55.9615 41.9226 55.9615C39.3949 55.9615 37.3457 58.0107 37.3457 60.5385C37.3457 63.0662 39.3949 65.1154 41.9226 65.1154Z" fill="black"/>
<path d="M46.4995 72.3077C46.4995 74.8355 44.4504 76.8846 41.9226 76.8846C39.3949 76.8846 37.3457 74.8355 37.3457 72.3077C37.3457 69.7799 39.3949 67.7308 41.9226 67.7308C44.4504 67.7308 46.4995 69.7799 46.4995 72.3077Z" fill="white"/>
<path fill-rule="evenodd" clip-rule="evenodd" d="M41.9226 73.8846C42.7935 73.8846 43.4995 73.1786 43.4995 72.3077C43.4995 71.4368 42.7935 70.7308 41.9226 70.7308C41.0517 70.7308 40.3457 71.4368 40.3457 72.3077C40.3457 73.1786 41.0517 73.8846 41.9226 73.8846ZM41.9226 76.8846C44.4504 76.8846 46.4995 74.8355 46.4995 72.3077C46.4995 69.7799 44.4504 67.7308 41.9226 67.7308C39.3949 67.7308 37.3457 69.7799 37.3457 72.3077C37.3457 74.8355 39.3949 76.8846 41.9226 76.8846Z" fill="black"/>
<path d="M59.5777 60.5385C59.5777 63.0662 57.5285 65.1154 55.0008 65.1154C52.473 65.1154 50.4238 63.0662 50.4238 60.5385C50.4238 58.0107 52.473 55.9615 55.0008 55.9615C57.5285 55.9615 59.5777 58.0107 59.5777 60.5385Z" fill="white"/>
<path fill-rule="evenodd" clip-rule="evenodd" d="M55.0008 62.1154C55.8717 62.1154 56.5777 61.4094 56.5777 60.5385C56.5777 59.6676 55.8717 58.9615 55.0008 58.9615C54.1298 58.9615 53.4238 59.6676 53.4238 60.5385C53.4238 61.4094 54.1298 62.1154 55.0008 62.1154ZM55.0008 65.1154C57.5285 65.1154 59.5777 63.0662 59.5777 60.5385C59.5777 58.0107 57.5285 55.9615 55.0008 55.9615C52.473 55.9615 50.4238 58.0107 50.4238 60.5385C50.4238 63.0662 52.473 65.1154 55.0008 65.1154Z" fill="black"/>
<path d="M59.5777 72.3077C59.5777 74.8355 57.5285 76.8846 55.0008 76.8846C52.473 76.8846 50.4238 74.8355 50.4238 72.3077C50.4238 69.7799 52.473 67.7308 55.0008 67.7308C57.5285 67.7308 59.5777 69.7799 59.5777 72.3077Z" fill="white"/>
<path fill-rule="evenodd" clip-rule="evenodd" d="M55.0008 73.8846C55.8717 73.8846 56.5777 73.1786 56.5777 72.3077C56.5777 71.4368 55.8717 70.7308 55.0008 70.7308C54.1298 70.7308 53.4238 71.4368 53.4238 72.3077C53.4238 73.1786 54.1298 73.8846 55.0008 73.8846ZM55.0008 76.8846C57.5285 76.8846 59.5777 74.8355 59.5777 72.3077C59.5777 69.7799 57.5285 67.7308 55.0008 67.7308C52.473 67.7308 50.4238 69.7799 50.4238 72.3077C50.4238 74.8355 52.473 76.8846 55.0008 76.8846Z" fill="black"/>
</svg>
