<svg width="100" height="100" viewBox="0 0 100 100" fill="none" xmlns="http://www.w3.org/2000/svg">
<rect width="100" height="100" fill="white"/>
<path fill-rule="evenodd" clip-rule="evenodd" d="M31.659 67.2905L19.5008 80.0013L19.1909 80.3912C17.2838 82.7905 20.4985 85.8747 22.8167 83.8698L35.5275 71.7116L53.5422 61.0769L79.8145 34.6912C83.0666 31.425 83.0553 26.1408 79.789 22.8886C76.5228 19.6364 71.2386 19.6478 67.9864 22.914L41.7141 49.2997L31.659 67.2905ZM44.1314 51.1238L34.1013 69.0698L51.6869 58.6884L77.6886 32.5745C79.7717 30.4824 79.7644 27.0976 77.6723 25.0145C75.5802 22.9314 72.1954 22.9386 70.1123 25.0308L44.1314 51.1238Z" fill="black"/>
<path fill-rule="evenodd" clip-rule="evenodd" d="M76.0607 26.9393C76.6464 27.5251 76.6464 28.4749 76.0607 29.0607L45.0607 60.0607C44.4749 60.6464 43.5251 60.6464 42.9393 60.0607C42.3536 59.4749 42.3536 58.5251 42.9393 57.9393L73.9393 26.9393C74.5251 26.3536 75.4749 26.3536 76.0607 26.9393Z" fill="black"/>
</svg>
