<svg width="100" height="100" viewBox="0 0 100 100" fill="none" xmlns="http://www.w3.org/2000/svg">
<rect width="100" height="100" fill="white"/>
<path d="M34.6875 15H65.3125C67.7189 15 69.6875 16.9689 69.6875 19.375V80.625C69.6875 83.0311 67.7189 85 65.3125 85H34.6875C32.2811 85 30.3125 83.0311 30.3125 80.625V19.375C30.3125 16.9689 32.2811 15 34.6875 15ZM32.5001 80.625C32.5001 81.8311 33.4811 82.8126 34.6876 82.8126H65.3125C66.5189 82.8126 67.4999 81.8313 67.4999 80.625V72.9687H32.4999V80.625H32.5001ZM32.5001 70.7813H67.5001V22.6563H32.5001V70.7813ZM32.5001 20.4687H67.5001V19.375C67.5001 18.1689 66.5191 17.1874 65.3126 17.1874H34.6876C33.4812 17.1874 32.5001 18.1687 32.5001 19.375V20.4687Z" fill="black"/>
<path d="M49.9999 81.5138C47.9898 81.5138 46.3533 79.8773 46.3533 77.8672C46.3533 75.857 47.9896 74.2206 49.9999 74.2206C52.0101 74.2206 53.6465 75.8569 53.6465 77.8672C53.6465 79.8773 52.0101 81.5138 49.9999 81.5138ZM49.9999 76.4082C49.1946 76.4082 48.5409 77.0619 48.5409 77.8672C48.5409 78.6726 49.1946 79.3262 49.9999 79.3262C50.8053 79.3262 51.4589 78.6725 51.4589 77.8672C51.4589 77.0618 50.8052 76.4082 49.9999 76.4082Z" fill="black"/>
<path fill-rule="evenodd" clip-rule="evenodd" d="M44.6968 37.6967C46.1033 36.2902 48.011 35.5 50.0001 35.5C51.9892 35.5 53.8969 36.2902 55.3034 37.6967C56.7099 39.1032 57.5001 41.0109 57.5001 43C57.5001 46.279 58.2007 48.2769 58.817 49.4067C59.1272 49.9754 59.4243 50.3396 59.6203 50.5465C59.7187 50.6504 59.7927 50.7157 59.8315 50.7481C59.845 50.7593 59.8543 50.7666 59.8589 50.7702C60.39 51.1409 60.6242 51.8124 60.4358 52.4347C60.2442 53.0673 59.6611 53.5 59.0001 53.5H41.0001C40.3391 53.5 39.756 53.0673 39.5645 52.4347C39.3761 51.8124 39.6102 51.1409 40.1413 50.7702C40.1459 50.7666 40.1552 50.7593 40.1687 50.7481C40.2076 50.7157 40.2815 50.6504 40.3799 50.5465C40.576 50.3396 40.8731 49.9754 41.1833 49.4067C41.7995 48.2769 42.5001 46.279 42.5001 43C42.5001 41.0109 43.2903 39.1032 44.6968 37.6967ZM40.166 50.7533C40.1661 50.7533 40.1661 50.7532 40.1661 50.7532C40.1661 50.7532 40.1661 50.7532 40.1661 50.7532L40.166 50.7533ZM43.9961 50.5H56.0042C55.1944 48.8767 54.5001 46.4677 54.5001 43C54.5001 41.8065 54.026 40.6619 53.1821 39.818C52.3382 38.9741 51.1936 38.5 50.0001 38.5C48.8066 38.5 47.6621 38.9741 46.8181 39.818C45.9742 40.6619 45.5001 41.8065 45.5001 43C45.5001 46.4677 44.8059 48.8767 43.9961 50.5Z" fill="black"/>
<path fill-rule="evenodd" clip-rule="evenodd" d="M47.5171 54.7025C48.2337 54.2868 49.1516 54.5308 49.5673 55.2473C49.6112 55.3231 49.6743 55.386 49.7502 55.4297C49.8261 55.4734 49.9122 55.4965 49.9998 55.4965C50.0874 55.4965 50.1734 55.4734 50.2493 55.4297C50.3252 55.386 50.3883 55.3231 50.4323 55.2473C50.848 54.5308 51.7658 54.2868 52.4824 54.7025C53.199 55.1182 53.443 56.0361 53.0273 56.7527C52.7196 57.283 52.278 57.7233 51.7467 58.0293C51.2153 58.3354 50.6129 58.4965 49.9998 58.4965C49.3866 58.4965 48.7842 58.3354 48.2529 58.0293C47.7216 57.7233 47.2799 57.283 46.9723 56.7527C46.5566 56.0361 46.8005 55.1182 47.5171 54.7025Z" fill="black"/>
</svg>
