<svg width="100" height="100" viewBox="0 0 100 100" fill="none" xmlns="http://www.w3.org/2000/svg">
<rect width="100" height="100" fill="white"/>
<path d="M34.6875 15H65.3125C67.7189 15 69.6875 16.9689 69.6875 19.375V80.625C69.6875 83.0311 67.7189 85 65.3125 85H34.6875C32.2811 85 30.3125 83.0311 30.3125 80.625V19.375C30.3125 16.9689 32.2811 15 34.6875 15ZM32.5001 80.625C32.5001 81.8311 33.4811 82.8126 34.6876 82.8126H65.3125C66.5189 82.8126 67.4999 81.8313 67.4999 80.625V72.9687H32.4999V80.625H32.5001ZM32.5001 70.7813H67.5001V22.6563H32.5001V70.7813ZM32.5001 20.4687H67.5001V19.375C67.5001 18.1689 66.5191 17.1874 65.3126 17.1874H34.6876C33.4812 17.1874 32.5001 18.1687 32.5001 19.375V20.4687Z" fill="black"/>
<path d="M49.9999 81.5138C47.9898 81.5138 46.3533 79.8773 46.3533 77.8672C46.3533 75.857 47.9896 74.2206 49.9999 74.2206C52.0101 74.2206 53.6465 75.8569 53.6465 77.8672C53.6465 79.8773 52.0101 81.5138 49.9999 81.5138ZM49.9999 76.4082C49.1946 76.4082 48.5409 77.0619 48.5409 77.8672C48.5409 78.6726 49.1946 79.3262 49.9999 79.3262C50.8053 79.3262 51.4589 78.6725 51.4589 77.8672C51.4589 77.0618 50.8052 76.4082 49.9999 76.4082Z" fill="black"/>
<path fill-rule="evenodd" clip-rule="evenodd" d="M41 51.5C41.8284 51.5 42.5 52.1716 42.5 53V57C42.5 57.1326 42.5527 57.2598 42.6464 57.3536C42.7402 57.4473 42.8674 57.5 43 57.5H57C57.1326 57.5 57.2598 57.4473 57.3536 57.3536C57.4473 57.2598 57.5 57.1326 57.5 57V53C57.5 52.1716 58.1716 51.5 59 51.5C59.8284 51.5 60.5 52.1716 60.5 53V57C60.5 57.9283 60.1313 58.8185 59.4749 59.4749C58.8185 60.1312 57.9283 60.5 57 60.5H43C42.0717 60.5 41.1815 60.1313 40.5251 59.4749C39.8687 58.8185 39.5 57.9283 39.5 57V53C39.5 52.1716 40.1716 51.5 41 51.5Z" fill="black"/>
<path fill-rule="evenodd" clip-rule="evenodd" d="M43.9393 46.9393C44.5251 46.3536 45.4749 46.3536 46.0607 46.9393L50 50.8787L53.9393 46.9393C54.5251 46.3536 55.4749 46.3536 56.0607 46.9393C56.6464 47.5251 56.6464 48.4749 56.0607 49.0607L51.0607 54.0607C50.4749 54.6464 49.5251 54.6464 48.9393 54.0607L43.9393 49.0607C43.3536 48.4749 43.3536 47.5251 43.9393 46.9393Z" fill="black"/>
<path fill-rule="evenodd" clip-rule="evenodd" d="M50 39.5C50.8284 39.5 51.5 40.1716 51.5 41V53C51.5 53.8284 50.8284 54.5 50 54.5C49.1716 54.5 48.5 53.8284 48.5 53V41C48.5 40.1716 49.1716 39.5 50 39.5Z" fill="black"/>
</svg>
