<svg width="100" height="100" viewBox="0 0 100 100" fill="none" xmlns="http://www.w3.org/2000/svg">
<rect width="100" height="100" fill="white"/>
<path d="M64.4624 15H35.5378C32.6561 15 30.3125 17.3926 30.3125 20.332V79.668C30.3125 82.6074 32.6559 85 35.5378 85H64.4624C67.3441 85 69.6875 82.6074 69.6875 79.668V20.332C69.6876 17.3926 67.3441 15 64.4624 15ZM67.5001 79.668C67.5001 81.4026 66.1372 82.8126 64.4624 82.8126H35.5378C33.8629 82.8126 32.5001 81.4027 32.5001 79.668V72.9687H67.5001V79.668ZM67.5001 70.7813H32.5001V22.6563H67.5001V70.7813ZM67.5001 20.4687H32.5001V20.332C32.5001 18.5974 33.8629 17.1874 35.5378 17.1874H64.4624C66.1371 17.1874 67.5001 18.5973 67.5001 20.332V20.4687Z" fill="black"/>
<path d="M50.0001 81.5138C52.0102 81.5138 53.6467 79.8773 53.6467 77.8672C53.6467 75.857 52.0104 74.2206 50.0001 74.2206C47.9898 74.2206 46.3535 75.8569 46.3535 77.8672C46.3535 79.8773 47.9899 81.5138 50.0001 81.5138ZM50.0001 76.4082C50.8054 76.4082 51.4591 77.0619 51.4591 77.8672C51.4591 78.6726 50.8054 79.3262 50.0001 79.3262C49.1947 79.3262 48.5411 78.6725 48.5411 77.8672C48.5411 77.0618 49.1947 76.4082 50.0001 76.4082Z" fill="black"/>
<path fill-rule="evenodd" clip-rule="evenodd" d="M43.5789 54.8099L41.1443 52.3753L43.4054 49.6117C43.014 48.9781 42.7111 48.2847 42.5094 47.5496L39 47.1987V43.7556L42.5043 43.4051C42.7047 42.6679 43.0116 41.9751 43.4036 41.3404L41.1441 38.579L43.5787 36.1443L46.4511 38.4944C47.052 38.1783 47.6973 37.935 48.3773 37.7817L48.7554 34H52.2131L52.5913 37.7817C53.2713 37.935 53.9166 38.1783 54.5174 38.4944L57.3899 36.1443L59.8244 38.579L57.565 41.3404C57.957 41.9751 58.2639 42.6679 58.4641 43.4051L61.9687 43.7556V47.1987L58.4593 47.5496C58.2576 48.2847 57.9547 48.9781 57.5633 49.6117L59.8244 52.3753L57.3899 54.8099L54.518 52.4601C53.917 52.7763 53.2714 53.0191 52.5914 53.1724L52.2133 56.9541H48.7554L48.3773 53.1724C47.6973 53.0191 47.0519 52.7763 46.4507 52.4601L43.5789 54.8099ZM53.9801 45.4773C53.9801 43.5464 52.4151 41.9813 50.4844 41.9813C48.5539 41.9813 46.9886 43.5464 46.9886 45.4773C46.9886 47.408 48.5537 48.9731 50.4844 48.9731C52.4151 48.9731 53.9801 47.4079 53.9801 45.4773Z" fill="black"/>
</svg>
