<svg width="100" height="100" viewBox="0 0 100 100" fill="none" xmlns="http://www.w3.org/2000/svg">
<rect width="100" height="100" fill="white"/>
<path d="M50.0004 44.6974C53.2806 44.6974 55.9403 42.0381 55.9403 38.7577C55.9403 35.4772 53.2807 32.818 50.0004 32.818C46.7203 32.818 44.0605 35.4772 44.0605 38.7577C44.0605 42.0381 46.7203 44.6974 50.0004 44.6974ZM50.0004 35.0057C52.0693 35.0057 53.7527 36.689 53.7527 38.7578C53.7527 40.8267 52.0694 42.51 50.0004 42.51C47.9314 42.51 46.2481 40.8267 46.2481 38.7578C46.2481 36.6888 47.9314 35.0057 50.0004 35.0057Z" fill="black"/>
<path d="M49.7198 58.5029L43.9808 46.062C43.9808 46.062 37.9609 46.1422 37.9609 51.6805C37.9609 57.2188 37.9609 58.5029 37.9609 58.5029C37.9609 58.5029 49.6791 58.5029 49.7198 58.5029ZM40.1484 51.6805C40.1484 49.5907 41.5112 48.7689 42.6728 48.4485L46.3016 56.3155H40.1482V51.6805H40.1484Z" fill="black"/>
<path d="M62.0401 58.5029C62.0401 58.5029 62.0401 57.2188 62.0401 51.6805C62.0401 46.1422 56.0203 46.062 56.0203 46.062L50.2812 58.5029H62.0401ZM57.326 48.4535C58.4485 48.7727 59.8525 49.5899 59.8525 51.6805V56.3155H53.6991L57.326 48.4535Z" fill="black"/>
<path fill-rule="evenodd" clip-rule="evenodd" d="M45.8672 46.0618L50.0009 55.2121L54.1346 46.0618H45.8672Z" fill="black"/>
<path d="M65.3126 15H34.6875C32.2811 15 30.3125 16.9689 30.3125 19.375V80.625C30.3125 83.0311 32.2811 85 34.6875 85H65.3125C67.7189 85 69.6875 83.0311 69.6875 80.625V19.375C69.6876 16.9689 67.7191 15 65.3126 15ZM67.5001 80.625C67.5001 81.8311 66.5191 82.8126 65.3125 82.8126H34.6875C33.4811 82.8126 32.5001 81.8313 32.5001 80.625V72.9687H67.5001V80.625ZM67.5001 70.7813H32.5001V22.6563H67.5001V70.7813ZM67.5001 20.4687H32.5001V19.375C32.5001 18.1689 33.4811 17.1874 34.6875 17.1874H65.3125C66.5189 17.1874 67.5001 18.1687 67.5001 19.375V20.4687Z" fill="black"/>
<path d="M50.0001 81.5138C52.0102 81.5138 53.6467 79.8773 53.6467 77.8672C53.6467 75.857 52.0104 74.2206 50.0001 74.2206C47.9898 74.2206 46.3535 75.8569 46.3535 77.8672C46.3535 79.8773 47.9899 81.5138 50.0001 81.5138ZM50.0001 76.408C50.8054 76.408 51.4591 77.0618 51.4591 77.867C51.4591 78.6725 50.8054 79.326 50.0001 79.326C49.1947 79.326 48.5411 78.6723 48.5411 77.867C48.5411 77.0618 49.1947 76.408 50.0001 76.408Z" fill="black"/>
</svg>
