<svg width="100" height="100" viewBox="0 0 100 100" fill="none" xmlns="http://www.w3.org/2000/svg">
<rect width="100" height="100" fill="white"/>
<path d="M34.6875 15H65.3125C67.7189 15 69.6875 16.9689 69.6875 19.375V80.625C69.6875 83.0311 67.7189 85 65.3125 85H34.6875C32.2811 85 30.3125 83.0311 30.3125 80.625V19.375C30.3125 16.9689 32.2811 15 34.6875 15ZM32.5001 80.625C32.5001 81.8311 33.4811 82.8126 34.6876 82.8126H65.3125C66.5189 82.8126 67.4999 81.8313 67.4999 80.625V72.9687H32.4999V80.625H32.5001ZM32.5001 70.7813H67.5001V22.6563H32.5001V70.7813ZM32.5001 20.4687H67.5001V19.375C67.5001 18.1689 66.5191 17.1874 65.3126 17.1874H34.6876C33.4812 17.1874 32.5001 18.1687 32.5001 19.375V20.4687Z" fill="black"/>
<path d="M49.9999 81.5138C47.9898 81.5138 46.3533 79.8773 46.3533 77.8672C46.3533 75.857 47.9896 74.2206 49.9999 74.2206C52.0101 74.2206 53.6465 75.8569 53.6465 77.8672C53.6465 79.8773 52.0101 81.5138 49.9999 81.5138ZM49.9999 76.4082C49.1946 76.4082 48.5409 77.0619 48.5409 77.8672C48.5409 78.6726 49.1946 79.3262 49.9999 79.3262C50.8053 79.3262 51.4589 78.6725 51.4589 77.8672C51.4589 77.0618 50.8052 76.4082 49.9999 76.4082Z" fill="black"/>
<path fill-rule="evenodd" clip-rule="evenodd" d="M42 44.5C41.7239 44.5 41.5 44.7239 41.5 45V55C41.5 55.2761 41.7239 55.5 42 55.5H58C58.2761 55.5 58.5 55.2761 58.5 55V45C58.5 44.7239 58.2761 44.5 58 44.5H42ZM38.5 45C38.5 43.067 40.067 41.5 42 41.5H58C59.933 41.5 61.5 43.067 61.5 45V55C61.5 56.933 59.933 58.5 58 58.5H42C40.067 58.5 38.5 56.933 38.5 55V45Z" fill="black"/>
<path fill-rule="evenodd" clip-rule="evenodd" d="M45.5251 38.5251C46.1815 37.8687 47.0717 37.5 48 37.5H52C52.9283 37.5 53.8185 37.8687 54.4749 38.5251C55.1313 39.1815 55.5 40.0717 55.5 41V57C55.5 57.8284 54.8284 58.5 54 58.5C53.1716 58.5 52.5 57.8284 52.5 57V41C52.5 40.8674 52.4473 40.7402 52.3536 40.6464C52.2598 40.5527 52.1326 40.5 52 40.5H48C47.8674 40.5 47.7402 40.5527 47.6464 40.6464C47.5527 40.7402 47.5 40.8674 47.5 41V57C47.5 57.8284 46.8284 58.5 46 58.5C45.1716 58.5 44.5 57.8284 44.5 57V41C44.5 40.0717 44.8687 39.1815 45.5251 38.5251Z" fill="black"/>
</svg>
