<svg width="100" height="100" viewBox="0 0 100 100" fill="none" xmlns="http://www.w3.org/2000/svg">
<rect width="100" height="100" fill="white"/>
<path d="M34.6875 15H65.3125C67.7189 15 69.6875 16.9689 69.6875 19.375V80.625C69.6875 83.0311 67.7189 85 65.3125 85H34.6875C32.2811 85 30.3125 83.0311 30.3125 80.625V19.375C30.3125 16.9689 32.2811 15 34.6875 15ZM32.5001 80.625C32.5001 81.8311 33.4811 82.8126 34.6876 82.8126H65.3125C66.5189 82.8126 67.4999 81.8313 67.4999 80.625V72.9687H32.4999V80.625H32.5001ZM32.5001 70.7813H67.5001V22.6563H32.5001V70.7813ZM32.5001 20.4687H67.5001V19.375C67.5001 18.1689 66.5191 17.1874 65.3126 17.1874H34.6876C33.4812 17.1874 32.5001 18.1687 32.5001 19.375V20.4687Z" fill="black"/>
<path d="M49.9999 81.5138C47.9898 81.5138 46.3533 79.8773 46.3533 77.8672C46.3533 75.857 47.9896 74.2206 49.9999 74.2206C52.0101 74.2206 53.6465 75.8569 53.6465 77.8672C53.6465 79.8773 52.0101 81.5138 49.9999 81.5138ZM49.9999 76.4082C49.1946 76.4082 48.5409 77.0619 48.5409 77.8672C48.5409 78.6726 49.1946 79.3262 49.9999 79.3262C50.8053 79.3262 51.4589 78.6725 51.4589 77.8672C51.4589 77.0618 50.8052 76.4082 49.9999 76.4082Z" fill="black"/>
<path fill-rule="evenodd" clip-rule="evenodd" d="M42 48.5C42.8284 48.5 43.5 49.1716 43.5 50V58.5H56.5V50C56.5 49.1716 57.1716 48.5 58 48.5C58.8284 48.5 59.5 49.1716 59.5 50V60C59.5 60.8284 58.8284 61.5 58 61.5H42C41.1716 61.5 40.5 60.8284 40.5 60V50C40.5 49.1716 41.1716 48.5 42 48.5Z" fill="black"/>
<path fill-rule="evenodd" clip-rule="evenodd" d="M38.5 45C38.5 44.1716 39.1716 43.5 40 43.5H60C60.8284 43.5 61.5 44.1716 61.5 45V50C61.5 50.8284 60.8284 51.5 60 51.5H40C39.1716 51.5 38.5 50.8284 38.5 50V45ZM41.5 46.5V48.5H58.5V46.5H41.5Z" fill="black"/>
<path fill-rule="evenodd" clip-rule="evenodd" d="M50 43.5C50.8284 43.5 51.5 44.1716 51.5 45V60C51.5 60.8284 50.8284 61.5 50 61.5C49.1716 61.5 48.5 60.8284 48.5 60V45C48.5 44.1716 49.1716 43.5 50 43.5Z" fill="black"/>
<path fill-rule="evenodd" clip-rule="evenodd" d="M45.5 41.5C45.2348 41.5 44.9804 41.6054 44.7929 41.7929C44.6054 41.9804 44.5 42.2348 44.5 42.5C44.5 42.7652 44.6054 43.0196 44.7929 43.2071C44.9804 43.3946 45.2348 43.5 45.5 43.5H47.8923C47.8469 43.4077 47.7989 43.3151 47.7482 43.2229C47.1485 42.1325 46.4159 41.5 45.5 41.5ZM50 45C51.4709 44.7058 51.4708 44.7053 51.4707 44.7048L51.4704 44.7037L51.4699 44.701L51.4685 44.6944L51.4646 44.6756C51.4615 44.6607 51.4572 44.641 51.4518 44.6169C51.4411 44.5687 51.4258 44.5027 51.4054 44.4214C51.3648 44.2589 51.3038 44.0336 51.2191 43.7659C51.0513 43.236 50.7818 42.5135 50.3768 41.7771C49.6015 40.3675 48.0841 38.5 45.5 38.5C44.4391 38.5 43.4217 38.9214 42.6716 39.6716C41.9214 40.4217 41.5 41.4391 41.5 42.5C41.5 43.5609 41.9214 44.5783 42.6716 45.3284C43.4217 46.0786 44.4391 46.5 45.5 46.5H50C50.4494 46.5 50.8751 46.2985 51.16 45.951C51.4449 45.6035 51.559 45.1465 51.4709 44.7058L50 45Z" fill="black"/>
<path fill-rule="evenodd" clip-rule="evenodd" d="M49.6232 41.7771C50.3985 40.3675 51.9159 38.5 54.5 38.5C55.5609 38.5 56.5783 38.9214 57.3284 39.6716C58.0786 40.4217 58.5 41.4391 58.5 42.5C58.5 43.5609 58.0786 44.5783 57.3284 45.3284C56.5783 46.0786 55.5609 46.5 54.5 46.5H50C49.5506 46.5 49.1249 46.2985 48.84 45.951C48.5551 45.6035 48.441 45.1465 48.5291 44.7058L50 45C48.5291 44.7058 48.5292 44.7053 48.5293 44.7048L48.5301 44.701L48.5315 44.6944L48.5354 44.6756C48.5385 44.6607 48.5428 44.641 48.5482 44.6169C48.5589 44.5687 48.5743 44.5027 48.5946 44.4214C48.6352 44.2589 48.6962 44.0336 48.7809 43.7659C48.9488 43.236 49.2182 42.5135 49.6232 41.7771ZM51.4706 45.2957C51.4702 45.2975 51.47 45.2984 51.47 45.2984L51.4703 45.2972L51.4706 45.2957ZM52.1077 43.5C52.1531 43.4077 52.2011 43.3151 52.2518 43.2229C52.8515 42.1325 53.5842 41.5 54.5 41.5C54.7652 41.5 55.0196 41.6054 55.2071 41.7929C55.3947 41.9804 55.5 42.2348 55.5 42.5C55.5 42.7652 55.3947 43.0196 55.2071 43.2071C55.0196 43.3946 54.7652 43.5 54.5 43.5H52.1077Z" fill="black"/>
</svg>
