<svg width="100" height="100" viewBox="0 0 100 100" fill="none" xmlns="http://www.w3.org/2000/svg">
<rect width="100" height="100" fill="white"/>
<path d="M34.6875 15H65.3125C67.7189 15 69.6875 16.9689 69.6875 19.375V80.625C69.6875 83.0311 67.7189 85 65.3125 85H34.6875C32.2811 85 30.3125 83.0311 30.3125 80.625V19.375C30.3125 16.9689 32.2811 15 34.6875 15ZM32.5001 80.625C32.5001 81.8311 33.4811 82.8126 34.6876 82.8126H65.3125C66.5189 82.8126 67.4999 81.8313 67.4999 80.625V72.9687H32.4999V80.625H32.5001ZM32.5001 70.7813H67.5001V22.6563H32.5001V70.7813ZM32.5001 20.4687H67.5001V19.375C67.5001 18.1689 66.5191 17.1874 65.3126 17.1874H34.6876C33.4812 17.1874 32.5001 18.1687 32.5001 19.375V20.4687Z" fill="black"/>
<path d="M49.9999 81.5138C47.9898 81.5138 46.3533 79.8773 46.3533 77.8672C46.3533 75.857 47.9896 74.2206 49.9999 74.2206C52.0101 74.2206 53.6465 75.8569 53.6465 77.8672C53.6465 79.8773 52.0101 81.5138 49.9999 81.5138ZM49.9999 76.4082C49.1946 76.4082 48.5409 77.0619 48.5409 77.8672C48.5409 78.6726 49.1946 79.3262 49.9999 79.3262C50.8053 79.3262 51.4589 78.6725 51.4589 77.8672C51.4589 77.0618 50.8052 76.4082 49.9999 76.4082Z" fill="black"/>
<path fill-rule="evenodd" clip-rule="evenodd" d="M41.5251 34.5251C42.1815 33.8687 43.0717 33.5 44 33.5H52C52.3978 33.5 52.7794 33.658 53.0607 33.9393L59.0607 39.9393C59.342 40.2206 59.5 40.6022 59.5 41V53C59.5 53.9283 59.1313 54.8185 58.4749 55.4749C57.8185 56.1313 56.9283 56.5 56 56.5H44C43.0717 56.5 42.1815 56.1313 41.5251 55.4749C40.8687 54.8185 40.5 53.9283 40.5 53V37C40.5 36.0717 40.8687 35.1815 41.5251 34.5251ZM44 36.5C43.8674 36.5 43.7402 36.5527 43.6464 36.6464C43.5527 36.7402 43.5 36.8674 43.5 37V53C43.5 53.1326 43.5527 53.2598 43.6464 53.3536C43.7402 53.4473 43.8674 53.5 44 53.5H56C56.1326 53.5 56.2598 53.4473 56.3536 53.3536C56.4473 53.2598 56.5 53.1326 56.5 53V41.6213L51.3787 36.5H44Z" fill="black"/>
<path fill-rule="evenodd" clip-rule="evenodd" d="M52 33.5C52.8284 33.5 53.5 34.1716 53.5 35V39.5H58C58.8284 39.5 59.5 40.1716 59.5 41C59.5 41.8284 58.8284 42.5 58 42.5H52C51.1716 42.5 50.5 41.8284 50.5 41V35C50.5 34.1716 51.1716 33.5 52 33.5Z" fill="black"/>
<path fill-rule="evenodd" clip-rule="evenodd" d="M44.5 46C44.5 45.1716 45.1716 44.5 46 44.5H54C54.8284 44.5 55.5 45.1716 55.5 46C55.5 46.8284 54.8284 47.5 54 47.5H46C45.1716 47.5 44.5 46.8284 44.5 46Z" fill="black"/>
<path fill-rule="evenodd" clip-rule="evenodd" d="M44.5 50C44.5 49.1716 45.1716 48.5 46 48.5H54C54.8284 48.5 55.5 49.1716 55.5 50C55.5 50.8284 54.8284 51.5 54 51.5H46C45.1716 51.5 44.5 50.8284 44.5 50Z" fill="black"/>
<path fill-rule="evenodd" clip-rule="evenodd" d="M44.5 42C44.5 41.1716 45.1716 40.5 46 40.5H48C48.8284 40.5 49.5 41.1716 49.5 42C49.5 42.8284 48.8284 43.5 48 43.5H46C45.1716 43.5 44.5 42.8284 44.5 42Z" fill="black"/>
</svg>
