<svg width="100" height="100" viewBox="0 0 100 100" fill="none" xmlns="http://www.w3.org/2000/svg">
<rect width="100" height="100" fill="white"/>
<path d="M34.6875 15H65.3125C67.7189 15 69.6875 16.9689 69.6875 19.375V80.625C69.6875 83.0311 67.7189 85 65.3125 85H34.6875C32.2811 85 30.3125 83.0311 30.3125 80.625V19.375C30.3125 16.9689 32.2811 15 34.6875 15ZM32.5001 80.625C32.5001 81.8311 33.4811 82.8126 34.6876 82.8126H65.3125C66.5189 82.8126 67.4999 81.8313 67.4999 80.625V72.9687H32.4999V80.625H32.5001ZM32.5001 70.7813H67.5001V22.6563H32.5001V70.7813ZM32.5001 20.4687H67.5001V19.375C67.5001 18.1689 66.5191 17.1874 65.3126 17.1874H34.6876C33.4812 17.1874 32.5001 18.1687 32.5001 19.375V20.4687Z" fill="black"/>
<path d="M49.9999 81.5138C47.9898 81.5138 46.3533 79.8773 46.3533 77.8672C46.3533 75.857 47.9896 74.2206 49.9999 74.2206C52.0101 74.2206 53.6465 75.8569 53.6465 77.8672C53.6465 79.8773 52.0101 81.5138 49.9999 81.5138ZM49.9999 76.4082C49.1946 76.4082 48.5409 77.0619 48.5409 77.8672C48.5409 78.6726 49.1946 79.3262 49.9999 79.3262C50.8053 79.3262 51.4589 78.6725 51.4589 77.8672C51.4589 77.0618 50.8052 76.4082 49.9999 76.4082Z" fill="black"/>
<path fill-rule="evenodd" clip-rule="evenodd" d="M50 39.5C45.3056 39.5 41.5 43.3056 41.5 48C41.5 52.6944 45.3056 56.5 50 56.5C54.6944 56.5 58.5 52.6944 58.5 48C58.5 43.3056 54.6944 39.5 50 39.5ZM38.5 48C38.5 41.6487 43.6487 36.5 50 36.5C56.3513 36.5 61.5 41.6487 61.5 48C61.5 54.3513 56.3513 59.5 50 59.5C43.6487 59.5 38.5 54.3513 38.5 48Z" fill="black"/>
<path fill-rule="evenodd" clip-rule="evenodd" d="M55.3005 42.6994C55.7022 43.1011 55.8425 43.6954 55.6628 44.2344L53.5428 50.5944C53.3935 51.0423 53.0421 51.3937 52.5941 51.543L46.2341 53.663C45.6951 53.8427 45.1009 53.7024 44.6991 53.3007C44.2974 52.8989 44.1571 52.3047 44.3368 51.7657L46.4568 45.4057C46.6061 44.9578 46.9576 44.6063 47.4055 44.457L53.7655 42.337C54.3045 42.1573 54.8987 42.2976 55.3005 42.6994ZM49.0657 47.0659L48.1315 49.8683L50.934 48.9342L51.8681 46.1317L49.0657 47.0659Z" fill="black"/>
</svg>
